<?xml version="1.0" encoding="utf-8" standalone="no"?>
<!DOCTYPE svg PUBLIC "-//W3C//DTD SVG 1.1//EN"
  "http://www.w3.org/Graphics/SVG/1.1/DTD/svg11.dtd">
<svg xmlns:xlink="http://www.w3.org/1999/xlink" width="460.8pt" height="345.6pt" viewBox="0 0 460.8 345.6" xmlns="http://www.w3.org/2000/svg" version="1.1">
 <metadata>
  <rdf:RDF xmlns:dc="http://purl.org/dc/elements/1.1/" xmlns:cc="http://creativecommons.org/ns#" xmlns:rdf="http://www.w3.org/1999/02/22-rdf-syntax-ns#">
   <cc:Work>
    <dc:type rdf:resource="http://purl.org/dc/dcmitype/StillImage"/>
    <dc:date>2024-07-29T13:10:52.713059</dc:date>
    <dc:format>image/svg+xml</dc:format>
    <dc:creator>
     <cc:Agent>
      <dc:title>Matplotlib v3.8.4, https://matplotlib.org/</dc:title>
     </cc:Agent>
    </dc:creator>
   </cc:Work>
  </rdf:RDF>
 </metadata>
 <defs>
  <style type="text/css">*{stroke-linejoin: round; stroke-linecap: butt}</style>
 </defs>
 <g id="figure_1">
  <g id="patch_1">
   <path d="M 0 345.6 
L 460.8 345.6 
L 460.8 0 
L 0 0 
z
" style="fill: #ffffff"/>
  </g>
  <g id="axes_1">
   <g id="patch_2">
    <path d="M 57.6 307.584 
L 414.72 307.584 
L 414.72 41.472 
L 57.6 41.472 
z
" style="fill: #ffffff"/>
   </g>
   <g id="matplotlib.axis_1">
    <g id="xtick_1">
     <g id="line2d_1">
      <defs>
       <path id="m3aa7c54e2e" d="M 0 0 
L 0 3.5 
" style="stroke: #000000; stroke-width: 0.8"/>
      </defs>
      <g>
       <use xlink:href="#m3aa7c54e2e" x="104.94666" y="307.584" style="stroke: #000000; stroke-width: 0.8"/>
      </g>
     </g>
     <g id="text_1">
      <!-- −1.0 -->
      <g transform="translate(90.376973 323.702125) scale(0.12 -0.12)">
       <defs>
        <path id="DejaVuSans-2212" d="M 678 2272 
L 4684 2272 
L 4684 1741 
L 678 1741 
L 678 2272 
z
" transform="scale(0.015625)"/>
        <path id="DejaVuSans-31" d="M 794 531 
L 1825 531 
L 1825 4091 
L 703 3866 
L 703 4441 
L 1819 4666 
L 2450 4666 
L 2450 531 
L 3481 531 
L 3481 0 
L 794 0 
L 794 531 
z
" transform="scale(0.015625)"/>
        <path id="DejaVuSans-2e" d="M 684 794 
L 1344 794 
L 1344 0 
L 684 0 
L 684 794 
z
" transform="scale(0.015625)"/>
        <path id="DejaVuSans-30" d="M 2034 4250 
Q 1547 4250 1301 3770 
Q 1056 3291 1056 2328 
Q 1056 1369 1301 889 
Q 1547 409 2034 409 
Q 2525 409 2770 889 
Q 3016 1369 3016 2328 
Q 3016 3291 2770 3770 
Q 2525 4250 2034 4250 
z
M 2034 4750 
Q 2819 4750 3233 4129 
Q 3647 3509 3647 2328 
Q 3647 1150 3233 529 
Q 2819 -91 2034 -91 
Q 1250 -91 836 529 
Q 422 1150 422 2328 
Q 422 3509 836 4129 
Q 1250 4750 2034 4750 
z
" transform="scale(0.015625)"/>
       </defs>
       <use xlink:href="#DejaVuSans-2212"/>
       <use xlink:href="#DejaVuSans-31" x="83.789062"/>
       <use xlink:href="#DejaVuSans-2e" x="147.412109"/>
       <use xlink:href="#DejaVuSans-30" x="179.199219"/>
      </g>
     </g>
    </g>
    <g id="xtick_2">
     <g id="line2d_2">
      <g>
       <use xlink:href="#m3aa7c54e2e" x="170.552712" y="307.584" style="stroke: #000000; stroke-width: 0.8"/>
      </g>
     </g>
     <g id="text_2">
      <!-- −0.5 -->
      <g transform="translate(155.983025 323.702125) scale(0.12 -0.12)">
       <defs>
        <path id="DejaVuSans-35" d="M 691 4666 
L 3169 4666 
L 3169 4134 
L 1269 4134 
L 1269 2991 
Q 1406 3038 1543 3061 
Q 1681 3084 1819 3084 
Q 2600 3084 3056 2656 
Q 3513 2228 3513 1497 
Q 3513 744 3044 326 
Q 2575 -91 1722 -91 
Q 1428 -91 1123 -41 
Q 819 9 494 109 
L 494 744 
Q 775 591 1075 516 
Q 1375 441 1709 441 
Q 2250 441 2565 725 
Q 2881 1009 2881 1497 
Q 2881 1984 2565 2268 
Q 2250 2553 1709 2553 
Q 1456 2553 1204 2497 
Q 953 2441 691 2322 
L 691 4666 
z
" transform="scale(0.015625)"/>
       </defs>
       <use xlink:href="#DejaVuSans-2212"/>
       <use xlink:href="#DejaVuSans-30" x="83.789062"/>
       <use xlink:href="#DejaVuSans-2e" x="147.412109"/>
       <use xlink:href="#DejaVuSans-35" x="179.199219"/>
      </g>
     </g>
    </g>
    <g id="xtick_3">
     <g id="line2d_3">
      <g>
       <use xlink:href="#m3aa7c54e2e" x="236.158764" y="307.584" style="stroke: #000000; stroke-width: 0.8"/>
      </g>
     </g>
     <g id="text_3">
      <!-- 0.0 -->
      <g transform="translate(226.616889 323.702125) scale(0.12 -0.12)">
       <use xlink:href="#DejaVuSans-30"/>
       <use xlink:href="#DejaVuSans-2e" x="63.623047"/>
       <use xlink:href="#DejaVuSans-30" x="95.410156"/>
      </g>
     </g>
    </g>
    <g id="xtick_4">
     <g id="line2d_4">
      <g>
       <use xlink:href="#m3aa7c54e2e" x="301.764816" y="307.584" style="stroke: #000000; stroke-width: 0.8"/>
      </g>
     </g>
     <g id="text_4">
      <!-- 0.5 -->
      <g transform="translate(292.222941 323.702125) scale(0.12 -0.12)">
       <use xlink:href="#DejaVuSans-30"/>
       <use xlink:href="#DejaVuSans-2e" x="63.623047"/>
       <use xlink:href="#DejaVuSans-35" x="95.410156"/>
      </g>
     </g>
    </g>
    <g id="xtick_5">
     <g id="line2d_5">
      <g>
       <use xlink:href="#m3aa7c54e2e" x="367.370868" y="307.584" style="stroke: #000000; stroke-width: 0.8"/>
      </g>
     </g>
     <g id="text_5">
      <!-- 1.0 -->
      <g transform="translate(357.828993 323.702125) scale(0.12 -0.12)">
       <use xlink:href="#DejaVuSans-31"/>
       <use xlink:href="#DejaVuSans-2e" x="63.623047"/>
       <use xlink:href="#DejaVuSans-30" x="95.410156"/>
      </g>
     </g>
    </g>
    <g id="text_6">
     <!-- Inelastic load $G$ -->
     <g transform="translate(197.51 337.796187) scale(0.1 -0.1)">
      <defs>
       <path id="DejaVuSans-49" d="M 628 4666 
L 1259 4666 
L 1259 0 
L 628 0 
L 628 4666 
z
" transform="scale(0.015625)"/>
       <path id="DejaVuSans-6e" d="M 3513 2113 
L 3513 0 
L 2938 0 
L 2938 2094 
Q 2938 2591 2744 2837 
Q 2550 3084 2163 3084 
Q 1697 3084 1428 2787 
Q 1159 2491 1159 1978 
L 1159 0 
L 581 0 
L 581 3500 
L 1159 3500 
L 1159 2956 
Q 1366 3272 1645 3428 
Q 1925 3584 2291 3584 
Q 2894 3584 3203 3211 
Q 3513 2838 3513 2113 
z
" transform="scale(0.015625)"/>
       <path id="DejaVuSans-65" d="M 3597 1894 
L 3597 1613 
L 953 1613 
Q 991 1019 1311 708 
Q 1631 397 2203 397 
Q 2534 397 2845 478 
Q 3156 559 3463 722 
L 3463 178 
Q 3153 47 2828 -22 
Q 2503 -91 2169 -91 
Q 1331 -91 842 396 
Q 353 884 353 1716 
Q 353 2575 817 3079 
Q 1281 3584 2069 3584 
Q 2775 3584 3186 3129 
Q 3597 2675 3597 1894 
z
M 3022 2063 
Q 3016 2534 2758 2815 
Q 2500 3097 2075 3097 
Q 1594 3097 1305 2825 
Q 1016 2553 972 2059 
L 3022 2063 
z
" transform="scale(0.015625)"/>
       <path id="DejaVuSans-6c" d="M 603 4863 
L 1178 4863 
L 1178 0 
L 603 0 
L 603 4863 
z
" transform="scale(0.015625)"/>
       <path id="DejaVuSans-61" d="M 2194 1759 
Q 1497 1759 1228 1600 
Q 959 1441 959 1056 
Q 959 750 1161 570 
Q 1363 391 1709 391 
Q 2188 391 2477 730 
Q 2766 1069 2766 1631 
L 2766 1759 
L 2194 1759 
z
M 3341 1997 
L 3341 0 
L 2766 0 
L 2766 531 
Q 2569 213 2275 61 
Q 1981 -91 1556 -91 
Q 1019 -91 701 211 
Q 384 513 384 1019 
Q 384 1609 779 1909 
Q 1175 2209 1959 2209 
L 2766 2209 
L 2766 2266 
Q 2766 2663 2505 2880 
Q 2244 3097 1772 3097 
Q 1472 3097 1187 3025 
Q 903 2953 641 2809 
L 641 3341 
Q 956 3463 1253 3523 
Q 1550 3584 1831 3584 
Q 2591 3584 2966 3190 
Q 3341 2797 3341 1997 
z
" transform="scale(0.015625)"/>
       <path id="DejaVuSans-73" d="M 2834 3397 
L 2834 2853 
Q 2591 2978 2328 3040 
Q 2066 3103 1784 3103 
Q 1356 3103 1142 2972 
Q 928 2841 928 2578 
Q 928 2378 1081 2264 
Q 1234 2150 1697 2047 
L 1894 2003 
Q 2506 1872 2764 1633 
Q 3022 1394 3022 966 
Q 3022 478 2636 193 
Q 2250 -91 1575 -91 
Q 1294 -91 989 -36 
Q 684 19 347 128 
L 347 722 
Q 666 556 975 473 
Q 1284 391 1588 391 
Q 1994 391 2212 530 
Q 2431 669 2431 922 
Q 2431 1156 2273 1281 
Q 2116 1406 1581 1522 
L 1381 1569 
Q 847 1681 609 1914 
Q 372 2147 372 2553 
Q 372 3047 722 3315 
Q 1072 3584 1716 3584 
Q 2034 3584 2315 3537 
Q 2597 3491 2834 3397 
z
" transform="scale(0.015625)"/>
       <path id="DejaVuSans-74" d="M 1172 4494 
L 1172 3500 
L 2356 3500 
L 2356 3053 
L 1172 3053 
L 1172 1153 
Q 1172 725 1289 603 
Q 1406 481 1766 481 
L 2356 481 
L 2356 0 
L 1766 0 
Q 1100 0 847 248 
Q 594 497 594 1153 
L 594 3053 
L 172 3053 
L 172 3500 
L 594 3500 
L 594 4494 
L 1172 4494 
z
" transform="scale(0.015625)"/>
       <path id="DejaVuSans-69" d="M 603 3500 
L 1178 3500 
L 1178 0 
L 603 0 
L 603 3500 
z
M 603 4863 
L 1178 4863 
L 1178 4134 
L 603 4134 
L 603 4863 
z
" transform="scale(0.015625)"/>
       <path id="DejaVuSans-63" d="M 3122 3366 
L 3122 2828 
Q 2878 2963 2633 3030 
Q 2388 3097 2138 3097 
Q 1578 3097 1268 2742 
Q 959 2388 959 1747 
Q 959 1106 1268 751 
Q 1578 397 2138 397 
Q 2388 397 2633 464 
Q 2878 531 3122 666 
L 3122 134 
Q 2881 22 2623 -34 
Q 2366 -91 2075 -91 
Q 1284 -91 818 406 
Q 353 903 353 1747 
Q 353 2603 823 3093 
Q 1294 3584 2113 3584 
Q 2378 3584 2631 3529 
Q 2884 3475 3122 3366 
z
" transform="scale(0.015625)"/>
       <path id="DejaVuSans-20" transform="scale(0.015625)"/>
       <path id="DejaVuSans-6f" d="M 1959 3097 
Q 1497 3097 1228 2736 
Q 959 2375 959 1747 
Q 959 1119 1226 758 
Q 1494 397 1959 397 
Q 2419 397 2687 759 
Q 2956 1122 2956 1747 
Q 2956 2369 2687 2733 
Q 2419 3097 1959 3097 
z
M 1959 3584 
Q 2709 3584 3137 3096 
Q 3566 2609 3566 1747 
Q 3566 888 3137 398 
Q 2709 -91 1959 -91 
Q 1206 -91 779 398 
Q 353 888 353 1747 
Q 353 2609 779 3096 
Q 1206 3584 1959 3584 
z
" transform="scale(0.015625)"/>
       <path id="DejaVuSans-64" d="M 2906 2969 
L 2906 4863 
L 3481 4863 
L 3481 0 
L 2906 0 
L 2906 525 
Q 2725 213 2448 61 
Q 2172 -91 1784 -91 
Q 1150 -91 751 415 
Q 353 922 353 1747 
Q 353 2572 751 3078 
Q 1150 3584 1784 3584 
Q 2172 3584 2448 3432 
Q 2725 3281 2906 2969 
z
M 947 1747 
Q 947 1113 1208 752 
Q 1469 391 1925 391 
Q 2381 391 2643 752 
Q 2906 1113 2906 1747 
Q 2906 2381 2643 2742 
Q 2381 3103 1925 3103 
Q 1469 3103 1208 2742 
Q 947 2381 947 1747 
z
" transform="scale(0.015625)"/>
       <path id="DejaVuSans-Oblique-47" d="M 3494 697 
L 3738 1919 
L 2700 1919 
L 2797 2438 
L 4453 2438 
L 4050 384 
Q 3634 156 3143 32 
Q 2653 -91 2156 -91 
Q 1278 -91 783 396 
Q 288 884 288 1753 
Q 288 2475 589 3126 
Q 891 3778 1422 4213 
Q 1756 4484 2153 4617 
Q 2550 4750 3034 4750 
Q 3472 4750 3873 4639 
Q 4275 4528 4641 4306 
L 4513 3634 
Q 4231 3928 3853 4083 
Q 3475 4238 3047 4238 
Q 2550 4238 2172 4048 
Q 1794 3859 1497 3463 
Q 1244 3125 1098 2667 
Q 953 2209 953 1734 
Q 953 1081 1287 751 
Q 1622 422 2284 422 
Q 2616 422 2925 492 
Q 3234 563 3494 697 
z
" transform="scale(0.015625)"/>
      </defs>
      <use xlink:href="#DejaVuSans-49" transform="translate(0 0.015625)"/>
      <use xlink:href="#DejaVuSans-6e" transform="translate(29.492188 0.015625)"/>
      <use xlink:href="#DejaVuSans-65" transform="translate(92.871094 0.015625)"/>
      <use xlink:href="#DejaVuSans-6c" transform="translate(154.394531 0.015625)"/>
      <use xlink:href="#DejaVuSans-61" transform="translate(182.177734 0.015625)"/>
      <use xlink:href="#DejaVuSans-73" transform="translate(243.457031 0.015625)"/>
      <use xlink:href="#DejaVuSans-74" transform="translate(295.556641 0.015625)"/>
      <use xlink:href="#DejaVuSans-69" transform="translate(334.765625 0.015625)"/>
      <use xlink:href="#DejaVuSans-63" transform="translate(362.548828 0.015625)"/>
      <use xlink:href="#DejaVuSans-20" transform="translate(417.529297 0.015625)"/>
      <use xlink:href="#DejaVuSans-6c" transform="translate(449.316406 0.015625)"/>
      <use xlink:href="#DejaVuSans-6f" transform="translate(477.099609 0.015625)"/>
      <use xlink:href="#DejaVuSans-61" transform="translate(538.28125 0.015625)"/>
      <use xlink:href="#DejaVuSans-64" transform="translate(599.560547 0.015625)"/>
      <use xlink:href="#DejaVuSans-20" transform="translate(663.037109 0.015625)"/>
      <use xlink:href="#DejaVuSans-Oblique-47" transform="translate(694.824219 0.015625)"/>
     </g>
    </g>
   </g>
   <g id="matplotlib.axis_2">
    <g id="ytick_1">
     <g id="line2d_6">
      <defs>
       <path id="m1c8933ff2f" d="M 0 0 
L -3.5 0 
" style="stroke: #000000; stroke-width: 0.8"/>
      </defs>
      <g>
       <use xlink:href="#m1c8933ff2f" x="57.6" y="280.85943" style="stroke: #000000; stroke-width: 0.8"/>
      </g>
     </g>
     <g id="text_7">
      <!-- −6 -->
      <g transform="translate(32.909375 285.418492) scale(0.12 -0.12)">
       <defs>
        <path id="DejaVuSans-36" d="M 2113 2584 
Q 1688 2584 1439 2293 
Q 1191 2003 1191 1497 
Q 1191 994 1439 701 
Q 1688 409 2113 409 
Q 2538 409 2786 701 
Q 3034 994 3034 1497 
Q 3034 2003 2786 2293 
Q 2538 2584 2113 2584 
z
M 3366 4563 
L 3366 3988 
Q 3128 4100 2886 4159 
Q 2644 4219 2406 4219 
Q 1781 4219 1451 3797 
Q 1122 3375 1075 2522 
Q 1259 2794 1537 2939 
Q 1816 3084 2150 3084 
Q 2853 3084 3261 2657 
Q 3669 2231 3669 1497 
Q 3669 778 3244 343 
Q 2819 -91 2113 -91 
Q 1303 -91 875 529 
Q 447 1150 447 2328 
Q 447 3434 972 4092 
Q 1497 4750 2381 4750 
Q 2619 4750 2861 4703 
Q 3103 4656 3366 4563 
z
" transform="scale(0.015625)"/>
       </defs>
       <use xlink:href="#DejaVuSans-2212"/>
       <use xlink:href="#DejaVuSans-36" x="83.789062"/>
      </g>
     </g>
    </g>
    <g id="ytick_2">
     <g id="line2d_7">
      <g>
       <use xlink:href="#m1c8933ff2f" x="57.6" y="245.414631" style="stroke: #000000; stroke-width: 0.8"/>
      </g>
     </g>
     <g id="text_8">
      <!-- −4 -->
      <g transform="translate(32.909375 249.973693) scale(0.12 -0.12)">
       <defs>
        <path id="DejaVuSans-34" d="M 2419 4116 
L 825 1625 
L 2419 1625 
L 2419 4116 
z
M 2253 4666 
L 3047 4666 
L 3047 1625 
L 3713 1625 
L 3713 1100 
L 3047 1100 
L 3047 0 
L 2419 0 
L 2419 1100 
L 313 1100 
L 313 1709 
L 2253 4666 
z
" transform="scale(0.015625)"/>
       </defs>
       <use xlink:href="#DejaVuSans-2212"/>
       <use xlink:href="#DejaVuSans-34" x="83.789062"/>
      </g>
     </g>
    </g>
    <g id="ytick_3">
     <g id="line2d_8">
      <g>
       <use xlink:href="#m1c8933ff2f" x="57.6" y="209.969832" style="stroke: #000000; stroke-width: 0.8"/>
      </g>
     </g>
     <g id="text_9">
      <!-- −2 -->
      <g transform="translate(32.909375 214.528894) scale(0.12 -0.12)">
       <defs>
        <path id="DejaVuSans-32" d="M 1228 531 
L 3431 531 
L 3431 0 
L 469 0 
L 469 531 
Q 828 903 1448 1529 
Q 2069 2156 2228 2338 
Q 2531 2678 2651 2914 
Q 2772 3150 2772 3378 
Q 2772 3750 2511 3984 
Q 2250 4219 1831 4219 
Q 1534 4219 1204 4116 
Q 875 4013 500 3803 
L 500 4441 
Q 881 4594 1212 4672 
Q 1544 4750 1819 4750 
Q 2544 4750 2975 4387 
Q 3406 4025 3406 3419 
Q 3406 3131 3298 2873 
Q 3191 2616 2906 2266 
Q 2828 2175 2409 1742 
Q 1991 1309 1228 531 
z
" transform="scale(0.015625)"/>
       </defs>
       <use xlink:href="#DejaVuSans-2212"/>
       <use xlink:href="#DejaVuSans-32" x="83.789062"/>
      </g>
     </g>
    </g>
    <g id="ytick_4">
     <g id="line2d_9">
      <g>
       <use xlink:href="#m1c8933ff2f" x="57.6" y="174.525033" style="stroke: #000000; stroke-width: 0.8"/>
      </g>
     </g>
     <g id="text_10">
      <!-- 0 -->
      <g transform="translate(42.965 179.084095) scale(0.12 -0.12)">
       <use xlink:href="#DejaVuSans-30"/>
      </g>
     </g>
    </g>
    <g id="ytick_5">
     <g id="line2d_10">
      <g>
       <use xlink:href="#m1c8933ff2f" x="57.6" y="139.080234" style="stroke: #000000; stroke-width: 0.8"/>
      </g>
     </g>
     <g id="text_11">
      <!-- 2 -->
      <g transform="translate(42.965 143.639296) scale(0.12 -0.12)">
       <use xlink:href="#DejaVuSans-32"/>
      </g>
     </g>
    </g>
    <g id="ytick_6">
     <g id="line2d_11">
      <g>
       <use xlink:href="#m1c8933ff2f" x="57.6" y="103.635435" style="stroke: #000000; stroke-width: 0.8"/>
      </g>
     </g>
     <g id="text_12">
      <!-- 4 -->
      <g transform="translate(42.965 108.194498) scale(0.12 -0.12)">
       <use xlink:href="#DejaVuSans-34"/>
      </g>
     </g>
    </g>
    <g id="ytick_7">
     <g id="line2d_12">
      <g>
       <use xlink:href="#m1c8933ff2f" x="57.6" y="68.190636" style="stroke: #000000; stroke-width: 0.8"/>
      </g>
     </g>
     <g id="text_13">
      <!-- 6 -->
      <g transform="translate(42.965 72.749699) scale(0.12 -0.12)">
       <use xlink:href="#DejaVuSans-36"/>
      </g>
     </g>
    </g>
    <g id="text_14">
     <!-- Elastic load $F$ -->
     <g transform="translate(26.829687 207.628) rotate(-90) scale(0.1 -0.1)">
      <defs>
       <path id="DejaVuSans-45" d="M 628 4666 
L 3578 4666 
L 3578 4134 
L 1259 4134 
L 1259 2753 
L 3481 2753 
L 3481 2222 
L 1259 2222 
L 1259 531 
L 3634 531 
L 3634 0 
L 628 0 
L 628 4666 
z
" transform="scale(0.015625)"/>
       <path id="DejaVuSans-Oblique-46" d="M 1081 4666 
L 3756 4666 
L 3653 4134 
L 1606 4134 
L 1338 2759 
L 3188 2759 
L 3084 2228 
L 1234 2228 
L 800 0 
L 172 0 
L 1081 4666 
z
" transform="scale(0.015625)"/>
      </defs>
      <use xlink:href="#DejaVuSans-45" transform="translate(0 0.015625)"/>
      <use xlink:href="#DejaVuSans-6c" transform="translate(63.183594 0.015625)"/>
      <use xlink:href="#DejaVuSans-61" transform="translate(90.966797 0.015625)"/>
      <use xlink:href="#DejaVuSans-73" transform="translate(152.246094 0.015625)"/>
      <use xlink:href="#DejaVuSans-74" transform="translate(204.345703 0.015625)"/>
      <use xlink:href="#DejaVuSans-69" transform="translate(243.554688 0.015625)"/>
      <use xlink:href="#DejaVuSans-63" transform="translate(271.337891 0.015625)"/>
      <use xlink:href="#DejaVuSans-20" transform="translate(326.318359 0.015625)"/>
      <use xlink:href="#DejaVuSans-6c" transform="translate(358.105469 0.015625)"/>
      <use xlink:href="#DejaVuSans-6f" transform="translate(385.888672 0.015625)"/>
      <use xlink:href="#DejaVuSans-61" transform="translate(447.070312 0.015625)"/>
      <use xlink:href="#DejaVuSans-64" transform="translate(508.349609 0.015625)"/>
      <use xlink:href="#DejaVuSans-20" transform="translate(571.826172 0.015625)"/>
      <use xlink:href="#DejaVuSans-Oblique-46" transform="translate(603.613281 0.015625)"/>
     </g>
    </g>
   </g>
   <g id="line2d_13">
    <path d="M 374.323235 207.76713 
L 372.500331 204.063034 
L 370.685336 200.884792 
L 368.908131 198.253182 
L 367.16112 196.110765 
L 365.564684 194.516962 
L 363.85287 193.166192 
L 362.407072 192.289401 
L 360.897992 191.605828 
L 359.328964 191.116308 
L 357.702477 190.812575 
L 355.591064 190.668625 
L 353.394184 190.742878 
L 350.17534 191.103695 
L 340.57401 192.369352 
L 336.709188 192.565626 
L 332.667841 192.518641 
L 328.454478 192.238094 
L 322.797254 191.614102 
L 302.99951 189.197898 
L 294.242066 188.469059 
L 268.925112 186.507635 
L 257.782111 185.317435 
L 244.067667 183.607465 
L 227.844743 181.353567 
L 205.368653 177.964352 
L 171.84285 172.812314 
L 165.403246 171.511359 
L 159.148279 170.035915 
L 150.488046 167.726951 
L 142.338954 165.596472 
L 137.607149 164.594404 
L 133.653717 163.987768 
L 129.877769 163.634633 
L 125.282657 163.455515 
L 119.147711 163.226009 
L 116.51146 162.868732 
L 114.408663 162.339203 
L 112.78925 161.727031 
L 111.227563 160.927332 
L 109.726193 159.930729 
L 108.288582 158.737649 
L 106.587829 156.987774 
L 105.003544 154.993911 
L 103.547464 152.825863 
L 101.98765 150.123426 
L 100.264462 146.656742 
L 98.457774 142.456244 
L 97.99535 141.285234 
L 98.649589 142.674059 
L 100.455949 146.163054 
L 102.232516 149.10655 
L 103.827816 151.349288 
L 105.310541 153.107961 
L 106.919011 154.679986 
L 108.641787 156.003774 
L 110.095707 156.856787 
L 111.612445 157.515954 
L 113.188774 157.981622 
L 114.82231 158.263129 
L 116.942321 158.382961 
L 119.147711 158.289892 
L 122.378543 157.913024 
L 131.474263 156.703312 
L 135.326395 156.490564 
L 139.355242 156.519955 
L 143.556539 156.785043 
L 149.199219 157.395718 
L 169.677151 159.886249 
L 179.189338 160.662144 
L 201.422943 162.356353 
L 212.53311 163.503049 
L 225.415621 165.072501 
L 241.635679 167.286511 
L 260.983455 170.178071 
L 287.500291 174.115265 
L 297.925099 175.777784 
L 305.143075 177.159281 
L 311.451603 178.588609 
L 318.885732 180.518316 
L 330.28084 183.524855 
L 334.998613 184.507706 
L 338.939419 185.095591 
L 342.702674 185.432093 
L 347.281698 185.599554 
L 352.9446 185.804989 
L 355.591064 186.141126 
L 357.702477 186.646716 
L 359.328964 187.23655 
L 360.897992 188.012106 
L 362.407072 188.983908 
L 363.85287 190.152809 
L 365.231208 191.509161 
L 366.851598 193.436081 
L 368.347454 195.560551 
L 369.960253 198.249595 
L 371.56118 201.35091 
L 373.255091 205.122247 
L 374.323235 207.76713 
L 374.323235 207.76713 
" clip-path="url(#p38a01c9f61)" style="fill: none; stroke: #172c4b; stroke-opacity: 0.81; stroke-linecap: square"/>
   </g>
   <g id="line2d_14">
    <path d="M 378.179435 215.824089 
L 376.199763 211.207424 
L 374.383755 207.494153 
L 372.695635 204.488289 
L 371.100775 202.036356 
L 369.354106 199.769843 
L 367.858701 198.161712 
L 366.284408 196.780046 
L 364.637797 195.650538 
L 362.924321 194.783779 
L 361.148277 194.175322 
L 359.312839 193.806635 
L 357.420154 193.646856 
L 354.975656 193.678118 
L 351.408046 193.981911 
L 346.01668 194.446439 
L 342.615436 194.487684 
L 339.687597 194.294827 
L 336.677987 193.868536 
L 333.591257 193.213332 
L 329.794122 192.170509 
L 323.274321 190.077415 
L 317.925127 188.437314 
L 313.857137 187.438309 
L 310.439738 186.847794 
L 307.691439 186.566369 
L 304.93214 186.468484 
L 302.162641 186.556772 
L 298.68636 186.917669 
L 295.192488 187.525544 
L 290.972067 188.508294 
L 283.130469 190.654986 
L 278.049109 191.951858 
L 273.625196 192.843535 
L 269.885758 193.35457 
L 266.096316 193.60842 
L 263.028651 193.607228 
L 259.929698 193.416512 
L 256.801008 193.035724 
L 252.851874 192.301525 
L 248.865854 191.302898 
L 244.850375 190.075614 
L 240.005093 188.366665 
L 232.717057 185.522068 
L 223.051614 181.768975 
L 218.27674 180.148591 
L 214.339906 179.018951 
L 210.447385 178.132742 
L 206.602925 177.516144 
L 202.808449 177.179656 
L 199.064063 177.116561 
L 195.368163 177.302369 
L 191.717656 177.695441 
L 186.674923 178.48325 
L 176.07487 180.233714 
L 172.586543 180.56098 
L 169.115147 180.650371 
L 166.349431 180.520666 
L 163.59412 180.197726 
L 160.850315 179.678385 
L 158.119905 178.969387 
L 154.729794 177.842375 
L 151.371279 176.4968 
L 146.737241 174.378946 
L 136.557715 169.617292 
L 132.927277 168.215371 
L 129.413937 167.122201 
L 126.023023 166.32114 
L 121.696032 165.564286 
L 117.093523 164.75027 
L 114.657708 164.106437 
L 112.772093 163.404224 
L 110.943943 162.486495 
L 109.175524 161.318246 
L 107.470148 159.877442 
L 105.832255 158.157404 
L 104.267441 156.16838 
L 102.782412 153.93818 
L 101.050147 150.881321 
L 99.471442 147.640801 
L 97.805129 143.725383 
L 96.022203 138.950267 
L 94.139361 133.229121 
L 94.169766 133.304488 
L 96.022203 137.6334 
L 97.805129 141.309292 
L 99.471442 144.311163 
L 101.050147 146.774899 
L 102.782412 149.065127 
L 104.267441 150.699034 
L 105.832255 152.110718 
L 107.470148 153.272637 
L 109.175524 154.172299 
L 110.943943 154.812306 
L 112.772093 155.209509 
L 114.657708 155.393348 
L 117.093523 155.384284 
L 120.649032 155.094876 
L 126.579541 154.590623 
L 129.991096 154.571619 
L 132.927277 154.787217 
L 135.944834 155.237064 
L 139.038961 155.913856 
L 142.844055 156.976527 
L 150.704029 159.507066 
L 155.405517 160.887225 
L 158.80112 161.681756 
L 162.220679 162.247162 
L 164.970424 162.506116 
L 167.731026 162.580676 
L 170.501783 162.469408 
L 173.979722 162.082014 
L 177.475506 161.451975 
L 181.698742 160.450564 
L 196.840873 156.545708 
L 200.555873 155.921193 
L 204.320195 155.53433 
L 207.367853 155.420182 
L 210.447385 155.49198 
L 213.557711 155.754245 
L 216.697002 156.205186 
L 220.657899 157.021768 
L 224.653596 158.093262 
L 229.483289 159.659757 
L 235.146222 161.764228 
L 252.057402 168.257287 
L 256.801008 169.716218 
L 260.707297 170.678864 
L 264.566462 171.378199 
L 268.376025 171.798818 
L 272.135344 171.942168 
L 275.845528 171.827413 
L 279.509251 171.491191 
L 283.850028 170.870398 
L 297.989074 168.626427 
L 301.46869 168.411481 
L 304.240708 168.426296 
L 307.0026 168.627473 
L 309.753768 169.024222 
L 312.492812 169.616007 
L 315.896188 170.613184 
L 319.2714 171.857112 
L 323.274321 173.588929 
L 330.433549 177.014105 
L 335.452237 179.302979 
L 339.09209 180.72944 
L 342.615436 181.84857 
L 346.01668 182.671807 
L 350.357577 183.443925 
L 355.47149 184.355013 
L 357.89861 185.021078 
L 359.777133 185.747945 
L 361.597962 186.695314 
L 363.358704 187.896722 
L 365.055911 189.372401 
L 366.684999 191.126981 
L 368.240229 193.148033 
L 369.714761 195.405558 
L 371.432453 198.486835 
L 372.994823 201.737771 
L 374.639107 205.64381 
L 376.38868 210.366876 
L 378.179435 215.824089 
L 378.179435 215.824089 
" clip-path="url(#p38a01c9f61)" style="fill: none; stroke: #172c4b; stroke-opacity: 0.71; stroke-linecap: square"/>
   </g>
   <g id="line2d_15">
    <path d="M 381.531431 224.198413 
L 379.33565 218.7126 
L 377.328362 214.190065 
L 375.469384 210.441152 
L 373.72003 207.311416 
L 371.812654 204.346604 
L 370.18726 202.189932 
L 368.484131 200.291276 
L 366.711897 198.697739 
L 365.341794 197.722237 
L 363.939453 196.943131 
L 362.506918 196.361693 
L 361.045754 195.97366 
L 359.557073 195.769436 
L 357.530491 195.75725 
L 355.456752 195.998923 
L 352.797581 196.569209 
L 342.567518 199.115547 
L 340.146073 199.386307 
L 337.669826 199.442226 
L 335.139894 199.257383 
L 332.558412 198.821524 
L 329.928537 198.140597 
L 327.254388 197.236469 
L 323.857062 195.849511 
L 318.321623 193.282255 
L 312.706338 190.743937 
L 309.176931 189.417588 
L 306.350194 188.601705 
L 303.524537 188.059709 
L 301.407478 187.856255 
L 299.292905 187.838728 
L 297.180904 188.012073 
L 295.07113 188.375665 
L 292.962812 188.923247 
L 290.151918 189.918448 
L 287.337742 191.177004 
L 283.808185 193.032904 
L 271.567311 199.796081 
L 268.602022 201.031166 
L 266.351035 201.77078 
L 264.07567 202.322822 
L 261.775309 202.667288 
L 259.449813 202.789192 
L 257.099539 202.678998 
L 254.72535 202.332915 
L 252.328611 201.75305 
L 249.911163 200.947409 
L 247.475299 199.929744 
L 244.203537 198.276956 
L 240.911179 196.340981 
L 236.779202 193.633707 
L 223.622155 184.697529 
L 220.390444 182.846022 
L 217.194871 181.294567 
L 214.824587 180.358914 
L 212.478396 179.635653 
L 210.157078 179.133584 
L 207.860906 178.855255 
L 205.589659 178.79694 
L 203.342643 178.948801 
L 201.118726 179.295241 
L 198.186754 180.023145 
L 195.288603 180.997705 
L 191.705391 182.451297 
L 182.517115 186.369001 
L 179.706037 187.308089 
L 176.894897 188.004681 
L 174.784793 188.33854 
L 172.672376 188.494082 
L 170.557371 188.461985 
L 168.439937 188.238369 
L 166.320662 187.824823 
L 164.200549 187.228274 
L 161.374878 186.169591 
L 158.554455 184.848339 
L 155.044161 182.909249 
L 150.869239 180.324295 
L 142.057743 174.798491 
L 138.785198 173.036408 
L 135.590228 171.598944 
L 133.093664 170.703731 
L 130.6516 170.031479 
L 127.676358 169.470385 
L 124.218147 169.100256 
L 117.12332 168.479343 
L 115.043676 168.043154 
L 113.011189 167.366369 
L 111.518 166.664081 
L 110.052185 165.77129 
L 108.614782 164.671976 
L 107.20728 163.355694 
L 105.831642 161.818115 
L 104.05131 159.428492 
L 102.339097 156.673849 
L 100.703472 153.599104 
L 98.781487 149.40634 
L 97.015333 144.981984 
L 95.133194 139.649411 
L 93.090111 133.128139 
L 90.956126 125.495891 
L 90.787505 124.855344 
L 91.101732 125.673626 
L 93.313726 131.118294 
L 95.427392 135.782422 
L 97.355035 139.5559 
L 99.154115 142.652302 
L 101.104687 145.538856 
L 102.760323 147.605222 
L 104.490308 149.394163 
L 106.286507 150.864329 
L 107.673014 151.742142 
L 109.090677 152.422224 
L 110.537694 152.906086 
L 112.012727 153.200695 
L 113.514884 153.318182 
L 115.55916 153.229048 
L 117.650641 152.906566 
L 120.33251 152.269136 
L 128.264549 150.195508 
L 131.256963 149.741983 
L 133.712737 149.601656 
L 136.222731 149.69415 
L 138.785198 150.035702 
L 141.397359 150.626452 
L 144.055444 151.450414 
L 147.435458 152.759328 
L 151.561424 154.615857 
L 159.258802 158.158871 
L 162.787345 159.513649 
L 165.613989 160.360424 
L 168.439937 160.939019 
L 170.557371 161.1726 
L 172.672376 161.221606 
L 174.784793 161.080181 
L 176.894897 160.748015 
L 179.003386 160.230427 
L 181.814156 159.271435 
L 184.627682 158.04297 
L 188.155531 156.213545 
L 194.568744 152.51777 
L 198.916385 150.143067 
L 201.857552 148.760998 
L 204.838009 147.627078 
L 207.101079 146.978456 
L 209.388894 146.528004 
L 211.701836 146.293278 
L 214.039797 146.286585 
L 216.402168 146.514616 
L 218.787833 146.978223 
L 221.195186 147.672342 
L 223.622155 148.586063 
L 226.066241 149.702864 
L 229.346634 151.469535 
L 232.644654 153.493706 
L 237.606352 156.84352 
L 246.659706 163.071651 
L 250.719147 165.541661 
L 253.928861 167.212437 
L 256.310742 168.249085 
L 258.669109 169.080026 
L 261.002929 169.693403 
L 263.311677 170.083527 
L 265.595328 170.250995 
L 267.854345 170.202622 
L 270.089644 169.95118 
L 272.302561 169.514963 
L 275.221275 168.686663 
L 278.108072 167.637876 
L 282.390519 165.818787 
L 288.745514 163.083571 
L 292.260173 161.847243 
L 295.07113 161.117414 
L 297.180904 160.755116 
L 299.292905 160.569062 
L 301.407478 160.569468 
L 303.524537 160.761128 
L 305.643564 161.143359 
L 307.763624 161.710107 
L 310.589632 162.732813 
L 313.410975 164.023923 
L 316.923383 165.93557 
L 321.102401 168.504714 
L 329.928537 174.059819 
L 333.20846 175.851224 
L 336.411461 177.323139 
L 338.914753 178.246882 
L 341.363677 178.946175 
L 344.347502 179.535774 
L 347.246109 179.879429 
L 355.979615 180.710358 
L 358.041562 181.229026 
L 360.056307 182.012229 
L 361.535912 182.807443 
L 362.987678 183.801827 
L 364.410346 185.00869 
L 365.802191 186.435479 
L 367.161012 188.083309 
L 368.916707 190.613746 
L 370.601261 193.494806 
L 372.205729 196.673847 
L 374.08325 200.955241 
L 375.798327 205.411409 
L 377.610165 210.696653 
L 379.54487 217.004122 
L 381.531431 224.198413 
L 381.531431 224.198413 
" clip-path="url(#p38a01c9f61)" style="fill: none; stroke: #172c4b; stroke-opacity: 0.61; stroke-linecap: square"/>
   </g>
   <g id="line2d_16">
    <path d="M 386.437228 245.396436 
L 383.749036 235.653169 
L 381.185179 227.129172 
L 378.832449 220.048755 
L 376.647987 214.170742 
L 374.783234 209.719786 
L 372.835326 205.655008 
L 371.330322 202.935589 
L 369.794728 200.544759 
L 368.234078 198.512366 
L 366.652989 196.856443 
L 365.055136 195.582951 
L 363.443267 194.685986 
L 361.819231 194.148427 
L 360.184045 193.943008 
L 358.537974 194.033735 
L 356.880634 194.377591 
L 354.651657 195.146141 
L 351.829815 196.433128 
L 346.03656 199.210373 
L 343.652246 200.114068 
L 341.224955 200.788034 
L 338.752967 201.191241 
L 336.235786 201.308235 
L 333.674154 201.148007 
L 331.069979 200.741262 
L 327.759435 199.96113 
L 322.352466 198.377704 
L 317.533752 197.026121 
L 314.054682 196.269162 
L 311.254342 195.853933 
L 308.441637 195.634083 
L 305.618334 195.615882 
L 302.785405 195.789254 
L 299.231008 196.236741 
L 294.945023 197.013413 
L 284.108179 199.108139 
L 280.449899 199.572165 
L 276.766777 199.833132 
L 273.059258 199.87926 
L 269.32888 199.725021 
L 264.825776 199.32694 
L 258.028198 198.478667 
L 247.392986 197.160308 
L 239.015753 196.387045 
L 228.350603 195.399052 
L 223.022203 194.683063 
L 217.702023 193.746476 
L 210.88508 192.279448 
L 201.120737 190.149554 
L 196.660495 189.419631 
L 192.969956 189.022217 
L 189.304244 188.839397 
L 185.66302 188.862411 
L 181.323911 189.103823 
L 170.596884 189.854687 
L 167.052796 189.810379 
L 164.228252 189.564549 
L 161.414142 189.099312 
L 158.612133 188.400911 
L 155.824684 187.473158 
L 153.054992 186.338315 
L 149.623679 184.691172 
L 143.558839 181.445759 
L 139.61509 179.424336 
L 136.399544 178.034525 
L 133.87674 177.196943 
L 131.399105 176.641957 
L 128.966296 176.379452 
L 126.576744 176.391336 
L 124.22776 176.630136 
L 120.772348 177.240061 
L 117.385958 177.822605 
L 115.159855 177.976327 
L 113.504444 177.8674 
L 111.860198 177.500099 
L 110.226833 176.818274 
L 109.144126 176.16373 
L 108.06671 175.333642 
L 106.461563 173.735214 
L 104.871692 171.687836 
L 103.300304 169.174834 
L 101.751547 166.193386 
L 100.2305 162.755618 
L 98.74314 158.889271 
L 96.824268 153.144914 
L 94.995585 146.86312 
L 93.276987 140.233296 
L 91.31561 131.803387 
L 89.290893 122.136575 
L 87.06602 110.390457 
L 85.882225 103.660877 
L 86.112584 104.525378 
L 88.992842 114.862214 
L 91.31561 122.498882 
L 93.695178 129.596642 
L 95.897444 135.451919 
L 97.773611 139.862309 
L 99.73065 143.869505 
L 101.241175 146.536715 
L 102.781305 148.869566 
L 104.345657 150.840141 
L 105.92977 152.432414 
L 107.530124 153.642428 
L 109.144126 154.478014 
L 110.77007 154.958068 
L 112.407069 155.111417 
L 114.054976 154.975352 
L 115.714272 154.593879 
L 117.946173 153.788271 
L 120.772348 152.476699 
L 125.985822 149.965781 
L 128.36494 149.037516 
L 130.786741 148.332065 
L 133.253089 147.893648 
L 135.764637 147.740887 
L 138.320794 147.86773 
L 140.919792 148.245989 
L 144.224451 149.000306 
L 148.942179 150.36414 
L 154.437394 151.936282 
L 157.913792 152.716234 
L 160.712423 153.154601 
L 163.523695 153.399562 
L 166.345742 153.442741 
L 169.177496 153.292244 
L 172.730403 152.867879 
L 177.014409 152.107971 
L 188.57407 149.887299 
L 192.234822 149.442253 
L 195.920422 149.202697 
L 199.630313 149.177657 
L 204.11187 149.405473 
L 209.375434 149.938613 
L 230.635524 152.437034 
L 245.109157 153.78698 
L 250.436253 154.549017 
L 255.753861 155.531377 
L 263.319142 157.202836 
L 270.823634 158.829289 
L 275.286635 159.579444 
L 278.979632 159.997644 
L 282.647829 160.202036 
L 286.291456 160.198327 
L 290.633212 159.972811 
L 302.075711 159.188639 
L 305.618334 159.259281 
L 308.441637 159.531231 
L 311.254342 160.025206 
L 314.054682 160.75286 
L 316.840099 161.708094 
L 319.607315 162.866353 
L 323.034814 164.533866 
L 334.960433 170.63495 
L 337.500008 171.570785 
L 339.994609 172.234317 
L 342.444108 172.605937 
L 344.849623 172.69297 
L 347.213442 172.53184 
L 350.11465 172.084043 
L 355.2111 171.193812 
L 357.43438 171.076449 
L 359.087886 171.22437 
L 360.730315 171.640316 
L 362.361849 172.379659 
L 363.443267 173.076926 
L 364.519295 173.952743 
L 366.122079 175.624293 
L 367.709118 177.748474 
L 369.277048 180.339746 
L 370.821564 183.398506 
L 372.337435 186.910057 
L 373.81854 190.844027 
L 375.727171 196.66447 
L 377.543212 203.00096 
L 379.652365 211.347526 
L 381.544139 219.739527 
L 383.749036 230.598829 
L 386.061631 243.226737 
L 386.437228 245.396436 
L 386.437228 245.396436 
" clip-path="url(#p38a01c9f61)" style="fill: none; stroke: #172c4b; stroke-opacity: 0.51; stroke-linecap: square"/>
   </g>
   <g id="line2d_17">
    <path d="M 388.220787 247.846118 
L 385.111831 238.850161 
L 382.466198 231.807816 
L 380.067083 225.982053 
L 377.844732 221.111827 
L 375.945597 217.38136 
L 373.956553 213.923421 
L 371.892506 210.83812 
L 370.303155 208.817758 
L 368.683671 207.077606 
L 367.038024 205.634328 
L 365.369439 204.495783 
L 363.680401 203.660892 
L 361.972682 203.119807 
L 360.247386 202.85438 
L 358.505007 202.838905 
L 356.745511 203.041104 
L 354.372013 203.583595 
L 351.357934 204.558298 
L 344.517074 206.890367 
L 341.949999 207.492823 
L 339.338089 207.836769 
L 337.349684 207.891802 
L 335.336507 207.756116 
L 333.299468 207.422769 
L 331.239908 206.892534 
L 328.461883 205.894887 
L 325.652166 204.60301 
L 322.104916 202.668639 
L 309.930629 195.654251 
L 307.07882 194.4564 
L 304.95019 193.787927 
L 302.831856 193.347961 
L 300.724654 193.158038 
L 298.62888 193.23267 
L 296.544285 193.578853 
L 294.47007 194.195808 
L 292.404908 195.074977 
L 290.346972 196.20025 
L 288.293987 197.548425 
L 285.559723 199.640674 
L 282.136589 202.606924 
L 272.39458 211.327322 
L 269.53595 213.459172 
L 267.362808 214.835173 
L 265.162612 215.979459 
L 262.934086 216.860875 
L 260.676527 217.454094 
L 258.389834 217.740231 
L 256.074529 217.707333 
L 253.731747 217.350717 
L 251.363228 216.673162 
L 248.971279 215.684939 
L 246.558731 214.40367 
L 244.128875 212.854018 
L 241.685394 211.067192 
L 238.413156 208.38068 
L 234.31411 204.678869 
L 222.946078 194.140632 
L 219.766955 191.587494 
L 217.411051 189.925302 
L 215.081827 188.517202 
L 212.780724 187.389537 
L 210.508572 186.561008 
L 208.26558 186.042186 
L 206.051344 185.835268 
L 203.864869 185.934084 
L 201.704607 186.324361 
L 199.56851 186.984214 
L 197.454089 187.884862 
L 195.358497 188.99153 
L 192.588231 190.718358 
L 188.467823 193.632808 
L 182.997509 197.542058 
L 180.256055 199.265517 
L 177.502426 200.708865 
L 175.42656 201.561238 
L 173.340143 202.187918 
L 171.242467 202.570491 
L 169.133373 202.697629 
L 167.013252 202.56533 
L 164.883022 202.176951 
L 162.744105 201.54305 
L 160.598371 200.681016 
L 158.448089 199.614494 
L 155.578484 197.92541 
L 151.997004 195.500968 
L 139.359799 186.554742 
L 136.643805 185.025309 
L 133.970505 183.777644 
L 131.341714 182.822819 
L 128.757904 182.145319 
L 126.218326 181.702991 
L 122.487817 181.327342 
L 117.647054 180.851724 
L 115.277564 180.364355 
L 113.520943 179.789085 
L 111.7814 178.97831 
L 110.058983 177.885659 
L 108.354284 176.470079 
L 106.668514 174.697467 
L 105.003559 172.542164 
L 103.362028 169.988286 
L 101.747271 167.030832 
L 100.163379 163.676535 
L 98.615165 159.944419 
L 96.615967 154.436843 
L 94.704721 148.423809 
L 92.897692 142.05047 
L 90.811986 133.848988 
L 88.609263 124.193347 
L 86.27808 112.855867 
L 84.098565 101.209428 
L 84.142311 101.340814 
L 87.06409 109.806184 
L 89.666338 116.770058 
L 92.038658 122.576745 
L 94.24253 127.458371 
L 96.129298 131.215064 
L 98.107954 134.712901 
L 100.163379 137.849617 
L 101.747271 139.914464 
L 103.362028 141.702708 
L 105.003559 143.196252 
L 106.668514 144.385752 
L 108.354284 145.270801 
L 110.058983 145.85981 
L 111.7814 146.169587 
L 113.520943 146.224643 
L 115.277564 146.056237 
L 117.647054 145.548435 
L 120.655695 144.598783 
L 128.118917 142.072606 
L 130.691554 141.498801 
L 133.309094 141.191404 
L 135.301673 141.167351 
L 137.318901 141.335706 
L 139.359799 141.70213 
L 141.422952 142.264565 
L 144.205245 143.301631 
L 147.018507 144.626408 
L 150.569019 146.589172 
L 162.029513 153.22489 
L 164.883022 154.461908 
L 167.013252 155.165917 
L 169.133373 155.645643 
L 171.242467 155.878445 
L 173.340143 155.848599 
L 175.42656 155.547832 
L 177.502426 154.975619 
L 179.568984 154.139233 
L 181.627978 153.05355 
L 183.681612 151.740632 
L 186.416006 149.686909 
L 189.837975 146.752473 
L 200.278003 137.440499 
L 203.141961 135.34695 
L 205.3195 134.007178 
L 207.524343 132.904689 
L 209.757675 132.069714 
L 212.0201 131.526547 
L 214.311614 131.292945 
L 216.631595 131.379671 
L 218.978803 131.790172 
L 221.351402 132.52042 
L 223.746993 133.558902 
L 226.162666 134.886798 
L 228.595058 136.478315 
L 231.857747 138.953843 
L 235.133838 141.748097 
L 240.050798 146.301648 
L 247.365008 153.156242 
L 250.568385 155.907122 
L 253.731747 158.323503 
L 256.074529 159.862393 
L 258.389834 161.133105 
L 260.676527 162.11304 
L 262.934086 162.787516 
L 265.162612 163.150135 
L 267.362808 163.2029 
L 269.53595 162.956078 
L 271.683844 162.427828 
L 273.808768 161.643582 
L 275.913399 160.635243 
L 278.693224 159.007465 
L 282.136589 156.660087 
L 290.346972 150.8344 
L 293.092392 149.206012 
L 295.160393 148.184451 
L 297.237946 147.368126 
L 299.326205 146.781039 
L 301.425788 146.440447 
L 303.536761 146.35647 
L 305.658645 146.53188 
L 307.790434 146.962102 
L 309.930629 147.63541 
L 312.077288 148.533326 
L 314.945488 150.036599 
L 317.814668 151.822098 
L 321.391852 154.320139 
L 331.239908 161.411385 
L 333.981058 163.10011 
L 336.681341 164.526813 
L 339.338089 165.664553 
L 341.949999 166.512116 
L 344.517074 167.09509 
L 347.66473 167.533008 
L 355.562783 168.35023 
L 357.333933 168.767323 
L 359.08769 169.378449 
L 360.824396 170.233106 
L 362.543916 171.376896 
L 364.245562 172.849823 
L 365.928014 174.684684 
L 367.589265 176.905594 
L 369.226587 179.526695 
L 370.836504 182.551084 
L 372.414803 185.970009 
L 373.956553 189.762367 
L 375.945597 195.339852 
L 377.844732 201.406566 
L 379.637531 207.813092 
L 381.702315 216.021977 
L 383.875313 225.630829 
L 386.159583 236.809677 
L 388.220787 247.846118 
L 388.220787 247.846118 
" clip-path="url(#p38a01c9f61)" style="fill: none; stroke: #172c4b; stroke-opacity: 0.41; stroke-linecap: square"/>
   </g>
   <g id="line2d_18">
    <path d="M 391.296728 258.690956 
L 387.931788 248.926747 
L 385.077826 241.242267 
L 382.497377 234.868859 
L 380.113433 229.538096 
L 378.080978 225.459986 
L 375.956878 221.691074 
L 374.313545 219.137416 
L 372.633931 216.863294 
L 370.923307 214.900366 
L 369.186114 213.270568 
L 367.425939 211.985407 
L 365.645523 211.045631 
L 363.846792 210.441291 
L 362.030909 210.152189 
L 360.19835 210.148698 
L 358.348993 210.392897 
L 356.482227 210.839992 
L 353.964379 211.664693 
L 345.518359 214.670161 
L 343.505069 215.126143 
L 341.466155 215.399718 
L 339.401601 215.458759 
L 337.311881 215.279582 
L 335.19799 214.847673 
L 333.061446 214.158139 
L 330.904285 213.215876 
L 328.72902 212.035441 
L 325.805646 210.133405 
L 322.863295 207.930787 
L 318.433351 204.291468 
L 312.543403 199.46362 
L 309.624563 197.354806 
L 307.452756 196.009393 
L 305.298404 194.918143 
L 303.163239 194.120648 
L 301.048366 193.648677 
L 299.649969 193.526578 
L 298.260758 193.56397 
L 296.880556 193.763324 
L 295.509049 194.125108 
L 294.145789 194.647783 
L 292.115063 195.725238 
L 290.0991 197.136374 
L 288.094873 198.852105 
L 286.098864 200.835089 
L 283.443488 203.816983 
L 280.119592 207.914247 
L 273.378267 216.324615 
L 270.619243 219.380786 
L 268.518566 221.433908 
L 266.387845 223.226931 
L 264.224935 224.716104 
L 262.028374 225.864184 
L 260.544911 226.424975 
L 259.046117 226.813791 
L 257.532111 227.025374 
L 256.003162 227.056188 
L 254.459688 226.904465 
L 252.902254 226.570239 
L 251.331563 226.055366 
L 249.748456 225.363526 
L 247.352653 224.006458 
L 244.934841 222.289987 
L 242.49926 220.248686 
L 240.050557 217.92507 
L 236.773788 214.474388 
L 232.676021 209.785197 
L 223.763977 199.376675 
L 220.592093 196.034355 
L 218.245915 193.819373 
L 215.930749 191.908622 
L 213.648494 190.342195 
L 211.400313 189.151001 
L 209.920683 188.576078 
L 208.45632 188.181019 
L 207.007007 187.967299 
L 205.572378 187.934258 
L 204.15193 188.079138 
L 202.745027 188.397123 
L 201.350908 188.881429 
L 199.28175 189.900319 
L 197.23597 191.237134 
L 195.209747 192.847815 
L 192.531329 195.333629 
L 189.205921 198.796829 
L 182.553192 205.862159 
L 179.86511 208.360997 
L 177.831668 209.999181 
L 175.780649 211.38839 
L 173.710321 212.494331 
L 171.619627 213.290723 
L 169.508198 213.759873 
L 168.08919 213.886149 
L 166.661359 213.862573 
L 164.503961 213.549908 
L 162.329455 212.916099 
L 160.140231 211.982008 
L 157.939164 210.776372 
L 155.729525 209.334905 
L 152.776199 207.118606 
L 149.085694 204.032045 
L 139.614239 195.924998 
L 136.765603 193.812536 
L 133.957691 192.01013 
L 131.193692 190.549849 
L 128.475138 189.431137 
L 125.802007 188.619653 
L 123.172917 188.048253 
L 114.899688 186.521731 
L 113.041729 185.896311 
L 111.200819 185.035145 
L 109.376579 183.877087 
L 107.569171 182.365789 
L 105.779406 180.451886 
L 104.00882 178.09507 
L 102.25974 175.266003 
L 100.53533 171.948001 
L 98.839604 168.138446 
L 97.177421 163.849842 
L 95.554453 159.110492 
L 93.462701 152.16908 
L 91.469204 144.655189 
L 89.592645 136.76284 
L 87.441546 126.723098 
L 85.197521 115.107418 
L 82.883868 101.902131 
L 81.022777 90.365035 
L 81.117591 90.648961 
L 84.541908 100.559243 
L 87.441546 108.327194 
L 90.049754 114.718948 
L 92.452536 120.03426 
L 94.497405 124.080653 
L 96.631772 127.802401 
L 98.281552 130.312051 
L 99.966678 132.536255 
L 101.682015 134.444909 
L 103.423265 136.017778 
L 105.186981 137.245135 
L 106.970562 138.12803 
L 108.772213 138.678161 
L 110.590891 138.917364 
L 112.426227 138.876736 
L 114.278431 138.595447 
L 116.77551 137.925924 
L 119.944731 136.788542 
L 125.140685 134.870869 
L 127.80263 134.131425 
L 129.828701 133.762139 
L 131.880463 133.592322 
L 133.957691 133.649989 
L 136.059654 133.954312 
L 138.185094 134.515034 
L 140.332232 135.332154 
L 142.498787 136.395913 
L 144.682025 137.687066 
L 147.613495 139.712463 
L 151.298989 142.603958 
L 160.871439 150.41303 
L 163.78092 152.396991 
L 165.944253 153.620711 
L 168.08919 154.569572 
L 170.214306 155.207743 
L 171.619627 155.446657 
L 173.015719 155.529223 
L 174.402655 155.451493 
L 175.780649 155.211497 
L 177.150047 154.809269 
L 178.511331 154.246844 
L 180.539409 153.112134 
L 182.553192 151.647978 
L 184.555793 149.884903 
L 186.550803 147.861529 
L 189.205921 144.838424 
L 193.198929 139.862185 
L 198.597406 133.127486 
L 201.350908 130.033362 
L 203.44683 127.941551 
L 205.572378 126.101977 
L 207.729802 124.55939 
L 209.920683 123.352176 
L 211.400313 122.749408 
L 212.895279 122.31704 
L 214.405502 122.060749 
L 215.930749 121.984507 
L 217.470639 122.090528 
L 219.024643 122.379231 
L 220.592093 122.849216 
L 222.172182 123.497259 
L 224.563939 124.79166 
L 226.978364 126.450406 
L 229.411297 128.440317 
L 231.85815 130.720146 
L 235.133765 134.12617 
L 239.232255 138.784412 
L 248.952542 150.11169 
L 252.118516 153.404048 
L 254.459688 155.571468 
L 256.769481 157.42738 
L 259.046117 158.933152 
L 261.288561 160.059497 
L 262.764361 160.589709 
L 264.224935 160.939487 
L 265.670538 161.107894 
L 267.101569 161.096114 
L 268.518566 160.907428 
L 269.922197 160.547151 
L 271.313254 160.022549 
L 273.378267 158.94792 
L 275.420511 157.562214 
L 277.443871 155.910635 
L 280.119592 153.384265 
L 283.443488 149.894712 
L 289.429884 143.520583 
L 292.115063 140.983487 
L 294.145789 139.307662 
L 296.193741 137.87437 
L 298.260758 136.719168 
L 300.348013 135.869718 
L 302.455991 135.345176 
L 303.872747 135.18142 
L 305.298404 135.167599 
L 307.452756 135.425304 
L 309.624563 136.006814 
L 311.811521 136.892651 
L 314.010832 138.055334 
L 316.219283 139.460239 
L 319.17198 141.639229 
L 322.863295 144.699402 
L 333.061446 153.404237 
L 335.905223 155.480744 
L 338.707785 157.241492 
L 341.466155 158.658356 
L 344.178999 159.736096 
L 346.846525 160.513249 
L 350.119634 161.173114 
L 356.482227 162.284161 
L 358.348993 162.815524 
L 360.19835 163.550962 
L 362.030909 164.553178 
L 363.846792 165.881199 
L 365.645523 167.588148 
L 367.425939 169.719112 
L 369.186114 172.309141 
L 370.923307 175.381439 
L 372.633931 178.945815 
L 374.313545 182.997435 
L 375.956878 187.515951 
L 377.557873 192.46505 
L 379.614875 199.641086 
L 381.566782 207.321909 
L 383.829594 217.30995 
L 385.859115 227.271809 
L 388.234599 240.148144 
L 390.66035 254.656874 
L 391.296728 258.690956 
L 391.296728 258.690956 
" clip-path="url(#p38a01c9f61)" style="fill: none; stroke: #172c4b; stroke-opacity: 0.31; stroke-linecap: square"/>
   </g>
   <g id="line2d_19">
    <path d="M 393.769457 267.562035 
L 388.648569 254.140313 
L 385.165223 245.5374 
L 382.137042 238.597298 
L 379.402835 232.880364 
L 377.107495 228.554612 
L 374.736979 224.596261 
L 372.9199 221.940154 
L 371.076022 219.597908 
L 369.210459 217.600663 
L 367.327374 215.968944 
L 365.429974 214.711887 
L 363.520541 213.826911 
L 362.241629 213.43709 
L 360.314867 213.13519 
L 358.378094 213.143347 
L 356.430802 213.420105 
L 354.471977 213.916213 
L 351.839821 214.822698 
L 343.765859 217.860641 
L 341.697727 218.383097 
L 339.607725 218.707346 
L 337.495622 218.793778 
L 335.361744 218.61198 
L 333.207005 218.141787 
L 331.032925 217.374049 
L 328.841613 216.311075 
L 326.635738 214.966748 
L 324.418466 213.366288 
L 321.450631 210.897496 
L 317.735712 207.435358 
L 309.633641 199.685144 
L 306.740536 197.324885 
L 304.596809 195.869886 
L 302.477946 194.749442 
L 301.079941 194.212951 
L 299.693899 193.859229 
L 298.319903 193.698155 
L 296.957869 193.737235 
L 295.607543 193.981483 
L 294.268506 194.433332 
L 292.940168 195.092586 
L 291.621779 195.956412 
L 290.312433 197.019373 
L 288.363022 198.969079 
L 286.427424 201.311297 
L 284.500912 203.997802 
L 281.937308 208.013864 
L 278.075602 214.636746 
L 273.490419 222.539539 
L 270.80642 226.773469 
L 268.754236 229.674258 
L 266.66413 232.260309 
L 264.533051 234.467014 
L 263.08846 235.698991 
L 261.624268 236.722317 
L 260.140265 237.524338 
L 258.636438 238.094513 
L 257.112981 238.42455 
L 255.570288 238.508522 
L 254.008953 238.342966 
L 252.429768 237.926965 
L 250.83371 237.262208 
L 249.221935 236.353022 
L 247.595768 235.206389 
L 245.956685 233.831918 
L 243.477412 231.370378 
L 240.978687 228.4758 
L 238.466923 225.211423 
L 235.109281 220.412086 
L 230.921304 213.975866 
L 223.500841 202.453853 
L 220.285235 197.889558 
L 217.916533 194.864698 
L 215.588437 192.25874 
L 213.303282 190.128267 
L 211.804401 188.993794 
L 210.32536 188.098877 
L 208.866096 187.449391 
L 207.426349 187.048081 
L 206.005663 186.894573 
L 204.603395 186.985424 
L 203.218723 187.314218 
L 201.85066 187.871712 
L 200.498064 188.646013 
L 199.159656 189.622795 
L 197.175552 191.430963 
L 195.215046 193.593574 
L 192.628156 196.904867 
L 189.418848 201.474345 
L 183.630683 209.80333 
L 181.023895 213.1221 
L 179.046241 215.324515 
L 177.045782 217.224813 
L 175.020261 218.78279 
L 173.655254 219.61617 
L 172.278247 220.277923 
L 170.889201 220.764185 
L 169.488236 221.073316 
L 168.075638 221.205886 
L 166.651843 221.164637 
L 165.217431 220.95442 
L 163.773119 220.582109 
L 161.589949 219.739429 
L 159.389678 218.589219 
L 157.176007 217.176204 
L 154.210561 214.972141 
L 150.495474 211.890597 
L 143.109606 205.653094 
L 140.195264 203.47209 
L 137.313493 201.611437 
L 135.176058 200.459308 
L 133.060287 199.526935 
L 130.966603 198.811319 
L 128.894864 198.297219 
L 126.1655 197.876522 
L 122.802785 197.636298 
L 118.173237 197.364682 
L 116.212362 197.085155 
L 114.263231 196.602896 
L 112.324755 195.844578 
L 111.038037 195.1505 
L 109.755745 194.282238 
L 108.477983 193.221173 
L 107.205006 191.950265 
L 105.937228 190.454353 
L 104.675237 188.720441 
L 102.794824 185.650944 
L 100.932561 181.998733 
L 99.092769 177.754987 
L 97.280719 172.927513 
L 95.502603 167.541732 
L 93.765472 161.641222 
L 91.526672 153.082502 
L 89.395046 143.915282 
L 87.392435 134.384631 
L 85.105188 122.400051 
L 82.735692 108.739993 
L 80.329731 93.568731 
L 78.550227 81.493797 
L 78.653601 81.770194 
L 83.865126 95.408436 
L 87.392435 104.083369 
L 90.446125 111.032772 
L 93.196868 116.726019 
L 95.502603 121.012951 
L 97.88129 124.91667 
L 99.70323 127.523047 
L 101.551052 129.809681 
L 103.419798 131.74713 
L 105.305466 133.316726 
L 107.205006 134.511272 
L 109.116285 135.335308 
L 111.038037 135.804926 
L 112.969778 135.947165 
L 114.911713 135.799 
L 116.864617 135.405989 
L 119.487714 134.592625 
L 123.471265 133.035959 
L 127.525596 131.510408 
L 130.273607 130.741473 
L 132.359934 130.381208 
L 134.468361 130.252765 
L 136.598657 130.38817 
L 138.750009 130.809357 
L 140.920996 131.527352 
L 143.109606 132.541772 
L 145.313262 133.840658 
L 147.528873 135.400647 
L 150.495474 137.826177 
L 154.210561 141.256343 
L 163.047508 149.681788 
L 165.217431 151.454081 
L 167.365107 152.959456 
L 169.488236 154.139313 
L 170.889201 154.719691 
L 172.278247 155.12012 
L 173.655254 155.330155 
L 175.020261 155.341683 
L 176.373481 155.149057 
L 177.715292 154.749193 
L 179.046241 154.141627 
L 180.367038 153.328535 
L 181.678551 152.314708 
L 183.630683 150.434341 
L 185.56827 148.154479 
L 187.495946 145.521572 
L 190.059698 141.560751 
L 193.27261 136.110064 
L 199.159656 125.963684 
L 201.85066 121.774219 
L 203.908917 118.921111 
L 206.005663 116.393991 
L 208.143807 114.256264 
L 209.593267 113.075153 
L 211.0624 112.106047 
L 212.551366 111.361086 
L 214.060126 110.850258 
L 215.588437 110.581276 
L 217.135854 110.55946 
L 218.701733 110.787642 
L 220.285235 111.266093 
L 221.885338 111.992467 
L 223.500841 112.961772 
L 225.130381 114.166368 
L 226.772445 115.595991 
L 229.255388 118.133615 
L 231.756742 121.094515 
L 234.270031 124.413629 
L 237.627928 129.265276 
L 242.646357 137.04248 
L 248.410562 145.991189 
L 251.63378 150.62031 
L 254.008953 153.708597 
L 256.344006 156.388655 
L 258.636438 158.601732 
L 260.140265 159.794814 
L 261.624268 160.750292 
L 263.08846 161.461516 
L 264.533051 161.924956 
L 265.958449 162.14021 
L 267.365251 162.109962 
L 268.754236 161.839895 
L 270.12635 161.338561 
L 271.482698 160.617209 
L 272.824526 159.68958 
L 274.813075 157.946899 
L 276.777139 155.838603 
L 278.722191 153.434627 
L 281.295941 149.900371 
L 289.660826 137.958283 
L 292.279783 134.791899 
L 294.268506 132.734884 
L 296.281265 131.001367 
L 298.319903 129.62635 
L 299.693899 128.921242 
L 301.079941 128.390867 
L 302.477946 128.03742 
L 303.887671 127.860883 
L 305.308716 127.859051 
L 306.740536 128.027593 
L 308.182446 128.360132 
L 310.362436 129.147732 
L 312.560103 130.249601 
L 314.771813 131.622206 
L 317.735712 133.786282 
L 321.450631 136.841887 
L 329.573811 143.684498 
L 332.484368 145.829488 
L 335.361744 147.645672 
L 337.495622 148.761485 
L 339.607725 149.657192 
L 341.697727 150.337835 
L 343.765859 150.820679 
L 346.490662 151.208824 
L 349.848264 151.428754 
L 354.471977 151.721023 
L 356.430802 152.029215 
L 358.378094 152.552429 
L 360.314867 153.363746 
L 361.600481 154.09955 
L 362.881656 155.014324 
L 364.158252 156.12632 
L 365.429974 157.452138 
L 366.696367 159.006422 
L 367.956799 160.801585 
L 369.834446 163.966922 
L 371.69329 167.717544 
L 373.52885 172.059586 
L 375.335698 176.982362 
L 377.107495 182.457451 
L 378.837055 188.438231 
L 381.063606 197.084759 
L 383.180324 206.311762 
L 385.165223 215.868418 
L 387.42631 227.831424 
L 389.758691 241.380588 
L 392.332457 257.762157 
L 393.769457 267.562035 
L 393.769457 267.562035 
" clip-path="url(#p38a01c9f61)" style="fill: none; stroke: #172c4b; stroke-opacity: 0.21; stroke-linecap: square"/>
   </g>
   <g id="line2d_20">
    <path d="M 396.95884 284.129426 
L 388.114608 260.640421 
L 384.345007 251.350157 
L 381.418109 244.731221 
L 378.972674 239.713792 
L 376.458349 235.128155 
L 374.538679 232.063569 
L 372.59735 229.379311 
L 370.639818 227.116053 
L 368.670383 225.30104 
L 367.352416 224.346956 
L 366.031238 223.598118 
L 364.707296 223.051606 
L 363.380836 222.701577 
L 362.05192 222.539367 
L 360.720438 222.553645 
L 359.386125 222.73061 
L 357.378448 223.265466 
L 355.361681 224.067701 
L 352.654654 225.431867 
L 345.058857 229.520298 
L 342.938169 230.370461 
L 340.793332 230.980289 
L 338.623609 231.296084 
L 337.16324 231.321615 
L 335.691926 231.187453 
L 334.209971 230.886453 
L 332.717826 230.414153 
L 331.216088 229.768861 
L 328.947147 228.479783 
L 326.661367 226.820314 
L 324.362409 224.820093 
L 322.054454 222.522026 
L 318.971153 219.091279 
L 314.356962 213.492231 
L 309.037145 207.036841 
L 306.048822 203.773587 
L 303.839031 201.675461 
L 301.659362 199.956183 
L 300.224004 199.051009 
L 298.803317 198.356652 
L 297.397502 197.885623 
L 296.006574 197.647616 
L 294.630363 197.649374 
L 293.268513 197.894581 
L 291.920482 198.383824 
L 290.585548 199.114589 
L 289.262817 200.081309 
L 287.951231 201.275454 
L 286.649576 202.685667 
L 284.712726 205.174776 
L 282.790083 208.060509 
L 280.238977 212.406266 
L 277.050071 218.376375 
L 271.224622 229.415041 
L 268.56732 233.931451 
L 266.536682 236.987317 
L 264.469566 239.675486 
L 263.069782 241.230015 
L 261.651893 242.573806 
L 260.215487 243.69142 
L 258.760352 244.569623 
L 257.286484 245.197531 
L 255.794084 245.566749 
L 254.28356 245.671486 
L 252.755521 245.508654 
L 251.210773 245.077948 
L 249.650306 244.381906 
L 248.07529 243.425933 
L 246.487057 242.218314 
L 244.887087 240.770176 
L 242.468687 238.178173 
L 240.033442 235.135096 
L 237.587688 231.711567 
L 234.321763 226.697352 
L 229.44444 218.661828 
L 223.84719 209.465665 
L 220.719053 204.757391 
L 218.414364 201.652233 
L 216.148626 198.99821 
L 214.660828 197.511382 
L 213.191633 196.268672 
L 211.741189 195.282066 
L 210.30944 194.560248 
L 208.896124 194.108519 
L 207.500778 193.928756 
L 206.122745 194.019436 
L 204.76118 194.375705 
L 203.415066 194.989495 
L 202.08322 195.849693 
L 200.764315 196.942345 
L 199.456892 198.250898 
L 197.513819 200.576674 
L 195.587342 203.273298 
L 193.034127 207.306852 
L 189.20776 213.88006 
L 185.343398 220.456274 
L 182.725117 224.512265 
L 180.731976 227.256512 
L 178.709872 229.674989 
L 176.656376 231.714988 
L 175.269151 232.8437 
L 173.867063 233.776069 
L 172.450082 234.505139 
L 171.018363 235.026455 
L 169.572241 235.338095 
L 168.112225 235.440679 
L 166.638988 235.337349 
L 165.153358 235.033723 
L 163.656305 234.537823 
L 162.148925 233.859962 
L 159.87116 232.529837 
L 157.577351 230.869147 
L 155.272282 228.936708 
L 152.189944 226.051194 
L 139.974264 214.162478 
L 137.736093 212.386345 
L 135.5211 210.867351 
L 133.330559 209.627279 
L 131.165007 208.673178 
L 129.024263 207.996683 
L 126.907485 207.573893 
L 124.813244 207.365782 
L 122.052628 207.32842 
L 115.946197 207.406135 
L 113.93423 207.174781 
L 111.93039 206.658323 
L 110.59823 206.108745 
L 109.268689 205.363028 
L 107.941617 204.395057 
L 106.61703 203.180275 
L 105.295127 201.696088 
L 103.976304 199.922264 
L 102.661163 197.841316 
L 101.350526 195.438874 
L 100.045439 192.704032 
L 98.101061 187.964055 
L 96.177354 182.454574 
L 94.280719 176.19151 
L 92.418647 169.214573 
L 90.599626 161.58796 
L 88.25754 150.565173 
L 86.032906 138.822321 
L 83.951475 126.70026 
L 81.591404 111.618455 
L 79.180934 94.741485 
L 76.59267 74.958416 
L 75.361049 64.926975 
L 75.474233 65.230801 
L 84.456964 89.057198 
L 87.689385 97.02897 
L 90.599626 103.669632 
L 93.034993 108.729369 
L 95.541786 113.377699 
L 97.457236 116.500863 
L 99.395365 119.251675 
L 101.350526 121.587371 
L 103.318227 123.478376 
L 104.635298 124.483879 
L 105.955723 125.283871 
L 107.279005 125.88053 
L 108.604847 126.278975 
L 109.933145 126.487178 
L 111.263967 126.515821 
L 112.59754 126.378107 
L 114.603891 125.894096 
L 116.618998 125.131755 
L 119.323199 123.801893 
L 127.610492 119.373951 
L 129.735127 118.559704 
L 131.884078 117.995426 
L 134.057974 117.733116 
L 135.5211 117.746696 
L 136.995108 117.922001 
L 138.479659 118.265515 
L 139.974264 118.781013 
L 141.47829 119.469489 
L 143.750267 120.82177 
L 146.038513 122.540458 
L 148.339273 124.593644 
L 150.648291 126.936309 
L 153.731766 130.410301 
L 158.343446 136.032597 
L 163.656305 142.44479 
L 166.638988 145.649576 
L 168.843931 147.68924 
L 171.018363 149.339156 
L 172.450082 150.192945 
L 173.867063 150.832536 
L 175.269151 151.246105 
L 176.656376 151.424685 
L 178.028956 151.36229 
L 179.387293 151.056007 
L 180.731976 150.506027 
L 182.063768 149.715634 
L 183.383607 148.691145 
L 184.692592 147.441811 
L 186.638483 145.173282 
L 188.567562 142.477975 
L 190.485164 139.418855 
L 193.034127 134.900677 
L 197.513819 126.335642 
L 201.422238 119.048503 
L 204.086262 114.586851 
L 206.122745 111.587278 
L 208.196241 108.967114 
L 209.600502 107.463707 
L 211.022989 106.175096 
L 212.464065 105.116184 
L 213.923891 104.29963 
L 215.402419 103.735707 
L 216.899396 103.43217 
L 218.414364 103.394143 
L 219.946663 103.624025 
L 221.495441 104.121415 
L 223.059661 104.883059 
L 224.638113 105.902832 
L 226.229424 107.171735 
L 227.832081 108.677935 
L 230.253713 111.349508 
L 232.691158 114.461214 
L 235.138026 117.940491 
L 238.403703 123.00621 
L 243.276994 131.064771 
L 248.864537 140.202397 
L 251.985178 144.838432 
L 254.28356 147.873383 
L 256.54258 150.445673 
L 258.025752 151.872771 
L 259.490266 153.052451 
L 260.936023 153.973544 
L 262.363131 154.628203 
L 263.771903 155.011983 
L 265.162852 155.12386 
L 266.536682 154.9662 
L 267.894282 154.544672 
L 269.236712 153.868124 
L 270.565193 152.948398 
L 271.881086 151.800123 
L 273.834611 149.687347 
L 275.768653 147.166601 
L 277.689069 144.314099 
L 280.238977 140.138521 
L 288.605703 126.012834 
L 290.585548 123.128657 
L 292.592811 120.540051 
L 294.630363 118.304897 
L 296.700183 116.470463 
L 298.098545 115.488259 
L 299.51181 114.707848 
L 300.939869 114.134314 
L 302.382431 113.770214 
L 303.839031 113.615563 
L 305.309035 113.667846 
L 306.791652 113.922057 
L 308.285947 114.370768 
L 309.790854 115.004227 
L 312.065501 116.274112 
L 314.356962 117.883584 
L 316.660496 119.775123 
L 319.742087 122.623758 
L 325.129944 128.038543 
L 329.705496 132.53826 
L 332.717826 135.200124 
L 334.952254 136.935507 
L 337.16324 138.409141 
L 339.349633 139.601629 
L 341.51102 140.508461 
L 343.647694 141.140595 
L 345.760602 141.524499 
L 347.851262 141.701638 
L 350.607665 141.713843 
L 356.035077 141.626377 
L 358.048584 141.81951 
L 360.053657 142.281819 
L 361.386513 142.786586 
L 362.716689 143.480769 
L 364.044373 144.390806 
L 365.369592 145.541684 
L 366.692195 146.956524 
L 368.011837 148.656185 
L 369.327966 150.658877 
L 370.639818 152.979782 
L 371.946403 155.630704 
L 373.893683 160.242485 
L 375.82125 165.624194 
L 377.722888 171.763764 
L 379.591284 178.625515 
L 381.418109 186.14935 
L 383.194129 194.250665 
L 385.465758 205.76011 
L 387.603973 217.783632 
L 390.049016 232.958859 
L 392.581271 250.288274 
L 395.140439 269.474249 
L 396.95884 284.129426 
L 396.95884 284.129426 
" clip-path="url(#p38a01c9f61)" style="fill: none; stroke: #172c4b; stroke-opacity: 0.11; stroke-linecap: square"/>
   </g>
   <g id="line2d_21">
    <path d="M 398.487273 295.488 
L 394.297816 285.177761 
L 385.311587 262.868593 
L 382.266018 255.856053 
L 379.725747 250.436459 
L 377.118443 245.390928 
L 375.131131 241.957479 
L 373.124549 238.895784 
L 371.104608 236.257442 
L 369.075982 234.080179 
L 367.720487 232.896472 
L 366.363406 231.93045 
L 365.005235 231.181348 
L 363.646252 230.645107 
L 362.286533 230.31445 
L 360.92597 230.179019 
L 359.564286 230.225557 
L 358.201057 230.438148 
L 356.152084 231.02777 
L 354.096106 231.879185 
L 351.339357 233.286027 
L 345.040454 236.616122 
L 342.902476 237.482609 
L 340.742294 238.102169 
L 338.55897 238.412516 
L 337.090424 238.422052 
L 335.611601 238.25954 
L 334.122784 237.916009 
L 332.62441 237.385465 
L 331.117075 236.665018 
L 329.601528 235.75496 
L 327.314804 234.042911 
L 325.015235 231.938253 
L 322.707008 229.482131 
L 320.394798 226.730491 
L 317.314382 222.723317 
L 306.724917 208.536599 
L 304.525857 206.097235 
L 302.359796 204.073424 
L 300.935248 202.993265 
L 299.526839 202.151458 
L 298.13482 201.56459 
L 296.759238 201.246093 
L 295.399936 201.206033 
L 294.056546 201.450956 
L 292.728496 201.983799 
L 291.415008 202.803846 
L 290.115107 203.906754 
L 288.82763 205.28463 
L 287.551238 206.926154 
L 285.654099 209.850075 
L 283.772799 213.272013 
L 281.90105 217.116908 
L 279.408558 222.751138 
L 269.82418 245.172416 
L 267.814912 249.140525 
L 265.762569 252.706554 
L 263.663616 255.784602 
L 262.237162 257.527437 
L 260.788437 258.999416 
L 259.317234 260.183126 
L 257.823587 261.0638 
L 256.30777 261.629505 
L 254.770301 261.871313 
L 253.211928 261.783466 
L 251.633631 261.363507 
L 250.036607 260.612404 
L 248.422261 259.534628 
L 246.792188 258.138211 
L 245.148155 256.434758 
L 243.492086 254.43942 
L 241.826039 252.170819 
L 239.313025 248.304465 
L 236.790114 243.960673 
L 233.424513 237.603166 
L 229.241101 229.13334 
L 222.682942 215.743376 
L 219.49835 209.753225 
L 217.160867 205.790965 
L 214.870833 202.389692 
L 213.371609 200.472963 
L 211.894782 198.858826 
L 210.440447 197.561593 
L 209.008458 196.591387 
L 207.59843 195.954057 
L 206.209748 195.651163 
L 204.841574 195.680035 
L 203.492858 196.033897 
L 202.162355 196.702049 
L 200.848638 197.670114 
L 199.550116 198.920326 
L 198.265056 200.431863 
L 196.358623 203.137081 
L 194.471633 206.288213 
L 191.973822 211.014606 
L 188.232018 218.730877 
L 184.448152 226.463584 
L 181.878659 231.246039 
L 179.918735 234.494458 
L 177.926599 237.373789 
L 175.899631 239.825905 
L 174.528142 241.200512 
L 173.140236 242.355013 
L 171.735909 243.282283 
L 170.315361 243.978053 
L 168.878989 244.440928 
L 167.427378 244.672377 
L 165.96129 244.676694 
L 164.48165 244.460927 
L 162.989531 244.034782 
L 161.486139 243.410484 
L 159.97279 242.60261 
L 157.687205 241.083717 
L 155.387449 239.254113 
L 152.308137 236.456196 
L 147.686518 231.866151 
L 143.096069 227.358826 
L 140.069139 224.678625 
L 137.821624 222.93427 
L 135.595855 221.462066 
L 133.393045 220.285641 
L 131.213613 219.412176 
L 129.057216 218.831653 
L 126.922801 218.516732 
L 124.808704 218.423216 
L 122.017707 218.53715 
L 116.507553 218.862816 
L 114.457582 218.725377 
L 113.093885 218.471011 
L 111.73186 218.049239 
L 110.371048 217.428481 
L 109.011136 216.577944 
L 107.651969 215.468077 
L 106.293577 214.071035 
L 104.936186 212.36113 
L 103.580236 210.315292 
L 102.226391 207.913506 
L 100.875549 205.139244 
L 99.52885 201.979871 
L 98.187678 198.427032 
L 96.189916 192.353214 
L 94.214835 185.395412 
L 92.270135 177.58903 
L 90.364615 168.997564 
L 88.50805 159.713024 
L 86.127217 146.466843 
L 83.879218 132.561606 
L 81.298827 114.911028 
L 78.611749 94.599597 
L 75.869507 71.831713 
L 73.832727 53.568 
L 73.892017 53.710407 
L 78.213278 64.357419 
L 87.302747 86.885066 
L 90.364615 93.885541 
L 92.914471 99.268512 
L 95.528678 104.254638 
L 97.519664 107.630236 
L 99.52885 110.624606 
L 101.550529 113.188319 
L 103.580236 115.286139 
L 104.936186 116.415534 
L 106.293577 117.327124 
L 107.651969 118.022503 
L 109.011136 118.506543 
L 110.371048 118.787306 
L 111.73186 118.875893 
L 113.093885 118.786252 
L 115.140234 118.354432 
L 117.1924 117.624589 
L 119.94197 116.317495 
L 128.343372 111.974125 
L 130.492293 111.22267 
L 132.663972 110.750608 
L 134.124722 110.619635 
L 135.595855 110.652112 
L 137.077209 110.859152 
L 138.568463 111.248994 
L 140.069139 111.826866 
L 141.578603 112.594868 
L 143.096069 113.551906 
L 145.3852 115.331586 
L 147.686518 117.498093 
L 149.995745 120.007734 
L 153.078767 123.78504 
L 156.921938 128.949674 
L 163.737078 138.225473 
L 166.69609 141.779886 
L 168.878989 144.021725 
L 170.315361 145.268008 
L 171.735909 146.290298 
L 173.140236 147.069806 
L 174.528142 147.590712 
L 175.899631 147.840408 
L 177.254913 147.809696 
L 178.594406 147.492926 
L 179.918735 146.888073 
L 181.228727 145.996763 
L 182.525406 144.824236 
L 183.809979 143.379257 
L 185.08383 141.673975 
L 186.977916 138.662379 
L 188.857173 135.164407 
L 191.350862 129.878661 
L 194.471633 122.574069 
L 200.848638 107.424079 
L 203.492858 101.849033 
L 205.523158 98.070691 
L 207.59843 94.738479 
L 209.008458 92.805408 
L 210.440447 91.128518 
L 211.894782 89.727074 
L 213.371609 88.617846 
L 214.870833 87.814909 
L 216.392121 87.329463 
L 217.934896 87.169656 
L 219.49835 87.340433 
L 221.081449 87.843404 
L 222.682942 88.676733 
L 224.301377 89.835062 
L 225.935113 91.309465 
L 227.58234 93.087447 
L 229.241101 95.152979 
L 231.746272 98.746936 
L 234.265212 102.863846 
L 236.790114 107.409146 
L 240.152181 113.948574 
L 246.792188 127.590835 
L 250.837377 135.634206 
L 253.211928 139.992352 
L 255.541701 143.867257 
L 257.823587 147.166987 
L 259.317234 149.009634 
L 260.788437 150.545726 
L 262.237162 151.761985 
L 263.663616 152.649352 
L 265.068241 153.203053 
L 266.451709 153.422592 
L 267.814912 153.31168 
L 269.158951 152.878095 
L 270.485117 152.133479 
L 271.79488 151.093086 
L 273.089869 149.775479 
L 274.371848 148.202188 
L 276.274568 145.416227 
L 278.15899 142.200038 
L 280.655211 137.413153 
L 285.654099 127.053104 
L 288.82763 120.742674 
L 291.415008 116.137799 
L 293.390647 113.065876 
L 295.399936 110.393685 
L 296.759238 108.86037 
L 298.13482 107.539967 
L 299.526839 106.441716 
L 300.935248 105.572033 
L 302.359796 104.934468 
L 303.80004 104.529699 
L 305.255348 104.355545 
L 306.724917 104.407016 
L 308.207783 104.676388 
L 309.702838 105.153312 
L 311.208847 105.824959 
L 313.485438 107.163845 
L 315.778755 108.846649 
L 318.083635 110.805065 
L 321.165672 113.715338 
L 331.117075 123.408777 
L 334.122784 125.843101 
L 336.352283 127.362733 
L 338.55897 128.589409 
L 340.742294 129.513142 
L 342.902476 130.141054 
L 345.040454 130.497618 
L 347.157799 130.624279 
L 349.952508 130.536973 
L 356.152084 130.193543 
L 358.201057 130.37433 
L 359.564286 130.66756 
L 360.92597 131.136142 
L 362.286533 131.811498 
L 363.646252 132.724156 
L 365.005235 133.903282 
L 366.363406 135.376227 
L 367.720487 137.168064 
L 369.075982 139.301142 
L 370.42917 141.794643 
L 371.779092 144.664159 
L 373.124549 147.92129 
L 375.131131 153.548301 
L 377.118443 160.06682 
L 379.079366 167.455073 
L 381.00564 175.663716 
L 382.887961 184.614995 
L 384.716115 194.202765 
L 387.050369 207.742048 
L 389.241352 221.787375 
L 391.735509 239.364253 
L 394.297816 259.19136 
L 396.841955 280.658582 
L 398.487273 295.488 
L 398.487273 295.488 
" clip-path="url(#p38a01c9f61)" style="fill: none; stroke: #172c4b; stroke-opacity: 0.01; stroke-linecap: square"/>
   </g>
   <g id="line2d_22">
    <path d="M 367.370868 192.247432 
L 359.875697 195.168823 
L 352.282255 197.892635 
L 344.63766 200.394975 
L 337.201539 202.598201 
L 329.448925 204.652777 
L 322.226078 206.344269 
L 314.513199 207.913357 
L 307.050041 209.198465 
L 299.97005 210.205613 
L 292.63772 211.031097 
L 285.082047 211.650138 
L 278.115661 212.012622 
L 271.014875 212.176454 
L 263.802434 212.13033 
L 256.501442 211.865489 
L 249.135287 211.375855 
L 241.727564 210.658147 
L 234.302002 209.711947 
L 226.882388 208.539743 
L 219.492489 207.146922 
L 212.155977 205.541734 
L 204.896353 203.735217 
L 197.736872 201.741089 
L 189.927226 199.325195 
L 182.300401 196.723475 
L 174.886555 193.964839 
L 167.012279 190.787041 
L 159.468837 187.503319 
L 151.659308 183.856923 
L 143.743226 179.90449 
L 135.91019 175.739547 
L 127.912539 171.22642 
L 119.843736 166.406251 
L 111.769839 161.314711 
L 104.947309 156.802371 
L 104.97845 156.789754 
L 112.579905 153.829596 
L 120.227958 151.091402 
L 127.912539 148.582702 
L 135.379727 146.377903 
L 142.578903 144.469613 
L 149.78042 142.77421 
L 157.473739 141.198939 
L 164.920618 139.906248 
L 171.987249 138.890712 
L 179.307643 138.055535 
L 186.852851 137.425626 
L 194.593037 137.023015 
L 201.700627 136.870574 
L 208.918596 136.928643 
L 216.223824 137.205838 
L 223.59291 137.708083 
L 231.002247 138.438501 
L 238.428103 139.397349 
L 245.846689 140.581977 
L 253.234242 141.986839 
L 260.567097 143.603527 
L 267.821764 145.42085 
L 274.975006 147.424948 
L 282.776239 149.850771 
L 290.393125 152.461048 
L 297.795545 155.226719 
L 305.655589 158.410342 
L 313.183122 161.697752 
L 320.973475 165.345614 
L 328.866761 169.29654 
L 336.673067 173.456241 
L 344.63766 177.958886 
L 352.664178 182.760786 
L 360.678402 187.819992 
L 367.370868 192.247432 
L 367.370868 192.247432 
" clip-path="url(#p38a01c9f61)" style="fill: none; stroke-dasharray: 5.55,2.4; stroke-dashoffset: 0; stroke: #3b65ac; stroke-width: 1.5"/>
   </g>
   <g id="line2d_23">
    <path d="M 367.370868 192.247432 
L 104.947309 156.802721 
L 367.370868 192.247432 
" clip-path="url(#p38a01c9f61)" style="fill: none; stroke-dasharray: 9.6,2.4,1.5,2.4; stroke-dashoffset: 0; stroke: #cba74e; stroke-width: 1.5"/>
   </g>
   <g id="patch_3">
    <path d="M 57.6 307.584 
L 57.6 41.472 
" style="fill: none; stroke: #000000; stroke-width: 0.8; stroke-linejoin: miter; stroke-linecap: square"/>
   </g>
   <g id="patch_4">
    <path d="M 414.72 307.584 
L 414.72 41.472 
" style="fill: none; stroke: #000000; stroke-width: 0.8; stroke-linejoin: miter; stroke-linecap: square"/>
   </g>
   <g id="patch_5">
    <path d="M 57.6 307.584 
L 414.72 307.584 
" style="fill: none; stroke: #000000; stroke-width: 0.8; stroke-linejoin: miter; stroke-linecap: square"/>
   </g>
   <g id="patch_6">
    <path d="M 57.6 41.472 
L 414.72 41.472 
" style="fill: none; stroke: #000000; stroke-width: 0.8; stroke-linejoin: miter; stroke-linecap: square"/>
   </g>
   <g id="text_15">
    <!-- Work loop: Nonlinear Oscillator -->
    <g transform="translate(143.158125 35.472) scale(0.12 -0.12)">
     <defs>
      <path id="DejaVuSans-57" d="M 213 4666 
L 850 4666 
L 1831 722 
L 2809 4666 
L 3519 4666 
L 4500 722 
L 5478 4666 
L 6119 4666 
L 4947 0 
L 4153 0 
L 3169 4050 
L 2175 0 
L 1381 0 
L 213 4666 
z
" transform="scale(0.015625)"/>
      <path id="DejaVuSans-72" d="M 2631 2963 
Q 2534 3019 2420 3045 
Q 2306 3072 2169 3072 
Q 1681 3072 1420 2755 
Q 1159 2438 1159 1844 
L 1159 0 
L 581 0 
L 581 3500 
L 1159 3500 
L 1159 2956 
Q 1341 3275 1631 3429 
Q 1922 3584 2338 3584 
Q 2397 3584 2469 3576 
Q 2541 3569 2628 3553 
L 2631 2963 
z
" transform="scale(0.015625)"/>
      <path id="DejaVuSans-6b" d="M 581 4863 
L 1159 4863 
L 1159 1991 
L 2875 3500 
L 3609 3500 
L 1753 1863 
L 3688 0 
L 2938 0 
L 1159 1709 
L 1159 0 
L 581 0 
L 581 4863 
z
" transform="scale(0.015625)"/>
      <path id="DejaVuSans-70" d="M 1159 525 
L 1159 -1331 
L 581 -1331 
L 581 3500 
L 1159 3500 
L 1159 2969 
Q 1341 3281 1617 3432 
Q 1894 3584 2278 3584 
Q 2916 3584 3314 3078 
Q 3713 2572 3713 1747 
Q 3713 922 3314 415 
Q 2916 -91 2278 -91 
Q 1894 -91 1617 61 
Q 1341 213 1159 525 
z
M 3116 1747 
Q 3116 2381 2855 2742 
Q 2594 3103 2138 3103 
Q 1681 3103 1420 2742 
Q 1159 2381 1159 1747 
Q 1159 1113 1420 752 
Q 1681 391 2138 391 
Q 2594 391 2855 752 
Q 3116 1113 3116 1747 
z
" transform="scale(0.015625)"/>
      <path id="DejaVuSans-3a" d="M 750 794 
L 1409 794 
L 1409 0 
L 750 0 
L 750 794 
z
M 750 3309 
L 1409 3309 
L 1409 2516 
L 750 2516 
L 750 3309 
z
" transform="scale(0.015625)"/>
      <path id="DejaVuSans-4e" d="M 628 4666 
L 1478 4666 
L 3547 763 
L 3547 4666 
L 4159 4666 
L 4159 0 
L 3309 0 
L 1241 3903 
L 1241 0 
L 628 0 
L 628 4666 
z
" transform="scale(0.015625)"/>
      <path id="DejaVuSans-4f" d="M 2522 4238 
Q 1834 4238 1429 3725 
Q 1025 3213 1025 2328 
Q 1025 1447 1429 934 
Q 1834 422 2522 422 
Q 3209 422 3611 934 
Q 4013 1447 4013 2328 
Q 4013 3213 3611 3725 
Q 3209 4238 2522 4238 
z
M 2522 4750 
Q 3503 4750 4090 4092 
Q 4678 3434 4678 2328 
Q 4678 1225 4090 567 
Q 3503 -91 2522 -91 
Q 1538 -91 948 565 
Q 359 1222 359 2328 
Q 359 3434 948 4092 
Q 1538 4750 2522 4750 
z
" transform="scale(0.015625)"/>
     </defs>
     <use xlink:href="#DejaVuSans-57"/>
     <use xlink:href="#DejaVuSans-6f" x="93.001953"/>
     <use xlink:href="#DejaVuSans-72" x="154.183594"/>
     <use xlink:href="#DejaVuSans-6b" x="195.296875"/>
     <use xlink:href="#DejaVuSans-20" x="253.207031"/>
     <use xlink:href="#DejaVuSans-6c" x="284.994141"/>
     <use xlink:href="#DejaVuSans-6f" x="312.777344"/>
     <use xlink:href="#DejaVuSans-6f" x="373.958984"/>
     <use xlink:href="#DejaVuSans-70" x="435.140625"/>
     <use xlink:href="#DejaVuSans-3a" x="498.617188"/>
     <use xlink:href="#DejaVuSans-20" x="532.308594"/>
     <use xlink:href="#DejaVuSans-4e" x="564.095703"/>
     <use xlink:href="#DejaVuSans-6f" x="638.900391"/>
     <use xlink:href="#DejaVuSans-6e" x="700.082031"/>
     <use xlink:href="#DejaVuSans-6c" x="763.460938"/>
     <use xlink:href="#DejaVuSans-69" x="791.244141"/>
     <use xlink:href="#DejaVuSans-6e" x="819.027344"/>
     <use xlink:href="#DejaVuSans-65" x="882.40625"/>
     <use xlink:href="#DejaVuSans-61" x="943.929688"/>
     <use xlink:href="#DejaVuSans-72" x="1005.208984"/>
     <use xlink:href="#DejaVuSans-20" x="1046.322266"/>
     <use xlink:href="#DejaVuSans-4f" x="1078.109375"/>
     <use xlink:href="#DejaVuSans-73" x="1156.820312"/>
     <use xlink:href="#DejaVuSans-63" x="1208.919922"/>
     <use xlink:href="#DejaVuSans-69" x="1263.900391"/>
     <use xlink:href="#DejaVuSans-6c" x="1291.683594"/>
     <use xlink:href="#DejaVuSans-6c" x="1319.466797"/>
     <use xlink:href="#DejaVuSans-61" x="1347.25"/>
     <use xlink:href="#DejaVuSans-74" x="1408.529297"/>
     <use xlink:href="#DejaVuSans-6f" x="1447.738281"/>
     <use xlink:href="#DejaVuSans-72" x="1508.919922"/>
    </g>
   </g>
  </g>
 </g>
 <defs>
  <clipPath id="p38a01c9f61">
   <rect x="57.6" y="41.472" width="357.12" height="266.112"/>
  </clipPath>
 </defs>
</svg>
