<?xml version="1.0" encoding="utf-8" standalone="no"?>
<!DOCTYPE svg PUBLIC "-//W3C//DTD SVG 1.1//EN"
  "http://www.w3.org/Graphics/SVG/1.1/DTD/svg11.dtd">
<!-- Created with matplotlib (https://matplotlib.org/) -->
<svg height="288pt" version="1.1" viewBox="0 0 432 288" width="432pt" xmlns="http://www.w3.org/2000/svg" xmlns:xlink="http://www.w3.org/1999/xlink">
 <metadata>
  <rdf:RDF xmlns:cc="http://creativecommons.org/ns#" xmlns:dc="http://purl.org/dc/elements/1.1/" xmlns:rdf="http://www.w3.org/1999/02/22-rdf-syntax-ns#">
   <cc:Work>
    <dc:type rdf:resource="http://purl.org/dc/dcmitype/StillImage"/>
    <dc:date>2024-08-27T12:18:10.164911</dc:date>
    <dc:format>image/svg+xml</dc:format>
    <dc:creator>
     <cc:Agent>
      <dc:title>Matplotlib v3.3.4, https://matplotlib.org/</dc:title>
     </cc:Agent>
    </dc:creator>
   </cc:Work>
  </rdf:RDF>
 </metadata>
 <defs>
  <style type="text/css">*{stroke-linecap:butt;stroke-linejoin:round;}</style>
 </defs>
 <g id="figure_1">
  <g id="patch_1">
   <path d="M 0 288 
L 432 288 
L 432 0 
L 0 0 
z
" style="fill:none;"/>
  </g>
  <g id="axes_1">
   <g id="patch_2">
    <path d="M 54 252 
L 388.8 252 
L 388.8 34.56 
L 54 34.56 
z
" style="fill:#ffffff;"/>
   </g>
   <g id="matplotlib.axis_1">
    <g id="xtick_1">
     <g id="line2d_1">
      <defs>
       <path d="M 0 0 
L 0 3.5 
" id="mcb0b15f40a" style="stroke:#000000;stroke-width:0.8;"/>
      </defs>
      <g>
       <use style="stroke:#000000;stroke-width:0.8;" x="69.218182" xlink:href="#mcb0b15f40a" y="252"/>
      </g>
     </g>
     <g id="text_1">
      <!-- 0 -->
      <g transform="translate(65.400682 268.118125)scale(0.12 -0.12)">
       <defs>
        <path d="M 31.78125 66.40625 
Q 24.171875 66.40625 20.328125 58.90625 
Q 16.5 51.421875 16.5 36.375 
Q 16.5 21.390625 20.328125 13.890625 
Q 24.171875 6.390625 31.78125 6.390625 
Q 39.453125 6.390625 43.28125 13.890625 
Q 47.125 21.390625 47.125 36.375 
Q 47.125 51.421875 43.28125 58.90625 
Q 39.453125 66.40625 31.78125 66.40625 
z
M 31.78125 74.21875 
Q 44.046875 74.21875 50.515625 64.515625 
Q 56.984375 54.828125 56.984375 36.375 
Q 56.984375 17.96875 50.515625 8.265625 
Q 44.046875 -1.421875 31.78125 -1.421875 
Q 19.53125 -1.421875 13.0625 8.265625 
Q 6.59375 17.96875 6.59375 36.375 
Q 6.59375 54.828125 13.0625 64.515625 
Q 19.53125 74.21875 31.78125 74.21875 
z
" id="DejaVuSans-48"/>
       </defs>
       <use xlink:href="#DejaVuSans-48"/>
      </g>
     </g>
    </g>
    <g id="xtick_2">
     <g id="line2d_2">
      <g>
       <use style="stroke:#000000;stroke-width:0.8;" x="129.969407" xlink:href="#mcb0b15f40a" y="252"/>
      </g>
     </g>
     <g id="text_2">
      <!-- (2/5)T -->
      <g transform="translate(111.966594 268.118125)scale(0.12 -0.12)">
       <defs>
        <path d="M 31 75.875 
Q 24.46875 64.65625 21.28125 53.65625 
Q 18.109375 42.671875 18.109375 31.390625 
Q 18.109375 20.125 21.3125 9.0625 
Q 24.515625 -2 31 -13.1875 
L 23.1875 -13.1875 
Q 15.875 -1.703125 12.234375 9.375 
Q 8.59375 20.453125 8.59375 31.390625 
Q 8.59375 42.28125 12.203125 53.3125 
Q 15.828125 64.359375 23.1875 75.875 
z
" id="DejaVuSans-40"/>
        <path d="M 19.1875 8.296875 
L 53.609375 8.296875 
L 53.609375 0 
L 7.328125 0 
L 7.328125 8.296875 
Q 12.9375 14.109375 22.625 23.890625 
Q 32.328125 33.6875 34.8125 36.53125 
Q 39.546875 41.84375 41.421875 45.53125 
Q 43.3125 49.21875 43.3125 52.78125 
Q 43.3125 58.59375 39.234375 62.25 
Q 35.15625 65.921875 28.609375 65.921875 
Q 23.96875 65.921875 18.8125 64.3125 
Q 13.671875 62.703125 7.8125 59.421875 
L 7.8125 69.390625 
Q 13.765625 71.78125 18.9375 73 
Q 24.125 74.21875 28.421875 74.21875 
Q 39.75 74.21875 46.484375 68.546875 
Q 53.21875 62.890625 53.21875 53.421875 
Q 53.21875 48.921875 51.53125 44.890625 
Q 49.859375 40.875 45.40625 35.40625 
Q 44.1875 33.984375 37.640625 27.21875 
Q 31.109375 20.453125 19.1875 8.296875 
z
" id="DejaVuSans-50"/>
        <path d="M 25.390625 72.90625 
L 33.6875 72.90625 
L 8.296875 -9.28125 
L 0 -9.28125 
z
" id="DejaVuSans-47"/>
        <path d="M 10.796875 72.90625 
L 49.515625 72.90625 
L 49.515625 64.59375 
L 19.828125 64.59375 
L 19.828125 46.734375 
Q 21.96875 47.46875 24.109375 47.828125 
Q 26.265625 48.1875 28.421875 48.1875 
Q 40.625 48.1875 47.75 41.5 
Q 54.890625 34.8125 54.890625 23.390625 
Q 54.890625 11.625 47.5625 5.09375 
Q 40.234375 -1.421875 26.90625 -1.421875 
Q 22.3125 -1.421875 17.546875 -0.640625 
Q 12.796875 0.140625 7.71875 1.703125 
L 7.71875 11.625 
Q 12.109375 9.234375 16.796875 8.0625 
Q 21.484375 6.890625 26.703125 6.890625 
Q 35.15625 6.890625 40.078125 11.328125 
Q 45.015625 15.765625 45.015625 23.390625 
Q 45.015625 31 40.078125 35.4375 
Q 35.15625 39.890625 26.703125 39.890625 
Q 22.75 39.890625 18.8125 39.015625 
Q 14.890625 38.140625 10.796875 36.28125 
z
" id="DejaVuSans-53"/>
        <path d="M 8.015625 75.875 
L 15.828125 75.875 
Q 23.140625 64.359375 26.78125 53.3125 
Q 30.421875 42.28125 30.421875 31.390625 
Q 30.421875 20.453125 26.78125 9.375 
Q 23.140625 -1.703125 15.828125 -13.1875 
L 8.015625 -13.1875 
Q 14.5 -2 17.703125 9.0625 
Q 20.90625 20.125 20.90625 31.390625 
Q 20.90625 42.671875 17.703125 53.65625 
Q 14.5 64.65625 8.015625 75.875 
z
" id="DejaVuSans-41"/>
        <path d="M -0.296875 72.90625 
L 61.375 72.90625 
L 61.375 64.59375 
L 35.5 64.59375 
L 35.5 0 
L 25.59375 0 
L 25.59375 64.59375 
L -0.296875 64.59375 
z
" id="DejaVuSans-84"/>
       </defs>
       <use xlink:href="#DejaVuSans-40"/>
       <use x="39.013672" xlink:href="#DejaVuSans-50"/>
       <use x="102.636719" xlink:href="#DejaVuSans-47"/>
       <use x="136.328125" xlink:href="#DejaVuSans-53"/>
       <use x="199.951172" xlink:href="#DejaVuSans-41"/>
       <use x="238.964844" xlink:href="#DejaVuSans-84"/>
      </g>
     </g>
    </g>
    <g id="xtick_3">
     <g id="line2d_3">
      <g>
       <use style="stroke:#000000;stroke-width:0.8;" x="190.720631" xlink:href="#mcb0b15f40a" y="252"/>
      </g>
     </g>
     <g id="text_3">
      <!-- (4/5) T -->
      <g transform="translate(170.810944 268.118125)scale(0.12 -0.12)">
       <defs>
        <path d="M 37.796875 64.3125 
L 12.890625 25.390625 
L 37.796875 25.390625 
z
M 35.203125 72.90625 
L 47.609375 72.90625 
L 47.609375 25.390625 
L 58.015625 25.390625 
L 58.015625 17.1875 
L 47.609375 17.1875 
L 47.609375 0 
L 37.796875 0 
L 37.796875 17.1875 
L 4.890625 17.1875 
L 4.890625 26.703125 
z
" id="DejaVuSans-52"/>
        <path id="DejaVuSans-32"/>
       </defs>
       <use xlink:href="#DejaVuSans-40"/>
       <use x="39.013672" xlink:href="#DejaVuSans-52"/>
       <use x="102.636719" xlink:href="#DejaVuSans-47"/>
       <use x="136.328125" xlink:href="#DejaVuSans-53"/>
       <use x="199.951172" xlink:href="#DejaVuSans-41"/>
       <use x="238.964844" xlink:href="#DejaVuSans-32"/>
       <use x="270.751953" xlink:href="#DejaVuSans-84"/>
      </g>
     </g>
    </g>
    <g id="xtick_4">
     <g id="line2d_4">
      <g>
       <use style="stroke:#000000;stroke-width:0.8;" x="251.471856" xlink:href="#mcb0b15f40a" y="252"/>
      </g>
     </g>
     <g id="text_4">
      <!-- (6/5)T -->
      <g transform="translate(233.469044 268.118125)scale(0.12 -0.12)">
       <defs>
        <path d="M 33.015625 40.375 
Q 26.375 40.375 22.484375 35.828125 
Q 18.609375 31.296875 18.609375 23.390625 
Q 18.609375 15.53125 22.484375 10.953125 
Q 26.375 6.390625 33.015625 6.390625 
Q 39.65625 6.390625 43.53125 10.953125 
Q 47.40625 15.53125 47.40625 23.390625 
Q 47.40625 31.296875 43.53125 35.828125 
Q 39.65625 40.375 33.015625 40.375 
z
M 52.59375 71.296875 
L 52.59375 62.3125 
Q 48.875 64.0625 45.09375 64.984375 
Q 41.3125 65.921875 37.59375 65.921875 
Q 27.828125 65.921875 22.671875 59.328125 
Q 17.53125 52.734375 16.796875 39.40625 
Q 19.671875 43.65625 24.015625 45.921875 
Q 28.375 48.1875 33.59375 48.1875 
Q 44.578125 48.1875 50.953125 41.515625 
Q 57.328125 34.859375 57.328125 23.390625 
Q 57.328125 12.15625 50.6875 5.359375 
Q 44.046875 -1.421875 33.015625 -1.421875 
Q 20.359375 -1.421875 13.671875 8.265625 
Q 6.984375 17.96875 6.984375 36.375 
Q 6.984375 53.65625 15.1875 63.9375 
Q 23.390625 74.21875 37.203125 74.21875 
Q 40.921875 74.21875 44.703125 73.484375 
Q 48.484375 72.75 52.59375 71.296875 
z
" id="DejaVuSans-54"/>
       </defs>
       <use xlink:href="#DejaVuSans-40"/>
       <use x="39.013672" xlink:href="#DejaVuSans-54"/>
       <use x="102.636719" xlink:href="#DejaVuSans-47"/>
       <use x="136.328125" xlink:href="#DejaVuSans-53"/>
       <use x="199.951172" xlink:href="#DejaVuSans-41"/>
       <use x="238.964844" xlink:href="#DejaVuSans-84"/>
      </g>
     </g>
    </g>
    <g id="xtick_5">
     <g id="line2d_5">
      <g>
       <use style="stroke:#000000;stroke-width:0.8;" x="312.223081" xlink:href="#mcb0b15f40a" y="252"/>
      </g>
     </g>
     <g id="text_5">
      <!-- (8/5)T -->
      <g transform="translate(294.220269 268.118125)scale(0.12 -0.12)">
       <defs>
        <path d="M 31.78125 34.625 
Q 24.75 34.625 20.71875 30.859375 
Q 16.703125 27.09375 16.703125 20.515625 
Q 16.703125 13.921875 20.71875 10.15625 
Q 24.75 6.390625 31.78125 6.390625 
Q 38.8125 6.390625 42.859375 10.171875 
Q 46.921875 13.96875 46.921875 20.515625 
Q 46.921875 27.09375 42.890625 30.859375 
Q 38.875 34.625 31.78125 34.625 
z
M 21.921875 38.8125 
Q 15.578125 40.375 12.03125 44.71875 
Q 8.5 49.078125 8.5 55.328125 
Q 8.5 64.0625 14.71875 69.140625 
Q 20.953125 74.21875 31.78125 74.21875 
Q 42.671875 74.21875 48.875 69.140625 
Q 55.078125 64.0625 55.078125 55.328125 
Q 55.078125 49.078125 51.53125 44.71875 
Q 48 40.375 41.703125 38.8125 
Q 48.828125 37.15625 52.796875 32.3125 
Q 56.78125 27.484375 56.78125 20.515625 
Q 56.78125 9.90625 50.3125 4.234375 
Q 43.84375 -1.421875 31.78125 -1.421875 
Q 19.734375 -1.421875 13.25 4.234375 
Q 6.78125 9.90625 6.78125 20.515625 
Q 6.78125 27.484375 10.78125 32.3125 
Q 14.796875 37.15625 21.921875 38.8125 
z
M 18.3125 54.390625 
Q 18.3125 48.734375 21.84375 45.5625 
Q 25.390625 42.390625 31.78125 42.390625 
Q 38.140625 42.390625 41.71875 45.5625 
Q 45.3125 48.734375 45.3125 54.390625 
Q 45.3125 60.0625 41.71875 63.234375 
Q 38.140625 66.40625 31.78125 66.40625 
Q 25.390625 66.40625 21.84375 63.234375 
Q 18.3125 60.0625 18.3125 54.390625 
z
" id="DejaVuSans-56"/>
       </defs>
       <use xlink:href="#DejaVuSans-40"/>
       <use x="39.013672" xlink:href="#DejaVuSans-56"/>
       <use x="102.636719" xlink:href="#DejaVuSans-47"/>
       <use x="136.328125" xlink:href="#DejaVuSans-53"/>
       <use x="199.951172" xlink:href="#DejaVuSans-41"/>
       <use x="238.964844" xlink:href="#DejaVuSans-84"/>
      </g>
     </g>
    </g>
    <g id="xtick_6">
     <g id="line2d_6">
      <g>
       <use style="stroke:#000000;stroke-width:0.8;" x="372.974306" xlink:href="#mcb0b15f40a" y="252"/>
      </g>
     </g>
     <g id="text_6">
      <!-- 2T -->
      <g transform="translate(365.492118 268.118125)scale(0.12 -0.12)">
       <use xlink:href="#DejaVuSans-50"/>
       <use x="63.623047" xlink:href="#DejaVuSans-84"/>
      </g>
     </g>
    </g>
    <g id="text_7">
     <!-- Time $t$ -->
     <g transform="translate(205.45 282.212188)scale(0.1 -0.1)">
      <defs>
       <path d="M 9.421875 54.6875 
L 18.40625 54.6875 
L 18.40625 0 
L 9.421875 0 
z
M 9.421875 75.984375 
L 18.40625 75.984375 
L 18.40625 64.59375 
L 9.421875 64.59375 
z
" id="DejaVuSans-105"/>
       <path d="M 52 44.1875 
Q 55.375 50.25 60.0625 53.125 
Q 64.75 56 71.09375 56 
Q 79.640625 56 84.28125 50.015625 
Q 88.921875 44.046875 88.921875 33.015625 
L 88.921875 0 
L 79.890625 0 
L 79.890625 32.71875 
Q 79.890625 40.578125 77.09375 44.375 
Q 74.3125 48.1875 68.609375 48.1875 
Q 61.625 48.1875 57.5625 43.546875 
Q 53.515625 38.921875 53.515625 30.90625 
L 53.515625 0 
L 44.484375 0 
L 44.484375 32.71875 
Q 44.484375 40.625 41.703125 44.40625 
Q 38.921875 48.1875 33.109375 48.1875 
Q 26.21875 48.1875 22.15625 43.53125 
Q 18.109375 38.875 18.109375 30.90625 
L 18.109375 0 
L 9.078125 0 
L 9.078125 54.6875 
L 18.109375 54.6875 
L 18.109375 46.1875 
Q 21.1875 51.21875 25.484375 53.609375 
Q 29.78125 56 35.6875 56 
Q 41.65625 56 45.828125 52.96875 
Q 50 49.953125 52 44.1875 
z
" id="DejaVuSans-109"/>
       <path d="M 56.203125 29.59375 
L 56.203125 25.203125 
L 14.890625 25.203125 
Q 15.484375 15.921875 20.484375 11.0625 
Q 25.484375 6.203125 34.421875 6.203125 
Q 39.59375 6.203125 44.453125 7.46875 
Q 49.3125 8.734375 54.109375 11.28125 
L 54.109375 2.78125 
Q 49.265625 0.734375 44.1875 -0.34375 
Q 39.109375 -1.421875 33.890625 -1.421875 
Q 20.796875 -1.421875 13.15625 6.1875 
Q 5.515625 13.8125 5.515625 26.8125 
Q 5.515625 40.234375 12.765625 48.109375 
Q 20.015625 56 32.328125 56 
Q 43.359375 56 49.78125 48.890625 
Q 56.203125 41.796875 56.203125 29.59375 
z
M 47.21875 32.234375 
Q 47.125 39.59375 43.09375 43.984375 
Q 39.0625 48.390625 32.421875 48.390625 
Q 24.90625 48.390625 20.390625 44.140625 
Q 15.875 39.890625 15.1875 32.171875 
z
" id="DejaVuSans-101"/>
       <path d="M 42.28125 54.6875 
L 40.921875 47.703125 
L 23 47.703125 
L 17.1875 18.015625 
Q 16.890625 16.359375 16.75 15.234375 
Q 16.609375 14.109375 16.609375 13.484375 
Q 16.609375 10.359375 18.484375 8.9375 
Q 20.359375 7.515625 24.515625 7.515625 
L 33.59375 7.515625 
L 32.078125 0 
L 23.484375 0 
Q 15.484375 0 11.546875 3.125 
Q 7.625 6.25 7.625 12.59375 
Q 7.625 13.71875 7.765625 15.0625 
Q 7.90625 16.40625 8.203125 18.015625 
L 14.015625 47.703125 
L 6.390625 47.703125 
L 7.8125 54.6875 
L 15.28125 54.6875 
L 18.3125 70.21875 
L 27.296875 70.21875 
L 24.3125 54.6875 
z
" id="DejaVuSans-Oblique-116"/>
      </defs>
      <use transform="translate(0 0.015625)" xlink:href="#DejaVuSans-84"/>
      <use transform="translate(61.083984 0.015625)" xlink:href="#DejaVuSans-105"/>
      <use transform="translate(88.867188 0.015625)" xlink:href="#DejaVuSans-109"/>
      <use transform="translate(186.279297 0.015625)" xlink:href="#DejaVuSans-101"/>
      <use transform="translate(247.802734 0.015625)" xlink:href="#DejaVuSans-32"/>
      <use transform="translate(279.589844 0.015625)" xlink:href="#DejaVuSans-Oblique-116"/>
     </g>
    </g>
   </g>
   <g id="matplotlib.axis_2">
    <g id="ytick_1">
     <g id="line2d_7">
      <defs>
       <path d="M 0 0 
L -3.5 0 
" id="mc1868a4e31" style="stroke:#000000;stroke-width:0.8;"/>
      </defs>
      <g>
       <use style="stroke:#000000;stroke-width:0.8;" x="54" xlink:href="#mc1868a4e31" y="242.116359"/>
      </g>
     </g>
     <g id="text_8">
      <!-- 0.0 -->
      <g transform="translate(27.91625 246.675422)scale(0.12 -0.12)">
       <defs>
        <path d="M 10.6875 12.40625 
L 21 12.40625 
L 21 0 
L 10.6875 0 
z
" id="DejaVuSans-46"/>
       </defs>
       <use xlink:href="#DejaVuSans-48"/>
       <use x="63.623047" xlink:href="#DejaVuSans-46"/>
       <use x="95.410156" xlink:href="#DejaVuSans-48"/>
      </g>
     </g>
    </g>
    <g id="ytick_2">
     <g id="line2d_8">
      <g>
       <use style="stroke:#000000;stroke-width:0.8;" x="54" xlink:href="#mc1868a4e31" y="214.567554"/>
      </g>
     </g>
     <g id="text_9">
      <!-- 2.5 -->
      <g transform="translate(27.91625 219.126616)scale(0.12 -0.12)">
       <use xlink:href="#DejaVuSans-50"/>
       <use x="63.623047" xlink:href="#DejaVuSans-46"/>
       <use x="95.410156" xlink:href="#DejaVuSans-53"/>
      </g>
     </g>
    </g>
    <g id="ytick_3">
     <g id="line2d_9">
      <g>
       <use style="stroke:#000000;stroke-width:0.8;" x="54" xlink:href="#mc1868a4e31" y="187.018748"/>
      </g>
     </g>
     <g id="text_10">
      <!-- 5.0 -->
      <g transform="translate(27.91625 191.577811)scale(0.12 -0.12)">
       <use xlink:href="#DejaVuSans-53"/>
       <use x="63.623047" xlink:href="#DejaVuSans-46"/>
       <use x="95.410156" xlink:href="#DejaVuSans-48"/>
      </g>
     </g>
    </g>
    <g id="ytick_4">
     <g id="line2d_10">
      <g>
       <use style="stroke:#000000;stroke-width:0.8;" x="54" xlink:href="#mc1868a4e31" y="159.469943"/>
      </g>
     </g>
     <g id="text_11">
      <!-- 7.5 -->
      <g transform="translate(27.91625 164.029005)scale(0.12 -0.12)">
       <defs>
        <path d="M 8.203125 72.90625 
L 55.078125 72.90625 
L 55.078125 68.703125 
L 28.609375 0 
L 18.3125 0 
L 43.21875 64.59375 
L 8.203125 64.59375 
z
" id="DejaVuSans-55"/>
       </defs>
       <use xlink:href="#DejaVuSans-55"/>
       <use x="63.623047" xlink:href="#DejaVuSans-46"/>
       <use x="95.410156" xlink:href="#DejaVuSans-53"/>
      </g>
     </g>
    </g>
    <g id="ytick_5">
     <g id="line2d_11">
      <g>
       <use style="stroke:#000000;stroke-width:0.8;" x="54" xlink:href="#mc1868a4e31" y="131.921137"/>
      </g>
     </g>
     <g id="text_12">
      <!-- 10.0 -->
      <g transform="translate(20.28125 136.4802)scale(0.12 -0.12)">
       <defs>
        <path d="M 12.40625 8.296875 
L 28.515625 8.296875 
L 28.515625 63.921875 
L 10.984375 60.40625 
L 10.984375 69.390625 
L 28.421875 72.90625 
L 38.28125 72.90625 
L 38.28125 8.296875 
L 54.390625 8.296875 
L 54.390625 0 
L 12.40625 0 
z
" id="DejaVuSans-49"/>
       </defs>
       <use xlink:href="#DejaVuSans-49"/>
       <use x="63.623047" xlink:href="#DejaVuSans-48"/>
       <use x="127.246094" xlink:href="#DejaVuSans-46"/>
       <use x="159.033203" xlink:href="#DejaVuSans-48"/>
      </g>
     </g>
    </g>
    <g id="ytick_6">
     <g id="line2d_12">
      <g>
       <use style="stroke:#000000;stroke-width:0.8;" x="54" xlink:href="#mc1868a4e31" y="104.372332"/>
      </g>
     </g>
     <g id="text_13">
      <!-- 12.5 -->
      <g transform="translate(20.28125 108.931394)scale(0.12 -0.12)">
       <use xlink:href="#DejaVuSans-49"/>
       <use x="63.623047" xlink:href="#DejaVuSans-50"/>
       <use x="127.246094" xlink:href="#DejaVuSans-46"/>
       <use x="159.033203" xlink:href="#DejaVuSans-53"/>
      </g>
     </g>
    </g>
    <g id="ytick_7">
     <g id="line2d_13">
      <g>
       <use style="stroke:#000000;stroke-width:0.8;" x="54" xlink:href="#mc1868a4e31" y="76.823526"/>
      </g>
     </g>
     <g id="text_14">
      <!-- 15.0 -->
      <g transform="translate(20.28125 81.382589)scale(0.12 -0.12)">
       <use xlink:href="#DejaVuSans-49"/>
       <use x="63.623047" xlink:href="#DejaVuSans-53"/>
       <use x="127.246094" xlink:href="#DejaVuSans-46"/>
       <use x="159.033203" xlink:href="#DejaVuSans-48"/>
      </g>
     </g>
    </g>
    <g id="ytick_8">
     <g id="line2d_14">
      <g>
       <use style="stroke:#000000;stroke-width:0.8;" x="54" xlink:href="#mc1868a4e31" y="49.274721"/>
      </g>
     </g>
     <g id="text_15">
      <!-- 17.5 -->
      <g transform="translate(20.28125 53.833783)scale(0.12 -0.12)">
       <use xlink:href="#DejaVuSans-49"/>
       <use x="63.623047" xlink:href="#DejaVuSans-55"/>
       <use x="127.246094" xlink:href="#DejaVuSans-46"/>
       <use x="159.033203" xlink:href="#DejaVuSans-53"/>
      </g>
     </g>
    </g>
    <g id="text_16">
     <!-- Power $p$ -->
     <g transform="translate(14.18125 163.38)rotate(-90)scale(0.1 -0.1)">
      <defs>
       <path d="M 19.671875 64.796875 
L 19.671875 37.40625 
L 32.078125 37.40625 
Q 38.96875 37.40625 42.71875 40.96875 
Q 46.484375 44.53125 46.484375 51.125 
Q 46.484375 57.671875 42.71875 61.234375 
Q 38.96875 64.796875 32.078125 64.796875 
z
M 9.8125 72.90625 
L 32.078125 72.90625 
Q 44.34375 72.90625 50.609375 67.359375 
Q 56.890625 61.8125 56.890625 51.125 
Q 56.890625 40.328125 50.609375 34.8125 
Q 44.34375 29.296875 32.078125 29.296875 
L 19.671875 29.296875 
L 19.671875 0 
L 9.8125 0 
z
" id="DejaVuSans-80"/>
       <path d="M 30.609375 48.390625 
Q 23.390625 48.390625 19.1875 42.75 
Q 14.984375 37.109375 14.984375 27.296875 
Q 14.984375 17.484375 19.15625 11.84375 
Q 23.34375 6.203125 30.609375 6.203125 
Q 37.796875 6.203125 41.984375 11.859375 
Q 46.1875 17.53125 46.1875 27.296875 
Q 46.1875 37.015625 41.984375 42.703125 
Q 37.796875 48.390625 30.609375 48.390625 
z
M 30.609375 56 
Q 42.328125 56 49.015625 48.375 
Q 55.71875 40.765625 55.71875 27.296875 
Q 55.71875 13.875 49.015625 6.21875 
Q 42.328125 -1.421875 30.609375 -1.421875 
Q 18.84375 -1.421875 12.171875 6.21875 
Q 5.515625 13.875 5.515625 27.296875 
Q 5.515625 40.765625 12.171875 48.375 
Q 18.84375 56 30.609375 56 
z
" id="DejaVuSans-111"/>
       <path d="M 4.203125 54.6875 
L 13.1875 54.6875 
L 24.421875 12.015625 
L 35.59375 54.6875 
L 46.1875 54.6875 
L 57.421875 12.015625 
L 68.609375 54.6875 
L 77.59375 54.6875 
L 63.28125 0 
L 52.6875 0 
L 40.921875 44.828125 
L 29.109375 0 
L 18.5 0 
z
" id="DejaVuSans-119"/>
       <path d="M 41.109375 46.296875 
Q 39.59375 47.171875 37.8125 47.578125 
Q 36.03125 48 33.890625 48 
Q 26.265625 48 22.1875 43.046875 
Q 18.109375 38.09375 18.109375 28.8125 
L 18.109375 0 
L 9.078125 0 
L 9.078125 54.6875 
L 18.109375 54.6875 
L 18.109375 46.1875 
Q 20.953125 51.171875 25.484375 53.578125 
Q 30.03125 56 36.53125 56 
Q 37.453125 56 38.578125 55.875 
Q 39.703125 55.765625 41.0625 55.515625 
z
" id="DejaVuSans-114"/>
       <path d="M 49.609375 33.6875 
Q 49.609375 40.875 46.484375 44.671875 
Q 43.359375 48.484375 37.5 48.484375 
Q 33.5 48.484375 29.859375 46.4375 
Q 26.21875 44.390625 23.390625 40.484375 
Q 20.609375 36.625 18.9375 31.15625 
Q 17.28125 25.6875 17.28125 20.3125 
Q 17.28125 13.484375 20.40625 9.796875 
Q 23.53125 6.109375 29.296875 6.109375 
Q 33.546875 6.109375 37.1875 8.109375 
Q 40.828125 10.109375 43.40625 13.921875 
Q 46.1875 17.921875 47.890625 23.34375 
Q 49.609375 28.765625 49.609375 33.6875 
z
M 21.78125 46.390625 
Q 25.390625 51.125 30.296875 53.5625 
Q 35.203125 56 41.21875 56 
Q 49.609375 56 54.25 50.5 
Q 58.890625 45.015625 58.890625 35.109375 
Q 58.890625 27 56 19.65625 
Q 53.125 12.3125 47.703125 6.5 
Q 44.09375 2.640625 39.546875 0.609375 
Q 35.015625 -1.421875 29.984375 -1.421875 
Q 24.171875 -1.421875 20.21875 1 
Q 16.265625 3.421875 14.3125 8.203125 
L 8.6875 -20.796875 
L -0.296875 -20.796875 
L 14.40625 54.6875 
L 23.390625 54.6875 
z
" id="DejaVuSans-Oblique-112"/>
      </defs>
      <use transform="translate(0 0.09375)" xlink:href="#DejaVuSans-80"/>
      <use transform="translate(60.302734 0.09375)" xlink:href="#DejaVuSans-111"/>
      <use transform="translate(121.484375 0.09375)" xlink:href="#DejaVuSans-119"/>
      <use transform="translate(203.271484 0.09375)" xlink:href="#DejaVuSans-101"/>
      <use transform="translate(264.794922 0.09375)" xlink:href="#DejaVuSans-114"/>
      <use transform="translate(305.908203 0.09375)" xlink:href="#DejaVuSans-32"/>
      <use transform="translate(337.695312 0.09375)" xlink:href="#DejaVuSans-Oblique-112"/>
     </g>
    </g>
   </g>
   <g id="line2d_15">
    <path clip-path="url(#pd0bce172cd)" d="M 69.218182 242.112674 
L 85.924769 241.960618 
L 93.214916 241.634886 
L 99.593794 241.127473 
L 105.972673 240.397521 
L 112.655308 239.404992 
L 119.337942 238.176274 
L 129.058138 236.342323 
L 132.399456 235.983295 
L 135.133261 235.911702 
L 137.56331 236.050121 
L 140.297115 236.442157 
L 143.03092 237.06035 
L 146.675993 238.131215 
L 150.321067 239.265993 
L 156.396189 239.44569 
L 165.508873 239.888864 
L 168.242678 239.961545 
L 172.191508 239.683753 
L 175.836581 239.66856 
L 179.785411 239.883221 
L 186.771802 240.540907 
L 196.188242 241.364638 
L 204.389657 241.853706 
L 211.679804 242.066025 
L 222.311268 242.116356 
L 235.676538 242.011453 
L 243.270441 241.731471 
L 249.64932 241.282195 
L 256.028198 240.609437 
L 262.710833 239.675294 
L 269.089711 238.561867 
L 282.151225 236.164784 
L 285.188786 235.928634 
L 287.922591 235.947843 
L 290.35264 236.173355 
L 293.086445 236.658216 
L 296.124007 237.437069 
L 300.984105 238.960175 
L 302.199129 239.267703 
L 308.274251 239.451228 
L 317.386935 239.897867 
L 319.816984 239.976906 
L 323.765814 239.689547 
L 327.410887 239.664633 
L 331.359717 239.871625 
L 338.042352 240.495634 
L 347.762548 241.353425 
L 355.963963 241.846966 
L 363.25411 242.063649 
L 373.581818 242.116359 
L 373.581818 242.116359 
" style="fill:none;stroke:#172c4b;stroke-linecap:square;stroke-opacity:0.9;"/>
   </g>
   <g id="line2d_16">
    <path clip-path="url(#pd0bce172cd)" d="M 69.218182 242.084998 
L 72.559499 242.11531 
L 81.368427 241.995659 
L 88.354818 241.654433 
L 95.037452 241.030044 
L 100.505063 240.380768 
L 106.276429 239.24322 
L 114.174088 237.464046 
L 118.122918 236.378305 
L 121.464235 235.239044 
L 125.109309 233.744002 
L 131.791943 230.9221 
L 133.918236 230.305707 
L 137.867066 229.538344 
L 139.08209 229.588916 
L 140.297115 229.892933 
L 141.512139 230.448345 
L 142.727164 231.238287 
L 143.942188 232.036978 
L 146.372237 233.54808 
L 149.409799 235.625255 
L 150.017311 235.58485 
L 152.143604 234.529153 
L 153.662384 234.036749 
L 155.181165 233.814366 
L 156.396189 233.844243 
L 157.611214 234.057929 
L 159.129995 234.564428 
L 160.952531 235.460972 
L 163.38258 236.72141 
L 164.597605 236.885754 
L 180.392923 238.672381 
L 186.771802 239.332476 
L 193.454437 240.287188 
L 200.744584 241.271414 
L 205.908438 241.733154 
L 211.679804 242.010852 
L 218.969951 242.113814 
L 231.727708 242.03657 
L 238.410343 241.748921 
L 242.966685 241.407317 
L 251.471856 240.512599 
L 256.939467 239.465963 
L 265.140882 237.650057 
L 269.393468 236.516277 
L 272.734785 235.408185 
L 276.076102 234.073241 
L 283.973762 230.76997 
L 286.100054 230.2085 
L 290.048884 229.528074 
L 291.263909 229.673014 
L 292.478933 230.072331 
L 293.693958 230.718469 
L 301.287861 235.629863 
L 301.895373 235.506632 
L 303.71791 234.591888 
L 305.23669 234.07434 
L 306.755471 233.82374 
L 307.970495 233.830327 
L 309.18552 234.021473 
L 310.7043 234.50283 
L 312.223081 235.21256 
L 315.260642 236.755646 
L 322.550789 237.724868 
L 328.0184 238.321105 
L 339.257376 239.430003 
L 347.458792 240.624139 
L 353.533914 241.384598 
L 358.697768 241.801572 
L 364.469134 242.039773 
L 372.366794 242.11617 
L 373.581818 242.116359 
L 373.581818 242.116359 
" style="fill:none;stroke:#172c4b;stroke-linecap:square;stroke-opacity:0.8;"/>
   </g>
   <g id="line2d_17">
    <path clip-path="url(#pd0bce172cd)" d="M 69.218182 242.056409 
L 70.433206 242.116356 
L 79.849646 242.01233 
L 85.317256 241.720225 
L 89.873598 241.285275 
L 94.42994 240.551767 
L 98.075014 239.774606 
L 101.112575 238.797332 
L 104.757648 237.370313 
L 111.440283 234.461645 
L 115.085357 232.372903 
L 116.907893 231.561143 
L 118.426674 231.116895 
L 119.945455 230.85323 
L 122.071747 228.960262 
L 124.501796 226.45456 
L 127.539358 222.952953 
L 131.184431 218.762874 
L 133.006968 216.986525 
L 134.525749 215.823491 
L 135.740773 215.166255 
L 136.955797 214.796632 
L 137.867066 214.728414 
L 138.778334 214.850886 
L 139.689603 215.170188 
L 140.600871 215.688052 
L 141.815895 216.681565 
L 143.03092 218.001811 
L 144.549701 220.056688 
L 146.372237 222.983965 
L 149.409799 228.418508 
L 150.321067 230.051283 
L 150.624823 229.868218 
L 152.44736 228.075814 
L 153.662384 227.134074 
L 154.877409 226.44533 
L 156.092433 226.043464 
L 157.003702 225.944205 
L 157.91497 226.023316 
L 158.826238 226.28007 
L 160.041263 226.887866 
L 161.256287 227.772616 
L 162.775068 229.202429 
L 164.293849 230.674537 
L 166.420142 232.191674 
L 169.761459 234.9329 
L 171.583996 236.421327 
L 172.191508 236.468632 
L 174.317801 236.446619 
L 176.74785 236.65086 
L 179.785411 237.154238 
L 181.000435 237.297302 
L 184.341753 237.672802 
L 187.986826 238.324549 
L 193.758193 239.647699 
L 197.403266 240.377855 
L 203.478389 241.24706 
L 208.642243 241.7634 
L 213.502341 242.023875 
L 219.881219 242.115132 
L 231.120196 242.026682 
L 236.587806 241.752955 
L 241.447904 241.305888 
L 246.004246 240.579508 
L 249.64932 239.817777 
L 252.686881 238.851226 
L 256.331954 237.433961 
L 263.014589 234.55272 
L 266.963419 232.296299 
L 268.785955 231.505892 
L 270.304736 231.086877 
L 271.823517 230.727735 
L 273.949809 228.813924 
L 276.379858 226.287317 
L 279.721176 222.412175 
L 283.062493 218.602609 
L 284.88503 216.855415 
L 286.403811 215.726949 
L 287.618835 215.103558 
L 288.83386 214.772404 
L 289.745128 214.735366 
L 290.656396 214.890331 
L 291.567665 215.242731 
L 292.478933 215.793529 
L 293.693958 216.829311 
L 294.908982 218.188216 
L 296.427763 220.283677 
L 298.250299 223.244691 
L 302.199129 230.033875 
L 304.021666 228.209275 
L 305.540446 227.033354 
L 306.755471 226.378828 
L 307.970495 226.014654 
L 308.881764 225.94496 
L 309.793032 226.053867 
L 310.7043 226.339797 
L 311.919325 226.984051 
L 313.134349 227.900718 
L 314.65313 229.361592 
L 315.868155 230.578365 
L 317.690691 231.843476 
L 320.424496 234.04376 
L 323.462058 236.500223 
L 325.588351 236.434385 
L 328.0184 236.596316 
L 330.752205 237.010196 
L 332.878498 237.309775 
L 336.219815 237.695099 
L 339.864888 238.356344 
L 346.243767 239.821987 
L 349.281328 240.402373 
L 355.052695 241.22837 
L 360.216549 241.751751 
L 365.076647 242.018796 
L 371.151769 242.114068 
L 373.581818 242.116359 
L 373.581818 242.116359 
" style="fill:none;stroke:#172c4b;stroke-linecap:square;stroke-opacity:0.7;"/>
   </g>
   <g id="line2d_18">
    <path clip-path="url(#pd0bce172cd)" d="M 69.218182 242.106221 
L 69.825694 242.115673 
L 78.938378 242.026738 
L 83.798476 241.767767 
L 87.747305 241.34008 
L 91.392379 240.721497 
L 95.037452 239.892525 
L 100.808819 238.160682 
L 103.84638 236.93456 
L 105.668917 236.43941 
L 106.276429 236.206306 
L 108.706478 234.724271 
L 111.136527 232.999953 
L 113.870332 230.774451 
L 116.907893 227.991826 
L 118.426674 226.427397 
L 121.464235 222.762797 
L 128.754382 213.795507 
L 130.880675 211.64232 
L 131.791943 210.800329 
L 133.61448 207.477333 
L 135.133261 205.185236 
L 136.348285 203.795238 
L 137.259554 203.068348 
L 138.170822 202.646834 
L 139.08209 202.555582 
L 139.689603 202.687154 
L 140.600871 203.180684 
L 141.512139 204.030985 
L 142.423408 205.230402 
L 143.334676 206.761092 
L 144.549701 209.267988 
L 146.068481 213.018461 
L 146.97975 215.254591 
L 149.106042 218.342759 
L 153.662384 225.196569 
L 159.737507 232.261069 
L 161.256287 233.848708 
L 161.560044 234.02953 
L 165.205117 234.69037 
L 165.812629 234.26842 
L 167.635166 232.815613 
L 169.153947 231.916806 
L 170.368971 231.454937 
L 171.583996 231.250007 
L 172.79902 231.31441 
L 174.014045 231.645201 
L 175.229069 232.223077 
L 176.74785 233.238206 
L 178.570386 234.755005 
L 180.089167 236.077741 
L 183.430484 236.578803 
L 187.68307 237.327537 
L 193.15068 238.533863 
L 202.263364 240.572195 
L 206.819706 241.332169 
L 211.072292 241.800923 
L 215.324878 242.041837 
L 221.096244 242.116243 
L 231.120196 242.011799 
L 235.980294 241.729964 
L 239.929124 241.274957 
L 243.574197 240.628981 
L 247.219271 239.762702 
L 252.686881 238.093232 
L 255.420686 236.986362 
L 257.243223 236.470581 
L 257.850735 236.291118 
L 260.280784 234.823927 
L 262.710833 233.114869 
L 265.444638 230.905596 
L 268.482199 228.137334 
L 270.304736 226.252127 
L 273.342297 222.572565 
L 280.328688 213.962988 
L 282.454981 211.782762 
L 283.366249 210.975516 
L 283.973762 209.92679 
L 285.796298 206.734447 
L 287.011323 204.987649 
L 288.226347 203.654133 
L 289.137616 202.976133 
L 290.048884 202.608121 
L 290.656396 202.547017 
L 291.263909 202.639562 
L 291.871421 202.88924 
L 292.782689 203.561478 
L 293.693958 204.587931 
L 294.605226 205.955847 
L 295.82025 208.269972 
L 297.035275 211.069036 
L 298.857812 215.462873 
L 300.984105 218.575376 
L 305.23669 225.01674 
L 311.615569 232.424874 
L 313.134349 234.000869 
L 317.083179 234.678922 
L 318.905716 233.145432 
L 320.424496 232.151405 
L 321.639521 231.599139 
L 322.854545 231.295643 
L 324.06957 231.25853 
L 325.284594 231.490805 
L 326.499619 231.979319 
L 327.714643 232.694752 
L 329.233424 233.840431 
L 331.967229 236.105352 
L 335.00479 236.556067 
L 339.257376 237.297334 
L 344.724986 238.49825 
L 354.141426 240.601396 
L 358.394012 241.310992 
L 362.646598 241.788289 
L 366.899183 242.036652 
L 372.366794 242.115869 
L 373.581818 242.116359 
L 373.581818 242.116359 
" style="fill:none;stroke:#172c4b;stroke-linecap:square;stroke-opacity:0.6;"/>
   </g>
   <g id="line2d_19">
    <path clip-path="url(#pd0bce172cd)" d="M 69.218182 242.116355 
L 69.521938 242.050532 
L 70.12945 242.116359 
L 78.938378 242.007662 
L 83.49472 241.727735 
L 87.139793 241.276179 
L 90.177354 240.675391 
L 93.214916 239.840945 
L 97.467501 238.391075 
L 99.290038 237.679556 
L 102.935112 235.946607 
L 104.757648 235.303811 
L 106.276429 234.86228 
L 108.402722 233.525369 
L 110.832771 231.522809 
L 112.959064 229.48253 
L 114.7816 227.144804 
L 116.604137 224.480491 
L 118.73043 220.972056 
L 121.160479 216.499344 
L 124.501796 209.814527 
L 128.754382 201.331035 
L 130.880675 197.579718 
L 132.399456 195.273619 
L 133.918236 193.369228 
L 135.133261 192.183344 
L 136.348285 191.331981 
L 137.259554 190.928679 
L 138.170822 190.73653 
L 139.08209 190.761641 
L 139.993359 191.007667 
L 140.904627 191.475712 
L 141.815895 192.164243 
L 143.03092 193.41763 
L 144.245944 195.037959 
L 145.460969 196.999813 
L 146.97975 199.881346 
L 148.802286 203.861663 
L 151.232335 209.783226 
L 157.307458 224.963957 
L 159.433751 229.529685 
L 161.256287 232.063044 
L 163.078824 232.473962 
L 165.508873 233.0364 
L 165.812629 232.82857 
L 167.635166 230.853375 
L 168.850191 229.803007 
L 170.065215 229.029702 
L 170.976483 228.658457 
L 171.887752 228.481316 
L 172.79902 228.505726 
L 173.710289 228.732385 
L 174.621557 229.154657 
L 175.836581 229.996562 
L 177.051606 231.107732 
L 178.570386 232.566066 
L 180.392923 233.807136 
L 183.126728 235.866182 
L 187.075558 236.493615 
L 191.328144 237.400617 
L 196.795754 238.814645 
L 203.478389 240.525035 
L 207.730974 241.299402 
L 211.679804 241.784845 
L 215.628634 242.03634 
L 220.792488 242.11595 
L 230.512684 242.013198 
L 235.069026 241.741389 
L 238.714099 241.300376 
L 241.75166 240.710971 
L 244.789222 239.887912 
L 248.738051 238.551448 
L 251.1681 237.603055 
L 254.813174 235.884699 
L 256.63571 235.261501 
L 258.154491 234.77361 
L 260.280784 233.408481 
L 262.710833 231.387913 
L 264.53337 229.662756 
L 266.355906 227.352075 
L 268.178443 224.714906 
L 270.304736 221.23616 
L 272.734785 216.791132 
L 276.076102 210.125037 
L 280.632444 201.047018 
L 282.758737 197.333249 
L 284.277518 195.063849 
L 285.796298 193.203724 
L 287.011323 192.058044 
L 288.226347 191.25043 
L 289.137616 190.881796 
L 290.048884 190.725498 
L 290.960152 190.787242 
L 291.871421 191.070265 
L 292.782689 191.575235 
L 293.693958 192.300179 
L 294.908982 193.600549 
L 296.124007 195.26512 
L 297.642787 197.817038 
L 299.161568 200.828186 
L 300.984105 204.928446 
L 303.71791 211.71693 
L 308.578008 223.907141 
L 310.7043 228.614071 
L 311.311813 229.757699 
L 312.830593 231.868721 
L 313.134349 232.11765 
L 317.386935 233.009447 
L 319.209472 231.001545 
L 320.728253 229.690177 
L 321.943277 228.954847 
L 322.854545 228.615175 
L 323.765814 228.471281 
L 324.677082 228.529544 
L 325.588351 228.789469 
L 326.499619 229.24317 
L 327.714643 230.122031 
L 329.233424 231.579871 
L 330.144692 232.476248 
L 331.967229 233.694062 
L 335.00479 235.886174 
L 338.95362 236.522085 
L 343.206206 237.436863 
L 348.977572 238.938008 
L 355.356451 240.556409 
L 359.609036 241.322522 
L 363.557866 241.798665 
L 367.506696 242.041946 
L 372.67055 242.116102 
L 373.581818 242.116359 
L 373.581818 242.116359 
" style="fill:none;stroke:#172c4b;stroke-linecap:square;stroke-opacity:0.5;"/>
   </g>
   <g id="line2d_20">
    <path clip-path="url(#pd0bce172cd)" d="M 69.218182 242.106691 
L 69.521938 242.044232 
L 70.12945 242.116359 
L 78.027109 242.012476 
L 81.975939 241.751611 
L 85.317256 241.318998 
L 88.354818 240.702281 
L 91.392379 239.855116 
L 95.644965 238.393213 
L 98.682526 236.758896 
L 101.720087 235.20079 
L 103.238868 234.444998 
L 105.061404 233.580961 
L 106.580185 233.114464 
L 107.79521 232.946412 
L 108.402722 232.936171 
L 109.617746 232.325218 
L 110.225259 231.758018 
L 112.047795 229.606686 
L 113.870332 227.093049 
L 115.692869 224.174513 
L 117.515406 220.813485 
L 119.337942 216.983469 
L 121.160479 212.676751 
L 123.286772 207.078353 
L 125.716821 200.0485 
L 132.703212 179.296917 
L 134.221992 175.610439 
L 135.437017 173.132374 
L 136.652041 171.16638 
L 137.56331 170.075009 
L 138.474578 169.343758 
L 139.08209 169.067999 
L 139.385846 168.99579 
L 139.993359 168.614788 
L 140.600871 168.570631 
L 141.208383 168.895196 
L 141.815895 169.59502 
L 143.334676 172.194288 
L 144.245944 174.006465 
L 145.460969 176.990821 
L 146.675993 180.556077 
L 148.194774 185.687205 
L 150.321067 193.744132 
L 155.788677 215.051417 
L 157.611214 221.189614 
L 159.129995 225.667426 
L 160.648775 229.512335 
L 160.952531 230.121272 
L 165.508873 231.323284 
L 166.116385 231.499022 
L 166.420142 231.410348 
L 168.242678 229.440504 
L 169.761459 227.896374 
L 170.976483 226.976073 
L 171.887752 226.503337 
L 172.79902 226.235522 
L 173.710289 226.183164 
L 174.621557 226.349927 
L 175.532825 226.731831 
L 176.444094 227.316968 
L 177.659118 228.378439 
L 179.177899 230.063016 
L 181.607948 232.874161 
L 184.037997 234.793462 
L 184.949265 235.455509 
L 188.290582 235.970848 
L 191.935656 236.757675 
L 196.188242 237.860162 
L 207.427218 240.920041 
L 210.768536 241.523209 
L 214.109853 241.900403 
L 217.754927 242.082848 
L 223.830049 242.114413 
L 230.208928 241.992949 
L 234.157757 241.70581 
L 237.499075 241.241026 
L 240.536636 240.589632 
L 243.574197 239.710007 
L 247.523027 238.319999 
L 257.243223 233.413497 
L 258.762003 233.028829 
L 260.58454 232.715827 
L 261.495808 232.244335 
L 263.318345 230.176781 
L 265.140882 227.757799 
L 266.963419 224.944299 
L 268.785955 221.696932 
L 270.608492 217.985764 
L 272.431029 213.797591 
L 274.557322 208.326584 
L 276.987371 201.407643 
L 284.88503 178.131444 
L 286.403811 174.626475 
L 287.618835 172.330726 
L 288.530103 170.960618 
L 289.441372 169.927432 
L 290.35264 169.258604 
L 292.175177 168.547476 
L 292.782689 168.779036 
L 293.390201 169.384734 
L 293.997714 170.366935 
L 294.605226 171.43374 
L 295.516494 173.052733 
L 296.731519 175.799221 
L 297.946543 179.156527 
L 299.465324 184.079903 
L 301.287861 190.782424 
L 308.578008 218.726577 
L 310.400544 224.389209 
L 311.919325 228.426442 
L 312.526837 229.86144 
L 312.830593 230.157615 
L 317.386935 231.366921 
L 317.994447 231.543444 
L 319.513228 229.973521 
L 321.032009 228.317917 
L 322.247033 227.284391 
L 323.462058 226.568271 
L 324.373326 226.2654 
L 325.284594 226.176681 
L 326.195863 226.306987 
L 327.107131 226.653648 
L 328.0184 227.206073 
L 329.233424 228.229979 
L 330.752205 229.880596 
L 333.182254 232.763607 
L 335.612303 234.668392 
L 336.523571 235.420861 
L 344.117474 236.865032 
L 348.673816 238.075639 
L 358.394012 240.753236 
L 361.735329 241.405794 
L 365.076647 241.834105 
L 368.72172 242.06096 
L 373.581818 242.116359 
L 373.581818 242.116359 
" style="fill:none;stroke:#172c4b;stroke-linecap:square;stroke-opacity:0.4;"/>
   </g>
   <g id="line2d_21">
    <path clip-path="url(#pd0bce172cd)" d="M 69.218182 242.104789 
L 69.521938 242.028054 
L 70.12945 242.116359 
L 78.330866 242.011108 
L 83.49472 241.770287 
L 86.532281 241.404744 
L 88.96233 240.910161 
L 91.088623 240.27066 
L 93.214916 239.397994 
L 95.341208 238.279622 
L 97.771257 236.744773 
L 98.986282 235.774987 
L 102.631355 232.806336 
L 104.150136 231.863364 
L 105.365161 231.36155 
L 106.276429 231.171635 
L 107.187697 231.155977 
L 111.744039 226.584923 
L 114.7816 223.282866 
L 116.300381 220.338342 
L 117.819162 216.867387 
L 119.337942 212.779171 
L 120.856723 207.987626 
L 122.375504 202.420482 
L 123.894284 196.030444 
L 125.716821 187.266794 
L 127.539358 177.394659 
L 129.969407 162.88662 
L 133.918236 139.023147 
L 135.437017 130.971332 
L 136.652041 125.505579 
L 137.56331 122.143823 
L 138.474578 119.526442 
L 139.08209 118.239689 
L 139.689603 117.34652 
L 140.297115 116.866183 
L 140.904627 116.813888 
L 141.512139 117.200391 
L 142.119652 118.031641 
L 142.727164 119.308515 
L 143.334676 121.02664 
L 144.245944 124.408539 
L 145.157213 128.70542 
L 146.372237 135.716219 
L 147.891018 146.17586 
L 150.017311 162.877265 
L 153.96614 194.499222 
L 155.788677 207.103462 
L 157.307458 215.999155 
L 157.91497 218.5906 
L 159.433751 221.529735 
L 160.952531 223.889659 
L 162.471312 225.768546 
L 163.990093 227.283699 
L 165.812629 228.789716 
L 166.420142 229.246481 
L 167.027654 228.454677 
L 168.546434 226.449891 
L 169.761459 225.190376 
L 171.887752 223.47914 
L 172.79902 223.1026 
L 173.710289 222.995245 
L 174.621557 223.166377 
L 175.532825 223.61514 
L 176.444094 224.329782 
L 177.659118 225.655704 
L 178.874143 227.33252 
L 180.696679 230.273178 
L 183.430484 234.826144 
L 183.734241 234.999945 
L 191.024388 236.059415 
L 194.669461 236.932564 
L 199.225803 238.263377 
L 207.123462 240.602704 
L 210.46478 241.33605 
L 213.502341 241.784362 
L 216.843658 242.04046 
L 221.096244 242.116092 
L 229.905171 242.015226 
L 235.372782 241.756914 
L 238.410343 241.37998 
L 240.840392 240.87149 
L 242.966685 240.216398 
L 245.092978 239.326179 
L 247.219271 238.190842 
L 249.64932 236.642414 
L 251.471856 235.129461 
L 254.205661 232.915469 
L 255.724442 231.943565 
L 256.939467 231.409596 
L 258.154491 231.157218 
L 259.065759 231.008603 
L 263.622101 226.427912 
L 266.355906 223.517289 
L 267.570931 221.272848 
L 269.089711 217.969375 
L 270.608492 214.075747 
L 272.127273 209.503614 
L 273.646053 204.17549 
L 275.164834 198.03529 
L 276.683615 191.060924 
L 278.506151 181.631584 
L 280.632444 169.396005 
L 286.707567 133.264225 
L 287.922591 127.434561 
L 289.137616 122.655017 
L 290.048884 119.907027 
L 290.960152 117.978682 
L 291.567665 117.187066 
L 292.175177 116.812481 
L 292.782689 116.869059 
L 293.390201 117.366386 
L 293.997714 118.309163 
L 294.605226 119.696966 
L 295.516494 122.599178 
L 296.427763 126.447042 
L 297.339031 131.172889 
L 298.554056 138.678048 
L 300.072836 149.600018 
L 302.502885 169.098548 
L 305.540446 193.367326 
L 307.362983 206.129054 
L 308.881764 215.181021 
L 309.489276 218.262071 
L 311.008057 221.263242 
L 312.526837 223.677142 
L 314.045618 225.59903 
L 315.564398 227.14509 
L 317.386935 228.672913 
L 317.994447 229.133673 
L 318.298204 229.127205 
L 319.816984 227.007303 
L 321.032009 225.620903 
L 322.854545 223.98574 
L 323.765814 223.398361 
L 324.677082 223.065646 
L 325.588351 223.00432 
L 326.499619 223.222072 
L 327.410887 223.716262 
L 328.322156 224.473305 
L 329.53718 225.848065 
L 331.055961 228.031029 
L 333.48601 232.08541 
L 335.00479 234.611054 
L 335.308547 234.913024 
L 335.916059 235.052241 
L 339.257376 235.436965 
L 342.90245 236.091446 
L 346.547523 236.973306 
L 351.407621 238.404852 
L 358.697768 240.564077 
L 362.039085 241.307973 
L 365.076647 241.76706 
L 368.417964 242.033511 
L 372.67055 242.115894 
L 373.581818 242.116359 
L 373.581818 242.116359 
" style="fill:none;stroke:#172c4b;stroke-linecap:square;stroke-opacity:0.3;"/>
   </g>
   <g id="line2d_22">
    <path clip-path="url(#pd0bce172cd)" d="M 69.218182 242.104711 
L 69.521938 242.037503 
L 70.12945 242.116359 
L 77.115841 242.009491 
L 80.760915 241.765981 
L 83.49472 241.369066 
L 86.228525 240.742268 
L 88.96233 239.871383 
L 92.303647 238.549007 
L 95.341208 236.991694 
L 99.290038 234.791574 
L 100.201306 234.243354 
L 103.542624 231.351955 
L 105.061404 230.295405 
L 106.276429 229.664489 
L 107.491453 229.270824 
L 108.402722 229.105502 
L 110.529015 227.759877 
L 112.047795 226.897347 
L 113.870332 224.689263 
L 115.389113 222.533842 
L 116.907893 219.974294 
L 118.122918 217.551612 
L 119.034186 215.047243 
L 120.249211 211.152625 
L 121.464235 206.618121 
L 122.983016 199.962709 
L 124.501796 192.131594 
L 126.020577 183.086445 
L 127.843114 170.680711 
L 129.969407 154.392707 
L 136.044529 106.279803 
L 137.259554 98.788565 
L 138.170822 94.184253 
L 139.08209 90.615495 
L 139.689603 88.877526 
L 140.297115 87.692138 
L 140.904627 87.08713 
L 141.208383 87.009245 
L 141.512139 87.083974 
L 141.815895 87.312905 
L 142.423408 88.237351 
L 143.03092 89.785619 
L 143.638432 91.95269 
L 144.549701 96.332396 
L 145.460969 101.993924 
L 146.675993 111.327673 
L 148.194774 125.321867 
L 150.321067 147.603895 
L 153.662384 182.973177 
L 155.484921 199.683607 
L 157.003702 211.327381 
L 157.91497 216.835293 
L 159.129995 222.092218 
L 160.041263 225.267569 
L 160.345019 226.125578 
L 164.293849 227.447102 
L 165.812629 227.950289 
L 166.116385 227.85791 
L 167.938922 225.712525 
L 169.153947 224.537837 
L 170.368971 223.655547 
L 171.28024 223.223432 
L 172.191508 223.010987 
L 173.102776 223.031972 
L 174.014045 223.292714 
L 174.925313 223.791302 
L 175.836581 224.442124 
L 176.74785 224.728851 
L 177.659118 225.231498 
L 178.874143 226.207164 
L 182.822972 229.887352 
L 184.341753 230.96301 
L 186.16429 232.534577 
L 188.898095 235.068146 
L 191.935656 235.530358 
L 194.973217 236.231625 
L 198.314535 237.247552 
L 204.997169 239.614487 
L 208.338487 240.651635 
L 211.376048 241.35602 
L 214.413609 241.820955 
L 217.45117 242.051738 
L 221.703756 242.116358 
L 228.690147 242.015297 
L 232.33522 241.782223 
L 235.372782 241.340627 
L 238.106587 240.700154 
L 240.840392 239.816522 
L 244.181709 238.476463 
L 247.219271 236.903392 
L 251.1681 234.718104 
L 251.775612 234.38047 
L 255.420686 231.235425 
L 256.939467 230.204911 
L 258.154491 229.601571 
L 259.369516 229.239879 
L 260.280784 229.000067 
L 262.407077 227.674178 
L 263.925857 226.725447 
L 265.748394 224.488599 
L 267.267175 222.298052 
L 268.785955 219.691367 
L 270.00098 217.185149 
L 271.216004 213.657725 
L 272.431029 209.530488 
L 273.646053 204.740539 
L 275.164834 197.739675 
L 276.683615 189.545648 
L 278.202395 180.138652 
L 280.024932 167.336808 
L 282.151225 150.713425 
L 287.315079 109.418444 
L 288.83386 99.646371 
L 289.745128 94.883567 
L 290.656396 91.13253 
L 291.263909 89.261428 
L 291.871421 87.935058 
L 292.478933 87.182683 
L 292.782689 87.029228 
L 293.086445 87.027422 
L 293.390201 87.179083 
L 293.997714 87.947739 
L 294.605226 89.340204 
L 295.212738 91.353492 
L 296.124007 95.510801 
L 297.035275 100.965864 
L 298.250299 110.059849 
L 299.465324 120.897529 
L 301.287861 139.427722 
L 305.844203 187.396734 
L 307.362983 200.947831 
L 308.881764 212.366286 
L 309.489276 216.091986 
L 310.7043 221.50071 
L 311.919325 225.736816 
L 312.223081 226.171953 
L 316.171911 227.502343 
L 317.386935 227.954542 
L 317.690691 227.926616 
L 318.298204 227.290842 
L 320.12074 225.242227 
L 321.335765 224.169088 
L 322.550789 223.413153 
L 323.462058 223.088728 
L 324.373326 222.99172 
L 325.284594 223.132293 
L 326.195863 223.512733 
L 327.107131 224.126829 
L 327.410887 224.381125 
L 328.929668 224.954073 
L 329.840936 225.558764 
L 331.055961 226.652542 
L 333.48601 229.041968 
L 337.738596 232.395174 
L 340.776157 235.085656 
L 343.813718 235.559778 
L 346.851279 236.272701 
L 350.192597 237.29853 
L 361.431573 240.996055 
L 364.469134 241.596022 
L 367.506696 241.951149 
L 370.848013 242.100645 
L 373.581818 242.116359 
L 373.581818 242.116359 
" style="fill:none;stroke:#172c4b;stroke-linecap:square;stroke-opacity:0.2;"/>
   </g>
   <g id="line2d_23">
    <path clip-path="url(#pd0bce172cd)" d="M 69.218182 242.067995 
L 69.521938 242.006109 
L 70.12945 242.116359 
L 77.419597 242.009218 
L 81.368427 241.766195 
L 84.405988 241.340231 
L 86.836037 240.789355 
L 89.266086 239.998185 
L 91.392379 239.081009 
L 93.822428 237.774333 
L 95.341208 236.764516 
L 97.771257 234.560571 
L 100.505063 231.805465 
L 102.631355 229.718373 
L 104.150136 228.535234 
L 106.276429 227.315472 
L 106.883941 227.080606 
L 107.187697 226.781804 
L 109.010234 223.650638 
L 111.136527 219.525006 
L 113.26282 214.919348 
L 114.7816 211.274105 
L 117.211649 204.422146 
L 118.426674 200.756568 
L 119.945455 193.278087 
L 121.464235 184.699459 
L 122.983016 174.977002 
L 124.805553 161.805587 
L 126.931845 144.528955 
L 129.665651 120.068083 
L 134.221992 78.962822 
L 135.740773 67.134735 
L 136.955797 59.033165 
L 138.170822 52.470474 
L 139.08209 48.72588 
L 139.689603 46.847619 
L 140.297115 45.494227 
L 140.904627 44.687223 
L 141.208383 44.494124 
L 141.512139 44.443636 
L 141.815895 44.537124 
L 142.119652 44.775628 
L 142.727164 45.690175 
L 143.334676 47.188832 
L 143.942188 49.267584 
L 144.853457 53.450742 
L 145.764725 58.860012 
L 146.97975 67.832271 
L 148.194774 78.569085 
L 149.713555 93.966222 
L 152.143604 121.403626 
L 156.092433 166.159352 
L 157.91497 184.283732 
L 158.218726 186.651962 
L 162.167556 201.318428 
L 164.293849 208.921224 
L 167.027654 216.835192 
L 168.850191 221.634254 
L 169.153947 221.918718 
L 169.457703 221.966735 
L 170.672727 220.491109 
L 171.583996 219.723717 
L 172.495264 219.289986 
L 173.710289 218.734266 
L 174.621557 218.656568 
L 175.532825 218.915735 
L 176.444094 219.507687 
L 177.355362 220.414952 
L 178.26663 221.607046 
L 181.304192 226.26523 
L 184.341753 231.836682 
L 185.556777 233.982128 
L 186.16429 234.284888 
L 187.986826 234.81698 
L 190.720631 235.092652 
L 194.061949 235.694495 
L 197.09951 236.418994 
L 200.440827 237.442516 
L 206.51595 239.603742 
L 210.161023 240.777108 
L 212.894829 241.44304 
L 215.628634 241.870555 
L 218.362439 242.070549 
L 222.615024 242.116203 
L 229.297659 242.003838 
L 233.246489 241.750457 
L 236.28405 241.311933 
L 238.714099 240.747416 
L 241.144148 239.93983 
L 243.270441 239.007216 
L 245.70049 237.684328 
L 246.915514 236.89213 
L 249.345563 234.70472 
L 252.079369 231.964266 
L 254.509418 229.58499 
L 256.028198 228.438224 
L 258.154491 227.249112 
L 258.762003 227.025605 
L 260.58454 223.926021 
L 262.710833 219.836111 
L 264.837126 215.263209 
L 266.659662 210.866982 
L 269.089711 203.972221 
L 270.304736 200.056289 
L 271.823517 192.470735 
L 273.342297 183.779068 
L 275.164834 171.835936 
L 276.987371 158.266656 
L 279.113664 140.596139 
L 282.151225 113.034687 
L 285.796298 80.228263 
L 287.618835 66.048076 
L 288.83386 58.122679 
L 290.048884 51.7725 
L 290.960152 48.208442 
L 291.567665 46.459151 
L 292.175177 45.240507 
L 292.782689 44.572945 
L 293.086445 44.450961 
L 293.390201 44.472311 
L 293.693958 44.638197 
L 294.30147 45.406744 
L 294.908982 46.759531 
L 295.516494 48.693944 
L 296.427763 52.666544 
L 297.339031 57.876527 
L 298.554056 66.608132 
L 299.76908 77.141195 
L 301.287861 92.346102 
L 303.414154 116.113572 
L 307.970495 167.755402 
L 309.793032 185.683926 
L 310.400544 188.301945 
L 316.475667 210.288019 
L 319.209472 218.075873 
L 320.728253 221.85981 
L 321.032009 221.980472 
L 321.335765 221.757142 
L 322.550789 220.341534 
L 323.462058 219.627379 
L 324.980838 218.897192 
L 325.892107 218.653566 
L 326.499619 218.676315 
L 327.410887 218.991589 
L 328.322156 219.637668 
L 329.233424 220.594858 
L 330.448449 222.297143 
L 333.48601 227.071834 
L 337.434839 234.144982 
L 339.864888 234.825862 
L 342.598694 235.115181 
L 346.243767 235.789067 
L 349.281328 236.545863 
L 352.926402 237.700681 
L 362.950354 241.062541 
L 365.684159 241.638436 
L 368.417964 241.972656 
L 371.455525 242.105888 
L 373.581818 242.116359 
L 373.581818 242.116359 
" style="fill:none;stroke:#172c4b;stroke-linecap:square;stroke-opacity:0.1;"/>
   </g>
   <g id="line2d_24">
    <path clip-path="url(#pd0bce172cd)" d="M 69.218182 242.116359 
L 114.477844 242.005811 
L 154.573653 241.906215 
L 258.762003 242.043347 
L 309.18552 241.914002 
L 373.581818 242.116359 
L 373.581818 242.116359 
" style="fill:none;stroke:#3b65ac;stroke-dasharray:5.55,2.4;stroke-dashoffset:0;stroke-width:1.5;"/>
   </g>
   <g id="patch_3">
    <path d="M 54 252 
L 54 34.56 
" style="fill:none;stroke:#000000;stroke-linecap:square;stroke-linejoin:miter;stroke-width:0.8;"/>
   </g>
   <g id="patch_4">
    <path d="M 388.8 252 
L 388.8 34.56 
" style="fill:none;stroke:#000000;stroke-linecap:square;stroke-linejoin:miter;stroke-width:0.8;"/>
   </g>
   <g id="patch_5">
    <path d="M 54 252 
L 388.8 252 
" style="fill:none;stroke:#000000;stroke-linecap:square;stroke-linejoin:miter;stroke-width:0.8;"/>
   </g>
   <g id="patch_6">
    <path d="M 54 34.56 
L 388.8 34.56 
" style="fill:none;stroke:#000000;stroke-linecap:square;stroke-linejoin:miter;stroke-width:0.8;"/>
   </g>
   <g id="text_17">
    <!-- Power Waveform: Nonlinear Oscillator (upper bound) -->
    <g transform="translate(62.843438 28.56)scale(0.12 -0.12)">
     <defs>
      <path d="M 3.328125 72.90625 
L 13.28125 72.90625 
L 28.609375 11.28125 
L 43.890625 72.90625 
L 54.984375 72.90625 
L 70.3125 11.28125 
L 85.59375 72.90625 
L 95.609375 72.90625 
L 77.296875 0 
L 64.890625 0 
L 49.515625 63.28125 
L 33.984375 0 
L 21.578125 0 
z
" id="DejaVuSans-87"/>
      <path d="M 34.28125 27.484375 
Q 23.390625 27.484375 19.1875 25 
Q 14.984375 22.515625 14.984375 16.5 
Q 14.984375 11.71875 18.140625 8.90625 
Q 21.296875 6.109375 26.703125 6.109375 
Q 34.1875 6.109375 38.703125 11.40625 
Q 43.21875 16.703125 43.21875 25.484375 
L 43.21875 27.484375 
z
M 52.203125 31.203125 
L 52.203125 0 
L 43.21875 0 
L 43.21875 8.296875 
Q 40.140625 3.328125 35.546875 0.953125 
Q 30.953125 -1.421875 24.3125 -1.421875 
Q 15.921875 -1.421875 10.953125 3.296875 
Q 6 8.015625 6 15.921875 
Q 6 25.140625 12.171875 29.828125 
Q 18.359375 34.515625 30.609375 34.515625 
L 43.21875 34.515625 
L 43.21875 35.40625 
Q 43.21875 41.609375 39.140625 45 
Q 35.0625 48.390625 27.6875 48.390625 
Q 23 48.390625 18.546875 47.265625 
Q 14.109375 46.140625 10.015625 43.890625 
L 10.015625 52.203125 
Q 14.9375 54.109375 19.578125 55.046875 
Q 24.21875 56 28.609375 56 
Q 40.484375 56 46.34375 49.84375 
Q 52.203125 43.703125 52.203125 31.203125 
z
" id="DejaVuSans-97"/>
      <path d="M 2.984375 54.6875 
L 12.5 54.6875 
L 29.59375 8.796875 
L 46.6875 54.6875 
L 56.203125 54.6875 
L 35.6875 0 
L 23.484375 0 
z
" id="DejaVuSans-118"/>
      <path d="M 37.109375 75.984375 
L 37.109375 68.5 
L 28.515625 68.5 
Q 23.6875 68.5 21.796875 66.546875 
Q 19.921875 64.59375 19.921875 59.515625 
L 19.921875 54.6875 
L 34.71875 54.6875 
L 34.71875 47.703125 
L 19.921875 47.703125 
L 19.921875 0 
L 10.890625 0 
L 10.890625 47.703125 
L 2.296875 47.703125 
L 2.296875 54.6875 
L 10.890625 54.6875 
L 10.890625 58.5 
Q 10.890625 67.625 15.140625 71.796875 
Q 19.390625 75.984375 28.609375 75.984375 
z
" id="DejaVuSans-102"/>
      <path d="M 11.71875 12.40625 
L 22.015625 12.40625 
L 22.015625 0 
L 11.71875 0 
z
M 11.71875 51.703125 
L 22.015625 51.703125 
L 22.015625 39.3125 
L 11.71875 39.3125 
z
" id="DejaVuSans-58"/>
      <path d="M 9.8125 72.90625 
L 23.09375 72.90625 
L 55.421875 11.921875 
L 55.421875 72.90625 
L 64.984375 72.90625 
L 64.984375 0 
L 51.703125 0 
L 19.390625 60.984375 
L 19.390625 0 
L 9.8125 0 
z
" id="DejaVuSans-78"/>
      <path d="M 54.890625 33.015625 
L 54.890625 0 
L 45.90625 0 
L 45.90625 32.71875 
Q 45.90625 40.484375 42.875 44.328125 
Q 39.84375 48.1875 33.796875 48.1875 
Q 26.515625 48.1875 22.3125 43.546875 
Q 18.109375 38.921875 18.109375 30.90625 
L 18.109375 0 
L 9.078125 0 
L 9.078125 54.6875 
L 18.109375 54.6875 
L 18.109375 46.1875 
Q 21.34375 51.125 25.703125 53.5625 
Q 30.078125 56 35.796875 56 
Q 45.21875 56 50.046875 50.171875 
Q 54.890625 44.34375 54.890625 33.015625 
z
" id="DejaVuSans-110"/>
      <path d="M 9.421875 75.984375 
L 18.40625 75.984375 
L 18.40625 0 
L 9.421875 0 
z
" id="DejaVuSans-108"/>
      <path d="M 39.40625 66.21875 
Q 28.65625 66.21875 22.328125 58.203125 
Q 16.015625 50.203125 16.015625 36.375 
Q 16.015625 22.609375 22.328125 14.59375 
Q 28.65625 6.59375 39.40625 6.59375 
Q 50.140625 6.59375 56.421875 14.59375 
Q 62.703125 22.609375 62.703125 36.375 
Q 62.703125 50.203125 56.421875 58.203125 
Q 50.140625 66.21875 39.40625 66.21875 
z
M 39.40625 74.21875 
Q 54.734375 74.21875 63.90625 63.9375 
Q 73.09375 53.65625 73.09375 36.375 
Q 73.09375 19.140625 63.90625 8.859375 
Q 54.734375 -1.421875 39.40625 -1.421875 
Q 24.03125 -1.421875 14.8125 8.828125 
Q 5.609375 19.09375 5.609375 36.375 
Q 5.609375 53.65625 14.8125 63.9375 
Q 24.03125 74.21875 39.40625 74.21875 
z
" id="DejaVuSans-79"/>
      <path d="M 44.28125 53.078125 
L 44.28125 44.578125 
Q 40.484375 46.53125 36.375 47.5 
Q 32.28125 48.484375 27.875 48.484375 
Q 21.1875 48.484375 17.84375 46.4375 
Q 14.5 44.390625 14.5 40.28125 
Q 14.5 37.15625 16.890625 35.375 
Q 19.28125 33.59375 26.515625 31.984375 
L 29.59375 31.296875 
Q 39.15625 29.25 43.1875 25.515625 
Q 47.21875 21.78125 47.21875 15.09375 
Q 47.21875 7.46875 41.1875 3.015625 
Q 35.15625 -1.421875 24.609375 -1.421875 
Q 20.21875 -1.421875 15.453125 -0.5625 
Q 10.6875 0.296875 5.421875 2 
L 5.421875 11.28125 
Q 10.40625 8.6875 15.234375 7.390625 
Q 20.0625 6.109375 24.8125 6.109375 
Q 31.15625 6.109375 34.5625 8.28125 
Q 37.984375 10.453125 37.984375 14.40625 
Q 37.984375 18.0625 35.515625 20.015625 
Q 33.0625 21.96875 24.703125 23.78125 
L 21.578125 24.515625 
Q 13.234375 26.265625 9.515625 29.90625 
Q 5.8125 33.546875 5.8125 39.890625 
Q 5.8125 47.609375 11.28125 51.796875 
Q 16.75 56 26.8125 56 
Q 31.78125 56 36.171875 55.265625 
Q 40.578125 54.546875 44.28125 53.078125 
z
" id="DejaVuSans-115"/>
      <path d="M 48.78125 52.59375 
L 48.78125 44.1875 
Q 44.96875 46.296875 41.140625 47.34375 
Q 37.3125 48.390625 33.40625 48.390625 
Q 24.65625 48.390625 19.8125 42.84375 
Q 14.984375 37.3125 14.984375 27.296875 
Q 14.984375 17.28125 19.8125 11.734375 
Q 24.65625 6.203125 33.40625 6.203125 
Q 37.3125 6.203125 41.140625 7.25 
Q 44.96875 8.296875 48.78125 10.40625 
L 48.78125 2.09375 
Q 45.015625 0.34375 40.984375 -0.53125 
Q 36.96875 -1.421875 32.421875 -1.421875 
Q 20.0625 -1.421875 12.78125 6.34375 
Q 5.515625 14.109375 5.515625 27.296875 
Q 5.515625 40.671875 12.859375 48.328125 
Q 20.21875 56 33.015625 56 
Q 37.15625 56 41.109375 55.140625 
Q 45.0625 54.296875 48.78125 52.59375 
z
" id="DejaVuSans-99"/>
      <path d="M 18.3125 70.21875 
L 18.3125 54.6875 
L 36.8125 54.6875 
L 36.8125 47.703125 
L 18.3125 47.703125 
L 18.3125 18.015625 
Q 18.3125 11.328125 20.140625 9.421875 
Q 21.96875 7.515625 27.59375 7.515625 
L 36.8125 7.515625 
L 36.8125 0 
L 27.59375 0 
Q 17.1875 0 13.234375 3.875 
Q 9.28125 7.765625 9.28125 18.015625 
L 9.28125 47.703125 
L 2.6875 47.703125 
L 2.6875 54.6875 
L 9.28125 54.6875 
L 9.28125 70.21875 
z
" id="DejaVuSans-116"/>
      <path d="M 8.5 21.578125 
L 8.5 54.6875 
L 17.484375 54.6875 
L 17.484375 21.921875 
Q 17.484375 14.15625 20.5 10.265625 
Q 23.53125 6.390625 29.59375 6.390625 
Q 36.859375 6.390625 41.078125 11.03125 
Q 45.3125 15.671875 45.3125 23.6875 
L 45.3125 54.6875 
L 54.296875 54.6875 
L 54.296875 0 
L 45.3125 0 
L 45.3125 8.40625 
Q 42.046875 3.421875 37.71875 1 
Q 33.40625 -1.421875 27.6875 -1.421875 
Q 18.265625 -1.421875 13.375 4.4375 
Q 8.5 10.296875 8.5 21.578125 
z
M 31.109375 56 
z
" id="DejaVuSans-117"/>
      <path d="M 18.109375 8.203125 
L 18.109375 -20.796875 
L 9.078125 -20.796875 
L 9.078125 54.6875 
L 18.109375 54.6875 
L 18.109375 46.390625 
Q 20.953125 51.265625 25.265625 53.625 
Q 29.59375 56 35.59375 56 
Q 45.5625 56 51.78125 48.09375 
Q 58.015625 40.1875 58.015625 27.296875 
Q 58.015625 14.40625 51.78125 6.484375 
Q 45.5625 -1.421875 35.59375 -1.421875 
Q 29.59375 -1.421875 25.265625 0.953125 
Q 20.953125 3.328125 18.109375 8.203125 
z
M 48.6875 27.296875 
Q 48.6875 37.203125 44.609375 42.84375 
Q 40.53125 48.484375 33.40625 48.484375 
Q 26.265625 48.484375 22.1875 42.84375 
Q 18.109375 37.203125 18.109375 27.296875 
Q 18.109375 17.390625 22.1875 11.75 
Q 26.265625 6.109375 33.40625 6.109375 
Q 40.53125 6.109375 44.609375 11.75 
Q 48.6875 17.390625 48.6875 27.296875 
z
" id="DejaVuSans-112"/>
      <path d="M 48.6875 27.296875 
Q 48.6875 37.203125 44.609375 42.84375 
Q 40.53125 48.484375 33.40625 48.484375 
Q 26.265625 48.484375 22.1875 42.84375 
Q 18.109375 37.203125 18.109375 27.296875 
Q 18.109375 17.390625 22.1875 11.75 
Q 26.265625 6.109375 33.40625 6.109375 
Q 40.53125 6.109375 44.609375 11.75 
Q 48.6875 17.390625 48.6875 27.296875 
z
M 18.109375 46.390625 
Q 20.953125 51.265625 25.265625 53.625 
Q 29.59375 56 35.59375 56 
Q 45.5625 56 51.78125 48.09375 
Q 58.015625 40.1875 58.015625 27.296875 
Q 58.015625 14.40625 51.78125 6.484375 
Q 45.5625 -1.421875 35.59375 -1.421875 
Q 29.59375 -1.421875 25.265625 0.953125 
Q 20.953125 3.328125 18.109375 8.203125 
L 18.109375 0 
L 9.078125 0 
L 9.078125 75.984375 
L 18.109375 75.984375 
z
" id="DejaVuSans-98"/>
      <path d="M 45.40625 46.390625 
L 45.40625 75.984375 
L 54.390625 75.984375 
L 54.390625 0 
L 45.40625 0 
L 45.40625 8.203125 
Q 42.578125 3.328125 38.25 0.953125 
Q 33.9375 -1.421875 27.875 -1.421875 
Q 17.96875 -1.421875 11.734375 6.484375 
Q 5.515625 14.40625 5.515625 27.296875 
Q 5.515625 40.1875 11.734375 48.09375 
Q 17.96875 56 27.875 56 
Q 33.9375 56 38.25 53.625 
Q 42.578125 51.265625 45.40625 46.390625 
z
M 14.796875 27.296875 
Q 14.796875 17.390625 18.875 11.75 
Q 22.953125 6.109375 30.078125 6.109375 
Q 37.203125 6.109375 41.296875 11.75 
Q 45.40625 17.390625 45.40625 27.296875 
Q 45.40625 37.203125 41.296875 42.84375 
Q 37.203125 48.484375 30.078125 48.484375 
Q 22.953125 48.484375 18.875 42.84375 
Q 14.796875 37.203125 14.796875 27.296875 
z
" id="DejaVuSans-100"/>
     </defs>
     <use xlink:href="#DejaVuSans-80"/>
     <use x="56.677734" xlink:href="#DejaVuSans-111"/>
     <use x="117.859375" xlink:href="#DejaVuSans-119"/>
     <use x="199.646484" xlink:href="#DejaVuSans-101"/>
     <use x="261.169922" xlink:href="#DejaVuSans-114"/>
     <use x="302.283203" xlink:href="#DejaVuSans-32"/>
     <use x="334.070312" xlink:href="#DejaVuSans-87"/>
     <use x="426.572266" xlink:href="#DejaVuSans-97"/>
     <use x="487.851562" xlink:href="#DejaVuSans-118"/>
     <use x="547.03125" xlink:href="#DejaVuSans-101"/>
     <use x="608.554688" xlink:href="#DejaVuSans-102"/>
     <use x="643.759766" xlink:href="#DejaVuSans-111"/>
     <use x="704.941406" xlink:href="#DejaVuSans-114"/>
     <use x="744.304688" xlink:href="#DejaVuSans-109"/>
     <use x="841.716797" xlink:href="#DejaVuSans-58"/>
     <use x="875.408203" xlink:href="#DejaVuSans-32"/>
     <use x="907.195312" xlink:href="#DejaVuSans-78"/>
     <use x="982" xlink:href="#DejaVuSans-111"/>
     <use x="1043.181641" xlink:href="#DejaVuSans-110"/>
     <use x="1106.560547" xlink:href="#DejaVuSans-108"/>
     <use x="1134.34375" xlink:href="#DejaVuSans-105"/>
     <use x="1162.126953" xlink:href="#DejaVuSans-110"/>
     <use x="1225.505859" xlink:href="#DejaVuSans-101"/>
     <use x="1287.029297" xlink:href="#DejaVuSans-97"/>
     <use x="1348.308594" xlink:href="#DejaVuSans-114"/>
     <use x="1389.421875" xlink:href="#DejaVuSans-32"/>
     <use x="1421.208984" xlink:href="#DejaVuSans-79"/>
     <use x="1499.919922" xlink:href="#DejaVuSans-115"/>
     <use x="1552.019531" xlink:href="#DejaVuSans-99"/>
     <use x="1607" xlink:href="#DejaVuSans-105"/>
     <use x="1634.783203" xlink:href="#DejaVuSans-108"/>
     <use x="1662.566406" xlink:href="#DejaVuSans-108"/>
     <use x="1690.349609" xlink:href="#DejaVuSans-97"/>
     <use x="1751.628906" xlink:href="#DejaVuSans-116"/>
     <use x="1790.837891" xlink:href="#DejaVuSans-111"/>
     <use x="1852.019531" xlink:href="#DejaVuSans-114"/>
     <use x="1893.132812" xlink:href="#DejaVuSans-32"/>
     <use x="1924.919922" xlink:href="#DejaVuSans-40"/>
     <use x="1963.933594" xlink:href="#DejaVuSans-117"/>
     <use x="2027.3125" xlink:href="#DejaVuSans-112"/>
     <use x="2090.789062" xlink:href="#DejaVuSans-112"/>
     <use x="2154.265625" xlink:href="#DejaVuSans-101"/>
     <use x="2215.789062" xlink:href="#DejaVuSans-114"/>
     <use x="2256.902344" xlink:href="#DejaVuSans-32"/>
     <use x="2288.689453" xlink:href="#DejaVuSans-98"/>
     <use x="2352.166016" xlink:href="#DejaVuSans-111"/>
     <use x="2413.347656" xlink:href="#DejaVuSans-117"/>
     <use x="2476.726562" xlink:href="#DejaVuSans-110"/>
     <use x="2540.105469" xlink:href="#DejaVuSans-100"/>
     <use x="2603.582031" xlink:href="#DejaVuSans-41"/>
    </g>
   </g>
  </g>
 </g>
 <defs>
  <clipPath id="pd0bce172cd">
   <rect height="217.44" width="334.8" x="54" y="34.56"/>
  </clipPath>
 </defs>
</svg>
