<?xml version="1.0" encoding="utf-8" standalone="no"?>
<!DOCTYPE svg PUBLIC "-//W3C//DTD SVG 1.1//EN"
  "http://www.w3.org/Graphics/SVG/1.1/DTD/svg11.dtd">
<!-- Created with matplotlib (https://matplotlib.org/) -->
<svg height="288pt" version="1.1" viewBox="0 0 432 288" width="432pt" xmlns="http://www.w3.org/2000/svg" xmlns:xlink="http://www.w3.org/1999/xlink">
 <metadata>
  <rdf:RDF xmlns:cc="http://creativecommons.org/ns#" xmlns:dc="http://purl.org/dc/elements/1.1/" xmlns:rdf="http://www.w3.org/1999/02/22-rdf-syntax-ns#">
   <cc:Work>
    <dc:type rdf:resource="http://purl.org/dc/dcmitype/StillImage"/>
    <dc:date>2024-08-27T12:18:48.601620</dc:date>
    <dc:format>image/svg+xml</dc:format>
    <dc:creator>
     <cc:Agent>
      <dc:title>Matplotlib v3.3.4, https://matplotlib.org/</dc:title>
     </cc:Agent>
    </dc:creator>
   </cc:Work>
  </rdf:RDF>
 </metadata>
 <defs>
  <style type="text/css">*{stroke-linecap:butt;stroke-linejoin:round;}</style>
 </defs>
 <g id="figure_1">
  <g id="patch_1">
   <path d="M 0 288 
L 432 288 
L 432 0 
L 0 0 
z
" style="fill:none;"/>
  </g>
  <g id="axes_1">
   <g id="patch_2">
    <path d="M 54 252 
L 388.8 252 
L 388.8 34.56 
L 54 34.56 
z
" style="fill:#ffffff;"/>
   </g>
   <g id="matplotlib.axis_1">
    <g id="xtick_1">
     <g id="line2d_1">
      <defs>
       <path d="M 0 0 
L 0 3.5 
" id="mc8328822dd" style="stroke:#000000;stroke-width:0.8;"/>
      </defs>
      <g>
       <use style="stroke:#000000;stroke-width:0.8;" x="69.218182" xlink:href="#mc8328822dd" y="252"/>
      </g>
     </g>
     <g id="text_1">
      <!-- 0 -->
      <g transform="translate(65.400682 268.118125)scale(0.12 -0.12)">
       <defs>
        <path d="M 31.78125 66.40625 
Q 24.171875 66.40625 20.328125 58.90625 
Q 16.5 51.421875 16.5 36.375 
Q 16.5 21.390625 20.328125 13.890625 
Q 24.171875 6.390625 31.78125 6.390625 
Q 39.453125 6.390625 43.28125 13.890625 
Q 47.125 21.390625 47.125 36.375 
Q 47.125 51.421875 43.28125 58.90625 
Q 39.453125 66.40625 31.78125 66.40625 
z
M 31.78125 74.21875 
Q 44.046875 74.21875 50.515625 64.515625 
Q 56.984375 54.828125 56.984375 36.375 
Q 56.984375 17.96875 50.515625 8.265625 
Q 44.046875 -1.421875 31.78125 -1.421875 
Q 19.53125 -1.421875 13.0625 8.265625 
Q 6.59375 17.96875 6.59375 36.375 
Q 6.59375 54.828125 13.0625 64.515625 
Q 19.53125 74.21875 31.78125 74.21875 
z
" id="DejaVuSans-48"/>
       </defs>
       <use xlink:href="#DejaVuSans-48"/>
      </g>
     </g>
    </g>
    <g id="xtick_2">
     <g id="line2d_2">
      <g>
       <use style="stroke:#000000;stroke-width:0.8;" x="129.969407" xlink:href="#mc8328822dd" y="252"/>
      </g>
     </g>
     <g id="text_2">
      <!-- (2/5)T -->
      <g transform="translate(111.966594 268.118125)scale(0.12 -0.12)">
       <defs>
        <path d="M 31 75.875 
Q 24.46875 64.65625 21.28125 53.65625 
Q 18.109375 42.671875 18.109375 31.390625 
Q 18.109375 20.125 21.3125 9.0625 
Q 24.515625 -2 31 -13.1875 
L 23.1875 -13.1875 
Q 15.875 -1.703125 12.234375 9.375 
Q 8.59375 20.453125 8.59375 31.390625 
Q 8.59375 42.28125 12.203125 53.3125 
Q 15.828125 64.359375 23.1875 75.875 
z
" id="DejaVuSans-40"/>
        <path d="M 19.1875 8.296875 
L 53.609375 8.296875 
L 53.609375 0 
L 7.328125 0 
L 7.328125 8.296875 
Q 12.9375 14.109375 22.625 23.890625 
Q 32.328125 33.6875 34.8125 36.53125 
Q 39.546875 41.84375 41.421875 45.53125 
Q 43.3125 49.21875 43.3125 52.78125 
Q 43.3125 58.59375 39.234375 62.25 
Q 35.15625 65.921875 28.609375 65.921875 
Q 23.96875 65.921875 18.8125 64.3125 
Q 13.671875 62.703125 7.8125 59.421875 
L 7.8125 69.390625 
Q 13.765625 71.78125 18.9375 73 
Q 24.125 74.21875 28.421875 74.21875 
Q 39.75 74.21875 46.484375 68.546875 
Q 53.21875 62.890625 53.21875 53.421875 
Q 53.21875 48.921875 51.53125 44.890625 
Q 49.859375 40.875 45.40625 35.40625 
Q 44.1875 33.984375 37.640625 27.21875 
Q 31.109375 20.453125 19.1875 8.296875 
z
" id="DejaVuSans-50"/>
        <path d="M 25.390625 72.90625 
L 33.6875 72.90625 
L 8.296875 -9.28125 
L 0 -9.28125 
z
" id="DejaVuSans-47"/>
        <path d="M 10.796875 72.90625 
L 49.515625 72.90625 
L 49.515625 64.59375 
L 19.828125 64.59375 
L 19.828125 46.734375 
Q 21.96875 47.46875 24.109375 47.828125 
Q 26.265625 48.1875 28.421875 48.1875 
Q 40.625 48.1875 47.75 41.5 
Q 54.890625 34.8125 54.890625 23.390625 
Q 54.890625 11.625 47.5625 5.09375 
Q 40.234375 -1.421875 26.90625 -1.421875 
Q 22.3125 -1.421875 17.546875 -0.640625 
Q 12.796875 0.140625 7.71875 1.703125 
L 7.71875 11.625 
Q 12.109375 9.234375 16.796875 8.0625 
Q 21.484375 6.890625 26.703125 6.890625 
Q 35.15625 6.890625 40.078125 11.328125 
Q 45.015625 15.765625 45.015625 23.390625 
Q 45.015625 31 40.078125 35.4375 
Q 35.15625 39.890625 26.703125 39.890625 
Q 22.75 39.890625 18.8125 39.015625 
Q 14.890625 38.140625 10.796875 36.28125 
z
" id="DejaVuSans-53"/>
        <path d="M 8.015625 75.875 
L 15.828125 75.875 
Q 23.140625 64.359375 26.78125 53.3125 
Q 30.421875 42.28125 30.421875 31.390625 
Q 30.421875 20.453125 26.78125 9.375 
Q 23.140625 -1.703125 15.828125 -13.1875 
L 8.015625 -13.1875 
Q 14.5 -2 17.703125 9.0625 
Q 20.90625 20.125 20.90625 31.390625 
Q 20.90625 42.671875 17.703125 53.65625 
Q 14.5 64.65625 8.015625 75.875 
z
" id="DejaVuSans-41"/>
        <path d="M -0.296875 72.90625 
L 61.375 72.90625 
L 61.375 64.59375 
L 35.5 64.59375 
L 35.5 0 
L 25.59375 0 
L 25.59375 64.59375 
L -0.296875 64.59375 
z
" id="DejaVuSans-84"/>
       </defs>
       <use xlink:href="#DejaVuSans-40"/>
       <use x="39.013672" xlink:href="#DejaVuSans-50"/>
       <use x="102.636719" xlink:href="#DejaVuSans-47"/>
       <use x="136.328125" xlink:href="#DejaVuSans-53"/>
       <use x="199.951172" xlink:href="#DejaVuSans-41"/>
       <use x="238.964844" xlink:href="#DejaVuSans-84"/>
      </g>
     </g>
    </g>
    <g id="xtick_3">
     <g id="line2d_3">
      <g>
       <use style="stroke:#000000;stroke-width:0.8;" x="190.720631" xlink:href="#mc8328822dd" y="252"/>
      </g>
     </g>
     <g id="text_3">
      <!-- (4/5) T -->
      <g transform="translate(170.810944 268.118125)scale(0.12 -0.12)">
       <defs>
        <path d="M 37.796875 64.3125 
L 12.890625 25.390625 
L 37.796875 25.390625 
z
M 35.203125 72.90625 
L 47.609375 72.90625 
L 47.609375 25.390625 
L 58.015625 25.390625 
L 58.015625 17.1875 
L 47.609375 17.1875 
L 47.609375 0 
L 37.796875 0 
L 37.796875 17.1875 
L 4.890625 17.1875 
L 4.890625 26.703125 
z
" id="DejaVuSans-52"/>
        <path id="DejaVuSans-32"/>
       </defs>
       <use xlink:href="#DejaVuSans-40"/>
       <use x="39.013672" xlink:href="#DejaVuSans-52"/>
       <use x="102.636719" xlink:href="#DejaVuSans-47"/>
       <use x="136.328125" xlink:href="#DejaVuSans-53"/>
       <use x="199.951172" xlink:href="#DejaVuSans-41"/>
       <use x="238.964844" xlink:href="#DejaVuSans-32"/>
       <use x="270.751953" xlink:href="#DejaVuSans-84"/>
      </g>
     </g>
    </g>
    <g id="xtick_4">
     <g id="line2d_4">
      <g>
       <use style="stroke:#000000;stroke-width:0.8;" x="251.471856" xlink:href="#mc8328822dd" y="252"/>
      </g>
     </g>
     <g id="text_4">
      <!-- (6/5)T -->
      <g transform="translate(233.469044 268.118125)scale(0.12 -0.12)">
       <defs>
        <path d="M 33.015625 40.375 
Q 26.375 40.375 22.484375 35.828125 
Q 18.609375 31.296875 18.609375 23.390625 
Q 18.609375 15.53125 22.484375 10.953125 
Q 26.375 6.390625 33.015625 6.390625 
Q 39.65625 6.390625 43.53125 10.953125 
Q 47.40625 15.53125 47.40625 23.390625 
Q 47.40625 31.296875 43.53125 35.828125 
Q 39.65625 40.375 33.015625 40.375 
z
M 52.59375 71.296875 
L 52.59375 62.3125 
Q 48.875 64.0625 45.09375 64.984375 
Q 41.3125 65.921875 37.59375 65.921875 
Q 27.828125 65.921875 22.671875 59.328125 
Q 17.53125 52.734375 16.796875 39.40625 
Q 19.671875 43.65625 24.015625 45.921875 
Q 28.375 48.1875 33.59375 48.1875 
Q 44.578125 48.1875 50.953125 41.515625 
Q 57.328125 34.859375 57.328125 23.390625 
Q 57.328125 12.15625 50.6875 5.359375 
Q 44.046875 -1.421875 33.015625 -1.421875 
Q 20.359375 -1.421875 13.671875 8.265625 
Q 6.984375 17.96875 6.984375 36.375 
Q 6.984375 53.65625 15.1875 63.9375 
Q 23.390625 74.21875 37.203125 74.21875 
Q 40.921875 74.21875 44.703125 73.484375 
Q 48.484375 72.75 52.59375 71.296875 
z
" id="DejaVuSans-54"/>
       </defs>
       <use xlink:href="#DejaVuSans-40"/>
       <use x="39.013672" xlink:href="#DejaVuSans-54"/>
       <use x="102.636719" xlink:href="#DejaVuSans-47"/>
       <use x="136.328125" xlink:href="#DejaVuSans-53"/>
       <use x="199.951172" xlink:href="#DejaVuSans-41"/>
       <use x="238.964844" xlink:href="#DejaVuSans-84"/>
      </g>
     </g>
    </g>
    <g id="xtick_5">
     <g id="line2d_5">
      <g>
       <use style="stroke:#000000;stroke-width:0.8;" x="312.223081" xlink:href="#mc8328822dd" y="252"/>
      </g>
     </g>
     <g id="text_5">
      <!-- (8/5)T -->
      <g transform="translate(294.220269 268.118125)scale(0.12 -0.12)">
       <defs>
        <path d="M 31.78125 34.625 
Q 24.75 34.625 20.71875 30.859375 
Q 16.703125 27.09375 16.703125 20.515625 
Q 16.703125 13.921875 20.71875 10.15625 
Q 24.75 6.390625 31.78125 6.390625 
Q 38.8125 6.390625 42.859375 10.171875 
Q 46.921875 13.96875 46.921875 20.515625 
Q 46.921875 27.09375 42.890625 30.859375 
Q 38.875 34.625 31.78125 34.625 
z
M 21.921875 38.8125 
Q 15.578125 40.375 12.03125 44.71875 
Q 8.5 49.078125 8.5 55.328125 
Q 8.5 64.0625 14.71875 69.140625 
Q 20.953125 74.21875 31.78125 74.21875 
Q 42.671875 74.21875 48.875 69.140625 
Q 55.078125 64.0625 55.078125 55.328125 
Q 55.078125 49.078125 51.53125 44.71875 
Q 48 40.375 41.703125 38.8125 
Q 48.828125 37.15625 52.796875 32.3125 
Q 56.78125 27.484375 56.78125 20.515625 
Q 56.78125 9.90625 50.3125 4.234375 
Q 43.84375 -1.421875 31.78125 -1.421875 
Q 19.734375 -1.421875 13.25 4.234375 
Q 6.78125 9.90625 6.78125 20.515625 
Q 6.78125 27.484375 10.78125 32.3125 
Q 14.796875 37.15625 21.921875 38.8125 
z
M 18.3125 54.390625 
Q 18.3125 48.734375 21.84375 45.5625 
Q 25.390625 42.390625 31.78125 42.390625 
Q 38.140625 42.390625 41.71875 45.5625 
Q 45.3125 48.734375 45.3125 54.390625 
Q 45.3125 60.0625 41.71875 63.234375 
Q 38.140625 66.40625 31.78125 66.40625 
Q 25.390625 66.40625 21.84375 63.234375 
Q 18.3125 60.0625 18.3125 54.390625 
z
" id="DejaVuSans-56"/>
       </defs>
       <use xlink:href="#DejaVuSans-40"/>
       <use x="39.013672" xlink:href="#DejaVuSans-56"/>
       <use x="102.636719" xlink:href="#DejaVuSans-47"/>
       <use x="136.328125" xlink:href="#DejaVuSans-53"/>
       <use x="199.951172" xlink:href="#DejaVuSans-41"/>
       <use x="238.964844" xlink:href="#DejaVuSans-84"/>
      </g>
     </g>
    </g>
    <g id="xtick_6">
     <g id="line2d_6">
      <g>
       <use style="stroke:#000000;stroke-width:0.8;" x="372.974306" xlink:href="#mc8328822dd" y="252"/>
      </g>
     </g>
     <g id="text_6">
      <!-- 2T -->
      <g transform="translate(365.492118 268.118125)scale(0.12 -0.12)">
       <use xlink:href="#DejaVuSans-50"/>
       <use x="63.623047" xlink:href="#DejaVuSans-84"/>
      </g>
     </g>
    </g>
    <g id="text_7">
     <!-- Time $t$ -->
     <g transform="translate(205.45 282.212188)scale(0.1 -0.1)">
      <defs>
       <path d="M 9.421875 54.6875 
L 18.40625 54.6875 
L 18.40625 0 
L 9.421875 0 
z
M 9.421875 75.984375 
L 18.40625 75.984375 
L 18.40625 64.59375 
L 9.421875 64.59375 
z
" id="DejaVuSans-105"/>
       <path d="M 52 44.1875 
Q 55.375 50.25 60.0625 53.125 
Q 64.75 56 71.09375 56 
Q 79.640625 56 84.28125 50.015625 
Q 88.921875 44.046875 88.921875 33.015625 
L 88.921875 0 
L 79.890625 0 
L 79.890625 32.71875 
Q 79.890625 40.578125 77.09375 44.375 
Q 74.3125 48.1875 68.609375 48.1875 
Q 61.625 48.1875 57.5625 43.546875 
Q 53.515625 38.921875 53.515625 30.90625 
L 53.515625 0 
L 44.484375 0 
L 44.484375 32.71875 
Q 44.484375 40.625 41.703125 44.40625 
Q 38.921875 48.1875 33.109375 48.1875 
Q 26.21875 48.1875 22.15625 43.53125 
Q 18.109375 38.875 18.109375 30.90625 
L 18.109375 0 
L 9.078125 0 
L 9.078125 54.6875 
L 18.109375 54.6875 
L 18.109375 46.1875 
Q 21.1875 51.21875 25.484375 53.609375 
Q 29.78125 56 35.6875 56 
Q 41.65625 56 45.828125 52.96875 
Q 50 49.953125 52 44.1875 
z
" id="DejaVuSans-109"/>
       <path d="M 56.203125 29.59375 
L 56.203125 25.203125 
L 14.890625 25.203125 
Q 15.484375 15.921875 20.484375 11.0625 
Q 25.484375 6.203125 34.421875 6.203125 
Q 39.59375 6.203125 44.453125 7.46875 
Q 49.3125 8.734375 54.109375 11.28125 
L 54.109375 2.78125 
Q 49.265625 0.734375 44.1875 -0.34375 
Q 39.109375 -1.421875 33.890625 -1.421875 
Q 20.796875 -1.421875 13.15625 6.1875 
Q 5.515625 13.8125 5.515625 26.8125 
Q 5.515625 40.234375 12.765625 48.109375 
Q 20.015625 56 32.328125 56 
Q 43.359375 56 49.78125 48.890625 
Q 56.203125 41.796875 56.203125 29.59375 
z
M 47.21875 32.234375 
Q 47.125 39.59375 43.09375 43.984375 
Q 39.0625 48.390625 32.421875 48.390625 
Q 24.90625 48.390625 20.390625 44.140625 
Q 15.875 39.890625 15.1875 32.171875 
z
" id="DejaVuSans-101"/>
       <path d="M 42.28125 54.6875 
L 40.921875 47.703125 
L 23 47.703125 
L 17.1875 18.015625 
Q 16.890625 16.359375 16.75 15.234375 
Q 16.609375 14.109375 16.609375 13.484375 
Q 16.609375 10.359375 18.484375 8.9375 
Q 20.359375 7.515625 24.515625 7.515625 
L 33.59375 7.515625 
L 32.078125 0 
L 23.484375 0 
Q 15.484375 0 11.546875 3.125 
Q 7.625 6.25 7.625 12.59375 
Q 7.625 13.71875 7.765625 15.0625 
Q 7.90625 16.40625 8.203125 18.015625 
L 14.015625 47.703125 
L 6.390625 47.703125 
L 7.8125 54.6875 
L 15.28125 54.6875 
L 18.3125 70.21875 
L 27.296875 70.21875 
L 24.3125 54.6875 
z
" id="DejaVuSans-Oblique-116"/>
      </defs>
      <use transform="translate(0 0.015625)" xlink:href="#DejaVuSans-84"/>
      <use transform="translate(61.083984 0.015625)" xlink:href="#DejaVuSans-105"/>
      <use transform="translate(88.867188 0.015625)" xlink:href="#DejaVuSans-109"/>
      <use transform="translate(186.279297 0.015625)" xlink:href="#DejaVuSans-101"/>
      <use transform="translate(247.802734 0.015625)" xlink:href="#DejaVuSans-32"/>
      <use transform="translate(279.589844 0.015625)" xlink:href="#DejaVuSans-Oblique-116"/>
     </g>
    </g>
   </g>
   <g id="matplotlib.axis_2">
    <g id="ytick_1">
     <g id="line2d_7">
      <defs>
       <path d="M 0 0 
L -3.5 0 
" id="m45ec1830db" style="stroke:#000000;stroke-width:0.8;"/>
      </defs>
      <g>
       <use style="stroke:#000000;stroke-width:0.8;" x="54" xlink:href="#m45ec1830db" y="235.289939"/>
      </g>
     </g>
     <g id="text_8">
      <!-- 0.0 -->
      <g transform="translate(27.91625 239.849001)scale(0.12 -0.12)">
       <defs>
        <path d="M 10.6875 12.40625 
L 21 12.40625 
L 21 0 
L 10.6875 0 
z
" id="DejaVuSans-46"/>
       </defs>
       <use xlink:href="#DejaVuSans-48"/>
       <use x="63.623047" xlink:href="#DejaVuSans-46"/>
       <use x="95.410156" xlink:href="#DejaVuSans-48"/>
      </g>
     </g>
    </g>
    <g id="ytick_2">
     <g id="line2d_8">
      <g>
       <use style="stroke:#000000;stroke-width:0.8;" x="54" xlink:href="#m45ec1830db" y="189.20468"/>
      </g>
     </g>
     <g id="text_9">
      <!-- 0.1 -->
      <g transform="translate(27.91625 193.763742)scale(0.12 -0.12)">
       <defs>
        <path d="M 12.40625 8.296875 
L 28.515625 8.296875 
L 28.515625 63.921875 
L 10.984375 60.40625 
L 10.984375 69.390625 
L 28.421875 72.90625 
L 38.28125 72.90625 
L 38.28125 8.296875 
L 54.390625 8.296875 
L 54.390625 0 
L 12.40625 0 
z
" id="DejaVuSans-49"/>
       </defs>
       <use xlink:href="#DejaVuSans-48"/>
       <use x="63.623047" xlink:href="#DejaVuSans-46"/>
       <use x="95.410156" xlink:href="#DejaVuSans-49"/>
      </g>
     </g>
    </g>
    <g id="ytick_3">
     <g id="line2d_9">
      <g>
       <use style="stroke:#000000;stroke-width:0.8;" x="54" xlink:href="#m45ec1830db" y="143.119421"/>
      </g>
     </g>
     <g id="text_10">
      <!-- 0.2 -->
      <g transform="translate(27.91625 147.678483)scale(0.12 -0.12)">
       <use xlink:href="#DejaVuSans-48"/>
       <use x="63.623047" xlink:href="#DejaVuSans-46"/>
       <use x="95.410156" xlink:href="#DejaVuSans-50"/>
      </g>
     </g>
    </g>
    <g id="ytick_4">
     <g id="line2d_10">
      <g>
       <use style="stroke:#000000;stroke-width:0.8;" x="54" xlink:href="#m45ec1830db" y="97.034162"/>
      </g>
     </g>
     <g id="text_11">
      <!-- 0.3 -->
      <g transform="translate(27.91625 101.593224)scale(0.12 -0.12)">
       <defs>
        <path d="M 40.578125 39.3125 
Q 47.65625 37.796875 51.625 33 
Q 55.609375 28.21875 55.609375 21.1875 
Q 55.609375 10.40625 48.1875 4.484375 
Q 40.765625 -1.421875 27.09375 -1.421875 
Q 22.515625 -1.421875 17.65625 -0.515625 
Q 12.796875 0.390625 7.625 2.203125 
L 7.625 11.71875 
Q 11.71875 9.328125 16.59375 8.109375 
Q 21.484375 6.890625 26.8125 6.890625 
Q 36.078125 6.890625 40.9375 10.546875 
Q 45.796875 14.203125 45.796875 21.1875 
Q 45.796875 27.640625 41.28125 31.265625 
Q 36.765625 34.90625 28.71875 34.90625 
L 20.21875 34.90625 
L 20.21875 43.015625 
L 29.109375 43.015625 
Q 36.375 43.015625 40.234375 45.921875 
Q 44.09375 48.828125 44.09375 54.296875 
Q 44.09375 59.90625 40.109375 62.90625 
Q 36.140625 65.921875 28.71875 65.921875 
Q 24.65625 65.921875 20.015625 65.03125 
Q 15.375 64.15625 9.8125 62.3125 
L 9.8125 71.09375 
Q 15.4375 72.65625 20.34375 73.4375 
Q 25.25 74.21875 29.59375 74.21875 
Q 40.828125 74.21875 47.359375 69.109375 
Q 53.90625 64.015625 53.90625 55.328125 
Q 53.90625 49.265625 50.4375 45.09375 
Q 46.96875 40.921875 40.578125 39.3125 
z
" id="DejaVuSans-51"/>
       </defs>
       <use xlink:href="#DejaVuSans-48"/>
       <use x="63.623047" xlink:href="#DejaVuSans-46"/>
       <use x="95.410156" xlink:href="#DejaVuSans-51"/>
      </g>
     </g>
    </g>
    <g id="ytick_5">
     <g id="line2d_11">
      <g>
       <use style="stroke:#000000;stroke-width:0.8;" x="54" xlink:href="#m45ec1830db" y="50.948903"/>
      </g>
     </g>
     <g id="text_12">
      <!-- 0.4 -->
      <g transform="translate(27.91625 55.507965)scale(0.12 -0.12)">
       <use xlink:href="#DejaVuSans-48"/>
       <use x="63.623047" xlink:href="#DejaVuSans-46"/>
       <use x="95.410156" xlink:href="#DejaVuSans-52"/>
      </g>
     </g>
    </g>
    <g id="text_13">
     <!-- Power $p$ -->
     <g transform="translate(21.81625 163.38)rotate(-90)scale(0.1 -0.1)">
      <defs>
       <path d="M 19.671875 64.796875 
L 19.671875 37.40625 
L 32.078125 37.40625 
Q 38.96875 37.40625 42.71875 40.96875 
Q 46.484375 44.53125 46.484375 51.125 
Q 46.484375 57.671875 42.71875 61.234375 
Q 38.96875 64.796875 32.078125 64.796875 
z
M 9.8125 72.90625 
L 32.078125 72.90625 
Q 44.34375 72.90625 50.609375 67.359375 
Q 56.890625 61.8125 56.890625 51.125 
Q 56.890625 40.328125 50.609375 34.8125 
Q 44.34375 29.296875 32.078125 29.296875 
L 19.671875 29.296875 
L 19.671875 0 
L 9.8125 0 
z
" id="DejaVuSans-80"/>
       <path d="M 30.609375 48.390625 
Q 23.390625 48.390625 19.1875 42.75 
Q 14.984375 37.109375 14.984375 27.296875 
Q 14.984375 17.484375 19.15625 11.84375 
Q 23.34375 6.203125 30.609375 6.203125 
Q 37.796875 6.203125 41.984375 11.859375 
Q 46.1875 17.53125 46.1875 27.296875 
Q 46.1875 37.015625 41.984375 42.703125 
Q 37.796875 48.390625 30.609375 48.390625 
z
M 30.609375 56 
Q 42.328125 56 49.015625 48.375 
Q 55.71875 40.765625 55.71875 27.296875 
Q 55.71875 13.875 49.015625 6.21875 
Q 42.328125 -1.421875 30.609375 -1.421875 
Q 18.84375 -1.421875 12.171875 6.21875 
Q 5.515625 13.875 5.515625 27.296875 
Q 5.515625 40.765625 12.171875 48.375 
Q 18.84375 56 30.609375 56 
z
" id="DejaVuSans-111"/>
       <path d="M 4.203125 54.6875 
L 13.1875 54.6875 
L 24.421875 12.015625 
L 35.59375 54.6875 
L 46.1875 54.6875 
L 57.421875 12.015625 
L 68.609375 54.6875 
L 77.59375 54.6875 
L 63.28125 0 
L 52.6875 0 
L 40.921875 44.828125 
L 29.109375 0 
L 18.5 0 
z
" id="DejaVuSans-119"/>
       <path d="M 41.109375 46.296875 
Q 39.59375 47.171875 37.8125 47.578125 
Q 36.03125 48 33.890625 48 
Q 26.265625 48 22.1875 43.046875 
Q 18.109375 38.09375 18.109375 28.8125 
L 18.109375 0 
L 9.078125 0 
L 9.078125 54.6875 
L 18.109375 54.6875 
L 18.109375 46.1875 
Q 20.953125 51.171875 25.484375 53.578125 
Q 30.03125 56 36.53125 56 
Q 37.453125 56 38.578125 55.875 
Q 39.703125 55.765625 41.0625 55.515625 
z
" id="DejaVuSans-114"/>
       <path d="M 49.609375 33.6875 
Q 49.609375 40.875 46.484375 44.671875 
Q 43.359375 48.484375 37.5 48.484375 
Q 33.5 48.484375 29.859375 46.4375 
Q 26.21875 44.390625 23.390625 40.484375 
Q 20.609375 36.625 18.9375 31.15625 
Q 17.28125 25.6875 17.28125 20.3125 
Q 17.28125 13.484375 20.40625 9.796875 
Q 23.53125 6.109375 29.296875 6.109375 
Q 33.546875 6.109375 37.1875 8.109375 
Q 40.828125 10.109375 43.40625 13.921875 
Q 46.1875 17.921875 47.890625 23.34375 
Q 49.609375 28.765625 49.609375 33.6875 
z
M 21.78125 46.390625 
Q 25.390625 51.125 30.296875 53.5625 
Q 35.203125 56 41.21875 56 
Q 49.609375 56 54.25 50.5 
Q 58.890625 45.015625 58.890625 35.109375 
Q 58.890625 27 56 19.65625 
Q 53.125 12.3125 47.703125 6.5 
Q 44.09375 2.640625 39.546875 0.609375 
Q 35.015625 -1.421875 29.984375 -1.421875 
Q 24.171875 -1.421875 20.21875 1 
Q 16.265625 3.421875 14.3125 8.203125 
L 8.6875 -20.796875 
L -0.296875 -20.796875 
L 14.40625 54.6875 
L 23.390625 54.6875 
z
" id="DejaVuSans-Oblique-112"/>
      </defs>
      <use transform="translate(0 0.09375)" xlink:href="#DejaVuSans-80"/>
      <use transform="translate(60.302734 0.09375)" xlink:href="#DejaVuSans-111"/>
      <use transform="translate(121.484375 0.09375)" xlink:href="#DejaVuSans-119"/>
      <use transform="translate(203.271484 0.09375)" xlink:href="#DejaVuSans-101"/>
      <use transform="translate(264.794922 0.09375)" xlink:href="#DejaVuSans-114"/>
      <use transform="translate(305.908203 0.09375)" xlink:href="#DejaVuSans-32"/>
      <use transform="translate(337.695312 0.09375)" xlink:href="#DejaVuSans-Oblique-112"/>
     </g>
    </g>
   </g>
   <g id="line2d_12">
    <path clip-path="url(#p8b21dbec6f)" d="M 69.218182 235.888625 
L 69.521938 235.398038 
L 70.433206 235.289918 
L 76.508329 235.18746 
L 85.0135 234.946155 
L 89.873598 235.152107 
L 94.733696 235.278417 
L 103.238868 234.759661 
L 109.010234 234.755426 
L 110.225259 234.436914 
L 111.136527 233.99873 
L 112.047795 233.331865 
L 112.959064 232.379921 
L 113.870332 231.084187 
L 114.7816 229.385517 
L 115.692869 227.226427 
L 116.604137 224.553346 
L 117.515406 221.318928 
L 118.73043 216.067599 
L 119.945455 209.68921 
L 121.160479 202.164624 
L 122.67926 191.197716 
L 124.501796 176.000057 
L 126.628089 156.207377 
L 128.450626 138.456561 
L 128.754382 136.741345 
L 131.184431 131.470885 
L 133.310724 127.370826 
L 135.133261 124.281673 
L 135.437017 123.973637 
L 137.259554 123.083395 
L 139.08209 121.946501 
L 141.208383 120.329649 
L 145.157213 117.177399 
L 145.460969 117.865582 
L 150.624823 163.571097 
L 151.839848 172.147694 
L 153.054872 179.133102 
L 153.96614 183.195919 
L 154.877409 186.188864 
L 155.484921 187.578309 
L 156.092433 188.484144 
L 156.699946 188.914016 
L 157.003702 190.439743 
L 158.522482 201.632368 
L 159.737507 209.025781 
L 160.952531 215.100895 
L 162.167556 219.958837 
L 163.38258 223.72677 
L 164.293849 225.923699 
L 165.205117 227.652542 
L 166.116385 228.978033 
L 167.027654 229.963703 
L 167.938922 230.670332 
L 169.153947 231.275777 
L 170.368971 231.60551 
L 171.887752 231.782258 
L 179.177899 232.27548 
L 188.898095 233.686642 
L 193.15068 233.859147 
L 199.225803 234.126986 
L 205.300925 234.684455 
L 210.768536 235.105278 
L 215.93239 235.265053 
L 225.045073 235.274408 
L 230.512684 235.085262 
L 235.980294 234.936366 
L 240.23288 235.082524 
L 246.004246 235.283901 
L 247.523027 235.172339 
L 256.028198 234.781508 
L 259.977028 234.844637 
L 261.192052 234.665397 
L 262.407077 234.243018 
L 263.318345 233.697332 
L 264.229614 232.895164 
L 265.140882 231.778738 
L 266.05215 230.288876 
L 266.963419 228.366991 
L 267.874687 225.957268 
L 268.785955 223.008956 
L 270.00098 218.166469 
L 271.216004 212.215406 
L 272.431029 205.1199 
L 273.949809 194.662586 
L 275.46859 182.575026 
L 277.291127 166.313109 
L 280.328688 137.089506 
L 282.758737 131.782831 
L 284.88503 127.646521 
L 286.707567 124.523243 
L 287.011323 124.043064 
L 289.137616 122.998529 
L 290.960152 121.840335 
L 293.086445 120.205708 
L 297.035275 117.074284 
L 297.642787 121.966885 
L 301.895373 160.004617 
L 303.414154 171.157198 
L 304.629178 178.355186 
L 305.540446 182.592054 
L 306.451715 185.765605 
L 307.059227 187.276456 
L 307.666739 188.302705 
L 308.578008 189.199355 
L 310.096788 200.611761 
L 311.311813 208.175428 
L 312.526837 214.410432 
L 313.741862 219.414012 
L 314.956886 223.310576 
L 315.868155 225.5918 
L 316.779423 227.394154 
L 317.690691 228.782406 
L 318.60196 229.8204 
L 319.513228 230.569473 
L 320.424496 231.087107 
L 321.639521 231.507309 
L 323.158302 231.747937 
L 325.892107 231.854927 
L 328.929668 232.025578 
L 331.967229 232.44733 
L 338.95362 233.545843 
L 342.294937 233.777152 
L 353.230158 234.316217 
L 363.25411 235.142589 
L 368.72172 235.276528 
L 373.581818 235.289939 
L 373.581818 235.289939 
" style="fill:none;stroke:#172c4b;stroke-linecap:square;stroke-opacity:0.9;"/>
   </g>
   <g id="line2d_13">
    <path clip-path="url(#p8b21dbec6f)" d="M 69.218182 236.394973 
L 69.521938 236.286806 
L 69.825694 235.515194 
L 70.12945 235.289939 
L 76.508329 235.184378 
L 82.887207 234.933181 
L 85.0135 234.818067 
L 86.228525 234.528819 
L 87.139793 234.113978 
L 88.354818 233.431155 
L 90.481111 233.298066 
L 92.303647 233.412619 
L 93.214916 233.593524 
L 95.037452 234.382801 
L 96.252477 234.638122 
L 97.467501 234.720514 
L 99.290038 235.148096 
L 100.505063 235.243023 
L 101.720087 235.093564 
L 102.631355 234.774474 
L 103.238868 234.446569 
L 103.84638 234.874911 
L 104.150136 234.90929 
L 104.453892 234.808972 
L 104.757648 234.565886 
L 105.365161 233.620539 
L 105.972673 232.014814 
L 106.276429 231.184939 
L 107.491453 229.071314 
L 108.706478 226.519469 
L 110.225259 222.814276 
L 112.959064 215.37701 
L 115.085357 209.883841 
L 116.300381 207.283516 
L 117.211649 205.732707 
L 118.122918 204.602776 
L 118.73043 204.113279 
L 119.337942 203.851986 
L 119.945455 203.830094 
L 120.552967 204.055231 
L 121.160479 204.531104 
L 121.767991 205.257205 
L 122.67926 206.803422 
L 123.590528 208.86409 
L 124.805553 212.30466 
L 126.324333 217.416871 
L 129.665651 229.080326 
L 130.880675 232.34436 
L 131.791943 234.08258 
L 132.399456 234.820898 
L 133.006968 235.175666 
L 133.61448 235.110298 
L 134.221992 234.592222 
L 134.829505 233.593345 
L 135.437017 232.090449 
L 136.044529 230.065497 
L 136.955797 226.667777 
L 137.259554 227.083891 
L 137.56331 227.052447 
L 137.867066 226.571064 
L 138.170822 225.638963 
L 138.778334 222.427327 
L 139.385846 217.44217 
L 139.993359 210.731418 
L 140.904627 197.587547 
L 141.512139 188.082728 
L 143.03092 169.795841 
L 145.157213 141.128645 
L 149.713555 76.7711 
L 150.017311 81.140543 
L 151.536091 136.4709 
L 152.751116 172.534918 
L 153.662384 194.082209 
L 154.573653 210.660479 
L 155.181165 218.929971 
L 155.788677 225.007899 
L 156.396189 228.959476 
L 156.699946 230.166137 
L 157.003702 230.878396 
L 157.307458 231.111885 
L 157.611214 230.883592 
L 157.91497 230.211753 
L 158.522482 227.615933 
L 159.129995 223.490895 
L 160.041263 214.830408 
L 160.952531 203.773408 
L 162.167556 186.443377 
L 163.38258 184.604058 
L 163.990093 182.997331 
L 164.597605 180.943501 
L 164.901361 182.561927 
L 166.116385 200.23621 
L 167.027654 210.316229 
L 167.938922 217.519178 
L 168.546434 220.707514 
L 169.153947 222.624365 
L 169.457703 223.117251 
L 169.761459 223.308049 
L 170.065215 223.204278 
L 170.368971 222.814445 
L 170.976483 221.215152 
L 171.583996 218.595449 
L 172.191508 215.052131 
L 173.102776 208.239415 
L 174.317801 196.966411 
L 174.925313 190.662123 
L 175.229069 189.359119 
L 177.051606 195.565431 
L 181.607948 211.572565 
L 183.126728 216.003069 
L 184.341753 218.992735 
L 185.556777 221.453659 
L 186.771802 223.39417 
L 187.986826 224.855794 
L 189.201851 225.905584 
L 190.416875 226.627196 
L 191.935656 227.206418 
L 194.061949 227.719963 
L 194.973217 227.920896 
L 195.276973 228.281027 
L 196.491998 230.724602 
L 197.403266 232.122499 
L 198.314535 233.192561 
L 199.225803 233.978574 
L 200.137071 234.525451 
L 201.352096 234.958948 
L 202.56712 235.144526 
L 204.389657 235.144828 
L 207.123462 235.051932 
L 208.338487 235.212037 
L 210.46478 235.190743 
L 213.502341 235.139682 
L 216.539902 235.274039 
L 224.741317 235.280675 
L 228.993903 235.139756 
L 233.550245 234.924491 
L 236.28405 234.872352 
L 237.499075 234.666663 
L 238.410343 234.347125 
L 239.321611 233.821359 
L 239.929124 233.449693 
L 242.055416 233.29869 
L 243.877953 233.394279 
L 244.789222 233.527943 
L 246.915514 234.430412 
L 247.826783 234.623768 
L 249.64932 234.848081 
L 251.1681 235.170596 
L 252.383125 235.239337 
L 253.598149 235.053788 
L 254.509418 234.701581 
L 254.813174 234.537747 
L 255.11693 234.589026 
L 255.724442 234.908424 
L 256.028198 234.876479 
L 256.331954 234.705769 
L 256.939467 233.916598 
L 257.546979 232.481135 
L 257.850735 231.503908 
L 260.280784 226.860578 
L 261.799565 223.20586 
L 264.229614 216.631355 
L 266.659662 210.24368 
L 267.874687 207.578104 
L 268.785955 205.963729 
L 269.697224 204.759187 
L 270.304736 204.214769 
L 270.912248 203.895245 
L 271.51976 203.812642 
L 272.127273 203.975515 
L 272.734785 204.388583 
L 273.342297 205.052414 
L 274.253566 206.508718 
L 275.164834 208.487176 
L 276.379858 211.836935 
L 277.898639 216.878185 
L 281.543713 229.536577 
L 282.454981 231.989707 
L 283.366249 233.842696 
L 283.973762 234.670767 
L 284.581274 235.124997 
L 285.188786 235.167882 
L 285.796298 234.765799 
L 286.403811 233.889496 
L 287.011323 232.514502 
L 287.618835 230.621463 
L 288.530103 226.781449 
L 289.137616 227.124301 
L 289.441372 226.868084 
L 289.745128 226.16134 
L 290.048884 225.00408 
L 290.656396 221.34582 
L 291.263909 215.923895 
L 291.871421 208.791812 
L 292.782689 195.056008 
L 293.390201 186.359055 
L 294.908982 167.8503 
L 297.035275 138.989426 
L 301.591617 75.085387 
L 303.110397 131.414432 
L 304.325422 168.472825 
L 305.23669 190.832619 
L 306.147959 208.245982 
L 307.059227 220.65288 
L 307.666739 226.191942 
L 308.274251 229.625527 
L 308.578008 230.583123 
L 308.881764 231.053956 
L 309.18552 231.054349 
L 309.489276 230.60193 
L 309.793032 229.715516 
L 310.400544 226.721229 
L 311.008057 222.241457 
L 311.919325 213.136306 
L 313.134349 197.552249 
L 313.741862 188.72501 
L 314.045618 186.125475 
L 314.349374 185.874806 
L 314.956886 184.927467 
L 315.564398 183.443742 
L 316.475667 180.368639 
L 317.994447 202.111831 
L 318.905716 211.718439 
L 319.513228 216.520737 
L 320.12074 220.030719 
L 320.728253 222.262571 
L 321.032009 222.908999 
L 321.335765 223.249965 
L 321.639521 223.292475 
L 321.943277 223.044551 
L 322.247033 222.515166 
L 322.854545 220.652288 
L 323.462058 217.792206 
L 324.373326 211.852047 
L 325.284594 204.263408 
L 326.499619 192.269477 
L 326.803375 189.037074 
L 327.410887 190.839321 
L 329.53718 198.306977 
L 332.878498 210.11187 
L 334.397278 214.750514 
L 335.916059 218.647708 
L 337.131083 221.175021 
L 338.346108 223.178927 
L 339.561132 224.697186 
L 340.776157 225.794132 
L 341.991181 226.551851 
L 343.206206 227.060964 
L 345.028743 227.554313 
L 346.851279 227.956092 
L 348.066304 230.456823 
L 348.977572 231.913431 
L 349.888841 233.035149 
L 350.800109 233.865393 
L 351.711377 234.449013 
L 352.926402 234.920249 
L 354.141426 235.131774 
L 355.660207 235.164986 
L 359.001524 235.084193 
L 360.216549 235.219314 
L 362.342842 235.184271 
L 365.380403 235.152221 
L 368.417964 235.276251 
L 373.581818 235.289939 
L 373.581818 235.289939 
" style="fill:none;stroke:#172c4b;stroke-linecap:square;stroke-opacity:0.8;"/>
   </g>
   <g id="line2d_14">
    <path clip-path="url(#p8b21dbec6f)" d="M 69.218182 237.623166 
L 69.521938 236.224927 
L 69.825694 235.574005 
L 70.12945 235.289939 
L 77.115841 235.184731 
L 83.190964 235.097031 
L 88.354818 235.07833 
L 91.088623 234.980894 
L 92.303647 235.253255 
L 93.214916 235.224276 
L 94.126184 234.952645 
L 95.037452 234.413287 
L 95.948721 233.596631 
L 96.859989 232.510802 
L 97.467501 231.736463 
L 99.89755 230.402738 
L 100.808819 230.027267 
L 102.631355 232.541234 
L 103.84638 233.860088 
L 104.757648 234.526606 
L 105.365161 234.775512 
L 105.972673 234.844605 
L 106.580185 234.716228 
L 107.187697 234.375363 
L 107.79521 233.809995 
L 108.706478 232.727883 
L 110.832771 234.524556 
L 111.744039 235.047855 
L 112.655308 235.278648 
L 113.26282 235.215409 
L 114.174088 234.887583 
L 114.7816 235.243992 
L 115.085357 235.245558 
L 115.389113 235.114671 
L 115.692869 234.840354 
L 117.515406 232.199741 
L 118.122918 230.607375 
L 118.73043 228.418945 
L 119.337942 225.589039 
L 120.249211 220.057013 
L 121.160479 212.890677 
L 122.071747 204.024872 
L 123.286772 189.526823 
L 123.894284 181.147357 
L 124.19804 179.644079 
L 124.805553 179.531733 
L 125.413065 179.695157 
L 126.020577 180.115973 
L 126.628089 180.769898 
L 127.539358 182.120958 
L 128.754382 184.416334 
L 131.488187 189.847122 
L 132.399456 191.124242 
L 132.703212 191.434234 
L 134.525749 222.233993 
L 135.133261 228.76391 
L 135.740773 233.069067 
L 136.044529 234.364742 
L 136.348285 235.080656 
L 136.652041 235.21265 
L 136.955797 234.758311 
L 137.259554 233.716931 
L 137.867066 229.878517 
L 138.474578 223.724229 
L 139.08209 215.30499 
L 139.993359 198.594418 
L 140.904627 177.283695 
L 141.815895 151.782485 
L 146.068481 99.681263 
L 148.802286 63.211441 
L 149.106042 66.284805 
L 150.017311 83.710213 
L 151.536091 139.079795 
L 152.751116 175.025131 
L 153.662384 196.296125 
L 154.573653 212.388724 
L 155.484921 225.081173 
L 156.092433 230.83702 
L 156.699946 234.193421 
L 157.003702 235.004599 
L 157.307458 235.258647 
L 157.611214 234.973141 
L 157.91497 234.166978 
L 158.522482 231.074228 
L 159.129995 226.153323 
L 159.737507 219.589919 
L 160.345019 211.57828 
L 160.648775 210.051997 
L 161.560044 221.232751 
L 162.167556 226.57591 
L 162.775068 230.425659 
L 163.38258 232.952594 
L 163.990093 234.327255 
L 164.293849 234.635145 
L 164.597605 234.71764 
L 164.901361 234.594978 
L 165.205117 234.286971 
L 165.812629 233.191737 
L 166.420142 231.580018 
L 167.33141 228.493534 
L 170.976483 215.069432 
L 171.887752 212.750748 
L 172.79902 211.14764 
L 173.406532 210.502278 
L 174.014045 210.198982 
L 174.621557 210.230502 
L 175.229069 210.581674 
L 175.836581 211.230475 
L 176.74785 212.699609 
L 177.051606 213.305092 
L 178.26663 221.310202 
L 178.874143 224.009075 
L 179.481655 225.865269 
L 180.089167 227.009633 
L 180.696679 227.567543 
L 181.304192 227.657153 
L 182.21546 227.315479 
L 183.430484 231.437409 
L 184.341753 233.452902 
L 184.949265 234.327027 
L 185.556777 234.87518 
L 186.16429 235.139448 
L 186.771802 235.160954 
L 187.379314 235.111914 
L 187.986826 235.187338 
L 188.594339 235.099558 
L 189.505607 234.692019 
L 192.846924 232.343508 
L 194.973217 230.933678 
L 196.188242 230.33235 
L 196.491998 230.497521 
L 197.403266 231.631266 
L 198.314535 232.477582 
L 199.225803 233.060616 
L 200.137071 233.413464 
L 201.352096 233.594986 
L 202.56712 233.541586 
L 204.997169 233.136964 
L 205.908438 232.994766 
L 208.338487 234.158055 
L 209.857267 234.519298 
L 213.806097 235.094668 
L 216.539902 235.257587 
L 222.615024 235.289809 
L 228.993903 235.179939 
L 235.069026 235.099049 
L 240.23288 235.06758 
L 242.662929 234.926697 
L 243.877953 235.236992 
L 244.789222 235.245098 
L 245.70049 235.01601 
L 246.611758 234.522388 
L 247.523027 233.751882 
L 248.434295 232.709556 
L 249.345563 231.64619 
L 251.775612 230.333224 
L 252.383125 230.080882 
L 252.686881 230.248316 
L 254.509418 232.727416 
L 255.724442 233.993076 
L 256.63571 234.604637 
L 257.243223 234.810374 
L 257.850735 234.831658 
L 258.458247 234.651455 
L 259.065759 234.255466 
L 259.673272 233.632479 
L 260.280784 232.77468 
L 260.58454 232.866052 
L 262.407077 234.416304 
L 263.318345 234.97805 
L 264.229614 235.265099 
L 264.837126 235.249844 
L 265.444638 235.029964 
L 265.748394 234.832571 
L 266.659662 235.260628 
L 266.963419 235.19736 
L 267.267175 234.996124 
L 267.874687 234.136195 
L 269.393468 231.854845 
L 270.00098 230.118017 
L 270.608492 227.773255 
L 271.51976 223.021681 
L 272.431029 216.68316 
L 273.342297 208.672665 
L 274.253566 198.945769 
L 275.772346 179.716834 
L 276.379858 179.53338 
L 276.987371 179.62935 
L 277.594883 179.987868 
L 278.202395 180.586106 
L 279.113664 181.86902 
L 280.328688 184.108561 
L 283.366249 190.091473 
L 284.277518 191.287389 
L 284.581274 193.69889 
L 285.492542 211.093956 
L 286.403811 224.070206 
L 287.011323 230.051947 
L 287.618835 233.789046 
L 287.922591 234.79547 
L 288.226347 235.219835 
L 288.530103 235.058856 
L 288.83386 234.31098 
L 289.137616 232.976337 
L 289.745128 228.555466 
L 290.35264 221.829268 
L 290.960152 212.85438 
L 291.871421 195.351949 
L 292.782689 173.31239 
L 293.693958 149.761232 
L 295.212738 132.664328 
L 297.339031 105.730669 
L 300.376592 65.195601 
L 300.680348 63.313479 
L 301.591617 80.660367 
L 302.199129 101.369549 
L 303.414154 144.0165 
L 304.629178 178.921568 
L 305.540446 199.341792 
L 306.451715 214.560505 
L 307.362983 226.749905 
L 307.970495 231.897324 
L 308.578008 234.669692 
L 308.881764 235.200201 
L 309.18552 235.182189 
L 309.489276 234.63391 
L 309.793032 233.574895 
L 310.400544 230.008324 
L 311.008057 224.658984 
L 311.919325 213.706124 
L 312.223081 209.372356 
L 312.526837 212.198371 
L 313.438106 222.717803 
L 314.045618 227.671715 
L 314.65313 231.174724 
L 315.260642 233.397661 
L 315.868155 234.510654 
L 316.171911 234.703293 
L 316.475667 234.680705 
L 316.779423 234.462922 
L 317.386935 233.519592 
L 317.994447 232.023627 
L 318.905716 229.048682 
L 321.032009 220.792174 
L 322.247033 216.466974 
L 323.158302 213.825762 
L 324.06957 211.855502 
L 324.677082 210.954161 
L 325.284594 210.394524 
L 325.892107 210.175938 
L 326.499619 210.289079 
L 327.107131 210.716968 
L 327.714643 211.436033 
L 328.625912 212.995762 
L 328.929668 214.15516 
L 329.840936 220.488128 
L 330.448449 223.41856 
L 331.055961 225.472987 
L 331.663473 226.783308 
L 332.270985 227.476446 
L 332.878498 227.672506 
L 333.48601 227.48327 
L 333.789766 227.276529 
L 334.093522 227.847584 
L 335.00479 231.010802 
L 335.916059 233.178453 
L 336.523571 234.140714 
L 337.131083 234.766387 
L 337.738596 235.097725 
L 338.346108 235.176136 
L 339.257376 235.146711 
L 339.864888 235.18021 
L 340.472401 235.05364 
L 341.383669 234.595092 
L 346.547523 231.021434 
L 348.066304 230.279513 
L 348.977572 231.46277 
L 349.888841 232.355586 
L 350.800109 232.980418 
L 351.711377 233.369022 
L 352.622646 233.560131 
L 353.83767 233.58242 
L 355.660207 233.330065 
L 357.7865 233.045517 
L 359.001524 233.75345 
L 360.216549 234.203747 
L 362.039085 234.596123 
L 366.595427 235.184644 
L 369.936745 235.283026 
L 373.581818 235.289939 
L 373.581818 235.289939 
" style="fill:none;stroke:#172c4b;stroke-linecap:square;stroke-opacity:0.7;"/>
   </g>
   <g id="line2d_15">
    <path clip-path="url(#p8b21dbec6f)" d="M 69.218182 238.375245 
L 69.521938 235.421135 
L 69.825694 235.852434 
L 70.12945 235.289939 
L 77.115841 235.191525 
L 80.760915 235.11966 
L 83.190964 235.146184 
L 87.443549 234.524466 
L 88.354818 234.342788 
L 90.784867 235.06084 
L 92.303647 235.263716 
L 93.518672 235.180874 
L 94.733696 234.828179 
L 95.948721 234.185141 
L 97.163745 233.430698 
L 98.075014 233.272965 
L 106.276429 234.415295 
L 109.31399 234.137958 
L 112.047795 233.624982 
L 112.655308 234.311575 
L 112.959064 234.509327 
L 113.26282 234.573504 
L 113.566576 234.493066 
L 114.174088 234.149288 
L 115.389113 234.463973 
L 116.604137 234.537282 
L 117.515406 234.375572 
L 118.426674 233.983337 
L 119.337942 233.322434 
L 119.641698 233.359898 
L 119.945455 233.980719 
L 120.249211 234.920451 
L 120.552967 235.212954 
L 120.856723 234.843002 
L 121.160479 233.81294 
L 125.413065 235.195048 
L 126.628089 235.257172 
L 127.539358 235.078389 
L 128.450626 234.646616 
L 129.361894 233.907015 
L 130.273163 232.805546 
L 131.184431 231.29054 
L 132.0957 229.314224 
L 133.006968 226.83412 
L 133.918236 223.814275 
L 135.133261 218.900251 
L 136.348285 212.932783 
L 137.56331 205.895402 
L 139.08209 195.614615 
L 140.600871 183.764791 
L 142.423408 167.678405 
L 144.549701 146.780724 
L 147.587262 114.280505 
L 150.928579 77.476035 
L 152.44736 148.707408 
L 153.358628 179.848869 
L 153.96614 195.140929 
L 155.484921 224.678704 
L 156.092433 230.7788 
L 156.699946 234.033373 
L 157.003702 235.040293 
L 157.307458 235.284132 
L 157.611214 234.791782 
L 157.91497 233.591919 
L 158.522482 229.191906 
L 158.826238 227.04367 
L 159.129995 225.763528 
L 159.737507 221.680595 
L 160.345019 215.740321 
L 160.952531 220.688523 
L 161.256287 222.21122 
L 161.560044 223.015133 
L 161.8638 223.142747 
L 162.167556 222.636863 
L 162.471312 221.540418 
L 163.078824 217.747276 
L 163.686336 212.103326 
L 164.597605 200.890972 
L 165.812629 182.45794 
L 167.027654 162.133945 
L 167.33141 165.859415 
L 168.546434 185.943983 
L 169.457703 197.944695 
L 170.368971 207.601914 
L 171.28024 215.177573 
L 172.191508 220.934737 
L 173.102776 225.131989 
L 174.014045 228.018517 
L 174.621557 229.331714 
L 175.229069 230.233187 
L 175.836581 230.784963 
L 176.444094 231.045063 
L 177.051606 231.067273 
L 177.659118 230.900995 
L 178.874143 230.257522 
L 179.785411 232.1127 
L 180.696679 233.406947 
L 181.607948 234.25203 
L 182.519216 234.745799 
L 183.430484 234.972228 
L 184.645509 234.97836 
L 186.16429 234.690778 
L 188.898095 233.846493 
L 190.720631 233.269656 
L 191.328144 233.360482 
L 191.6319 233.228021 
L 191.935656 232.933716 
L 192.846924 232.747049 
L 193.454437 233.617831 
L 194.061949 234.193915 
L 194.669461 234.513721 
L 195.276973 234.615543 
L 195.884486 234.536833 
L 197.09951 234.235007 
L 197.707022 234.285865 
L 198.314535 234.105355 
L 198.618291 233.944897 
L 199.833315 234.798383 
L 200.744584 235.128584 
L 201.959608 235.281182 
L 203.782145 235.197164 
L 208.034731 234.901129 
L 211.072292 234.974398 
L 219.273707 235.283256 
L 227.778879 235.231199 
L 233.246489 235.160102 
L 235.069026 235.129534 
L 240.23288 234.392768 
L 242.662929 235.093303 
L 243.877953 235.257172 
L 245.092978 235.205253 
L 246.308002 234.88801 
L 247.523027 234.281344 
L 249.041807 233.393671 
L 249.64932 233.251005 
L 253.901905 233.983618 
L 256.63571 234.324667 
L 258.762003 234.359706 
L 260.888296 234.16024 
L 263.925857 233.788582 
L 264.53337 234.426458 
L 264.837126 234.558802 
L 265.140882 234.552051 
L 265.444638 234.395171 
L 265.748394 234.097717 
L 267.267175 234.488315 
L 268.482199 234.524648 
L 269.393468 234.327271 
L 270.304736 233.892831 
L 271.216004 233.32339 
L 271.51976 233.398181 
L 271.823517 234.530446 
L 272.127273 235.148613 
L 272.431029 235.111644 
L 273.038541 233.865468 
L 276.987371 235.168546 
L 278.202395 235.266159 
L 279.113664 235.124276 
L 280.024932 234.738476 
L 280.9362 234.053973 
L 281.847469 233.016487 
L 282.758737 231.573845 
L 283.670005 229.677523 
L 284.581274 227.284071 
L 285.492542 224.35637 
L 286.707567 219.571469 
L 287.922591 213.737162 
L 289.137616 206.833453 
L 290.656396 196.715157 
L 292.175177 185.016752 
L 293.997714 169.089536 
L 296.124007 148.336524 
L 298.857812 119.278817 
L 302.502885 79.128595 
L 302.806641 84.57696 
L 304.021666 142.582374 
L 304.932934 175.337143 
L 305.540446 191.73209 
L 307.059227 222.56026 
L 307.666739 229.60493 
L 308.274251 233.235901 
L 308.578008 234.633823 
L 308.881764 235.255974 
L 309.18552 235.128227 
L 309.489276 234.278434 
L 309.793032 232.736063 
L 310.7043 226.469675 
L 311.311813 222.883661 
L 311.919325 217.387937 
L 312.223081 216.96513 
L 312.830593 221.542357 
L 313.134349 222.700379 
L 313.438106 223.160808 
L 313.741862 222.966309 
L 314.045618 222.159776 
L 314.349374 220.78415 
L 314.956886 216.496656 
L 315.564398 210.442321 
L 316.475667 198.765953 
L 317.690691 179.977084 
L 318.60196 164.707082 
L 318.905716 162.99554 
L 320.12074 183.697979 
L 321.032009 196.11432 
L 321.943277 206.144049 
L 322.854545 214.048326 
L 323.765814 220.090429 
L 324.677082 224.530051 
L 325.588351 227.618259 
L 326.195863 229.044521 
L 326.803375 230.042959 
L 327.410887 230.676559 
L 328.0184 231.004367 
L 328.625912 231.081245 
L 329.233424 230.957702 
L 330.144692 230.496083 
L 330.448449 230.289009 
L 330.752205 230.610826 
L 331.663473 232.364172 
L 332.574741 233.576171 
L 333.48601 234.356284 
L 334.397278 234.800035 
L 335.308547 234.989118 
L 336.523571 234.961441 
L 338.042352 234.650806 
L 341.079913 233.698171 
L 342.598694 233.224193 
L 342.90245 233.360688 
L 343.206206 233.315544 
L 344.117474 232.799465 
L 344.42123 232.721529 
L 344.724986 232.994456 
L 345.332499 233.787985 
L 345.940011 234.296389 
L 346.547523 234.55813 
L 347.155035 234.611355 
L 348.066304 234.381045 
L 348.673816 234.179648 
L 349.281328 234.296974 
L 349.888841 234.169237 
L 350.192597 234.030314 
L 350.496353 234.053225 
L 351.407621 234.718782 
L 352.318889 235.08907 
L 353.533914 235.275099 
L 355.052695 235.236255 
L 360.216549 234.898504 
L 363.557866 235.014345 
L 370.240501 235.27579 
L 373.581818 235.289939 
L 373.581818 235.289939 
" style="fill:none;stroke:#172c4b;stroke-linecap:square;stroke-opacity:0.6;"/>
   </g>
   <g id="line2d_16">
    <path clip-path="url(#p8b21dbec6f)" d="M 69.218182 239.389183 
L 69.521938 235.289915 
L 69.825694 236.026441 
L 70.12945 235.289939 
L 84.102232 235.18744 
L 87.443549 234.934445 
L 89.569842 234.642831 
L 90.177354 234.532959 
L 91.696135 234.944474 
L 92.911159 234.999886 
L 93.822428 234.831502 
L 94.733696 234.460495 
L 95.644965 233.880043 
L 96.859989 232.795669 
L 98.37877 231.211145 
L 98.682526 231.136297 
L 101.112575 231.341821 
L 103.238868 231.248885 
L 105.061404 231.121081 
L 106.883941 232.211079 
L 108.706478 233.269607 
L 109.617746 233.555608 
L 110.225259 233.56805 
L 110.529015 233.507925 
L 112.047795 234.732271 
L 112.655308 234.922645 
L 113.566576 235.126009 
L 114.174088 235.062122 
L 114.7816 234.807696 
L 115.389113 234.336588 
L 115.996625 233.62347 
L 116.604137 232.644228 
L 117.515406 230.627672 
L 118.426674 227.894879 
L 119.337942 224.391063 
L 119.945455 221.60635 
L 120.249211 221.481534 
L 120.552967 222.285592 
L 120.856723 222.202714 
L 121.160479 221.215681 
L 121.464235 219.310457 
L 121.767991 216.476117 
L 122.375504 214.376259 
L 123.590528 210.595705 
L 125.109309 205.082347 
L 126.628089 198.71701 
L 128.450626 190.052738 
L 130.576919 178.78248 
L 133.61448 161.309371 
L 139.385846 127.835009 
L 142.423408 111.616829 
L 146.372237 91.884121 
L 150.624823 70.400577 
L 151.536091 65.518345 
L 151.839848 77.06124 
L 152.751116 136.893859 
L 153.662384 182.717633 
L 154.269897 205.234973 
L 154.877409 221.345944 
L 155.484921 231.20094 
L 155.788677 233.858047 
L 156.092433 235.05331 
L 156.396189 234.831736 
L 156.699946 233.790837 
L 157.003702 234.789367 
L 157.307458 234.358649 
L 157.611214 232.556758 
L 157.91497 229.444821 
L 158.522482 233.84774 
L 158.826238 234.919749 
L 159.129995 235.277265 
L 159.433751 234.951652 
L 159.737507 233.975153 
L 160.345019 230.202583 
L 160.952531 224.230356 
L 161.8638 211.747009 
L 162.775068 195.84306 
L 163.990093 170.811927 
L 166.116385 121.580557 
L 166.420142 120.908322 
L 167.635166 157.055634 
L 168.546434 178.952112 
L 169.457703 196.450873 
L 170.368971 210.002363 
L 171.28024 220.087893 
L 172.191508 227.191053 
L 172.79902 230.504562 
L 173.406532 232.839955 
L 174.014045 234.328416 
L 174.621557 235.095162 
L 174.925313 235.24519 
L 175.229069 235.258601 
L 175.836581 234.929651 
L 176.444094 234.211178 
L 177.355362 232.607306 
L 178.874143 229.199329 
L 180.696679 225.101847 
L 181.911704 222.909223 
L 183.734241 228.636642 
L 184.645509 230.73907 
L 185.556777 232.333008 
L 186.468046 233.462346 
L 187.379314 234.175036 
L 188.290582 234.522472 
L 188.898095 234.693387 
L 190.113119 234.931981 
L 190.720631 234.555402 
L 191.935656 233.350066 
L 192.846924 234.834726 
L 193.15068 235.06151 
L 193.454437 235.135839 
L 193.758193 235.073091 
L 194.669461 234.57359 
L 195.276973 234.66397 
L 195.580729 234.590951 
L 195.884486 234.703338 
L 196.491998 235.166659 
L 197.09951 235.255928 
L 197.707022 235.044339 
L 198.314535 234.670061 
L 198.922047 234.796092 
L 200.137071 235.053922 
L 201.655852 235.107026 
L 203.782145 234.887283 
L 207.730974 234.424203 
L 209.857267 234.417818 
L 212.591072 234.657947 
L 218.362439 235.255743 
L 223.526293 235.288593 
L 235.980294 235.171745 
L 238.410343 234.990602 
L 240.840392 234.725302 
L 242.055416 234.58666 
L 243.270441 234.918125 
L 244.485465 235.009456 
L 245.396734 234.873255 
L 246.308002 234.536862 
L 247.219271 233.991194 
L 248.434295 232.949142 
L 250.256832 231.175566 
L 250.864344 231.195959 
L 252.990637 231.343784 
L 255.11693 231.232705 
L 256.63571 231.043671 
L 258.458247 232.113532 
L 260.280784 233.199166 
L 261.192052 233.527367 
L 261.799565 233.581471 
L 262.103321 233.542354 
L 262.407077 233.636594 
L 263.925857 234.773992 
L 265.444638 235.126452 
L 266.05215 235.01741 
L 266.659662 234.711239 
L 267.267175 234.181963 
L 267.874687 233.404519 
L 268.482199 232.355157 
L 269.393468 230.223592 
L 270.304736 227.365728 
L 271.216004 223.729082 
L 271.823517 220.852782 
L 272.127273 221.993227 
L 272.431029 222.356172 
L 272.734785 221.823168 
L 273.038541 220.378597 
L 273.646053 215.65083 
L 274.861078 212.078991 
L 276.379858 206.827738 
L 277.898639 200.712869 
L 279.721176 192.315112 
L 281.847469 181.284894 
L 284.581274 165.768325 
L 291.871421 123.668177 
L 294.908982 107.735846 
L 303.110397 66.341578 
L 303.414154 65.797962 
L 304.325422 127.872254 
L 305.23669 176.080715 
L 305.844203 200.209624 
L 306.451715 217.912456 
L 307.059227 229.31144 
L 307.362983 232.714854 
L 307.666739 234.635703 
L 307.970495 235.116641 
L 308.274251 234.204887 
L 308.881764 234.749112 
L 309.18552 233.625345 
L 309.489276 231.16062 
L 309.793032 230.834737 
L 310.400544 234.474963 
L 310.7043 235.185897 
L 311.008057 235.197869 
L 311.311813 234.542708 
L 311.615569 233.25315 
L 312.223081 228.905048 
L 312.830593 222.425738 
L 313.741862 209.309723 
L 314.956886 186.882644 
L 316.475667 153.705332 
L 317.994447 117.977182 
L 318.905716 144.57038 
L 320.12074 175.618804 
L 321.032009 193.821379 
L 321.943277 207.997565 
L 322.854545 218.627085 
L 323.765814 226.193983 
L 324.373326 229.773125 
L 324.980838 232.340536 
L 325.588351 234.028743 
L 326.195863 234.964538 
L 326.499619 235.188117 
L 326.803375 235.268094 
L 327.107131 235.218368 
L 327.714643 234.782715 
L 328.322156 233.981953 
L 329.233424 232.295688 
L 330.752205 228.841399 
L 332.574741 224.796623 
L 333.48601 223.149638 
L 333.789766 223.332918 
L 335.00479 227.382205 
L 335.916059 229.753992 
L 336.827327 231.596957 
L 337.738596 232.952845 
L 338.649864 233.86763 
L 339.561132 234.391088 
L 341.687425 234.968038 
L 342.294937 234.682332 
L 342.90245 234.057803 
L 343.206206 233.648922 
L 343.509962 233.452633 
L 343.813718 233.496803 
L 344.42123 234.659257 
L 344.724986 234.968151 
L 345.028743 235.116761 
L 345.332499 235.120654 
L 345.940011 234.754544 
L 346.243767 234.49456 
L 346.851279 234.672741 
L 347.458792 234.529041 
L 348.066304 235.088855 
L 348.673816 235.264592 
L 349.281328 235.121606 
L 350.192597 234.637655 
L 351.407621 234.983301 
L 352.622646 235.111644 
L 354.141426 235.054906 
L 357.482744 234.606952 
L 359.912793 234.405446 
L 362.039085 234.441852 
L 365.076647 234.750807 
L 369.632989 235.240039 
L 373.581818 235.289939 
L 373.581818 235.289939 
" style="fill:none;stroke:#172c4b;stroke-linecap:square;stroke-opacity:0.5;"/>
   </g>
   <g id="line2d_17">
    <path clip-path="url(#p8b21dbec6f)" d="M 69.218182 239.925704 
L 69.521938 235.35264 
L 69.825694 236.069038 
L 70.12945 235.289939 
L 75.293304 235.19065 
L 80.760915 234.792574 
L 85.0135 234.572112 
L 86.836037 234.748724 
L 88.96233 234.85685 
L 91.999891 235.037439 
L 93.822428 234.952733 
L 95.644965 234.657892 
L 97.163745 234.374409 
L 100.201306 234.699043 
L 102.631355 234.74317 
L 105.061404 234.559701 
L 107.79521 234.127459 
L 109.921502 233.700202 
L 110.225259 233.815374 
L 111.136527 234.495568 
L 112.047795 234.854669 
L 112.655308 234.863528 
L 113.26282 234.806602 
L 114.174088 234.879745 
L 115.085357 234.713107 
L 115.996625 234.24219 
L 116.907893 233.403968 
L 117.819162 232.235876 
L 120.249211 231.666356 
L 121.767991 231.114898 
L 123.286772 230.309664 
L 124.501796 229.416729 
L 125.716821 228.245395 
L 126.931845 226.742584 
L 128.14687 224.857092 
L 129.361894 222.541431 
L 130.576919 219.753476 
L 131.791943 216.457803 
L 133.310724 211.582771 
L 134.829505 205.835816 
L 136.348285 199.201712 
L 138.170822 190.077669 
L 139.993359 179.72626 
L 142.119652 166.1996 
L 144.549701 149.033212 
L 147.283506 127.917526 
L 150.624823 100.267691 
L 152.44736 84.703207 
L 152.751116 86.820308 
L 153.662384 148.478966 
L 154.573653 193.421106 
L 155.181165 214.101562 
L 155.788677 227.567017 
L 156.092433 231.688195 
L 156.396189 234.131365 
L 156.699946 234.95064 
L 157.003702 234.204776 
L 157.307458 231.956492 
L 157.611214 233.024696 
L 157.91497 234.640013 
L 158.218726 235.129444 
L 158.522482 234.545807 
L 158.826238 235.006962 
L 159.129995 235.256619 
L 159.433751 234.633216 
L 159.737507 233.184776 
L 160.345019 229.305873 
L 160.648775 231.270414 
L 160.952531 231.655155 
L 161.256287 230.565207 
L 161.560044 228.105516 
L 162.167556 219.492879 
L 162.775068 206.635397 
L 163.686336 181.102408 
L 164.901361 139.195689 
L 165.508873 120.585012 
L 166.420142 97.369452 
L 166.723898 100.28558 
L 167.938922 139.291903 
L 168.850191 162.272149 
L 169.761459 180.630819 
L 170.672727 195.012103 
L 171.583996 206.015429 
L 172.495264 214.188735 
L 173.406532 220.024648 
L 174.014045 222.834332 
L 174.621557 224.915405 
L 175.229069 226.372386 
L 175.836581 227.299413 
L 176.444094 227.780744 
L 177.051606 227.891326 
L 177.659118 227.697414 
L 178.26663 227.257233 
L 179.177899 226.244617 
L 180.392923 224.452988 
L 182.822972 220.259682 
L 184.949265 216.734976 
L 186.468046 214.592737 
L 187.68307 213.185482 
L 187.986826 212.880954 
L 188.290582 213.644279 
L 189.201851 220.747772 
L 190.113119 226.199591 
L 191.024388 230.16095 
L 191.6319 232.065673 
L 192.239412 233.450699 
L 192.846924 234.377284 
L 193.454437 234.906937 
L 194.061949 235.100245 
L 194.669461 235.015839 
L 195.276973 234.709513 
L 196.188242 233.947046 
L 197.707022 232.245014 
L 198.922047 230.826204 
L 200.440827 233.279217 
L 201.352096 234.181182 
L 202.263364 234.738713 
L 203.174633 235.047219 
L 204.389657 235.204426 
L 208.034731 235.216533 
L 212.287316 235.138919 
L 225.652586 235.246895 
L 229.905171 234.996701 
L 236.587806 234.550609 
L 238.714099 234.750207 
L 240.23288 234.813827 
L 243.574197 235.03623 
L 245.70049 234.936525 
L 247.523027 234.623518 
L 248.738051 234.352942 
L 251.775612 234.68905 
L 254.205661 234.74711 
L 256.63571 234.577466 
L 259.369516 234.155961 
L 261.799565 233.677813 
L 262.710833 234.40174 
L 263.622101 234.821539 
L 264.229614 234.880887 
L 265.140882 234.832717 
L 266.05215 234.870367 
L 266.963419 234.657484 
L 267.874687 234.129652 
L 268.785955 233.224322 
L 269.697224 232.20698 
L 272.127273 231.620011 
L 273.646053 231.047356 
L 275.164834 230.211449 
L 276.379858 229.286633 
L 277.594883 228.076747 
L 278.809907 226.528842 
L 280.024932 224.592081 
L 281.239956 222.219561 
L 282.454981 219.369928 
L 283.670005 216.008675 
L 285.188786 211.047725 
L 286.707567 205.212402 
L 288.226347 198.489524 
L 290.048884 189.261098 
L 291.871421 178.810377 
L 293.997714 165.177489 
L 296.427763 147.9062 
L 299.161568 126.698106 
L 302.806641 96.39582 
L 304.325422 83.399465 
L 304.629178 98.237302 
L 305.540446 157.137623 
L 306.451715 199.280571 
L 307.059227 218.133919 
L 307.666739 229.840538 
L 307.970495 233.116266 
L 308.274251 234.740417 
L 308.578008 234.769515 
L 309.18552 231.813564 
L 309.489276 233.976309 
L 309.793032 235.02221 
L 310.096788 234.968383 
L 310.400544 234.539957 
L 310.7043 235.243899 
L 311.008057 235.051077 
L 311.311813 234.00909 
L 311.615569 232.166388 
L 311.919325 229.571928 
L 312.526837 231.653692 
L 312.830593 231.287948 
L 313.134349 229.500041 
L 313.438106 226.394643 
L 314.045618 216.645086 
L 314.65313 202.850902 
L 315.564398 176.267423 
L 317.690691 108.956924 
L 318.298204 94.664605 
L 319.513228 134.965262 
L 320.424496 158.781019 
L 321.335765 177.864136 
L 322.247033 192.865382 
L 323.158302 204.392197 
L 324.06957 213.00144 
L 324.980838 219.195112 
L 325.892107 223.418643 
L 326.499619 225.334308 
L 327.107131 226.65037 
L 327.714643 227.458448 
L 328.322156 227.840416 
L 328.929668 227.868987 
L 329.53718 227.608349 
L 330.144692 227.11482 
L 331.055961 226.043519 
L 332.270985 224.205672 
L 338.042352 214.788882 
L 339.257376 213.345039 
L 339.864888 212.736081 
L 341.687425 225.3992 
L 342.598694 229.596515 
L 343.206206 231.640583 
L 343.813718 233.149828 
L 344.42123 234.185246 
L 345.028743 234.808397 
L 345.636255 235.080202 
L 346.243767 235.059869 
L 346.851279 234.803976 
L 347.762548 234.093704 
L 348.977572 232.783654 
L 350.496353 230.997163 
L 350.800109 231.030019 
L 351.711377 232.664581 
L 352.622646 233.779887 
L 353.533914 234.496636 
L 354.445182 234.918801 
L 355.660207 235.171169 
L 358.090256 235.266804 
L 369.025476 235.25837 
L 373.581818 235.289939 
L 373.581818 235.289939 
" style="fill:none;stroke:#172c4b;stroke-linecap:square;stroke-opacity:0.4;"/>
   </g>
   <g id="line2d_18">
    <path clip-path="url(#p8b21dbec6f)" d="M 69.218182 240.407121 
L 69.521938 235.678408 
L 69.825694 236.417589 
L 70.12945 235.289939 
L 80.153402 235.193985 
L 82.279695 235.009577 
L 86.532281 235.079474 
L 87.139793 235.250075 
L 87.747305 235.227893 
L 88.658574 235.002738 
L 89.569842 235.018729 
L 90.784867 235.045003 
L 91.999891 234.836132 
L 93.518672 234.379932 
L 94.42994 233.859547 
L 95.037452 234.099904 
L 95.948721 234.387972 
L 96.859989 234.371697 
L 97.771257 234.05597 
L 98.986282 233.476228 
L 99.593794 233.614545 
L 100.808819 234.216748 
L 101.720087 234.479248 
L 102.631355 234.506193 
L 103.542624 234.231432 
L 104.453892 233.803484 
L 106.580185 234.244636 
L 106.883941 234.319439 
L 107.79521 234.822905 
L 108.402722 234.898026 
L 110.529015 234.360404 
L 111.440283 233.783404 
L 112.047795 234.345006 
L 112.655308 234.646549 
L 113.26282 234.599756 
L 113.870332 234.164018 
L 114.7816 234.854449 
L 115.389113 235.118218 
L 115.996625 235.189453 
L 116.604137 235.041183 
L 117.211649 234.647872 
L 117.819162 233.985854 
L 118.426674 233.03371 
L 119.337942 231.021125 
L 119.641698 230.186659 
L 119.945455 229.719384 
L 120.856723 229.176791 
L 121.767991 228.432306 
L 122.983016 227.098986 
L 124.19804 225.350739 
L 125.413065 223.169527 
L 126.628089 220.547987 
L 128.14687 216.657075 
L 129.665651 212.108533 
L 131.488187 205.843322 
L 133.310724 198.788143 
L 135.437017 189.696214 
L 137.867066 178.353422 
L 140.600871 164.57174 
L 143.638432 148.101438 
L 146.675993 130.35119 
L 149.409799 113.128591 
L 152.143604 94.59028 
L 153.054872 88.110358 
L 153.662384 127.649991 
L 154.573653 181.675258 
L 155.181165 206.643698 
L 155.788677 223.10296 
L 156.092433 228.277669 
L 156.699946 233.755209 
L 157.003702 235.1542 
L 157.307458 234.945268 
L 157.611214 233.206006 
L 157.91497 230.016796 
L 158.218726 225.460017 
L 158.522482 225.426488 
L 158.826238 225.138024 
L 159.129995 223.764238 
L 159.433751 221.366484 
L 160.041263 213.747256 
L 161.256287 194.16935 
L 161.8638 186.838991 
L 162.775068 172.395954 
L 164.293849 145.786391 
L 164.597605 149.456565 
L 165.812629 193.96845 
L 166.420142 209.631771 
L 167.027654 220.942446 
L 167.635166 228.494202 
L 168.242678 232.848177 
L 168.546434 233.991422 
L 168.850191 234.528885 
L 169.153947 234.519942 
L 169.457703 234.021388 
L 169.761459 233.087401 
L 170.368971 230.116669 
L 171.28024 223.597908 
L 172.495264 212.728818 
L 174.925313 190.624811 
L 176.140338 181.875777 
L 176.444094 182.297407 
L 177.659118 187.956153 
L 179.177899 196.314291 
L 183.126728 218.906824 
L 184.341753 224.467518 
L 185.253021 227.881954 
L 186.16429 230.585733 
L 187.075558 232.564023 
L 187.68307 233.488625 
L 189.201851 235.072606 
L 189.505607 235.049048 
L 190.113119 234.641564 
L 190.720631 234.054727 
L 191.328144 234.772544 
L 191.6319 234.921287 
L 191.935656 234.868649 
L 192.239412 234.635311 
L 192.846924 233.891186 
L 193.454437 234.721565 
L 194.061949 235.117711 
L 194.669461 235.160289 
L 195.884486 234.829393 
L 196.491998 234.202298 
L 197.403266 233.014639 
L 198.314535 232.663924 
L 198.922047 232.956946 
L 199.833315 233.109853 
L 200.744584 233.019573 
L 202.263364 232.588951 
L 204.693413 231.876869 
L 206.212194 231.706404 
L 207.427218 231.775997 
L 208.945999 232.100934 
L 210.161023 232.863749 
L 211.98356 233.868664 
L 213.806097 234.602559 
L 215.324878 235.005582 
L 217.147414 235.216939 
L 220.184976 235.288307 
L 231.727708 235.210031 
L 234.157757 235.009879 
L 238.410343 235.136906 
L 239.017855 235.265006 
L 239.625367 235.184898 
L 240.23288 235.011605 
L 241.447904 235.032508 
L 242.662929 235.03309 
L 243.877953 234.790505 
L 245.092978 234.446297 
L 246.308002 233.846545 
L 247.219271 234.281372 
L 248.130539 234.418124 
L 249.041807 234.250037 
L 249.953076 233.793782 
L 250.560588 233.457544 
L 251.1681 233.525666 
L 252.383125 234.154773 
L 253.294393 234.450053 
L 254.205661 234.520888 
L 255.11693 234.300919 
L 256.331954 233.82674 
L 258.458247 234.282065 
L 259.065759 234.609309 
L 259.673272 234.865497 
L 260.280784 234.874843 
L 261.192052 234.662459 
L 262.103321 234.430995 
L 262.710833 234.081528 
L 263.014589 233.833165 
L 263.318345 233.943575 
L 263.925857 234.448125 
L 264.53337 234.671072 
L 265.140882 234.522807 
L 265.444638 234.280207 
L 265.748394 234.296653 
L 266.659662 234.936925 
L 267.267175 235.155151 
L 267.874687 235.17399 
L 268.482199 234.966787 
L 269.089711 234.508437 
L 269.697224 233.775799 
L 270.304736 232.748076 
L 271.216004 230.614362 
L 271.51976 229.791443 
L 272.431029 229.280778 
L 273.342297 228.571108 
L 274.557322 227.287856 
L 275.772346 225.592681 
L 276.987371 223.466209 
L 278.202395 220.899756 
L 279.721176 217.076332 
L 281.239956 212.591873 
L 283.062493 206.397002 
L 284.88503 199.403724 
L 287.011323 190.373255 
L 289.441372 179.088804 
L 292.175177 165.363536 
L 295.212738 148.954147 
L 298.250299 131.271767 
L 300.984105 114.119048 
L 303.71791 95.655758 
L 304.629178 89.200631 
L 304.932934 93.095185 
L 305.844203 157.175539 
L 306.451715 188.734519 
L 307.059227 211.540914 
L 307.666739 225.938269 
L 307.970495 230.129882 
L 308.578008 234.660413 
L 308.881764 235.245927 
L 309.18552 234.26196 
L 309.489276 231.787534 
L 310.096788 225.14484 
L 310.400544 225.421718 
L 310.7043 224.582983 
L 311.008057 222.689492 
L 311.615569 215.985591 
L 312.223081 205.806461 
L 312.526837 199.567561 
L 314.349374 175.052427 
L 315.564398 151.584098 
L 315.868155 145.058036 
L 316.171911 147.770263 
L 316.475667 154.204406 
L 317.386935 189.300255 
L 317.994447 206.147839 
L 318.60196 218.489847 
L 319.209472 226.927375 
L 319.816984 232.030134 
L 320.12074 233.499333 
L 320.424496 234.332105 
L 320.728253 234.589104 
L 321.032009 234.328418 
L 321.335765 233.60554 
L 321.943277 230.982016 
L 322.550789 227.109804 
L 323.462058 219.713141 
L 327.410887 184.893987 
L 327.714643 182.844516 
L 328.0184 181.67196 
L 329.233424 187.189899 
L 330.752205 195.433874 
L 335.00479 219.658792 
L 336.219815 225.084175 
L 337.131083 228.382799 
L 338.042352 230.965691 
L 338.95362 232.824165 
L 339.561132 233.672219 
L 339.864888 234.006801 
L 340.472401 234.849466 
L 340.776157 235.034179 
L 341.079913 235.077068 
L 341.383669 234.990024 
L 341.991181 234.473106 
L 342.294937 234.157851 
L 342.598694 234.125653 
L 342.90245 234.61608 
L 343.206206 234.873397 
L 343.509962 234.918837 
L 343.813718 234.773292 
L 344.42123 233.990519 
L 344.724986 234.144045 
L 345.332499 234.85809 
L 345.940011 235.158446 
L 346.547523 235.124706 
L 346.851279 235.021786 
L 347.155035 235.038063 
L 347.762548 234.706053 
L 348.37006 233.996005 
L 348.977572 233.072321 
L 349.888841 232.600729 
L 350.800109 233.003997 
L 351.711377 233.108824 
L 352.622646 232.988057 
L 354.445182 232.43604 
L 356.571475 231.847594 
L 358.090256 231.705028 
L 359.30528 231.797302 
L 360.824061 232.160781 
L 362.950354 233.485382 
L 364.469134 234.197867 
L 366.595427 234.911912 
L 368.114208 235.154892 
L 370.544257 235.276712 
L 373.581818 235.289939 
L 373.581818 235.289939 
" style="fill:none;stroke:#172c4b;stroke-linecap:square;stroke-opacity:0.3;"/>
   </g>
   <g id="line2d_19">
    <path clip-path="url(#p8b21dbec6f)" d="M 69.218182 241.887985 
L 69.521938 235.315009 
L 69.825694 236.29808 
L 70.12945 235.289939 
L 76.812085 235.183299 
L 82.583451 235.115917 
L 85.317256 235.034303 
L 86.228525 234.988104 
L 87.139793 235.179581 
L 87.747305 235.130496 
L 88.354818 234.885698 
L 88.96233 234.559898 
L 90.481111 234.426235 
L 91.696135 234.124642 
L 92.911159 233.600005 
L 93.518672 233.243794 
L 94.42994 233.310846 
L 95.341208 234.279521 
L 95.948721 234.622762 
L 96.556233 234.699516 
L 97.163745 234.497208 
L 97.771257 234.037929 
L 98.986282 234.209599 
L 100.201306 234.122619 
L 101.720087 233.725782 
L 102.327599 233.506543 
L 104.150136 233.660017 
L 105.972673 233.54401 
L 108.402722 233.11344 
L 109.31399 232.917558 
L 109.617746 233.01419 
L 110.529015 234.351244 
L 111.136527 234.875926 
L 112.351551 235.260306 
L 112.959064 234.964278 
L 113.870332 233.882697 
L 115.692869 234.701763 
L 115.996625 234.489768 
L 116.604137 234.390646 
L 117.211649 234.133303 
L 117.819162 233.698581 
L 118.426674 233.068511 
L 119.337942 231.721632 
L 119.641698 231.292055 
L 121.160479 230.738907 
L 122.375504 230.064873 
L 123.590528 229.131032 
L 124.805553 227.893096 
L 126.020577 226.314451 
L 127.235602 224.367706 
L 128.450626 222.035447 
L 129.969407 218.567447 
L 131.488187 214.491039 
L 133.310724 208.82925 
L 135.133261 202.38576 
L 137.259554 193.973855 
L 139.689603 183.302618 
L 142.119652 171.596706 
L 144.853457 157.223382 
L 147.587262 141.523571 
L 150.321067 124.407522 
L 153.054872 105.832366 
L 154.269897 97.125587 
L 154.573653 109.036331 
L 155.484921 170.043522 
L 156.092433 199.016005 
L 156.699946 219.134557 
L 157.307458 230.989126 
L 157.611214 234.030642 
L 157.91497 235.271827 
L 158.218726 234.809684 
L 158.522482 235.245466 
L 158.826238 234.788552 
L 159.129995 232.551439 
L 159.433751 228.638987 
L 160.041263 233.661265 
L 160.345019 234.858506 
L 160.648775 234.996246 
L 160.952531 234.141633 
L 161.256287 232.361574 
L 161.8638 226.289227 
L 162.471312 217.295623 
L 163.38258 199.393749 
L 164.597605 169.600175 
L 166.420142 118.163542 
L 167.027654 101.292834 
L 167.33141 102.224178 
L 167.635166 102.4118 
L 167.938922 101.940353 
L 168.242678 100.890475 
L 168.850191 97.357751 
L 169.761459 89.504093 
L 173.406532 53.615604 
L 174.317801 48.134894 
L 174.925313 45.805704 
L 175.532825 44.608434 
L 175.836581 44.443636 
L 176.140338 44.569455 
L 176.444094 44.984863 
L 176.74785 45.687303 
L 177.355362 57.550019 
L 181.911704 157.362893 
L 183.430484 184.251087 
L 184.645509 201.643753 
L 185.556777 212.082032 
L 186.468046 220.27758 
L 187.379314 226.318584 
L 187.986826 229.226738 
L 188.594339 231.311805 
L 189.201851 232.646376 
L 189.809363 233.309937 
L 190.113119 233.416244 
L 190.416875 233.38656 
L 190.720631 233.848208 
L 191.328144 234.973516 
L 191.6319 235.211742 
L 191.935656 235.258462 
L 192.239412 235.131912 
L 192.846924 234.429786 
L 193.15068 233.888402 
L 193.758193 234.329617 
L 194.061949 234.363745 
L 194.365705 234.526342 
L 194.669461 234.538336 
L 195.276973 234.373541 
L 195.884486 234.773853 
L 196.491998 234.871797 
L 197.403266 234.711322 
L 198.314535 235.104977 
L 199.225803 235.256389 
L 200.440827 235.225003 
L 205.300925 234.664387 
L 206.212194 234.921839 
L 207.123462 234.938086 
L 209.249755 234.819734 
L 215.021121 235.222634 
L 220.184976 235.289164 
L 228.386391 235.187982 
L 234.157757 235.115542 
L 237.195318 235.020354 
L 237.802831 234.948162 
L 238.714099 235.166839 
L 239.321611 235.159234 
L 239.929124 234.96791 
L 240.840392 234.556043 
L 242.359173 234.399284 
L 243.574197 234.072056 
L 244.789222 233.517021 
L 245.396734 233.226943 
L 246.308002 233.505269 
L 246.915514 234.154165 
L 247.523027 234.561299 
L 248.130539 234.706112 
L 248.738051 234.574383 
L 249.64932 234.074427 
L 250.864344 234.212168 
L 252.079369 234.095648 
L 253.598149 233.673318 
L 254.205661 233.521508 
L 255.724442 233.658034 
L 257.546979 233.562359 
L 259.673272 233.207978 
L 261.192052 232.884696 
L 262.710833 234.777677 
L 263.622101 235.205681 
L 264.229614 235.228191 
L 264.837126 234.816495 
L 265.444638 233.894459 
L 266.05215 234.111285 
L 266.659662 234.471949 
L 266.963419 234.725521 
L 267.267175 234.766622 
L 267.874687 234.478738 
L 268.482199 234.341909 
L 269.089711 234.041977 
L 269.697224 233.560049 
L 270.608492 232.457799 
L 271.216004 231.447369 
L 271.823517 231.154534 
L 273.038541 230.6672 
L 274.253566 229.963321 
L 275.46859 228.993753 
L 276.683615 227.715053 
L 277.898639 226.091692 
L 279.113664 224.097504 
L 280.328688 221.71633 
L 281.847469 218.18693 
L 283.366249 214.050689 
L 285.188786 208.3212 
L 287.011323 201.815718 
L 289.137616 193.338765 
L 291.567665 182.600652 
L 293.997714 170.831756 
L 296.731519 156.386768 
L 299.465324 140.610609 
L 302.199129 123.413755 
L 304.932934 104.758612 
L 306.147959 96.766326 
L 307.059227 161.360328 
L 307.666739 192.623251 
L 308.274251 214.904721 
L 308.881764 228.763808 
L 309.18552 232.740869 
L 309.489276 234.870284 
L 309.793032 235.24754 
L 310.400544 235.246065 
L 310.7043 233.885986 
L 311.008057 230.79805 
L 311.311813 229.732521 
L 311.615569 232.644387 
L 311.919325 234.396518 
L 312.223081 235.055616 
L 312.526837 234.688791 
L 312.830593 233.363123 
L 313.134349 231.145249 
L 313.741862 224.29501 
L 314.349374 214.649011 
L 315.260642 195.98699 
L 316.475667 165.538406 
L 318.905716 101.856918 
L 319.209472 102.40557 
L 319.513228 102.253326 
L 319.816984 101.482836 
L 320.424496 98.39754 
L 321.032009 93.730084 
L 321.943277 84.87428 
L 324.373326 59.780217 
L 325.284594 52.547123 
L 325.892107 48.888039 
L 326.499619 46.283574 
L 327.107131 44.799691 
L 327.410887 44.489706 
L 327.714643 44.470246 
L 328.0184 44.741085 
L 328.322156 45.300422 
L 328.625912 47.576996 
L 334.397278 171.46882 
L 335.612303 191.229021 
L 336.827327 207.145439 
L 337.738596 216.456559 
L 338.649864 223.558795 
L 339.561132 228.579515 
L 340.168645 230.863868 
L 340.776157 232.378841 
L 341.383669 233.202414 
L 341.687425 233.380765 
L 342.294937 233.417983 
L 342.90245 234.776809 
L 343.206206 235.117718 
L 343.509962 235.257909 
L 343.813718 235.215726 
L 344.117474 235.009241 
L 345.028743 233.910682 
L 345.332499 234.249014 
L 346.243767 234.550114 
L 346.547523 234.493063 
L 346.851279 234.310061 
L 347.762548 234.823712 
L 348.37006 234.85774 
L 348.977572 234.67919 
L 350.496353 235.205297 
L 351.711377 235.258923 
L 353.533914 235.042353 
L 354.748938 234.902123 
L 355.356451 234.980754 
L 356.267719 234.798991 
L 356.875231 234.668016 
L 358.697768 234.946794 
L 361.431573 234.859445 
L 366.595427 235.217211 
L 371.759281 235.288957 
L 373.581818 235.289939 
L 373.581818 235.289939 
" style="fill:none;stroke:#172c4b;stroke-linecap:square;stroke-opacity:0.2;"/>
   </g>
   <g id="line2d_20">
    <path clip-path="url(#p8b21dbec6f)" d="M 69.218182 242.116364 
L 69.521938 236.103092 
L 69.825694 236.719701 
L 70.12945 235.289939 
L 78.938378 235.18807 
L 83.49472 234.930774 
L 84.102232 234.912121 
L 85.0135 235.010053 
L 87.443549 234.847233 
L 88.051062 234.842414 
L 88.96233 234.676566 
L 89.873598 234.698409 
L 91.088623 235.126065 
L 91.999891 235.131444 
L 92.911159 234.882158 
L 93.518672 235.140006 
L 94.126184 235.086593 
L 94.42994 234.933297 
L 96.556233 234.962242 
L 99.89755 234.873398 
L 102.327599 234.606282 
L 104.453892 234.345147 
L 107.187697 234.566719 
L 109.31399 234.519621 
L 110.832771 234.357278 
L 111.440283 235.028035 
L 111.744039 235.154195 
L 112.047795 235.056969 
L 112.655308 234.533887 
L 113.26282 234.805466 
L 113.870332 234.817438 
L 114.477844 234.801956 
L 115.692869 234.893361 
L 115.996625 235.113652 
L 116.300381 235.194905 
L 116.907893 234.872174 
L 117.819162 234.806364 
L 118.73043 235.196216 
L 119.641698 235.279754 
L 120.249211 235.137472 
L 120.856723 234.820011 
L 121.464235 234.315238 
L 122.375504 233.467859 
L 127.539358 234.417293 
L 128.754382 234.315599 
L 129.665651 234.053818 
L 130.576919 233.593413 
L 131.488187 232.900127 
L 132.399456 231.942144 
L 133.310724 230.69104 
L 133.61448 230.763621 
L 134.525749 233.330148 
L 135.133261 234.413414 
L 135.740773 234.959803 
L 136.044529 235.024843 
L 136.348285 234.948453 
L 136.652041 234.729235 
L 137.259554 233.859051 
L 137.867066 232.412141 
L 138.474578 230.392924 
L 139.385846 226.314799 
L 140.297115 221.027755 
L 141.512139 212.225732 
L 142.727164 201.608712 
L 143.942188 190.520804 
L 146.068481 177.198477 
L 148.49853 160.387754 
L 151.536091 137.607028 
L 153.96614 118.536192 
L 154.269897 117.458191 
L 154.877409 163.130213 
L 155.484921 196.003797 
L 156.092433 216.69909 
L 156.396189 222.730807 
L 156.699946 226.039575 
L 157.003702 226.750876 
L 157.611214 223.791721 
L 158.218726 232.532343 
L 158.522482 234.439419 
L 158.826238 235.124197 
L 159.129995 234.431564 
L 159.433751 232.140813 
L 160.041263 223.212813 
L 160.648775 209.220984 
L 161.8638 177.057347 
L 163.38258 145.441122 
L 163.990093 138.264087 
L 164.901361 124.316948 
L 166.116385 101.302232 
L 167.938922 61.237532 
L 168.242678 54.231408 
L 168.546434 53.673593 
L 169.457703 106.710653 
L 170.368971 147.477192 
L 171.28024 177.994862 
L 172.191508 200.103237 
L 173.102776 215.444755 
L 173.710289 222.632457 
L 174.317801 227.833753 
L 174.925313 231.387047 
L 175.532825 233.593627 
L 176.140338 234.719475 
L 176.444094 234.951088 
L 176.74785 234.997308 
L 177.051606 234.882394 
L 177.659118 234.257294 
L 178.26663 233.235306 
L 179.177899 231.245856 
L 181.911704 224.829448 
L 183.126728 222.685635 
L 184.037997 221.532595 
L 184.949265 220.783558 
L 185.556777 220.500913 
L 185.860533 220.684035 
L 186.771802 226.033947 
L 187.68307 229.73178 
L 188.290582 231.437218 
L 188.898095 232.636702 
L 189.505607 233.410437 
L 190.113119 233.832129 
L 190.720631 233.968919 
L 191.328144 233.881399 
L 191.6319 233.770689 
L 191.935656 233.9381 
L 192.543168 234.838922 
L 192.846924 234.994689 
L 193.15068 234.979327 
L 193.454437 234.811099 
L 193.758193 234.770408 
L 194.061949 235.145923 
L 194.365705 235.283671 
L 194.669461 235.212366 
L 194.973217 234.959377 
L 195.580729 234.286224 
L 197.707022 234.830626 
L 199.225803 235.127621 
L 201.352096 235.273763 
L 204.997169 235.224498 
L 210.768536 235.182164 
L 226.563854 235.271182 
L 232.638977 235.104947 
L 236.28405 234.990956 
L 237.195318 234.947625 
L 237.802831 234.82966 
L 239.929124 234.809454 
L 240.840392 234.667446 
L 241.75166 234.756468 
L 242.662929 235.094593 
L 243.574197 235.154162 
L 244.181709 235.000648 
L 244.485465 234.858255 
L 245.396734 235.157149 
L 246.004246 235.020854 
L 246.308002 234.917731 
L 248.434295 234.963245 
L 251.775612 234.862718 
L 254.205661 234.581663 
L 256.028198 234.326052 
L 258.762003 234.561982 
L 260.888296 234.53014 
L 262.710833 234.447012 
L 263.014589 234.885035 
L 263.318345 235.118271 
L 263.622101 235.134269 
L 263.925857 234.920787 
L 264.229614 234.507449 
L 265.140882 234.834014 
L 267.570931 234.973875 
L 267.874687 235.188128 
L 268.178443 235.131615 
L 268.482199 234.88229 
L 269.697224 234.890027 
L 270.608492 235.233008 
L 271.216004 235.289546 
L 271.823517 235.188942 
L 272.431029 234.916501 
L 273.038541 234.45957 
L 273.949809 233.438373 
L 279.41742 234.417518 
L 280.632444 234.284259 
L 281.543713 233.991826 
L 282.454981 233.494933 
L 283.366249 232.759659 
L 284.277518 231.754693 
L 285.188786 230.452254 
L 286.403811 233.649859 
L 287.011323 234.601293 
L 287.618835 235.009896 
L 287.922591 235.004425 
L 288.226347 234.856766 
L 288.83386 234.130699 
L 289.441372 232.8278 
L 290.048884 230.950914 
L 290.960152 227.080177 
L 291.871421 221.989966 
L 292.782689 215.750635 
L 293.997714 205.789044 
L 295.82025 189.617942 
L 297.946543 176.193784 
L 300.376592 159.28955 
L 303.414154 136.430891 
L 305.844203 117.331833 
L 306.147959 130.100778 
L 306.755471 172.528233 
L 307.362983 202.290214 
L 307.970495 220.06289 
L 308.274251 224.71787 
L 308.578008 226.711823 
L 308.881764 226.173297 
L 309.18552 223.235716 
L 310.096788 233.576578 
L 310.400544 234.986492 
L 310.7043 234.984679 
L 311.008057 233.478924 
L 311.311813 230.431245 
L 311.919325 220.155886 
L 312.526837 205.031591 
L 313.438106 180.085539 
L 314.349374 160.350082 
L 314.956886 146.924633 
L 315.564398 140.234531 
L 316.475667 126.871002 
L 317.690691 104.393045 
L 319.209472 71.631678 
L 320.12074 50.712565 
L 320.424496 63.455937 
L 321.335765 114.3005 
L 322.247033 153.223156 
L 323.158302 182.216723 
L 324.06957 203.088679 
L 324.980838 217.447851 
L 325.588351 224.105138 
L 326.195863 228.864186 
L 326.803375 232.053968 
L 327.410887 233.966766 
L 328.0184 234.860044 
L 328.322156 234.995813 
L 328.625912 234.958548 
L 329.233424 234.45656 
L 329.840936 233.520254 
L 330.752205 231.602235 
L 334.093522 223.949102 
L 335.00479 222.465419 
L 335.916059 221.379882 
L 336.827327 220.697091 
L 337.434839 220.456044 
L 337.738596 221.704755 
L 338.649864 226.756041 
L 339.561132 230.2102 
L 340.168645 231.781279 
L 340.776157 232.867059 
L 341.383669 233.54613 
L 341.991181 233.890558 
L 342.598694 233.965844 
L 343.206206 233.830954 
L 343.509962 233.701361 
L 344.117474 234.690998 
L 344.42123 234.939362 
L 344.724986 235.007243 
L 345.028743 234.913204 
L 345.332499 234.675194 
L 345.940011 235.242697 
L 346.243767 235.272426 
L 346.547523 235.106923 
L 347.155035 234.295762 
L 348.673816 234.593356 
L 350.192597 235.005185 
L 352.015133 235.230091 
L 354.445182 235.275929 
L 365.076647 235.22189 
L 373.581818 235.289939 
L 373.581818 235.289939 
" style="fill:none;stroke:#172c4b;stroke-linecap:square;stroke-opacity:0.1;"/>
   </g>
   <g id="line2d_21">
    <path clip-path="url(#p8b21dbec6f)" d="M 69.218182 235.289939 
L 81.064671 235.185661 
L 87.443549 234.891803 
L 92.911159 234.425094 
L 98.37877 233.738535 
L 104.150136 232.786723 
L 111.136527 231.391028 
L 129.361894 227.602707 
L 134.525749 226.827048 
L 139.08209 226.352584 
L 143.638432 226.10569 
L 147.891018 226.094231 
L 152.143604 226.29504 
L 156.699946 226.733242 
L 161.560044 227.424889 
L 167.33141 228.481436 
L 175.836581 230.299005 
L 186.468046 232.531461 
L 192.543168 233.579841 
L 198.010778 234.308925 
L 203.478389 234.817759 
L 209.249755 235.13154 
L 216.236146 235.275514 
L 228.993903 235.26049 
L 235.980294 235.069053 
L 241.75166 234.698246 
L 247.219271 234.128373 
L 252.686881 233.339623 
L 258.762003 232.236457 
L 266.963419 230.499718 
L 278.506151 228.067892 
L 284.277518 227.096451 
L 289.137616 226.501387 
L 293.693958 226.168515 
L 297.946543 226.073195 
L 302.199129 226.191277 
L 306.755471 226.547147 
L 311.615569 227.163619 
L 317.083179 228.096592 
L 324.06957 229.53288 
L 339.257376 232.730887 
L 345.332499 233.738535 
L 350.800109 234.425094 
L 356.267719 234.891803 
L 362.342842 235.176891 
L 369.936745 235.285989 
L 373.581818 235.289939 
L 373.581818 235.289939 
" style="fill:none;stroke:#3b65ac;stroke-dasharray:5.55,2.4;stroke-dashoffset:0;stroke-width:1.5;"/>
   </g>
   <g id="patch_3">
    <path d="M 54 252 
L 54 34.56 
" style="fill:none;stroke:#000000;stroke-linecap:square;stroke-linejoin:miter;stroke-width:0.8;"/>
   </g>
   <g id="patch_4">
    <path d="M 388.8 252 
L 388.8 34.56 
" style="fill:none;stroke:#000000;stroke-linecap:square;stroke-linejoin:miter;stroke-width:0.8;"/>
   </g>
   <g id="patch_5">
    <path d="M 54 252 
L 388.8 252 
" style="fill:none;stroke:#000000;stroke-linecap:square;stroke-linejoin:miter;stroke-width:0.8;"/>
   </g>
   <g id="patch_6">
    <path d="M 54 34.56 
L 388.8 34.56 
" style="fill:none;stroke:#000000;stroke-linecap:square;stroke-linejoin:miter;stroke-width:0.8;"/>
   </g>
   <g id="text_14">
    <!-- Power Waveform: Nonlinear Oscillator (lower bound) -->
    <g transform="translate(64.019063 28.56)scale(0.12 -0.12)">
     <defs>
      <path d="M 3.328125 72.90625 
L 13.28125 72.90625 
L 28.609375 11.28125 
L 43.890625 72.90625 
L 54.984375 72.90625 
L 70.3125 11.28125 
L 85.59375 72.90625 
L 95.609375 72.90625 
L 77.296875 0 
L 64.890625 0 
L 49.515625 63.28125 
L 33.984375 0 
L 21.578125 0 
z
" id="DejaVuSans-87"/>
      <path d="M 34.28125 27.484375 
Q 23.390625 27.484375 19.1875 25 
Q 14.984375 22.515625 14.984375 16.5 
Q 14.984375 11.71875 18.140625 8.90625 
Q 21.296875 6.109375 26.703125 6.109375 
Q 34.1875 6.109375 38.703125 11.40625 
Q 43.21875 16.703125 43.21875 25.484375 
L 43.21875 27.484375 
z
M 52.203125 31.203125 
L 52.203125 0 
L 43.21875 0 
L 43.21875 8.296875 
Q 40.140625 3.328125 35.546875 0.953125 
Q 30.953125 -1.421875 24.3125 -1.421875 
Q 15.921875 -1.421875 10.953125 3.296875 
Q 6 8.015625 6 15.921875 
Q 6 25.140625 12.171875 29.828125 
Q 18.359375 34.515625 30.609375 34.515625 
L 43.21875 34.515625 
L 43.21875 35.40625 
Q 43.21875 41.609375 39.140625 45 
Q 35.0625 48.390625 27.6875 48.390625 
Q 23 48.390625 18.546875 47.265625 
Q 14.109375 46.140625 10.015625 43.890625 
L 10.015625 52.203125 
Q 14.9375 54.109375 19.578125 55.046875 
Q 24.21875 56 28.609375 56 
Q 40.484375 56 46.34375 49.84375 
Q 52.203125 43.703125 52.203125 31.203125 
z
" id="DejaVuSans-97"/>
      <path d="M 2.984375 54.6875 
L 12.5 54.6875 
L 29.59375 8.796875 
L 46.6875 54.6875 
L 56.203125 54.6875 
L 35.6875 0 
L 23.484375 0 
z
" id="DejaVuSans-118"/>
      <path d="M 37.109375 75.984375 
L 37.109375 68.5 
L 28.515625 68.5 
Q 23.6875 68.5 21.796875 66.546875 
Q 19.921875 64.59375 19.921875 59.515625 
L 19.921875 54.6875 
L 34.71875 54.6875 
L 34.71875 47.703125 
L 19.921875 47.703125 
L 19.921875 0 
L 10.890625 0 
L 10.890625 47.703125 
L 2.296875 47.703125 
L 2.296875 54.6875 
L 10.890625 54.6875 
L 10.890625 58.5 
Q 10.890625 67.625 15.140625 71.796875 
Q 19.390625 75.984375 28.609375 75.984375 
z
" id="DejaVuSans-102"/>
      <path d="M 11.71875 12.40625 
L 22.015625 12.40625 
L 22.015625 0 
L 11.71875 0 
z
M 11.71875 51.703125 
L 22.015625 51.703125 
L 22.015625 39.3125 
L 11.71875 39.3125 
z
" id="DejaVuSans-58"/>
      <path d="M 9.8125 72.90625 
L 23.09375 72.90625 
L 55.421875 11.921875 
L 55.421875 72.90625 
L 64.984375 72.90625 
L 64.984375 0 
L 51.703125 0 
L 19.390625 60.984375 
L 19.390625 0 
L 9.8125 0 
z
" id="DejaVuSans-78"/>
      <path d="M 54.890625 33.015625 
L 54.890625 0 
L 45.90625 0 
L 45.90625 32.71875 
Q 45.90625 40.484375 42.875 44.328125 
Q 39.84375 48.1875 33.796875 48.1875 
Q 26.515625 48.1875 22.3125 43.546875 
Q 18.109375 38.921875 18.109375 30.90625 
L 18.109375 0 
L 9.078125 0 
L 9.078125 54.6875 
L 18.109375 54.6875 
L 18.109375 46.1875 
Q 21.34375 51.125 25.703125 53.5625 
Q 30.078125 56 35.796875 56 
Q 45.21875 56 50.046875 50.171875 
Q 54.890625 44.34375 54.890625 33.015625 
z
" id="DejaVuSans-110"/>
      <path d="M 9.421875 75.984375 
L 18.40625 75.984375 
L 18.40625 0 
L 9.421875 0 
z
" id="DejaVuSans-108"/>
      <path d="M 39.40625 66.21875 
Q 28.65625 66.21875 22.328125 58.203125 
Q 16.015625 50.203125 16.015625 36.375 
Q 16.015625 22.609375 22.328125 14.59375 
Q 28.65625 6.59375 39.40625 6.59375 
Q 50.140625 6.59375 56.421875 14.59375 
Q 62.703125 22.609375 62.703125 36.375 
Q 62.703125 50.203125 56.421875 58.203125 
Q 50.140625 66.21875 39.40625 66.21875 
z
M 39.40625 74.21875 
Q 54.734375 74.21875 63.90625 63.9375 
Q 73.09375 53.65625 73.09375 36.375 
Q 73.09375 19.140625 63.90625 8.859375 
Q 54.734375 -1.421875 39.40625 -1.421875 
Q 24.03125 -1.421875 14.8125 8.828125 
Q 5.609375 19.09375 5.609375 36.375 
Q 5.609375 53.65625 14.8125 63.9375 
Q 24.03125 74.21875 39.40625 74.21875 
z
" id="DejaVuSans-79"/>
      <path d="M 44.28125 53.078125 
L 44.28125 44.578125 
Q 40.484375 46.53125 36.375 47.5 
Q 32.28125 48.484375 27.875 48.484375 
Q 21.1875 48.484375 17.84375 46.4375 
Q 14.5 44.390625 14.5 40.28125 
Q 14.5 37.15625 16.890625 35.375 
Q 19.28125 33.59375 26.515625 31.984375 
L 29.59375 31.296875 
Q 39.15625 29.25 43.1875 25.515625 
Q 47.21875 21.78125 47.21875 15.09375 
Q 47.21875 7.46875 41.1875 3.015625 
Q 35.15625 -1.421875 24.609375 -1.421875 
Q 20.21875 -1.421875 15.453125 -0.5625 
Q 10.6875 0.296875 5.421875 2 
L 5.421875 11.28125 
Q 10.40625 8.6875 15.234375 7.390625 
Q 20.0625 6.109375 24.8125 6.109375 
Q 31.15625 6.109375 34.5625 8.28125 
Q 37.984375 10.453125 37.984375 14.40625 
Q 37.984375 18.0625 35.515625 20.015625 
Q 33.0625 21.96875 24.703125 23.78125 
L 21.578125 24.515625 
Q 13.234375 26.265625 9.515625 29.90625 
Q 5.8125 33.546875 5.8125 39.890625 
Q 5.8125 47.609375 11.28125 51.796875 
Q 16.75 56 26.8125 56 
Q 31.78125 56 36.171875 55.265625 
Q 40.578125 54.546875 44.28125 53.078125 
z
" id="DejaVuSans-115"/>
      <path d="M 48.78125 52.59375 
L 48.78125 44.1875 
Q 44.96875 46.296875 41.140625 47.34375 
Q 37.3125 48.390625 33.40625 48.390625 
Q 24.65625 48.390625 19.8125 42.84375 
Q 14.984375 37.3125 14.984375 27.296875 
Q 14.984375 17.28125 19.8125 11.734375 
Q 24.65625 6.203125 33.40625 6.203125 
Q 37.3125 6.203125 41.140625 7.25 
Q 44.96875 8.296875 48.78125 10.40625 
L 48.78125 2.09375 
Q 45.015625 0.34375 40.984375 -0.53125 
Q 36.96875 -1.421875 32.421875 -1.421875 
Q 20.0625 -1.421875 12.78125 6.34375 
Q 5.515625 14.109375 5.515625 27.296875 
Q 5.515625 40.671875 12.859375 48.328125 
Q 20.21875 56 33.015625 56 
Q 37.15625 56 41.109375 55.140625 
Q 45.0625 54.296875 48.78125 52.59375 
z
" id="DejaVuSans-99"/>
      <path d="M 18.3125 70.21875 
L 18.3125 54.6875 
L 36.8125 54.6875 
L 36.8125 47.703125 
L 18.3125 47.703125 
L 18.3125 18.015625 
Q 18.3125 11.328125 20.140625 9.421875 
Q 21.96875 7.515625 27.59375 7.515625 
L 36.8125 7.515625 
L 36.8125 0 
L 27.59375 0 
Q 17.1875 0 13.234375 3.875 
Q 9.28125 7.765625 9.28125 18.015625 
L 9.28125 47.703125 
L 2.6875 47.703125 
L 2.6875 54.6875 
L 9.28125 54.6875 
L 9.28125 70.21875 
z
" id="DejaVuSans-116"/>
      <path d="M 48.6875 27.296875 
Q 48.6875 37.203125 44.609375 42.84375 
Q 40.53125 48.484375 33.40625 48.484375 
Q 26.265625 48.484375 22.1875 42.84375 
Q 18.109375 37.203125 18.109375 27.296875 
Q 18.109375 17.390625 22.1875 11.75 
Q 26.265625 6.109375 33.40625 6.109375 
Q 40.53125 6.109375 44.609375 11.75 
Q 48.6875 17.390625 48.6875 27.296875 
z
M 18.109375 46.390625 
Q 20.953125 51.265625 25.265625 53.625 
Q 29.59375 56 35.59375 56 
Q 45.5625 56 51.78125 48.09375 
Q 58.015625 40.1875 58.015625 27.296875 
Q 58.015625 14.40625 51.78125 6.484375 
Q 45.5625 -1.421875 35.59375 -1.421875 
Q 29.59375 -1.421875 25.265625 0.953125 
Q 20.953125 3.328125 18.109375 8.203125 
L 18.109375 0 
L 9.078125 0 
L 9.078125 75.984375 
L 18.109375 75.984375 
z
" id="DejaVuSans-98"/>
      <path d="M 8.5 21.578125 
L 8.5 54.6875 
L 17.484375 54.6875 
L 17.484375 21.921875 
Q 17.484375 14.15625 20.5 10.265625 
Q 23.53125 6.390625 29.59375 6.390625 
Q 36.859375 6.390625 41.078125 11.03125 
Q 45.3125 15.671875 45.3125 23.6875 
L 45.3125 54.6875 
L 54.296875 54.6875 
L 54.296875 0 
L 45.3125 0 
L 45.3125 8.40625 
Q 42.046875 3.421875 37.71875 1 
Q 33.40625 -1.421875 27.6875 -1.421875 
Q 18.265625 -1.421875 13.375 4.4375 
Q 8.5 10.296875 8.5 21.578125 
z
M 31.109375 56 
z
" id="DejaVuSans-117"/>
      <path d="M 45.40625 46.390625 
L 45.40625 75.984375 
L 54.390625 75.984375 
L 54.390625 0 
L 45.40625 0 
L 45.40625 8.203125 
Q 42.578125 3.328125 38.25 0.953125 
Q 33.9375 -1.421875 27.875 -1.421875 
Q 17.96875 -1.421875 11.734375 6.484375 
Q 5.515625 14.40625 5.515625 27.296875 
Q 5.515625 40.1875 11.734375 48.09375 
Q 17.96875 56 27.875 56 
Q 33.9375 56 38.25 53.625 
Q 42.578125 51.265625 45.40625 46.390625 
z
M 14.796875 27.296875 
Q 14.796875 17.390625 18.875 11.75 
Q 22.953125 6.109375 30.078125 6.109375 
Q 37.203125 6.109375 41.296875 11.75 
Q 45.40625 17.390625 45.40625 27.296875 
Q 45.40625 37.203125 41.296875 42.84375 
Q 37.203125 48.484375 30.078125 48.484375 
Q 22.953125 48.484375 18.875 42.84375 
Q 14.796875 37.203125 14.796875 27.296875 
z
" id="DejaVuSans-100"/>
     </defs>
     <use xlink:href="#DejaVuSans-80"/>
     <use x="56.677734" xlink:href="#DejaVuSans-111"/>
     <use x="117.859375" xlink:href="#DejaVuSans-119"/>
     <use x="199.646484" xlink:href="#DejaVuSans-101"/>
     <use x="261.169922" xlink:href="#DejaVuSans-114"/>
     <use x="302.283203" xlink:href="#DejaVuSans-32"/>
     <use x="334.070312" xlink:href="#DejaVuSans-87"/>
     <use x="426.572266" xlink:href="#DejaVuSans-97"/>
     <use x="487.851562" xlink:href="#DejaVuSans-118"/>
     <use x="547.03125" xlink:href="#DejaVuSans-101"/>
     <use x="608.554688" xlink:href="#DejaVuSans-102"/>
     <use x="643.759766" xlink:href="#DejaVuSans-111"/>
     <use x="704.941406" xlink:href="#DejaVuSans-114"/>
     <use x="744.304688" xlink:href="#DejaVuSans-109"/>
     <use x="841.716797" xlink:href="#DejaVuSans-58"/>
     <use x="875.408203" xlink:href="#DejaVuSans-32"/>
     <use x="907.195312" xlink:href="#DejaVuSans-78"/>
     <use x="982" xlink:href="#DejaVuSans-111"/>
     <use x="1043.181641" xlink:href="#DejaVuSans-110"/>
     <use x="1106.560547" xlink:href="#DejaVuSans-108"/>
     <use x="1134.34375" xlink:href="#DejaVuSans-105"/>
     <use x="1162.126953" xlink:href="#DejaVuSans-110"/>
     <use x="1225.505859" xlink:href="#DejaVuSans-101"/>
     <use x="1287.029297" xlink:href="#DejaVuSans-97"/>
     <use x="1348.308594" xlink:href="#DejaVuSans-114"/>
     <use x="1389.421875" xlink:href="#DejaVuSans-32"/>
     <use x="1421.208984" xlink:href="#DejaVuSans-79"/>
     <use x="1499.919922" xlink:href="#DejaVuSans-115"/>
     <use x="1552.019531" xlink:href="#DejaVuSans-99"/>
     <use x="1607" xlink:href="#DejaVuSans-105"/>
     <use x="1634.783203" xlink:href="#DejaVuSans-108"/>
     <use x="1662.566406" xlink:href="#DejaVuSans-108"/>
     <use x="1690.349609" xlink:href="#DejaVuSans-97"/>
     <use x="1751.628906" xlink:href="#DejaVuSans-116"/>
     <use x="1790.837891" xlink:href="#DejaVuSans-111"/>
     <use x="1852.019531" xlink:href="#DejaVuSans-114"/>
     <use x="1893.132812" xlink:href="#DejaVuSans-32"/>
     <use x="1924.919922" xlink:href="#DejaVuSans-40"/>
     <use x="1963.933594" xlink:href="#DejaVuSans-108"/>
     <use x="1991.716797" xlink:href="#DejaVuSans-111"/>
     <use x="2052.898438" xlink:href="#DejaVuSans-119"/>
     <use x="2134.685547" xlink:href="#DejaVuSans-101"/>
     <use x="2196.208984" xlink:href="#DejaVuSans-114"/>
     <use x="2237.322266" xlink:href="#DejaVuSans-32"/>
     <use x="2269.109375" xlink:href="#DejaVuSans-98"/>
     <use x="2332.585938" xlink:href="#DejaVuSans-111"/>
     <use x="2393.767578" xlink:href="#DejaVuSans-117"/>
     <use x="2457.146484" xlink:href="#DejaVuSans-110"/>
     <use x="2520.525391" xlink:href="#DejaVuSans-100"/>
     <use x="2584.001953" xlink:href="#DejaVuSans-41"/>
    </g>
   </g>
  </g>
 </g>
 <defs>
  <clipPath id="p8b21dbec6f">
   <rect height="217.44" width="334.8" x="54" y="34.56"/>
  </clipPath>
 </defs>
</svg>
