<?xml version="1.0" encoding="utf-8" standalone="no"?>
<!DOCTYPE svg PUBLIC "-//W3C//DTD SVG 1.1//EN"
  "http://www.w3.org/Graphics/SVG/1.1/DTD/svg11.dtd">
<!-- Created with matplotlib (https://matplotlib.org/) -->
<svg height="288pt" version="1.1" viewBox="0 0 432 288" width="432pt" xmlns="http://www.w3.org/2000/svg" xmlns:xlink="http://www.w3.org/1999/xlink">
 <metadata>
  <rdf:RDF xmlns:cc="http://creativecommons.org/ns#" xmlns:dc="http://purl.org/dc/elements/1.1/" xmlns:rdf="http://www.w3.org/1999/02/22-rdf-syntax-ns#">
   <cc:Work>
    <dc:type rdf:resource="http://purl.org/dc/dcmitype/StillImage"/>
    <dc:date>2024-08-27T12:18:37.610038</dc:date>
    <dc:format>image/svg+xml</dc:format>
    <dc:creator>
     <cc:Agent>
      <dc:title>Matplotlib v3.3.4, https://matplotlib.org/</dc:title>
     </cc:Agent>
    </dc:creator>
   </cc:Work>
  </rdf:RDF>
 </metadata>
 <defs>
  <style type="text/css">*{stroke-linecap:butt;stroke-linejoin:round;}</style>
 </defs>
 <g id="figure_1">
  <g id="patch_1">
   <path d="M 0 288 
L 432 288 
L 432 0 
L 0 0 
z
" style="fill:none;"/>
  </g>
  <g id="axes_1">
   <g id="patch_2">
    <path d="M 54 252 
L 388.8 252 
L 388.8 34.56 
L 54 34.56 
z
" style="fill:#ffffff;"/>
   </g>
   <g id="matplotlib.axis_1">
    <g id="xtick_1">
     <g id="line2d_1">
      <defs>
       <path d="M 0 0 
L 0 3.5 
" id="mdeb73a761e" style="stroke:#000000;stroke-width:0.8;"/>
      </defs>
      <g>
       <use style="stroke:#000000;stroke-width:0.8;" x="69.217782" xlink:href="#mdeb73a761e" y="252"/>
      </g>
     </g>
     <g id="text_1">
      <!-- −1.00 -->
      <g transform="translate(50.830594 268.118125)scale(0.12 -0.12)">
       <defs>
        <path d="M 10.59375 35.5 
L 73.1875 35.5 
L 73.1875 27.203125 
L 10.59375 27.203125 
z
" id="DejaVuSans-8722"/>
        <path d="M 12.40625 8.296875 
L 28.515625 8.296875 
L 28.515625 63.921875 
L 10.984375 60.40625 
L 10.984375 69.390625 
L 28.421875 72.90625 
L 38.28125 72.90625 
L 38.28125 8.296875 
L 54.390625 8.296875 
L 54.390625 0 
L 12.40625 0 
z
" id="DejaVuSans-49"/>
        <path d="M 10.6875 12.40625 
L 21 12.40625 
L 21 0 
L 10.6875 0 
z
" id="DejaVuSans-46"/>
        <path d="M 31.78125 66.40625 
Q 24.171875 66.40625 20.328125 58.90625 
Q 16.5 51.421875 16.5 36.375 
Q 16.5 21.390625 20.328125 13.890625 
Q 24.171875 6.390625 31.78125 6.390625 
Q 39.453125 6.390625 43.28125 13.890625 
Q 47.125 21.390625 47.125 36.375 
Q 47.125 51.421875 43.28125 58.90625 
Q 39.453125 66.40625 31.78125 66.40625 
z
M 31.78125 74.21875 
Q 44.046875 74.21875 50.515625 64.515625 
Q 56.984375 54.828125 56.984375 36.375 
Q 56.984375 17.96875 50.515625 8.265625 
Q 44.046875 -1.421875 31.78125 -1.421875 
Q 19.53125 -1.421875 13.0625 8.265625 
Q 6.59375 17.96875 6.59375 36.375 
Q 6.59375 54.828125 13.0625 64.515625 
Q 19.53125 74.21875 31.78125 74.21875 
z
" id="DejaVuSans-48"/>
       </defs>
       <use xlink:href="#DejaVuSans-8722"/>
       <use x="83.789062" xlink:href="#DejaVuSans-49"/>
       <use x="147.412109" xlink:href="#DejaVuSans-46"/>
       <use x="179.199219" xlink:href="#DejaVuSans-48"/>
       <use x="242.822266" xlink:href="#DejaVuSans-48"/>
      </g>
     </g>
    </g>
    <g id="xtick_2">
     <g id="line2d_2">
      <g>
       <use style="stroke:#000000;stroke-width:0.8;" x="107.263188" xlink:href="#mdeb73a761e" y="252"/>
      </g>
     </g>
     <g id="text_2">
      <!-- −0.75 -->
      <g transform="translate(88.876 268.118125)scale(0.12 -0.12)">
       <defs>
        <path d="M 8.203125 72.90625 
L 55.078125 72.90625 
L 55.078125 68.703125 
L 28.609375 0 
L 18.3125 0 
L 43.21875 64.59375 
L 8.203125 64.59375 
z
" id="DejaVuSans-55"/>
        <path d="M 10.796875 72.90625 
L 49.515625 72.90625 
L 49.515625 64.59375 
L 19.828125 64.59375 
L 19.828125 46.734375 
Q 21.96875 47.46875 24.109375 47.828125 
Q 26.265625 48.1875 28.421875 48.1875 
Q 40.625 48.1875 47.75 41.5 
Q 54.890625 34.8125 54.890625 23.390625 
Q 54.890625 11.625 47.5625 5.09375 
Q 40.234375 -1.421875 26.90625 -1.421875 
Q 22.3125 -1.421875 17.546875 -0.640625 
Q 12.796875 0.140625 7.71875 1.703125 
L 7.71875 11.625 
Q 12.109375 9.234375 16.796875 8.0625 
Q 21.484375 6.890625 26.703125 6.890625 
Q 35.15625 6.890625 40.078125 11.328125 
Q 45.015625 15.765625 45.015625 23.390625 
Q 45.015625 31 40.078125 35.4375 
Q 35.15625 39.890625 26.703125 39.890625 
Q 22.75 39.890625 18.8125 39.015625 
Q 14.890625 38.140625 10.796875 36.28125 
z
" id="DejaVuSans-53"/>
       </defs>
       <use xlink:href="#DejaVuSans-8722"/>
       <use x="83.789062" xlink:href="#DejaVuSans-48"/>
       <use x="147.412109" xlink:href="#DejaVuSans-46"/>
       <use x="179.199219" xlink:href="#DejaVuSans-55"/>
       <use x="242.822266" xlink:href="#DejaVuSans-53"/>
      </g>
     </g>
    </g>
    <g id="xtick_3">
     <g id="line2d_3">
      <g>
       <use style="stroke:#000000;stroke-width:0.8;" x="145.308593" xlink:href="#mdeb73a761e" y="252"/>
      </g>
     </g>
     <g id="text_3">
      <!-- −0.50 -->
      <g transform="translate(126.921406 268.118125)scale(0.12 -0.12)">
       <use xlink:href="#DejaVuSans-8722"/>
       <use x="83.789062" xlink:href="#DejaVuSans-48"/>
       <use x="147.412109" xlink:href="#DejaVuSans-46"/>
       <use x="179.199219" xlink:href="#DejaVuSans-53"/>
       <use x="242.822266" xlink:href="#DejaVuSans-48"/>
      </g>
     </g>
    </g>
    <g id="xtick_4">
     <g id="line2d_4">
      <g>
       <use style="stroke:#000000;stroke-width:0.8;" x="183.353999" xlink:href="#mdeb73a761e" y="252"/>
      </g>
     </g>
     <g id="text_4">
      <!-- −0.25 -->
      <g transform="translate(164.966812 268.118125)scale(0.12 -0.12)">
       <defs>
        <path d="M 19.1875 8.296875 
L 53.609375 8.296875 
L 53.609375 0 
L 7.328125 0 
L 7.328125 8.296875 
Q 12.9375 14.109375 22.625 23.890625 
Q 32.328125 33.6875 34.8125 36.53125 
Q 39.546875 41.84375 41.421875 45.53125 
Q 43.3125 49.21875 43.3125 52.78125 
Q 43.3125 58.59375 39.234375 62.25 
Q 35.15625 65.921875 28.609375 65.921875 
Q 23.96875 65.921875 18.8125 64.3125 
Q 13.671875 62.703125 7.8125 59.421875 
L 7.8125 69.390625 
Q 13.765625 71.78125 18.9375 73 
Q 24.125 74.21875 28.421875 74.21875 
Q 39.75 74.21875 46.484375 68.546875 
Q 53.21875 62.890625 53.21875 53.421875 
Q 53.21875 48.921875 51.53125 44.890625 
Q 49.859375 40.875 45.40625 35.40625 
Q 44.1875 33.984375 37.640625 27.21875 
Q 31.109375 20.453125 19.1875 8.296875 
z
" id="DejaVuSans-50"/>
       </defs>
       <use xlink:href="#DejaVuSans-8722"/>
       <use x="83.789062" xlink:href="#DejaVuSans-48"/>
       <use x="147.412109" xlink:href="#DejaVuSans-46"/>
       <use x="179.199219" xlink:href="#DejaVuSans-50"/>
       <use x="242.822266" xlink:href="#DejaVuSans-53"/>
      </g>
     </g>
    </g>
    <g id="xtick_5">
     <g id="line2d_5">
      <g>
       <use style="stroke:#000000;stroke-width:0.8;" x="221.399405" xlink:href="#mdeb73a761e" y="252"/>
      </g>
     </g>
     <g id="text_5">
      <!-- 0.00 -->
      <g transform="translate(208.04003 268.118125)scale(0.12 -0.12)">
       <use xlink:href="#DejaVuSans-48"/>
       <use x="63.623047" xlink:href="#DejaVuSans-46"/>
       <use x="95.410156" xlink:href="#DejaVuSans-48"/>
       <use x="159.033203" xlink:href="#DejaVuSans-48"/>
      </g>
     </g>
    </g>
    <g id="xtick_6">
     <g id="line2d_6">
      <g>
       <use style="stroke:#000000;stroke-width:0.8;" x="259.444811" xlink:href="#mdeb73a761e" y="252"/>
      </g>
     </g>
     <g id="text_6">
      <!-- 0.25 -->
      <g transform="translate(246.085436 268.118125)scale(0.12 -0.12)">
       <use xlink:href="#DejaVuSans-48"/>
       <use x="63.623047" xlink:href="#DejaVuSans-46"/>
       <use x="95.410156" xlink:href="#DejaVuSans-50"/>
       <use x="159.033203" xlink:href="#DejaVuSans-53"/>
      </g>
     </g>
    </g>
    <g id="xtick_7">
     <g id="line2d_7">
      <g>
       <use style="stroke:#000000;stroke-width:0.8;" x="297.490216" xlink:href="#mdeb73a761e" y="252"/>
      </g>
     </g>
     <g id="text_7">
      <!-- 0.50 -->
      <g transform="translate(284.130841 268.118125)scale(0.12 -0.12)">
       <use xlink:href="#DejaVuSans-48"/>
       <use x="63.623047" xlink:href="#DejaVuSans-46"/>
       <use x="95.410156" xlink:href="#DejaVuSans-53"/>
       <use x="159.033203" xlink:href="#DejaVuSans-48"/>
      </g>
     </g>
    </g>
    <g id="xtick_8">
     <g id="line2d_8">
      <g>
       <use style="stroke:#000000;stroke-width:0.8;" x="335.535622" xlink:href="#mdeb73a761e" y="252"/>
      </g>
     </g>
     <g id="text_8">
      <!-- 0.75 -->
      <g transform="translate(322.176247 268.118125)scale(0.12 -0.12)">
       <use xlink:href="#DejaVuSans-48"/>
       <use x="63.623047" xlink:href="#DejaVuSans-46"/>
       <use x="95.410156" xlink:href="#DejaVuSans-55"/>
       <use x="159.033203" xlink:href="#DejaVuSans-53"/>
      </g>
     </g>
    </g>
    <g id="xtick_9">
     <g id="line2d_9">
      <g>
       <use style="stroke:#000000;stroke-width:0.8;" x="373.581028" xlink:href="#mdeb73a761e" y="252"/>
      </g>
     </g>
     <g id="text_9">
      <!-- 1.00 -->
      <g transform="translate(360.221653 268.118125)scale(0.12 -0.12)">
       <use xlink:href="#DejaVuSans-49"/>
       <use x="63.623047" xlink:href="#DejaVuSans-46"/>
       <use x="95.410156" xlink:href="#DejaVuSans-48"/>
       <use x="159.033203" xlink:href="#DejaVuSans-48"/>
      </g>
     </g>
    </g>
    <g id="text_10">
     <!-- Inelastic load $G$ -->
     <g transform="translate(182.75 282.212188)scale(0.1 -0.1)">
      <defs>
       <path d="M 9.8125 72.90625 
L 19.671875 72.90625 
L 19.671875 0 
L 9.8125 0 
z
" id="DejaVuSans-73"/>
       <path d="M 54.890625 33.015625 
L 54.890625 0 
L 45.90625 0 
L 45.90625 32.71875 
Q 45.90625 40.484375 42.875 44.328125 
Q 39.84375 48.1875 33.796875 48.1875 
Q 26.515625 48.1875 22.3125 43.546875 
Q 18.109375 38.921875 18.109375 30.90625 
L 18.109375 0 
L 9.078125 0 
L 9.078125 54.6875 
L 18.109375 54.6875 
L 18.109375 46.1875 
Q 21.34375 51.125 25.703125 53.5625 
Q 30.078125 56 35.796875 56 
Q 45.21875 56 50.046875 50.171875 
Q 54.890625 44.34375 54.890625 33.015625 
z
" id="DejaVuSans-110"/>
       <path d="M 56.203125 29.59375 
L 56.203125 25.203125 
L 14.890625 25.203125 
Q 15.484375 15.921875 20.484375 11.0625 
Q 25.484375 6.203125 34.421875 6.203125 
Q 39.59375 6.203125 44.453125 7.46875 
Q 49.3125 8.734375 54.109375 11.28125 
L 54.109375 2.78125 
Q 49.265625 0.734375 44.1875 -0.34375 
Q 39.109375 -1.421875 33.890625 -1.421875 
Q 20.796875 -1.421875 13.15625 6.1875 
Q 5.515625 13.8125 5.515625 26.8125 
Q 5.515625 40.234375 12.765625 48.109375 
Q 20.015625 56 32.328125 56 
Q 43.359375 56 49.78125 48.890625 
Q 56.203125 41.796875 56.203125 29.59375 
z
M 47.21875 32.234375 
Q 47.125 39.59375 43.09375 43.984375 
Q 39.0625 48.390625 32.421875 48.390625 
Q 24.90625 48.390625 20.390625 44.140625 
Q 15.875 39.890625 15.1875 32.171875 
z
" id="DejaVuSans-101"/>
       <path d="M 9.421875 75.984375 
L 18.40625 75.984375 
L 18.40625 0 
L 9.421875 0 
z
" id="DejaVuSans-108"/>
       <path d="M 34.28125 27.484375 
Q 23.390625 27.484375 19.1875 25 
Q 14.984375 22.515625 14.984375 16.5 
Q 14.984375 11.71875 18.140625 8.90625 
Q 21.296875 6.109375 26.703125 6.109375 
Q 34.1875 6.109375 38.703125 11.40625 
Q 43.21875 16.703125 43.21875 25.484375 
L 43.21875 27.484375 
z
M 52.203125 31.203125 
L 52.203125 0 
L 43.21875 0 
L 43.21875 8.296875 
Q 40.140625 3.328125 35.546875 0.953125 
Q 30.953125 -1.421875 24.3125 -1.421875 
Q 15.921875 -1.421875 10.953125 3.296875 
Q 6 8.015625 6 15.921875 
Q 6 25.140625 12.171875 29.828125 
Q 18.359375 34.515625 30.609375 34.515625 
L 43.21875 34.515625 
L 43.21875 35.40625 
Q 43.21875 41.609375 39.140625 45 
Q 35.0625 48.390625 27.6875 48.390625 
Q 23 48.390625 18.546875 47.265625 
Q 14.109375 46.140625 10.015625 43.890625 
L 10.015625 52.203125 
Q 14.9375 54.109375 19.578125 55.046875 
Q 24.21875 56 28.609375 56 
Q 40.484375 56 46.34375 49.84375 
Q 52.203125 43.703125 52.203125 31.203125 
z
" id="DejaVuSans-97"/>
       <path d="M 44.28125 53.078125 
L 44.28125 44.578125 
Q 40.484375 46.53125 36.375 47.5 
Q 32.28125 48.484375 27.875 48.484375 
Q 21.1875 48.484375 17.84375 46.4375 
Q 14.5 44.390625 14.5 40.28125 
Q 14.5 37.15625 16.890625 35.375 
Q 19.28125 33.59375 26.515625 31.984375 
L 29.59375 31.296875 
Q 39.15625 29.25 43.1875 25.515625 
Q 47.21875 21.78125 47.21875 15.09375 
Q 47.21875 7.46875 41.1875 3.015625 
Q 35.15625 -1.421875 24.609375 -1.421875 
Q 20.21875 -1.421875 15.453125 -0.5625 
Q 10.6875 0.296875 5.421875 2 
L 5.421875 11.28125 
Q 10.40625 8.6875 15.234375 7.390625 
Q 20.0625 6.109375 24.8125 6.109375 
Q 31.15625 6.109375 34.5625 8.28125 
Q 37.984375 10.453125 37.984375 14.40625 
Q 37.984375 18.0625 35.515625 20.015625 
Q 33.0625 21.96875 24.703125 23.78125 
L 21.578125 24.515625 
Q 13.234375 26.265625 9.515625 29.90625 
Q 5.8125 33.546875 5.8125 39.890625 
Q 5.8125 47.609375 11.28125 51.796875 
Q 16.75 56 26.8125 56 
Q 31.78125 56 36.171875 55.265625 
Q 40.578125 54.546875 44.28125 53.078125 
z
" id="DejaVuSans-115"/>
       <path d="M 18.3125 70.21875 
L 18.3125 54.6875 
L 36.8125 54.6875 
L 36.8125 47.703125 
L 18.3125 47.703125 
L 18.3125 18.015625 
Q 18.3125 11.328125 20.140625 9.421875 
Q 21.96875 7.515625 27.59375 7.515625 
L 36.8125 7.515625 
L 36.8125 0 
L 27.59375 0 
Q 17.1875 0 13.234375 3.875 
Q 9.28125 7.765625 9.28125 18.015625 
L 9.28125 47.703125 
L 2.6875 47.703125 
L 2.6875 54.6875 
L 9.28125 54.6875 
L 9.28125 70.21875 
z
" id="DejaVuSans-116"/>
       <path d="M 9.421875 54.6875 
L 18.40625 54.6875 
L 18.40625 0 
L 9.421875 0 
z
M 9.421875 75.984375 
L 18.40625 75.984375 
L 18.40625 64.59375 
L 9.421875 64.59375 
z
" id="DejaVuSans-105"/>
       <path d="M 48.78125 52.59375 
L 48.78125 44.1875 
Q 44.96875 46.296875 41.140625 47.34375 
Q 37.3125 48.390625 33.40625 48.390625 
Q 24.65625 48.390625 19.8125 42.84375 
Q 14.984375 37.3125 14.984375 27.296875 
Q 14.984375 17.28125 19.8125 11.734375 
Q 24.65625 6.203125 33.40625 6.203125 
Q 37.3125 6.203125 41.140625 7.25 
Q 44.96875 8.296875 48.78125 10.40625 
L 48.78125 2.09375 
Q 45.015625 0.34375 40.984375 -0.53125 
Q 36.96875 -1.421875 32.421875 -1.421875 
Q 20.0625 -1.421875 12.78125 6.34375 
Q 5.515625 14.109375 5.515625 27.296875 
Q 5.515625 40.671875 12.859375 48.328125 
Q 20.21875 56 33.015625 56 
Q 37.15625 56 41.109375 55.140625 
Q 45.0625 54.296875 48.78125 52.59375 
z
" id="DejaVuSans-99"/>
       <path id="DejaVuSans-32"/>
       <path d="M 30.609375 48.390625 
Q 23.390625 48.390625 19.1875 42.75 
Q 14.984375 37.109375 14.984375 27.296875 
Q 14.984375 17.484375 19.15625 11.84375 
Q 23.34375 6.203125 30.609375 6.203125 
Q 37.796875 6.203125 41.984375 11.859375 
Q 46.1875 17.53125 46.1875 27.296875 
Q 46.1875 37.015625 41.984375 42.703125 
Q 37.796875 48.390625 30.609375 48.390625 
z
M 30.609375 56 
Q 42.328125 56 49.015625 48.375 
Q 55.71875 40.765625 55.71875 27.296875 
Q 55.71875 13.875 49.015625 6.21875 
Q 42.328125 -1.421875 30.609375 -1.421875 
Q 18.84375 -1.421875 12.171875 6.21875 
Q 5.515625 13.875 5.515625 27.296875 
Q 5.515625 40.765625 12.171875 48.375 
Q 18.84375 56 30.609375 56 
z
" id="DejaVuSans-111"/>
       <path d="M 45.40625 46.390625 
L 45.40625 75.984375 
L 54.390625 75.984375 
L 54.390625 0 
L 45.40625 0 
L 45.40625 8.203125 
Q 42.578125 3.328125 38.25 0.953125 
Q 33.9375 -1.421875 27.875 -1.421875 
Q 17.96875 -1.421875 11.734375 6.484375 
Q 5.515625 14.40625 5.515625 27.296875 
Q 5.515625 40.1875 11.734375 48.09375 
Q 17.96875 56 27.875 56 
Q 33.9375 56 38.25 53.625 
Q 42.578125 51.265625 45.40625 46.390625 
z
M 14.796875 27.296875 
Q 14.796875 17.390625 18.875 11.75 
Q 22.953125 6.109375 30.078125 6.109375 
Q 37.203125 6.109375 41.296875 11.75 
Q 45.40625 17.390625 45.40625 27.296875 
Q 45.40625 37.203125 41.296875 42.84375 
Q 37.203125 48.484375 30.078125 48.484375 
Q 22.953125 48.484375 18.875 42.84375 
Q 14.796875 37.203125 14.796875 27.296875 
z
" id="DejaVuSans-100"/>
       <path d="M 54.59375 10.890625 
L 58.40625 29.984375 
L 42.1875 29.984375 
L 43.703125 38.09375 
L 69.578125 38.09375 
L 63.28125 6 
Q 56.78125 2.4375 49.109375 0.5 
Q 41.453125 -1.421875 33.6875 -1.421875 
Q 19.96875 -1.421875 12.234375 6.1875 
Q 4.5 13.8125 4.5 27.390625 
Q 4.5 38.671875 9.203125 48.84375 
Q 13.921875 59.03125 22.21875 65.828125 
Q 27.4375 70.0625 33.640625 72.140625 
Q 39.84375 74.21875 47.40625 74.21875 
Q 54.25 74.21875 60.515625 72.484375 
Q 66.796875 70.75 72.515625 67.28125 
L 70.515625 56.78125 
Q 66.109375 61.375 60.203125 63.796875 
Q 54.296875 66.21875 47.609375 66.21875 
Q 39.84375 66.21875 33.9375 63.25 
Q 28.03125 60.296875 23.390625 54.109375 
Q 19.4375 48.828125 17.15625 41.671875 
Q 14.890625 34.515625 14.890625 27.09375 
Q 14.890625 16.890625 20.109375 11.734375 
Q 25.34375 6.59375 35.6875 6.59375 
Q 40.875 6.59375 45.703125 7.6875 
Q 50.53125 8.796875 54.59375 10.890625 
z
" id="DejaVuSans-Oblique-71"/>
      </defs>
      <use transform="translate(0 0.015625)" xlink:href="#DejaVuSans-73"/>
      <use transform="translate(29.492188 0.015625)" xlink:href="#DejaVuSans-110"/>
      <use transform="translate(92.871094 0.015625)" xlink:href="#DejaVuSans-101"/>
      <use transform="translate(154.394531 0.015625)" xlink:href="#DejaVuSans-108"/>
      <use transform="translate(182.177734 0.015625)" xlink:href="#DejaVuSans-97"/>
      <use transform="translate(243.457031 0.015625)" xlink:href="#DejaVuSans-115"/>
      <use transform="translate(295.556641 0.015625)" xlink:href="#DejaVuSans-116"/>
      <use transform="translate(334.765625 0.015625)" xlink:href="#DejaVuSans-105"/>
      <use transform="translate(362.548828 0.015625)" xlink:href="#DejaVuSans-99"/>
      <use transform="translate(417.529297 0.015625)" xlink:href="#DejaVuSans-32"/>
      <use transform="translate(449.316406 0.015625)" xlink:href="#DejaVuSans-108"/>
      <use transform="translate(477.099609 0.015625)" xlink:href="#DejaVuSans-111"/>
      <use transform="translate(538.28125 0.015625)" xlink:href="#DejaVuSans-97"/>
      <use transform="translate(599.560547 0.015625)" xlink:href="#DejaVuSans-100"/>
      <use transform="translate(663.037109 0.015625)" xlink:href="#DejaVuSans-32"/>
      <use transform="translate(694.824219 0.015625)" xlink:href="#DejaVuSans-Oblique-71"/>
     </g>
    </g>
   </g>
   <g id="matplotlib.axis_2">
    <g id="ytick_1">
     <g id="line2d_10">
      <defs>
       <path d="M 0 0 
L -3.5 0 
" id="m022b0c7383" style="stroke:#000000;stroke-width:0.8;"/>
      </defs>
      <g>
       <use style="stroke:#000000;stroke-width:0.8;" x="54" xlink:href="#m022b0c7383" y="218.774984"/>
      </g>
     </g>
     <g id="text_11">
      <!-- −8 -->
      <g transform="translate(29.309375 223.334046)scale(0.12 -0.12)">
       <defs>
        <path d="M 31.78125 34.625 
Q 24.75 34.625 20.71875 30.859375 
Q 16.703125 27.09375 16.703125 20.515625 
Q 16.703125 13.921875 20.71875 10.15625 
Q 24.75 6.390625 31.78125 6.390625 
Q 38.8125 6.390625 42.859375 10.171875 
Q 46.921875 13.96875 46.921875 20.515625 
Q 46.921875 27.09375 42.890625 30.859375 
Q 38.875 34.625 31.78125 34.625 
z
M 21.921875 38.8125 
Q 15.578125 40.375 12.03125 44.71875 
Q 8.5 49.078125 8.5 55.328125 
Q 8.5 64.0625 14.71875 69.140625 
Q 20.953125 74.21875 31.78125 74.21875 
Q 42.671875 74.21875 48.875 69.140625 
Q 55.078125 64.0625 55.078125 55.328125 
Q 55.078125 49.078125 51.53125 44.71875 
Q 48 40.375 41.703125 38.8125 
Q 48.828125 37.15625 52.796875 32.3125 
Q 56.78125 27.484375 56.78125 20.515625 
Q 56.78125 9.90625 50.3125 4.234375 
Q 43.84375 -1.421875 31.78125 -1.421875 
Q 19.734375 -1.421875 13.25 4.234375 
Q 6.78125 9.90625 6.78125 20.515625 
Q 6.78125 27.484375 10.78125 32.3125 
Q 14.796875 37.15625 21.921875 38.8125 
z
M 18.3125 54.390625 
Q 18.3125 48.734375 21.84375 45.5625 
Q 25.390625 42.390625 31.78125 42.390625 
Q 38.140625 42.390625 41.71875 45.5625 
Q 45.3125 48.734375 45.3125 54.390625 
Q 45.3125 60.0625 41.71875 63.234375 
Q 38.140625 66.40625 31.78125 66.40625 
Q 25.390625 66.40625 21.84375 63.234375 
Q 18.3125 60.0625 18.3125 54.390625 
z
" id="DejaVuSans-56"/>
       </defs>
       <use xlink:href="#DejaVuSans-8722"/>
       <use x="83.789062" xlink:href="#DejaVuSans-56"/>
      </g>
     </g>
    </g>
    <g id="ytick_2">
     <g id="line2d_11">
      <g>
       <use style="stroke:#000000;stroke-width:0.8;" x="54" xlink:href="#m022b0c7383" y="180.034687"/>
      </g>
     </g>
     <g id="text_12">
      <!-- −6 -->
      <g transform="translate(29.309375 184.593749)scale(0.12 -0.12)">
       <defs>
        <path d="M 33.015625 40.375 
Q 26.375 40.375 22.484375 35.828125 
Q 18.609375 31.296875 18.609375 23.390625 
Q 18.609375 15.53125 22.484375 10.953125 
Q 26.375 6.390625 33.015625 6.390625 
Q 39.65625 6.390625 43.53125 10.953125 
Q 47.40625 15.53125 47.40625 23.390625 
Q 47.40625 31.296875 43.53125 35.828125 
Q 39.65625 40.375 33.015625 40.375 
z
M 52.59375 71.296875 
L 52.59375 62.3125 
Q 48.875 64.0625 45.09375 64.984375 
Q 41.3125 65.921875 37.59375 65.921875 
Q 27.828125 65.921875 22.671875 59.328125 
Q 17.53125 52.734375 16.796875 39.40625 
Q 19.671875 43.65625 24.015625 45.921875 
Q 28.375 48.1875 33.59375 48.1875 
Q 44.578125 48.1875 50.953125 41.515625 
Q 57.328125 34.859375 57.328125 23.390625 
Q 57.328125 12.15625 50.6875 5.359375 
Q 44.046875 -1.421875 33.015625 -1.421875 
Q 20.359375 -1.421875 13.671875 8.265625 
Q 6.984375 17.96875 6.984375 36.375 
Q 6.984375 53.65625 15.1875 63.9375 
Q 23.390625 74.21875 37.203125 74.21875 
Q 40.921875 74.21875 44.703125 73.484375 
Q 48.484375 72.75 52.59375 71.296875 
z
" id="DejaVuSans-54"/>
       </defs>
       <use xlink:href="#DejaVuSans-8722"/>
       <use x="83.789062" xlink:href="#DejaVuSans-54"/>
      </g>
     </g>
    </g>
    <g id="ytick_3">
     <g id="line2d_12">
      <g>
       <use style="stroke:#000000;stroke-width:0.8;" x="54" xlink:href="#m022b0c7383" y="141.29439"/>
      </g>
     </g>
     <g id="text_13">
      <!-- −4 -->
      <g transform="translate(29.309375 145.853452)scale(0.12 -0.12)">
       <defs>
        <path d="M 37.796875 64.3125 
L 12.890625 25.390625 
L 37.796875 25.390625 
z
M 35.203125 72.90625 
L 47.609375 72.90625 
L 47.609375 25.390625 
L 58.015625 25.390625 
L 58.015625 17.1875 
L 47.609375 17.1875 
L 47.609375 0 
L 37.796875 0 
L 37.796875 17.1875 
L 4.890625 17.1875 
L 4.890625 26.703125 
z
" id="DejaVuSans-52"/>
       </defs>
       <use xlink:href="#DejaVuSans-8722"/>
       <use x="83.789062" xlink:href="#DejaVuSans-52"/>
      </g>
     </g>
    </g>
    <g id="ytick_4">
     <g id="line2d_13">
      <g>
       <use style="stroke:#000000;stroke-width:0.8;" x="54" xlink:href="#m022b0c7383" y="102.554093"/>
      </g>
     </g>
     <g id="text_14">
      <!-- −2 -->
      <g transform="translate(29.309375 107.113156)scale(0.12 -0.12)">
       <use xlink:href="#DejaVuSans-8722"/>
       <use x="83.789062" xlink:href="#DejaVuSans-50"/>
      </g>
     </g>
    </g>
    <g id="ytick_5">
     <g id="line2d_14">
      <g>
       <use style="stroke:#000000;stroke-width:0.8;" x="54" xlink:href="#m022b0c7383" y="63.813796"/>
      </g>
     </g>
     <g id="text_15">
      <!-- 0 -->
      <g transform="translate(39.365 68.372859)scale(0.12 -0.12)">
       <use xlink:href="#DejaVuSans-48"/>
      </g>
     </g>
    </g>
    <g id="text_16">
     <!-- Elastic load $F$ -->
     <g transform="translate(23.229687 176.38)rotate(-90)scale(0.1 -0.1)">
      <defs>
       <path d="M 9.8125 72.90625 
L 55.90625 72.90625 
L 55.90625 64.59375 
L 19.671875 64.59375 
L 19.671875 43.015625 
L 54.390625 43.015625 
L 54.390625 34.71875 
L 19.671875 34.71875 
L 19.671875 8.296875 
L 56.78125 8.296875 
L 56.78125 0 
L 9.8125 0 
z
" id="DejaVuSans-69"/>
       <path d="M 16.890625 72.90625 
L 58.6875 72.90625 
L 57.078125 64.59375 
L 25.09375 64.59375 
L 20.90625 43.109375 
L 49.8125 43.109375 
L 48.1875 34.8125 
L 19.28125 34.8125 
L 12.5 0 
L 2.6875 0 
z
" id="DejaVuSans-Oblique-70"/>
      </defs>
      <use transform="translate(0 0.015625)" xlink:href="#DejaVuSans-69"/>
      <use transform="translate(63.183594 0.015625)" xlink:href="#DejaVuSans-108"/>
      <use transform="translate(90.966797 0.015625)" xlink:href="#DejaVuSans-97"/>
      <use transform="translate(152.246094 0.015625)" xlink:href="#DejaVuSans-115"/>
      <use transform="translate(204.345703 0.015625)" xlink:href="#DejaVuSans-116"/>
      <use transform="translate(243.554688 0.015625)" xlink:href="#DejaVuSans-105"/>
      <use transform="translate(271.337891 0.015625)" xlink:href="#DejaVuSans-99"/>
      <use transform="translate(326.318359 0.015625)" xlink:href="#DejaVuSans-32"/>
      <use transform="translate(358.105469 0.015625)" xlink:href="#DejaVuSans-108"/>
      <use transform="translate(385.888672 0.015625)" xlink:href="#DejaVuSans-111"/>
      <use transform="translate(447.070312 0.015625)" xlink:href="#DejaVuSans-97"/>
      <use transform="translate(508.349609 0.015625)" xlink:href="#DejaVuSans-100"/>
      <use transform="translate(571.826172 0.015625)" xlink:href="#DejaVuSans-32"/>
      <use transform="translate(603.613281 0.015625)" xlink:href="#DejaVuSans-Oblique-70"/>
     </g>
    </g>
   </g>
   <g id="line2d_15">
    <path clip-path="url(#p7842ee6f75)" d="M 221.597102 63.83896 
L 221.41269 63.815487 
L 373.581428 83.184035 
L 372.697276 83.180752 
L 334.564065 82.901393 
L 312.083498 82.427926 
L 294.088965 81.876911 
L 283.481345 81.327165 
L 275.189561 80.683672 
L 267.597169 79.881392 
L 259.816295 78.819612 
L 252.872089 77.658812 
L 244.805708 76.066574 
L 236.631406 74.215589 
L 227.351048 71.888831 
L 219.245899 69.685126 
L 212.550801 67.728895 
L 198.278538 65.809638 
L 162.950111 60.591054 
L 158.704369 59.928472 
L 148.769732 59.55435 
L 141.558409 59.052317 
L 135.327764 58.404353 
L 128.533052 57.462591 
L 121.273377 56.218634 
L 112.345253 54.452016 
L 97.626762 51.279728 
L 84.727479 48.311343 
L 71.805999 45.064912 
L 69.218182 44.443677 
L 70.087236 44.5327 
L 76.657387 45.34319 
L 99.328756 48.244123 
L 127.055793 51.630628 
L 134.561283 52.254857 
L 141.558409 52.60309 
L 148.769732 52.720163 
L 157.023553 52.618254 
L 167.258278 52.485766 
L 191.680871 55.198412 
L 212.550801 57.755036 
L 220.202985 58.679627 
L 227.351048 60.374324 
L 238.683195 62.901423 
L 245.820605 64.283213 
L 253.871153 65.766153 
L 262.75479 67.715582 
L 271.418248 69.392488 
L 280.74818 70.962363 
L 291.487155 72.527597 
L 308.166859 74.691685 
L 363.485576 81.805891 
L 373.581428 83.184035 
L 373.581428 83.184035 
" style="fill:none;stroke:#172c4b;stroke-linecap:square;stroke-opacity:0.9;"/>
   </g>
   <g id="line2d_16">
    <path clip-path="url(#p7842ee6f75)" d="M 221.764307 63.860242 
L 221.473788 63.823264 
L 373.581472 83.184151 
L 373.137073 83.229696 
L 363.831531 84.240576 
L 359.26554 84.638576 
L 355.171501 84.78267 
L 350.57459 84.88939 
L 341.611452 85.660264 
L 334.42275 86.037776 
L 325.85026 86.231815 
L 307.191797 86.564895 
L 298.128426 87.002249 
L 277.574426 88.114462 
L 271.865742 88.161159 
L 266.020234 87.968137 
L 264.042401 87.932029 
L 260.044564 88.233365 
L 257.010754 88.261954 
L 253.948191 88.103268 
L 250.858553 87.745853 
L 247.743724 87.183179 
L 244.605792 86.413958 
L 241.447041 85.442288 
L 238.269942 84.27765 
L 234.009851 82.450689 
L 229.728509 80.355255 
L 226.508784 78.696387 
L 221.192956 76.596161 
L 215.409515 73.558048 
L 214.582364 73.574224 
L 210.44035 74.769138 
L 207.117037 75.49017 
L 203.782999 75.943397 
L 201.274586 76.083123 
L 198.759007 76.038684 
L 196.236121 75.804546 
L 193.706002 75.380627 
L 191.168945 74.772226 
L 187.77632 73.69279 
L 184.374072 72.34212 
L 180.111416 70.412597 
L 174.13601 69.348738 
L 165.619681 67.569811 
L 148.068433 63.830348 
L 138.40452 62.055544 
L 114.577985 57.864998 
L 107.842485 56.353249 
L 101.510599 54.707709 
L 94.50717 52.655785 
L 84.480254 49.455543 
L 69.218226 44.443658 
L 69.538087 44.478421 
L 84.928486 46.250379 
L 111.162388 49.655246 
L 119.511436 50.371522 
L 143.19522 52.221586 
L 150.532928 53.132659 
L 158.021375 54.3126 
L 167.318602 56.038847 
L 180.111416 58.424866 
L 186.076263 59.313137 
L 191.168945 59.861437 
L 196.236121 60.169153 
L 198.759007 60.313073 
L 201.274586 60.504813 
L 203.782999 60.512539 
L 206.284596 60.341199 
L 209.610431 59.853085 
L 211.269716 59.567291 
L 217.062889 58.837611 
L 225.434086 57.730835 
L 229.728509 57.243951 
L 230.800458 57.297099 
L 236.142979 60.226262 
L 240.38992 62.357731 
L 244.605792 64.23817 
L 248.784675 65.824476 
L 251.891329 66.804307 
L 254.972141 67.598111 
L 258.025296 68.20635 
L 261.049184 68.634846 
L 265.033109 68.945996 
L 268.959734 68.995416 
L 272.826835 68.832652 
L 276.632691 68.673374 
L 282.223912 69.161347 
L 284.965796 69.44816 
L 286.773629 69.958047 
L 290.340788 71.039473 
L 293.842901 71.90094 
L 297.279545 72.527057 
L 300.650274 72.915443 
L 303.954566 73.07669 
L 307.191797 73.033492 
L 311.14289 72.909142 
L 320.182479 74.530994 
L 339.293742 78.074031 
L 347.058535 79.204977 
L 355.603568 80.432952 
L 360.023797 81.306385 
L 364.762997 82.001695 
L 373.581472 83.184151 
L 373.581472 83.184151 
" style="fill:none;stroke:#172c4b;stroke-linecap:square;stroke-opacity:0.8;"/>
   </g>
   <g id="line2d_17">
    <path clip-path="url(#p7842ee6f75)" d="M 222.169877 63.911864 
L 221.493209 63.825736 
L 373.581492 83.184176 
L 373.291155 83.245958 
L 364.492003 85.18387 
L 360.331166 86.234181 
L 356.196254 87.032228 
L 354.968811 87.347675 
L 344.089481 90.491605 
L 339.68057 91.500528 
L 336.158953 92.098705 
L 333.083426 92.554807 
L 328.563017 93.766226 
L 325.18121 94.469608 
L 322.384117 94.867091 
L 319.505477 95.067227 
L 316.545003 95.025912 
L 315.033926 94.902347 
L 313.502172 95.191851 
L 307.976495 96.727511 
L 300.487309 99.070156 
L 288.870423 102.735594 
L 284.140596 104.012105 
L 279.262003 105.080585 
L 275.251778 105.7225 
L 271.146914 106.124523 
L 268.007178 106.242541 
L 264.816325 106.185206 
L 261.575879 105.938734 
L 258.287759 105.492094 
L 254.954291 104.837393 
L 251.578205 103.970192 
L 248.162641 102.889741 
L 244.711123 101.599125 
L 241.227547 100.105322 
L 236.540273 97.816747 
L 231.81442 95.222337 
L 227.061601 92.368307 
L 222.293974 89.309695 
L 221.1968 88.520198 
L 213.89704 81.182879 
L 213.084491 81.482281 
L 209.829503 83.376994 
L 207.382301 84.60386 
L 204.92916 85.625485 
L 202.469539 86.41271 
L 200.003107 86.942406 
L 197.529752 87.197951 
L 195.04959 87.169526 
L 192.562961 86.854215 
L 190.070427 86.255912 
L 187.572754 85.385061 
L 185.070895 84.258201 
L 182.565971 82.897376 
L 179.223493 80.765894 
L 175.881086 78.567984 
L 174.210994 77.623946 
L 170.042595 75.432045 
L 165.061334 72.510827 
L 157.655503 67.860751 
L 156.838784 67.741043 
L 152.776695 67.825192 
L 148.753611 67.668227 
L 144.773249 67.27386 
L 140.838738 66.663601 
L 136.181713 65.696499 
L 130.08921 64.324307 
L 124.141795 63.346271 
L 119.069494 62.286537 
L 114.134873 61.022913 
L 109.355407 59.57668 
L 104.109252 57.763877 
L 97.331144 55.171174 
L 94.438089 54.133877 
L 87.045205 51.666005 
L 80.808495 49.340944 
L 74.387646 46.687378 
L 69.218246 44.443667 
L 69.485645 44.471338 
L 76.468351 45.317621 
L 88.033627 46.681917 
L 103.471229 48.386892 
L 112.066406 49.828593 
L 118.355746 50.647331 
L 124.141795 51.175613 
L 126.354146 51.399073 
L 134.645711 52.477412 
L 145.565747 53.551072 
L 149.554919 53.685151 
L 153.586124 53.586287 
L 157.655503 53.238477 
L 160.113566 53.014133 
L 166.718578 53.87371 
L 175.045901 55.207239 
L 185.070895 56.832893 
L 188.405828 58.296661 
L 190.901885 59.18808 
L 193.392526 59.879033 
L 195.87705 60.353204 
L 198.35497 60.59937 
L 200.826019 60.611855 
L 203.290157 60.390808 
L 205.747571 59.94231 
L 208.198662 59.278289 
L 210.644039 58.416257 
L 213.084491 57.502035 
L 219.575873 56.657026 
L 223.486591 56.179034 
L 228.251676 55.699505 
L 229.440632 55.845275 
L 232.998876 57.021296 
L 243.55329 62.370041 
L 248.162641 64.326128 
L 252.708117 65.951588 
L 256.070325 67.000998 
L 259.388962 67.817522 
L 262.661428 68.399604 
L 265.885537 68.752046 
L 269.059501 68.885678 
L 272.181924 68.816824 
L 282.207065 71.34325 
L 286.996258 72.133483 
L 292.548336 72.772587 
L 299.627775 73.316094 
L 311.949635 74.220763 
L 318.035496 74.921353 
L 323.792848 75.805996 
L 331.817409 77.303622 
L 340.813465 78.949511 
L 345.658722 79.613441 
L 350.561652 80.044558 
L 356.595817 80.305199 
L 357.765938 80.457842 
L 361.694391 81.227937 
L 365.616288 81.7566 
L 368.331005 82.152772 
L 373.542938 83.17832 
L 373.581492 83.184176 
L 373.581492 83.184176 
" style="fill:none;stroke:#172c4b;stroke-linecap:square;stroke-opacity:0.7;"/>
   </g>
   <g id="line2d_18">
    <path clip-path="url(#p7842ee6f75)" d="M 222.418227 63.943475 
L 221.442728 63.819311 
L 373.581561 83.184471 
L 373.357613 83.258035 
L 369.046031 84.805226 
L 357.673818 89.111506 
L 355.2916 89.83936 
L 353.174465 90.258845 
L 352.736549 90.318077 
L 348.0892 92.205857 
L 346.092312 92.622704 
L 345.06394 92.825596 
L 305.00014 108.689473 
L 299.773559 110.349894 
L 295.245682 111.555945 
L 290.562143 112.55714 
L 285.785418 113.315187 
L 282.011328 113.723063 
L 280.082911 114.640871 
L 277.137389 116.092477 
L 274.127493 117.362156 
L 271.052648 118.413669 
L 267.912818 119.213114 
L 264.708555 119.729802 
L 261.441046 119.937091 
L 259.228457 119.892399 
L 256.989285 119.695252 
L 254.724386 119.341688 
L 252.434749 118.828985 
L 250.1215 118.155715 
L 246.610138 116.844942 
L 243.053277 115.178564 
L 239.456288 113.169159 
L 235.82508 110.836278 
L 232.166034 108.206182 
L 228.485916 105.311396 
L 223.558554 101.106607 
L 221.217225 98.885207 
L 220.48849 97.750797 
L 219.759688 96.829003 
L 214.651777 92.204214 
L 208.784531 86.794657 
L 192.325235 74.743694 
L 190.03416 74.306683 
L 184.642952 74.301717 
L 178.40865 74.058041 
L 172.108159 73.595171 
L 171.316749 73.524019 
L 170.524604 73.815571 
L 168.144159 75.049499 
L 165.758553 76.048036 
L 163.368934 76.776467 
L 160.97649 77.209568 
L 158.582449 77.33201 
L 156.18807 77.138449 
L 153.794635 76.633296 
L 151.403447 75.830202 
L 149.015831 74.75127 
L 146.633126 73.426027 
L 143.466175 71.33835 
L 141.10024 69.585398 
L 140.313639 69.223604 
L 131.745994 67.554001 
L 124.135024 65.829942 
L 117.480016 64.101258 
L 111.05719 62.216269 
L 104.252212 59.976311 
L 97.863132 57.645297 
L 90.843631 54.835347 
L 84.16485 51.922617 
L 77.464789 48.753626 
L 71.363476 45.615963 
L 69.218315 44.443699 
L 69.457041 44.471402 
L 98.481327 47.997301 
L 132.517438 52.410826 
L 157.784298 55.618991 
L 178.40865 58.296352 
L 185.416926 58.96782 
L 191.562857 59.329853 
L 196.871992 59.421716 
L 202.118923 59.283834 
L 207.310141 58.918036 
L 213.188804 58.252204 
L 219.759688 57.270124 
L 222.32484 56.909416 
L 233.388399 55.817732 
L 235.82508 55.80182 
L 245.42932 62.038853 
L 248.956409 63.845303 
L 252.434749 65.278295 
L 255.859993 66.620434 
L 259.228457 67.61631 
L 262.537143 68.294779 
L 265.783742 68.735352 
L 268.966627 68.867577 
L 272.084827 68.979202 
L 275.13799 69.882071 
L 278.12634 70.537481 
L 281.050615 70.951356 
L 283.912003 71.151461 
L 287.678247 71.139903 
L 291.511209 70.883582 
L 296.163763 70.363303 
L 300.66034 71.877517 
L 305.849301 73.368084 
L 310.813365 74.542882 
L 316.324281 75.583676 
L 322.261065 76.44813 
L 334.274065 78.06861 
L 342.404854 79.124931 
L 366.549431 82.104224 
L 372.934797 83.066258 
L 373.581561 83.184471 
L 373.581561 83.184471 
" style="fill:none;stroke:#172c4b;stroke-linecap:square;stroke-opacity:0.6;"/>
   </g>
   <g id="line2d_19">
    <path clip-path="url(#p7842ee6f75)" d="M 222.753047 63.986092 
L 221.399397 63.813795 
L 373.581574 83.184392 
L 373.411981 83.262612 
L 367.91239 85.928553 
L 363.843293 88.275894 
L 360.038823 90.402159 
L 357.513922 91.549789 
L 356.750569 91.864859 
L 354.347547 93.429182 
L 352.214466 94.54528 
L 350.421621 95.2411 
L 348.551176 95.708484 
L 346.602246 96.015119 
L 340.273033 99.074055 
L 331.927893 103.460723 
L 325.28284 108.101741 
L 314.928329 115.356348 
L 310.088424 118.503316 
L 305.862166 121.032956 
L 301.457005 123.409068 
L 297.802836 125.155913 
L 294.032888 126.731044 
L 290.147797 128.104103 
L 286.149025 129.247003 
L 282.038905 130.134406 
L 278.885149 130.618815 
L 275.672252 130.938862 
L 272.402198 131.087605 
L 269.07725 131.059294 
L 265.69995 130.849404 
L 262.273101 130.454651 
L 258.799765 129.873013 
L 255.283241 129.103727 
L 248.13493 127.290821 
L 245.722145 126.382854 
L 235.953172 121.908828 
L 231.015863 119.348481 
L 226.057445 116.518421 
L 222.331302 114.233269 
L 221.208637 113.442804 
L 217.393298 109.295664 
L 212.815028 103.957941 
L 206.710788 96.429549 
L 193.732528 80.265268 
L 192.203982 78.565028 
L 181.483255 75.956246 
L 173.794802 73.96563 
L 173.024312 74.408826 
L 169.939362 77.124596 
L 167.622628 78.892213 
L 165.303517 80.362205 
L 162.98232 81.486763 
L 161.433883 82.026572 
L 159.884827 82.3896 
L 158.335307 82.571175 
L 156.785502 82.569209 
L 155.235605 82.384163 
L 153.685832 82.018969 
L 152.136414 81.47892 
L 150.587603 80.771541 
L 148.266113 79.418221 
L 145.947571 77.750491 
L 143.633032 75.816277 
L 140.555172 73.134178 
L 137.489323 71.34757 
L 135.961856 70.485418 
L 129.145908 69.143715 
L 122.453888 67.598507 
L 115.928755 65.853181 
L 110.306297 64.133863 
L 104.887532 62.261658 
L 99.709743 60.25371 
L 94.221577 57.87567 
L 88.609387 55.176004 
L 77.309244 49.333864 
L 72.038105 46.213716 
L 69.218328 44.44369 
L 69.401755 44.464168 
L 82.202901 46.010724 
L 94.812084 47.399585 
L 100.342465 48.064267 
L 115.21603 50.019565 
L 147.492888 53.949944 
L 162.98232 54.98402 
L 170.711042 55.270858 
L 179.179788 55.339887 
L 189.910022 55.174503 
L 209.762926 54.828651 
L 227.298438 54.832791 
L 237.182947 54.897153 
L 238.410571 55.054394 
L 239.635882 55.515975 
L 243.296331 58.775995 
L 246.930242 61.641843 
L 249.336058 63.299789 
L 251.727052 64.736563 
L 254.102072 65.939601 
L 256.460001 66.899909 
L 258.799765 67.612174 
L 261.12033 68.074811 
L 263.420706 68.452638 
L 265.69995 68.775472 
L 269.07725 69.042244 
L 272.402198 69.596785 
L 275.672252 69.84849 
L 277.820662 69.900729 
L 279.943061 69.789991 
L 283.076713 69.383867 
L 286.149025 68.805402 
L 290.147797 67.765431 
L 292.104664 67.155935 
L 293.072367 67.098366 
L 297.802836 69.565852 
L 301.457005 71.234263 
L 304.995524 72.641016 
L 308.419215 73.802865 
L 312.539574 74.944417 
L 316.486664 75.788783 
L 321.001292 76.490434 
L 325.974471 77.008477 
L 334.422507 77.593202 
L 336.827728 77.799669 
L 342.464533 78.948651 
L 347.586583 79.762497 
L 352.650644 80.327891 
L 357.134588 80.822626 
L 362.337737 81.719961 
L 366.761868 82.244567 
L 372.274732 82.881239 
L 373.581574 83.184392 
L 373.581574 83.184392 
" style="fill:none;stroke:#172c4b;stroke-linecap:square;stroke-opacity:0.5;"/>
   </g>
   <g id="line2d_20">
    <path clip-path="url(#p7842ee6f75)" d="M 222.930216 64.008643 
L 221.42011 63.816432 
L 373.581646 83.184451 
L 373.480559 83.259226 
L 365.730405 88.97568 
L 363.005818 90.88213 
L 360.855219 92.133368 
L 360.20345 92.509185 
L 357.789574 94.541385 
L 355.936807 95.86092 
L 354.375662 96.751536 
L 353.157844 97.410097 
L 351.470221 98.441228 
L 349.708026 99.2161 
L 348.336312 99.595452 
L 346.920734 99.780344 
L 345.460377 99.756666 
L 343.954271 99.633535 
L 341.873187 100.130911 
L 340.800661 100.897925 
L 335.104317 105.601343 
L 328.816894 111.08786 
L 305.875797 131.43613 
L 301.388533 134.996087 
L 296.697973 138.419105 
L 292.797588 140.994689 
L 288.765404 143.368445 
L 285.655176 144.983324 
L 282.471903 146.430349 
L 279.216647 147.686236 
L 275.890854 148.728272 
L 272.496374 149.534743 
L 269.035466 150.085362 
L 267.86752 150.588806 
L 265.510813 151.854989 
L 263.127147 152.869761 
L 260.717545 153.616349 
L 258.365412 154.079887 
L 255.981227 154.247634 
L 253.559867 154.109188 
L 251.102922 153.656678 
L 248.612228 152.884942 
L 246.08986 151.791683 
L 243.538122 150.377597 
L 240.95953 148.646474 
L 238.3568 146.605258 
L 235.732828 144.264073 
L 233.090671 141.636206 
L 230.433523 138.73804 
L 229.100358 137.193536 
L 226.426959 135.109631 
L 222.405656 131.972749 
L 221.230339 130.876269 
L 217.847878 125.060041 
L 213.780202 117.500577 
L 198.63781 88.663449 
L 195.12014 82.742343 
L 194.412482 82.029042 
L 183.62209 79.00612 
L 176.243457 76.831679 
L 175.497777 77.080053 
L 172.501643 80.28813 
L 170.241053 82.409556 
L 167.969615 84.215384 
L 165.688063 85.654035 
L 164.161803 86.389455 
L 162.63166 86.935945 
L 161.097903 87.287903 
L 159.560814 87.442344 
L 158.020684 87.398848 
L 156.477821 87.159487 
L 154.932539 86.728718 
L 153.385165 86.113257 
L 151.836038 85.321928 
L 149.50982 83.829181 
L 147.181653 82.008714 
L 144.852802 79.911027 
L 141.748878 76.779839 
L 138.649324 73.525832 
L 137.102245 72.548331 
L 136.329571 72.248913 
L 130.176498 71.131186 
L 124.095694 69.812497 
L 118.120481 68.32221 
L 112.287394 66.626825 
L 106.636256 64.731125 
L 101.210029 62.653503 
L 96.054363 60.427746 
L 91.216847 58.103121 
L 86.215303 55.448716 
L 81.285333 52.575128 
L 76.36179 49.446083 
L 71.280885 45.944334 
L 69.2184 44.443709 
L 69.366742 44.457899 
L 77.874712 45.393015 
L 97.953042 47.996341 
L 121.840725 51.092596 
L 165.688063 56.425884 
L 176.243457 57.5164 
L 184.351888 58.12648 
L 190.852688 58.400448 
L 197.234791 58.437407 
L 202.816483 58.261418 
L 209.010109 57.83799 
L 215.815789 57.127389 
L 223.747004 56.236173 
L 242.252017 55.018803 
L 243.538122 55.127108 
L 244.81751 55.951262 
L 248.612228 59.438973 
L 251.102922 61.49356 
L 253.559867 63.307586 
L 255.981227 64.864446 
L 258.365412 66.15141 
L 260.717545 67.1598 
L 263.127147 67.885067 
L 265.510813 68.326812 
L 267.86752 68.6509 
L 271.349995 69.266347 
L 275.890854 69.848776 
L 281.394752 71.141877 
L 283.541052 71.307968 
L 285.655176 71.270532 
L 287.736828 71.049531 
L 289.785783 70.666294 
L 292.797588 69.836265 
L 295.735236 68.769216 
L 297.652482 67.964811 
L 298.598776 67.820789 
L 302.302146 69.755303 
L 305.875797 71.387236 
L 309.321796 72.747333 
L 313.453766 74.114357 
L 317.396245 75.169885 
L 321.886329 76.108723 
L 326.807743 76.866006 
L 332.037627 77.427896 
L 338.589947 77.890964 
L 349.255607 78.589444 
L 351.899048 79.670041 
L 354.375662 80.400327 
L 356.690948 80.834393 
L 359.194348 81.067273 
L 363.005818 81.333649 
L 365.476201 81.932706 
L 368.667979 82.431411 
L 373.581646 83.184451 
L 373.581646 83.184451 
" style="fill:none;stroke:#172c4b;stroke-linecap:square;stroke-opacity:0.4;"/>
   </g>
   <g id="line2d_21">
    <path clip-path="url(#p7842ee6f75)" d="M 223.089189 64.028877 
L 221.527684 63.830124 
L 373.581679 83.184854 
L 373.48982 83.272183 
L 372.834926 83.745128 
L 372.118759 83.995798 
L 371.671334 84.151504 
L 369.972243 85.103076 
L 368.147302 86.443552 
L 366.184473 88.153608 
L 364.180127 90.402464 
L 357.691757 97.990874 
L 356.610505 99.162193 
L 355.105029 100.808009 
L 353.524823 102.162498 
L 352.289445 102.929287 
L 351.010113 103.440789 
L 349.686034 103.66405 
L 348.316439 103.574341 
L 345.437733 105.897009 
L 342.893301 107.674483 
L 340.21306 109.296603 
L 336.812579 111.059888 
L 335.633361 111.725622 
L 331.954494 115.213483 
L 328.721798 118.57185 
L 325.345005 122.414874 
L 321.860121 126.793535 
L 318.196664 131.732053 
L 313.545045 138.379728 
L 310.277343 143.329112 
L 303.308134 154.223679 
L 298.638527 161.113199 
L 294.719481 166.504109 
L 291.670244 170.400615 
L 288.525282 174.113692 
L 285.283862 177.589766 
L 281.945875 180.774571 
L 279.667152 182.709212 
L 277.346093 184.474547 
L 274.983191 186.055137 
L 272.581851 187.436032 
L 270.157308 188.602917 
L 267.691307 189.55787 
L 265.184772 190.356415 
L 262.638825 191.069658 
L 260.05478 191.501422 
L 257.434145 191.623355 
L 254.778624 191.424621 
L 252.090103 190.896612 
L 249.370653 190.033133 
L 246.622516 188.830564 
L 243.8481 187.287993 
L 241.049961 185.407332 
L 238.230798 183.193389 
L 235.393433 180.653915 
L 232.540796 177.799603 
L 226.801876 171.545795 
L 222.480576 166.297128 
L 221.232173 164.438139 
L 218.556054 156.524369 
L 215.207675 145.775708 
L 209.833604 127.62743 
L 204.425217 109.500068 
L 201.020724 99.010425 
L 198.967235 93.28172 
L 196.215139 89.644991 
L 193.445433 86.445824 
L 192.053505 85.008203 
L 191.355695 84.637949 
L 181.44665 81.527031 
L 177.840504 80.346756 
L 177.114889 81.131183 
L 174.929266 83.966431 
L 172.730547 86.491355 
L 170.518915 88.623999 
L 169.037457 89.794412 
L 167.550498 90.745151 
L 164.560635 92.189609 
L 163.058062 92.775253 
L 161.550652 93.127263 
L 160.038623 93.239192 
L 158.522215 93.111047 
L 157.001687 92.745786 
L 155.477317 92.149202 
L 153.949403 91.329786 
L 152.418262 90.29856 
L 150.116234 88.38438 
L 147.808898 86.077934 
L 145.497538 83.441789 
L 142.411824 79.534456 
L 138.553271 74.267325 
L 137.781939 73.928458 
L 131.625958 72.878397 
L 125.519391 71.62916 
L 119.497463 70.175273 
L 113.598328 68.510239 
L 108.569614 66.877427 
L 103.695947 65.083503 
L 99.008682 63.139545 
L 94.540832 61.066884 
L 89.747496 58.583344 
L 85.338187 56.043011 
L 80.902254 53.224067 
L 76.709554 50.304799 
L 72.306405 46.96204 
L 69.218433 44.443691 
L 69.322614 44.454611 
L 82.314936 45.999785 
L 93.922468 47.311295 
L 103.695947 48.414503 
L 130.093358 51.691199 
L 164.560635 56.123334 
L 172.730547 56.848129 
L 180.008568 57.267454 
L 187.141782 57.44979 
L 194.139594 57.415131 
L 202.38508 57.140489 
L 211.85206 56.585789 
L 226.801876 55.611593 
L 243.8481 54.864295 
L 248.000024 55.294744 
L 252.090103 59.204631 
L 254.778624 61.481449 
L 257.434145 63.465044 
L 260.05478 65.137427 
L 262.638825 66.48575 
L 265.184772 67.502463 
L 267.691307 68.185365 
L 270.157308 68.665237 
L 272.581851 68.877495 
L 276.169836 68.922834 
L 278.511888 69.112437 
L 280.811831 69.087204 
L 283.069247 68.859286 
L 286.375073 68.380902 
L 289.584296 68.033161 
L 290.632608 67.854384 
L 291.670244 67.98695 
L 293.713636 68.877932 
L 295.714829 69.57502 
L 296.699741 69.855262 
L 303.308134 73.215897 
L 305.991932 74.141031 
L 308.590648 74.789664 
L 311.107302 75.204991 
L 314.340646 75.469853 
L 317.441329 75.49364 
L 321.860121 75.269938 
L 328.056445 74.824414 
L 330.033527 75.153994 
L 334.430819 76.121376 
L 340.21306 77.667973 
L 346.90058 79.450937 
L 350.573764 80.178602 
L 353.524823 80.542486 
L 362.512081 81.382626 
L 364.704487 81.685465 
L 371.028396 82.357449 
L 373.581679 83.184854 
L 373.581679 83.184854 
" style="fill:none;stroke:#172c4b;stroke-linecap:square;stroke-opacity:0.3;"/>
   </g>
   <g id="line2d_22">
    <path clip-path="url(#p7842ee6f75)" d="M 223.578196 64.09112 
L 221.407684 63.81485 
L 373.581734 83.184762 
L 373.515111 83.269336 
L 372.84513 83.968464 
L 372.030621 84.742139 
L 370.157385 87.047474 
L 366.863007 91.134718 
L 363.553832 94.69606 
L 359.196254 98.772883 
L 357.820791 99.644989 
L 357.46543 99.828103 
L 353.646733 104.197122 
L 351.978311 105.557597 
L 350.671812 106.350344 
L 349.317024 106.916528 
L 347.913194 107.232978 
L 346.459707 107.321782 
L 344.443691 108.198983 
L 342.337852 108.81862 
L 340.141852 109.376776 
L 333.102196 113.722021 
L 330.010044 115.933861 
L 327.442995 118.017676 
L 324.78875 120.460896 
L 323.427386 122.268421 
L 320.632474 126.475075 
L 317.735567 131.253717 
L 314.728858 136.597789 
L 310.802706 144.025806 
L 304.089023 157.349387 
L 296.775003 171.73832 
L 292.869862 178.992693 
L 288.789121 186.067661 
L 285.609923 191.146742 
L 282.327266 195.941819 
L 278.940415 200.370635 
L 276.624665 203.078932 
L 274.263633 205.563581 
L 271.880512 207.800888 
L 269.449995 209.767883 
L 266.9728 211.442562 
L 264.449893 212.804144 
L 261.882485 213.83333 
L 259.272043 214.512568 
L 256.620277 214.826315 
L 253.929143 214.76129 
L 251.200834 214.306724 
L 248.437772 213.454585 
L 245.642598 212.199792 
L 242.818153 210.540395 
L 239.96747 208.477722 
L 237.093751 206.016502 
L 234.20035 203.164925 
L 231.290752 199.934679 
L 228.368548 196.340919 
L 225.437417 192.402199 
L 222.501095 188.140338 
L 221.242167 185.895901 
L 218.725833 176.242397 
L 215.576113 162.94967 
L 211.149217 143.035382 
L 206.049071 120.270649 
L 202.830989 106.992144 
L 200.235943 97.272277 
L 198.930821 93.003599 
L 198.276249 91.201926 
L 197.620296 89.738114 
L 189.631397 87.076028 
L 179.303474 83.381894 
L 177.89593 82.862583 
L 177.189453 83.172037 
L 174.34564 85.754749 
L 172.194216 87.405403 
L 170.027236 88.736199 
L 168.574148 89.418954 
L 167.114481 89.923372 
L 165.648403 90.239917 
L 164.176096 90.361875 
L 163.437668 90.348557 
L 162.697759 90.461074 
L 161.213605 90.922646 
L 159.723862 91.170982 
L 158.228774 91.206659 
L 156.728595 91.032766 
L 155.223593 90.654766 
L 153.714047 90.080337 
L 152.200249 89.319192 
L 149.922242 87.853111 
L 147.636413 86.03894 
L 145.343882 84.120627 
L 144.578416 83.494034 
L 142.27878 82.403512 
L 139.975262 81.306564 
L 137.66917 79.972578 
L 134.592756 77.870165 
L 131.517665 75.462205 
L 129.981763 74.167481 
L 128.447604 73.839821 
L 123.09931 72.844142 
L 117.80276 71.620975 
L 113.32478 70.373185 
L 108.924552 68.932467 
L 104.623845 67.299556 
L 100.446501 65.485744 
L 96.418187 63.513671 
L 91.943052 61.058466 
L 87.75219 58.504335 
L 81.357874 54.264792 
L 77.326755 51.304548 
L 73.419838 48.154075 
L 69.387831 44.600271 
L 69.218488 44.443636 
L 69.387831 44.460155 
L 79.479075 45.598254 
L 108.200237 49.12472 
L 121.579598 50.985852 
L 139.206784 53.170275 
L 172.913103 57.159066 
L 180.703788 57.792864 
L 187.597555 58.126387 
L 194.318826 58.212633 
L 200.886556 58.066115 
L 207.96791 57.675719 
L 215.576113 57.032454 
L 223.969669 56.288056 
L 245.642598 55.096899 
L 247.044026 55.012273 
L 249.823487 55.111972 
L 251.200834 55.384396 
L 255.279499 57.590088 
L 257.951209 60.012546 
L 260.582542 62.336957 
L 263.171666 64.345954 
L 265.716991 66.026813 
L 268.217178 67.372097 
L 270.671139 68.379672 
L 273.078033 69.052598 
L 275.44952 69.398931 
L 280.080952 69.770716 
L 282.327266 70.333164 
L 284.527253 70.676778 
L 286.681091 70.812084 
L 288.789121 70.751666 
L 290.851834 70.509888 
L 292.869862 70.102601 
L 295.814807 69.218853 
L 298.663949 68.062139 
L 299.592961 68.104374 
L 302.319817 68.970542 
L 304.959467 69.491581 
L 307.51601 69.722761 
L 309.993639 69.728432 
L 313.181633 69.491741 
L 317.735567 68.881996 
L 323.427386 68.156364 
L 326.127063 68.00347 
L 328.092758 68.076051 
L 328.737145 68.134129 
L 330.010044 68.727939 
L 333.102196 70.490849 
L 339.010022 74.228633 
L 343.402029 76.915073 
L 345.964092 78.268331 
L 348.386627 79.304658 
L 350.671812 80.008405 
L 352.822913 80.397319 
L 354.844177 80.517261 
L 355.996671 80.623943 
L 357.820791 80.998366 
L 373.581734 83.184762 
L 373.581734 83.184762 
" style="fill:none;stroke:#172c4b;stroke-linecap:square;stroke-opacity:0.2;"/>
   </g>
   <g id="line2d_23">
    <path clip-path="url(#p7842ee6f75)" d="M 223.65361 64.100719 
L 221.667923 63.847974 
L 373.581818 83.185298 
L 373.521769 83.267629 
L 372.984131 83.838018 
L 372.373591 84.427772 
L 370.785186 86.352023 
L 368.704593 89.253507 
L 361.255817 100.397993 
L 359.705305 102.957395 
L 357.008498 106.834084 
L 355.557128 108.501333 
L 353.246328 110.589549 
L 352.028855 111.335457 
L 350.768694 111.785406 
L 350.338967 111.864711 
L 349.904334 112.28216 
L 344.785815 119.685014 
L 340.646172 125.292243 
L 331.798764 136.923308 
L 326.416435 147.900515 
L 307.805634 186.496571 
L 303.060799 195.548358 
L 299.070509 202.699698 
L 294.90464 209.647338 
L 291.664361 214.649681 
L 288.324927 219.411839 
L 284.887102 223.876356 
L 281.352256 227.984675 
L 278.942753 230.496616 
L 276.49176 232.806825 
L 274.000162 234.898305 
L 271.468975 236.754491 
L 268.899349 238.359402 
L 266.292564 239.697797 
L 263.650032 240.755337 
L 260.97329 241.518747 
L 258.264005 241.975978 
L 255.523959 242.116364 
L 252.755056 241.93077 
L 249.959307 241.41174 
L 247.13883 240.553627 
L 244.295837 239.352711 
L 241.432634 237.807299 
L 238.551606 235.917813 
L 235.655209 233.686851 
L 232.745966 231.119226 
L 229.826448 228.221987 
L 226.899271 225.004404 
L 223.967083 221.477938 
L 222.499943 219.60304 
L 221.258423 217.65618 
L 219.001596 209.191235 
L 216.73883 199.756902 
L 213.893728 186.866682 
L 209.279712 164.616825 
L 203.959436 139.020958 
L 202.148841 130.806419 
L 198.465291 124.036006 
L 192.773995 113.045387 
L 188.205121 104.262096 
L 182.149688 94.470367 
L 180.087394 91.255699 
L 179.395252 91.172769 
L 177.304989 94.432425 
L 175.900178 96.328928 
L 174.486544 97.974586 
L 173.064284 99.348667 
L 171.633599 100.434636 
L 170.194697 101.220212 
L 168.747788 101.697372 
L 167.293087 101.862336 
L 165.830813 101.715506 
L 164.36119 101.261377 
L 162.884444 100.561149 
L 161.400807 100.245406 
L 159.910515 99.656455 
L 158.41381 98.80435 
L 156.910943 97.702076 
L 152.367971 93.756629 
L 150.078863 91.336025 
L 147.779342 88.560912 
L 144.699001 84.428734 
L 140.829539 78.815607 
L 139.277062 76.502702 
L 138.500024 75.83162 
L 132.272009 75.140455 
L 126.822992 74.320178 
L 121.399972 73.279652 
L 116.03101 72.005366 
L 111.495975 70.720143 
L 107.045905 69.253817 
L 102.704747 67.607208 
L 98.498302 65.785943 
L 94.454123 63.802228 
L 90.60136 61.676875 
L 86.970494 59.441241 
L 83.056895 56.752092 
L 79.53864 54.062258 
L 76.065603 51.129638 
L 72.647394 47.95023 
L 69.218572 44.443655 
L 73.558626 44.981832 
L 126.046068 51.598498 
L 148.546941 54.448916 
L 174.486544 57.705957 
L 190.178505 59.711585 
L 195.960996 60.212357 
L 197.842939 60.334959 
L 200.930446 61.034113 
L 203.358121 61.387249 
L 205.750583 61.531729 
L 208.110711 61.454066 
L 210.441978 61.151111 
L 212.748419 60.63028 
L 215.034567 59.909125 
L 217.871301 58.767287 
L 219.001596 58.412341 
L 221.258423 57.893021 
L 229.826448 57.060793 
L 245.720006 55.617394 
L 249.959307 55.697648 
L 254.142992 56.755522 
L 256.897711 59.747855 
L 259.622607 62.324913 
L 262.315836 64.461559 
L 264.975673 66.140407 
L 267.600516 67.352014 
L 270.18889 68.094874 
L 271.468975 68.292188 
L 272.739448 68.375254 
L 274.000162 68.659201 
L 276.49176 69.379412 
L 278.942753 69.834847 
L 281.352256 69.995097 
L 283.719514 69.840437 
L 286.043904 69.392652 
L 288.324927 68.676834 
L 291.664361 67.365318 
L 294.90464 66.516185 
L 298.045568 66.127061 
L 301.08748 65.45454 
L 304.031197 64.544413 
L 306.877976 63.541071 
L 309.629458 66.386138 
L 312.287621 68.818295 
L 314.854721 70.870834 
L 317.333242 72.579317 
L 319.725846 73.98054 
L 322.035324 75.111575 
L 324.990294 76.262224 
L 327.809501 77.079845 
L 330.499825 77.640423 
L 333.691694 78.081798 
L 337.863219 78.40828 
L 349.904334 79.154399 
L 350.768694 79.37198 
L 353.246328 80.035061 
L 355.926552 80.496902 
L 358.390681 80.914299 
L 363.528249 81.828736 
L 369.408006 82.618078 
L 373.581818 83.185298 
L 373.581818 83.185298 
" style="fill:none;stroke:#172c4b;stroke-linecap:square;stroke-opacity:0.1;"/>
   </g>
   <g id="line2d_24">
    <path clip-path="url(#p7842ee6f75)" d="M 221.399405 63.813796 
L 373.581028 83.183945 
L 349.844421 80.274102 
L 268.244016 70.127019 
L 186.071115 59.683627 
L 103.903861 49.015072 
L 69.218534 44.44374 
L 79.40294 45.689926 
L 160.68421 55.760039 
L 242.152387 66.075102 
L 324.079433 76.67219 
L 373.581028 83.183945 
L 373.581028 83.183945 
" style="fill:none;stroke:#3b65ac;stroke-dasharray:5.55,2.4;stroke-dashoffset:0;stroke-width:1.5;"/>
   </g>
   <g id="line2d_25">
    <path clip-path="url(#p7842ee6f75)" d="M 221.399405 63.813796 
L 373.581028 83.183945 
L 69.218534 44.443744 
L 373.581028 83.183945 
" style="fill:none;stroke:#cba74e;stroke-dasharray:9.6,2.4,1.5,2.4;stroke-dashoffset:0;stroke-width:1.5;"/>
   </g>
   <g id="patch_3">
    <path d="M 54 252 
L 54 34.56 
" style="fill:none;stroke:#000000;stroke-linecap:square;stroke-linejoin:miter;stroke-width:0.8;"/>
   </g>
   <g id="patch_4">
    <path d="M 388.8 252 
L 388.8 34.56 
" style="fill:none;stroke:#000000;stroke-linecap:square;stroke-linejoin:miter;stroke-width:0.8;"/>
   </g>
   <g id="patch_5">
    <path d="M 54 252 
L 388.8 252 
" style="fill:none;stroke:#000000;stroke-linecap:square;stroke-linejoin:miter;stroke-width:0.8;"/>
   </g>
   <g id="patch_6">
    <path d="M 54 34.56 
L 388.8 34.56 
" style="fill:none;stroke:#000000;stroke-linecap:square;stroke-linejoin:miter;stroke-width:0.8;"/>
   </g>
   <g id="text_17">
    <!-- Work loop: Nonlinear Oscillator (lower bound) -->
    <g transform="translate(84.604688 28.56)scale(0.12 -0.12)">
     <defs>
      <path d="M 3.328125 72.90625 
L 13.28125 72.90625 
L 28.609375 11.28125 
L 43.890625 72.90625 
L 54.984375 72.90625 
L 70.3125 11.28125 
L 85.59375 72.90625 
L 95.609375 72.90625 
L 77.296875 0 
L 64.890625 0 
L 49.515625 63.28125 
L 33.984375 0 
L 21.578125 0 
z
" id="DejaVuSans-87"/>
      <path d="M 41.109375 46.296875 
Q 39.59375 47.171875 37.8125 47.578125 
Q 36.03125 48 33.890625 48 
Q 26.265625 48 22.1875 43.046875 
Q 18.109375 38.09375 18.109375 28.8125 
L 18.109375 0 
L 9.078125 0 
L 9.078125 54.6875 
L 18.109375 54.6875 
L 18.109375 46.1875 
Q 20.953125 51.171875 25.484375 53.578125 
Q 30.03125 56 36.53125 56 
Q 37.453125 56 38.578125 55.875 
Q 39.703125 55.765625 41.0625 55.515625 
z
" id="DejaVuSans-114"/>
      <path d="M 9.078125 75.984375 
L 18.109375 75.984375 
L 18.109375 31.109375 
L 44.921875 54.6875 
L 56.390625 54.6875 
L 27.390625 29.109375 
L 57.625 0 
L 45.90625 0 
L 18.109375 26.703125 
L 18.109375 0 
L 9.078125 0 
z
" id="DejaVuSans-107"/>
      <path d="M 18.109375 8.203125 
L 18.109375 -20.796875 
L 9.078125 -20.796875 
L 9.078125 54.6875 
L 18.109375 54.6875 
L 18.109375 46.390625 
Q 20.953125 51.265625 25.265625 53.625 
Q 29.59375 56 35.59375 56 
Q 45.5625 56 51.78125 48.09375 
Q 58.015625 40.1875 58.015625 27.296875 
Q 58.015625 14.40625 51.78125 6.484375 
Q 45.5625 -1.421875 35.59375 -1.421875 
Q 29.59375 -1.421875 25.265625 0.953125 
Q 20.953125 3.328125 18.109375 8.203125 
z
M 48.6875 27.296875 
Q 48.6875 37.203125 44.609375 42.84375 
Q 40.53125 48.484375 33.40625 48.484375 
Q 26.265625 48.484375 22.1875 42.84375 
Q 18.109375 37.203125 18.109375 27.296875 
Q 18.109375 17.390625 22.1875 11.75 
Q 26.265625 6.109375 33.40625 6.109375 
Q 40.53125 6.109375 44.609375 11.75 
Q 48.6875 17.390625 48.6875 27.296875 
z
" id="DejaVuSans-112"/>
      <path d="M 11.71875 12.40625 
L 22.015625 12.40625 
L 22.015625 0 
L 11.71875 0 
z
M 11.71875 51.703125 
L 22.015625 51.703125 
L 22.015625 39.3125 
L 11.71875 39.3125 
z
" id="DejaVuSans-58"/>
      <path d="M 9.8125 72.90625 
L 23.09375 72.90625 
L 55.421875 11.921875 
L 55.421875 72.90625 
L 64.984375 72.90625 
L 64.984375 0 
L 51.703125 0 
L 19.390625 60.984375 
L 19.390625 0 
L 9.8125 0 
z
" id="DejaVuSans-78"/>
      <path d="M 39.40625 66.21875 
Q 28.65625 66.21875 22.328125 58.203125 
Q 16.015625 50.203125 16.015625 36.375 
Q 16.015625 22.609375 22.328125 14.59375 
Q 28.65625 6.59375 39.40625 6.59375 
Q 50.140625 6.59375 56.421875 14.59375 
Q 62.703125 22.609375 62.703125 36.375 
Q 62.703125 50.203125 56.421875 58.203125 
Q 50.140625 66.21875 39.40625 66.21875 
z
M 39.40625 74.21875 
Q 54.734375 74.21875 63.90625 63.9375 
Q 73.09375 53.65625 73.09375 36.375 
Q 73.09375 19.140625 63.90625 8.859375 
Q 54.734375 -1.421875 39.40625 -1.421875 
Q 24.03125 -1.421875 14.8125 8.828125 
Q 5.609375 19.09375 5.609375 36.375 
Q 5.609375 53.65625 14.8125 63.9375 
Q 24.03125 74.21875 39.40625 74.21875 
z
" id="DejaVuSans-79"/>
      <path d="M 31 75.875 
Q 24.46875 64.65625 21.28125 53.65625 
Q 18.109375 42.671875 18.109375 31.390625 
Q 18.109375 20.125 21.3125 9.0625 
Q 24.515625 -2 31 -13.1875 
L 23.1875 -13.1875 
Q 15.875 -1.703125 12.234375 9.375 
Q 8.59375 20.453125 8.59375 31.390625 
Q 8.59375 42.28125 12.203125 53.3125 
Q 15.828125 64.359375 23.1875 75.875 
z
" id="DejaVuSans-40"/>
      <path d="M 4.203125 54.6875 
L 13.1875 54.6875 
L 24.421875 12.015625 
L 35.59375 54.6875 
L 46.1875 54.6875 
L 57.421875 12.015625 
L 68.609375 54.6875 
L 77.59375 54.6875 
L 63.28125 0 
L 52.6875 0 
L 40.921875 44.828125 
L 29.109375 0 
L 18.5 0 
z
" id="DejaVuSans-119"/>
      <path d="M 48.6875 27.296875 
Q 48.6875 37.203125 44.609375 42.84375 
Q 40.53125 48.484375 33.40625 48.484375 
Q 26.265625 48.484375 22.1875 42.84375 
Q 18.109375 37.203125 18.109375 27.296875 
Q 18.109375 17.390625 22.1875 11.75 
Q 26.265625 6.109375 33.40625 6.109375 
Q 40.53125 6.109375 44.609375 11.75 
Q 48.6875 17.390625 48.6875 27.296875 
z
M 18.109375 46.390625 
Q 20.953125 51.265625 25.265625 53.625 
Q 29.59375 56 35.59375 56 
Q 45.5625 56 51.78125 48.09375 
Q 58.015625 40.1875 58.015625 27.296875 
Q 58.015625 14.40625 51.78125 6.484375 
Q 45.5625 -1.421875 35.59375 -1.421875 
Q 29.59375 -1.421875 25.265625 0.953125 
Q 20.953125 3.328125 18.109375 8.203125 
L 18.109375 0 
L 9.078125 0 
L 9.078125 75.984375 
L 18.109375 75.984375 
z
" id="DejaVuSans-98"/>
      <path d="M 8.5 21.578125 
L 8.5 54.6875 
L 17.484375 54.6875 
L 17.484375 21.921875 
Q 17.484375 14.15625 20.5 10.265625 
Q 23.53125 6.390625 29.59375 6.390625 
Q 36.859375 6.390625 41.078125 11.03125 
Q 45.3125 15.671875 45.3125 23.6875 
L 45.3125 54.6875 
L 54.296875 54.6875 
L 54.296875 0 
L 45.3125 0 
L 45.3125 8.40625 
Q 42.046875 3.421875 37.71875 1 
Q 33.40625 -1.421875 27.6875 -1.421875 
Q 18.265625 -1.421875 13.375 4.4375 
Q 8.5 10.296875 8.5 21.578125 
z
M 31.109375 56 
z
" id="DejaVuSans-117"/>
      <path d="M 8.015625 75.875 
L 15.828125 75.875 
Q 23.140625 64.359375 26.78125 53.3125 
Q 30.421875 42.28125 30.421875 31.390625 
Q 30.421875 20.453125 26.78125 9.375 
Q 23.140625 -1.703125 15.828125 -13.1875 
L 8.015625 -13.1875 
Q 14.5 -2 17.703125 9.0625 
Q 20.90625 20.125 20.90625 31.390625 
Q 20.90625 42.671875 17.703125 53.65625 
Q 14.5 64.65625 8.015625 75.875 
z
" id="DejaVuSans-41"/>
     </defs>
     <use xlink:href="#DejaVuSans-87"/>
     <use x="93.001953" xlink:href="#DejaVuSans-111"/>
     <use x="154.183594" xlink:href="#DejaVuSans-114"/>
     <use x="195.296875" xlink:href="#DejaVuSans-107"/>
     <use x="253.207031" xlink:href="#DejaVuSans-32"/>
     <use x="284.994141" xlink:href="#DejaVuSans-108"/>
     <use x="312.777344" xlink:href="#DejaVuSans-111"/>
     <use x="373.958984" xlink:href="#DejaVuSans-111"/>
     <use x="435.140625" xlink:href="#DejaVuSans-112"/>
     <use x="498.617188" xlink:href="#DejaVuSans-58"/>
     <use x="532.308594" xlink:href="#DejaVuSans-32"/>
     <use x="564.095703" xlink:href="#DejaVuSans-78"/>
     <use x="638.900391" xlink:href="#DejaVuSans-111"/>
     <use x="700.082031" xlink:href="#DejaVuSans-110"/>
     <use x="763.460938" xlink:href="#DejaVuSans-108"/>
     <use x="791.244141" xlink:href="#DejaVuSans-105"/>
     <use x="819.027344" xlink:href="#DejaVuSans-110"/>
     <use x="882.40625" xlink:href="#DejaVuSans-101"/>
     <use x="943.929688" xlink:href="#DejaVuSans-97"/>
     <use x="1005.208984" xlink:href="#DejaVuSans-114"/>
     <use x="1046.322266" xlink:href="#DejaVuSans-32"/>
     <use x="1078.109375" xlink:href="#DejaVuSans-79"/>
     <use x="1156.820312" xlink:href="#DejaVuSans-115"/>
     <use x="1208.919922" xlink:href="#DejaVuSans-99"/>
     <use x="1263.900391" xlink:href="#DejaVuSans-105"/>
     <use x="1291.683594" xlink:href="#DejaVuSans-108"/>
     <use x="1319.466797" xlink:href="#DejaVuSans-108"/>
     <use x="1347.25" xlink:href="#DejaVuSans-97"/>
     <use x="1408.529297" xlink:href="#DejaVuSans-116"/>
     <use x="1447.738281" xlink:href="#DejaVuSans-111"/>
     <use x="1508.919922" xlink:href="#DejaVuSans-114"/>
     <use x="1550.033203" xlink:href="#DejaVuSans-32"/>
     <use x="1581.820312" xlink:href="#DejaVuSans-40"/>
     <use x="1620.833984" xlink:href="#DejaVuSans-108"/>
     <use x="1648.617188" xlink:href="#DejaVuSans-111"/>
     <use x="1709.798828" xlink:href="#DejaVuSans-119"/>
     <use x="1791.585938" xlink:href="#DejaVuSans-101"/>
     <use x="1853.109375" xlink:href="#DejaVuSans-114"/>
     <use x="1894.222656" xlink:href="#DejaVuSans-32"/>
     <use x="1926.009766" xlink:href="#DejaVuSans-98"/>
     <use x="1989.486328" xlink:href="#DejaVuSans-111"/>
     <use x="2050.667969" xlink:href="#DejaVuSans-117"/>
     <use x="2114.046875" xlink:href="#DejaVuSans-110"/>
     <use x="2177.425781" xlink:href="#DejaVuSans-100"/>
     <use x="2240.902344" xlink:href="#DejaVuSans-41"/>
    </g>
   </g>
  </g>
 </g>
 <defs>
  <clipPath id="p7842ee6f75">
   <rect height="217.44" width="334.8" x="54" y="34.56"/>
  </clipPath>
 </defs>
</svg>
