<?xml version="1.0" encoding="utf-8" standalone="no"?>
<!DOCTYPE svg PUBLIC "-//W3C//DTD SVG 1.1//EN"
  "http://www.w3.org/Graphics/SVG/1.1/DTD/svg11.dtd">
<!-- Created with matplotlib (https://matplotlib.org/) -->
<svg height="288pt" version="1.1" viewBox="0 0 432 288" width="432pt" xmlns="http://www.w3.org/2000/svg" xmlns:xlink="http://www.w3.org/1999/xlink">
 <metadata>
  <rdf:RDF xmlns:cc="http://creativecommons.org/ns#" xmlns:dc="http://purl.org/dc/elements/1.1/" xmlns:rdf="http://www.w3.org/1999/02/22-rdf-syntax-ns#">
   <cc:Work>
    <dc:type rdf:resource="http://purl.org/dc/dcmitype/StillImage"/>
    <dc:date>2024-08-27T12:17:53.917199</dc:date>
    <dc:format>image/svg+xml</dc:format>
    <dc:creator>
     <cc:Agent>
      <dc:title>Matplotlib v3.3.4, https://matplotlib.org/</dc:title>
     </cc:Agent>
    </dc:creator>
   </cc:Work>
  </rdf:RDF>
 </metadata>
 <defs>
  <style type="text/css">*{stroke-linecap:butt;stroke-linejoin:round;}</style>
 </defs>
 <g id="figure_1">
  <g id="patch_1">
   <path d="M 0 288 
L 432 288 
L 432 0 
L 0 0 
z
" style="fill:none;"/>
  </g>
  <g id="axes_1">
   <g id="patch_2">
    <path d="M 54 252 
L 388.8 252 
L 388.8 34.56 
L 54 34.56 
z
" style="fill:#ffffff;"/>
   </g>
   <g id="matplotlib.axis_1">
    <g id="xtick_1">
     <g id="line2d_1">
      <defs>
       <path d="M 0 0 
L 0 3.5 
" id="m5fdb9b6caf" style="stroke:#000000;stroke-width:0.8;"/>
      </defs>
      <g>
       <use style="stroke:#000000;stroke-width:0.8;" x="69.217975" xlink:href="#m5fdb9b6caf" y="252"/>
      </g>
     </g>
     <g id="text_1">
      <!-- −1.00 -->
      <g transform="translate(50.830788 268.118125)scale(0.12 -0.12)">
       <defs>
        <path d="M 10.59375 35.5 
L 73.1875 35.5 
L 73.1875 27.203125 
L 10.59375 27.203125 
z
" id="DejaVuSans-8722"/>
        <path d="M 12.40625 8.296875 
L 28.515625 8.296875 
L 28.515625 63.921875 
L 10.984375 60.40625 
L 10.984375 69.390625 
L 28.421875 72.90625 
L 38.28125 72.90625 
L 38.28125 8.296875 
L 54.390625 8.296875 
L 54.390625 0 
L 12.40625 0 
z
" id="DejaVuSans-49"/>
        <path d="M 10.6875 12.40625 
L 21 12.40625 
L 21 0 
L 10.6875 0 
z
" id="DejaVuSans-46"/>
        <path d="M 31.78125 66.40625 
Q 24.171875 66.40625 20.328125 58.90625 
Q 16.5 51.421875 16.5 36.375 
Q 16.5 21.390625 20.328125 13.890625 
Q 24.171875 6.390625 31.78125 6.390625 
Q 39.453125 6.390625 43.28125 13.890625 
Q 47.125 21.390625 47.125 36.375 
Q 47.125 51.421875 43.28125 58.90625 
Q 39.453125 66.40625 31.78125 66.40625 
z
M 31.78125 74.21875 
Q 44.046875 74.21875 50.515625 64.515625 
Q 56.984375 54.828125 56.984375 36.375 
Q 56.984375 17.96875 50.515625 8.265625 
Q 44.046875 -1.421875 31.78125 -1.421875 
Q 19.53125 -1.421875 13.0625 8.265625 
Q 6.59375 17.96875 6.59375 36.375 
Q 6.59375 54.828125 13.0625 64.515625 
Q 19.53125 74.21875 31.78125 74.21875 
z
" id="DejaVuSans-48"/>
       </defs>
       <use xlink:href="#DejaVuSans-8722"/>
       <use x="83.789062" xlink:href="#DejaVuSans-49"/>
       <use x="147.412109" xlink:href="#DejaVuSans-46"/>
       <use x="179.199219" xlink:href="#DejaVuSans-48"/>
       <use x="242.822266" xlink:href="#DejaVuSans-48"/>
      </g>
     </g>
    </g>
    <g id="xtick_2">
     <g id="line2d_2">
      <g>
       <use style="stroke:#000000;stroke-width:0.8;" x="107.263413" xlink:href="#m5fdb9b6caf" y="252"/>
      </g>
     </g>
     <g id="text_2">
      <!-- −0.75 -->
      <g transform="translate(88.876226 268.118125)scale(0.12 -0.12)">
       <defs>
        <path d="M 8.203125 72.90625 
L 55.078125 72.90625 
L 55.078125 68.703125 
L 28.609375 0 
L 18.3125 0 
L 43.21875 64.59375 
L 8.203125 64.59375 
z
" id="DejaVuSans-55"/>
        <path d="M 10.796875 72.90625 
L 49.515625 72.90625 
L 49.515625 64.59375 
L 19.828125 64.59375 
L 19.828125 46.734375 
Q 21.96875 47.46875 24.109375 47.828125 
Q 26.265625 48.1875 28.421875 48.1875 
Q 40.625 48.1875 47.75 41.5 
Q 54.890625 34.8125 54.890625 23.390625 
Q 54.890625 11.625 47.5625 5.09375 
Q 40.234375 -1.421875 26.90625 -1.421875 
Q 22.3125 -1.421875 17.546875 -0.640625 
Q 12.796875 0.140625 7.71875 1.703125 
L 7.71875 11.625 
Q 12.109375 9.234375 16.796875 8.0625 
Q 21.484375 6.890625 26.703125 6.890625 
Q 35.15625 6.890625 40.078125 11.328125 
Q 45.015625 15.765625 45.015625 23.390625 
Q 45.015625 31 40.078125 35.4375 
Q 35.15625 39.890625 26.703125 39.890625 
Q 22.75 39.890625 18.8125 39.015625 
Q 14.890625 38.140625 10.796875 36.28125 
z
" id="DejaVuSans-53"/>
       </defs>
       <use xlink:href="#DejaVuSans-8722"/>
       <use x="83.789062" xlink:href="#DejaVuSans-48"/>
       <use x="147.412109" xlink:href="#DejaVuSans-46"/>
       <use x="179.199219" xlink:href="#DejaVuSans-55"/>
       <use x="242.822266" xlink:href="#DejaVuSans-53"/>
      </g>
     </g>
    </g>
    <g id="xtick_3">
     <g id="line2d_3">
      <g>
       <use style="stroke:#000000;stroke-width:0.8;" x="145.308851" xlink:href="#m5fdb9b6caf" y="252"/>
      </g>
     </g>
     <g id="text_3">
      <!-- −0.50 -->
      <g transform="translate(126.921663 268.118125)scale(0.12 -0.12)">
       <use xlink:href="#DejaVuSans-8722"/>
       <use x="83.789062" xlink:href="#DejaVuSans-48"/>
       <use x="147.412109" xlink:href="#DejaVuSans-46"/>
       <use x="179.199219" xlink:href="#DejaVuSans-53"/>
       <use x="242.822266" xlink:href="#DejaVuSans-48"/>
      </g>
     </g>
    </g>
    <g id="xtick_4">
     <g id="line2d_4">
      <g>
       <use style="stroke:#000000;stroke-width:0.8;" x="183.354288" xlink:href="#m5fdb9b6caf" y="252"/>
      </g>
     </g>
     <g id="text_4">
      <!-- −0.25 -->
      <g transform="translate(164.967101 268.118125)scale(0.12 -0.12)">
       <defs>
        <path d="M 19.1875 8.296875 
L 53.609375 8.296875 
L 53.609375 0 
L 7.328125 0 
L 7.328125 8.296875 
Q 12.9375 14.109375 22.625 23.890625 
Q 32.328125 33.6875 34.8125 36.53125 
Q 39.546875 41.84375 41.421875 45.53125 
Q 43.3125 49.21875 43.3125 52.78125 
Q 43.3125 58.59375 39.234375 62.25 
Q 35.15625 65.921875 28.609375 65.921875 
Q 23.96875 65.921875 18.8125 64.3125 
Q 13.671875 62.703125 7.8125 59.421875 
L 7.8125 69.390625 
Q 13.765625 71.78125 18.9375 73 
Q 24.125 74.21875 28.421875 74.21875 
Q 39.75 74.21875 46.484375 68.546875 
Q 53.21875 62.890625 53.21875 53.421875 
Q 53.21875 48.921875 51.53125 44.890625 
Q 49.859375 40.875 45.40625 35.40625 
Q 44.1875 33.984375 37.640625 27.21875 
Q 31.109375 20.453125 19.1875 8.296875 
z
" id="DejaVuSans-50"/>
       </defs>
       <use xlink:href="#DejaVuSans-8722"/>
       <use x="83.789062" xlink:href="#DejaVuSans-48"/>
       <use x="147.412109" xlink:href="#DejaVuSans-46"/>
       <use x="179.199219" xlink:href="#DejaVuSans-50"/>
       <use x="242.822266" xlink:href="#DejaVuSans-53"/>
      </g>
     </g>
    </g>
    <g id="xtick_5">
     <g id="line2d_5">
      <g>
       <use style="stroke:#000000;stroke-width:0.8;" x="221.399726" xlink:href="#m5fdb9b6caf" y="252"/>
      </g>
     </g>
     <g id="text_5">
      <!-- 0.00 -->
      <g transform="translate(208.040351 268.118125)scale(0.12 -0.12)">
       <use xlink:href="#DejaVuSans-48"/>
       <use x="63.623047" xlink:href="#DejaVuSans-46"/>
       <use x="95.410156" xlink:href="#DejaVuSans-48"/>
       <use x="159.033203" xlink:href="#DejaVuSans-48"/>
      </g>
     </g>
    </g>
    <g id="xtick_6">
     <g id="line2d_6">
      <g>
       <use style="stroke:#000000;stroke-width:0.8;" x="259.445164" xlink:href="#m5fdb9b6caf" y="252"/>
      </g>
     </g>
     <g id="text_6">
      <!-- 0.25 -->
      <g transform="translate(246.085789 268.118125)scale(0.12 -0.12)">
       <use xlink:href="#DejaVuSans-48"/>
       <use x="63.623047" xlink:href="#DejaVuSans-46"/>
       <use x="95.410156" xlink:href="#DejaVuSans-50"/>
       <use x="159.033203" xlink:href="#DejaVuSans-53"/>
      </g>
     </g>
    </g>
    <g id="xtick_7">
     <g id="line2d_7">
      <g>
       <use style="stroke:#000000;stroke-width:0.8;" x="297.490602" xlink:href="#m5fdb9b6caf" y="252"/>
      </g>
     </g>
     <g id="text_7">
      <!-- 0.50 -->
      <g transform="translate(284.131227 268.118125)scale(0.12 -0.12)">
       <use xlink:href="#DejaVuSans-48"/>
       <use x="63.623047" xlink:href="#DejaVuSans-46"/>
       <use x="95.410156" xlink:href="#DejaVuSans-53"/>
       <use x="159.033203" xlink:href="#DejaVuSans-48"/>
      </g>
     </g>
    </g>
    <g id="xtick_8">
     <g id="line2d_8">
      <g>
       <use style="stroke:#000000;stroke-width:0.8;" x="335.536039" xlink:href="#m5fdb9b6caf" y="252"/>
      </g>
     </g>
     <g id="text_8">
      <!-- 0.75 -->
      <g transform="translate(322.176664 268.118125)scale(0.12 -0.12)">
       <use xlink:href="#DejaVuSans-48"/>
       <use x="63.623047" xlink:href="#DejaVuSans-46"/>
       <use x="95.410156" xlink:href="#DejaVuSans-55"/>
       <use x="159.033203" xlink:href="#DejaVuSans-53"/>
      </g>
     </g>
    </g>
    <g id="xtick_9">
     <g id="line2d_9">
      <g>
       <use style="stroke:#000000;stroke-width:0.8;" x="373.581477" xlink:href="#m5fdb9b6caf" y="252"/>
      </g>
     </g>
     <g id="text_9">
      <!-- 1.00 -->
      <g transform="translate(360.222102 268.118125)scale(0.12 -0.12)">
       <use xlink:href="#DejaVuSans-49"/>
       <use x="63.623047" xlink:href="#DejaVuSans-46"/>
       <use x="95.410156" xlink:href="#DejaVuSans-48"/>
       <use x="159.033203" xlink:href="#DejaVuSans-48"/>
      </g>
     </g>
    </g>
    <g id="text_10">
     <!-- Inelastic load $G$ -->
     <g transform="translate(182.75 282.212188)scale(0.1 -0.1)">
      <defs>
       <path d="M 9.8125 72.90625 
L 19.671875 72.90625 
L 19.671875 0 
L 9.8125 0 
z
" id="DejaVuSans-73"/>
       <path d="M 54.890625 33.015625 
L 54.890625 0 
L 45.90625 0 
L 45.90625 32.71875 
Q 45.90625 40.484375 42.875 44.328125 
Q 39.84375 48.1875 33.796875 48.1875 
Q 26.515625 48.1875 22.3125 43.546875 
Q 18.109375 38.921875 18.109375 30.90625 
L 18.109375 0 
L 9.078125 0 
L 9.078125 54.6875 
L 18.109375 54.6875 
L 18.109375 46.1875 
Q 21.34375 51.125 25.703125 53.5625 
Q 30.078125 56 35.796875 56 
Q 45.21875 56 50.046875 50.171875 
Q 54.890625 44.34375 54.890625 33.015625 
z
" id="DejaVuSans-110"/>
       <path d="M 56.203125 29.59375 
L 56.203125 25.203125 
L 14.890625 25.203125 
Q 15.484375 15.921875 20.484375 11.0625 
Q 25.484375 6.203125 34.421875 6.203125 
Q 39.59375 6.203125 44.453125 7.46875 
Q 49.3125 8.734375 54.109375 11.28125 
L 54.109375 2.78125 
Q 49.265625 0.734375 44.1875 -0.34375 
Q 39.109375 -1.421875 33.890625 -1.421875 
Q 20.796875 -1.421875 13.15625 6.1875 
Q 5.515625 13.8125 5.515625 26.8125 
Q 5.515625 40.234375 12.765625 48.109375 
Q 20.015625 56 32.328125 56 
Q 43.359375 56 49.78125 48.890625 
Q 56.203125 41.796875 56.203125 29.59375 
z
M 47.21875 32.234375 
Q 47.125 39.59375 43.09375 43.984375 
Q 39.0625 48.390625 32.421875 48.390625 
Q 24.90625 48.390625 20.390625 44.140625 
Q 15.875 39.890625 15.1875 32.171875 
z
" id="DejaVuSans-101"/>
       <path d="M 9.421875 75.984375 
L 18.40625 75.984375 
L 18.40625 0 
L 9.421875 0 
z
" id="DejaVuSans-108"/>
       <path d="M 34.28125 27.484375 
Q 23.390625 27.484375 19.1875 25 
Q 14.984375 22.515625 14.984375 16.5 
Q 14.984375 11.71875 18.140625 8.90625 
Q 21.296875 6.109375 26.703125 6.109375 
Q 34.1875 6.109375 38.703125 11.40625 
Q 43.21875 16.703125 43.21875 25.484375 
L 43.21875 27.484375 
z
M 52.203125 31.203125 
L 52.203125 0 
L 43.21875 0 
L 43.21875 8.296875 
Q 40.140625 3.328125 35.546875 0.953125 
Q 30.953125 -1.421875 24.3125 -1.421875 
Q 15.921875 -1.421875 10.953125 3.296875 
Q 6 8.015625 6 15.921875 
Q 6 25.140625 12.171875 29.828125 
Q 18.359375 34.515625 30.609375 34.515625 
L 43.21875 34.515625 
L 43.21875 35.40625 
Q 43.21875 41.609375 39.140625 45 
Q 35.0625 48.390625 27.6875 48.390625 
Q 23 48.390625 18.546875 47.265625 
Q 14.109375 46.140625 10.015625 43.890625 
L 10.015625 52.203125 
Q 14.9375 54.109375 19.578125 55.046875 
Q 24.21875 56 28.609375 56 
Q 40.484375 56 46.34375 49.84375 
Q 52.203125 43.703125 52.203125 31.203125 
z
" id="DejaVuSans-97"/>
       <path d="M 44.28125 53.078125 
L 44.28125 44.578125 
Q 40.484375 46.53125 36.375 47.5 
Q 32.28125 48.484375 27.875 48.484375 
Q 21.1875 48.484375 17.84375 46.4375 
Q 14.5 44.390625 14.5 40.28125 
Q 14.5 37.15625 16.890625 35.375 
Q 19.28125 33.59375 26.515625 31.984375 
L 29.59375 31.296875 
Q 39.15625 29.25 43.1875 25.515625 
Q 47.21875 21.78125 47.21875 15.09375 
Q 47.21875 7.46875 41.1875 3.015625 
Q 35.15625 -1.421875 24.609375 -1.421875 
Q 20.21875 -1.421875 15.453125 -0.5625 
Q 10.6875 0.296875 5.421875 2 
L 5.421875 11.28125 
Q 10.40625 8.6875 15.234375 7.390625 
Q 20.0625 6.109375 24.8125 6.109375 
Q 31.15625 6.109375 34.5625 8.28125 
Q 37.984375 10.453125 37.984375 14.40625 
Q 37.984375 18.0625 35.515625 20.015625 
Q 33.0625 21.96875 24.703125 23.78125 
L 21.578125 24.515625 
Q 13.234375 26.265625 9.515625 29.90625 
Q 5.8125 33.546875 5.8125 39.890625 
Q 5.8125 47.609375 11.28125 51.796875 
Q 16.75 56 26.8125 56 
Q 31.78125 56 36.171875 55.265625 
Q 40.578125 54.546875 44.28125 53.078125 
z
" id="DejaVuSans-115"/>
       <path d="M 18.3125 70.21875 
L 18.3125 54.6875 
L 36.8125 54.6875 
L 36.8125 47.703125 
L 18.3125 47.703125 
L 18.3125 18.015625 
Q 18.3125 11.328125 20.140625 9.421875 
Q 21.96875 7.515625 27.59375 7.515625 
L 36.8125 7.515625 
L 36.8125 0 
L 27.59375 0 
Q 17.1875 0 13.234375 3.875 
Q 9.28125 7.765625 9.28125 18.015625 
L 9.28125 47.703125 
L 2.6875 47.703125 
L 2.6875 54.6875 
L 9.28125 54.6875 
L 9.28125 70.21875 
z
" id="DejaVuSans-116"/>
       <path d="M 9.421875 54.6875 
L 18.40625 54.6875 
L 18.40625 0 
L 9.421875 0 
z
M 9.421875 75.984375 
L 18.40625 75.984375 
L 18.40625 64.59375 
L 9.421875 64.59375 
z
" id="DejaVuSans-105"/>
       <path d="M 48.78125 52.59375 
L 48.78125 44.1875 
Q 44.96875 46.296875 41.140625 47.34375 
Q 37.3125 48.390625 33.40625 48.390625 
Q 24.65625 48.390625 19.8125 42.84375 
Q 14.984375 37.3125 14.984375 27.296875 
Q 14.984375 17.28125 19.8125 11.734375 
Q 24.65625 6.203125 33.40625 6.203125 
Q 37.3125 6.203125 41.140625 7.25 
Q 44.96875 8.296875 48.78125 10.40625 
L 48.78125 2.09375 
Q 45.015625 0.34375 40.984375 -0.53125 
Q 36.96875 -1.421875 32.421875 -1.421875 
Q 20.0625 -1.421875 12.78125 6.34375 
Q 5.515625 14.109375 5.515625 27.296875 
Q 5.515625 40.671875 12.859375 48.328125 
Q 20.21875 56 33.015625 56 
Q 37.15625 56 41.109375 55.140625 
Q 45.0625 54.296875 48.78125 52.59375 
z
" id="DejaVuSans-99"/>
       <path id="DejaVuSans-32"/>
       <path d="M 30.609375 48.390625 
Q 23.390625 48.390625 19.1875 42.75 
Q 14.984375 37.109375 14.984375 27.296875 
Q 14.984375 17.484375 19.15625 11.84375 
Q 23.34375 6.203125 30.609375 6.203125 
Q 37.796875 6.203125 41.984375 11.859375 
Q 46.1875 17.53125 46.1875 27.296875 
Q 46.1875 37.015625 41.984375 42.703125 
Q 37.796875 48.390625 30.609375 48.390625 
z
M 30.609375 56 
Q 42.328125 56 49.015625 48.375 
Q 55.71875 40.765625 55.71875 27.296875 
Q 55.71875 13.875 49.015625 6.21875 
Q 42.328125 -1.421875 30.609375 -1.421875 
Q 18.84375 -1.421875 12.171875 6.21875 
Q 5.515625 13.875 5.515625 27.296875 
Q 5.515625 40.765625 12.171875 48.375 
Q 18.84375 56 30.609375 56 
z
" id="DejaVuSans-111"/>
       <path d="M 45.40625 46.390625 
L 45.40625 75.984375 
L 54.390625 75.984375 
L 54.390625 0 
L 45.40625 0 
L 45.40625 8.203125 
Q 42.578125 3.328125 38.25 0.953125 
Q 33.9375 -1.421875 27.875 -1.421875 
Q 17.96875 -1.421875 11.734375 6.484375 
Q 5.515625 14.40625 5.515625 27.296875 
Q 5.515625 40.1875 11.734375 48.09375 
Q 17.96875 56 27.875 56 
Q 33.9375 56 38.25 53.625 
Q 42.578125 51.265625 45.40625 46.390625 
z
M 14.796875 27.296875 
Q 14.796875 17.390625 18.875 11.75 
Q 22.953125 6.109375 30.078125 6.109375 
Q 37.203125 6.109375 41.296875 11.75 
Q 45.40625 17.390625 45.40625 27.296875 
Q 45.40625 37.203125 41.296875 42.84375 
Q 37.203125 48.484375 30.078125 48.484375 
Q 22.953125 48.484375 18.875 42.84375 
Q 14.796875 37.203125 14.796875 27.296875 
z
" id="DejaVuSans-100"/>
       <path d="M 54.59375 10.890625 
L 58.40625 29.984375 
L 42.1875 29.984375 
L 43.703125 38.09375 
L 69.578125 38.09375 
L 63.28125 6 
Q 56.78125 2.4375 49.109375 0.5 
Q 41.453125 -1.421875 33.6875 -1.421875 
Q 19.96875 -1.421875 12.234375 6.1875 
Q 4.5 13.8125 4.5 27.390625 
Q 4.5 38.671875 9.203125 48.84375 
Q 13.921875 59.03125 22.21875 65.828125 
Q 27.4375 70.0625 33.640625 72.140625 
Q 39.84375 74.21875 47.40625 74.21875 
Q 54.25 74.21875 60.515625 72.484375 
Q 66.796875 70.75 72.515625 67.28125 
L 70.515625 56.78125 
Q 66.109375 61.375 60.203125 63.796875 
Q 54.296875 66.21875 47.609375 66.21875 
Q 39.84375 66.21875 33.9375 63.25 
Q 28.03125 60.296875 23.390625 54.109375 
Q 19.4375 48.828125 17.15625 41.671875 
Q 14.890625 34.515625 14.890625 27.09375 
Q 14.890625 16.890625 20.109375 11.734375 
Q 25.34375 6.59375 35.6875 6.59375 
Q 40.875 6.59375 45.703125 7.6875 
Q 50.53125 8.796875 54.59375 10.890625 
z
" id="DejaVuSans-Oblique-71"/>
      </defs>
      <use transform="translate(0 0.015625)" xlink:href="#DejaVuSans-73"/>
      <use transform="translate(29.492188 0.015625)" xlink:href="#DejaVuSans-110"/>
      <use transform="translate(92.871094 0.015625)" xlink:href="#DejaVuSans-101"/>
      <use transform="translate(154.394531 0.015625)" xlink:href="#DejaVuSans-108"/>
      <use transform="translate(182.177734 0.015625)" xlink:href="#DejaVuSans-97"/>
      <use transform="translate(243.457031 0.015625)" xlink:href="#DejaVuSans-115"/>
      <use transform="translate(295.556641 0.015625)" xlink:href="#DejaVuSans-116"/>
      <use transform="translate(334.765625 0.015625)" xlink:href="#DejaVuSans-105"/>
      <use transform="translate(362.548828 0.015625)" xlink:href="#DejaVuSans-99"/>
      <use transform="translate(417.529297 0.015625)" xlink:href="#DejaVuSans-32"/>
      <use transform="translate(449.316406 0.015625)" xlink:href="#DejaVuSans-108"/>
      <use transform="translate(477.099609 0.015625)" xlink:href="#DejaVuSans-111"/>
      <use transform="translate(538.28125 0.015625)" xlink:href="#DejaVuSans-97"/>
      <use transform="translate(599.560547 0.015625)" xlink:href="#DejaVuSans-100"/>
      <use transform="translate(663.037109 0.015625)" xlink:href="#DejaVuSans-32"/>
      <use transform="translate(694.824219 0.015625)" xlink:href="#DejaVuSans-Oblique-71"/>
     </g>
    </g>
   </g>
   <g id="matplotlib.axis_2">
    <g id="ytick_1">
     <g id="line2d_10">
      <defs>
       <path d="M 0 0 
L -3.5 0 
" id="m46c0623074" style="stroke:#000000;stroke-width:0.8;"/>
      </defs>
      <g>
       <use style="stroke:#000000;stroke-width:0.8;" x="54" xlink:href="#m46c0623074" y="222.745737"/>
      </g>
     </g>
     <g id="text_11">
      <!-- 0 -->
      <g transform="translate(39.365 227.3048)scale(0.12 -0.12)">
       <use xlink:href="#DejaVuSans-48"/>
      </g>
     </g>
    </g>
    <g id="ytick_2">
     <g id="line2d_11">
      <g>
       <use style="stroke:#000000;stroke-width:0.8;" x="54" xlink:href="#m46c0623074" y="184.004485"/>
      </g>
     </g>
     <g id="text_12">
      <!-- 2 -->
      <g transform="translate(39.365 188.563547)scale(0.12 -0.12)">
       <use xlink:href="#DejaVuSans-50"/>
      </g>
     </g>
    </g>
    <g id="ytick_3">
     <g id="line2d_12">
      <g>
       <use style="stroke:#000000;stroke-width:0.8;" x="54" xlink:href="#m46c0623074" y="145.263232"/>
      </g>
     </g>
     <g id="text_13">
      <!-- 4 -->
      <g transform="translate(39.365 149.822295)scale(0.12 -0.12)">
       <defs>
        <path d="M 37.796875 64.3125 
L 12.890625 25.390625 
L 37.796875 25.390625 
z
M 35.203125 72.90625 
L 47.609375 72.90625 
L 47.609375 25.390625 
L 58.015625 25.390625 
L 58.015625 17.1875 
L 47.609375 17.1875 
L 47.609375 0 
L 37.796875 0 
L 37.796875 17.1875 
L 4.890625 17.1875 
L 4.890625 26.703125 
z
" id="DejaVuSans-52"/>
       </defs>
       <use xlink:href="#DejaVuSans-52"/>
      </g>
     </g>
    </g>
    <g id="ytick_4">
     <g id="line2d_13">
      <g>
       <use style="stroke:#000000;stroke-width:0.8;" x="54" xlink:href="#m46c0623074" y="106.52198"/>
      </g>
     </g>
     <g id="text_14">
      <!-- 6 -->
      <g transform="translate(39.365 111.081042)scale(0.12 -0.12)">
       <defs>
        <path d="M 33.015625 40.375 
Q 26.375 40.375 22.484375 35.828125 
Q 18.609375 31.296875 18.609375 23.390625 
Q 18.609375 15.53125 22.484375 10.953125 
Q 26.375 6.390625 33.015625 6.390625 
Q 39.65625 6.390625 43.53125 10.953125 
Q 47.40625 15.53125 47.40625 23.390625 
Q 47.40625 31.296875 43.53125 35.828125 
Q 39.65625 40.375 33.015625 40.375 
z
M 52.59375 71.296875 
L 52.59375 62.3125 
Q 48.875 64.0625 45.09375 64.984375 
Q 41.3125 65.921875 37.59375 65.921875 
Q 27.828125 65.921875 22.671875 59.328125 
Q 17.53125 52.734375 16.796875 39.40625 
Q 19.671875 43.65625 24.015625 45.921875 
Q 28.375 48.1875 33.59375 48.1875 
Q 44.578125 48.1875 50.953125 41.515625 
Q 57.328125 34.859375 57.328125 23.390625 
Q 57.328125 12.15625 50.6875 5.359375 
Q 44.046875 -1.421875 33.015625 -1.421875 
Q 20.359375 -1.421875 13.671875 8.265625 
Q 6.984375 17.96875 6.984375 36.375 
Q 6.984375 53.65625 15.1875 63.9375 
Q 23.390625 74.21875 37.203125 74.21875 
Q 40.921875 74.21875 44.703125 73.484375 
Q 48.484375 72.75 52.59375 71.296875 
z
" id="DejaVuSans-54"/>
       </defs>
       <use xlink:href="#DejaVuSans-54"/>
      </g>
     </g>
    </g>
    <g id="ytick_5">
     <g id="line2d_14">
      <g>
       <use style="stroke:#000000;stroke-width:0.8;" x="54" xlink:href="#m46c0623074" y="67.780727"/>
      </g>
     </g>
     <g id="text_15">
      <!-- 8 -->
      <g transform="translate(39.365 72.33979)scale(0.12 -0.12)">
       <defs>
        <path d="M 31.78125 34.625 
Q 24.75 34.625 20.71875 30.859375 
Q 16.703125 27.09375 16.703125 20.515625 
Q 16.703125 13.921875 20.71875 10.15625 
Q 24.75 6.390625 31.78125 6.390625 
Q 38.8125 6.390625 42.859375 10.171875 
Q 46.921875 13.96875 46.921875 20.515625 
Q 46.921875 27.09375 42.890625 30.859375 
Q 38.875 34.625 31.78125 34.625 
z
M 21.921875 38.8125 
Q 15.578125 40.375 12.03125 44.71875 
Q 8.5 49.078125 8.5 55.328125 
Q 8.5 64.0625 14.71875 69.140625 
Q 20.953125 74.21875 31.78125 74.21875 
Q 42.671875 74.21875 48.875 69.140625 
Q 55.078125 64.0625 55.078125 55.328125 
Q 55.078125 49.078125 51.53125 44.71875 
Q 48 40.375 41.703125 38.8125 
Q 48.828125 37.15625 52.796875 32.3125 
Q 56.78125 27.484375 56.78125 20.515625 
Q 56.78125 9.90625 50.3125 4.234375 
Q 43.84375 -1.421875 31.78125 -1.421875 
Q 19.734375 -1.421875 13.25 4.234375 
Q 6.78125 9.90625 6.78125 20.515625 
Q 6.78125 27.484375 10.78125 32.3125 
Q 14.796875 37.15625 21.921875 38.8125 
z
M 18.3125 54.390625 
Q 18.3125 48.734375 21.84375 45.5625 
Q 25.390625 42.390625 31.78125 42.390625 
Q 38.140625 42.390625 41.71875 45.5625 
Q 45.3125 48.734375 45.3125 54.390625 
Q 45.3125 60.0625 41.71875 63.234375 
Q 38.140625 66.40625 31.78125 66.40625 
Q 25.390625 66.40625 21.84375 63.234375 
Q 18.3125 60.0625 18.3125 54.390625 
z
" id="DejaVuSans-56"/>
       </defs>
       <use xlink:href="#DejaVuSans-56"/>
      </g>
     </g>
    </g>
    <g id="text_16">
     <!-- Elastic load $F$ -->
     <g transform="translate(33.285313 176.38)rotate(-90)scale(0.1 -0.1)">
      <defs>
       <path d="M 9.8125 72.90625 
L 55.90625 72.90625 
L 55.90625 64.59375 
L 19.671875 64.59375 
L 19.671875 43.015625 
L 54.390625 43.015625 
L 54.390625 34.71875 
L 19.671875 34.71875 
L 19.671875 8.296875 
L 56.78125 8.296875 
L 56.78125 0 
L 9.8125 0 
z
" id="DejaVuSans-69"/>
       <path d="M 16.890625 72.90625 
L 58.6875 72.90625 
L 57.078125 64.59375 
L 25.09375 64.59375 
L 20.90625 43.109375 
L 49.8125 43.109375 
L 48.1875 34.8125 
L 19.28125 34.8125 
L 12.5 0 
L 2.6875 0 
z
" id="DejaVuSans-Oblique-70"/>
      </defs>
      <use transform="translate(0 0.015625)" xlink:href="#DejaVuSans-69"/>
      <use transform="translate(63.183594 0.015625)" xlink:href="#DejaVuSans-108"/>
      <use transform="translate(90.966797 0.015625)" xlink:href="#DejaVuSans-97"/>
      <use transform="translate(152.246094 0.015625)" xlink:href="#DejaVuSans-115"/>
      <use transform="translate(204.345703 0.015625)" xlink:href="#DejaVuSans-116"/>
      <use transform="translate(243.554688 0.015625)" xlink:href="#DejaVuSans-105"/>
      <use transform="translate(271.337891 0.015625)" xlink:href="#DejaVuSans-99"/>
      <use transform="translate(326.318359 0.015625)" xlink:href="#DejaVuSans-32"/>
      <use transform="translate(358.105469 0.015625)" xlink:href="#DejaVuSans-108"/>
      <use transform="translate(385.888672 0.015625)" xlink:href="#DejaVuSans-111"/>
      <use transform="translate(447.070312 0.015625)" xlink:href="#DejaVuSans-97"/>
      <use transform="translate(508.349609 0.015625)" xlink:href="#DejaVuSans-100"/>
      <use transform="translate(571.826172 0.015625)" xlink:href="#DejaVuSans-32"/>
      <use transform="translate(603.613281 0.015625)" xlink:href="#DejaVuSans-Oblique-70"/>
     </g>
    </g>
   </g>
   <g id="line2d_15">
    <path clip-path="url(#p4af395d6ad)" d="M 221.348834 222.73926 
L 221.336653 222.737709 
L 373.581818 242.116337 
L 319.021521 235.269793 
L 310.898254 234.498557 
L 303.988011 234.065053 
L 296.858652 233.858218 
L 289.520913 233.871606 
L 275.106649 234.027713 
L 250.648782 231.301398 
L 228.814675 228.634185 
L 222.117583 227.759638 
L 213.897315 225.824886 
L 203.603748 223.552194 
L 196.471711 222.186693 
L 189.427205 220.909506 
L 180.532387 218.944975 
L 171.855805 217.253138 
L 162.509468 215.669011 
L 151.748857 214.091592 
L 135.827484 212.018913 
L 79.149629 204.73134 
L 69.218316 203.375099 
L 69.791447 203.377008 
L 106.675557 203.633401 
L 128.036654 204.066603 
L 147.422068 204.630929 
L 157.963033 205.146686 
L 166.208595 205.750799 
L 173.763344 206.508585 
L 181.51057 207.519326 
L 188.429259 208.633105 
L 195.459474 209.965559 
L 203.603748 211.74006 
L 212.864164 214.003455 
L 223.074699 216.734498 
L 230.726056 218.890989 
L 244.047484 220.68189 
L 277.702786 225.631218 
L 284.515955 226.64262 
L 294.43554 227.027273 
L 301.635245 227.542196 
L 307.855031 228.202055 
L 314.636621 229.155085 
L 321.880263 230.407023 
L 331.443879 232.314087 
L 347.10488 235.709836 
L 359.126229 238.504965 
L 373.581818 242.116337 
L 373.581818 242.116337 
" style="fill:none;stroke:#172c4b;stroke-linecap:square;stroke-opacity:0.9;"/>
   </g>
   <g id="line2d_16">
    <path clip-path="url(#p4af395d6ad)" d="M 220.966614 222.690608 
L 373.581806 242.116282 
L 368.497123 241.577605 
L 358.98032 240.456275 
L 345.167209 238.529824 
L 335.933291 237.359058 
L 327.874601 236.557105 
L 317.818252 235.801255 
L 303.205237 234.69926 
L 295.956278 233.916178 
L 289.369879 232.999319 
L 281.833538 231.723779 
L 257.148257 227.301903 
L 252.053697 226.73514 
L 246.984221 226.406275 
L 243.620373 226.20177 
L 241.106002 226.040799 
L 238.598753 226.063413 
L 236.098241 226.263729 
L 232.773679 226.78681 
L 231.114937 227.037704 
L 224.496856 227.899216 
L 217.902656 228.766527 
L 212.534522 229.37443 
L 211.46306 228.959764 
L 206.123788 226.055025 
L 201.880385 223.95202 
L 197.668821 222.106259 
L 193.494946 220.558926 
L 190.392461 219.609875 
L 187.316136 218.847159 
L 184.26775 218.269408 
L 180.24939 217.774514 
L 176.286653 217.566648 
L 172.382114 217.603123 
L 165.695035 217.836177 
L 157.379812 217.054958 
L 152.900631 215.643489 
L 149.390362 214.753401 
L 145.945508 214.097449 
L 142.56651 213.679655 
L 139.253879 213.491016 
L 136.008224 213.510278 
L 132.046461 213.714652 
L 123.711653 212.235621 
L 102.626896 208.345386 
L 94.966417 207.25275 
L 87.410856 206.174552 
L 82.962885 205.285118 
L 78.18806 204.576592 
L 69.218304 203.374993 
L 69.365527 203.359389 
L 84.509721 201.866751 
L 88.729679 201.773591 
L 91.982673 201.693296 
L 100.903423 200.918523 
L 108.062716 200.532898 
L 115.918908 200.34086 
L 136.813321 199.947975 
L 146.800565 199.429101 
L 163.819421 198.484969 
L 170.452322 198.393504 
L 176.286653 198.563854 
L 178.260894 198.68368 
L 182.251801 198.347481 
L 185.280673 198.289114 
L 188.338557 198.415667 
L 191.42381 198.739378 
L 194.534583 199.267621 
L 197.668821 200.002575 
L 200.824271 200.94104 
L 203.998494 202.074427 
L 208.255455 203.864207 
L 212.534522 205.929226 
L 216.827596 208.06811 
L 222.019075 210.177738 
L 227.803154 213.118137 
L 231.94404 211.896547 
L 235.266139 211.145537 
L 238.598753 210.656343 
L 241.106002 210.486835 
L 243.620373 210.500049 
L 246.142043 210.702423 
L 248.670973 211.094946 
L 251.206906 211.673205 
L 254.598192 212.71583 
L 257.999358 214.035143 
L 261.408091 215.582355 
L 262.261133 215.998054 
L 263.967907 216.356425 
L 270.796251 217.634909 
L 280.989622 219.827466 
L 293.500698 222.485909 
L 303.205237 224.297451 
L 329.940688 229.058166 
L 336.579213 230.607276 
L 343.401389 232.447913 
L 351.264885 234.831312 
L 366.787213 239.863313 
L 373.581806 242.116282 
L 373.581806 242.116282 
" style="fill:none;stroke:#172c4b;stroke-linecap:square;stroke-opacity:0.8;"/>
   </g>
   <g id="line2d_17">
    <path clip-path="url(#p4af395d6ad)" d="M 220.571805 222.640355 
L 373.581777 242.116226 
L 357.426615 240.167217 
L 342.760876 238.650572 
L 339.645454 238.230397 
L 331.074688 236.782566 
L 324.79928 235.952136 
L 319.023969 235.411404 
L 316.074206 235.107563 
L 308.536179 234.125218 
L 298.421508 233.089815 
L 294.445596 232.891606 
L 290.426624 232.918057 
L 286.368245 233.190675 
L 283.096087 233.588054 
L 277.323867 232.864809 
L 269.839893 231.70198 
L 257.311044 229.528419 
L 253.976981 228.101346 
L 251.481767 227.241985 
L 248.992101 226.586144 
L 246.508647 226.149329 
L 244.031857 225.941865 
L 241.561961 225.968473 
L 239.098961 226.228017 
L 236.642633 226.713431 
L 234.192539 227.411832 
L 231.74804 228.304816 
L 230.121086 228.996843 
L 217.524316 230.561802 
L 213.952819 230.913554 
L 209.208708 229.254758 
L 203.324068 226.148953 
L 198.666469 223.927396 
L 194.06461 222.012735 
L 189.527716 220.417075 
L 186.172569 219.406071 
L 182.861456 218.628668 
L 179.596905 218.085348 
L 176.381038 217.770274 
L 173.215574 217.67166 
L 170.101849 217.636583 
L 166.03232 216.45061 
L 162.057829 215.511187 
L 157.223969 214.634283 
L 152.538475 214.019714 
L 146.223781 213.453667 
L 128.146123 212.056631 
L 122.204511 211.270512 
L 115.911016 210.20057 
L 99.511331 207.242914 
L 94.871862 206.715571 
L 90.193562 206.402376 
L 84.842208 206.05878 
L 80.939426 205.304114 
L 77.047326 204.787707 
L 74.579381 204.431087 
L 69.434139 203.406898 
L 69.218275 203.374945 
L 69.482083 203.318502 
L 78.452686 201.334432 
L 82.643475 200.286128 
L 89.752902 198.635502 
L 98.444831 196.13534 
L 102.833318 195.115541 
L 106.339569 194.502869 
L 110.030199 193.912816 
L 114.568475 192.714222 
L 117.963016 192.030275 
L 120.770296 191.654925 
L 123.659148 191.482638 
L 126.629884 191.556997 
L 128.146123 191.659254 
L 133.616762 190.183675 
L 140.187146 188.17293 
L 155.332063 183.423704 
L 160.106395 182.199773 
L 164.033147 181.386141 
L 168.055267 180.7717 
L 172.171862 180.402777 
L 175.320209 180.312921 
L 178.519447 180.400893 
L 181.767985 180.680048 
L 185.063839 181.160918 
L 188.404614 181.850841 
L 191.78751 182.753656 
L 195.209325 183.869482 
L 198.666469 185.194584 
L 202.154988 186.72134 
L 206.847699 189.050384 
L 211.577575 191.680038 
L 216.332922 194.562881 
L 221.101532 197.642912 
L 222.818003 199.237556 
L 228.495977 204.964713 
L 229.308319 205.33041 
L 232.562298 203.40414 
L 235.82527 201.769775 
L 238.279461 200.785322 
L 240.740202 200.039565 
L 243.207788 199.554577 
L 245.682294 199.345859 
L 248.163565 199.422083 
L 250.651225 199.78502 
L 253.144676 200.42966 
L 255.64312 201.344508 
L 258.145574 202.512059 
L 260.650892 203.909424 
L 263.993549 206.081956 
L 266.500404 207.746402 
L 269.005508 209.14202 
L 273.17269 211.360154 
L 278.151589 214.302166 
L 285.552212 218.763111 
L 287.182874 218.768415 
L 291.233698 218.755806 
L 295.244329 218.985263 
L 299.211245 219.44738 
L 303.131457 220.11606 
L 307.770278 221.136643 
L 312.333322 222.170369 
L 320.483796 223.568369 
L 325.508734 224.701362 
L 330.390114 226.034288 
L 335.769121 227.76011 
L 341.52784 229.855204 
L 349.204329 232.695168 
L 356.479848 235.151554 
L 362.585417 237.45416 
L 369.072082 240.157234 
L 373.581777 242.116226 
L 373.581777 242.116226 
" style="fill:none;stroke:#172c4b;stroke-linecap:square;stroke-opacity:0.7;"/>
   </g>
   <g id="line2d_18">
    <path clip-path="url(#p4af395d6ad)" d="M 221.259719 222.727916 
L 220.676666 222.653702 
L 373.581757 242.116223 
L 364.783249 241.105057 
L 351.678651 239.486888 
L 336.882029 237.567338 
L 313.739443 234.574455 
L 283.817669 230.779308 
L 264.782513 228.307052 
L 257.769068 227.622534 
L 251.617981 227.244771 
L 246.304272 227.136978 
L 241.053055 227.258258 
L 235.858164 227.608312 
L 230.709062 228.165034 
L 224.132889 229.113799 
L 219.85739 229.711295 
L 208.800498 230.745765 
L 207.582125 230.753716 
L 206.366726 230.397426 
L 202.740787 227.845561 
L 199.150086 225.552762 
L 195.600448 223.572857 
L 192.097147 221.949166 
L 186.373666 219.748092 
L 183.014972 218.812198 
L 178.630774 218.004834 
L 175.415867 217.720508 
L 171.229448 217.59559 
L 170.200884 217.425019 
L 167.15855 216.550249 
L 164.180941 215.936833 
L 161.267238 215.560609 
L 158.416186 215.393177 
L 154.636376 215.439786 
L 150.815638 215.720926 
L 147.093566 216.154239 
L 146.178605 216.032892 
L 141.697686 214.544429 
L 136.527524 213.081914 
L 131.582095 211.931164 
L 126.092535 210.912618 
L 120.179468 210.065715 
L 109.457564 208.626831 
L 101.771394 207.600439 
L 72.535843 203.938033 
L 69.218255 203.374711 
L 69.312205 203.343933 
L 73.652565 201.792576 
L 85.704639 197.246588 
L 88.129914 196.573401 
L 90.728439 195.935637 
L 93.027513 194.908124 
L 94.955092 194.287271 
L 96.96193 193.902548 
L 97.476114 193.836012 
L 129.983107 180.806858 
L 135.687736 178.613542 
L 140.820317 176.875721 
L 145.269892 175.582342 
L 149.875818 174.47373 
L 154.636376 173.589496 
L 159.359669 172.966303 
L 161.267238 172.699712 
L 165.166327 170.696078 
L 168.165443 169.393479 
L 171.229448 168.30315 
L 174.358471 167.459444 
L 177.552063 166.893646 
L 180.809144 166.633129 
L 183.014972 166.640466 
L 185.247575 166.799085 
L 187.506132 167.113247 
L 189.789686 167.585992 
L 192.097147 168.219075 
L 195.600448 169.469884 
L 199.150086 171.077718 
L 202.740787 173.031171 
L 206.366726 175.311843 
L 210.021596 177.894563 
L 213.698689 180.747811 
L 218.623879 184.907809 
L 221.091242 187.111836 
L 223.403887 190.049509 
L 228.512907 194.695387 
L 233.646553 199.49281 
L 244.797731 207.858041 
L 250.093225 211.731822 
L 252.38233 212.23792 
L 263.216104 212.437616 
L 269.505355 212.862583 
L 271.878408 212.969328 
L 274.257887 211.70014 
L 276.642713 210.659688 
L 279.031747 209.884206 
L 281.423807 209.400537 
L 283.817669 209.225674 
L 286.212083 209.366619 
L 288.605768 209.820558 
L 290.997423 210.575332 
L 293.385729 211.610181 
L 295.769349 212.896734 
L 298.146927 214.400207 
L 301.305258 216.672881 
L 302.092395 217.26506 
L 310.6677 218.924582 
L 318.288595 220.638409 
L 324.955134 222.357932 
L 331.392117 224.23492 
L 338.216064 226.468554 
L 344.627608 228.796825 
L 351.120508 231.376634 
L 357.917284 234.313102 
L 364.406638 237.351472 
L 370.499823 240.444698 
L 373.581757 242.116223 
L 373.581757 242.116223 
" style="fill:none;stroke:#172c4b;stroke-linecap:square;stroke-opacity:0.6;"/>
   </g>
   <g id="line2d_19">
    <path clip-path="url(#p4af395d6ad)" d="M 221.399666 222.74573 
L 220.490643 222.630024 
L 373.581738 242.116077 
L 358.501444 240.303626 
L 334.890853 237.474834 
L 317.017404 235.245479 
L 307.980234 234.059771 
L 300.321583 233.080341 
L 294.919735 232.581023 
L 277.882392 231.482607 
L 270.160218 231.252139 
L 261.699647 231.233737 
L 249.448711 231.463676 
L 233.417727 231.728636 
L 216.121094 231.727752 
L 206.2308 231.728323 
L 203.77559 231.428009 
L 202.551495 230.476302 
L 198.895173 227.276649 
L 195.266088 224.483329 
L 192.863865 222.879269 
L 190.476756 221.499854 
L 188.105904 220.35677 
L 185.752415 219.458098 
L 183.417353 218.808221 
L 179.951539 218.224967 
L 177.666925 217.842352 
L 173.163975 217.403043 
L 169.848004 216.900092 
L 166.587324 216.682283 
L 164.44536 216.671492 
L 162.32955 216.821132 
L 158.178453 217.44032 
L 155.137317 218.111973 
L 151.180947 219.246543 
L 150.209659 219.563249 
L 149.245544 219.19558 
L 145.461149 217.221104 
L 141.792496 215.519052 
L 138.239549 214.080359 
L 134.801569 212.888966 
L 130.663647 211.714723 
L 126.69943 210.84312 
L 122.164936 210.116564 
L 117.169616 209.580112 
L 109.3014 209.027373 
L 105.676819 208.693897 
L 100.066374 207.562058 
L 94.969448 206.764103 
L 89.932085 206.212051 
L 85.855852 205.773436 
L 80.305628 204.816663 
L 75.917178 204.303022 
L 70.577076 203.687766 
L 69.218237 203.374686 
L 69.280944 203.344723 
L 74.996774 200.570313 
L 79.101197 198.197362 
L 82.933009 196.06944 
L 85.474177 194.935505 
L 86.242218 194.558208 
L 88.659416 193.008308 
L 90.804444 191.915643 
L 92.606947 191.245805 
L 94.487152 190.810069 
L 96.445966 190.42648 
L 101.694442 187.914539 
L 111.189384 182.881693 
L 118.565284 177.709981 
L 128.264558 170.937461 
L 133.125289 167.796847 
L 137.369319 165.279564 
L 141.792496 162.922326 
L 145.461149 161.195179 
L 149.245544 159.64365 
L 153.144946 158.297843 
L 157.157785 157.185529 
L 161.281619 156.33167 
L 164.44536 155.874112 
L 167.667931 155.582158 
L 170.947302 155.462554 
L 174.281161 155.520849 
L 177.666925 155.761362 
L 181.101743 156.187165 
L 184.582515 156.800075 
L 188.105904 157.60064 
L 195.266088 159.471335 
L 197.682246 160.440032 
L 202.551495 162.646281 
L 207.46159 164.95384 
L 212.40213 167.549158 
L 217.36243 170.411381 
L 221.08909 172.718531 
L 222.735103 174.326636 
L 226.550422 178.56418 
L 231.128653 183.983708 
L 237.996041 192.533663 
L 247.920563 204.918026 
L 250.212984 207.651139 
L 250.9774 208.083318 
L 261.699647 210.700194 
L 268.619237 212.491919 
L 269.389576 212.511572 
L 272.473936 209.754147 
L 274.790254 207.942356 
L 277.108989 206.419077 
L 279.429864 205.234117 
L 280.978125 204.651135 
L 282.527042 204.243361 
L 284.076462 204.016121 
L 285.626215 203.972146 
L 287.17611 204.111605 
L 288.725937 204.432176 
L 290.275467 204.929144 
L 291.824456 205.595529 
L 294.146341 206.892345 
L 296.465448 208.510852 
L 298.780733 210.404306 
L 301.85989 213.224005 
L 304.927407 214.972558 
L 306.455855 215.953289 
L 308.74077 216.425703 
L 315.526396 217.824798 
L 322.176527 219.425671 
L 328.6472 221.226701 
L 334.209884 222.994828 
L 339.557451 224.912068 
L 344.651983 226.956365 
L 350.031501 229.357772 
L 355.504149 232.053313 
L 364.557146 236.701926 
L 369.688698 239.690482 
L 373.581738 242.116077 
L 373.581738 242.116077 
" style="fill:none;stroke:#172c4b;stroke-linecap:square;stroke-opacity:0.5;"/>
   </g>
   <g id="line2d_20">
    <path clip-path="url(#p4af395d6ad)" d="M 221.266207 222.728742 
L 220.403638 222.618949 
L 373.581734 242.116082 
L 368.907603 241.631632 
L 359.868906 240.524859 
L 296.00567 232.410178 
L 272.180584 229.593891 
L 263.217434 228.761457 
L 255.904773 228.300106 
L 249.450819 228.115556 
L 243.112496 228.175132 
L 236.875843 228.481573 
L 230.718815 229.013777 
L 223.259615 229.905841 
L 219.722731 230.276099 
L 201.192564 231.596797 
L 199.903225 231.486216 
L 198.620436 231.232345 
L 194.81459 227.669619 
L 192.315772 225.557868 
L 189.850205 223.681952 
L 187.419788 222.059412 
L 185.026172 220.703966 
L 182.670759 219.625318 
L 180.271961 218.829052 
L 177.881709 218.316601 
L 174.34672 217.794708 
L 172.025024 217.369331 
L 166.349107 216.626403 
L 164.131882 215.938896 
L 161.94589 215.492981 
L 159.791599 215.273078 
L 157.669398 215.261443 
L 155.579603 215.438509 
L 153.522455 215.783257 
L 150.498304 216.566201 
L 147.54829 217.599217 
L 144.672411 218.804076 
L 143.730219 218.479295 
L 140.043153 216.584147 
L 136.485581 214.987881 
L 133.055362 213.659478 
L 128.942617 212.326367 
L 125.018731 211.29861 
L 120.550063 210.385694 
L 115.65236 209.649987 
L 110.447918 209.103955 
L 103.927888 208.652456 
L 93.771427 208.076515 
L 91.113806 206.965239 
L 88.62351 206.207418 
L 86.294967 205.751329 
L 83.776542 205.501295 
L 79.647293 205.182865 
L 77.195202 204.601705 
L 74.031643 204.114636 
L 69.218232 203.375184 
L 69.30457 203.309944 
L 80.843221 195.031808 
L 83.095381 193.60794 
L 85.553893 191.603524 
L 87.439334 190.342856 
L 92.421319 187.599389 
L 93.771427 187.129656 
L 95.164963 186.845435 
L 96.602814 186.763406 
L 98.085922 186.894871 
L 98.590519 186.987201 
L 101.191952 186.301583 
L 106.803787 181.711769 
L 112.999359 176.344076 
L 122.752329 167.540684 
L 132.217406 159.094306 
L 137.362941 154.762097 
L 141.870388 151.211708 
L 146.581435 147.807429 
L 150.498304 145.254065 
L 154.546936 142.909312 
L 157.669398 141.32074 
L 160.864756 139.90393 
L 164.131882 138.6821 
L 167.469264 137.677824 
L 170.874987 136.912613 
L 174.34672 136.322296 
L 176.696538 134.99605 
L 179.073559 133.916757 
L 181.47678 133.10163 
L 183.843613 132.566036 
L 186.218286 132.323265 
L 188.630494 132.384324 
L 191.078708 132.757734 
L 193.561152 133.449351 
L 196.075811 134.462201 
L 198.620436 135.796346 
L 201.192564 137.448778 
L 203.789526 139.413344 
L 206.40847 141.680715 
L 209.046378 144.238392 
L 211.700087 147.070754 
L 214.366313 149.971412 
L 218.381711 152.987092 
L 221.0643 155.130325 
L 221.906927 156.238825 
L 225.289748 162.106841 
L 229.358627 169.708431 
L 243.112496 196.039367 
L 246.620142 202.08672 
L 248.032666 204.383909 
L 250.162043 205.011809 
L 261.008079 208.085788 
L 266.928381 209.839157 
L 272.180584 204.482755 
L 274.450264 202.620364 
L 276.730187 201.117434 
L 278.255436 200.335945 
L 279.784634 199.74158 
L 281.317515 199.340598 
L 282.8538 199.136634 
L 284.393199 199.130744 
L 285.935409 199.321471 
L 287.480118 199.704941 
L 289.027001 200.27499 
L 290.575724 201.023307 
L 292.9015 202.457034 
L 295.22943 204.226261 
L 297.558259 206.28155 
L 300.6625 209.371211 
L 303.762786 212.731371 
L 306.083372 214.247264 
L 312.23993 215.352235 
L 318.3262 216.660467 
L 324.309054 218.138072 
L 330.152162 219.820693 
L 335.815903 221.704306 
L 341.257505 223.771434 
L 346.431464 225.989275 
L 351.290286 228.309496 
L 356.319423 230.964109 
L 361.284431 233.845175 
L 366.25562 236.993607 
L 371.417268 240.543268 
L 373.581734 242.116082 
L 373.581734 242.116082 
" style="fill:none;stroke:#172c4b;stroke-linecap:square;stroke-opacity:0.4;"/>
   </g>
   <g id="line2d_21">
    <path clip-path="url(#p4af395d6ad)" d="M 221.23994 222.725399 
L 220.180207 222.590509 
L 373.58171 242.115852 
L 360.724474 240.589486 
L 348.568241 239.217042 
L 339.444652 238.186358 
L 313.088458 234.918888 
L 277.86368 230.398024 
L 269.701268 229.684976 
L 262.430532 229.27756 
L 255.304393 229.106744 
L 247.620507 229.166267 
L 239.393075 229.468087 
L 229.939403 230.04498 
L 216.716821 230.917718 
L 198.255081 231.61941 
L 195.486998 231.332257 
L 194.112891 230.578192 
L 191.386051 227.967475 
L 188.689594 225.620683 
L 186.025636 223.561849 
L 183.396111 221.81021 
L 180.802767 220.379921 
L 178.247162 219.279863 
L 175.73066 218.513575 
L 172.031727 217.813368 
L 169.615149 217.674517 
L 167.221279 217.718733 
L 164.868781 217.473805 
L 162.558264 217.446374 
L 160.290183 217.624892 
L 154.807321 218.315569 
L 151.646314 218.805326 
L 148.581196 217.489559 
L 145.610763 216.494665 
L 142.733311 214.828498 
L 139.946702 213.527474 
L 137.248441 212.552079 
L 134.635748 211.860336 
L 132.10563 211.409116 
L 128.855164 211.107381 
L 125.738312 211.058547 
L 121.297013 211.264141 
L 114.409123 211.708951 
L 109.904672 210.801081 
L 105.117174 209.594264 
L 94.71533 206.844887 
L 91.572601 206.281736 
L 88.672736 205.968816 
L 84.930971 205.627455 
L 82.901041 205.393654 
L 79.856424 205.100156 
L 77.460989 204.819933 
L 72.275933 204.365587 
L 69.218209 203.374337 
L 69.274193 203.320112 
L 69.927235 202.833651 
L 70.628503 202.573767 
L 71.187783 202.378207 
L 72.745287 201.509597 
L 74.551597 200.195583 
L 76.497443 198.519253 
L 78.224147 196.620774 
L 82.258831 191.721805 
L 84.581721 189.103155 
L 87.120785 186.338965 
L 88.672736 184.863684 
L 89.886442 183.983024 
L 91.143698 183.339432 
L 92.445307 182.968258 
L 93.792051 182.899672 
L 94.251127 182.948327 
L 94.71533 182.783823 
L 97.60972 180.476843 
L 100.167585 178.714804 
L 102.861596 177.107802 
L 106.279089 175.358784 
L 106.868694 175.081984 
L 109.285618 172.863312 
L 112.441493 169.722151 
L 115.752653 166.129068 
L 118.481542 162.887522 
L 122.018597 158.341897 
L 126.505416 152.148267 
L 131.280069 145.194928 
L 139.946702 131.642572 
L 144.641379 124.76136 
L 148.581196 119.392954 
L 151.646314 115.523257 
L 154.807321 111.84584 
L 158.064848 108.414452 
L 161.418896 105.283391 
L 163.708243 103.389561 
L 166.039817 101.668939 
L 168.413086 100.136856 
L 170.819443 98.808116 
L 173.254429 97.696855 
L 176.983946 96.375989 
L 180.802767 95.350416 
L 183.396111 94.99497 
L 186.025636 94.952271 
L 188.689594 95.232615 
L 191.386051 95.844024 
L 194.112891 96.792063 
L 196.867832 98.079688 
L 199.648427 99.707113 
L 202.452082 101.671708 
L 205.276067 103.967932 
L 208.117531 106.587297 
L 210.973519 109.518378 
L 215.278055 114.187253 
L 218.156888 117.571654 
L 221.039327 121.182916 
L 221.901426 123.06754 
L 224.577703 131.070061 
L 227.926634 141.895081 
L 233.302394 160.082584 
L 238.034605 175.966785 
L 241.436999 186.538526 
L 243.489062 192.44603 
L 244.175019 193.755348 
L 246.929232 197.337773 
L 249.70125 200.482517 
L 251.0944 201.815754 
L 260.9939 204.915901 
L 264.596405 206.092857 
L 265.321288 205.924097 
L 268.235452 202.147827 
L 270.43634 199.682936 
L 272.650101 197.622508 
L 274.132947 196.505663 
L 275.621262 195.611847 
L 279.365013 193.908798 
L 280.871235 193.49711 
L 282.382132 193.32504 
L 283.89747 193.393331 
L 285.416995 193.699756 
L 286.940432 194.239216 
L 288.46749 195.00388 
L 289.997857 195.983342 
L 291.531202 197.164809 
L 293.836041 199.282492 
L 296.145556 201.762141 
L 299.229888 205.51614 
L 303.088567 210.685493 
L 303.860183 211.755011 
L 304.631625 212.571741 
L 310.789597 213.609488 
L 316.900259 214.846175 
L 322.92857 216.287109 
L 328.836559 217.938833 
L 333.875199 219.55998 
L 338.760964 221.342698 
L 343.462624 223.276562 
L 347.947276 225.341032 
L 352.762864 227.81863 
L 357.197727 230.357816 
L 361.666304 233.18239 
L 365.89984 236.117373 
L 370.367115 239.498439 
L 373.58171 242.115852 
L 373.58171 242.115852 
" style="fill:none;stroke:#172c4b;stroke-linecap:square;stroke-opacity:0.3;"/>
   </g>
   <g id="line2d_22">
    <path clip-path="url(#p4af395d6ad)" d="M 221.238857 222.725261 
L 220.310707 222.60712 
L 373.581707 242.115863 
L 367.5734 241.462048 
L 338.528551 238.022201 
L 323.867158 235.923875 
L 308.59098 233.9954 
L 270.245295 229.435248 
L 262.444778 228.789858 
L 255.542086 228.444083 
L 248.812544 228.345604 
L 242.23774 228.481175 
L 235.150471 228.861698 
L 227.538439 229.496631 
L 218.095452 230.308445 
L 193.667453 231.474414 
L 192.28588 231.422291 
L 189.548645 230.039147 
L 186.848 228.486847 
L 184.186197 225.937286 
L 181.565251 223.690194 
L 178.986936 221.762196 
L 176.452777 220.164702 
L 173.964052 218.90382 
L 171.521786 217.980371 
L 169.126761 217.390022 
L 166.760558 217.123515 
L 164.433276 216.939464 
L 163.286951 216.927539 
L 159.917478 216.12016 
L 157.729049 215.829688 
L 155.586699 215.744565 
L 153.490049 215.851735 
L 151.43857 216.136435 
L 149.431597 216.582489 
L 146.50284 217.51607 
L 143.669336 218.625426 
L 140.927558 217.708457 
L 138.273652 217.132768 
L 135.703546 216.85778 
L 133.213055 216.81891 
L 130.008991 217.026915 
L 125.433147 217.622984 
L 119.715688 218.371602 
L 116.340924 218.561579 
L 114.383422 218.456129 
L 113.741698 218.322592 
L 110.611202 216.614134 
L 106.418011 214.006738 
L 99.134475 209.495717 
L 96.586429 208.172415 
L 94.177743 207.169194 
L 91.906129 206.498228 
L 89.768216 206.138667 
L 85.513022 205.649864 
L 78.827065 204.60277 
L 69.218205 203.37429 
L 70.068663 202.498809 
L 70.611618 201.994188 
L 72.40518 199.814238 
L 76.050338 195.295229 
L 79.386697 191.724361 
L 81.169639 189.877107 
L 82.77701 188.427857 
L 84.453875 187.215777 
L 85.513022 186.552988 
L 87.373047 184.219037 
L 88.949543 182.552589 
L 90.607595 181.153154 
L 91.906129 180.325237 
L 93.252814 179.719522 
L 94.648426 179.360076 
L 96.586429 179.112893 
L 98.613644 178.268038 
L 100.730744 177.679913 
L 102.377745 177.351804 
L 110.000379 172.630958 
L 113.105255 170.381081 
L 115.682966 168.25622 
L 117.673583 166.424675 
L 118.348447 165.722036 
L 121.106916 161.727141 
L 123.964716 157.163285 
L 126.929275 152.028936 
L 130.797977 144.842515 
L 135.703546 135.222324 
L 145.547921 115.729398 
L 149.431597 108.464617 
L 153.490049 101.357307 
L 156.652134 96.238666 
L 159.917478 91.390452 
L 163.286951 86.89474 
L 165.591157 84.134227 
L 167.941434 81.59136 
L 170.31833 79.289974 
L 172.737057 77.253246 
L 175.202665 75.503444 
L 177.714251 74.061681 
L 180.270663 72.947651 
L 182.8705 72.179366 
L 185.512111 71.772899 
L 188.193602 71.742118 
L 190.912838 72.098444 
L 193.667453 72.850613 
L 196.45486 74.004463 
L 199.272267 75.562742 
L 202.116687 77.524953 
L 204.984958 79.887227 
L 207.873763 82.642241 
L 210.779647 85.779184 
L 213.699044 89.28376 
L 216.628294 93.138256 
L 219.563674 97.321653 
L 221.032486 99.529257 
L 221.871442 101.809792 
L 224.387988 111.589321 
L 227.538439 124.9931 
L 233.23818 150.736026 
L 237.070708 167.661065 
L 240.291483 180.830279 
L 242.888993 190.434491 
L 244.195445 194.464018 
L 244.850704 196.233817 
L 245.507359 196.925936 
L 254.182756 199.835085 
L 265.256251 203.732507 
L 268.096497 201.106005 
L 270.245295 199.408078 
L 272.409711 198.019894 
L 273.861132 197.294356 
L 275.31917 196.744336 
L 276.783663 196.380074 
L 278.254432 196.20899 
L 279.731283 196.235683 
L 281.214005 195.731658 
L 282.702374 195.429958 
L 284.19615 195.341308 
L 285.695082 195.463234 
L 287.198906 195.790851 
L 288.707344 196.31702 
L 290.220108 197.032519 
L 292.496709 198.43598 
L 294.781312 200.195648 
L 297.837972 202.764097 
L 299.370034 203.680243 
L 302.439802 205.052607 
L 304.745561 206.348807 
L 307.052756 207.860854 
L 310.128766 210.162989 
L 313.201168 212.532864 
L 318.55733 213.48362 
L 323.867158 214.655765 
L 328.361432 215.856327 
L 332.783059 217.248534 
L 337.110807 218.834061 
L 341.321336 220.604367 
L 345.389403 222.539666 
L 349.91963 224.964048 
L 354.175196 227.503704 
L 359.689261 231.096706 
L 363.545404 233.804129 
L 367.5734 236.914259 
L 371.558836 240.287997 
L 373.581707 242.115863 
L 373.581707 242.115863 
" style="fill:none;stroke:#172c4b;stroke-linecap:square;stroke-opacity:0.2;"/>
   </g>
   <g id="line2d_23">
    <path clip-path="url(#p4af395d6ad)" d="M 220.731798 222.660719 
L 219.877151 222.551935 
L 373.581684 242.115885 
L 348.673902 239.05621 
L 324.092378 235.927836 
L 294.635919 232.157464 
L 267.958401 228.806026 
L 252.94796 226.88292 
L 247.154005 226.367924 
L 244.644728 226.143341 
L 241.563234 225.470635 
L 239.140095 225.142501 
L 236.751842 225.025254 
L 234.395522 225.131126 
L 232.067588 225.461944 
L 229.763939 226.008988 
L 227.479985 226.7535 
L 223.515223 228.210181 
L 221.032873 228.733955 
L 196.369006 230.944385 
L 193.542687 230.960956 
L 190.740551 230.317629 
L 189.349225 229.977949 
L 187.964741 229.018808 
L 185.217296 226.127454 
L 182.500146 223.65838 
L 179.815106 221.634812 
L 177.163869 220.072161 
L 174.548008 218.977881 
L 171.968965 218.351509 
L 169.428053 218.133635 
L 166.926455 217.328317 
L 164.465221 216.816001 
L 162.045268 216.574054 
L 159.667383 216.651889 
L 157.332222 217.028635 
L 155.040316 217.679972 
L 152.792069 218.578708 
L 151.684411 219.058104 
L 147.364044 220.086611 
L 144.239653 220.526025 
L 141.214174 221.241418 
L 138.286709 222.186552 
L 136.388881 222.920586 
L 135.455935 222.514285 
L 132.720148 219.740151 
L 130.077324 217.373592 
L 127.525163 215.380862 
L 125.061148 213.726122 
L 122.682593 212.372465 
L 120.38669 211.282861 
L 117.449067 210.178215 
L 114.646341 209.396703 
L 111.971649 208.863301 
L 108.798167 208.445075 
L 104.650384 208.135114 
L 93.11386 207.427716 
L 92.244581 207.256556 
L 89.752683 206.568517 
L 87.056626 206.086758 
L 84.240344 205.611262 
L 79.137073 204.709787 
L 73.141807 203.910008 
L 69.218182 203.373954 
L 69.251216 203.327477 
L 69.783816 202.745699 
L 70.470699 202.08076 
L 72.082943 200.116601 
L 74.186341 197.170403 
L 80.233867 188.435451 
L 80.80584 187.496412 
L 82.617837 184.346057 
L 84.918653 180.919512 
L 86.326582 179.059467 
L 87.428265 177.874449 
L 89.752683 175.825323 
L 90.9772 175.126532 
L 92.244581 174.728742 
L 92.676756 174.599093 
L 98.261211 166.526153 
L 102.424141 160.913025 
L 109.418302 151.714035 
L 110.680215 150.064975 
L 111.971649 147.693889 
L 117.449067 136.43061 
L 133.621642 102.772272 
L 138.286709 93.718476 
L 142.211723 86.520758 
L 146.311554 79.482434 
L 149.502151 74.380868 
L 152.792069 69.491414 
L 156.180834 64.870693 
L 159.667383 60.576813 
L 162.045268 57.924836 
L 164.465221 55.461656 
L 166.926455 53.204495 
L 169.428053 51.170255 
L 171.968965 49.375371 
L 174.548008 47.835655 
L 177.163869 46.566137 
L 179.815106 45.580907 
L 182.500146 44.892946 
L 185.217296 44.513974 
L 187.964741 44.454289 
L 190.740551 44.722617 
L 193.542687 45.325977 
L 196.369006 46.269542 
L 199.217273 47.556538 
L 202.085162 49.188132 
L 204.970267 51.163365 
L 207.870116 53.479088 
L 210.782174 56.12993 
L 213.703856 59.108284 
L 216.632537 62.404328 
L 219.565564 66.006061 
L 221.032873 67.917232 
L 221.822677 69.899374 
L 224.079945 78.494344 
L 226.343842 88.038375 
L 229.191293 101.032887 
L 233.811028 123.366144 
L 239.140095 148.932307 
L 240.347143 154.458741 
L 240.95404 156.294343 
L 245.268313 164.294265 
L 252.293981 177.951138 
L 254.925155 182.84236 
L 260.991705 192.626868 
L 263.057552 195.834788 
L 267.25158 189.793981 
L 268.667391 188.214397 
L 270.091777 186.910927 
L 271.524537 185.899046 
L 272.965463 185.189972 
L 274.414341 184.790661 
L 275.870957 184.703842 
L 277.33509 184.928081 
L 278.806517 185.457879 
L 279.544894 185.834565 
L 282.515484 186.729837 
L 284.010609 187.51728 
L 285.511961 188.558406 
L 289.290889 191.744501 
L 291.574406 193.964123 
L 293.868853 196.57027 
L 296.173181 199.497277 
L 299.259037 203.775459 
L 303.910596 210.636489 
L 306.243665 210.917182 
L 312.474646 211.687516 
L 317.917378 212.58464 
L 323.324504 213.707362 
L 328.666677 215.067583 
L 333.169103 216.428151 
L 337.576815 217.969972 
L 341.865085 219.690414 
L 346.007367 221.581344 
L 349.975419 223.62722 
L 353.739497 225.80305 
L 357.268671 228.072622 
L 361.046875 230.773559 
L 364.411784 233.437859 
L 368.052214 236.6209 
L 371.555039 240.004775 
L 373.581684 242.115885 
L 373.581684 242.115885 
" style="fill:none;stroke:#172c4b;stroke-linecap:square;stroke-opacity:0.1;"/>
   </g>
   <g id="line2d_24">
    <path clip-path="url(#p4af395d6ad)" d="M 221.399726 222.745737 
L 373.581477 242.116364 
L 349.84485 239.206449 
L 268.244377 229.059116 
L 186.071407 218.615467 
L 103.904084 207.946648 
L 69.218728 203.375203 
L 79.403142 204.62142 
L 160.684481 214.691782 
L 242.152725 225.007098 
L 324.07984 235.604448 
L 373.581477 242.116364 
L 373.581477 242.116364 
" style="fill:none;stroke:#3b65ac;stroke-dasharray:5.55,2.4;stroke-dashoffset:0;stroke-width:1.5;"/>
   </g>
   <g id="line2d_25">
    <path clip-path="url(#p4af395d6ad)" d="M 221.399726 222.745737 
L 373.581477 242.116364 
L 69.218728 203.375207 
L 373.581477 242.116364 
" style="fill:none;stroke:#cba74e;stroke-dasharray:9.6,2.4,1.5,2.4;stroke-dashoffset:0;stroke-width:1.5;"/>
   </g>
   <g id="patch_3">
    <path d="M 54 252 
L 54 34.56 
" style="fill:none;stroke:#000000;stroke-linecap:square;stroke-linejoin:miter;stroke-width:0.8;"/>
   </g>
   <g id="patch_4">
    <path d="M 388.8 252 
L 388.8 34.56 
" style="fill:none;stroke:#000000;stroke-linecap:square;stroke-linejoin:miter;stroke-width:0.8;"/>
   </g>
   <g id="patch_5">
    <path d="M 54 252 
L 388.8 252 
" style="fill:none;stroke:#000000;stroke-linecap:square;stroke-linejoin:miter;stroke-width:0.8;"/>
   </g>
   <g id="patch_6">
    <path d="M 54 34.56 
L 388.8 34.56 
" style="fill:none;stroke:#000000;stroke-linecap:square;stroke-linejoin:miter;stroke-width:0.8;"/>
   </g>
   <g id="text_17">
    <!-- Work loop: Nonlinear Oscillator (upper bound) -->
    <g transform="translate(83.429063 28.56)scale(0.12 -0.12)">
     <defs>
      <path d="M 3.328125 72.90625 
L 13.28125 72.90625 
L 28.609375 11.28125 
L 43.890625 72.90625 
L 54.984375 72.90625 
L 70.3125 11.28125 
L 85.59375 72.90625 
L 95.609375 72.90625 
L 77.296875 0 
L 64.890625 0 
L 49.515625 63.28125 
L 33.984375 0 
L 21.578125 0 
z
" id="DejaVuSans-87"/>
      <path d="M 41.109375 46.296875 
Q 39.59375 47.171875 37.8125 47.578125 
Q 36.03125 48 33.890625 48 
Q 26.265625 48 22.1875 43.046875 
Q 18.109375 38.09375 18.109375 28.8125 
L 18.109375 0 
L 9.078125 0 
L 9.078125 54.6875 
L 18.109375 54.6875 
L 18.109375 46.1875 
Q 20.953125 51.171875 25.484375 53.578125 
Q 30.03125 56 36.53125 56 
Q 37.453125 56 38.578125 55.875 
Q 39.703125 55.765625 41.0625 55.515625 
z
" id="DejaVuSans-114"/>
      <path d="M 9.078125 75.984375 
L 18.109375 75.984375 
L 18.109375 31.109375 
L 44.921875 54.6875 
L 56.390625 54.6875 
L 27.390625 29.109375 
L 57.625 0 
L 45.90625 0 
L 18.109375 26.703125 
L 18.109375 0 
L 9.078125 0 
z
" id="DejaVuSans-107"/>
      <path d="M 18.109375 8.203125 
L 18.109375 -20.796875 
L 9.078125 -20.796875 
L 9.078125 54.6875 
L 18.109375 54.6875 
L 18.109375 46.390625 
Q 20.953125 51.265625 25.265625 53.625 
Q 29.59375 56 35.59375 56 
Q 45.5625 56 51.78125 48.09375 
Q 58.015625 40.1875 58.015625 27.296875 
Q 58.015625 14.40625 51.78125 6.484375 
Q 45.5625 -1.421875 35.59375 -1.421875 
Q 29.59375 -1.421875 25.265625 0.953125 
Q 20.953125 3.328125 18.109375 8.203125 
z
M 48.6875 27.296875 
Q 48.6875 37.203125 44.609375 42.84375 
Q 40.53125 48.484375 33.40625 48.484375 
Q 26.265625 48.484375 22.1875 42.84375 
Q 18.109375 37.203125 18.109375 27.296875 
Q 18.109375 17.390625 22.1875 11.75 
Q 26.265625 6.109375 33.40625 6.109375 
Q 40.53125 6.109375 44.609375 11.75 
Q 48.6875 17.390625 48.6875 27.296875 
z
" id="DejaVuSans-112"/>
      <path d="M 11.71875 12.40625 
L 22.015625 12.40625 
L 22.015625 0 
L 11.71875 0 
z
M 11.71875 51.703125 
L 22.015625 51.703125 
L 22.015625 39.3125 
L 11.71875 39.3125 
z
" id="DejaVuSans-58"/>
      <path d="M 9.8125 72.90625 
L 23.09375 72.90625 
L 55.421875 11.921875 
L 55.421875 72.90625 
L 64.984375 72.90625 
L 64.984375 0 
L 51.703125 0 
L 19.390625 60.984375 
L 19.390625 0 
L 9.8125 0 
z
" id="DejaVuSans-78"/>
      <path d="M 39.40625 66.21875 
Q 28.65625 66.21875 22.328125 58.203125 
Q 16.015625 50.203125 16.015625 36.375 
Q 16.015625 22.609375 22.328125 14.59375 
Q 28.65625 6.59375 39.40625 6.59375 
Q 50.140625 6.59375 56.421875 14.59375 
Q 62.703125 22.609375 62.703125 36.375 
Q 62.703125 50.203125 56.421875 58.203125 
Q 50.140625 66.21875 39.40625 66.21875 
z
M 39.40625 74.21875 
Q 54.734375 74.21875 63.90625 63.9375 
Q 73.09375 53.65625 73.09375 36.375 
Q 73.09375 19.140625 63.90625 8.859375 
Q 54.734375 -1.421875 39.40625 -1.421875 
Q 24.03125 -1.421875 14.8125 8.828125 
Q 5.609375 19.09375 5.609375 36.375 
Q 5.609375 53.65625 14.8125 63.9375 
Q 24.03125 74.21875 39.40625 74.21875 
z
" id="DejaVuSans-79"/>
      <path d="M 31 75.875 
Q 24.46875 64.65625 21.28125 53.65625 
Q 18.109375 42.671875 18.109375 31.390625 
Q 18.109375 20.125 21.3125 9.0625 
Q 24.515625 -2 31 -13.1875 
L 23.1875 -13.1875 
Q 15.875 -1.703125 12.234375 9.375 
Q 8.59375 20.453125 8.59375 31.390625 
Q 8.59375 42.28125 12.203125 53.3125 
Q 15.828125 64.359375 23.1875 75.875 
z
" id="DejaVuSans-40"/>
      <path d="M 8.5 21.578125 
L 8.5 54.6875 
L 17.484375 54.6875 
L 17.484375 21.921875 
Q 17.484375 14.15625 20.5 10.265625 
Q 23.53125 6.390625 29.59375 6.390625 
Q 36.859375 6.390625 41.078125 11.03125 
Q 45.3125 15.671875 45.3125 23.6875 
L 45.3125 54.6875 
L 54.296875 54.6875 
L 54.296875 0 
L 45.3125 0 
L 45.3125 8.40625 
Q 42.046875 3.421875 37.71875 1 
Q 33.40625 -1.421875 27.6875 -1.421875 
Q 18.265625 -1.421875 13.375 4.4375 
Q 8.5 10.296875 8.5 21.578125 
z
M 31.109375 56 
z
" id="DejaVuSans-117"/>
      <path d="M 48.6875 27.296875 
Q 48.6875 37.203125 44.609375 42.84375 
Q 40.53125 48.484375 33.40625 48.484375 
Q 26.265625 48.484375 22.1875 42.84375 
Q 18.109375 37.203125 18.109375 27.296875 
Q 18.109375 17.390625 22.1875 11.75 
Q 26.265625 6.109375 33.40625 6.109375 
Q 40.53125 6.109375 44.609375 11.75 
Q 48.6875 17.390625 48.6875 27.296875 
z
M 18.109375 46.390625 
Q 20.953125 51.265625 25.265625 53.625 
Q 29.59375 56 35.59375 56 
Q 45.5625 56 51.78125 48.09375 
Q 58.015625 40.1875 58.015625 27.296875 
Q 58.015625 14.40625 51.78125 6.484375 
Q 45.5625 -1.421875 35.59375 -1.421875 
Q 29.59375 -1.421875 25.265625 0.953125 
Q 20.953125 3.328125 18.109375 8.203125 
L 18.109375 0 
L 9.078125 0 
L 9.078125 75.984375 
L 18.109375 75.984375 
z
" id="DejaVuSans-98"/>
      <path d="M 8.015625 75.875 
L 15.828125 75.875 
Q 23.140625 64.359375 26.78125 53.3125 
Q 30.421875 42.28125 30.421875 31.390625 
Q 30.421875 20.453125 26.78125 9.375 
Q 23.140625 -1.703125 15.828125 -13.1875 
L 8.015625 -13.1875 
Q 14.5 -2 17.703125 9.0625 
Q 20.90625 20.125 20.90625 31.390625 
Q 20.90625 42.671875 17.703125 53.65625 
Q 14.5 64.65625 8.015625 75.875 
z
" id="DejaVuSans-41"/>
     </defs>
     <use xlink:href="#DejaVuSans-87"/>
     <use x="93.001953" xlink:href="#DejaVuSans-111"/>
     <use x="154.183594" xlink:href="#DejaVuSans-114"/>
     <use x="195.296875" xlink:href="#DejaVuSans-107"/>
     <use x="253.207031" xlink:href="#DejaVuSans-32"/>
     <use x="284.994141" xlink:href="#DejaVuSans-108"/>
     <use x="312.777344" xlink:href="#DejaVuSans-111"/>
     <use x="373.958984" xlink:href="#DejaVuSans-111"/>
     <use x="435.140625" xlink:href="#DejaVuSans-112"/>
     <use x="498.617188" xlink:href="#DejaVuSans-58"/>
     <use x="532.308594" xlink:href="#DejaVuSans-32"/>
     <use x="564.095703" xlink:href="#DejaVuSans-78"/>
     <use x="638.900391" xlink:href="#DejaVuSans-111"/>
     <use x="700.082031" xlink:href="#DejaVuSans-110"/>
     <use x="763.460938" xlink:href="#DejaVuSans-108"/>
     <use x="791.244141" xlink:href="#DejaVuSans-105"/>
     <use x="819.027344" xlink:href="#DejaVuSans-110"/>
     <use x="882.40625" xlink:href="#DejaVuSans-101"/>
     <use x="943.929688" xlink:href="#DejaVuSans-97"/>
     <use x="1005.208984" xlink:href="#DejaVuSans-114"/>
     <use x="1046.322266" xlink:href="#DejaVuSans-32"/>
     <use x="1078.109375" xlink:href="#DejaVuSans-79"/>
     <use x="1156.820312" xlink:href="#DejaVuSans-115"/>
     <use x="1208.919922" xlink:href="#DejaVuSans-99"/>
     <use x="1263.900391" xlink:href="#DejaVuSans-105"/>
     <use x="1291.683594" xlink:href="#DejaVuSans-108"/>
     <use x="1319.466797" xlink:href="#DejaVuSans-108"/>
     <use x="1347.25" xlink:href="#DejaVuSans-97"/>
     <use x="1408.529297" xlink:href="#DejaVuSans-116"/>
     <use x="1447.738281" xlink:href="#DejaVuSans-111"/>
     <use x="1508.919922" xlink:href="#DejaVuSans-114"/>
     <use x="1550.033203" xlink:href="#DejaVuSans-32"/>
     <use x="1581.820312" xlink:href="#DejaVuSans-40"/>
     <use x="1620.833984" xlink:href="#DejaVuSans-117"/>
     <use x="1684.212891" xlink:href="#DejaVuSans-112"/>
     <use x="1747.689453" xlink:href="#DejaVuSans-112"/>
     <use x="1811.166016" xlink:href="#DejaVuSans-101"/>
     <use x="1872.689453" xlink:href="#DejaVuSans-114"/>
     <use x="1913.802734" xlink:href="#DejaVuSans-32"/>
     <use x="1945.589844" xlink:href="#DejaVuSans-98"/>
     <use x="2009.066406" xlink:href="#DejaVuSans-111"/>
     <use x="2070.248047" xlink:href="#DejaVuSans-117"/>
     <use x="2133.626953" xlink:href="#DejaVuSans-110"/>
     <use x="2197.005859" xlink:href="#DejaVuSans-100"/>
     <use x="2260.482422" xlink:href="#DejaVuSans-41"/>
    </g>
   </g>
  </g>
 </g>
 <defs>
  <clipPath id="p4af395d6ad">
   <rect height="217.44" width="334.8" x="54" y="34.56"/>
  </clipPath>
 </defs>
</svg>
