<?xml version="1.0" encoding="utf-8" standalone="no"?>
<!DOCTYPE svg PUBLIC "-//W3C//DTD SVG 1.1//EN"
  "http://www.w3.org/Graphics/SVG/1.1/DTD/svg11.dtd">
<!-- Created with matplotlib (https://matplotlib.org/) -->
<svg height="288pt" version="1.1" viewBox="0 0 432 288" width="432pt" xmlns="http://www.w3.org/2000/svg" xmlns:xlink="http://www.w3.org/1999/xlink">
 <metadata>
  <rdf:RDF xmlns:cc="http://creativecommons.org/ns#" xmlns:dc="http://purl.org/dc/elements/1.1/" xmlns:rdf="http://www.w3.org/1999/02/22-rdf-syntax-ns#">
   <cc:Work>
    <dc:type rdf:resource="http://purl.org/dc/dcmitype/StillImage"/>
    <dc:date>2024-09-03T21:03:50.376147</dc:date>
    <dc:format>image/svg+xml</dc:format>
    <dc:creator>
     <cc:Agent>
      <dc:title>Matplotlib v3.3.4, https://matplotlib.org/</dc:title>
     </cc:Agent>
    </dc:creator>
   </cc:Work>
  </rdf:RDF>
 </metadata>
 <defs>
  <style type="text/css">*{stroke-linecap:butt;stroke-linejoin:round;}</style>
 </defs>
 <g id="figure_1">
  <g id="patch_1">
   <path d="M 0 288 
L 432 288 
L 432 0 
L 0 0 
z
" style="fill:none;"/>
  </g>
  <g id="axes_1">
   <g id="patch_2">
    <path d="M 54 252 
L 388.8 252 
L 388.8 34.56 
L 54 34.56 
z
" style="fill:#ffffff;"/>
   </g>
   <g id="matplotlib.axis_1">
    <g id="xtick_1">
     <g id="line2d_1">
      <defs>
       <path d="M 0 0 
L 0 3.5 
" id="m485de0602d" style="stroke:#000000;stroke-width:0.8;"/>
      </defs>
      <g>
       <use style="stroke:#000000;stroke-width:0.8;" x="97.550551" xlink:href="#m485de0602d" y="252"/>
      </g>
     </g>
     <g id="text_1">
      <!-- −1.0 -->
      <g transform="translate(82.980863 268.118125)scale(0.12 -0.12)">
       <defs>
        <path d="M 10.59375 35.5 
L 73.1875 35.5 
L 73.1875 27.203125 
L 10.59375 27.203125 
z
" id="DejaVuSans-8722"/>
        <path d="M 12.40625 8.296875 
L 28.515625 8.296875 
L 28.515625 63.921875 
L 10.984375 60.40625 
L 10.984375 69.390625 
L 28.421875 72.90625 
L 38.28125 72.90625 
L 38.28125 8.296875 
L 54.390625 8.296875 
L 54.390625 0 
L 12.40625 0 
z
" id="DejaVuSans-49"/>
        <path d="M 10.6875 12.40625 
L 21 12.40625 
L 21 0 
L 10.6875 0 
z
" id="DejaVuSans-46"/>
        <path d="M 31.78125 66.40625 
Q 24.171875 66.40625 20.328125 58.90625 
Q 16.5 51.421875 16.5 36.375 
Q 16.5 21.390625 20.328125 13.890625 
Q 24.171875 6.390625 31.78125 6.390625 
Q 39.453125 6.390625 43.28125 13.890625 
Q 47.125 21.390625 47.125 36.375 
Q 47.125 51.421875 43.28125 58.90625 
Q 39.453125 66.40625 31.78125 66.40625 
z
M 31.78125 74.21875 
Q 44.046875 74.21875 50.515625 64.515625 
Q 56.984375 54.828125 56.984375 36.375 
Q 56.984375 17.96875 50.515625 8.265625 
Q 44.046875 -1.421875 31.78125 -1.421875 
Q 19.53125 -1.421875 13.0625 8.265625 
Q 6.59375 17.96875 6.59375 36.375 
Q 6.59375 54.828125 13.0625 64.515625 
Q 19.53125 74.21875 31.78125 74.21875 
z
" id="DejaVuSans-48"/>
       </defs>
       <use xlink:href="#DejaVuSans-8722"/>
       <use x="83.789062" xlink:href="#DejaVuSans-49"/>
       <use x="147.412109" xlink:href="#DejaVuSans-46"/>
       <use x="179.199219" xlink:href="#DejaVuSans-48"/>
      </g>
     </g>
    </g>
    <g id="xtick_2">
     <g id="line2d_2">
      <g>
       <use style="stroke:#000000;stroke-width:0.8;" x="159.474691" xlink:href="#m485de0602d" y="252"/>
      </g>
     </g>
     <g id="text_2">
      <!-- −0.5 -->
      <g transform="translate(144.905003 268.118125)scale(0.12 -0.12)">
       <defs>
        <path d="M 10.796875 72.90625 
L 49.515625 72.90625 
L 49.515625 64.59375 
L 19.828125 64.59375 
L 19.828125 46.734375 
Q 21.96875 47.46875 24.109375 47.828125 
Q 26.265625 48.1875 28.421875 48.1875 
Q 40.625 48.1875 47.75 41.5 
Q 54.890625 34.8125 54.890625 23.390625 
Q 54.890625 11.625 47.5625 5.09375 
Q 40.234375 -1.421875 26.90625 -1.421875 
Q 22.3125 -1.421875 17.546875 -0.640625 
Q 12.796875 0.140625 7.71875 1.703125 
L 7.71875 11.625 
Q 12.109375 9.234375 16.796875 8.0625 
Q 21.484375 6.890625 26.703125 6.890625 
Q 35.15625 6.890625 40.078125 11.328125 
Q 45.015625 15.765625 45.015625 23.390625 
Q 45.015625 31 40.078125 35.4375 
Q 35.15625 39.890625 26.703125 39.890625 
Q 22.75 39.890625 18.8125 39.015625 
Q 14.890625 38.140625 10.796875 36.28125 
z
" id="DejaVuSans-53"/>
       </defs>
       <use xlink:href="#DejaVuSans-8722"/>
       <use x="83.789062" xlink:href="#DejaVuSans-48"/>
       <use x="147.412109" xlink:href="#DejaVuSans-46"/>
       <use x="179.199219" xlink:href="#DejaVuSans-53"/>
      </g>
     </g>
    </g>
    <g id="xtick_3">
     <g id="line2d_3">
      <g>
       <use style="stroke:#000000;stroke-width:0.8;" x="221.39883" xlink:href="#m485de0602d" y="252"/>
      </g>
     </g>
     <g id="text_3">
      <!-- 0.0 -->
      <g transform="translate(211.856955 268.118125)scale(0.12 -0.12)">
       <use xlink:href="#DejaVuSans-48"/>
       <use x="63.623047" xlink:href="#DejaVuSans-46"/>
       <use x="95.410156" xlink:href="#DejaVuSans-48"/>
      </g>
     </g>
    </g>
    <g id="xtick_4">
     <g id="line2d_4">
      <g>
       <use style="stroke:#000000;stroke-width:0.8;" x="283.32297" xlink:href="#m485de0602d" y="252"/>
      </g>
     </g>
     <g id="text_4">
      <!-- 0.5 -->
      <g transform="translate(273.781095 268.118125)scale(0.12 -0.12)">
       <use xlink:href="#DejaVuSans-48"/>
       <use x="63.623047" xlink:href="#DejaVuSans-46"/>
       <use x="95.410156" xlink:href="#DejaVuSans-53"/>
      </g>
     </g>
    </g>
    <g id="xtick_5">
     <g id="line2d_5">
      <g>
       <use style="stroke:#000000;stroke-width:0.8;" x="345.24711" xlink:href="#m485de0602d" y="252"/>
      </g>
     </g>
     <g id="text_5">
      <!-- 1.0 -->
      <g transform="translate(335.705235 268.118125)scale(0.12 -0.12)">
       <use xlink:href="#DejaVuSans-49"/>
       <use x="63.623047" xlink:href="#DejaVuSans-46"/>
       <use x="95.410156" xlink:href="#DejaVuSans-48"/>
      </g>
     </g>
    </g>
    <g id="text_6">
     <!-- Inelastic load $G$ -->
     <g transform="translate(182.75 282.212188)scale(0.1 -0.1)">
      <defs>
       <path d="M 9.8125 72.90625 
L 19.671875 72.90625 
L 19.671875 0 
L 9.8125 0 
z
" id="DejaVuSans-73"/>
       <path d="M 54.890625 33.015625 
L 54.890625 0 
L 45.90625 0 
L 45.90625 32.71875 
Q 45.90625 40.484375 42.875 44.328125 
Q 39.84375 48.1875 33.796875 48.1875 
Q 26.515625 48.1875 22.3125 43.546875 
Q 18.109375 38.921875 18.109375 30.90625 
L 18.109375 0 
L 9.078125 0 
L 9.078125 54.6875 
L 18.109375 54.6875 
L 18.109375 46.1875 
Q 21.34375 51.125 25.703125 53.5625 
Q 30.078125 56 35.796875 56 
Q 45.21875 56 50.046875 50.171875 
Q 54.890625 44.34375 54.890625 33.015625 
z
" id="DejaVuSans-110"/>
       <path d="M 56.203125 29.59375 
L 56.203125 25.203125 
L 14.890625 25.203125 
Q 15.484375 15.921875 20.484375 11.0625 
Q 25.484375 6.203125 34.421875 6.203125 
Q 39.59375 6.203125 44.453125 7.46875 
Q 49.3125 8.734375 54.109375 11.28125 
L 54.109375 2.78125 
Q 49.265625 0.734375 44.1875 -0.34375 
Q 39.109375 -1.421875 33.890625 -1.421875 
Q 20.796875 -1.421875 13.15625 6.1875 
Q 5.515625 13.8125 5.515625 26.8125 
Q 5.515625 40.234375 12.765625 48.109375 
Q 20.015625 56 32.328125 56 
Q 43.359375 56 49.78125 48.890625 
Q 56.203125 41.796875 56.203125 29.59375 
z
M 47.21875 32.234375 
Q 47.125 39.59375 43.09375 43.984375 
Q 39.0625 48.390625 32.421875 48.390625 
Q 24.90625 48.390625 20.390625 44.140625 
Q 15.875 39.890625 15.1875 32.171875 
z
" id="DejaVuSans-101"/>
       <path d="M 9.421875 75.984375 
L 18.40625 75.984375 
L 18.40625 0 
L 9.421875 0 
z
" id="DejaVuSans-108"/>
       <path d="M 34.28125 27.484375 
Q 23.390625 27.484375 19.1875 25 
Q 14.984375 22.515625 14.984375 16.5 
Q 14.984375 11.71875 18.140625 8.90625 
Q 21.296875 6.109375 26.703125 6.109375 
Q 34.1875 6.109375 38.703125 11.40625 
Q 43.21875 16.703125 43.21875 25.484375 
L 43.21875 27.484375 
z
M 52.203125 31.203125 
L 52.203125 0 
L 43.21875 0 
L 43.21875 8.296875 
Q 40.140625 3.328125 35.546875 0.953125 
Q 30.953125 -1.421875 24.3125 -1.421875 
Q 15.921875 -1.421875 10.953125 3.296875 
Q 6 8.015625 6 15.921875 
Q 6 25.140625 12.171875 29.828125 
Q 18.359375 34.515625 30.609375 34.515625 
L 43.21875 34.515625 
L 43.21875 35.40625 
Q 43.21875 41.609375 39.140625 45 
Q 35.0625 48.390625 27.6875 48.390625 
Q 23 48.390625 18.546875 47.265625 
Q 14.109375 46.140625 10.015625 43.890625 
L 10.015625 52.203125 
Q 14.9375 54.109375 19.578125 55.046875 
Q 24.21875 56 28.609375 56 
Q 40.484375 56 46.34375 49.84375 
Q 52.203125 43.703125 52.203125 31.203125 
z
" id="DejaVuSans-97"/>
       <path d="M 44.28125 53.078125 
L 44.28125 44.578125 
Q 40.484375 46.53125 36.375 47.5 
Q 32.28125 48.484375 27.875 48.484375 
Q 21.1875 48.484375 17.84375 46.4375 
Q 14.5 44.390625 14.5 40.28125 
Q 14.5 37.15625 16.890625 35.375 
Q 19.28125 33.59375 26.515625 31.984375 
L 29.59375 31.296875 
Q 39.15625 29.25 43.1875 25.515625 
Q 47.21875 21.78125 47.21875 15.09375 
Q 47.21875 7.46875 41.1875 3.015625 
Q 35.15625 -1.421875 24.609375 -1.421875 
Q 20.21875 -1.421875 15.453125 -0.5625 
Q 10.6875 0.296875 5.421875 2 
L 5.421875 11.28125 
Q 10.40625 8.6875 15.234375 7.390625 
Q 20.0625 6.109375 24.8125 6.109375 
Q 31.15625 6.109375 34.5625 8.28125 
Q 37.984375 10.453125 37.984375 14.40625 
Q 37.984375 18.0625 35.515625 20.015625 
Q 33.0625 21.96875 24.703125 23.78125 
L 21.578125 24.515625 
Q 13.234375 26.265625 9.515625 29.90625 
Q 5.8125 33.546875 5.8125 39.890625 
Q 5.8125 47.609375 11.28125 51.796875 
Q 16.75 56 26.8125 56 
Q 31.78125 56 36.171875 55.265625 
Q 40.578125 54.546875 44.28125 53.078125 
z
" id="DejaVuSans-115"/>
       <path d="M 18.3125 70.21875 
L 18.3125 54.6875 
L 36.8125 54.6875 
L 36.8125 47.703125 
L 18.3125 47.703125 
L 18.3125 18.015625 
Q 18.3125 11.328125 20.140625 9.421875 
Q 21.96875 7.515625 27.59375 7.515625 
L 36.8125 7.515625 
L 36.8125 0 
L 27.59375 0 
Q 17.1875 0 13.234375 3.875 
Q 9.28125 7.765625 9.28125 18.015625 
L 9.28125 47.703125 
L 2.6875 47.703125 
L 2.6875 54.6875 
L 9.28125 54.6875 
L 9.28125 70.21875 
z
" id="DejaVuSans-116"/>
       <path d="M 9.421875 54.6875 
L 18.40625 54.6875 
L 18.40625 0 
L 9.421875 0 
z
M 9.421875 75.984375 
L 18.40625 75.984375 
L 18.40625 64.59375 
L 9.421875 64.59375 
z
" id="DejaVuSans-105"/>
       <path d="M 48.78125 52.59375 
L 48.78125 44.1875 
Q 44.96875 46.296875 41.140625 47.34375 
Q 37.3125 48.390625 33.40625 48.390625 
Q 24.65625 48.390625 19.8125 42.84375 
Q 14.984375 37.3125 14.984375 27.296875 
Q 14.984375 17.28125 19.8125 11.734375 
Q 24.65625 6.203125 33.40625 6.203125 
Q 37.3125 6.203125 41.140625 7.25 
Q 44.96875 8.296875 48.78125 10.40625 
L 48.78125 2.09375 
Q 45.015625 0.34375 40.984375 -0.53125 
Q 36.96875 -1.421875 32.421875 -1.421875 
Q 20.0625 -1.421875 12.78125 6.34375 
Q 5.515625 14.109375 5.515625 27.296875 
Q 5.515625 40.671875 12.859375 48.328125 
Q 20.21875 56 33.015625 56 
Q 37.15625 56 41.109375 55.140625 
Q 45.0625 54.296875 48.78125 52.59375 
z
" id="DejaVuSans-99"/>
       <path id="DejaVuSans-32"/>
       <path d="M 30.609375 48.390625 
Q 23.390625 48.390625 19.1875 42.75 
Q 14.984375 37.109375 14.984375 27.296875 
Q 14.984375 17.484375 19.15625 11.84375 
Q 23.34375 6.203125 30.609375 6.203125 
Q 37.796875 6.203125 41.984375 11.859375 
Q 46.1875 17.53125 46.1875 27.296875 
Q 46.1875 37.015625 41.984375 42.703125 
Q 37.796875 48.390625 30.609375 48.390625 
z
M 30.609375 56 
Q 42.328125 56 49.015625 48.375 
Q 55.71875 40.765625 55.71875 27.296875 
Q 55.71875 13.875 49.015625 6.21875 
Q 42.328125 -1.421875 30.609375 -1.421875 
Q 18.84375 -1.421875 12.171875 6.21875 
Q 5.515625 13.875 5.515625 27.296875 
Q 5.515625 40.765625 12.171875 48.375 
Q 18.84375 56 30.609375 56 
z
" id="DejaVuSans-111"/>
       <path d="M 45.40625 46.390625 
L 45.40625 75.984375 
L 54.390625 75.984375 
L 54.390625 0 
L 45.40625 0 
L 45.40625 8.203125 
Q 42.578125 3.328125 38.25 0.953125 
Q 33.9375 -1.421875 27.875 -1.421875 
Q 17.96875 -1.421875 11.734375 6.484375 
Q 5.515625 14.40625 5.515625 27.296875 
Q 5.515625 40.1875 11.734375 48.09375 
Q 17.96875 56 27.875 56 
Q 33.9375 56 38.25 53.625 
Q 42.578125 51.265625 45.40625 46.390625 
z
M 14.796875 27.296875 
Q 14.796875 17.390625 18.875 11.75 
Q 22.953125 6.109375 30.078125 6.109375 
Q 37.203125 6.109375 41.296875 11.75 
Q 45.40625 17.390625 45.40625 27.296875 
Q 45.40625 37.203125 41.296875 42.84375 
Q 37.203125 48.484375 30.078125 48.484375 
Q 22.953125 48.484375 18.875 42.84375 
Q 14.796875 37.203125 14.796875 27.296875 
z
" id="DejaVuSans-100"/>
       <path d="M 54.59375 10.890625 
L 58.40625 29.984375 
L 42.1875 29.984375 
L 43.703125 38.09375 
L 69.578125 38.09375 
L 63.28125 6 
Q 56.78125 2.4375 49.109375 0.5 
Q 41.453125 -1.421875 33.6875 -1.421875 
Q 19.96875 -1.421875 12.234375 6.1875 
Q 4.5 13.8125 4.5 27.390625 
Q 4.5 38.671875 9.203125 48.84375 
Q 13.921875 59.03125 22.21875 65.828125 
Q 27.4375 70.0625 33.640625 72.140625 
Q 39.84375 74.21875 47.40625 74.21875 
Q 54.25 74.21875 60.515625 72.484375 
Q 66.796875 70.75 72.515625 67.28125 
L 70.515625 56.78125 
Q 66.109375 61.375 60.203125 63.796875 
Q 54.296875 66.21875 47.609375 66.21875 
Q 39.84375 66.21875 33.9375 63.25 
Q 28.03125 60.296875 23.390625 54.109375 
Q 19.4375 48.828125 17.15625 41.671875 
Q 14.890625 34.515625 14.890625 27.09375 
Q 14.890625 16.890625 20.109375 11.734375 
Q 25.34375 6.59375 35.6875 6.59375 
Q 40.875 6.59375 45.703125 7.6875 
Q 50.53125 8.796875 54.59375 10.890625 
z
" id="DejaVuSans-Oblique-71"/>
      </defs>
      <use transform="translate(0 0.015625)" xlink:href="#DejaVuSans-73"/>
      <use transform="translate(29.492188 0.015625)" xlink:href="#DejaVuSans-110"/>
      <use transform="translate(92.871094 0.015625)" xlink:href="#DejaVuSans-101"/>
      <use transform="translate(154.394531 0.015625)" xlink:href="#DejaVuSans-108"/>
      <use transform="translate(182.177734 0.015625)" xlink:href="#DejaVuSans-97"/>
      <use transform="translate(243.457031 0.015625)" xlink:href="#DejaVuSans-115"/>
      <use transform="translate(295.556641 0.015625)" xlink:href="#DejaVuSans-116"/>
      <use transform="translate(334.765625 0.015625)" xlink:href="#DejaVuSans-105"/>
      <use transform="translate(362.548828 0.015625)" xlink:href="#DejaVuSans-99"/>
      <use transform="translate(417.529297 0.015625)" xlink:href="#DejaVuSans-32"/>
      <use transform="translate(449.316406 0.015625)" xlink:href="#DejaVuSans-108"/>
      <use transform="translate(477.099609 0.015625)" xlink:href="#DejaVuSans-111"/>
      <use transform="translate(538.28125 0.015625)" xlink:href="#DejaVuSans-97"/>
      <use transform="translate(599.560547 0.015625)" xlink:href="#DejaVuSans-100"/>
      <use transform="translate(663.037109 0.015625)" xlink:href="#DejaVuSans-32"/>
      <use transform="translate(694.824219 0.015625)" xlink:href="#DejaVuSans-Oblique-71"/>
     </g>
    </g>
   </g>
   <g id="matplotlib.axis_2">
    <g id="ytick_1">
     <g id="line2d_6">
      <defs>
       <path d="M 0 0 
L -3.5 0 
" id="maba7952988" style="stroke:#000000;stroke-width:0.8;"/>
      </defs>
      <g>
       <use style="stroke:#000000;stroke-width:0.8;" x="54" xlink:href="#maba7952988" y="235.275899"/>
      </g>
     </g>
     <g id="text_7">
      <!-- −6 -->
      <g transform="translate(29.309375 239.834961)scale(0.12 -0.12)">
       <defs>
        <path d="M 33.015625 40.375 
Q 26.375 40.375 22.484375 35.828125 
Q 18.609375 31.296875 18.609375 23.390625 
Q 18.609375 15.53125 22.484375 10.953125 
Q 26.375 6.390625 33.015625 6.390625 
Q 39.65625 6.390625 43.53125 10.953125 
Q 47.40625 15.53125 47.40625 23.390625 
Q 47.40625 31.296875 43.53125 35.828125 
Q 39.65625 40.375 33.015625 40.375 
z
M 52.59375 71.296875 
L 52.59375 62.3125 
Q 48.875 64.0625 45.09375 64.984375 
Q 41.3125 65.921875 37.59375 65.921875 
Q 27.828125 65.921875 22.671875 59.328125 
Q 17.53125 52.734375 16.796875 39.40625 
Q 19.671875 43.65625 24.015625 45.921875 
Q 28.375 48.1875 33.59375 48.1875 
Q 44.578125 48.1875 50.953125 41.515625 
Q 57.328125 34.859375 57.328125 23.390625 
Q 57.328125 12.15625 50.6875 5.359375 
Q 44.046875 -1.421875 33.015625 -1.421875 
Q 20.359375 -1.421875 13.671875 8.265625 
Q 6.984375 17.96875 6.984375 36.375 
Q 6.984375 53.65625 15.1875 63.9375 
Q 23.390625 74.21875 37.203125 74.21875 
Q 40.921875 74.21875 44.703125 73.484375 
Q 48.484375 72.75 52.59375 71.296875 
z
" id="DejaVuSans-54"/>
       </defs>
       <use xlink:href="#DejaVuSans-8722"/>
       <use x="83.789062" xlink:href="#DejaVuSans-54"/>
      </g>
     </g>
    </g>
    <g id="ytick_2">
     <g id="line2d_7">
      <g>
       <use style="stroke:#000000;stroke-width:0.8;" x="54" xlink:href="#maba7952988" y="204.609605"/>
      </g>
     </g>
     <g id="text_8">
      <!-- −4 -->
      <g transform="translate(29.309375 209.168667)scale(0.12 -0.12)">
       <defs>
        <path d="M 37.796875 64.3125 
L 12.890625 25.390625 
L 37.796875 25.390625 
z
M 35.203125 72.90625 
L 47.609375 72.90625 
L 47.609375 25.390625 
L 58.015625 25.390625 
L 58.015625 17.1875 
L 47.609375 17.1875 
L 47.609375 0 
L 37.796875 0 
L 37.796875 17.1875 
L 4.890625 17.1875 
L 4.890625 26.703125 
z
" id="DejaVuSans-52"/>
       </defs>
       <use xlink:href="#DejaVuSans-8722"/>
       <use x="83.789062" xlink:href="#DejaVuSans-52"/>
      </g>
     </g>
    </g>
    <g id="ytick_3">
     <g id="line2d_8">
      <g>
       <use style="stroke:#000000;stroke-width:0.8;" x="54" xlink:href="#maba7952988" y="173.943311"/>
      </g>
     </g>
     <g id="text_9">
      <!-- −2 -->
      <g transform="translate(29.309375 178.502373)scale(0.12 -0.12)">
       <defs>
        <path d="M 19.1875 8.296875 
L 53.609375 8.296875 
L 53.609375 0 
L 7.328125 0 
L 7.328125 8.296875 
Q 12.9375 14.109375 22.625 23.890625 
Q 32.328125 33.6875 34.8125 36.53125 
Q 39.546875 41.84375 41.421875 45.53125 
Q 43.3125 49.21875 43.3125 52.78125 
Q 43.3125 58.59375 39.234375 62.25 
Q 35.15625 65.921875 28.609375 65.921875 
Q 23.96875 65.921875 18.8125 64.3125 
Q 13.671875 62.703125 7.8125 59.421875 
L 7.8125 69.390625 
Q 13.765625 71.78125 18.9375 73 
Q 24.125 74.21875 28.421875 74.21875 
Q 39.75 74.21875 46.484375 68.546875 
Q 53.21875 62.890625 53.21875 53.421875 
Q 53.21875 48.921875 51.53125 44.890625 
Q 49.859375 40.875 45.40625 35.40625 
Q 44.1875 33.984375 37.640625 27.21875 
Q 31.109375 20.453125 19.1875 8.296875 
z
" id="DejaVuSans-50"/>
       </defs>
       <use xlink:href="#DejaVuSans-8722"/>
       <use x="83.789062" xlink:href="#DejaVuSans-50"/>
      </g>
     </g>
    </g>
    <g id="ytick_4">
     <g id="line2d_9">
      <g>
       <use style="stroke:#000000;stroke-width:0.8;" x="54" xlink:href="#maba7952988" y="143.277017"/>
      </g>
     </g>
     <g id="text_10">
      <!-- 0 -->
      <g transform="translate(39.365 147.836079)scale(0.12 -0.12)">
       <use xlink:href="#DejaVuSans-48"/>
      </g>
     </g>
    </g>
    <g id="ytick_5">
     <g id="line2d_10">
      <g>
       <use style="stroke:#000000;stroke-width:0.8;" x="54" xlink:href="#maba7952988" y="112.610723"/>
      </g>
     </g>
     <g id="text_11">
      <!-- 2 -->
      <g transform="translate(39.365 117.169786)scale(0.12 -0.12)">
       <use xlink:href="#DejaVuSans-50"/>
      </g>
     </g>
    </g>
    <g id="ytick_6">
     <g id="line2d_11">
      <g>
       <use style="stroke:#000000;stroke-width:0.8;" x="54" xlink:href="#maba7952988" y="81.944429"/>
      </g>
     </g>
     <g id="text_12">
      <!-- 4 -->
      <g transform="translate(39.365 86.503492)scale(0.12 -0.12)">
       <use xlink:href="#DejaVuSans-52"/>
      </g>
     </g>
    </g>
    <g id="ytick_7">
     <g id="line2d_12">
      <g>
       <use style="stroke:#000000;stroke-width:0.8;" x="54" xlink:href="#maba7952988" y="51.278135"/>
      </g>
     </g>
     <g id="text_13">
      <!-- 6 -->
      <g transform="translate(39.365 55.837198)scale(0.12 -0.12)">
       <use xlink:href="#DejaVuSans-54"/>
      </g>
     </g>
    </g>
    <g id="text_14">
     <!-- Elastic load $F$ -->
     <g transform="translate(23.229687 176.38)rotate(-90)scale(0.1 -0.1)">
      <defs>
       <path d="M 9.8125 72.90625 
L 55.90625 72.90625 
L 55.90625 64.59375 
L 19.671875 64.59375 
L 19.671875 43.015625 
L 54.390625 43.015625 
L 54.390625 34.71875 
L 19.671875 34.71875 
L 19.671875 8.296875 
L 56.78125 8.296875 
L 56.78125 0 
L 9.8125 0 
z
" id="DejaVuSans-69"/>
       <path d="M 16.890625 72.90625 
L 58.6875 72.90625 
L 57.078125 64.59375 
L 25.09375 64.59375 
L 20.90625 43.109375 
L 49.8125 43.109375 
L 48.1875 34.8125 
L 19.28125 34.8125 
L 12.5 0 
L 2.6875 0 
z
" id="DejaVuSans-Oblique-70"/>
      </defs>
      <use transform="translate(0 0.015625)" xlink:href="#DejaVuSans-69"/>
      <use transform="translate(63.183594 0.015625)" xlink:href="#DejaVuSans-108"/>
      <use transform="translate(90.966797 0.015625)" xlink:href="#DejaVuSans-97"/>
      <use transform="translate(152.246094 0.015625)" xlink:href="#DejaVuSans-115"/>
      <use transform="translate(204.345703 0.015625)" xlink:href="#DejaVuSans-116"/>
      <use transform="translate(243.554688 0.015625)" xlink:href="#DejaVuSans-105"/>
      <use transform="translate(271.337891 0.015625)" xlink:href="#DejaVuSans-99"/>
      <use transform="translate(326.318359 0.015625)" xlink:href="#DejaVuSans-32"/>
      <use transform="translate(358.105469 0.015625)" xlink:href="#DejaVuSans-108"/>
      <use transform="translate(385.888672 0.015625)" xlink:href="#DejaVuSans-111"/>
      <use transform="translate(447.070312 0.015625)" xlink:href="#DejaVuSans-97"/>
      <use transform="translate(508.349609 0.015625)" xlink:href="#DejaVuSans-100"/>
      <use transform="translate(571.826172 0.015625)" xlink:href="#DejaVuSans-32"/>
      <use transform="translate(603.613281 0.015625)" xlink:href="#DejaVuSans-Oblique-70"/>
     </g>
    </g>
   </g>
   <g id="line2d_13">
    <path clip-path="url(#pb0329ceb80)" d="M 348.029545 163.08504 
L 346.108972 161.908284 
L 343.979669 160.85518 
L 341.653201 159.964731 
L 339.157422 159.258889 
L 336.302143 158.698209 
L 333.104654 158.294656 
L 328.751757 157.975028 
L 306.806499 156.686453 
L 280.117584 154.49387 
L 254.001597 152.755908 
L 246.350831 151.939954 
L 238.574259 150.874385 
L 230.706235 149.573203 
L 219.614339 147.486722 
L 202.269236 144.214392 
L 192.986597 142.717044 
L 183.904052 141.477677 
L 167.909238 139.584104 
L 156.907066 138.151926 
L 147.786245 136.730392 
L 133.435676 134.207654 
L 122.909612 132.47476 
L 111.025821 130.559286 
L 107.350034 129.728914 
L 104.398115 128.846698 
L 101.800541 127.839188 
L 99.576995 126.752403 
L 97.399462 125.441691 
L 95.29051 123.897879 
L 94.768835 123.469478 
L 95.547197 123.97413 
L 97.571884 125.112694 
L 99.804912 126.107148 
L 102.071076 126.878586 
L 104.708936 127.531995 
L 107.699156 128.030779 
L 111.415645 128.409016 
L 116.840614 128.714984 
L 130.132491 129.407312 
L 139.796222 130.203098 
L 158.250165 131.763362 
L 171.461721 132.582475 
L 184.652165 133.443992 
L 192.986597 134.217153 
L 200.710426 135.168886 
L 208.541945 136.36923 
L 218.028537 138.073818 
L 244.804573 143.059101 
L 254.001597 144.434398 
L 264.449024 145.750858 
L 284.884169 148.259137 
L 294.058717 149.665115 
L 306.229747 151.792361 
L 318.14766 153.809353 
L 332.728884 156.189347 
L 336.302143 157.056651 
L 339.157422 157.975812 
L 341.653201 159.011759 
L 343.979669 160.228544 
L 346.108972 161.600418 
L 348.029545 163.08504 
L 348.029545 163.08504 
" style="fill:none;stroke:#172c4b;stroke-linecap:square;stroke-opacity:0.9;"/>
   </g>
   <g id="line2d_14">
    <path clip-path="url(#pb0329ceb80)" d="M 352.383031 173.347188 
L 350.722873 169.800586 
L 349.19969 166.987772 
L 347.526334 164.377079 
L 346.160329 162.607065 
L 344.66827 161.027582 
L 343.392524 159.952948 
L 342.049962 159.075987 
L 340.645255 158.411529 
L 339.182043 157.962238 
L 337.662934 157.719085 
L 335.687829 157.674334 
L 333.629134 157.863443 
L 330.60552 158.383157 
L 324.536876 159.467567 
L 321.53004 159.758512 
L 318.391558 159.81627 
L 315.123486 159.619947 
L 311.730669 159.18773 
L 307.02588 158.333924 
L 293.854522 155.780975 
L 288.590497 155.088168 
L 283.220274 154.631091 
L 277.067453 154.338776 
L 257.287902 153.589076 
L 247.838196 152.881286 
L 205.631571 149.176382 
L 193.131979 147.712585 
L 180.126693 146.237141 
L 158.563026 143.962328 
L 153.874895 143.144135 
L 149.268722 142.101361 
L 144.756261 140.838218 
L 139.732579 139.195832 
L 128.510932 135.396654 
L 125.211114 134.531188 
L 122.039932 133.921367 
L 119.000142 133.570317 
L 115.619721 133.430652 
L 107.718673 133.304251 
L 105.718444 132.971529 
L 104.178841 132.515108 
L 102.694417 131.860191 
L 101.2674 130.99038 
L 99.901041 129.901241 
L 98.599628 128.601415 
L 97.07233 126.715237 
L 95.667066 124.606641 
L 94.161455 121.923291 
L 92.68655 118.847432 
L 91.072594 114.955001 
L 90.415693 113.209278 
L 91.072594 114.672599 
L 92.68655 117.933699 
L 94.161455 120.500845 
L 95.667066 122.722536 
L 97.07233 124.444733 
L 98.599628 125.951159 
L 99.901041 126.954174 
L 101.2674 127.752529 
L 102.694417 128.335965 
L 104.178841 128.706298 
L 105.718444 128.87668 
L 107.718673 128.84448 
L 110.229297 128.530365 
L 120.50355 126.848126 
L 123.609205 126.728495 
L 126.845226 126.861566 
L 130.207457 127.238417 
L 134.280409 127.927532 
L 151.232074 131.105524 
L 156.544423 131.693457 
L 161.956858 132.058779 
L 170.24049 132.349349 
L 182.273194 132.780628 
L 190.945014 133.34628 
L 204.892336 134.544799 
L 241.226732 137.831521 
L 267.995053 140.832166 
L 280.49947 142.08288 
L 285.91776 142.859765 
L 290.577784 143.755741 
L 295.151989 144.880214 
L 299.627595 146.211629 
L 305.819648 148.322544 
L 313.442264 150.905255 
L 317.316417 151.960144 
L 320.498463 152.591974 
L 323.549239 152.963643 
L 326.942352 153.120641 
L 335.28277 153.272837 
L 337.274633 153.629526 
L 338.807426 154.109493 
L 340.284817 154.790605 
L 341.704451 155.687851 
L 343.062948 156.804074 
L 344.35589 158.128957 
L 345.871567 160.041081 
L 347.263886 162.166889 
L 348.752038 164.85604 
L 350.384039 168.325723 
L 352.040382 172.425042 
L 352.383031 173.347188 
L 352.383031 173.347188 
" style="fill:none;stroke:#172c4b;stroke-linecap:square;stroke-opacity:0.8;"/>
   </g>
   <g id="line2d_15">
    <path clip-path="url(#pb0329ceb80)" d="M 356.315055 182.395398 
L 354.325281 177.476018 
L 352.2506 172.921932 
L 350.535688 169.614896 
L 348.598471 166.385369 
L 346.840422 163.919595 
L 345.353801 162.17474 
L 343.805323 160.679114 
L 342.202374 159.461514 
L 340.550989 158.536403 
L 338.855799 157.904001 
L 337.120052 157.551174 
L 335.3457 157.453032 
L 333.53353 157.575101 
L 331.214768 157.973757 
L 327.864568 158.829947 
L 321.291227 160.593358 
L 318.089829 161.213651 
L 314.777336 161.616587 
L 311.353101 161.785996 
L 307.819124 161.740664 
L 302.944242 161.424543 
L 292.035835 160.364581 
L 283.961001 159.721568 
L 273.52336 159.144764 
L 260.601553 158.392018 
L 249.59005 157.495519 
L 224.211368 155.334332 
L 210.716708 154.165665 
L 201.749206 153.144301 
L 192.098884 151.793799 
L 173.896504 148.946612 
L 163.317212 147.151785 
L 156.453674 145.754436 
L 150.431516 144.281747 
L 143.941819 142.441839 
L 132.903915 139.256296 
L 128.865942 138.375743 
L 125.525469 137.88295 
L 122.296503 137.645253 
L 119.176446 137.630753 
L 113.722235 137.891519 
L 110.415992 137.928142 
L 108.127102 137.713469 
L 106.338533 137.320798 
L 104.588146 136.682134 
L 102.877438 135.760136 
L 101.209159 134.528555 
L 99.587415 132.974786 
L 98.017715 131.101854 
L 96.506951 128.929645 
L 95.063299 126.495277 
L 93.36737 123.167043 
L 91.518273 118.940552 
L 89.664168 114.059935 
L 87.690667 108.146494 
L 86.483884 104.161964 
L 86.850115 105.106872 
L 88.983161 110.254581 
L 90.952909 114.452499 
L 92.726885 117.763313 
L 94.369509 120.426847 
L 96.1394 122.86485 
L 97.634201 124.580603 
L 99.189865 126.04276 
L 100.799169 127.224293 
L 102.456254 128.112543 
L 104.156664 128.70902 
L 105.897318 129.028431 
L 107.676419 129.096992 
L 109.493312 128.950199 
L 111.818103 128.528466 
L 115.177233 127.655319 
L 121.244582 126.020701 
L 124.436833 125.384278 
L 127.740007 124.962076 
L 131.154971 124.773497 
L 134.679939 124.802343 
L 138.925757 125.053306 
L 146.510142 125.774074 
L 156.453674 126.665704 
L 165.407672 127.213446 
L 183.288765 128.240749 
L 194.317745 129.157982 
L 216.711582 131.072787 
L 231.706544 132.350927 
L 240.675704 133.362405 
L 250.329362 134.704913 
L 267.826999 137.43598 
L 279.13299 139.337991 
L 286.004896 140.723996 
L 292.035835 142.185104 
L 298.536911 144.017318 
L 309.599608 147.223848 
L 313.648294 148.125785 
L 316.998096 148.639873 
L 320.236289 148.898246 
L 323.365265 148.928982 
L 328.350867 148.698346 
L 331.683351 148.607906 
L 333.990113 148.747647 
L 335.792846 149.059453 
L 337.557664 149.600991 
L 339.283503 150.413006 
L 340.968099 151.526233 
L 342.607864 152.958661 
L 344.197815 154.713314 
L 345.731572 156.776722 
L 347.201426 159.118211 
L 348.935216 162.361992 
L 350.535688 165.837455 
L 352.2506 170.088967 
L 354.127329 175.378981 
L 356.131476 181.771368 
L 356.315055 182.395398 
L 356.315055 182.395398 
" style="fill:none;stroke:#172c4b;stroke-linecap:square;stroke-opacity:0.7;"/>
   </g>
   <g id="line2d_16">
    <path clip-path="url(#pb0329ceb80)" d="M 359.755747 189.849829 
L 357.545365 184.564849 
L 355.239297 179.622283 
L 353.332245 176.002554 
L 351.551861 173.021112 
L 349.622625 170.23409 
L 347.986695 168.234798 
L 346.2793 166.501072 
L 344.508993 165.073965 
L 343.144275 164.220445 
L 341.750555 163.557867 
L 340.329716 163.084849 
L 338.883145 162.794603 
L 336.91589 162.670664 
L 334.905508 162.809073 
L 332.331645 163.269244 
L 328.610608 164.225954 
L 324.179578 165.338362 
L 321.308461 165.825452 
L 318.954062 166.014986 
L 316.548933 165.985455 
L 314.094509 165.713994 
L 311.593312 165.19327 
L 309.048941 164.431868 
L 305.814852 163.17971 
L 301.869771 161.343305 
L 291.837064 156.427177 
L 289.151663 155.369101 
L 286.472117 154.537794 
L 283.802011 153.981921 
L 281.807057 153.767689 
L 279.819181 153.738069 
L 277.838373 153.897236 
L 275.864168 154.243969 
L 273.895652 154.771634 
L 271.277461 155.735347 
L 268.662794 156.95728 
L 265.391483 158.762461 
L 254.089839 165.389832 
L 251.356541 166.624459 
L 248.585087 167.590487 
L 246.479751 168.106584 
L 244.350753 168.424506 
L 242.197963 168.531894 
L 240.021761 168.421577 
L 237.823037 168.091785 
L 235.603183 167.546244 
L 233.364068 166.794124 
L 230.352663 165.495612 
L 227.317677 163.903725 
L 223.502256 161.595618 
L 218.149074 158.030796 
L 212.067138 153.993659 
L 208.311762 151.765377 
L 205.343177 150.260227 
L 202.411605 149.06291 
L 200.239257 148.391825 
L 198.09042 147.927592 
L 195.965388 147.675081 
L 193.863948 147.633262 
L 191.785395 147.795277 
L 189.728567 148.148681 
L 187.017143 148.886467 
L 184.336782 149.878408 
L 181.021459 151.374611 
L 170.53904 156.408396 
L 167.918388 157.336808 
L 165.288761 158.008802 
L 163.309099 158.318958 
L 161.322414 158.449182 
L 159.32862 158.392546 
L 157.328093 158.147323 
L 155.321654 157.716971 
L 152.639428 156.870529 
L 149.952992 155.743532 
L 147.267415 154.381852 
L 143.920641 152.436043 
L 137.963208 148.633332 
L 132.789793 145.435873 
L 129.63579 143.731273 
L 126.552876 142.338646 
L 124.141485 141.47013 
L 121.780702 140.816735 
L 118.901618 140.269025 
L 115.550724 139.901948 
L 109.170547 139.335659 
L 107.133221 138.935142 
L 105.138968 138.309582 
L 103.671678 137.655009 
L 102.22932 136.81683 
L 100.812891 135.777819 
L 99.42386 134.526146 
L 98.064195 133.055984 
L 96.301334 130.75794 
L 94.602375 128.093488 
L 92.976049 125.104212 
L 91.4324 121.852321 
L 89.636099 117.542928 
L 87.706804 112.269695 
L 85.819924 106.455816 
L 83.785961 99.45544 
L 83.043333 96.707762 
L 83.360024 97.496311 
L 85.585815 102.741049 
L 87.706804 107.228991 
L 89.636099 110.854142 
L 91.4324 113.822752 
L 93.375292 116.58261 
L 95.020671 118.551463 
L 96.736368 120.24879 
L 98.514012 121.635475 
L 99.883715 122.45731 
L 101.282072 123.088049 
L 102.707284 123.529992 
L 104.158041 123.790801 
L 106.130718 123.879433 
L 108.146477 123.711744 
L 110.727185 123.225411 
L 115.003003 122.106353 
L 118.901618 121.156841 
L 121.780702 120.694053 
L 124.141485 120.530146 
L 126.552876 120.588978 
L 129.013307 120.891522 
L 131.520119 121.443125 
L 134.069583 122.233227 
L 137.309129 123.515373 
L 141.259203 125.375058 
L 150.624734 129.981499 
L 153.981346 131.302358 
L 156.659883 132.101652 
L 159.32862 132.620303 
L 161.322414 132.80428 
L 163.309099 132.802582 
L 165.288761 132.611922 
L 167.261943 132.234428 
L 169.229629 131.677626 
L 171.847129 130.679053 
L 174.461701 129.42848 
L 177.733888 127.598533 
L 188.368654 121.334334 
L 191.097442 120.070429 
L 193.863948 119.067689 
L 195.965388 118.520111 
L 198.09042 118.168166 
L 200.239257 118.025047 
L 202.411605 118.09881 
L 204.606659 118.392133 
L 206.823108 118.902207 
L 209.059162 119.62076 
L 211.312583 120.534221 
L 214.339558 122.022589 
L 217.38553 123.767513 
L 221.207568 126.204447 
L 232.613803 133.715791 
L 235.603183 135.385935 
L 238.558371 136.7814 
L 240.749719 137.616954 
L 242.918191 138.25415 
L 245.063067 138.683275 
L 247.184138 138.90044 
L 249.281702 138.907655 
L 251.356541 138.712733 
L 253.409891 138.329012 
L 256.117154 137.556221 
L 258.79401 136.536939 
L 262.106003 135.01914 
L 271.931496 130.277113 
L 274.551266 129.320261 
L 277.179608 128.613648 
L 279.15814 128.274535 
L 281.143636 128.113702 
L 283.136258 128.138934 
L 285.135709 128.352827 
L 287.141238 128.752781 
L 289.822631 129.561548 
L 292.508799 130.655741 
L 295.19479 131.990976 
L 298.543167 133.91434 
L 303.849918 137.284578 
L 309.688846 140.932822 
L 312.849557 142.665514 
L 315.939869 144.091312 
L 318.357498 144.98735 
L 320.724656 145.666832 
L 323.611716 146.241965 
L 326.97194 146.629606 
L 333.88415 147.258473 
L 335.916073 147.683414 
L 337.904944 148.341674 
L 339.368128 149.025444 
L 340.806247 149.896036 
L 342.218225 150.969825 
L 343.602511 152.257677 
L 344.957055 153.764372 
L 346.712356 156.10976 
L 348.402743 158.817525 
L 350.019308 161.843436 
L 351.920575 165.972904 
L 353.668423 170.331262 
L 355.530127 175.579562 
L 357.545365 181.975181 
L 359.704684 189.657758 
L 359.755747 189.849829 
L 359.755747 189.849829 
" style="fill:none;stroke:#172c4b;stroke-linecap:square;stroke-opacity:0.6;"/>
   </g>
   <g id="line2d_17">
    <path clip-path="url(#pb0329ceb80)" d="M 361.363545 196.641647 
L 358.986358 190.294997 
L 356.832548 185.062493 
L 354.854448 180.733368 
L 353.007535 177.133004 
L 351.009694 173.74394 
L 349.320061 171.30126 
L 347.561943 169.177642 
L 346.204506 167.82872 
L 344.817768 166.707449 
L 343.404659 165.823271 
L 341.967483 165.178566 
L 340.507927 164.768652 
L 339.027086 164.582025 
L 337.52551 164.600811 
L 335.491193 164.903916 
L 333.419096 165.460809 
L 330.235692 166.595038 
L 325.273861 168.388762 
L 322.990419 169.007452 
L 320.656633 169.416258 
L 318.272223 169.563078 
L 316.451217 169.479912 
L 314.603134 169.222435 
L 312.099237 168.607597 
L 309.55384 167.698431 
L 306.97236 166.530902 
L 303.704557 164.791863 
L 293.099974 158.834226 
L 290.450012 157.704597 
L 288.47004 157.055563 
L 286.498239 156.607301 
L 284.535631 156.381978 
L 282.582688 156.39572 
L 280.639314 156.658033 
L 278.704833 157.171433 
L 276.778005 157.93129 
L 274.857046 158.925899 
L 272.939672 160.136761 
L 270.383986 162.043934 
L 267.180028 164.791355 
L 256.671898 174.207125 
L 253.9413 176.173895 
L 251.857667 177.425026 
L 249.741364 178.446105 
L 247.591151 179.208062 
L 245.406434 179.687411 
L 243.187293 179.86684 
L 240.934499 179.735686 
L 238.64951 179.290268 
L 236.334456 178.534076 
L 233.992101 177.477806 
L 231.62579 176.139228 
L 229.239381 174.542887 
L 226.033716 172.067607 
L 222.811082 169.277928 
L 217.971065 164.731164 
L 209.985951 157.144138 
L 206.851785 154.440369 
L 203.765166 152.0799 
L 201.485413 150.584885 
L 199.238145 149.356599 
L 197.024706 148.41483 
L 194.845753 147.771544 
L 192.701251 147.430614 
L 190.590495 147.387787 
L 188.512145 147.630922 
L 186.464275 148.14044 
L 184.444443 148.89001 
L 182.449762 149.847408 
L 179.823674 151.382544 
L 176.583051 153.578099 
L 168.899589 158.935151 
L 166.340168 160.400594 
L 164.414455 161.306635 
L 162.481352 162.017218 
L 160.539522 162.511749 
L 158.588196 162.776025 
L 156.627181 162.802497 
L 154.656856 162.590363 
L 152.678153 162.145481 
L 150.69252 161.480103 
L 148.701874 160.612434 
L 146.043944 159.182233 
L 143.387653 157.502807 
L 139.42191 154.689783 
L 131.648352 149.044877 
L 128.505087 147.070837 
L 126.041033 145.760163 
L 123.625383 144.717202 
L 121.259915 143.945786 
L 118.945102 143.427455 
L 116.121659 143.072595 
L 112.293065 142.896661 
L 108.596995 142.686753 
L 106.539249 142.356852 
L 105.020457 141.937006 
L 103.522319 141.328615 
L 102.044974 140.499292 
L 100.589056 139.421925 
L 99.155758 138.075784 
L 97.746867 136.447475 
L 96.364792 134.531719 
L 95.012567 132.331922 
L 93.262426 128.97982 
L 91.582142 125.200514 
L 89.983561 121.076379 
L 88.120335 115.602389 
L 86.118941 108.908867 
L 84.168652 101.567982 
L 81.983106 92.379776 
L 81.435648 89.916654 
L 81.692068 90.62807 
L 84.168652 97.162723 
L 86.432857 102.557795 
L 88.47982 106.911801 
L 90.374847 110.468257 
L 91.995041 113.13052 
L 93.693842 115.537003 
L 95.459779 117.616413 
L 96.82233 118.928343 
L 98.21365 120.010565 
L 99.630913 120.854804 
L 101.07192 121.459864 
L 102.535084 121.831585 
L 104.019405 121.982572 
L 105.524419 121.9317 
L 107.563382 121.592832 
L 109.640323 121.009666 
L 112.831555 119.855981 
L 117.241853 118.254163 
L 120.096195 117.482777 
L 122.436317 117.104212 
L 124.827015 116.992941 
L 126.652608 117.104829 
L 128.505087 117.391609 
L 131.01443 118.044539 
L 133.564656 118.988358 
L 136.150214 120.184731 
L 139.42191 121.948538 
L 149.365844 127.560665 
L 152.01696 128.723603 
L 153.998158 129.403561 
L 155.971406 129.886977 
L 157.935594 130.150747 
L 159.890157 130.177694 
L 161.835095 129.957176 
L 163.770986 129.485496 
L 165.69898 128.766091 
L 167.620772 127.809502 
L 169.538565 126.633122 
L 172.09405 124.764696 
L 175.296362 122.051283 
L 181.789906 116.046602 
L 185.114775 113.155913 
L 187.826246 111.081536 
L 189.894195 109.727833 
L 191.99397 108.587772 
L 194.127112 107.692954 
L 196.294544 107.069739 
L 198.496526 106.738592 
L 200.732634 106.713551 
L 203.00175 107.001823 
L 205.302078 107.603515 
L 207.631166 108.511531 
L 209.985951 109.711609 
L 212.362823 111.182543 
L 214.757693 112.896569 
L 217.971065 115.500955 
L 222.00414 119.134191 
L 235.556551 131.792588 
L 238.64951 134.200835 
L 240.934499 135.737858 
L 243.187293 137.012178 
L 245.406434 138.002747 
L 247.591151 138.696269 
L 249.741364 139.087515 
L 251.857667 139.179391 
L 253.9413 138.98275 
L 255.994093 138.515973 
L 258.018409 137.804321 
L 260.017065 136.879103 
L 262.647575 135.376702 
L 265.892213 133.204147 
L 274.217649 127.421812 
L 276.778005 125.989916 
L 278.704833 125.114763 
L 280.639314 124.438926 
L 282.582688 123.981962 
L 284.535631 123.756977 
L 286.498239 123.770399 
L 288.47004 124.021909 
L 290.450012 124.504558 
L 292.436625 125.205067 
L 294.427891 126.104297 
L 297.085983 127.569626 
L 300.404261 129.729486 
L 305.01638 133.081826 
L 310.831413 137.294205 
L 313.981304 139.301584 
L 316.451217 140.644357 
L 318.873042 141.721447 
L 321.244835 142.526253 
L 323.565964 143.074459 
L 325.836992 143.403466 
L 329.153206 143.615831 
L 334.45997 143.896885 
L 336.512986 144.255568 
L 338.028326 144.704402 
L 339.52302 145.347493 
L 340.996853 146.216434 
L 342.449099 147.337344 
L 343.87847 148.729793 
L 345.283076 150.405872 
L 346.660404 152.369445 
L 348.007315 154.61562 
L 349.749319 158.024694 
L 351.420068 161.852157 
L 353.007535 166.012308 
L 354.854448 171.509867 
L 356.832548 178.194775 
L 358.750628 185.470651 
L 360.870474 194.422663 
L 361.363545 196.641647 
L 361.363545 196.641647 
" style="fill:none;stroke:#172c4b;stroke-linecap:square;stroke-opacity:0.5;"/>
   </g>
   <g id="line2d_18">
    <path clip-path="url(#pb0329ceb80)" d="M 365.266565 204.673328 
L 362.025743 196.885784 
L 359.418064 191.120263 
L 357.07316 186.385715 
L 354.909807 182.441894 
L 352.590308 178.706874 
L 350.642182 175.989415 
L 348.626436 173.597128 
L 347.077274 172.053468 
L 345.50073 170.74544 
L 343.900239 169.684335 
L 342.278542 168.87415 
L 340.637707 168.311493 
L 338.979151 167.985735 
L 337.303694 167.879408 
L 335.611622 167.968825 
L 333.329328 168.341634 
L 330.432238 169.099945 
L 322.63899 171.368904 
L 320.156864 171.808937 
L 317.633168 171.998876 
L 315.713413 171.9469 
L 313.771306 171.712794 
L 311.808024 171.29004 
L 309.825182 170.679253 
L 307.154539 169.586892 
L 304.458646 168.212757 
L 301.063761 166.189321 
L 289.506711 158.953252 
L 286.824933 157.725781 
L 284.830264 157.044343 
L 282.851339 156.601161 
L 280.888841 156.4194 
L 278.942839 156.515059 
L 277.012763 156.896353 
L 275.097415 157.563346 
L 273.19498 158.507856 
L 271.303067 159.713615 
L 269.418767 161.156697 
L 266.912344 163.395583 
L 263.776203 166.570631 
L 255.475239 175.297018 
L 252.841863 177.658989 
L 250.833688 179.207137 
L 248.794417 180.517869 
L 246.722313 181.555337 
L 244.616334 182.289779 
L 242.476172 182.698284 
L 241.030598 182.781607 
L 239.570339 182.71044 
L 238.095865 182.483791 
L 235.858889 181.854205 
L 233.594013 180.885964 
L 231.30455 179.596733 
L 228.994392 178.012288 
L 226.667919 176.16603 
L 223.548858 173.367672 
L 219.639535 169.488483 
L 208.824364 158.445289 
L 205.816614 155.805247 
L 203.594629 154.107847 
L 201.404277 152.693623 
L 199.247145 151.590673 
L 197.124066 150.818182 
L 195.03511 150.385936 
L 192.979597 150.294151 
L 190.956133 150.533619 
L 188.962653 151.086153 
L 186.996497 151.925313 
L 185.054489 153.01737 
L 183.133031 154.322477 
L 180.596262 156.316329 
L 176.825082 159.615638 
L 171.809087 163.969963 
L 169.286411 165.878487 
L 166.744313 167.482054 
L 164.821791 168.440081 
L 162.883862 169.162152 
L 160.929644 169.632267 
L 158.958885 169.841759 
L 156.971964 169.789362 
L 154.969865 169.481082 
L 152.954127 168.92988 
L 150.926796 168.155162 
L 148.209986 166.818736 
L 145.483807 165.203002 
L 142.074408 162.918933 
L 132.640728 156.378428 
L 129.352136 154.457478 
L 126.762711 153.194716 
L 124.213244 152.197128 
L 121.705138 151.459471 
L 119.238499 150.952546 
L 116.211894 150.562396 
L 109.181374 149.823833 
L 106.902871 149.293619 
L 105.213569 148.694544 
L 103.540896 147.877011 
L 101.885221 146.803992 
L 100.247459 145.443806 
L 98.629136 143.771381 
L 97.032426 141.769384 
L 95.460189 139.429188 
L 93.915972 136.75163 
L 92.404005 133.747563 
L 90.446729 129.272272 
L 88.568708 124.333785 
L 86.784706 119.041561 
L 84.711294 112.140117 
L 82.495974 103.861917 
L 80.358273 94.980186 
L 78.029971 84.304206 
L 77.532832 81.885037 
L 77.740636 82.402395 
L 80.915383 89.997937 
L 83.563277 95.820789 
L 85.932913 100.566629 
L 88.113287 104.498145 
L 90.446729 108.202121 
L 92.404005 110.882857 
L 94.427351 113.229854 
L 95.981344 114.735327 
L 97.562099 116.002792 
L 99.166297 117.022155 
L 100.791308 117.79065 
L 102.435179 118.312895 
L 104.096593 118.600692 
L 105.774826 118.672593 
L 107.469672 118.553246 
L 109.755781 118.148893 
L 112.657978 117.366459 
L 119.851309 115.254573 
L 122.32826 114.787634 
L 124.846765 114.563359 
L 126.762711 114.586102 
L 128.701162 114.78921 
L 130.661016 115.180371 
L 132.640728 115.760168 
L 135.30778 116.814206 
L 138.000873 118.155909 
L 141.393531 120.150741 
L 146.847609 123.712574 
L 150.926796 126.288396 
L 153.627438 127.771746 
L 156.306219 128.957191 
L 158.298337 129.600809 
L 160.274556 130.001846 
L 162.234292 130.138277 
L 164.177583 129.995365 
L 166.105103 129.566236 
L 168.018157 128.8522 
L 169.918658 127.862807 
L 171.809087 126.615633 
L 173.692434 125.135828 
L 176.198526 122.857138 
L 179.335918 119.649965 
L 186.996497 111.571494 
L 189.623967 109.173338 
L 191.627174 107.589483 
L 193.661124 106.236541 
L 195.727664 105.151287 
L 197.827955 104.364557 
L 199.962431 103.900449 
L 201.404277 103.778848 
L 202.860904 103.811236 
L 204.331876 103.999012 
L 205.816614 104.341925 
L 208.067915 105.142527 
L 210.345537 106.273987 
L 212.645866 107.714538 
L 214.964756 109.434517 
L 218.077502 112.097642 
L 221.203313 115.085974 
L 225.889617 119.910466 
L 232.070207 126.282016 
L 235.10688 129.143885 
L 238.095865 131.630799 
L 240.302278 133.190654 
L 242.476172 134.45221 
L 244.616334 135.391749 
L 246.722313 135.994743 
L 248.794417 136.25619 
L 250.833688 136.180622 
L 252.841863 135.781811 
L 254.821314 135.082179 
L 256.77497 134.111943 
L 258.706231 132.908047 
L 261.252962 131.013327 
L 264.404506 128.337754 
L 271.303067 122.331778 
L 273.827826 120.456745 
L 275.734328 119.253072 
L 277.654413 118.257776 
L 279.589695 117.495072 
L 281.541165 116.982163 
L 283.509176 116.728947 
L 285.493455 116.737919 
L 287.493118 117.004269 
L 289.506711 117.516166 
L 291.532272 118.255233 
L 293.567389 119.197209 
L 296.290906 120.717534 
L 299.701041 122.928191 
L 311.808024 131.179959 
L 314.421095 132.600497 
L 316.995787 133.764735 
L 319.529836 134.662936 
L 322.02234 135.309386 
L 325.080162 135.823318 
L 329.25878 136.223427 
L 332.753941 136.591611 
L 335.043888 137.030102 
L 336.741516 137.535131 
L 338.422518 138.238525 
L 340.086771 139.179476 
L 341.733641 140.392503 
L 343.361913 141.906134 
L 344.969744 143.741702 
L 346.554618 145.912296 
L 348.113331 148.421894 
L 349.641993 151.264702 
L 351.136047 154.424742 
L 353.065239 159.084643 
L 354.909807 164.170188 
L 357.07316 170.939797 
L 359.048462 177.893699 
L 361.124397 186.006159 
L 363.303345 195.413334 
L 365.266565 204.673328 
L 365.266565 204.673328 
" style="fill:none;stroke:#172c4b;stroke-linecap:square;stroke-opacity:0.4;"/>
   </g>
   <g id="line2d_19">
    <path clip-path="url(#pb0329ceb80)" d="M 367.761815 216.087708 
L 364.234075 206.501596 
L 361.420544 199.406085 
L 358.909773 193.602267 
L 356.609521 188.801994 
L 354.660293 185.169843 
L 352.633244 181.854758 
L 351.071302 179.640692 
L 349.480018 177.701224 
L 347.864225 176.06456 
L 346.227881 174.749622 
L 344.574062 173.765399 
L 342.904973 173.110665 
L 341.221985 172.77407 
L 339.525699 172.734604 
L 337.816025 172.962397 
L 336.092286 173.419833 
L 333.770036 174.310186 
L 330.227691 176.005301 
L 325.98852 178.023398 
L 323.507213 178.96097 
L 321.616013 179.479967 
L 319.698289 179.800577 
L 317.754042 179.894378 
L 315.78383 179.741313 
L 313.788794 179.330334 
L 311.770656 178.659779 
L 309.731692 177.737489 
L 307.674693 176.580645 
L 304.909623 174.7196 
L 302.126937 172.572898 
L 297.243275 168.455164 
L 293.076143 164.994235 
L 290.323404 162.954803 
L 288.277457 161.655006 
L 286.250199 160.604644 
L 284.243426 159.844122 
L 282.258249 159.406063 
L 280.947015 159.305282 
L 279.64549 159.363229 
L 278.353453 159.582576 
L 277.070529 159.963965 
L 275.796201 160.505996 
L 273.899342 161.612227 
L 272.017515 163.051967 
L 270.147314 164.796088 
L 268.284802 166.807006 
L 265.805817 169.824672 
L 262.073741 174.817214 
L 257.011327 181.613071 
L 254.418432 184.749064 
L 252.438984 186.874359 
L 250.426178 188.74728 
L 248.377555 190.321244 
L 246.291414 191.555994 
L 244.879337 192.174077 
L 243.450117 192.618718 
L 242.003872 192.883759 
L 240.540886 192.964789 
L 239.061614 192.859217 
L 237.566678 192.566317 
L 236.056855 192.087261 
L 234.533079 191.425142 
L 232.996426 190.584971 
L 230.66998 189.006493 
L 228.321886 187.074483 
L 225.957224 184.828925 
L 222.788066 181.43129 
L 218.819705 176.72619 
L 207.882386 163.321573 
L 204.855821 160.10802 
L 202.625088 158.038234 
L 200.430644 156.310532 
L 198.274024 154.95993 
L 196.857659 154.281565 
L 195.458411 153.786401 
L 194.076099 153.476682 
L 192.710377 153.35238 
L 191.360739 153.411223 
L 190.026529 153.648749 
L 188.706946 154.058393 
L 187.401055 154.631599 
L 185.465561 155.77486 
L 183.55449 157.220274 
L 181.663422 158.918663 
L 179.164916 161.481483 
L 174.822831 166.389801 
L 171.092553 170.528842 
L 168.583303 173.012526 
L 166.68365 174.645736 
L 164.765776 176.035265 
L 162.82769 177.146799 
L 160.868137 177.95413 
L 158.886617 178.439686 
L 156.883386 178.594872 
L 154.859435 178.420183 
L 152.816451 177.925105 
L 150.756754 177.12778 
L 148.68322 176.054435 
L 146.599192 174.738582 
L 143.810592 172.67633 
L 140.322241 169.757007 
L 130.689135 161.42572 
L 128.00834 159.46289 
L 125.370208 157.828805 
L 123.421579 156.841675 
L 121.49942 156.063691 
L 119.603822 155.487874 
L 117.116851 155.003111 
L 114.673976 154.777183 
L 110.494385 154.70088 
L 107.572865 154.577926 
L 105.841685 154.343859 
L 104.125095 153.914291 
L 102.422166 153.22956 
L 100.732499 152.233994 
L 99.056339 150.877929 
L 97.394663 149.119629 
L 95.749252 146.927076 
L 94.122744 144.279557 
L 92.518655 141.169033 
L 90.941385 137.601207 
L 89.396187 133.59626 
L 87.396386 127.638999 
L 85.480766 121.092068 
L 83.667478 114.122657 
L 81.574448 105.132668 
L 79.369106 94.556282 
L 77.055717 82.240758 
L 75.037744 70.471649 
L 75.083283 70.599294 
L 78.718959 80.458507 
L 81.574448 87.623461 
L 84.11016 93.438338 
L 86.426956 98.219368 
L 88.386832 101.818257 
L 90.422472 105.085901 
L 91.989677 107.256526 
L 93.585357 109.147246 
L 95.204827 110.731341 
L 96.844273 111.99151 
L 98.500767 112.920456 
L 100.172246 113.52111 
L 101.857472 113.806473 
L 103.555966 113.799098 
L 105.267923 113.530228 
L 106.994108 113.038646 
L 109.319985 112.115092 
L 112.868736 110.399125 
L 117.116851 108.401014 
L 119.603822 107.494226 
L 121.49942 107.00599 
L 123.421579 106.721423 
L 125.370208 106.667611 
L 127.344652 106.863145 
L 129.343674 107.317527 
L 131.365456 108.030838 
L 133.407632 108.993661 
L 135.467333 110.187294 
L 138.235097 112.089128 
L 141.716869 114.838838 
L 151.445009 122.870215 
L 154.180452 124.698524 
L 156.210968 125.793456 
L 158.221251 126.604775 
L 160.210074 127.098478 
L 161.523753 127.238289 
L 162.82769 127.220353 
L 164.12207 127.041496 
L 165.407229 126.700566 
L 166.68365 126.198453 
L 168.583303 125.149993 
L 170.467415 123.764058 
L 172.339293 122.068273 
L 174.202794 120.098884 
L 176.681917 117.124061 
L 179.78763 113.017196 
L 186.107805 104.53398 
L 188.706946 101.435372 
L 190.691753 99.348666 
L 192.710377 97.522495 
L 194.765156 96.002456 
L 196.857659 94.82766 
L 198.274024 94.252267 
L 199.707517 93.852015 
L 201.157981 93.632634 
L 202.625088 93.598083 
L 204.10834 93.750493 
L 205.607077 94.090117 
L 207.120481 94.615304 
L 208.647583 95.32248 
L 210.961452 96.711951 
L 213.299329 98.471653 
L 215.656369 100.565963 
L 218.027282 102.950728 
L 221.200341 106.49175 
L 225.166259 111.298747 
L 233.76629 121.91668 
L 236.813572 125.296434 
L 239.061614 127.521092 
L 241.274447 129.424838 
L 243.450117 130.967726 
L 245.587519 132.119916 
L 246.991035 132.661178 
L 248.377555 133.017344 
L 249.747384 133.187875 
L 251.100987 133.174484 
L 252.438984 132.981094 
L 253.762142 132.613753 
L 255.071361 132.080531 
L 257.011327 130.991932 
L 258.926172 129.593636 
L 260.820252 127.933737 
L 263.321521 125.407453 
L 267.045257 121.23178 
L 271.393007 116.355258 
L 273.899342 113.834574 
L 275.796201 112.164616 
L 277.710881 110.731882 
L 279.64549 109.571968 
L 281.60141 108.712479 
L 283.579267 108.172451 
L 285.578929 107.961993 
L 287.599526 108.082121 
L 289.639482 108.524832 
L 291.69658 109.273395 
L 293.768027 110.302879 
L 295.850556 111.580921 
L 298.638151 113.603793 
L 302.126937 116.493801 
L 312.445806 125.389696 
L 315.121503 127.314408 
L 317.754042 128.904256 
L 319.698289 129.856489 
L 321.616013 130.60001 
L 323.507213 131.143545 
L 325.98852 131.59159 
L 328.426104 131.79143 
L 336.668491 132.159238 
L 338.387435 132.552001 
L 340.092598 133.190206 
L 341.784473 134.130331 
L 343.462932 135.423178 
L 345.127123 137.111931 
L 346.775404 139.230347 
L 348.405283 141.801123 
L 350.01339 144.834493 
L 351.595472 148.327106 
L 353.146416 152.261229 
L 354.660293 156.604333 
L 356.609521 162.947474 
L 358.463405 169.780625 
L 360.617608 178.715507 
L 362.911876 189.417998 
L 365.10344 200.789229 
L 367.489279 214.443534 
L 367.761815 216.087708 
L 367.761815 216.087708 
" style="fill:none;stroke:#172c4b;stroke-linecap:square;stroke-opacity:0.3;"/>
   </g>
   <g id="line2d_20">
    <path clip-path="url(#pb0329ceb80)" d="M 369.488057 220.674572 
L 364.046822 209.4801 
L 360.66394 202.947724 
L 357.753437 197.745458 
L 355.136416 193.485155 
L 352.942924 190.268115 
L 350.678329 187.321631 
L 348.356826 184.724323 
L 346.585619 183.042374 
L 344.793308 181.608112 
L 342.983276 180.430814 
L 341.158152 179.511596 
L 339.31985 178.843388 
L 337.46962 178.411205 
L 335.608123 178.192724 
L 333.735514 178.159113 
L 331.220928 178.342022 
L 327.40786 178.913671 
L 322.236689 179.706527 
L 319.610106 179.901197 
L 316.955319 179.853797 
L 314.946098 179.62316 
L 312.922161 179.205984 
L 310.884718 178.593189 
L 308.83541 177.78383 
L 306.08815 176.412869 
L 303.32938 174.746676 
L 299.875195 172.349031 
L 289.615691 164.882961 
L 286.939451 163.361282 
L 284.955383 162.483614 
L 282.992629 161.875531 
L 281.051888 161.569268 
L 279.770342 161.545186 
L 278.498463 161.671398 
L 277.235964 161.951195 
L 275.982419 162.38598 
L 274.117638 163.327105 
L 272.269297 164.605492 
L 270.43436 166.201766 
L 268.609239 168.08754 
L 266.183952 170.987856 
L 263.150469 175.08045 
L 254.465125 187.202031 
L 251.88585 190.2379 
L 249.912872 192.235138 
L 247.904092 193.937519 
L 245.857809 195.301679 
L 244.472308 196.004895 
L 243.069667 196.532509 
L 241.649997 196.877266 
L 240.213579 197.033665 
L 238.760864 196.998043 
L 237.292469 196.768649 
L 235.80917 196.345697 
L 234.311897 195.731403 
L 232.801724 194.930005 
L 230.514956 193.39132 
L 228.206491 191.475662 
L 225.881418 189.222135 
L 223.545218 186.678753 
L 220.422927 182.934299 
L 215.751965 176.871363 
L 208.862143 167.885831 
L 205.874653 164.359087 
L 203.672121 162.03223 
L 201.505213 160.035084 
L 199.37573 158.408672 
L 197.284621 157.183318 
L 195.911948 156.59902 
L 194.556204 156.204259 
L 193.217044 155.999355 
L 191.893961 155.982312 
L 190.5863 156.148893 
L 189.293266 156.492713 
L 188.013932 157.005373 
L 186.118303 158.068034 
L 184.247174 159.445611 
L 182.39618 161.089641 
L 179.951423 163.602707 
L 176.310753 167.780841 
L 171.447296 173.387168 
L 168.989146 175.917064 
L 166.502667 178.120811 
L 164.615687 179.509018 
L 162.707847 180.640657 
L 160.778173 181.497536 
L 158.826377 182.069633 
L 156.85284 182.355094 
L 154.85857 182.360031 
L 152.845154 182.098114 
L 150.814686 181.589965 
L 148.769685 180.862354 
L 146.025384 179.606607 
L 142.577129 177.70078 
L 136.365343 173.881216 
L 132.253721 171.469332 
L 128.861757 169.738244 
L 126.176152 168.590521 
L 123.517864 167.663577 
L 120.234622 166.783216 
L 115.709959 165.881084 
L 111.261261 164.94332 
L 108.749267 164.162527 
L 106.878518 163.365826 
L 105.018876 162.330013 
L 103.170573 161.004931 
L 101.334363 159.344351 
L 99.511603 157.30773 
L 97.704322 154.861911 
L 95.915273 151.982708 
L 94.147965 148.656343 
L 92.406674 144.880688 
L 90.696437 140.666249 
L 89.023015 136.03686 
L 86.860268 129.285655 
L 84.791357 121.991371 
L 82.834639 114.320913 
L 80.57602 104.515225 
L 78.191171 93.036552 
L 75.66847 79.62038 
L 73.311576 65.883601 
L 73.327343 65.916709 
L 78.943008 77.456333 
L 82.365242 84.03586 
L 85.298805 89.241589 
L 87.931007 93.482752 
L 90.134234 96.670792 
L 92.406674 99.57759 
L 94.734404 102.126604 
L 96.509396 103.768254 
L 98.304874 105.160115 
L 100.117584 106.294255 
L 101.945019 107.170928 
L 103.785379 107.798551 
L 105.637518 108.193379 
L 107.500866 108.378886 
L 110.002685 108.352928 
L 112.525187 108.093035 
L 117.639203 107.259077 
L 120.887758 106.812424 
L 123.517864 106.644122 
L 126.176152 106.726343 
L 128.187891 106.987106 
L 130.214175 107.43647 
L 132.253721 108.082184 
L 134.304817 108.923811 
L 137.053859 110.334391 
L 139.813605 112.033428 
L 143.267728 114.458298 
L 152.845154 121.457192 
L 155.525544 123.022907 
L 157.513052 123.941889 
L 159.479424 124.597336 
L 161.423855 124.955823 
L 163.346186 124.991545 
L 164.615687 124.827172 
L 165.875903 124.508686 
L 167.127291 124.035159 
L 168.989146 123.036878 
L 170.835027 121.703913 
L 172.668066 120.057184 
L 174.491933 118.126512 
L 176.916671 115.17717 
L 179.951423 111.044135 
L 188.013932 99.755845 
L 190.5863 96.674293 
L 192.55353 94.632555 
L 194.556204 92.877849 
L 196.596153 91.454587 
L 197.97737 90.7088 
L 199.37573 90.136539 
L 200.791163 89.745482 
L 202.223429 89.541578 
L 203.672121 89.528955 
L 205.136663 89.709848 
L 206.616317 90.08454 
L 208.110192 90.651316 
L 209.617248 91.406446 
L 211.899939 92.87917 
L 214.205129 94.734461 
L 216.527806 96.934781 
L 218.862545 99.433538 
L 221.9844 103.133938 
L 225.881418 108.141111 
L 234.311897 119.131505 
L 237.292469 122.603615 
L 239.489224 124.878791 
L 241.649997 126.816721 
L 243.773127 128.378093 
L 245.857809 129.534454 
L 247.226226 130.071525 
L 248.577784 130.418761 
L 249.912872 130.576424 
L 251.232032 130.547078 
L 252.535956 130.335507 
L 253.825474 129.948614 
L 255.101542 129.395278 
L 256.992801 128.277041 
L 258.860261 126.851526 
L 260.708347 125.168196 
L 263.150469 122.617358 
L 266.789881 118.415358 
L 271.656329 112.836153 
L 274.117638 110.341756 
L 275.982419 108.687812 
L 277.866065 107.259176 
L 279.770342 106.083294 
L 281.696339 105.179704 
L 283.644456 104.559795 
L 285.614424 104.226775 
L 287.605333 104.175835 
L 289.615691 104.39453 
L 291.643482 104.863344 
L 293.686251 105.55647 
L 296.428353 106.775105 
L 299.184758 108.251775 
L 303.32938 110.747171 
L 310.20284 114.895583 
L 313.598376 116.656891 
L 316.28727 117.832222 
L 318.949046 118.786261 
L 322.236689 119.694597 
L 326.124879 120.494899 
L 331.220928 121.530241 
L 333.735514 122.278313 
L 335.608123 123.040214 
L 337.46962 124.032613 
L 339.31985 125.306145 
L 341.158152 126.907819 
L 342.983276 128.879243 
L 344.793308 131.254922 
L 346.585619 134.06064 
L 348.356826 137.312002 
L 350.102783 141.013153 
L 351.818577 145.155751 
L 353.498564 149.718215 
L 355.671819 156.391784 
L 357.753437 163.626515 
L 359.725223 171.260359 
L 362.006127 181.058681 
L 364.422777 192.591802 
L 366.718951 204.662181 
L 369.291309 219.484084 
L 369.488057 220.674572 
L 369.488057 220.674572 
" style="fill:none;stroke:#172c4b;stroke-linecap:square;stroke-opacity:0.2;"/>
   </g>
   <g id="line2d_21">
    <path clip-path="url(#pb0329ceb80)" d="M 373.581818 242.116364 
L 362.810304 214.861523 
L 359.490933 207.250316 
L 357.158337 202.361237 
L 354.757356 197.822313 
L 352.924019 194.743592 
L 351.070911 192.008286 
L 349.204117 189.662995 
L 347.328506 187.74174 
L 346.075049 186.706987 
L 344.8201 185.872235 
L 343.56421 185.236852 
L 342.307713 184.797277 
L 341.050735 184.547098 
L 339.793213 184.47718 
L 338.534907 184.575842 
L 336.645078 185.008694 
L 334.750691 185.733076 
L 332.849357 186.684917 
L 329.657529 188.585092 
L 325.118499 191.331519 
L 322.476563 192.636919 
L 320.468496 193.375041 
L 318.436293 193.848638 
L 316.379493 194.016359 
L 314.994733 193.942928 
L 313.599416 193.714075 
L 312.19396 193.326417 
L 310.068037 192.446073 
L 307.923102 191.215239 
L 305.762309 189.654807 
L 303.589387 187.797926 
L 300.680601 184.939248 
L 297.041449 180.941378 
L 289.126333 171.988191 
L 286.311645 169.222009 
L 284.231186 167.479494 
L 282.17965 166.085702 
L 280.828864 165.373957 
L 279.491945 164.849564 
L 278.168999 164.521301 
L 276.859958 164.395414 
L 275.56458 164.475539 
L 274.282453 164.762674 
L 273.012996 165.255178 
L 271.755467 165.948825 
L 270.50897 166.836888 
L 268.657601 168.512966 
L 266.82464 170.565475 
L 265.005483 172.944541 
L 262.592651 176.523111 
L 258.97459 182.441295 
L 254.084838 190.465621 
L 251.58484 194.151419 
L 249.677397 196.64213 
L 247.73844 198.831715 
L 245.765467 200.667443 
L 244.430396 201.672127 
L 243.079175 202.488183 
L 241.711708 203.106248 
L 240.328079 203.518899 
L 238.928555 203.720737 
L 237.513577 203.70847 
L 236.08376 203.480971 
L 234.639887 203.039326 
L 233.182895 202.386861 
L 231.713871 201.529154 
L 230.234035 200.47402 
L 227.996975 198.543632 
L 225.743593 196.23478 
L 223.479263 193.600235 
L 220.452911 189.688758 
L 216.677595 184.396508 
L 209.249345 173.855335 
L 206.355095 170.175874 
L 204.221423 167.77727 
L 202.122171 165.754779 
L 200.05883 164.15718 
L 198.703549 163.346886 
L 197.364459 162.749826 
L 196.041331 162.371097 
L 194.733756 162.213093 
L 193.441157 162.275502 
L 192.162791 162.555343 
L 190.897758 163.047033 
L 189.645016 163.742498 
L 188.403389 164.631313 
L 186.558933 166.298951 
L 184.731771 168.322131 
L 182.916733 170.641843 
L 180.506148 174.082164 
L 171.354814 187.749199 
L 169.46845 190.115154 
L 167.554835 192.215007 
L 165.611736 194.000719 
L 163.637763 195.433159 
L 162.304334 196.176945 
L 160.956995 196.744349 
L 159.595979 197.131398 
L 158.221685 197.336314 
L 156.834675 197.359543 
L 155.435661 197.203755 
L 154.025498 196.873828 
L 152.60517 196.376792 
L 150.458053 195.338385 
L 148.294679 193.983886 
L 146.119547 192.361108 
L 143.209286 189.876454 
L 138.845451 185.762415 
L 133.799898 180.998414 
L 130.956587 178.576653 
L 128.848446 176.996574 
L 126.763351 175.660717 
L 124.702458 174.593541 
L 122.666168 173.805954 
L 120.65414 173.294432 
L 118.665343 173.040651 
L 116.698126 173.011648 
L 114.104929 173.239646 
L 106.467939 174.195557 
L 104.577496 174.054595 
L 103.318938 173.780275 
L 102.061249 173.330119 
L 100.804148 172.678015 
L 99.547527 171.799127 
L 98.291462 170.670294 
L 97.036235 169.27043 
L 95.78234 167.580913 
L 94.530504 165.585966 
L 93.281683 163.273018 
L 92.037079 160.633049 
L 90.181299 156.049789 
L 88.344194 150.720492 
L 86.532834 144.668285 
L 84.755402 137.940251 
L 83.021088 130.607958 
L 80.793226 120.060561 
L 78.685649 108.901945 
L 76.261563 94.637086 
L 73.73167 78.110045 
L 71.143977 59.469219 
L 69.218182 44.443636 
L 69.274286 44.586764 
L 80.254015 72.327498 
L 83.593797 79.928181 
L 85.936152 84.782735 
L 88.344194 89.266375 
L 90.181299 92.291577 
L 92.037079 94.964798 
L 93.905647 97.241415 
L 95.78234 99.089656 
L 97.036235 100.074511 
L 98.291462 100.859246 
L 99.547527 101.44523 
L 100.804148 101.836746 
L 102.061249 102.0409 
L 103.318938 102.067483 
L 104.577496 101.92878 
L 106.467939 101.443215 
L 108.363306 100.676283 
L 110.902422 99.329607 
L 119.988696 94.062373 
L 121.992833 93.284916 
L 124.020963 92.764069 
L 126.073662 92.542966 
L 127.455735 92.578365 
L 128.848446 92.767946 
L 130.251415 93.115725 
L 131.664114 93.623169 
L 133.799898 94.680577 
L 135.953194 96.079605 
L 138.120549 97.793139 
L 140.297986 99.782232 
L 143.209286 102.77586 
L 147.570711 107.700322 
L 153.316539 114.191222 
L 156.136619 117.011574 
L 158.221685 118.806912 
L 160.278175 120.262383 
L 161.632393 121.019308 
L 162.972795 121.591459 
L 164.299235 121.96944 
L 165.611736 122.146365 
L 166.910497 122.117939 
L 168.195889 121.882506 
L 169.46845 121.441048 
L 170.728883 120.797152 
L 171.978046 119.95693 
L 173.832893 118.347766 
L 175.668616 116.35478 
L 177.489734 114.026304 
L 179.903826 110.499153 
L 182.916733 105.629204 
L 189.022891 95.609407 
L 191.52867 91.969033 
L 193.441157 89.524548 
L 195.385632 87.390475 
L 197.364459 85.618318 
L 198.703549 84.659812 
L 200.05883 83.892449 
L 201.430352 83.325119 
L 202.817987 82.964747 
L 204.221423 82.81621 
L 205.640175 82.882265 
L 207.073585 83.16349 
L 208.520832 83.65824 
L 209.980939 84.362625 
L 211.452785 85.270508 
L 213.679794 86.994985 
L 215.925664 89.120593 
L 218.185213 91.599479 
L 221.209633 95.353726 
L 224.989758 100.541391 
L 234.639887 114.134503 
L 237.513577 117.620998 
L 239.630281 119.838337 
L 241.711708 121.653763 
L 243.079175 122.61904 
L 244.430396 123.376649 
L 245.765467 123.919498 
L 247.084662 124.243165 
L 248.388432 124.345932 
L 249.677397 124.228781 
L 250.95234 123.895355 
L 252.214197 123.351871 
L 253.464045 122.607003 
L 254.703091 121.671738 
L 256.54432 119.941077 
L 258.369094 117.864178 
L 260.78559 114.661403 
L 263.797904 110.18718 
L 269.889539 100.939642 
L 272.382793 97.591916 
L 274.282453 95.352491 
L 276.210583 93.404237 
L 278.168999 91.790864 
L 280.15866 90.546702 
L 281.502537 89.934745 
L 282.860165 89.502355 
L 284.231186 89.25186 
L 285.615077 89.183373 
L 287.011165 89.294778 
L 288.418628 89.581747 
L 289.836514 90.03778 
L 291.98051 91.019462 
L 294.141478 92.324376 
L 296.314974 93.906097 
L 299.224302 96.351182 
L 302.863099 99.742698 
L 309.355028 105.874799 
L 312.19396 108.256271 
L 314.298372 109.797882 
L 316.379493 111.090307 
L 318.436293 112.11126 
L 320.468496 112.852194 
L 322.476563 113.319086 
L 324.461633 113.532727 
L 326.425452 113.528467 
L 329.014757 113.270632 
L 335.382799 112.3846 
L 337.275422 112.392878 
L 339.164179 112.689737 
L 340.422053 113.093445 
L 341.679284 113.692677 
L 342.936025 114.512625 
L 344.192246 115.576907 
L 345.447721 116.907165 
L 346.702008 118.522672 
L 347.954439 120.439952 
L 349.204117 122.67241 
L 350.449901 125.229984 
L 352.308188 129.688277 
L 354.148865 134.894207 
L 355.965056 140.828541 
L 357.748755 147.448246 
L 359.490933 154.685836 
L 361.731987 165.135018 
L 363.856058 176.235372 
L 366.305577 190.494356 
L 368.476749 204.444808 
L 370.951119 221.850069 
L 373.581818 242.116364 
L 373.581818 242.116364 
" style="fill:none;stroke:#172c4b;stroke-linecap:square;stroke-opacity:0.1;"/>
   </g>
   <g id="line2d_22">
    <path clip-path="url(#pb0329ceb80)" d="M 345.24711 158.610164 
L 337.373352 161.146395 
L 329.520127 163.446366 
L 321.548389 165.546483 
L 313.722155 167.378379 
L 306.104967 168.942616 
L 298.442845 170.298401 
L 290.911999 171.418216 
L 282.985374 172.369063 
L 275.410128 173.059415 
L 267.576464 173.548876 
L 259.52186 173.814192 
L 252.04018 173.844508 
L 244.43733 173.662073 
L 236.743376 173.258619 
L 228.988743 172.629234 
L 221.204095 171.77249 
L 213.420218 170.690507 
L 205.667892 169.388965 
L 197.977773 167.877059 
L 190.380271 166.167401 
L 182.165836 164.07741 
L 174.139112 161.792786 
L 166.338506 159.342958 
L 158.13046 156.520852 
L 150.282639 153.588312 
L 142.239102 150.34497 
L 134.169794 146.849482 
L 126.275667 143.195568 
L 117.925102 139.078157 
L 109.527321 134.675948 
L 101.16371 130.030996 
L 97.551163 127.943664 
L 97.65403 127.909043 
L 105.561536 125.365481 
L 113.468011 123.054732 
L 121.47889 120.95056 
L 129.335566 119.118693 
L 136.977242 117.557165 
L 144.660132 116.206132 
L 152.208342 115.092548 
L 160.150493 114.149598 
L 167.738281 113.467824 
L 175.58281 112.988074 
L 183.646548 112.733438 
L 191.134994 112.713513 
L 198.743116 112.906829 
L 206.44083 113.321492 
L 214.197693 113.96224 
L 221.983034 114.830326 
L 229.766064 115.923452 
L 237.516006 117.23576 
L 245.202214 118.75788 
L 252.794293 120.477035 
L 261.001042 122.576456 
L 269.018313 124.869257 
L 276.807747 127.325835 
L 285.001702 130.153504 
L 292.83353 133.089576 
L 300.857696 136.334323 
L 308.903913 139.828414 
L 317.265972 143.714777 
L 325.509997 147.800831 
L 333.766626 152.146452 
L 342.086015 156.781514 
L 345.24711 158.610164 
L 345.24711 158.610164 
" style="fill:none;stroke:#3b65ac;stroke-dasharray:5.55,2.4;stroke-dashoffset:0;stroke-width:1.5;"/>
   </g>
   <g id="line2d_23">
    <path clip-path="url(#pb0329ceb80)" d="M 345.24711 158.610164 
L 97.551163 127.943946 
L 345.24711 158.610164 
" style="fill:none;stroke:#cba74e;stroke-dasharray:9.6,2.4,1.5,2.4;stroke-dashoffset:0;stroke-width:1.5;"/>
   </g>
   <g id="patch_3">
    <path d="M 54 252 
L 54 34.56 
" style="fill:none;stroke:#000000;stroke-linecap:square;stroke-linejoin:miter;stroke-width:0.8;"/>
   </g>
   <g id="patch_4">
    <path d="M 388.8 252 
L 388.8 34.56 
" style="fill:none;stroke:#000000;stroke-linecap:square;stroke-linejoin:miter;stroke-width:0.8;"/>
   </g>
   <g id="patch_5">
    <path d="M 54 252 
L 388.8 252 
" style="fill:none;stroke:#000000;stroke-linecap:square;stroke-linejoin:miter;stroke-width:0.8;"/>
   </g>
   <g id="patch_6">
    <path d="M 54 34.56 
L 388.8 34.56 
" style="fill:none;stroke:#000000;stroke-linecap:square;stroke-linejoin:miter;stroke-width:0.8;"/>
   </g>
   <g id="text_15">
    <!-- Work loop: Nonlinear Oscillator -->
    <g transform="translate(128.398125 28.56)scale(0.12 -0.12)">
     <defs>
      <path d="M 3.328125 72.90625 
L 13.28125 72.90625 
L 28.609375 11.28125 
L 43.890625 72.90625 
L 54.984375 72.90625 
L 70.3125 11.28125 
L 85.59375 72.90625 
L 95.609375 72.90625 
L 77.296875 0 
L 64.890625 0 
L 49.515625 63.28125 
L 33.984375 0 
L 21.578125 0 
z
" id="DejaVuSans-87"/>
      <path d="M 41.109375 46.296875 
Q 39.59375 47.171875 37.8125 47.578125 
Q 36.03125 48 33.890625 48 
Q 26.265625 48 22.1875 43.046875 
Q 18.109375 38.09375 18.109375 28.8125 
L 18.109375 0 
L 9.078125 0 
L 9.078125 54.6875 
L 18.109375 54.6875 
L 18.109375 46.1875 
Q 20.953125 51.171875 25.484375 53.578125 
Q 30.03125 56 36.53125 56 
Q 37.453125 56 38.578125 55.875 
Q 39.703125 55.765625 41.0625 55.515625 
z
" id="DejaVuSans-114"/>
      <path d="M 9.078125 75.984375 
L 18.109375 75.984375 
L 18.109375 31.109375 
L 44.921875 54.6875 
L 56.390625 54.6875 
L 27.390625 29.109375 
L 57.625 0 
L 45.90625 0 
L 18.109375 26.703125 
L 18.109375 0 
L 9.078125 0 
z
" id="DejaVuSans-107"/>
      <path d="M 18.109375 8.203125 
L 18.109375 -20.796875 
L 9.078125 -20.796875 
L 9.078125 54.6875 
L 18.109375 54.6875 
L 18.109375 46.390625 
Q 20.953125 51.265625 25.265625 53.625 
Q 29.59375 56 35.59375 56 
Q 45.5625 56 51.78125 48.09375 
Q 58.015625 40.1875 58.015625 27.296875 
Q 58.015625 14.40625 51.78125 6.484375 
Q 45.5625 -1.421875 35.59375 -1.421875 
Q 29.59375 -1.421875 25.265625 0.953125 
Q 20.953125 3.328125 18.109375 8.203125 
z
M 48.6875 27.296875 
Q 48.6875 37.203125 44.609375 42.84375 
Q 40.53125 48.484375 33.40625 48.484375 
Q 26.265625 48.484375 22.1875 42.84375 
Q 18.109375 37.203125 18.109375 27.296875 
Q 18.109375 17.390625 22.1875 11.75 
Q 26.265625 6.109375 33.40625 6.109375 
Q 40.53125 6.109375 44.609375 11.75 
Q 48.6875 17.390625 48.6875 27.296875 
z
" id="DejaVuSans-112"/>
      <path d="M 11.71875 12.40625 
L 22.015625 12.40625 
L 22.015625 0 
L 11.71875 0 
z
M 11.71875 51.703125 
L 22.015625 51.703125 
L 22.015625 39.3125 
L 11.71875 39.3125 
z
" id="DejaVuSans-58"/>
      <path d="M 9.8125 72.90625 
L 23.09375 72.90625 
L 55.421875 11.921875 
L 55.421875 72.90625 
L 64.984375 72.90625 
L 64.984375 0 
L 51.703125 0 
L 19.390625 60.984375 
L 19.390625 0 
L 9.8125 0 
z
" id="DejaVuSans-78"/>
      <path d="M 39.40625 66.21875 
Q 28.65625 66.21875 22.328125 58.203125 
Q 16.015625 50.203125 16.015625 36.375 
Q 16.015625 22.609375 22.328125 14.59375 
Q 28.65625 6.59375 39.40625 6.59375 
Q 50.140625 6.59375 56.421875 14.59375 
Q 62.703125 22.609375 62.703125 36.375 
Q 62.703125 50.203125 56.421875 58.203125 
Q 50.140625 66.21875 39.40625 66.21875 
z
M 39.40625 74.21875 
Q 54.734375 74.21875 63.90625 63.9375 
Q 73.09375 53.65625 73.09375 36.375 
Q 73.09375 19.140625 63.90625 8.859375 
Q 54.734375 -1.421875 39.40625 -1.421875 
Q 24.03125 -1.421875 14.8125 8.828125 
Q 5.609375 19.09375 5.609375 36.375 
Q 5.609375 53.65625 14.8125 63.9375 
Q 24.03125 74.21875 39.40625 74.21875 
z
" id="DejaVuSans-79"/>
     </defs>
     <use xlink:href="#DejaVuSans-87"/>
     <use x="93.001953" xlink:href="#DejaVuSans-111"/>
     <use x="154.183594" xlink:href="#DejaVuSans-114"/>
     <use x="195.296875" xlink:href="#DejaVuSans-107"/>
     <use x="253.207031" xlink:href="#DejaVuSans-32"/>
     <use x="284.994141" xlink:href="#DejaVuSans-108"/>
     <use x="312.777344" xlink:href="#DejaVuSans-111"/>
     <use x="373.958984" xlink:href="#DejaVuSans-111"/>
     <use x="435.140625" xlink:href="#DejaVuSans-112"/>
     <use x="498.617188" xlink:href="#DejaVuSans-58"/>
     <use x="532.308594" xlink:href="#DejaVuSans-32"/>
     <use x="564.095703" xlink:href="#DejaVuSans-78"/>
     <use x="638.900391" xlink:href="#DejaVuSans-111"/>
     <use x="700.082031" xlink:href="#DejaVuSans-110"/>
     <use x="763.460938" xlink:href="#DejaVuSans-108"/>
     <use x="791.244141" xlink:href="#DejaVuSans-105"/>
     <use x="819.027344" xlink:href="#DejaVuSans-110"/>
     <use x="882.40625" xlink:href="#DejaVuSans-101"/>
     <use x="943.929688" xlink:href="#DejaVuSans-97"/>
     <use x="1005.208984" xlink:href="#DejaVuSans-114"/>
     <use x="1046.322266" xlink:href="#DejaVuSans-32"/>
     <use x="1078.109375" xlink:href="#DejaVuSans-79"/>
     <use x="1156.820312" xlink:href="#DejaVuSans-115"/>
     <use x="1208.919922" xlink:href="#DejaVuSans-99"/>
     <use x="1263.900391" xlink:href="#DejaVuSans-105"/>
     <use x="1291.683594" xlink:href="#DejaVuSans-108"/>
     <use x="1319.466797" xlink:href="#DejaVuSans-108"/>
     <use x="1347.25" xlink:href="#DejaVuSans-97"/>
     <use x="1408.529297" xlink:href="#DejaVuSans-116"/>
     <use x="1447.738281" xlink:href="#DejaVuSans-111"/>
     <use x="1508.919922" xlink:href="#DejaVuSans-114"/>
    </g>
   </g>
  </g>
 </g>
 <defs>
  <clipPath id="pb0329ceb80">
   <rect height="217.44" width="334.8" x="54" y="34.56"/>
  </clipPath>
 </defs>
</svg>
