<?xml version="1.0" encoding="utf-8" standalone="no"?>
<!DOCTYPE svg PUBLIC "-//W3C//DTD SVG 1.1//EN"
  "http://www.w3.org/Graphics/SVG/1.1/DTD/svg11.dtd">
<!-- Created with matplotlib (https://matplotlib.org/) -->
<svg height="288pt" version="1.1" viewBox="0 0 432 288" width="432pt" xmlns="http://www.w3.org/2000/svg" xmlns:xlink="http://www.w3.org/1999/xlink">
 <metadata>
  <rdf:RDF xmlns:cc="http://creativecommons.org/ns#" xmlns:dc="http://purl.org/dc/elements/1.1/" xmlns:rdf="http://www.w3.org/1999/02/22-rdf-syntax-ns#">
   <cc:Work>
    <dc:type rdf:resource="http://purl.org/dc/dcmitype/StillImage"/>
    <dc:date>2024-08-27T13:04:31.728204</dc:date>
    <dc:format>image/svg+xml</dc:format>
    <dc:creator>
     <cc:Agent>
      <dc:title>Matplotlib v3.3.4, https://matplotlib.org/</dc:title>
     </cc:Agent>
    </dc:creator>
   </cc:Work>
  </rdf:RDF>
 </metadata>
 <defs>
  <style type="text/css">*{stroke-linecap:butt;stroke-linejoin:round;}</style>
 </defs>
 <g id="figure_1">
  <g id="patch_1">
   <path d="M 0 288 
L 432 288 
L 432 0 
L 0 0 
z
" style="fill:none;"/>
  </g>
  <g id="axes_1">
   <g id="patch_2">
    <path d="M 54 252 
L 388.8 252 
L 388.8 34.56 
L 54 34.56 
z
" style="fill:#ffffff;"/>
   </g>
   <g id="matplotlib.axis_1">
    <g id="xtick_1">
     <g id="line2d_1">
      <defs>
       <path d="M 0 0 
L 0 3.5 
" id="m3c0db3c8d0" style="stroke:#000000;stroke-width:0.8;"/>
      </defs>
      <g>
       <use style="stroke:#000000;stroke-width:0.8;" x="69.218182" xlink:href="#m3c0db3c8d0" y="252"/>
      </g>
     </g>
     <g id="text_1">
      <!-- 0 -->
      <g transform="translate(65.400682 268.118125)scale(0.12 -0.12)">
       <defs>
        <path d="M 31.78125 66.40625 
Q 24.171875 66.40625 20.328125 58.90625 
Q 16.5 51.421875 16.5 36.375 
Q 16.5 21.390625 20.328125 13.890625 
Q 24.171875 6.390625 31.78125 6.390625 
Q 39.453125 6.390625 43.28125 13.890625 
Q 47.125 21.390625 47.125 36.375 
Q 47.125 51.421875 43.28125 58.90625 
Q 39.453125 66.40625 31.78125 66.40625 
z
M 31.78125 74.21875 
Q 44.046875 74.21875 50.515625 64.515625 
Q 56.984375 54.828125 56.984375 36.375 
Q 56.984375 17.96875 50.515625 8.265625 
Q 44.046875 -1.421875 31.78125 -1.421875 
Q 19.53125 -1.421875 13.0625 8.265625 
Q 6.59375 17.96875 6.59375 36.375 
Q 6.59375 54.828125 13.0625 64.515625 
Q 19.53125 74.21875 31.78125 74.21875 
z
" id="DejaVuSans-48"/>
       </defs>
       <use xlink:href="#DejaVuSans-48"/>
      </g>
     </g>
    </g>
    <g id="xtick_2">
     <g id="line2d_2">
      <g>
       <use style="stroke:#000000;stroke-width:0.8;" x="130.151843" xlink:href="#m3c0db3c8d0" y="252"/>
      </g>
     </g>
     <g id="text_2">
      <!-- (2/5)T -->
      <g transform="translate(112.14903 268.118125)scale(0.12 -0.12)">
       <defs>
        <path d="M 31 75.875 
Q 24.46875 64.65625 21.28125 53.65625 
Q 18.109375 42.671875 18.109375 31.390625 
Q 18.109375 20.125 21.3125 9.0625 
Q 24.515625 -2 31 -13.1875 
L 23.1875 -13.1875 
Q 15.875 -1.703125 12.234375 9.375 
Q 8.59375 20.453125 8.59375 31.390625 
Q 8.59375 42.28125 12.203125 53.3125 
Q 15.828125 64.359375 23.1875 75.875 
z
" id="DejaVuSans-40"/>
        <path d="M 19.1875 8.296875 
L 53.609375 8.296875 
L 53.609375 0 
L 7.328125 0 
L 7.328125 8.296875 
Q 12.9375 14.109375 22.625 23.890625 
Q 32.328125 33.6875 34.8125 36.53125 
Q 39.546875 41.84375 41.421875 45.53125 
Q 43.3125 49.21875 43.3125 52.78125 
Q 43.3125 58.59375 39.234375 62.25 
Q 35.15625 65.921875 28.609375 65.921875 
Q 23.96875 65.921875 18.8125 64.3125 
Q 13.671875 62.703125 7.8125 59.421875 
L 7.8125 69.390625 
Q 13.765625 71.78125 18.9375 73 
Q 24.125 74.21875 28.421875 74.21875 
Q 39.75 74.21875 46.484375 68.546875 
Q 53.21875 62.890625 53.21875 53.421875 
Q 53.21875 48.921875 51.53125 44.890625 
Q 49.859375 40.875 45.40625 35.40625 
Q 44.1875 33.984375 37.640625 27.21875 
Q 31.109375 20.453125 19.1875 8.296875 
z
" id="DejaVuSans-50"/>
        <path d="M 25.390625 72.90625 
L 33.6875 72.90625 
L 8.296875 -9.28125 
L 0 -9.28125 
z
" id="DejaVuSans-47"/>
        <path d="M 10.796875 72.90625 
L 49.515625 72.90625 
L 49.515625 64.59375 
L 19.828125 64.59375 
L 19.828125 46.734375 
Q 21.96875 47.46875 24.109375 47.828125 
Q 26.265625 48.1875 28.421875 48.1875 
Q 40.625 48.1875 47.75 41.5 
Q 54.890625 34.8125 54.890625 23.390625 
Q 54.890625 11.625 47.5625 5.09375 
Q 40.234375 -1.421875 26.90625 -1.421875 
Q 22.3125 -1.421875 17.546875 -0.640625 
Q 12.796875 0.140625 7.71875 1.703125 
L 7.71875 11.625 
Q 12.109375 9.234375 16.796875 8.0625 
Q 21.484375 6.890625 26.703125 6.890625 
Q 35.15625 6.890625 40.078125 11.328125 
Q 45.015625 15.765625 45.015625 23.390625 
Q 45.015625 31 40.078125 35.4375 
Q 35.15625 39.890625 26.703125 39.890625 
Q 22.75 39.890625 18.8125 39.015625 
Q 14.890625 38.140625 10.796875 36.28125 
z
" id="DejaVuSans-53"/>
        <path d="M 8.015625 75.875 
L 15.828125 75.875 
Q 23.140625 64.359375 26.78125 53.3125 
Q 30.421875 42.28125 30.421875 31.390625 
Q 30.421875 20.453125 26.78125 9.375 
Q 23.140625 -1.703125 15.828125 -13.1875 
L 8.015625 -13.1875 
Q 14.5 -2 17.703125 9.0625 
Q 20.90625 20.125 20.90625 31.390625 
Q 20.90625 42.671875 17.703125 53.65625 
Q 14.5 64.65625 8.015625 75.875 
z
" id="DejaVuSans-41"/>
        <path d="M -0.296875 72.90625 
L 61.375 72.90625 
L 61.375 64.59375 
L 35.5 64.59375 
L 35.5 0 
L 25.59375 0 
L 25.59375 64.59375 
L -0.296875 64.59375 
z
" id="DejaVuSans-84"/>
       </defs>
       <use xlink:href="#DejaVuSans-40"/>
       <use x="39.013672" xlink:href="#DejaVuSans-50"/>
       <use x="102.636719" xlink:href="#DejaVuSans-47"/>
       <use x="136.328125" xlink:href="#DejaVuSans-53"/>
       <use x="199.951172" xlink:href="#DejaVuSans-41"/>
       <use x="238.964844" xlink:href="#DejaVuSans-84"/>
      </g>
     </g>
    </g>
    <g id="xtick_3">
     <g id="line2d_3">
      <g>
       <use style="stroke:#000000;stroke-width:0.8;" x="191.085504" xlink:href="#m3c0db3c8d0" y="252"/>
      </g>
     </g>
     <g id="text_3">
      <!-- (4/5) T -->
      <g transform="translate(171.175816 268.118125)scale(0.12 -0.12)">
       <defs>
        <path d="M 37.796875 64.3125 
L 12.890625 25.390625 
L 37.796875 25.390625 
z
M 35.203125 72.90625 
L 47.609375 72.90625 
L 47.609375 25.390625 
L 58.015625 25.390625 
L 58.015625 17.1875 
L 47.609375 17.1875 
L 47.609375 0 
L 37.796875 0 
L 37.796875 17.1875 
L 4.890625 17.1875 
L 4.890625 26.703125 
z
" id="DejaVuSans-52"/>
        <path id="DejaVuSans-32"/>
       </defs>
       <use xlink:href="#DejaVuSans-40"/>
       <use x="39.013672" xlink:href="#DejaVuSans-52"/>
       <use x="102.636719" xlink:href="#DejaVuSans-47"/>
       <use x="136.328125" xlink:href="#DejaVuSans-53"/>
       <use x="199.951172" xlink:href="#DejaVuSans-41"/>
       <use x="238.964844" xlink:href="#DejaVuSans-32"/>
       <use x="270.751953" xlink:href="#DejaVuSans-84"/>
      </g>
     </g>
    </g>
    <g id="xtick_4">
     <g id="line2d_4">
      <g>
       <use style="stroke:#000000;stroke-width:0.8;" x="252.019165" xlink:href="#m3c0db3c8d0" y="252"/>
      </g>
     </g>
     <g id="text_4">
      <!-- (6/5)T -->
      <g transform="translate(234.016352 268.118125)scale(0.12 -0.12)">
       <defs>
        <path d="M 33.015625 40.375 
Q 26.375 40.375 22.484375 35.828125 
Q 18.609375 31.296875 18.609375 23.390625 
Q 18.609375 15.53125 22.484375 10.953125 
Q 26.375 6.390625 33.015625 6.390625 
Q 39.65625 6.390625 43.53125 10.953125 
Q 47.40625 15.53125 47.40625 23.390625 
Q 47.40625 31.296875 43.53125 35.828125 
Q 39.65625 40.375 33.015625 40.375 
z
M 52.59375 71.296875 
L 52.59375 62.3125 
Q 48.875 64.0625 45.09375 64.984375 
Q 41.3125 65.921875 37.59375 65.921875 
Q 27.828125 65.921875 22.671875 59.328125 
Q 17.53125 52.734375 16.796875 39.40625 
Q 19.671875 43.65625 24.015625 45.921875 
Q 28.375 48.1875 33.59375 48.1875 
Q 44.578125 48.1875 50.953125 41.515625 
Q 57.328125 34.859375 57.328125 23.390625 
Q 57.328125 12.15625 50.6875 5.359375 
Q 44.046875 -1.421875 33.015625 -1.421875 
Q 20.359375 -1.421875 13.671875 8.265625 
Q 6.984375 17.96875 6.984375 36.375 
Q 6.984375 53.65625 15.1875 63.9375 
Q 23.390625 74.21875 37.203125 74.21875 
Q 40.921875 74.21875 44.703125 73.484375 
Q 48.484375 72.75 52.59375 71.296875 
z
" id="DejaVuSans-54"/>
       </defs>
       <use xlink:href="#DejaVuSans-40"/>
       <use x="39.013672" xlink:href="#DejaVuSans-54"/>
       <use x="102.636719" xlink:href="#DejaVuSans-47"/>
       <use x="136.328125" xlink:href="#DejaVuSans-53"/>
       <use x="199.951172" xlink:href="#DejaVuSans-41"/>
       <use x="238.964844" xlink:href="#DejaVuSans-84"/>
      </g>
     </g>
    </g>
    <g id="xtick_5">
     <g id="line2d_5">
      <g>
       <use style="stroke:#000000;stroke-width:0.8;" x="312.952826" xlink:href="#m3c0db3c8d0" y="252"/>
      </g>
     </g>
     <g id="text_5">
      <!-- (8/5)T -->
      <g transform="translate(294.950013 268.118125)scale(0.12 -0.12)">
       <defs>
        <path d="M 31.78125 34.625 
Q 24.75 34.625 20.71875 30.859375 
Q 16.703125 27.09375 16.703125 20.515625 
Q 16.703125 13.921875 20.71875 10.15625 
Q 24.75 6.390625 31.78125 6.390625 
Q 38.8125 6.390625 42.859375 10.171875 
Q 46.921875 13.96875 46.921875 20.515625 
Q 46.921875 27.09375 42.890625 30.859375 
Q 38.875 34.625 31.78125 34.625 
z
M 21.921875 38.8125 
Q 15.578125 40.375 12.03125 44.71875 
Q 8.5 49.078125 8.5 55.328125 
Q 8.5 64.0625 14.71875 69.140625 
Q 20.953125 74.21875 31.78125 74.21875 
Q 42.671875 74.21875 48.875 69.140625 
Q 55.078125 64.0625 55.078125 55.328125 
Q 55.078125 49.078125 51.53125 44.71875 
Q 48 40.375 41.703125 38.8125 
Q 48.828125 37.15625 52.796875 32.3125 
Q 56.78125 27.484375 56.78125 20.515625 
Q 56.78125 9.90625 50.3125 4.234375 
Q 43.84375 -1.421875 31.78125 -1.421875 
Q 19.734375 -1.421875 13.25 4.234375 
Q 6.78125 9.90625 6.78125 20.515625 
Q 6.78125 27.484375 10.78125 32.3125 
Q 14.796875 37.15625 21.921875 38.8125 
z
M 18.3125 54.390625 
Q 18.3125 48.734375 21.84375 45.5625 
Q 25.390625 42.390625 31.78125 42.390625 
Q 38.140625 42.390625 41.71875 45.5625 
Q 45.3125 48.734375 45.3125 54.390625 
Q 45.3125 60.0625 41.71875 63.234375 
Q 38.140625 66.40625 31.78125 66.40625 
Q 25.390625 66.40625 21.84375 63.234375 
Q 18.3125 60.0625 18.3125 54.390625 
z
" id="DejaVuSans-56"/>
       </defs>
       <use xlink:href="#DejaVuSans-40"/>
       <use x="39.013672" xlink:href="#DejaVuSans-56"/>
       <use x="102.636719" xlink:href="#DejaVuSans-47"/>
       <use x="136.328125" xlink:href="#DejaVuSans-53"/>
       <use x="199.951172" xlink:href="#DejaVuSans-41"/>
       <use x="238.964844" xlink:href="#DejaVuSans-84"/>
      </g>
     </g>
    </g>
    <g id="xtick_6">
     <g id="line2d_6">
      <g>
       <use style="stroke:#000000;stroke-width:0.8;" x="373.886486" xlink:href="#m3c0db3c8d0" y="252"/>
      </g>
     </g>
     <g id="text_6">
      <!-- 2T -->
      <g transform="translate(366.404299 268.118125)scale(0.12 -0.12)">
       <use xlink:href="#DejaVuSans-50"/>
       <use x="63.623047" xlink:href="#DejaVuSans-84"/>
      </g>
     </g>
    </g>
    <g id="text_7">
     <!-- Time $t$ -->
     <g transform="translate(205.45 282.212188)scale(0.1 -0.1)">
      <defs>
       <path d="M 9.421875 54.6875 
L 18.40625 54.6875 
L 18.40625 0 
L 9.421875 0 
z
M 9.421875 75.984375 
L 18.40625 75.984375 
L 18.40625 64.59375 
L 9.421875 64.59375 
z
" id="DejaVuSans-105"/>
       <path d="M 52 44.1875 
Q 55.375 50.25 60.0625 53.125 
Q 64.75 56 71.09375 56 
Q 79.640625 56 84.28125 50.015625 
Q 88.921875 44.046875 88.921875 33.015625 
L 88.921875 0 
L 79.890625 0 
L 79.890625 32.71875 
Q 79.890625 40.578125 77.09375 44.375 
Q 74.3125 48.1875 68.609375 48.1875 
Q 61.625 48.1875 57.5625 43.546875 
Q 53.515625 38.921875 53.515625 30.90625 
L 53.515625 0 
L 44.484375 0 
L 44.484375 32.71875 
Q 44.484375 40.625 41.703125 44.40625 
Q 38.921875 48.1875 33.109375 48.1875 
Q 26.21875 48.1875 22.15625 43.53125 
Q 18.109375 38.875 18.109375 30.90625 
L 18.109375 0 
L 9.078125 0 
L 9.078125 54.6875 
L 18.109375 54.6875 
L 18.109375 46.1875 
Q 21.1875 51.21875 25.484375 53.609375 
Q 29.78125 56 35.6875 56 
Q 41.65625 56 45.828125 52.96875 
Q 50 49.953125 52 44.1875 
z
" id="DejaVuSans-109"/>
       <path d="M 56.203125 29.59375 
L 56.203125 25.203125 
L 14.890625 25.203125 
Q 15.484375 15.921875 20.484375 11.0625 
Q 25.484375 6.203125 34.421875 6.203125 
Q 39.59375 6.203125 44.453125 7.46875 
Q 49.3125 8.734375 54.109375 11.28125 
L 54.109375 2.78125 
Q 49.265625 0.734375 44.1875 -0.34375 
Q 39.109375 -1.421875 33.890625 -1.421875 
Q 20.796875 -1.421875 13.15625 6.1875 
Q 5.515625 13.8125 5.515625 26.8125 
Q 5.515625 40.234375 12.765625 48.109375 
Q 20.015625 56 32.328125 56 
Q 43.359375 56 49.78125 48.890625 
Q 56.203125 41.796875 56.203125 29.59375 
z
M 47.21875 32.234375 
Q 47.125 39.59375 43.09375 43.984375 
Q 39.0625 48.390625 32.421875 48.390625 
Q 24.90625 48.390625 20.390625 44.140625 
Q 15.875 39.890625 15.1875 32.171875 
z
" id="DejaVuSans-101"/>
       <path d="M 42.28125 54.6875 
L 40.921875 47.703125 
L 23 47.703125 
L 17.1875 18.015625 
Q 16.890625 16.359375 16.75 15.234375 
Q 16.609375 14.109375 16.609375 13.484375 
Q 16.609375 10.359375 18.484375 8.9375 
Q 20.359375 7.515625 24.515625 7.515625 
L 33.59375 7.515625 
L 32.078125 0 
L 23.484375 0 
Q 15.484375 0 11.546875 3.125 
Q 7.625 6.25 7.625 12.59375 
Q 7.625 13.71875 7.765625 15.0625 
Q 7.90625 16.40625 8.203125 18.015625 
L 14.015625 47.703125 
L 6.390625 47.703125 
L 7.8125 54.6875 
L 15.28125 54.6875 
L 18.3125 70.21875 
L 27.296875 70.21875 
L 24.3125 54.6875 
z
" id="DejaVuSans-Oblique-116"/>
      </defs>
      <use transform="translate(0 0.015625)" xlink:href="#DejaVuSans-84"/>
      <use transform="translate(61.083984 0.015625)" xlink:href="#DejaVuSans-105"/>
      <use transform="translate(88.867188 0.015625)" xlink:href="#DejaVuSans-109"/>
      <use transform="translate(186.279297 0.015625)" xlink:href="#DejaVuSans-101"/>
      <use transform="translate(247.802734 0.015625)" xlink:href="#DejaVuSans-32"/>
      <use transform="translate(279.589844 0.015625)" xlink:href="#DejaVuSans-Oblique-116"/>
     </g>
    </g>
   </g>
   <g id="matplotlib.axis_2">
    <g id="ytick_1">
     <g id="line2d_7">
      <defs>
       <path d="M 0 0 
L -3.5 0 
" id="mb123571aa7" style="stroke:#000000;stroke-width:0.8;"/>
      </defs>
      <g>
       <use style="stroke:#000000;stroke-width:0.8;" x="54" xlink:href="#mb123571aa7" y="242.116364"/>
      </g>
     </g>
     <g id="text_8">
      <!-- 0 -->
      <g transform="translate(39.365 246.675426)scale(0.12 -0.12)">
       <use xlink:href="#DejaVuSans-48"/>
      </g>
     </g>
    </g>
    <g id="ytick_2">
     <g id="line2d_8">
      <g>
       <use style="stroke:#000000;stroke-width:0.8;" x="54" xlink:href="#mb123571aa7" y="209.122044"/>
      </g>
     </g>
     <g id="text_9">
      <!-- 2 -->
      <g transform="translate(39.365 213.681106)scale(0.12 -0.12)">
       <use xlink:href="#DejaVuSans-50"/>
      </g>
     </g>
    </g>
    <g id="ytick_3">
     <g id="line2d_9">
      <g>
       <use style="stroke:#000000;stroke-width:0.8;" x="54" xlink:href="#mb123571aa7" y="176.127724"/>
      </g>
     </g>
     <g id="text_10">
      <!-- 4 -->
      <g transform="translate(39.365 180.686786)scale(0.12 -0.12)">
       <use xlink:href="#DejaVuSans-52"/>
      </g>
     </g>
    </g>
    <g id="ytick_4">
     <g id="line2d_10">
      <g>
       <use style="stroke:#000000;stroke-width:0.8;" x="54" xlink:href="#mb123571aa7" y="143.133404"/>
      </g>
     </g>
     <g id="text_11">
      <!-- 6 -->
      <g transform="translate(39.365 147.692467)scale(0.12 -0.12)">
       <use xlink:href="#DejaVuSans-54"/>
      </g>
     </g>
    </g>
    <g id="ytick_5">
     <g id="line2d_11">
      <g>
       <use style="stroke:#000000;stroke-width:0.8;" x="54" xlink:href="#mb123571aa7" y="110.139084"/>
      </g>
     </g>
     <g id="text_12">
      <!-- 8 -->
      <g transform="translate(39.365 114.698147)scale(0.12 -0.12)">
       <use xlink:href="#DejaVuSans-56"/>
      </g>
     </g>
    </g>
    <g id="ytick_6">
     <g id="line2d_12">
      <g>
       <use style="stroke:#000000;stroke-width:0.8;" x="54" xlink:href="#mb123571aa7" y="77.144764"/>
      </g>
     </g>
     <g id="text_13">
      <!-- 10 -->
      <g transform="translate(31.73 81.703827)scale(0.12 -0.12)">
       <defs>
        <path d="M 12.40625 8.296875 
L 28.515625 8.296875 
L 28.515625 63.921875 
L 10.984375 60.40625 
L 10.984375 69.390625 
L 28.421875 72.90625 
L 38.28125 72.90625 
L 38.28125 8.296875 
L 54.390625 8.296875 
L 54.390625 0 
L 12.40625 0 
z
" id="DejaVuSans-49"/>
       </defs>
       <use xlink:href="#DejaVuSans-49"/>
       <use x="63.623047" xlink:href="#DejaVuSans-48"/>
      </g>
     </g>
    </g>
    <g id="ytick_7">
     <g id="line2d_13">
      <g>
       <use style="stroke:#000000;stroke-width:0.8;" x="54" xlink:href="#mb123571aa7" y="44.150445"/>
      </g>
     </g>
     <g id="text_14">
      <!-- 12 -->
      <g transform="translate(31.73 48.709507)scale(0.12 -0.12)">
       <use xlink:href="#DejaVuSans-49"/>
       <use x="63.623047" xlink:href="#DejaVuSans-50"/>
      </g>
     </g>
    </g>
    <g id="text_15">
     <!-- Power $p$ -->
     <g transform="translate(25.63 163.38)rotate(-90)scale(0.1 -0.1)">
      <defs>
       <path d="M 19.671875 64.796875 
L 19.671875 37.40625 
L 32.078125 37.40625 
Q 38.96875 37.40625 42.71875 40.96875 
Q 46.484375 44.53125 46.484375 51.125 
Q 46.484375 57.671875 42.71875 61.234375 
Q 38.96875 64.796875 32.078125 64.796875 
z
M 9.8125 72.90625 
L 32.078125 72.90625 
Q 44.34375 72.90625 50.609375 67.359375 
Q 56.890625 61.8125 56.890625 51.125 
Q 56.890625 40.328125 50.609375 34.8125 
Q 44.34375 29.296875 32.078125 29.296875 
L 19.671875 29.296875 
L 19.671875 0 
L 9.8125 0 
z
" id="DejaVuSans-80"/>
       <path d="M 30.609375 48.390625 
Q 23.390625 48.390625 19.1875 42.75 
Q 14.984375 37.109375 14.984375 27.296875 
Q 14.984375 17.484375 19.15625 11.84375 
Q 23.34375 6.203125 30.609375 6.203125 
Q 37.796875 6.203125 41.984375 11.859375 
Q 46.1875 17.53125 46.1875 27.296875 
Q 46.1875 37.015625 41.984375 42.703125 
Q 37.796875 48.390625 30.609375 48.390625 
z
M 30.609375 56 
Q 42.328125 56 49.015625 48.375 
Q 55.71875 40.765625 55.71875 27.296875 
Q 55.71875 13.875 49.015625 6.21875 
Q 42.328125 -1.421875 30.609375 -1.421875 
Q 18.84375 -1.421875 12.171875 6.21875 
Q 5.515625 13.875 5.515625 27.296875 
Q 5.515625 40.765625 12.171875 48.375 
Q 18.84375 56 30.609375 56 
z
" id="DejaVuSans-111"/>
       <path d="M 4.203125 54.6875 
L 13.1875 54.6875 
L 24.421875 12.015625 
L 35.59375 54.6875 
L 46.1875 54.6875 
L 57.421875 12.015625 
L 68.609375 54.6875 
L 77.59375 54.6875 
L 63.28125 0 
L 52.6875 0 
L 40.921875 44.828125 
L 29.109375 0 
L 18.5 0 
z
" id="DejaVuSans-119"/>
       <path d="M 41.109375 46.296875 
Q 39.59375 47.171875 37.8125 47.578125 
Q 36.03125 48 33.890625 48 
Q 26.265625 48 22.1875 43.046875 
Q 18.109375 38.09375 18.109375 28.8125 
L 18.109375 0 
L 9.078125 0 
L 9.078125 54.6875 
L 18.109375 54.6875 
L 18.109375 46.1875 
Q 20.953125 51.171875 25.484375 53.578125 
Q 30.03125 56 36.53125 56 
Q 37.453125 56 38.578125 55.875 
Q 39.703125 55.765625 41.0625 55.515625 
z
" id="DejaVuSans-114"/>
       <path d="M 49.609375 33.6875 
Q 49.609375 40.875 46.484375 44.671875 
Q 43.359375 48.484375 37.5 48.484375 
Q 33.5 48.484375 29.859375 46.4375 
Q 26.21875 44.390625 23.390625 40.484375 
Q 20.609375 36.625 18.9375 31.15625 
Q 17.28125 25.6875 17.28125 20.3125 
Q 17.28125 13.484375 20.40625 9.796875 
Q 23.53125 6.109375 29.296875 6.109375 
Q 33.546875 6.109375 37.1875 8.109375 
Q 40.828125 10.109375 43.40625 13.921875 
Q 46.1875 17.921875 47.890625 23.34375 
Q 49.609375 28.765625 49.609375 33.6875 
z
M 21.78125 46.390625 
Q 25.390625 51.125 30.296875 53.5625 
Q 35.203125 56 41.21875 56 
Q 49.609375 56 54.25 50.5 
Q 58.890625 45.015625 58.890625 35.109375 
Q 58.890625 27 56 19.65625 
Q 53.125 12.3125 47.703125 6.5 
Q 44.09375 2.640625 39.546875 0.609375 
Q 35.015625 -1.421875 29.984375 -1.421875 
Q 24.171875 -1.421875 20.21875 1 
Q 16.265625 3.421875 14.3125 8.203125 
L 8.6875 -20.796875 
L -0.296875 -20.796875 
L 14.40625 54.6875 
L 23.390625 54.6875 
z
" id="DejaVuSans-Oblique-112"/>
      </defs>
      <use transform="translate(0 0.09375)" xlink:href="#DejaVuSans-80"/>
      <use transform="translate(60.302734 0.09375)" xlink:href="#DejaVuSans-111"/>
      <use transform="translate(121.484375 0.09375)" xlink:href="#DejaVuSans-119"/>
      <use transform="translate(203.271484 0.09375)" xlink:href="#DejaVuSans-101"/>
      <use transform="translate(264.794922 0.09375)" xlink:href="#DejaVuSans-114"/>
      <use transform="translate(305.908203 0.09375)" xlink:href="#DejaVuSans-32"/>
      <use transform="translate(337.695312 0.09375)" xlink:href="#DejaVuSans-Oblique-112"/>
     </g>
    </g>
   </g>
   <g id="line2d_14">
    <path clip-path="url(#p2f1bc5cf15)" d="M 69.218182 242.116364 
L 76.225553 242.000927 
L 82.014251 241.6724 
L 89.630958 241.009332 
L 92.677641 240.595588 
L 106.083047 238.533577 
L 110.95774 237.863286 
L 117.965111 236.989593 
L 120.402457 236.390444 
L 122.535135 236.118895 
L 124.058477 235.940014 
L 132.589189 233.894052 
L 134.721867 233.740512 
L 136.549877 233.845259 
L 138.377887 234.194478 
L 140.205897 234.787797 
L 142.338575 235.750795 
L 145.08059 237.279368 
L 146.299263 237.933589 
L 148.736609 237.326564 
L 150.869287 236.536028 
L 152.697297 236.111412 
L 154.220639 235.967523 
L 155.74398 236.021425 
L 157.57199 236.330975 
L 159.704668 236.966215 
L 162.142015 237.859201 
L 164.884029 237.303861 
L 167.016708 237.089541 
L 169.149386 237.104346 
L 171.282064 237.338826 
L 174.024079 237.882356 
L 181.03145 239.437831 
L 182.250123 239.365486 
L 184.992138 239.266345 
L 187.734152 239.379279 
L 191.085504 239.753593 
L 196.264865 240.37925 
L 201.139558 240.964452 
L 207.537592 241.705089 
L 211.193612 241.905192 
L 218.200983 242.097973 
L 225.81769 242.076863 
L 231.606388 241.844165 
L 238.613759 241.31337 
L 243.79312 240.754364 
L 248.972482 240.084727 
L 250.800491 239.819547 
L 263.291892 237.845887 
L 269.994595 237.034955 
L 272.431941 236.419741 
L 274.564619 236.129211 
L 276.087961 235.977637 
L 284.923342 233.874498 
L 286.751351 233.742218 
L 288.579361 233.827375 
L 290.407371 234.155872 
L 292.235381 234.729517 
L 294.368059 235.673849 
L 297.110074 237.189592 
L 298.328747 237.912737 
L 299.242752 237.779607 
L 300.766093 237.39277 
L 302.898771 236.58285 
L 304.726781 236.136599 
L 306.250123 235.972977 
L 307.773464 236.007312 
L 309.601474 236.295896 
L 311.429484 236.810285 
L 314.476167 237.822197 
L 317.218182 237.281417 
L 319.35086 237.082869 
L 321.483538 237.114178 
L 323.616216 237.362911 
L 326.358231 237.917736 
L 333.365602 239.457391 
L 336.412285 239.272571 
L 339.1543 239.32759 
L 342.200983 239.612905 
L 359.262408 241.664986 
L 362.918428 241.885028 
L 369.925799 242.092024 
L 373.581818 242.116364 
L 373.581818 242.116364 
" style="fill:none;stroke:#172c4b;stroke-linecap:square;stroke-opacity:0.9;"/>
   </g>
   <g id="line2d_15">
    <path clip-path="url(#p2f1bc5cf15)" d="M 69.218182 242.116364 
L 74.397543 241.998659 
L 78.358231 241.683376 
L 83.84226 240.989737 
L 87.802948 240.346127 
L 92.068305 239.274567 
L 100.599017 236.819311 
L 105.778378 235.168248 
L 106.692383 234.854788 
L 111.871744 232.673093 
L 118.269779 229.725465 
L 125.27715 226.52017 
L 128.019165 225.522197 
L 130.151843 224.975834 
L 131.979853 224.728486 
L 133.807862 224.729942 
L 135.331204 224.945286 
L 136.854545 225.176866 
L 138.073219 225.426801 
L 139.291892 225.962777 
L 140.510565 226.777238 
L 141.729238 227.846815 
L 143.557248 229.522105 
L 147.213268 232.572404 
L 149.041278 233.286071 
L 152.087961 231.313119 
L 153.611302 230.690164 
L 154.829975 230.412666 
L 156.048649 230.343709 
L 157.267322 230.484839 
L 158.485995 230.827853 
L 160.009337 231.512513 
L 161.837346 232.636148 
L 163.970025 234.197233 
L 165.493366 232.936864 
L 166.712039 232.149951 
L 167.930713 231.603397 
L 169.149386 231.324294 
L 170.368059 231.325334 
L 171.586732 231.60348 
L 172.805405 232.139611 
L 174.328747 233.119074 
L 176.156757 234.620433 
L 176.766093 235.168437 
L 184.382801 236.291977 
L 191.390172 237.663804 
L 207.84226 240.912398 
L 212.412285 241.608227 
L 216.068305 241.957162 
L 220.028993 242.107862 
L 225.208354 242.05851 
L 229.169042 241.815842 
L 233.739066 241.300948 
L 239.527764 240.439617 
L 242.269779 239.799086 
L 247.753808 238.284602 
L 254.456511 236.268026 
L 257.198526 235.363345 
L 259.026536 234.794057 
L 264.205897 232.60569 
L 270.9086 229.508631 
L 277.306634 226.582672 
L 280.048649 225.570044 
L 282.181327 225.006394 
L 284.009337 224.740131 
L 285.837346 224.719433 
L 287.360688 224.914553 
L 289.188698 225.19259 
L 290.407371 225.478158 
L 291.626044 226.049683 
L 292.844717 226.897633 
L 294.063391 227.996689 
L 295.586732 229.394653 
L 298.633415 232.08546 
L 299.242752 232.516905 
L 301.37543 233.196166 
L 303.20344 231.912771 
L 304.726781 231.095796 
L 306.250123 230.562156 
L 307.468796 230.362076 
L 308.687469 230.372239 
L 309.906143 230.590564 
L 311.124816 231.005187 
L 312.648157 231.766327 
L 314.476167 232.9556 
L 315.999509 234.089473 
L 316.304177 234.059775 
L 317.827518 232.826599 
L 319.046192 232.067803 
L 320.264865 231.553478 
L 321.483538 231.309011 
L 322.702211 231.345186 
L 323.920885 231.656952 
L 325.139558 232.223212 
L 326.662899 233.232783 
L 328.490909 234.755985 
L 329.100246 235.191567 
L 333.974939 235.853792 
L 339.458968 236.83683 
L 363.832432 241.509984 
L 367.79312 241.925061 
L 371.753808 242.100864 
L 373.581818 242.116364 
L 373.581818 242.116364 
" style="fill:none;stroke:#172c4b;stroke-linecap:square;stroke-opacity:0.8;"/>
   </g>
   <g id="line2d_16">
    <path clip-path="url(#p2f1bc5cf15)" d="M 69.218182 242.116364 
L 73.788206 242.001924 
L 77.748894 241.669548 
L 81.100246 241.133767 
L 84.451597 240.35144 
L 87.802948 239.339975 
L 91.763636 237.911593 
L 96.942998 235.795621 
L 101.81769 233.590892 
L 109.739066 229.319475 
L 112.785749 227.846265 
L 113.395086 227.379698 
L 117.965111 223.312139 
L 119.79312 221.983079 
L 120.402457 221.482895 
L 124.363145 217.72561 
L 126.495823 215.97708 
L 128.019165 214.792519 
L 130.456511 212.139856 
L 131.979853 210.794633 
L 133.198526 209.990703 
L 134.417199 209.493239 
L 135.331204 209.352955 
L 136.245209 209.432508 
L 137.159214 209.745314 
L 138.073219 210.299452 
L 138.987224 211.097016 
L 140.205897 212.530663 
L 141.42457 214.360104 
L 142.947912 217.127556 
L 144.775921 220.972046 
L 146.603931 224.952241 
L 147.213268 225.831982 
L 147.517936 225.953782 
L 149.345946 225.886409 
L 152.087961 222.602965 
L 153.306634 221.661045 
L 154.220639 221.222621 
L 155.134644 221.031434 
L 156.048649 221.096161 
L 156.962654 221.418072 
L 157.876658 221.990537 
L 158.790663 222.798904 
L 160.009337 224.204005 
L 161.532678 226.38199 
L 163.970025 230.196402 
L 164.579361 230.656306 
L 164.884029 230.593033 
L 166.102703 229.595883 
L 167.321376 228.897953 
L 168.235381 228.595507 
L 169.149386 228.493893 
L 170.063391 228.596077 
L 170.977396 228.89785 
L 172.500737 229.629104 
L 173.71941 229.535817 
L 174.938084 229.67777 
L 176.156757 230.055431 
L 177.37543 230.658003 
L 178.898771 231.692576 
L 180.726781 233.255787 
L 181.03145 233.540854 
L 185.906143 234.577774 
L 213.32629 241.455133 
L 216.372973 241.881913 
L 219.419656 242.085008 
L 223.380344 242.09496 
L 227.341032 241.9135 
L 230.692383 241.569059 
L 234.043735 240.977541 
L 237.395086 240.140397 
L 241.051106 238.97695 
L 245.316462 237.373516 
L 251.10516 234.935974 
L 254.456511 233.338016 
L 261.76855 229.389841 
L 265.119902 227.770001 
L 266.643243 226.398617 
L 269.994595 223.434896 
L 271.822604 222.082215 
L 272.431941 221.632559 
L 276.697297 217.591676 
L 278.829975 215.864233 
L 280.048649 214.969771 
L 282.485995 212.290929 
L 284.009337 210.913771 
L 285.22801 210.075597 
L 286.446683 209.536791 
L 287.360688 209.361503 
L 288.274693 209.403351 
L 289.188698 209.676567 
L 290.102703 210.19017 
L 291.016708 210.947286 
L 292.235381 212.329028 
L 293.454054 214.111258 
L 294.977396 216.829977 
L 296.805405 220.636085 
L 298.938084 225.171595 
L 299.54742 225.970474 
L 301.680098 225.721754 
L 303.20344 223.725028 
L 304.422113 222.464313 
L 305.336118 221.757167 
L 306.250123 221.278858 
L 307.164128 221.045673 
L 308.078133 221.067451 
L 308.992138 221.346742 
L 309.906143 221.87825 
L 310.820147 222.648652 
L 312.038821 224.009919 
L 313.562162 226.147432 
L 316.304177 230.310457 
L 316.913514 230.736076 
L 318.132187 229.70517 
L 319.35086 228.967296 
L 320.264865 228.63215 
L 321.17887 228.496669 
L 322.092875 228.564982 
L 323.00688 228.834092 
L 323.920885 229.293729 
L 324.530221 229.65687 
L 325.748894 229.53474 
L 326.967568 229.647039 
L 328.186241 229.995591 
L 329.404914 230.571034 
L 330.928256 231.576616 
L 332.756265 233.115363 
L 333.365602 233.574438 
L 336.716953 234.244082 
L 346.161671 236.568704 
L 359.567076 240.126344 
L 364.441769 241.255767 
L 367.79312 241.796398 
L 370.839803 242.053845 
L 373.581818 242.116364 
L 373.581818 242.116364 
" style="fill:none;stroke:#172c4b;stroke-linecap:square;stroke-opacity:0.7;"/>
   </g>
   <g id="line2d_17">
    <path clip-path="url(#p2f1bc5cf15)" d="M 69.218182 242.116364 
L 73.17887 241.994824 
L 75.920885 241.707186 
L 78.662899 241.185979 
L 81.404914 240.420132 
L 84.451597 239.330708 
L 90.849631 236.783038 
L 93.591646 236.007877 
L 102.427027 230.796034 
L 103.341032 230.097394 
L 105.169042 228.50052 
L 107.911057 226.302331 
L 111.262408 223.157261 
L 114.004423 220.29214 
L 116.746437 217.083028 
L 119.183784 213.895928 
L 121.925799 209.950447 
L 128.93317 199.625042 
L 130.456511 197.597435 
L 131.979853 195.260201 
L 133.198526 193.77912 
L 134.112531 192.961575 
L 135.026536 192.439552 
L 135.940541 192.247909 
L 136.549877 192.318083 
L 137.159214 192.55447 
L 137.76855 192.96185 
L 138.682555 193.899196 
L 139.59656 195.227996 
L 140.510565 196.937983 
L 141.729238 199.772144 
L 142.947912 203.163639 
L 144.775921 209.046082 
L 146.299263 213.944176 
L 149.345946 222.26698 
L 149.955283 221.366671 
L 151.173956 219.47034 
L 152.087961 218.3708 
L 153.001966 217.637472 
L 153.611302 217.372074 
L 154.220639 217.295582 
L 154.829975 217.413047 
L 155.439312 217.725891 
L 156.048649 218.231652 
L 156.353317 218.555005 
L 157.267322 218.758088 
L 158.181327 219.224335 
L 159.095332 219.967244 
L 160.009337 220.968245 
L 161.22801 222.655297 
L 162.751351 225.203533 
L 164.274693 227.926827 
L 164.884029 227.076115 
L 166.102703 225.36206 
L 167.321376 224.017006 
L 168.235381 223.294483 
L 169.149386 222.843737 
L 170.063391 222.679994 
L 170.977396 222.809097 
L 171.8914 223.226468 
L 172.805405 223.916626 
L 174.024079 225.214511 
L 175.242752 226.861534 
L 176.766093 229.204667 
L 177.984767 229.284055 
L 179.20344 229.552943 
L 180.422113 229.947531 
L 181.640786 229.587839 
L 182.859459 229.483286 
L 184.078133 229.643495 
L 185.296806 230.0648 
L 186.515479 230.729285 
L 188.038821 231.852148 
L 190.171499 233.635666 
L 194.132187 234.582342 
L 198.397543 235.838503 
L 202.662899 237.335423 
L 212.107617 240.784304 
L 214.849631 241.484121 
L 217.286978 241.886543 
L 220.028993 242.09322 
L 223.075676 242.090281 
L 226.731695 241.878532 
L 229.47371 241.477416 
L 232.215725 240.832554 
L 234.95774 239.955235 
L 237.699754 238.873508 
L 241.965111 237.10585 
L 243.79312 236.606244 
L 245.316462 236.218954 
L 246.230467 235.743421 
L 255.065848 230.467851 
L 256.284521 229.392258 
L 257.807862 228.161484 
L 259.026536 227.237174 
L 262.377887 224.195331 
L 265.42457 221.119224 
L 268.166585 218.013041 
L 270.603931 214.926505 
L 273.345946 211.079362 
L 277.611302 204.605382 
L 280.353317 200.622614 
L 283.4 196.37226 
L 284.618673 194.657771 
L 285.837346 193.335787 
L 286.751351 192.661315 
L 287.665356 192.300483 
L 288.274693 192.2502 
L 288.884029 192.361379 
L 289.493366 192.640139 
L 290.407371 193.381387 
L 291.321376 194.515042 
L 292.235381 196.036424 
L 293.454054 198.638965 
L 294.672727 201.832974 
L 296.196069 206.501649 
L 298.938084 215.200501 
L 301.37543 221.8621 
L 301.680098 222.179346 
L 302.898771 220.142111 
L 303.812776 218.877718 
L 304.726781 217.9556 
L 305.640786 217.420985 
L 306.250123 217.29666 
L 306.859459 217.365355 
L 307.468796 217.62943 
L 308.078133 218.087411 
L 308.687469 218.587655 
L 309.601474 218.816083 
L 310.515479 219.329324 
L 311.429484 220.116794 
L 312.648157 221.557204 
L 313.86683 223.376118 
L 315.69484 226.600721 
L 316.304177 227.751619 
L 316.608845 227.757037 
L 318.741523 224.810175 
L 319.960197 223.623054 
L 320.874201 223.033981 
L 321.788206 222.725391 
L 322.702211 222.707973 
L 323.616216 222.98246 
L 324.530221 223.538841 
L 325.444226 224.356219 
L 326.662899 225.796796 
L 328.186241 228.019502 
L 328.795577 228.992857 
L 329.100246 229.203917 
L 330.318919 229.307522 
L 331.537592 229.599268 
L 332.756265 229.889238 
L 333.974939 229.560501 
L 335.193612 229.488774 
L 336.412285 229.682108 
L 337.630958 230.135086 
L 338.849631 230.828001 
L 340.372973 231.979365 
L 342.505651 233.668153 
L 346.466339 234.622944 
L 350.427027 235.789342 
L 354.692383 237.278432 
L 364.441769 240.829204 
L 367.183784 241.515649 
L 369.62113 241.904465 
L 372.363145 242.098097 
L 373.581818 242.116364 
L 373.581818 242.116364 
" style="fill:none;stroke:#172c4b;stroke-linecap:square;stroke-opacity:0.6;"/>
   </g>
   <g id="line2d_18">
    <path clip-path="url(#p2f1bc5cf15)" d="M 69.218182 242.116364 
L 72.264865 241.999386 
L 74.397543 241.755089 
L 76.834889 241.245591 
L 79.576904 240.453829 
L 81.709582 239.6764 
L 86.584275 237.461621 
L 88.716953 236.427138 
L 92.068305 233.97003 
L 95.114988 231.723161 
L 97.247666 230.359159 
L 99.075676 229.467305 
L 100.903686 228.741578 
L 102.122359 227.801989 
L 105.169042 224.393958 
L 107.911057 220.982299 
L 111.567076 215.636083 
L 115.832432 208.992228 
L 119.488452 202.90314 
L 123.144472 196.362072 
L 128.323833 187.021289 
L 130.151843 184.203843 
L 131.675184 182.297219 
L 132.893857 181.162372 
L 133.503194 180.519537 
L 134.417199 179.564638 
L 135.331204 178.959989 
L 135.940541 178.771639 
L 136.549877 178.767092 
L 137.159214 178.954667 
L 137.76855 179.340671 
L 138.377887 179.929196 
L 139.291892 181.194776 
L 140.205897 182.914424 
L 141.119902 185.070137 
L 142.338575 188.56731 
L 143.861916 193.783109 
L 145.08059 198.014632 
L 148.431941 208.902453 
L 149.345946 209.131182 
L 150.259951 209.556881 
L 151.173956 210.208321 
L 152.087961 211.105722 
L 152.697297 211.846211 
L 153.001966 211.941117 
L 153.915971 211.73469 
L 154.829975 211.756731 
L 155.74398 212.01063 
L 156.657985 212.492684 
L 157.57199 213.192125 
L 158.790663 214.431762 
L 160.314005 216.390778 
L 162.142015 219.149948 
L 164.274693 222.480742 
L 165.493366 220.252062 
L 166.407371 218.930602 
L 167.321376 217.968304 
L 168.235381 217.408797 
L 168.844717 217.275393 
L 169.454054 217.340186 
L 170.063391 217.604671 
L 170.672727 218.066375 
L 171.586732 219.113081 
L 172.196069 220.029752 
L 174.024079 220.417925 
L 174.938084 220.939316 
L 175.54742 221.409577 
L 177.680098 221.565716 
L 178.594103 221.922063 
L 179.812776 222.676773 
L 181.03145 223.722482 
L 182.554791 225.371272 
L 184.382801 227.706043 
L 185.601474 229.264011 
L 186.820147 230.303995 
L 188.648157 231.957138 
L 191.69484 232.591659 
L 193.827518 233.009636 
L 197.17887 233.814217 
L 200.225553 234.780279 
L 203.272236 235.993323 
L 206.928256 237.715758 
L 212.107617 240.180066 
L 214.544963 241.090648 
L 216.677641 241.658638 
L 218.810319 241.992732 
L 220.942998 242.113066 
L 223.685012 242.044557 
L 226.427027 241.779601 
L 228.864373 241.282944 
L 231.606388 240.501565 
L 233.739066 239.74099 
L 238.004423 237.807574 
L 241.051106 236.321532 
L 244.402457 233.850537 
L 247.44914 231.617373 
L 249.581818 230.273461 
L 251.10516 229.529243 
L 253.237838 228.628495 
L 254.456511 227.638516 
L 257.503194 224.213364 
L 259.940541 221.196106 
L 263.59656 215.865822 
L 267.861916 209.237004 
L 271.517936 203.165931 
L 275.173956 196.642047 
L 280.657985 186.769715 
L 282.485995 183.992401 
L 283.704668 182.46539 
L 284.923342 181.282465 
L 285.532678 180.709579 
L 286.446683 179.700646 
L 287.360688 179.034649 
L 287.970025 178.801861 
L 288.579361 178.75051 
L 289.188698 178.889381 
L 289.798034 179.225304 
L 290.407371 179.762942 
L 291.321376 180.95202 
L 292.235381 182.596884 
L 293.149386 184.681729 
L 294.368059 188.094176 
L 295.8914 193.226059 
L 297.414742 198.511801 
L 300.461425 208.827319 
L 302.594103 209.649119 
L 303.508108 210.340399 
L 304.422113 211.280086 
L 305.03145 211.997113 
L 305.945455 211.753422 
L 306.859459 211.736961 
L 307.773464 211.952281 
L 308.687469 212.396869 
L 309.601474 213.061118 
L 310.820147 214.25922 
L 312.038821 215.762453 
L 313.86683 218.432024 
L 316.304177 222.336746 
L 316.608845 222.177051 
L 317.827518 220.009027 
L 318.741523 218.743966 
L 319.655528 217.84607 
L 320.264865 217.472586 
L 320.874201 217.290306 
L 321.483538 217.305259 
L 322.092875 217.519894 
L 322.702211 217.93275 
L 323.616216 218.910353 
L 324.530221 220.091186 
L 325.444226 220.164937 
L 326.358231 220.48873 
L 327.272236 221.048063 
L 327.881572 221.442163 
L 328.795577 221.38808 
L 329.709582 221.524498 
L 330.623587 221.849849 
L 331.84226 222.565763 
L 333.060934 223.57723 
L 334.584275 225.191953 
L 336.412285 227.501303 
L 337.935627 229.378255 
L 339.458968 230.717842 
L 340.677641 231.931088 
L 343.724324 232.555042 
L 346.466339 233.105291 
L 349.81769 233.943863 
L 352.864373 234.946527 
L 355.911057 236.195365 
L 359.871744 238.093627 
L 364.441769 240.243912 
L 366.879115 241.138804 
L 369.011794 241.690235 
L 371.144472 242.00796 
L 373.581818 242.116364 
L 373.581818 242.116364 
" style="fill:none;stroke:#172c4b;stroke-linecap:square;stroke-opacity:0.5;"/>
   </g>
   <g id="line2d_19">
    <path clip-path="url(#p2f1bc5cf15)" d="M 69.218182 242.116364 
L 71.655528 241.992471 
L 74.702211 241.62608 
L 76.834889 241.058526 
L 83.232924 238.931394 
L 85.67027 237.535877 
L 88.412285 235.704073 
L 89.935627 234.512524 
L 92.98231 231.679577 
L 100.294349 224.475286 
L 101.513022 222.953325 
L 103.341032 220.141554 
L 110.95774 206.781382 
L 113.090418 203.123046 
L 114.918428 198.735612 
L 116.137101 196.284491 
L 117.051106 194.818377 
L 117.965111 193.751252 
L 119.79312 188.597362 
L 122.230467 181.109044 
L 129.847174 157.064363 
L 132.893857 149.240105 
L 133.807862 147.555421 
L 134.721867 146.374593 
L 135.331204 145.896656 
L 135.940541 145.684192 
L 136.549877 145.75027 
L 137.159214 146.105467 
L 137.76855 146.757584 
L 138.377887 147.711386 
L 139.291892 149.710169 
L 140.205897 152.381151 
L 141.119902 155.697434 
L 142.338575 161.043863 
L 143.861916 168.993706 
L 149.041278 197.767729 
L 149.345946 198.176114 
L 150.564619 195.53657 
L 150.869287 195.000061 
L 153.306634 187.509129 
L 154.220639 185.558075 
L 155.134644 184.224421 
L 155.74398 183.70693 
L 156.353317 183.501532 
L 156.962654 183.616219 
L 157.57199 184.054372 
L 158.181327 184.814498 
L 158.790663 185.890085 
L 159.704668 188.068373 
L 160.618673 190.870069 
L 161.837346 195.431685 
L 163.360688 201.839605 
L 164.274693 202.320308 
L 165.188698 203.098788 
L 166.102703 204.175518 
L 167.321376 206.061222 
L 168.540049 208.423246 
L 170.063391 211.944626 
L 170.977396 214.126896 
L 171.8914 215.371555 
L 172.805405 217.042085 
L 174.938084 221.335232 
L 176.461425 223.983477 
L 177.984767 226.590879 
L 178.898771 227.672156 
L 179.20344 227.854661 
L 180.726781 226.68118 
L 181.640786 226.238494 
L 182.554791 226.030835 
L 183.468796 226.072259 
L 184.382801 226.367077 
L 185.296806 226.908549 
L 186.210811 227.580879 
L 188.038821 227.983194 
L 189.86683 228.591333 
L 191.999509 229.544349 
L 194.436855 230.905374 
L 196.264865 231.961758 
L 198.702211 232.570806 
L 202.662899 233.884165 
L 204.795577 234.872228 
L 207.232924 236.243712 
L 214.544963 240.579842 
L 216.372973 241.320398 
L 218.200983 241.816497 
L 220.028993 242.068068 
L 222.161671 242.101179 
L 224.903686 241.890716 
L 227.036364 241.5928 
L 229.169042 241.010581 
L 235.567076 238.851036 
L 238.004423 237.441172 
L 240.746437 235.594498 
L 242.269779 234.377975 
L 245.316462 231.532043 
L 252.628501 224.301994 
L 253.542506 223.175589 
L 255.675184 219.878426 
L 258.112531 215.591548 
L 259.940541 212.458126 
L 263.59656 206.027547 
L 265.119902 203.512306 
L 266.947912 199.074189 
L 268.166585 196.562647 
L 269.08059 195.036908 
L 270.299263 193.35724 
L 272.736609 186.32414 
L 275.478624 177.666462 
L 280.962654 160.043768 
L 282.485995 155.881207 
L 283.4 153.417935 
L 284.618673 150.251173 
L 285.532678 148.33874 
L 286.446683 146.898168 
L 287.05602 146.23102 
L 287.665356 145.818102 
L 288.274693 145.67414 
L 288.884029 145.81161 
L 289.493366 146.24042 
L 290.102703 146.967635 
L 290.712039 147.997228 
L 291.626044 150.109159 
L 292.540049 152.890037 
L 293.454054 156.310019 
L 294.672727 161.780199 
L 296.196069 169.853133 
L 300.766093 195.767591 
L 301.37543 198.43285 
L 303.20344 194.597733 
L 304.422113 190.470224 
L 305.640786 187.143947 
L 306.554791 185.291194 
L 307.164128 184.401213 
L 307.773464 183.807452 
L 308.382801 183.52311 
L 308.992138 183.557272 
L 309.601474 183.914505 
L 310.210811 184.594552 
L 310.820147 185.59216 
L 311.734152 187.66014 
L 312.648157 190.363036 
L 313.86683 194.816754 
L 315.69484 201.899285 
L 316.608845 202.42927 
L 317.52285 203.25763 
L 318.436855 204.383571 
L 319.655528 206.331523 
L 320.874201 208.749018 
L 322.397543 212.325724 
L 323.00688 213.893098 
L 324.225553 215.622037 
L 325.139558 217.357288 
L 326.967568 221.095412 
L 328.490909 223.702758 
L 330.014251 226.409647 
L 331.232924 227.851244 
L 331.537592 227.735882 
L 332.756265 226.776361 
L 333.67027 226.29646 
L 334.584275 226.048415 
L 335.49828 226.047744 
L 336.412285 226.300487 
L 337.32629 226.80181 
L 338.544963 227.606451 
L 340.372973 228.026101 
L 342.200983 228.651009 
L 344.333661 229.621604 
L 346.771007 230.998289 
L 348.294349 231.931394 
L 350.731695 232.525646 
L 354.692383 233.822192 
L 356.825061 234.794453 
L 359.262408 236.152014 
L 366.879115 240.650233 
L 368.707125 241.371325 
L 370.535135 241.846534 
L 372.363145 242.078874 
L 373.581818 242.116364 
L 373.581818 242.116364 
" style="fill:none;stroke:#172c4b;stroke-linecap:square;stroke-opacity:0.4;"/>
   </g>
   <g id="line2d_20">
    <path clip-path="url(#p2f1bc5cf15)" d="M 69.218182 242.116364 
L 71.046192 241.997721 
L 73.483538 241.615429 
L 75.00688 241.067886 
L 76.530221 240.263257 
L 78.053563 239.194876 
L 79.881572 237.608848 
L 85.67027 232.252071 
L 86.888943 231.537433 
L 88.107617 231.106704 
L 89.021622 230.989764 
L 89.935627 231.055054 
L 90.544963 231.198349 
L 90.849631 231.075742 
L 96.638329 224.724105 
L 97.857002 223.659067 
L 103.036364 213.628521 
L 104.255037 211.938891 
L 105.169042 211.041254 
L 106.083047 210.526619 
L 106.692383 210.420216 
L 107.911057 208.976153 
L 108.825061 208.198121 
L 109.12973 208.000914 
L 110.653071 204.567102 
L 113.090418 198.580094 
L 115.223096 192.775025 
L 117.355774 186.251855 
L 119.183784 179.945347 
L 121.011794 172.885843 
L 123.144472 163.680569 
L 125.581818 152.09958 
L 130.151843 130.004686 
L 131.675184 123.735563 
L 132.893857 119.589981 
L 133.807862 117.135291 
L 134.721867 115.341667 
L 135.331204 114.553836 
L 135.940541 114.117584 
L 136.549877 114.051418 
L 137.159214 114.370572 
L 137.76855 115.086599 
L 138.377887 116.207014 
L 138.987224 117.734998 
L 139.901229 120.78688 
L 140.815233 124.72711 
L 142.033907 131.275646 
L 143.25258 139.137233 
L 144.775921 150.438239 
L 147.213268 170.53399 
L 149.955283 193.241297 
L 150.259951 192.560325 
L 151.478624 188.96803 
L 152.392629 186.972262 
L 153.001966 186.031731 
L 153.611302 185.433076 
L 154.220639 185.196454 
L 154.829975 185.336186 
L 155.439312 185.860001 
L 156.048649 186.768437 
L 156.657985 188.054457 
L 157.57199 190.657045 
L 158.485995 193.992502 
L 159.704668 199.373643 
L 161.532678 208.70388 
L 163.05602 216.746465 
L 163.360688 217.573219 
L 163.970025 216.502349 
L 165.188698 212.38762 
L 166.712039 207.655736 
L 167.930713 204.575836 
L 168.844717 202.792404 
L 169.758722 201.532809 
L 170.368059 201.010444 
L 170.977396 200.755693 
L 171.586732 200.775908 
L 172.196069 201.073996 
L 172.805405 201.648086 
L 173.414742 202.491333 
L 174.328747 204.233646 
L 175.242752 206.493739 
L 176.461425 210.168922 
L 177.37543 213.290798 
L 178.898771 213.797335 
L 179.812776 214.469687 
L 180.726781 215.438126 
L 181.945455 217.155729 
L 183.164128 219.293952 
L 183.773464 220.400001 
L 185.601474 219.356692 
L 186.820147 218.878045 
L 188.038821 218.633294 
L 188.952826 218.632245 
L 189.86683 218.806829 
L 190.780835 219.169947 
L 191.69484 219.729224 
L 192.913514 220.781469 
L 194.132187 222.168058 
L 195.655528 224.3102 
L 197.483538 227.313653 
L 199.616216 231.054752 
L 200.225553 231.208983 
L 202.053563 231.595265 
L 203.576904 232.125768 
L 205.404914 233.024213 
L 207.232924 234.189727 
L 209.67027 236.052745 
L 214.240295 239.647517 
L 216.068305 240.767644 
L 217.591646 241.451605 
L 219.114988 241.885778 
L 220.638329 242.09005 
L 222.161671 242.092454 
L 224.294349 241.851734 
L 226.122359 241.476586 
L 227.6457 240.854402 
L 229.169042 239.969867 
L 230.692383 238.826255 
L 232.520393 237.173152 
L 237.395086 232.58315 
L 238.613759 231.774554 
L 239.832432 231.232457 
L 240.746437 231.025541 
L 241.660442 230.999671 
L 242.574447 231.155207 
L 242.879115 231.246281 
L 248.667813 224.84856 
L 249.886486 223.957628 
L 255.370516 213.391098 
L 256.589189 211.765084 
L 257.503194 210.927431 
L 258.112531 210.583597 
L 259.026536 210.216194 
L 260.245209 208.827501 
L 261.463882 207.703037 
L 264.205897 201.271934 
L 266.338575 195.755154 
L 268.471253 189.615503 
L 270.299263 183.711237 
L 272.127273 177.098378 
L 273.955283 169.714733 
L 276.087961 160.162978 
L 279.134644 145.311623 
L 282.181327 130.682754 
L 283.704668 124.314078 
L 284.923342 120.057157 
L 285.837346 117.500838 
L 286.751351 115.591113 
L 287.360688 114.718622 
L 287.970025 114.192622 
L 288.579361 114.032371 
L 289.188698 114.253962 
L 289.798034 114.869903 
L 290.407371 115.888749 
L 291.016708 117.314788 
L 291.930713 120.215584 
L 292.844717 124.010475 
L 293.758722 128.65503 
L 294.977396 136.049327 
L 296.500737 146.904916 
L 298.633415 164.110644 
L 301.984767 192.033877 
L 302.289435 193.07238 
L 303.508108 189.363022 
L 304.422113 187.257966 
L 305.03145 186.235716 
L 305.640786 185.549493 
L 306.250123 185.220779 
L 306.859459 185.265428 
L 307.468796 185.692883 
L 308.078133 186.505523 
L 308.687469 187.698229 
L 309.601474 190.169722 
L 310.515479 193.390255 
L 311.734152 198.652667 
L 313.562162 207.896407 
L 315.390172 217.530054 
L 315.69484 217.299215 
L 316.304177 216.106205 
L 318.132187 209.918405 
L 319.35086 206.41585 
L 320.569533 203.622438 
L 321.483538 202.093525 
L 322.092875 201.377686 
L 322.702211 200.921308 
L 323.311548 200.734776 
L 323.920885 200.824369 
L 324.530221 201.191825 
L 325.139558 201.834042 
L 325.748894 202.742922 
L 326.662899 204.576329 
L 327.576904 206.915306 
L 328.795577 210.671253 
L 329.404914 212.754252 
L 329.709582 213.36138 
L 330.623587 213.575436 
L 331.537592 214.095697 
L 332.451597 214.917854 
L 333.365602 216.027817 
L 334.584275 217.912953 
L 335.802948 220.185235 
L 336.107617 220.301644 
L 337.630958 219.430401 
L 338.849631 218.926128 
L 340.068305 218.649399 
L 341.286978 218.64874 
L 342.200983 218.853979 
L 343.114988 219.249418 
L 344.028993 219.841704 
L 345.247666 220.937087 
L 346.466339 222.363199 
L 347.989681 224.545424 
L 350.122359 228.108516 
L 351.950369 231.15148 
L 353.778378 231.474041 
L 355.30172 231.945831 
L 356.825061 232.615491 
L 358.653071 233.674441 
L 360.785749 235.205591 
L 367.488452 240.336777 
L 369.011794 241.14136 
L 370.535135 241.698649 
L 372.058477 242.014982 
L 373.581818 242.116364 
L 373.581818 242.116364 
" style="fill:none;stroke:#172c4b;stroke-linecap:square;stroke-opacity:0.3;"/>
   </g>
   <g id="line2d_21">
    <path clip-path="url(#p2f1bc5cf15)" d="M 69.218182 242.116364 
L 70.741523 241.992784 
L 72.569533 241.595037 
L 76.834889 240.382686 
L 79.272236 239.075755 
L 83.537592 236.708305 
L 84.756265 236.069593 
L 86.584275 234.426522 
L 90.849631 230.038867 
L 93.591646 227.382181 
L 95.419656 225.891893 
L 96.028993 225.467149 
L 96.638329 224.377798 
L 98.466339 220.216666 
L 100.599017 214.670794 
L 106.387715 198.94697 
L 107.606388 196.38898 
L 107.911057 195.836032 
L 110.043735 189.615567 
L 111.262408 186.842513 
L 112.176413 185.295419 
L 112.785749 184.55639 
L 113.395086 184.071527 
L 114.004423 183.854838 
L 114.918428 182.412516 
L 115.832432 181.367101 
L 116.441769 180.909173 
L 117.051106 180.647437 
L 117.355774 179.892028 
L 118.879115 174.30394 
L 120.402457 167.943459 
L 121.925799 160.70257 
L 123.753808 150.791666 
L 125.581818 139.638718 
L 128.323833 121.354015 
L 131.065848 103.265305 
L 132.589189 94.523804 
L 133.807862 88.786888 
L 134.721867 85.448772 
L 135.635872 83.092757 
L 136.245209 82.129531 
L 136.854545 81.689621 
L 137.159214 81.674365 
L 137.463882 81.799376 
L 138.073219 82.479284 
L 138.682555 83.743318 
L 139.291892 85.598397 
L 139.901229 88.043974 
L 140.815233 92.799264 
L 141.729238 98.801777 
L 142.947912 108.567919 
L 144.471253 123.122525 
L 146.603931 146.324267 
L 148.431941 166.992833 
L 149.041278 170.04067 
L 151.173956 179.281689 
L 152.087961 183.531192 
L 152.392629 183.628484 
L 153.306634 181.474775 
L 153.915971 180.476641 
L 154.525307 179.861334 
L 155.134644 179.650386 
L 155.439312 179.701411 
L 156.048649 179.38868 
L 156.962654 178.739327 
L 158.181327 175.554372 
L 159.095332 173.665694 
L 160.009337 172.280826 
L 160.618673 171.667483 
L 161.22801 171.320177 
L 161.837346 171.251624 
L 162.446683 171.471612 
L 163.05602 171.986643 
L 163.665356 172.799641 
L 164.274693 173.90972 
L 165.188698 176.120147 
L 166.102703 178.953757 
L 166.407371 180.028104 
L 167.016708 181.150796 
L 167.930713 182.880206 
L 168.844717 185.126205 
L 170.063391 188.855419 
L 171.586732 194.503905 
L 173.414742 202.270144 
L 174.328747 206.356849 
L 175.242752 208.348868 
L 175.54742 208.727285 
L 176.461425 209.21769 
L 177.37543 210.053532 
L 178.289435 211.207413 
L 179.508108 213.174461 
L 181.03145 216.162536 
L 181.945455 217.873499 
L 183.773464 220.482408 
L 186.515479 224.921339 
L 186.820147 224.89703 
L 188.648157 224.163476 
L 190.171499 223.804286 
L 191.390172 223.733592 
L 192.608845 223.887464 
L 193.827518 224.284684 
L 195.046192 224.930876 
L 196.264865 225.81671 
L 197.788206 227.222141 
L 199.616216 229.239201 
L 199.920885 229.599147 
L 200.225553 229.740046 
L 201.748894 229.607307 
L 202.967568 229.69522 
L 204.186241 229.978908 
L 205.404914 230.470767 
L 206.623587 231.171816 
L 208.146929 232.322164 
L 209.974939 234.027185 
L 216.068305 240.062953 
L 217.591646 241.081932 
L 218.810319 241.649213 
L 220.028993 241.989063 
L 221.247666 242.114464 
L 222.771007 242.015516 
L 224.599017 241.634776 
L 228.864373 240.454842 
L 230.997052 239.33791 
L 235.871744 236.639289 
L 236.785749 236.19488 
L 238.613759 234.576586 
L 242.574447 230.509351 
L 245.62113 227.518795 
L 247.44914 226.00424 
L 248.363145 225.320863 
L 249.886486 222.024281 
L 251.714496 217.524027 
L 254.151843 210.839186 
L 257.807862 200.779536 
L 259.331204 197.286904 
L 260.245209 195.401863 
L 261.76855 190.831248 
L 262.987224 187.795097 
L 263.901229 186.006332 
L 264.815233 184.717937 
L 265.42457 184.168092 
L 266.338575 183.597135 
L 267.25258 182.209133 
L 268.166585 181.234401 
L 268.775921 180.825246 
L 269.08059 180.694355 
L 269.385258 180.413721 
L 270.9086 174.89533 
L 272.431941 168.617741 
L 273.955283 161.468201 
L 275.783292 151.667636 
L 277.611302 140.609452 
L 280.353317 122.39115 
L 283.4 102.330395 
L 284.923342 93.736658 
L 286.142015 88.168086 
L 287.05602 84.984339 
L 287.665356 83.411746 
L 288.274693 82.322424 
L 288.884029 81.749002 
L 289.188698 81.664623 
L 289.493366 81.719179 
L 289.798034 81.91524 
L 290.407371 82.740136 
L 291.016708 84.151568 
L 291.626044 86.154622 
L 292.540049 90.260983 
L 293.454054 95.649959 
L 294.672727 104.685883 
L 295.8914 115.561902 
L 297.414742 131.137862 
L 300.766093 168.195059 
L 302.898771 177.217912 
L 304.422113 184.057531 
L 305.336118 181.781026 
L 305.945455 180.691263 
L 306.554791 179.977982 
L 307.164128 179.664288 
L 307.773464 179.719916 
L 308.687469 179.141832 
L 308.992138 179.026202 
L 311.429484 173.398168 
L 312.343489 172.103344 
L 312.952826 171.555172 
L 313.562162 171.27647 
L 314.171499 171.279258 
L 314.780835 171.572532 
L 315.390172 172.161926 
L 315.999509 173.04943 
L 316.913514 174.934472 
L 317.827518 177.461934 
L 318.741523 180.487537 
L 319.655528 181.949129 
L 320.569533 183.940682 
L 321.483538 186.431442 
L 322.702211 190.446821 
L 324.225553 196.366882 
L 326.967568 207.399418 
L 327.576904 208.680432 
L 328.186241 208.928031 
L 329.100246 209.593887 
L 330.014251 210.592847 
L 330.928256 211.892223 
L 332.146929 214.018393 
L 334.279607 218.073927 
L 336.107617 220.716826 
L 338.849631 224.969238 
L 340.677641 224.213531 
L 342.200983 223.827554 
L 343.419656 223.730659 
L 344.638329 223.85519 
L 345.857002 224.221392 
L 347.075676 224.836657 
L 348.294349 225.693574 
L 349.81769 227.068517 
L 351.6457 229.06117 
L 352.255037 229.76635 
L 353.778378 229.609109 
L 354.997052 229.673885 
L 356.215725 229.932218 
L 357.434398 230.397744 
L 358.653071 231.073031 
L 360.176413 232.194639 
L 362.004423 233.874748 
L 368.402457 240.179296 
L 369.925799 241.165277 
L 371.144472 241.704038 
L 372.363145 242.01601 
L 373.581818 242.116364 
L 373.581818 242.116364 
" style="fill:none;stroke:#172c4b;stroke-linecap:square;stroke-opacity:0.2;"/>
   </g>
   <g id="line2d_22">
    <path clip-path="url(#p2f1bc5cf15)" d="M 69.218182 242.116364 
L 70.436855 241.984696 
L 71.960197 241.526666 
L 74.702211 240.338785 
L 75.616216 239.887527 
L 76.834889 238.616237 
L 78.053563 237.003257 
L 79.576904 234.552548 
L 81.709582 230.598368 
L 83.84226 226.693777 
L 85.060934 224.829921 
L 85.974939 223.73339 
L 86.888943 222.958771 
L 87.802948 222.547421 
L 88.412285 222.487246 
L 89.021622 222.601149 
L 89.630958 222.886984 
L 90.544963 223.623619 
L 91.458968 224.695998 
L 91.763636 225.119363 
L 94.810319 221.593794 
L 95.724324 220.958678 
L 96.638329 220.59256 
L 97.552334 220.364389 
L 99.685012 215.976522 
L 101.81769 211.036278 
L 102.427027 209.422926 
L 104.559705 202.372713 
L 110.95774 180.472828 
L 111.567076 178.694457 
L 113.395086 171.539187 
L 115.223096 164.843216 
L 116.441769 160.083355 
L 117.355774 157.114777 
L 118.269779 154.718354 
L 121.011794 140.715266 
L 122.839803 132.450397 
L 125.581818 120.7171 
L 126.800491 114.165423 
L 132.893857 62.37038 
L 134.112531 54.581035 
L 135.026536 49.985344 
L 135.940541 46.671091 
L 136.549877 45.258622 
L 137.159214 44.535258 
L 137.463882 44.443636 
L 137.76855 44.537287 
L 138.073219 44.819466 
L 138.682555 45.959567 
L 139.291892 47.878183 
L 139.901229 50.579406 
L 140.815233 56.081384 
L 141.729238 63.259185 
L 142.947912 75.21825 
L 144.166585 89.507467 
L 145.994595 114.064123 
L 148.127273 143.783736 
L 148.431941 146.050316 
L 151.783292 156.900235 
L 153.001966 149.767483 
L 153.915971 145.349359 
L 154.829975 141.9106 
L 155.439312 140.233006 
L 156.048649 139.078529 
L 156.657985 138.504054 
L 156.962654 138.428038 
L 157.267322 138.498297 
L 157.57199 138.715687 
L 158.181327 139.592185 
L 158.790663 141.051835 
L 159.4 143.078768 
L 160.314005 147.123673 
L 162.142015 157.271371 
L 163.05602 162.499497 
L 164.274693 169.418681 
L 166.102703 181.371879 
L 168.235381 195.387237 
L 169.758722 204.128459 
L 170.368059 204.603084 
L 170.977396 205.308402 
L 171.8914 206.776922 
L 172.805405 208.689571 
L 174.024079 211.79813 
L 174.328747 212.651939 
L 174.633415 212.993982 
L 174.938084 212.923707 
L 176.461425 210.344968 
L 177.680098 208.725333 
L 178.594103 207.835945 
L 179.508108 207.26773 
L 180.117445 207.082765 
L 180.726781 207.061015 
L 181.336118 207.207031 
L 181.945455 207.522963 
L 182.859459 208.313821 
L 183.773464 209.47285 
L 184.687469 210.974171 
L 186.210811 213.780236 
L 188.038821 211.012702 
L 189.257494 209.555408 
L 190.171499 208.764393 
L 191.085504 208.293182 
L 191.69484 208.180296 
L 192.304177 208.24184 
L 192.913514 208.486296 
L 193.52285 208.918994 
L 194.436855 209.924016 
L 195.35086 211.346199 
L 196.264865 213.156353 
L 197.483538 216.087884 
L 199.311548 221.257177 
L 201.748894 228.524941 
L 202.967568 228.111928 
L 204.186241 227.948085 
L 205.100246 228.014077 
L 206.014251 228.255848 
L 206.928256 228.679413 
L 208.146929 229.479116 
L 209.365602 230.555801 
L 210.888943 232.268915 
L 213.021622 235.086171 
L 215.763636 238.657246 
L 217.286978 240.245178 
L 218.505651 241.189093 
L 219.724324 241.804345 
L 220.638329 242.048003 
L 221.552334 242.113885 
L 222.771007 241.951671 
L 224.294349 241.468048 
L 227.6457 240.020852 
L 228.864373 238.793979 
L 230.083047 237.223006 
L 231.606388 234.816234 
L 233.739066 230.889208 
L 236.176413 226.440318 
L 237.395086 224.627044 
L 238.309091 223.580609 
L 239.223096 222.864122 
L 239.832432 222.589528 
L 240.441769 222.485975 
L 241.051106 222.556401 
L 241.660442 222.799676 
L 242.574447 223.476329 
L 243.488452 224.496011 
L 243.79312 224.903876 
L 244.097789 224.97246 
L 245.62113 222.97716 
L 246.839803 221.723589 
L 247.753808 221.046648 
L 248.667813 220.633736 
L 249.581818 220.511016 
L 250.191155 219.46845 
L 252.323833 214.965679 
L 254.456511 209.89792 
L 256.589189 202.897405 
L 263.291892 180.024639 
L 263.901229 178.060082 
L 265.729238 170.999641 
L 267.25258 165.487969 
L 268.775921 159.54788 
L 269.689926 156.681576 
L 270.299263 155.148159 
L 270.9086 152.309258 
L 273.345946 139.983871 
L 275.173956 131.818976 
L 277.306634 123.035578 
L 278.829975 115.443387 
L 281.57199 91.235918 
L 284.009337 70.398441 
L 285.532678 59.252413 
L 286.751351 52.134558 
L 287.665356 48.156813 
L 288.274693 46.255632 
L 288.884029 45.011631 
L 289.188698 44.649379 
L 289.493366 44.466513 
L 289.798034 44.467086 
L 290.102703 44.654629 
L 290.407371 45.032117 
L 291.016708 46.365898 
L 291.626044 48.48019 
L 292.235381 51.376467 
L 293.149386 57.163942 
L 294.063391 64.610618 
L 295.282064 76.887291 
L 296.805405 95.356204 
L 298.938084 124.947489 
L 300.156757 142.572005 
L 300.766093 146.622324 
L 302.289435 151.462081 
L 303.812776 157.132501 
L 304.117445 155.943085 
L 305.336118 148.969806 
L 306.250123 144.704096 
L 307.164128 141.442996 
L 307.773464 139.894072 
L 308.382801 138.882897 
L 308.992138 138.447839 
L 309.296806 138.444815 
L 309.601474 138.588571 
L 310.210811 139.317994 
L 310.820147 140.632947 
L 311.429484 142.520099 
L 312.343489 146.369888 
L 313.86683 154.49412 
L 318.436855 182.421275 
L 320.264865 194.491274 
L 321.788206 203.494533 
L 322.092875 204.225162 
L 322.702211 204.758068 
L 323.616216 205.983295 
L 324.530221 207.681937 
L 325.748894 210.56912 
L 326.662899 213.00363 
L 326.967568 212.989406 
L 327.272236 212.643335 
L 328.795577 210.118344 
L 330.014251 208.556326 
L 330.928256 207.718013 
L 331.84226 207.206521 
L 332.451597 207.061809 
L 333.060934 207.081664 
L 333.67027 207.270056 
L 334.279607 207.628504 
L 335.193612 208.481962 
L 336.107617 209.700187 
L 337.021622 211.255151 
L 338.240295 213.781246 
L 338.544963 213.532222 
L 340.068305 211.221142 
L 341.286978 209.714582 
L 342.200983 208.875419 
L 343.114988 208.347397 
L 343.724324 208.19256 
L 344.333661 208.209587 
L 344.942998 208.407685 
L 345.552334 208.793009 
L 346.466339 209.727041 
L 347.380344 211.081196 
L 348.294349 212.829535 
L 349.513022 215.693489 
L 351.036364 219.906891 
L 353.778378 228.08841 
L 354.083047 228.461361 
L 355.30172 228.076861 
L 356.520393 227.947323 
L 357.434398 228.041922 
L 358.348403 228.313754 
L 359.262408 228.767718 
L 360.785749 229.84817 
L 362.004423 231.031566 
L 363.527764 232.843919 
L 369.011794 239.812358 
L 370.230467 240.872523 
L 371.44914 241.612942 
L 372.363145 241.949003 
L 373.27715 242.103027 
L 373.581818 242.116364 
L 373.581818 242.116364 
" style="fill:none;stroke:#172c4b;stroke-linecap:square;stroke-opacity:0.1;"/>
   </g>
   <g id="line2d_23">
    <path clip-path="url(#p2f1bc5cf15)" d="M 69.218182 242.116364 
L 99.380344 242.004718 
L 149.345946 241.789253 
L 181.640786 241.940288 
L 223.989681 242.115417 
L 255.065848 241.98128 
L 299.54742 241.787326 
L 330.928256 241.920857 
L 373.581818 242.116364 
L 373.581818 242.116364 
" style="fill:none;stroke:#3b65ac;stroke-dasharray:5.55,2.4;stroke-dashoffset:0;stroke-width:1.5;"/>
   </g>
   <g id="patch_3">
    <path d="M 54 252 
L 54 34.56 
" style="fill:none;stroke:#000000;stroke-linecap:square;stroke-linejoin:miter;stroke-width:0.8;"/>
   </g>
   <g id="patch_4">
    <path d="M 388.8 252 
L 388.8 34.56 
" style="fill:none;stroke:#000000;stroke-linecap:square;stroke-linejoin:miter;stroke-width:0.8;"/>
   </g>
   <g id="patch_5">
    <path d="M 54 252 
L 388.8 252 
" style="fill:none;stroke:#000000;stroke-linecap:square;stroke-linejoin:miter;stroke-width:0.8;"/>
   </g>
   <g id="patch_6">
    <path d="M 54 34.56 
L 388.8 34.56 
" style="fill:none;stroke:#000000;stroke-linecap:square;stroke-linejoin:miter;stroke-width:0.8;"/>
   </g>
   <g id="text_16">
    <!-- Power Waveform: Higher Harmonics (upper bound) -->
    <g transform="translate(68.183438 28.56)scale(0.12 -0.12)">
     <defs>
      <path d="M 3.328125 72.90625 
L 13.28125 72.90625 
L 28.609375 11.28125 
L 43.890625 72.90625 
L 54.984375 72.90625 
L 70.3125 11.28125 
L 85.59375 72.90625 
L 95.609375 72.90625 
L 77.296875 0 
L 64.890625 0 
L 49.515625 63.28125 
L 33.984375 0 
L 21.578125 0 
z
" id="DejaVuSans-87"/>
      <path d="M 34.28125 27.484375 
Q 23.390625 27.484375 19.1875 25 
Q 14.984375 22.515625 14.984375 16.5 
Q 14.984375 11.71875 18.140625 8.90625 
Q 21.296875 6.109375 26.703125 6.109375 
Q 34.1875 6.109375 38.703125 11.40625 
Q 43.21875 16.703125 43.21875 25.484375 
L 43.21875 27.484375 
z
M 52.203125 31.203125 
L 52.203125 0 
L 43.21875 0 
L 43.21875 8.296875 
Q 40.140625 3.328125 35.546875 0.953125 
Q 30.953125 -1.421875 24.3125 -1.421875 
Q 15.921875 -1.421875 10.953125 3.296875 
Q 6 8.015625 6 15.921875 
Q 6 25.140625 12.171875 29.828125 
Q 18.359375 34.515625 30.609375 34.515625 
L 43.21875 34.515625 
L 43.21875 35.40625 
Q 43.21875 41.609375 39.140625 45 
Q 35.0625 48.390625 27.6875 48.390625 
Q 23 48.390625 18.546875 47.265625 
Q 14.109375 46.140625 10.015625 43.890625 
L 10.015625 52.203125 
Q 14.9375 54.109375 19.578125 55.046875 
Q 24.21875 56 28.609375 56 
Q 40.484375 56 46.34375 49.84375 
Q 52.203125 43.703125 52.203125 31.203125 
z
" id="DejaVuSans-97"/>
      <path d="M 2.984375 54.6875 
L 12.5 54.6875 
L 29.59375 8.796875 
L 46.6875 54.6875 
L 56.203125 54.6875 
L 35.6875 0 
L 23.484375 0 
z
" id="DejaVuSans-118"/>
      <path d="M 37.109375 75.984375 
L 37.109375 68.5 
L 28.515625 68.5 
Q 23.6875 68.5 21.796875 66.546875 
Q 19.921875 64.59375 19.921875 59.515625 
L 19.921875 54.6875 
L 34.71875 54.6875 
L 34.71875 47.703125 
L 19.921875 47.703125 
L 19.921875 0 
L 10.890625 0 
L 10.890625 47.703125 
L 2.296875 47.703125 
L 2.296875 54.6875 
L 10.890625 54.6875 
L 10.890625 58.5 
Q 10.890625 67.625 15.140625 71.796875 
Q 19.390625 75.984375 28.609375 75.984375 
z
" id="DejaVuSans-102"/>
      <path d="M 11.71875 12.40625 
L 22.015625 12.40625 
L 22.015625 0 
L 11.71875 0 
z
M 11.71875 51.703125 
L 22.015625 51.703125 
L 22.015625 39.3125 
L 11.71875 39.3125 
z
" id="DejaVuSans-58"/>
      <path d="M 9.8125 72.90625 
L 19.671875 72.90625 
L 19.671875 43.015625 
L 55.515625 43.015625 
L 55.515625 72.90625 
L 65.375 72.90625 
L 65.375 0 
L 55.515625 0 
L 55.515625 34.71875 
L 19.671875 34.71875 
L 19.671875 0 
L 9.8125 0 
z
" id="DejaVuSans-72"/>
      <path d="M 45.40625 27.984375 
Q 45.40625 37.75 41.375 43.109375 
Q 37.359375 48.484375 30.078125 48.484375 
Q 22.859375 48.484375 18.828125 43.109375 
Q 14.796875 37.75 14.796875 27.984375 
Q 14.796875 18.265625 18.828125 12.890625 
Q 22.859375 7.515625 30.078125 7.515625 
Q 37.359375 7.515625 41.375 12.890625 
Q 45.40625 18.265625 45.40625 27.984375 
z
M 54.390625 6.78125 
Q 54.390625 -7.171875 48.1875 -13.984375 
Q 42 -20.796875 29.203125 -20.796875 
Q 24.46875 -20.796875 20.265625 -20.09375 
Q 16.0625 -19.390625 12.109375 -17.921875 
L 12.109375 -9.1875 
Q 16.0625 -11.328125 19.921875 -12.34375 
Q 23.78125 -13.375 27.78125 -13.375 
Q 36.625 -13.375 41.015625 -8.765625 
Q 45.40625 -4.15625 45.40625 5.171875 
L 45.40625 9.625 
Q 42.625 4.78125 38.28125 2.390625 
Q 33.9375 0 27.875 0 
Q 17.828125 0 11.671875 7.65625 
Q 5.515625 15.328125 5.515625 27.984375 
Q 5.515625 40.671875 11.671875 48.328125 
Q 17.828125 56 27.875 56 
Q 33.9375 56 38.28125 53.609375 
Q 42.625 51.21875 45.40625 46.390625 
L 45.40625 54.6875 
L 54.390625 54.6875 
z
" id="DejaVuSans-103"/>
      <path d="M 54.890625 33.015625 
L 54.890625 0 
L 45.90625 0 
L 45.90625 32.71875 
Q 45.90625 40.484375 42.875 44.328125 
Q 39.84375 48.1875 33.796875 48.1875 
Q 26.515625 48.1875 22.3125 43.546875 
Q 18.109375 38.921875 18.109375 30.90625 
L 18.109375 0 
L 9.078125 0 
L 9.078125 75.984375 
L 18.109375 75.984375 
L 18.109375 46.1875 
Q 21.34375 51.125 25.703125 53.5625 
Q 30.078125 56 35.796875 56 
Q 45.21875 56 50.046875 50.171875 
Q 54.890625 44.34375 54.890625 33.015625 
z
" id="DejaVuSans-104"/>
      <path d="M 54.890625 33.015625 
L 54.890625 0 
L 45.90625 0 
L 45.90625 32.71875 
Q 45.90625 40.484375 42.875 44.328125 
Q 39.84375 48.1875 33.796875 48.1875 
Q 26.515625 48.1875 22.3125 43.546875 
Q 18.109375 38.921875 18.109375 30.90625 
L 18.109375 0 
L 9.078125 0 
L 9.078125 54.6875 
L 18.109375 54.6875 
L 18.109375 46.1875 
Q 21.34375 51.125 25.703125 53.5625 
Q 30.078125 56 35.796875 56 
Q 45.21875 56 50.046875 50.171875 
Q 54.890625 44.34375 54.890625 33.015625 
z
" id="DejaVuSans-110"/>
      <path d="M 48.78125 52.59375 
L 48.78125 44.1875 
Q 44.96875 46.296875 41.140625 47.34375 
Q 37.3125 48.390625 33.40625 48.390625 
Q 24.65625 48.390625 19.8125 42.84375 
Q 14.984375 37.3125 14.984375 27.296875 
Q 14.984375 17.28125 19.8125 11.734375 
Q 24.65625 6.203125 33.40625 6.203125 
Q 37.3125 6.203125 41.140625 7.25 
Q 44.96875 8.296875 48.78125 10.40625 
L 48.78125 2.09375 
Q 45.015625 0.34375 40.984375 -0.53125 
Q 36.96875 -1.421875 32.421875 -1.421875 
Q 20.0625 -1.421875 12.78125 6.34375 
Q 5.515625 14.109375 5.515625 27.296875 
Q 5.515625 40.671875 12.859375 48.328125 
Q 20.21875 56 33.015625 56 
Q 37.15625 56 41.109375 55.140625 
Q 45.0625 54.296875 48.78125 52.59375 
z
" id="DejaVuSans-99"/>
      <path d="M 44.28125 53.078125 
L 44.28125 44.578125 
Q 40.484375 46.53125 36.375 47.5 
Q 32.28125 48.484375 27.875 48.484375 
Q 21.1875 48.484375 17.84375 46.4375 
Q 14.5 44.390625 14.5 40.28125 
Q 14.5 37.15625 16.890625 35.375 
Q 19.28125 33.59375 26.515625 31.984375 
L 29.59375 31.296875 
Q 39.15625 29.25 43.1875 25.515625 
Q 47.21875 21.78125 47.21875 15.09375 
Q 47.21875 7.46875 41.1875 3.015625 
Q 35.15625 -1.421875 24.609375 -1.421875 
Q 20.21875 -1.421875 15.453125 -0.5625 
Q 10.6875 0.296875 5.421875 2 
L 5.421875 11.28125 
Q 10.40625 8.6875 15.234375 7.390625 
Q 20.0625 6.109375 24.8125 6.109375 
Q 31.15625 6.109375 34.5625 8.28125 
Q 37.984375 10.453125 37.984375 14.40625 
Q 37.984375 18.0625 35.515625 20.015625 
Q 33.0625 21.96875 24.703125 23.78125 
L 21.578125 24.515625 
Q 13.234375 26.265625 9.515625 29.90625 
Q 5.8125 33.546875 5.8125 39.890625 
Q 5.8125 47.609375 11.28125 51.796875 
Q 16.75 56 26.8125 56 
Q 31.78125 56 36.171875 55.265625 
Q 40.578125 54.546875 44.28125 53.078125 
z
" id="DejaVuSans-115"/>
      <path d="M 8.5 21.578125 
L 8.5 54.6875 
L 17.484375 54.6875 
L 17.484375 21.921875 
Q 17.484375 14.15625 20.5 10.265625 
Q 23.53125 6.390625 29.59375 6.390625 
Q 36.859375 6.390625 41.078125 11.03125 
Q 45.3125 15.671875 45.3125 23.6875 
L 45.3125 54.6875 
L 54.296875 54.6875 
L 54.296875 0 
L 45.3125 0 
L 45.3125 8.40625 
Q 42.046875 3.421875 37.71875 1 
Q 33.40625 -1.421875 27.6875 -1.421875 
Q 18.265625 -1.421875 13.375 4.4375 
Q 8.5 10.296875 8.5 21.578125 
z
M 31.109375 56 
z
" id="DejaVuSans-117"/>
      <path d="M 18.109375 8.203125 
L 18.109375 -20.796875 
L 9.078125 -20.796875 
L 9.078125 54.6875 
L 18.109375 54.6875 
L 18.109375 46.390625 
Q 20.953125 51.265625 25.265625 53.625 
Q 29.59375 56 35.59375 56 
Q 45.5625 56 51.78125 48.09375 
Q 58.015625 40.1875 58.015625 27.296875 
Q 58.015625 14.40625 51.78125 6.484375 
Q 45.5625 -1.421875 35.59375 -1.421875 
Q 29.59375 -1.421875 25.265625 0.953125 
Q 20.953125 3.328125 18.109375 8.203125 
z
M 48.6875 27.296875 
Q 48.6875 37.203125 44.609375 42.84375 
Q 40.53125 48.484375 33.40625 48.484375 
Q 26.265625 48.484375 22.1875 42.84375 
Q 18.109375 37.203125 18.109375 27.296875 
Q 18.109375 17.390625 22.1875 11.75 
Q 26.265625 6.109375 33.40625 6.109375 
Q 40.53125 6.109375 44.609375 11.75 
Q 48.6875 17.390625 48.6875 27.296875 
z
" id="DejaVuSans-112"/>
      <path d="M 48.6875 27.296875 
Q 48.6875 37.203125 44.609375 42.84375 
Q 40.53125 48.484375 33.40625 48.484375 
Q 26.265625 48.484375 22.1875 42.84375 
Q 18.109375 37.203125 18.109375 27.296875 
Q 18.109375 17.390625 22.1875 11.75 
Q 26.265625 6.109375 33.40625 6.109375 
Q 40.53125 6.109375 44.609375 11.75 
Q 48.6875 17.390625 48.6875 27.296875 
z
M 18.109375 46.390625 
Q 20.953125 51.265625 25.265625 53.625 
Q 29.59375 56 35.59375 56 
Q 45.5625 56 51.78125 48.09375 
Q 58.015625 40.1875 58.015625 27.296875 
Q 58.015625 14.40625 51.78125 6.484375 
Q 45.5625 -1.421875 35.59375 -1.421875 
Q 29.59375 -1.421875 25.265625 0.953125 
Q 20.953125 3.328125 18.109375 8.203125 
L 18.109375 0 
L 9.078125 0 
L 9.078125 75.984375 
L 18.109375 75.984375 
z
" id="DejaVuSans-98"/>
      <path d="M 45.40625 46.390625 
L 45.40625 75.984375 
L 54.390625 75.984375 
L 54.390625 0 
L 45.40625 0 
L 45.40625 8.203125 
Q 42.578125 3.328125 38.25 0.953125 
Q 33.9375 -1.421875 27.875 -1.421875 
Q 17.96875 -1.421875 11.734375 6.484375 
Q 5.515625 14.40625 5.515625 27.296875 
Q 5.515625 40.1875 11.734375 48.09375 
Q 17.96875 56 27.875 56 
Q 33.9375 56 38.25 53.625 
Q 42.578125 51.265625 45.40625 46.390625 
z
M 14.796875 27.296875 
Q 14.796875 17.390625 18.875 11.75 
Q 22.953125 6.109375 30.078125 6.109375 
Q 37.203125 6.109375 41.296875 11.75 
Q 45.40625 17.390625 45.40625 27.296875 
Q 45.40625 37.203125 41.296875 42.84375 
Q 37.203125 48.484375 30.078125 48.484375 
Q 22.953125 48.484375 18.875 42.84375 
Q 14.796875 37.203125 14.796875 27.296875 
z
" id="DejaVuSans-100"/>
     </defs>
     <use xlink:href="#DejaVuSans-80"/>
     <use x="56.677734" xlink:href="#DejaVuSans-111"/>
     <use x="117.859375" xlink:href="#DejaVuSans-119"/>
     <use x="199.646484" xlink:href="#DejaVuSans-101"/>
     <use x="261.169922" xlink:href="#DejaVuSans-114"/>
     <use x="302.283203" xlink:href="#DejaVuSans-32"/>
     <use x="334.070312" xlink:href="#DejaVuSans-87"/>
     <use x="426.572266" xlink:href="#DejaVuSans-97"/>
     <use x="487.851562" xlink:href="#DejaVuSans-118"/>
     <use x="547.03125" xlink:href="#DejaVuSans-101"/>
     <use x="608.554688" xlink:href="#DejaVuSans-102"/>
     <use x="643.759766" xlink:href="#DejaVuSans-111"/>
     <use x="704.941406" xlink:href="#DejaVuSans-114"/>
     <use x="744.304688" xlink:href="#DejaVuSans-109"/>
     <use x="841.716797" xlink:href="#DejaVuSans-58"/>
     <use x="875.408203" xlink:href="#DejaVuSans-32"/>
     <use x="907.195312" xlink:href="#DejaVuSans-72"/>
     <use x="982.390625" xlink:href="#DejaVuSans-105"/>
     <use x="1010.173828" xlink:href="#DejaVuSans-103"/>
     <use x="1073.650391" xlink:href="#DejaVuSans-104"/>
     <use x="1137.029297" xlink:href="#DejaVuSans-101"/>
     <use x="1198.552734" xlink:href="#DejaVuSans-114"/>
     <use x="1239.666016" xlink:href="#DejaVuSans-32"/>
     <use x="1271.453125" xlink:href="#DejaVuSans-72"/>
     <use x="1346.648438" xlink:href="#DejaVuSans-97"/>
     <use x="1407.927734" xlink:href="#DejaVuSans-114"/>
     <use x="1447.291016" xlink:href="#DejaVuSans-109"/>
     <use x="1544.703125" xlink:href="#DejaVuSans-111"/>
     <use x="1605.884766" xlink:href="#DejaVuSans-110"/>
     <use x="1669.263672" xlink:href="#DejaVuSans-105"/>
     <use x="1697.046875" xlink:href="#DejaVuSans-99"/>
     <use x="1752.027344" xlink:href="#DejaVuSans-115"/>
     <use x="1804.126953" xlink:href="#DejaVuSans-32"/>
     <use x="1835.914062" xlink:href="#DejaVuSans-40"/>
     <use x="1874.927734" xlink:href="#DejaVuSans-117"/>
     <use x="1938.306641" xlink:href="#DejaVuSans-112"/>
     <use x="2001.783203" xlink:href="#DejaVuSans-112"/>
     <use x="2065.259766" xlink:href="#DejaVuSans-101"/>
     <use x="2126.783203" xlink:href="#DejaVuSans-114"/>
     <use x="2167.896484" xlink:href="#DejaVuSans-32"/>
     <use x="2199.683594" xlink:href="#DejaVuSans-98"/>
     <use x="2263.160156" xlink:href="#DejaVuSans-111"/>
     <use x="2324.341797" xlink:href="#DejaVuSans-117"/>
     <use x="2387.720703" xlink:href="#DejaVuSans-110"/>
     <use x="2451.099609" xlink:href="#DejaVuSans-100"/>
     <use x="2514.576172" xlink:href="#DejaVuSans-41"/>
    </g>
   </g>
  </g>
 </g>
 <defs>
  <clipPath id="p2f1bc5cf15">
   <rect height="217.44" width="334.8" x="54" y="34.56"/>
  </clipPath>
 </defs>
</svg>
