<?xml version="1.0" encoding="UTF-8" standalone="no"?>
<svg
   width="460.8pt"
   height="345.6pt"
   viewBox="0 0 460.8 345.6"
   version="1.1"
   id="svg120"
   sodipodi:docname="power-Higher.svg"
   inkscape:version="1.3.2 (091e20e, 2023-11-25)"
   xmlns:inkscape="http://www.inkscape.org/namespaces/inkscape"
   xmlns:sodipodi="http://sodipodi.sourceforge.net/DTD/sodipodi-0.dtd"
   xmlns:xlink="http://www.w3.org/1999/xlink"
   xmlns="http://www.w3.org/2000/svg"
   xmlns:svg="http://www.w3.org/2000/svg"
   xmlns:rdf="http://www.w3.org/1999/02/22-rdf-syntax-ns#"
   xmlns:cc="http://creativecommons.org/ns#"
   xmlns:dc="http://purl.org/dc/elements/1.1/">
  <sodipodi:namedview
     id="namedview120"
     pagecolor="#ffffff"
     bordercolor="#000000"
     borderopacity="0.25"
     inkscape:showpageshadow="2"
     inkscape:pageopacity="0.0"
     inkscape:pagecheckerboard="0"
     inkscape:deskcolor="#d1d1d1"
     inkscape:document-units="pt"
     inkscape:zoom="1.152078"
     inkscape:cx="299.8929"
     inkscape:cy="226.11317"
     inkscape:window-width="1384"
     inkscape:window-height="784"
     inkscape:window-x="59"
     inkscape:window-y="25"
     inkscape:window-maximized="0"
     inkscape:current-layer="svg120" />
  <metadata
     id="metadata1">
    <rdf:RDF>
      <cc:Work>
        <dc:type
           rdf:resource="http://purl.org/dc/dcmitype/StillImage" />
        <dc:date>2024-07-30T18:15:01.271727</dc:date>
        <dc:format>image/svg+xml</dc:format>
        <dc:creator>
          <cc:Agent>
            <dc:title>Matplotlib v3.8.4, https://matplotlib.org/</dc:title>
          </cc:Agent>
        </dc:creator>
      </cc:Work>
    </rdf:RDF>
  </metadata>
  <defs
     id="defs1">
    <style
       type="text/css"
       id="style1">*{stroke-linejoin: round; stroke-linecap: butt}</style>
    <linearGradient
       inkscape:collect="always"
       xlink:href="#linearGradient127"
       id="linearGradient128"
       x1="421.83893"
       y1="174.30756"
       x2="421.8472"
       y2="308.24585"
       gradientUnits="userSpaceOnUse"
       gradientTransform="translate(-2.8429986,-0.05630938)" />
    <linearGradient
       id="linearGradient127"
       inkscape:collect="always">
      <stop
         style="stop-color:#172c4b;stop-opacity:1;"
         offset="0"
         id="stop127" />
      <stop
         style="stop-color:#e6e8ec;stop-opacity:1;"
         offset="1"
         id="stop128" />
    </linearGradient>
    <marker
       style="overflow:visible"
       id="ArrowWideRounded"
       refX="0"
       refY="0"
       orient="auto-start-reverse"
       inkscape:stockid="Wide, rounded arrow"
       markerWidth="1"
       markerHeight="1"
       viewBox="0 0 1 1"
       inkscape:isstock="true"
       inkscape:collect="always"
       preserveAspectRatio="xMidYMid">
      <path
         style="fill:none;stroke:context-stroke;stroke-width:1;stroke-linecap:round"
         d="M 3,-3 0,0 3,3"
         transform="rotate(180,0.125,0)"
         sodipodi:nodetypes="ccc"
         id="path5" />
    </marker>
  </defs>
  <g
     id="figure_1">
    <g
       id="patch_1">
      <path
         d="M 0 345.6  L 460.8 345.6  L 460.8 0  L 0 0  z "
         style="fill: #ffffff"
         id="path1" />
    </g>
    <g
       id="axes_1">
      <g
         id="patch_2">
        <path
           d="M 57.6 307.584  L 414.72 307.584  L 414.72 41.472  L 57.6 41.472  z "
           style="fill: #ffffff"
           id="path2" />
      </g>
      <g
         id="matplotlib.axis_1">
        <g
           id="xtick_1">
          <g
             id="line2d_1">
            <defs
               id="defs2">
              <path
                 id="m64aba5e818"
                 d="M 0 0  L 0 3.5  "
                 style="stroke: #000000; stroke-width: 0.8" />
            </defs>
            <g
               id="g2">
              <use
                 xlink:href="#m64aba5e818"
                 x="73.832727"
                 y="307.584"
                 style="stroke: #000000; stroke-width: 0.8"
                 id="use2" />
            </g>
          </g>
          <g
             id="text_1">
            <!-- 0 -->
            <g
               transform="translate(70.015227 323.702125) scale(0.12 -0.12)"
               id="g3">
              <defs
                 id="defs3">
                <path
                   id="DejaVuSans-30"
                   d="M 2034 4250  Q 1547 4250 1301 3770  Q 1056 3291 1056 2328  Q 1056 1369 1301 889  Q 1547 409 2034 409  Q 2525 409 2770 889  Q 3016 1369 3016 2328  Q 3016 3291 2770 3770  Q 2525 4250 2034 4250  z M 2034 4750  Q 2819 4750 3233 4129  Q 3647 3509 3647 2328  Q 3647 1150 3233 529  Q 2819 -91 2034 -91  Q 1250 -91 836 529  Q 422 1150 422 2328  Q 422 3509 836 4129  Q 1250 4750 2034 4750  z "
                   transform="scale(0.015625)" />
              </defs>
              <use
                 xlink:href="#DejaVuSans-30"
                 id="use3" />
            </g>
          </g>
        </g>
        <g
           id="xtick_2">
          <g
             id="line2d_2">
            <g
               id="g4">
              <use
                 xlink:href="#m64aba5e818"
                 x="138.828632"
                 y="307.584"
                 style="stroke: #000000; stroke-width: 0.8"
                 id="use4" />
            </g>
          </g>
          <g
             id="text_2">
            <!-- (2/5)T -->
            <g
               transform="translate(120.82582 323.702125) scale(0.12 -0.12)"
               id="g10">
              <defs
                 id="defs4">
                <path
                   id="DejaVuSans-28"
                   d="M 1984 4856  Q 1566 4138 1362 3434  Q 1159 2731 1159 2009  Q 1159 1288 1364 580  Q 1569 -128 1984 -844  L 1484 -844  Q 1016 -109 783 600  Q 550 1309 550 2009  Q 550 2706 781 3412  Q 1013 4119 1484 4856  L 1984 4856  z "
                   transform="scale(0.015625)" />
                <path
                   id="DejaVuSans-32"
                   d="M 1228 531  L 3431 531  L 3431 0  L 469 0  L 469 531  Q 828 903 1448 1529  Q 2069 2156 2228 2338  Q 2531 2678 2651 2914  Q 2772 3150 2772 3378  Q 2772 3750 2511 3984  Q 2250 4219 1831 4219  Q 1534 4219 1204 4116  Q 875 4013 500 3803  L 500 4441  Q 881 4594 1212 4672  Q 1544 4750 1819 4750  Q 2544 4750 2975 4387  Q 3406 4025 3406 3419  Q 3406 3131 3298 2873  Q 3191 2616 2906 2266  Q 2828 2175 2409 1742  Q 1991 1309 1228 531  z "
                   transform="scale(0.015625)" />
                <path
                   id="DejaVuSans-2f"
                   d="M 1625 4666  L 2156 4666  L 531 -594  L 0 -594  L 1625 4666  z "
                   transform="scale(0.015625)" />
                <path
                   id="DejaVuSans-35"
                   d="M 691 4666  L 3169 4666  L 3169 4134  L 1269 4134  L 1269 2991  Q 1406 3038 1543 3061  Q 1681 3084 1819 3084  Q 2600 3084 3056 2656  Q 3513 2228 3513 1497  Q 3513 744 3044 326  Q 2575 -91 1722 -91  Q 1428 -91 1123 -41  Q 819 9 494 109  L 494 744  Q 775 591 1075 516  Q 1375 441 1709 441  Q 2250 441 2565 725  Q 2881 1009 2881 1497  Q 2881 1984 2565 2268  Q 2250 2553 1709 2553  Q 1456 2553 1204 2497  Q 953 2441 691 2322  L 691 4666  z "
                   transform="scale(0.015625)" />
                <path
                   id="DejaVuSans-29"
                   d="M 513 4856  L 1013 4856  Q 1481 4119 1714 3412  Q 1947 2706 1947 2009  Q 1947 1309 1714 600  Q 1481 -109 1013 -844  L 513 -844  Q 928 -128 1133 580  Q 1338 1288 1338 2009  Q 1338 2731 1133 3434  Q 928 4138 513 4856  z "
                   transform="scale(0.015625)" />
                <path
                   id="DejaVuSans-54"
                   d="M -19 4666  L 3928 4666  L 3928 4134  L 2272 4134  L 2272 0  L 1638 0  L 1638 4134  L -19 4134  L -19 4666  z "
                   transform="scale(0.015625)" />
              </defs>
              <use
                 xlink:href="#DejaVuSans-28"
                 id="use5" />
              <use
                 xlink:href="#DejaVuSans-32"
                 x="39.013672"
                 id="use6" />
              <use
                 xlink:href="#DejaVuSans-2f"
                 x="102.636719"
                 id="use7" />
              <use
                 xlink:href="#DejaVuSans-35"
                 x="136.328125"
                 id="use8" />
              <use
                 xlink:href="#DejaVuSans-29"
                 x="199.951172"
                 id="use9" />
              <use
                 xlink:href="#DejaVuSans-54"
                 x="238.964844"
                 id="use10" />
            </g>
          </g>
        </g>
        <g
           id="xtick_3">
          <g
             id="line2d_3">
            <g
               id="g11">
              <use
                 xlink:href="#m64aba5e818"
                 x="203.824537"
                 y="307.584"
                 style="stroke: #000000; stroke-width: 0.8"
                 id="use11" />
            </g>
          </g>
          <g
             id="text_3">
            <!-- (4/5) T -->
            <g
               transform="translate(183.91485 323.702125) scale(0.12 -0.12)"
               id="g18">
              <defs
                 id="defs11">
                <path
                   id="DejaVuSans-34"
                   d="M 2419 4116  L 825 1625  L 2419 1625  L 2419 4116  z M 2253 4666  L 3047 4666  L 3047 1625  L 3713 1625  L 3713 1100  L 3047 1100  L 3047 0  L 2419 0  L 2419 1100  L 313 1100  L 313 1709  L 2253 4666  z "
                   transform="scale(0.015625)" />
                <path
                   id="DejaVuSans-20"
                   transform="scale(0.015625)" />
              </defs>
              <use
                 xlink:href="#DejaVuSans-28"
                 id="use12" />
              <use
                 xlink:href="#DejaVuSans-34"
                 x="39.013672"
                 id="use13" />
              <use
                 xlink:href="#DejaVuSans-2f"
                 x="102.636719"
                 id="use14" />
              <use
                 xlink:href="#DejaVuSans-35"
                 x="136.328125"
                 id="use15" />
              <use
                 xlink:href="#DejaVuSans-29"
                 x="199.951172"
                 id="use16" />
              <use
                 xlink:href="#DejaVuSans-20"
                 x="238.964844"
                 id="use17" />
              <use
                 xlink:href="#DejaVuSans-54"
                 x="270.751953"
                 id="use18" />
            </g>
          </g>
        </g>
        <g
           id="xtick_4">
          <g
             id="line2d_4">
            <g
               id="g19">
              <use
                 xlink:href="#m64aba5e818"
                 x="268.820442"
                 y="307.584"
                 style="stroke: #000000; stroke-width: 0.8"
                 id="use19" />
            </g>
          </g>
          <g
             id="text_4">
            <!-- (6/5)T -->
            <g
               transform="translate(250.81763 323.702125) scale(0.12 -0.12)"
               id="g25">
              <defs
                 id="defs19">
                <path
                   id="DejaVuSans-36"
                   d="M 2113 2584  Q 1688 2584 1439 2293  Q 1191 2003 1191 1497  Q 1191 994 1439 701  Q 1688 409 2113 409  Q 2538 409 2786 701  Q 3034 994 3034 1497  Q 3034 2003 2786 2293  Q 2538 2584 2113 2584  z M 3366 4563  L 3366 3988  Q 3128 4100 2886 4159  Q 2644 4219 2406 4219  Q 1781 4219 1451 3797  Q 1122 3375 1075 2522  Q 1259 2794 1537 2939  Q 1816 3084 2150 3084  Q 2853 3084 3261 2657  Q 3669 2231 3669 1497  Q 3669 778 3244 343  Q 2819 -91 2113 -91  Q 1303 -91 875 529  Q 447 1150 447 2328  Q 447 3434 972 4092  Q 1497 4750 2381 4750  Q 2619 4750 2861 4703  Q 3103 4656 3366 4563  z "
                   transform="scale(0.015625)" />
              </defs>
              <use
                 xlink:href="#DejaVuSans-28"
                 id="use20" />
              <use
                 xlink:href="#DejaVuSans-36"
                 x="39.013672"
                 id="use21" />
              <use
                 xlink:href="#DejaVuSans-2f"
                 x="102.636719"
                 id="use22" />
              <use
                 xlink:href="#DejaVuSans-35"
                 x="136.328125"
                 id="use23" />
              <use
                 xlink:href="#DejaVuSans-29"
                 x="199.951172"
                 id="use24" />
              <use
                 xlink:href="#DejaVuSans-54"
                 x="238.964844"
                 id="use25" />
            </g>
          </g>
        </g>
        <g
           id="xtick_5">
          <g
             id="line2d_5">
            <g
               id="g26">
              <use
                 xlink:href="#m64aba5e818"
                 x="333.816347"
                 y="307.584"
                 style="stroke: #000000; stroke-width: 0.8"
                 id="use26" />
            </g>
          </g>
          <g
             id="text_5">
            <!-- (8/5)T -->
            <g
               transform="translate(315.813535 323.702125) scale(0.12 -0.12)"
               id="g32">
              <defs
                 id="defs26">
                <path
                   id="DejaVuSans-38"
                   d="M 2034 2216  Q 1584 2216 1326 1975  Q 1069 1734 1069 1313  Q 1069 891 1326 650  Q 1584 409 2034 409  Q 2484 409 2743 651  Q 3003 894 3003 1313  Q 3003 1734 2745 1975  Q 2488 2216 2034 2216  z M 1403 2484  Q 997 2584 770 2862  Q 544 3141 544 3541  Q 544 4100 942 4425  Q 1341 4750 2034 4750  Q 2731 4750 3128 4425  Q 3525 4100 3525 3541  Q 3525 3141 3298 2862  Q 3072 2584 2669 2484  Q 3125 2378 3379 2068  Q 3634 1759 3634 1313  Q 3634 634 3220 271  Q 2806 -91 2034 -91  Q 1263 -91 848 271  Q 434 634 434 1313  Q 434 1759 690 2068  Q 947 2378 1403 2484  z M 1172 3481  Q 1172 3119 1398 2916  Q 1625 2713 2034 2713  Q 2441 2713 2670 2916  Q 2900 3119 2900 3481  Q 2900 3844 2670 4047  Q 2441 4250 2034 4250  Q 1625 4250 1398 4047  Q 1172 3844 1172 3481  z "
                   transform="scale(0.015625)" />
              </defs>
              <use
                 xlink:href="#DejaVuSans-28"
                 id="use27" />
              <use
                 xlink:href="#DejaVuSans-38"
                 x="39.013672"
                 id="use28" />
              <use
                 xlink:href="#DejaVuSans-2f"
                 x="102.636719"
                 id="use29" />
              <use
                 xlink:href="#DejaVuSans-35"
                 x="136.328125"
                 id="use30" />
              <use
                 xlink:href="#DejaVuSans-29"
                 x="199.951172"
                 id="use31" />
              <use
                 xlink:href="#DejaVuSans-54"
                 x="238.964844"
                 id="use32" />
            </g>
          </g>
        </g>
        <g
           id="xtick_6">
          <g
             id="line2d_6">
            <g
               id="g33">
              <use
                 xlink:href="#m64aba5e818"
                 x="398.812252"
                 y="307.584"
                 style="stroke: #000000; stroke-width: 0.8"
                 id="use33" />
            </g>
          </g>
          <g
             id="text_6">
            <!-- 2T -->
            <g
               transform="translate(391.330065 323.702125) scale(0.12 -0.12)"
               id="g35">
              <use
                 xlink:href="#DejaVuSans-32"
                 id="use34" />
              <use
                 xlink:href="#DejaVuSans-54"
                 x="63.623047"
                 id="use35" />
            </g>
          </g>
        </g>
        <g
           id="text_7">
          <!-- Time $t$ -->
          <g
             transform="translate(220.21 337.796187) scale(0.1 -0.1)"
             id="g41">
            <defs
               id="defs35">
              <path
                 id="DejaVuSans-69"
                 d="M 603 3500  L 1178 3500  L 1178 0  L 603 0  L 603 3500  z M 603 4863  L 1178 4863  L 1178 4134  L 603 4134  L 603 4863  z "
                 transform="scale(0.015625)" />
              <path
                 id="DejaVuSans-6d"
                 d="M 3328 2828  Q 3544 3216 3844 3400  Q 4144 3584 4550 3584  Q 5097 3584 5394 3201  Q 5691 2819 5691 2113  L 5691 0  L 5113 0  L 5113 2094  Q 5113 2597 4934 2840  Q 4756 3084 4391 3084  Q 3944 3084 3684 2787  Q 3425 2491 3425 1978  L 3425 0  L 2847 0  L 2847 2094  Q 2847 2600 2669 2842  Q 2491 3084 2119 3084  Q 1678 3084 1418 2786  Q 1159 2488 1159 1978  L 1159 0  L 581 0  L 581 3500  L 1159 3500  L 1159 2956  Q 1356 3278 1631 3431  Q 1906 3584 2284 3584  Q 2666 3584 2933 3390  Q 3200 3197 3328 2828  z "
                 transform="scale(0.015625)" />
              <path
                 id="DejaVuSans-65"
                 d="M 3597 1894  L 3597 1613  L 953 1613  Q 991 1019 1311 708  Q 1631 397 2203 397  Q 2534 397 2845 478  Q 3156 559 3463 722  L 3463 178  Q 3153 47 2828 -22  Q 2503 -91 2169 -91  Q 1331 -91 842 396  Q 353 884 353 1716  Q 353 2575 817 3079  Q 1281 3584 2069 3584  Q 2775 3584 3186 3129  Q 3597 2675 3597 1894  z M 3022 2063  Q 3016 2534 2758 2815  Q 2500 3097 2075 3097  Q 1594 3097 1305 2825  Q 1016 2553 972 2059  L 3022 2063  z "
                 transform="scale(0.015625)" />
              <path
                 id="DejaVuSans-Oblique-74"
                 d="M 2706 3500  L 2619 3053  L 1472 3053  L 1100 1153  Q 1081 1047 1072 975  Q 1063 903 1063 863  Q 1063 663 1183 572  Q 1303 481 1569 481  L 2150 481  L 2053 0  L 1503 0  Q 991 0 739 200  Q 488 400 488 806  Q 488 878 497 964  Q 506 1050 525 1153  L 897 3053  L 409 3053  L 500 3500  L 978 3500  L 1172 4494  L 1747 4494  L 1556 3500  L 2706 3500  z "
                 transform="scale(0.015625)" />
            </defs>
            <use
               xlink:href="#DejaVuSans-54"
               transform="translate(0 0.015625)"
               id="use36" />
            <use
               xlink:href="#DejaVuSans-69"
               transform="translate(61.083984 0.015625)"
               id="use37" />
            <use
               xlink:href="#DejaVuSans-6d"
               transform="translate(88.867188 0.015625)"
               id="use38" />
            <use
               xlink:href="#DejaVuSans-65"
               transform="translate(186.279297 0.015625)"
               id="use39" />
            <use
               xlink:href="#DejaVuSans-20"
               transform="translate(247.802734 0.015625)"
               id="use40" />
            <use
               xlink:href="#DejaVuSans-Oblique-74"
               transform="translate(279.589844 0.015625)"
               id="use41" />
          </g>
        </g>
      </g>
      <g
         id="matplotlib.axis_2">
        <g
           id="ytick_1">
          <g
             id="line2d_7">
            <defs
               id="defs41">
              <path
                 id="mc019440935"
                 d="M 0 0  L -3.5 0  "
                 style="stroke: #000000; stroke-width: 0.8" />
            </defs>
            <g
               id="g42">
              <use
                 xlink:href="#mc019440935"
                 x="57.6"
                 y="259.886899"
                 style="stroke: #000000; stroke-width: 0.8"
                 id="use42" />
            </g>
          </g>
          <g
             id="text_8">
            <!-- −50 -->
            <g
               transform="translate(25.274375 264.445961) scale(0.12 -0.12)"
               id="g45">
              <defs
                 id="defs42">
                <path
                   id="DejaVuSans-2212"
                   d="M 678 2272  L 4684 2272  L 4684 1741  L 678 1741  L 678 2272  z "
                   transform="scale(0.015625)" />
              </defs>
              <use
                 xlink:href="#DejaVuSans-2212"
                 id="use43" />
              <use
                 xlink:href="#DejaVuSans-35"
                 x="83.789062"
                 id="use44" />
              <use
                 xlink:href="#DejaVuSans-30"
                 x="147.412109"
                 id="use45" />
            </g>
          </g>
        </g>
        <g
           id="ytick_2">
          <g
             id="line2d_8">
            <g
               id="g46">
              <use
                 xlink:href="#mc019440935"
                 x="57.6"
                 y="207.263103"
                 style="stroke: #000000; stroke-width: 0.8"
                 id="use46" />
            </g>
          </g>
          <g
             id="text_9">
            <!-- 0 -->
            <g
               transform="translate(42.965 211.822165) scale(0.12 -0.12)"
               id="g47">
              <use
                 xlink:href="#DejaVuSans-30"
                 id="use47" />
            </g>
          </g>
        </g>
        <g
           id="ytick_3">
          <g
             id="line2d_9">
            <g
               id="g48">
              <use
                 xlink:href="#mc019440935"
                 x="57.6"
                 y="154.639306"
                 style="stroke: #000000; stroke-width: 0.8"
                 id="use48" />
            </g>
          </g>
          <g
             id="text_10">
            <!-- 50 -->
            <g
               transform="translate(35.33 159.198369) scale(0.12 -0.12)"
               id="g50">
              <use
                 xlink:href="#DejaVuSans-35"
                 id="use49" />
              <use
                 xlink:href="#DejaVuSans-30"
                 x="63.623047"
                 id="use50" />
            </g>
          </g>
        </g>
        <g
           id="ytick_4">
          <g
             id="line2d_10">
            <g
               id="g51">
              <use
                 xlink:href="#mc019440935"
                 x="57.6"
                 y="102.01551"
                 style="stroke: #000000; stroke-width: 0.8"
                 id="use51" />
            </g>
          </g>
          <g
             id="text_11">
            <!-- 100 -->
            <g
               transform="translate(27.695 106.574573) scale(0.12 -0.12)"
               id="g54">
              <defs
                 id="defs51">
                <path
                   id="DejaVuSans-31"
                   d="M 794 531  L 1825 531  L 1825 4091  L 703 3866  L 703 4441  L 1819 4666  L 2450 4666  L 2450 531  L 3481 531  L 3481 0  L 794 0  L 794 531  z "
                   transform="scale(0.015625)" />
              </defs>
              <use
                 xlink:href="#DejaVuSans-31"
                 id="use52" />
              <use
                 xlink:href="#DejaVuSans-30"
                 x="63.623047"
                 id="use53" />
              <use
                 xlink:href="#DejaVuSans-30"
                 x="127.246094"
                 id="use54" />
            </g>
          </g>
        </g>
        <g
           id="ytick_5">
          <g
             id="line2d_11">
            <g
               id="g55">
              <use
                 xlink:href="#mc019440935"
                 x="57.6"
                 y="49.391714"
                 style="stroke: #000000; stroke-width: 0.8"
                 id="use55" />
            </g>
          </g>
          <g
             id="text_12">
            <!-- 150 -->
            <g
               transform="translate(27.695 53.950777) scale(0.12 -0.12)"
               id="g58">
              <use
                 xlink:href="#DejaVuSans-31"
                 id="use56" />
              <use
                 xlink:href="#DejaVuSans-35"
                 x="63.623047"
                 id="use57" />
              <use
                 xlink:href="#DejaVuSans-30"
                 x="127.246094"
                 id="use58" />
            </g>
          </g>
        </g>
        <g
           id="text_13">
          <!-- Power $p$ -->
          <g
             transform="translate(19.174375 194.628) rotate(-90) scale(0.1 -0.1)"
             id="g65">
            <defs
               id="defs58">
              <path
                 id="DejaVuSans-50"
                 d="M 1259 4147  L 1259 2394  L 2053 2394  Q 2494 2394 2734 2622  Q 2975 2850 2975 3272  Q 2975 3691 2734 3919  Q 2494 4147 2053 4147  L 1259 4147  z M 628 4666  L 2053 4666  Q 2838 4666 3239 4311  Q 3641 3956 3641 3272  Q 3641 2581 3239 2228  Q 2838 1875 2053 1875  L 1259 1875  L 1259 0  L 628 0  L 628 4666  z "
                 transform="scale(0.015625)" />
              <path
                 id="DejaVuSans-6f"
                 d="M 1959 3097  Q 1497 3097 1228 2736  Q 959 2375 959 1747  Q 959 1119 1226 758  Q 1494 397 1959 397  Q 2419 397 2687 759  Q 2956 1122 2956 1747  Q 2956 2369 2687 2733  Q 2419 3097 1959 3097  z M 1959 3584  Q 2709 3584 3137 3096  Q 3566 2609 3566 1747  Q 3566 888 3137 398  Q 2709 -91 1959 -91  Q 1206 -91 779 398  Q 353 888 353 1747  Q 353 2609 779 3096  Q 1206 3584 1959 3584  z "
                 transform="scale(0.015625)" />
              <path
                 id="DejaVuSans-77"
                 d="M 269 3500  L 844 3500  L 1563 769  L 2278 3500  L 2956 3500  L 3675 769  L 4391 3500  L 4966 3500  L 4050 0  L 3372 0  L 2619 2869  L 1863 0  L 1184 0  L 269 3500  z "
                 transform="scale(0.015625)" />
              <path
                 id="DejaVuSans-72"
                 d="M 2631 2963  Q 2534 3019 2420 3045  Q 2306 3072 2169 3072  Q 1681 3072 1420 2755  Q 1159 2438 1159 1844  L 1159 0  L 581 0  L 581 3500  L 1159 3500  L 1159 2956  Q 1341 3275 1631 3429  Q 1922 3584 2338 3584  Q 2397 3584 2469 3576  Q 2541 3569 2628 3553  L 2631 2963  z "
                 transform="scale(0.015625)" />
              <path
                 id="DejaVuSans-Oblique-70"
                 d="M 3175 2156  Q 3175 2616 2975 2859  Q 2775 3103 2400 3103  Q 2144 3103 1911 2972  Q 1678 2841 1497 2591  Q 1319 2344 1212 1994  Q 1106 1644 1106 1300  Q 1106 863 1306 627  Q 1506 391 1875 391  Q 2147 391 2380 519  Q 2613 647 2778 891  Q 2956 1147 3065 1494  Q 3175 1841 3175 2156  z M 1394 2969  Q 1625 3272 1939 3428  Q 2253 3584 2638 3584  Q 3175 3584 3472 3232  Q 3769 2881 3769 2247  Q 3769 1728 3584 1258  Q 3400 788 3053 416  Q 2822 169 2531 39  Q 2241 -91 1919 -91  Q 1547 -91 1294 64  Q 1041 219 916 525  L 556 -1331  L -19 -1331  L 922 3500  L 1497 3500  L 1394 2969  z "
                 transform="scale(0.015625)" />
            </defs>
            <use
               xlink:href="#DejaVuSans-50"
               transform="translate(0 0.09375)"
               id="use59" />
            <use
               xlink:href="#DejaVuSans-6f"
               transform="translate(60.302734 0.09375)"
               id="use60" />
            <use
               xlink:href="#DejaVuSans-77"
               transform="translate(121.484375 0.09375)"
               id="use61" />
            <use
               xlink:href="#DejaVuSans-65"
               transform="translate(203.271484 0.09375)"
               id="use62" />
            <use
               xlink:href="#DejaVuSans-72"
               transform="translate(264.794922 0.09375)"
               id="use63" />
            <use
               xlink:href="#DejaVuSans-20"
               transform="translate(305.908203 0.09375)"
               id="use64" />
            <use
               xlink:href="#DejaVuSans-Oblique-70"
               transform="translate(337.695312 0.09375)"
               id="use65" />
          </g>
        </g>
      </g>
      <g
         id="line2d_12">
        <path
           d="M 73.832727 207.263103  L 81.307256 206.997981  L 87.156888 207.068393  L 96.256314 207.191524  L 104.380803 207.011084  L 112.83027 206.891271  L 150.202916 206.901774  L 171.976544 206.657662  L 188.22552 206.790882  L 204.799476 207.100167  L 217.798657 207.11208  L 232.097756 207.428808  L 239.247305 207.115513  L 244.771957 206.994003  L 251.596527 207.12147  L 258.746077 207.19015  L 267.195545 206.998009  L 275.320033 206.891734  L 311.39276 206.918908  L 336.741163 206.661618  L 350.715283 206.794953  L 366.964259 207.101236  L 380.288419 207.116685  L 394.262539 207.433061  L 398.487273 207.263103  L 398.487273 207.263103  "
           clip-path="url(#pdb0ea82c2c)"
           style="fill: none; stroke: #172c4b; stroke-opacity: 0.81; stroke-linecap: square"
           id="path65" />
      </g>
      <g
         id="line2d_13">
        <path
           d="M 73.832727 207.263103  L 79.0324 206.678116  L 82.282195 206.56651  L 85.85697 206.6893  L 94.631417 207.101148  L 99.50611 207.018541  L 109.255495 206.784774  L 115.755086 206.947264  L 122.254676 207.042007  L 128.429287 206.873123  L 137.203735 206.632472  L 185.625684 206.277875  L 190.825356 206.29715  L 196.999967 206.56626  L 203.824537 206.806797  L 210.649107 206.767046  L 216.173759 206.822658  L 220.398493 207.099387  L 228.847961 207.77259  L 231.772776 207.712412  L 235.022572 207.40668  L 242.172121 206.627119  L 245.421916 206.575656  L 249.64665 206.780163  L 255.821261 207.086101  L 260.370975 207.063203  L 273.370156 206.809961  L 287.019296 206.999715  L 304.24321 206.651208  L 313.667617 206.63979  L 328.616675 206.429252  L 339.990958 206.481689  L 353.315119 206.301395  L 359.814709 206.591227  L 366.3143 206.808528  L 373.463849 206.762677  L 378.663522 206.829147  L 382.888256 207.114019  L 391.012744 207.769342  L 393.937559 207.721676  L 397.187355 207.42624  L 398.487273 207.263103  L 398.487273 207.263103  "
           clip-path="url(#pdb0ea82c2c)"
           style="fill: none; stroke: #172c4b; stroke-opacity: 0.71; stroke-linecap: square"
           id="path66" />
      </g>
      <g
         id="line2d_14">
        <path
           d="M 73.832727 207.263103  L 78.70742 206.380059  L 81.307256 206.179801  L 83.907093 206.224374  L 87.481867 206.549187  L 92.68154 207.020824  L 96.256314 207.096803  L 100.481048 206.940888  L 109.255495 206.54484  L 114.130188 206.609082  L 123.229615 206.782469  L 128.429287 206.60022  L 139.153612 206.156402  L 146.628141 206.168961  L 176.851237 206.275352  L 189.525438 206.005074  L 194.725111 206.240601  L 201.87466 206.56415  L 206.749353 206.526625  L 214.873841 206.41096  L 218.123636 206.621157  L 221.698411 207.095336  L 227.548043 207.940001  L 229.822899 208.039689  L 232.097756 207.92281  L 234.697592 207.547297  L 242.172121 206.261328  L 244.771957 206.17153  L 247.696773 206.333646  L 257.121179 207.093707  L 261.020934 207.029967  L 274.020115 206.55163  L 288.969173 206.683795  L 303.918231 206.140541  L 327.966716 206.2512  L 336.741163 206.329405  L 343.565733 206.117298  L 350.065324 205.978825  L 354.940016 206.123101  L 365.664341 206.576214  L 371.188993 206.464138  L 376.713645 206.397868  L 379.96344 206.57527  L 383.213235 206.96993  L 390.687764 207.998788  L 392.962621 208.023385  L 395.237477 207.829606  L 398.162293 207.328701  L 398.487273 207.263103  L 398.487273 207.263103  "
           clip-path="url(#pdb0ea82c2c)"
           style="fill: none; stroke: #172c4b; stroke-opacity: 0.61; stroke-linecap: square"
           id="path67" />
      </g>
      <g
         id="line2d_15">
        <path
           d="M 73.832727 207.263103  L 77.732482 205.921006  L 79.682359 205.496202  L 81.632236 205.325558  L 83.582113 205.394851  L 86.181949 205.738426  L 91.056642 206.444634  L 93.656478 206.572986  L 96.581294 206.465365  L 101.455987 205.979361  L 105.030762 205.739023  L 107.630598 205.783765  L 110.230434 206.04069  L 114.455168 206.731209  L 118.029943 207.241409  L 120.629779 207.408273  L 123.554595 207.354307  L 127.129369 207.028327  L 134.928878 206.217284  L 138.503653 206.116633  L 143.378346 206.240147  L 148.902998 206.336888  L 153.452711 206.166019  L 162.227158 205.746697  L 166.776871 205.829508  L 173.601441 205.985641  L 177.176216 205.800493  L 181.075971 205.349975  L 187.900541 204.50595  L 190.500377 204.428193  L 193.100213 204.578398  L 196.025029 204.992282  L 203.499558 206.208222  L 206.424373 206.358619  L 209.999148 206.276341  L 215.5238 206.126253  L 218.123636 206.308981  L 220.398493 206.677331  L 223.323309 207.38747  L 227.223063 208.341813  L 229.17294 208.5849  L 230.797838 208.581533  L 232.422735 208.371993  L 234.372613 207.876174  L 237.297428 206.842532  L 240.222244 205.876742  L 242.172121 205.472039  L 244.121998 205.322813  L 246.071876 205.409601  L 248.671712 205.764914  L 253.546405 206.459207  L 256.146241 206.573554  L 259.071057 206.45309  L 269.145422 205.746298  L 271.745258 205.939746  L 274.995053 206.421818  L 280.194726 207.224349  L 282.794562 207.403918  L 285.394398 207.37953  L 288.644193 207.118885  L 298.393579 206.16142  L 301.968354 206.126823  L 314.317576 206.24351  L 326.341818 205.753304  L 338.69104 205.864067  L 342.265815 205.501422  L 351.040262 204.458923  L 353.640098 204.450077  L 356.239934 204.67102  L 359.48973 205.197965  L 365.014382 206.123151  L 367.939197 206.340723  L 371.188993 206.323549  L 378.338542 206.142569  L 380.938378 206.371299  L 383.538215 206.853469  L 391.337723 208.574248  L 392.962621 208.591138  L 394.587518 208.401987  L 396.537396 207.925902  L 398.487273 207.263103  L 398.487273 207.263103  "
           clip-path="url(#pdb0ea82c2c)"
           style="fill: none; stroke: #172c4b; stroke-opacity: 0.51; stroke-linecap: square"
           id="path68" />
      </g>
      <g
         id="line2d_16">
        <path
           d="M 73.832727 207.263103  L 77.407502 204.966898  L 79.0324 204.196541  L 80.332318 203.7914  L 81.632236 203.591035  L 82.932154 203.587698  L 84.557052 203.818498  L 86.831908 204.430619  L 91.381622 205.756552  L 93.656478 206.132397  L 95.931335 206.251726  L 98.531171 206.139966  L 106.655659 205.580011  L 109.255495 205.7241  L 112.505291 206.155284  L 118.354922 207.006472  L 121.279738 207.170019  L 124.204554 207.110737  L 129.404226 206.723082  L 133.62896 206.510023  L 137.203735 206.558454  L 147.603079 206.922601  L 150.852875 206.695996  L 155.077609 206.154592  L 162.227158 205.199382  L 165.801933 204.984179  L 170.026667 204.988917  L 175.876298 204.998212  L 179.451073 204.749346  L 184.325766 204.132479  L 188.5505 203.678356  L 191.150336 203.609397  L 193.750172 203.754296  L 196.999967 204.177615  L 202.524619 204.938341  L 205.449435 205.078794  L 208.69923 204.989538  L 213.898903 204.810848  L 216.173759 204.999196  L 218.123636 205.400599  L 220.073514 206.047319  L 222.34837 207.061886  L 226.573104 209.048846  L 228.198002 209.539468  L 229.49792 209.716638  L 230.797838 209.667875  L 232.097756 209.383441  L 233.397674 208.877451  L 235.022572 207.992558  L 241.197183 204.261116  L 242.497101 203.830919  L 243.797019 203.604946  L 245.096937 203.578097  L 246.721835 203.785609  L 248.671712 204.281962  L 254.196364 205.858874  L 256.47122 206.178762  L 258.746077 206.247728  L 261.670893 206.070511  L 267.845504 205.584326  L 270.44534 205.634933  L 273.370156 205.935473  L 282.469582 207.134704  L 285.394398 207.156735  L 289.294152 206.919842  L 295.468763 206.520582  L 299.043538 206.539842  L 305.218149 206.879275  L 308.792924 206.950846  L 312.042719 206.798729  L 315.617494 206.407197  L 326.341818 205.061923  L 329.916593 204.960977  L 340.315938 204.879492  L 344.215692 204.462027  L 351.040262 203.668171  L 353.640098 203.612159  L 356.239934 203.770077  L 359.48973 204.202826  L 364.689402 204.923603  L 367.614218 205.077204  L 370.864013 204.998017  L 376.388665 204.815954  L 378.338542 204.97648  L 380.288419 205.357748  L 382.238296 205.984474  L 384.513153 206.982911  L 389.062867 209.109132  L 390.687764 209.573094  L 391.987682 209.723318  L 393.2876 209.645153  L 394.587518 209.331755  L 395.887437 208.800258  L 397.512334 207.892444  L 398.487273 207.263103  L 398.487273 207.263103  "
           clip-path="url(#pdb0ea82c2c)"
           style="fill: none; stroke: #172c4b; stroke-opacity: 0.41; stroke-linecap: square"
           id="path69" />
      </g>
      <g
         id="line2d_17">
        <path
           d="M 73.832727 207.263103  L 77.407502 203.818353  L 78.70742 202.842704  L 80.007338 202.13284  L 81.307256 201.720976  L 82.607174 201.606624  L 83.907093 201.759891  L 85.207011 202.12828  L 87.156888 202.937974  L 91.381622 204.784366  L 93.331499 205.343185  L 95.281376 205.641698  L 97.231253 205.711174  L 99.831089 205.571885  L 104.705782 205.260341  L 106.980639 205.339745  L 109.255495 205.624966  L 112.180311 206.227679  L 117.055004 207.274098  L 119.65484 207.565949  L 121.929697 207.600958  L 124.529533 207.422228  L 128.754267 206.867811  L 133.30398 206.339583  L 136.553776 206.198952  L 140.12855 206.281107  L 147.603079 206.529976  L 150.852875 206.377025  L 155.077609 205.933741  L 161.902179 205.185853  L 165.476953 205.043909  L 171.326585 205.10722  L 174.90136 205.017744  L 177.826175 204.721621  L 180.750991 204.208507  L 190.500377 202.255765  L 192.775233 202.17436  L 195.05009 202.318559  L 197.974906 202.746354  L 202.849599 203.495179  L 205.449435 203.649871  L 208.374251 203.578869  L 213.573923 203.39069  L 215.5238 203.598325  L 217.148698 204.000239  L 218.773595 204.647004  L 220.398493 205.539203  L 222.34837 206.870059  L 226.573104 209.84935  L 227.873022 210.473814  L 229.17294 210.825148  L 230.147879 210.876734  L 231.122817 210.732746  L 232.097756 210.392086  L 233.397674 209.651076  L 234.697592 208.6337  L 236.647469 206.776907  L 239.572285 203.956133  L 241.197183 202.738457  L 242.497101 202.064761  L 243.797019 201.690765  L 245.096937 201.61204  L 246.396855 201.79544  L 248.021753 202.308605  L 250.296609 203.317912  L 253.221425 204.605981  L 255.171302 205.227901  L 257.121179 205.590616  L 259.071057 205.711876  L 261.670893 205.610038  L 267.520524 205.260488  L 269.795381 205.383808  L 272.395217 205.77155  L 276.294971 206.647634  L 279.544767 207.299813  L 281.819623 207.555564  L 284.09448 207.60501  L 286.694316 207.438776  L 290.91905 206.890707  L 295.468763 206.352618  L 298.718559 206.200536  L 302.293333 206.273668  L 310.092842 206.527156  L 313.667617 206.33752  L 318.21733 205.832218  L 324.066962 205.197549  L 327.641736 205.045753  L 332.841409 205.099546  L 336.741163 205.045629  L 339.665979 204.786729  L 342.590794 204.30718  L 346.815528 203.351954  L 350.715283 202.526882  L 353.315119 202.218862  L 355.589975 202.187121  L 357.864832 202.37492  L 361.439607 202.944757  L 365.339361 203.511405  L 367.939197 203.652066  L 370.864013 203.569706  L 375.738706 203.384322  L 377.688583 203.570531  L 379.313481 203.949365  L 380.938378 204.57098  L 382.563276 205.439786  L 384.513153 206.751496  L 388.737887 209.755576  L 390.037805 210.40935  L 391.337723 210.798216  L 392.312662 210.881527  L 393.2876 210.77051  L 394.262539 210.46223  L 395.562457 209.760234  L 396.862375 208.773381  L 398.487273 207.263103  L 398.487273 207.263103  "
           clip-path="url(#pdb0ea82c2c)"
           style="fill: none; stroke: #172c4b; stroke-opacity: 0.31; stroke-linecap: square"
           id="path70" />
      </g>
      <g
         id="line2d_18">
        <path
           d="M 73.832727 207.263103  L 77.732482 201.82936  L 79.0324 200.436592  L 80.007338 199.635081  L 80.982277 199.064848  L 81.957215 198.731593  L 82.932154 198.627877  L 83.907093 198.734673  L 85.207011 199.154504  L 86.831908 200.004309  L 93.006519 203.694007  L 94.631417 204.274579  L 96.256314 204.630963  L 98.206192 204.811182  L 100.806028 204.790676  L 105.355741 204.728221  L 107.630598 204.934558  L 109.905455 205.350471  L 113.15525 206.19288  L 117.055004 207.174235  L 119.329861 207.534814  L 121.604717 207.679543  L 124.204554 207.605781  L 128.104308 207.217343  L 132.979001 206.76186  L 136.228796 206.681391  L 140.45353 206.821556  L 145.653202 206.971997  L 148.902998 206.841432  L 152.477772 206.461751  L 157.677445 205.642527  L 163.202097 204.829679  L 167.101851 204.49935  L 176.201278 203.891191  L 179.126093 203.376874  L 182.375889 202.563635  L 189.200459 200.759812  L 191.475315 200.439145  L 193.750172 200.358867  L 196.025029 200.501898  L 199.924783 201.022201  L 203.174578 201.368096  L 205.774414 201.424229  L 209.674169 201.225147  L 212.274005 201.184344  L 213.898903 201.352012  L 215.5238 201.762374  L 216.823718 202.309433  L 218.123636 203.073181  L 219.748534 204.333057  L 221.373432 205.884829  L 226.573104 211.170032  L 227.873022 212.026056  L 228.847961 212.413151  L 229.822899 212.546604  L 230.797838 212.407398  L 231.772776 211.990298  L 232.747715 211.304898  L 233.722654 210.375611  L 235.022572 208.824762  L 236.972449 206.086036  L 239.572285 202.432635  L 240.872203 200.918517  L 242.172121 199.752961  L 243.14706 199.143415  L 244.121998 198.770841  L 245.096937 198.629901  L 246.071876 198.703361  L 247.371794 199.087102  L 248.671712 199.720952  L 250.946568 201.154055  L 253.871384 202.978668  L 255.496282 203.762477  L 257.121179 204.319973  L 258.746077 204.655336  L 260.695954 204.816619  L 263.62077 204.772169  L 267.520524 204.721426  L 269.795381 204.912676  L 272.070238 205.31455  L 275.320033 206.14778  L 279.544767 207.206668  L 281.819623 207.5524  L 284.09448 207.681793  L 286.694316 207.594457  L 290.59407 207.198721  L 295.468763 206.752886  L 298.718559 206.682635  L 303.268272 206.844912  L 308.142965 206.970533  L 311.39276 206.829233  L 314.967535 206.439645  L 320.492187 205.561407  L 325.691859 204.811301  L 329.591613 204.490104  L 338.366061 203.913105  L 341.290876 203.411385  L 344.540672 202.608788  L 351.690221 200.729562  L 353.965078 200.425269  L 356.239934 200.362282  L 358.839771 200.555068  L 366.964259 201.426047  L 369.889075 201.353683  L 374.438788 201.177957  L 376.063686 201.325554  L 377.688583 201.708405  L 378.988501 202.229453  L 380.288419 202.965602  L 381.588337 203.921089  L 383.213235 205.394001  L 385.813071 208.148871  L 388.087928 210.476643  L 389.387846 211.531668  L 390.362785 212.107006  L 391.337723 212.453679  L 392.312662 212.542658  L 393.2876 212.357107  L 394.262539 211.894217  L 395.237477 211.166085  L 396.537396 209.830936  L 398.162293 207.722941  L 398.487273 207.263103  L 398.487273 207.263103  "
           clip-path="url(#pdb0ea82c2c)"
           style="fill: none; stroke: #172c4b; stroke-opacity: 0.21; stroke-linecap: square"
           id="path71" />
      </g>
      <g
         id="line2d_19">
        <path
           d="M 73.832727 207.263103  L 77.732482 196.178394  L 79.0324 193.276322  L 80.007338 191.57896  L 80.982277 190.345914  L 81.632236 189.792815  L 82.282195 189.455127  L 82.932154 189.327677  L 83.582113 189.400921  L 84.232072 189.661458  L 85.207011 190.366268  L 86.181949 191.387944  L 87.481867 193.114148  L 89.756724 196.63203  L 92.031581 200.067769  L 93.656478 202.148251  L 94.956396 203.506633  L 96.256314 204.580966  L 97.556233 205.388855  L 98.856151 205.96651  L 100.481048 206.436633  L 102.430925 206.76051  L 110.880393 207.875388  L 115.755086 208.698038  L 118.029943 208.867762  L 120.304799 208.825496  L 122.904636 208.533373  L 126.47941 207.857183  L 132.654021 206.64456  L 135.903817 206.238936  L 139.153612 206.051637  L 143.378346 206.049659  L 150.527895 206.057167  L 156.052547 205.776996  L 162.552138 205.474039  L 173.601441 205.170192  L 176.201278 204.780019  L 178.801114 204.159686  L 181.40095 203.302063  L 184.325766 202.092284  L 193.425192 198.108281  L 196.350008 197.215531  L 205.124455 194.755455  L 209.349189 193.391308  L 210.974087 193.116881  L 212.274005 193.129207  L 213.248943 193.323156  L 214.223882 193.710292  L 215.198821 194.318952  L 216.173759 195.172078  L 217.148698 196.28461  L 218.448616 198.177215  L 219.748534 200.510979  L 221.373432 203.930984  L 225.923145 213.987341  L 226.898084 215.624289  L 227.873022 216.874129  L 228.522981 217.454331  L 229.17294 217.810593  L 229.822899 217.929273  L 230.472858 217.801606  L 231.122817 217.424117  L 231.772776 216.798882  L 232.747715 215.414938  L 233.722654 213.541601  L 235.022572 210.415774  L 236.647469 205.840903  L 239.572285 197.423768  L 240.872203 194.285706  L 241.847142 192.371878  L 242.82208 190.902532  L 243.797019 189.910795  L 244.446978 189.519559  L 245.096937 189.340281  L 245.746896 189.364467  L 246.396855 189.579626  L 247.371794 190.224874  L 248.346732 191.198754  L 249.64665 192.881039  L 251.596527 195.859636  L 254.521343 200.293106  L 256.146241 202.333571  L 257.446159 203.656322  L 258.746077 204.695926  L 260.045995 205.472763  L 261.345913 206.024796  L 262.970811 206.471691  L 265.245667 206.81778  L 272.070238 207.667669  L 278.894808 208.781442  L 281.169664 208.87755  L 283.444521 208.75957  L 286.044357 208.399959  L 290.269091 207.545792  L 295.143784 206.619242  L 298.393579 206.224465  L 301.643374 206.047479  L 306.193088 206.057688  L 312.692678 206.061854  L 318.21733 205.787061  L 325.0419 205.470677  L 335.766224 205.187638  L 338.366061 204.810903  L 340.965897 204.205501  L 343.565733 203.362267  L 346.490549 202.164815  L 355.914955 198.052512  L 358.839771 197.171783  L 366.964259 194.92203  L 371.838952 193.352976  L 373.463849 193.105288  L 374.763767 193.149424  L 375.738706 193.373449  L 376.713645 193.795652  L 377.688583 194.443647  L 378.663522 195.339224  L 379.63846 196.495735  L 380.938378 198.445848  L 382.238296 200.830581  L 383.863194 204.295565  L 388.087928 213.682955  L 389.387846 215.861708  L 390.362785 217.03926  L 391.012744 217.565003  L 391.662703 217.862966  L 392.312662 217.92068  L 392.962621 217.73067  L 393.61258 217.290829  L 394.262539 216.604645  L 395.237477 215.134972  L 396.212416 213.186734  L 397.512334 209.984615  L 398.487273 207.263103  L 398.487273 207.263103  "
           clip-path="url(#pdb0ea82c2c)"
           style="fill: none; stroke: #172c4b; stroke-opacity: 0.11; stroke-linecap: square"
           id="path72" />
      </g>
      <g
         id="line2d_20">
        <path
           d="M 73.832727 207.263103  L 78.057461 112.043447  L 79.357379 88.634118  L 80.332318 74.571366  L 81.307256 63.950157  L 81.957215 58.9031  L 82.607174 55.522669  L 82.932154 54.458457  L 83.257133 53.808426  L 83.582113 53.568  L 83.907093 53.730913  L 84.232072 54.289292  L 84.557052 55.233741  L 85.207011 58.236221  L 85.85697 62.63641  L 86.831908 71.591247  L 87.806847 82.956933  L 89.106765 100.983926  L 91.056642 131.671934  L 94.306437 183.26285  L 95.931335 205.757245  L 97.231253 221.2029  L 98.531171 234.095885  L 99.50611 242.02836  L 100.481048 248.476308  L 101.455987 253.478097  L 102.430925 257.095742  L 103.080885 258.77713  L 103.730844 259.904968  L 104.380803 260.507732  L 104.705782 260.621511  L 105.030762 260.615327  L 105.680721 260.25877  L 106.33068 259.469994  L 106.980639 258.281717  L 107.955577 255.823603  L 108.930516 252.657982  L 110.230434 247.544095  L 111.855332 240.132678  L 117.055004 215.515794  L 118.354922 210.654922  L 119.329861 207.639549  L 120.304799 205.227332  L 121.279738 203.447224  L 121.929697 202.613548  L 122.579656 202.055608  L 123.229615 201.761573  L 123.879574 201.714497  L 124.529533 201.892722  L 125.179492 202.270419  L 126.154431 203.145979  L 127.454349 204.716608  L 130.704144 208.9461  L 131.679083 209.866015  L 132.654021 210.481663  L 133.30398 210.699078  L 133.953939 210.752311  L 134.603898 210.638462  L 135.253857 210.359363  L 136.228796 209.645814  L 137.203735 208.613783  L 138.503653 206.839755  L 140.45353 203.668931  L 143.053366 199.456449  L 144.353284 197.738847  L 145.328223 196.730537  L 146.303161 196.005219  L 147.2781 195.587686  L 148.253038 195.489952  L 149.227977 195.711912  L 150.202916 196.242345  L 151.177854 197.060124  L 152.152793 198.135518  L 153.452711 199.905195  L 155.077609 202.507894  L 159.627322 210.131924  L 160.92724 211.845515  L 161.902179 212.859145  L 162.877117 213.596807  L 163.852056 214.029669  L 164.826994 214.140393  L 165.801933 213.924968  L 166.776871 213.394123  L 167.75181 212.574118  L 169.051728 211.105313  L 170.676626 208.867705  L 173.276462 205.200602  L 174.57638 203.745091  L 175.551319 202.965027  L 176.526257 202.513925  L 177.176216 202.413774  L 177.826175 202.479846  L 178.476134 202.71137  L 179.451073 203.354069  L 180.426011 204.310783  L 181.72593 205.951068  L 184.975725 210.304924  L 185.950663 211.153915  L 186.600622 211.477477  L 187.250581 211.562979  L 187.900541 211.375579  L 188.5505 210.883853  L 189.200459 210.060399  L 189.850418 208.882323  L 190.500377 207.331603  L 191.475315 204.280001  L 192.450254 200.340615  L 193.425192 195.518116  L 194.725111 187.768865  L 196.025029 178.636967  L 197.649926 165.57697  L 199.924783 145.117367  L 204.799476 100.262501  L 206.424373 87.739132  L 207.724292 79.611675  L 208.69923 74.946219  L 209.349189 72.635795  L 209.999148 71.038389  L 210.649107 70.214642  L 210.974087 70.111029  L 211.299066 70.222094  L 211.624046 70.55432  L 211.949025 71.113821  L 212.598984 72.936957  L 213.248943 75.731092  L 213.898903 79.526609  L 214.873841 87.136698  L 215.84878 97.051788  L 216.823718 109.207506  L 218.123636 128.62875  L 219.748534 157.158835  L 222.67335 214.355081  L 224.623227 250.215052  L 225.923145 270.050886  L 226.898084 281.73303  L 227.548043 287.69623  L 228.198002 292.042646  L 228.847961 294.665867  L 229.17294 295.305747  L 229.49792 295.488  L 229.822899 295.207781  L 230.147879 294.462318  L 230.472858 293.250961  L 231.122817 289.438735  L 231.772776 283.809149  L 232.422735 276.434792  L 233.397674 262.342932  L 234.372613 245.061917  L 235.672531 218.164151  L 238.272367 158.072082  L 240.222244 115.288804  L 241.522162 91.287368  L 242.497101 76.684782  L 243.472039 65.469493  L 244.121998 60.009263  L 244.771957 56.211045  L 245.421916 54.081915  L 245.746896 53.637366  L 246.071876 53.599494  L 246.396855 53.961221  L 246.721835 54.713902  L 247.371794 57.350251  L 248.021753 61.411608  L 248.671712 66.782284  L 249.64665 77.003622  L 250.946568 93.905709  L 252.571466 118.560307  L 257.121179 190.342469  L 258.746077 211.836279  L 260.045995 226.345108  L 261.345913 238.248965  L 262.320852 245.436139  L 263.29579 251.15457  L 264.270729 255.455321  L 264.920688 257.569477  L 265.570647 259.1099  L 266.220606 260.103738  L 266.870565 260.579859  L 267.195545 260.633171  L 267.520524 260.568469  L 268.170483 260.100832  L 268.820442 259.209084  L 269.470401 257.92613  L 270.44534 255.341947  L 271.420278 252.069943  L 272.720197 246.845958  L 274.345094 239.349983  L 279.219787 216.182943  L 280.519705 211.212637  L 281.819623 207.194514  L 282.794562 204.886364  L 283.7695 203.212508  L 284.419459 202.448584  L 285.069419 201.957935  L 285.719378 201.727421  L 286.369337 201.738873  L 287.019296 201.969538  L 287.669255 202.392638  L 288.644193 203.321486  L 289.944111 204.933099  L 292.868927 208.76777  L 293.843866 209.73222  L 294.818804 210.402458  L 295.793743 210.727974  L 296.443702 210.739521  L 297.093661 210.584007  L 298.0686 210.045231  L 299.043538 209.166508  L 300.018477 207.995053  L 301.318395 206.086849  L 306.518067 197.931949  L 307.493006 196.879796  L 308.467944 196.105241  L 309.442883 195.635237  L 310.417821 195.483894  L 311.39276 195.653065  L 312.367699 196.1333  L 313.342637 196.905037  L 314.317576 197.939886  L 315.617494 199.665977  L 317.242391 202.233894  L 322.117084 210.365607  L 323.417002 212.032096  L 324.391941 213.00216  L 325.36688 213.690738  L 326.341818 214.070776  L 327.316757 214.127037  L 328.291695 213.857883  L 329.266634 213.276597  L 330.241572 212.41205  L 331.541491 210.897354  L 333.491368 208.155833  L 335.766224 204.9975  L 337.066143 203.594324  L 338.041081 202.865803  L 339.01602 202.473457  L 339.665979 202.41465  L 340.315938 202.522362  L 340.965897 202.794507  L 341.940835 203.493278  L 342.915774 204.496243  L 344.215692 206.175764  L 347.140508 210.128937  L 348.115446 211.040181  L 348.765405 211.417478  L 349.415364 211.565881  L 350.065324 211.449797  L 350.715283 211.036887  L 351.365242 210.298695  L 352.015201 209.21116  L 352.66516 207.755013  L 353.640098 204.85  L 354.615037 201.05895  L 355.589975 196.382233  L 356.889894 188.816478  L 358.189812 179.847988  L 359.814709 166.953452  L 362.089566 146.634387  L 367.289238 98.915997  L 368.914136 86.618964  L 369.889075 80.516508  L 370.864013 75.627931  L 371.513972 73.148975  L 372.163931 71.367535  L 372.81389 70.344836  L 373.13887 70.13642  L 373.463849 70.139314  L 373.788829 70.36017  L 374.113808 70.805295  L 374.763767 72.391544  L 375.413726 74.939692  L 376.063686 78.482582  L 376.713645 83.04258  L 377.688583 91.808247  L 378.663522 102.856825  L 379.96344 120.943651  L 381.263358 142.390417  L 383.213235 179.03631  L 386.78801 247.456548  L 388.087928 267.81549  L 389.062867 280.004537  L 389.712826 286.352264  L 390.362785 291.1139  L 391.012744 294.176386  L 391.337723 295.042627  L 391.662703 295.454428  L 391.987682 295.405922  L 392.312662 294.893295  L 392.637641 293.914833  L 393.2876 290.564249  L 393.937559 285.383538  L 394.587518 278.436706  L 395.562457 264.92814  L 396.537396 248.138381  L 397.837314 221.71621  L 398.487273 207.263103  L 398.487273 207.263103  "
           clip-path="url(#pdb0ea82c2c)"
           style="fill: none; stroke: #172c4b; stroke-opacity: 0.01; stroke-linecap: square"
           id="path73" />
      </g>
      <g
         id="line2d_21">
        <path
           d="M 73.832727 207.263103  L 85.85697 207.151137  L 99.18113 206.795883  L 121.279738 205.934188  L 138.503653 205.365457  L 151.177854 205.169584  L 163.202097 205.210839  L 175.876298 205.483532  L 192.450254 206.083558  L 218.448616 207.025309  L 231.122817 207.243162  L 243.14706 207.224842  L 255.821261 206.972738  L 271.745258 206.41294  L 300.343456 205.377444  L 313.017658 205.172692  L 325.0419 205.204815  L 337.716102 205.469306  L 353.965078 206.05077  L 380.938378 207.029484  L 393.61258 207.244424  L 398.487273 207.263103  L 398.487273 207.263103  "
           clip-path="url(#pdb0ea82c2c)"
           style="fill: none; stroke-dasharray: 5.55,2.4; stroke-dashoffset: 0; stroke: #3b65ac; stroke-width: 1.5"
           id="path74" />
      </g>
      <g
         id="patch_3">
        <path
           d="M 57.6 307.584  L 57.6 41.472  "
           style="fill: none; stroke: #000000; stroke-width: 0.8; stroke-linejoin: miter; stroke-linecap: square"
           id="path75" />
      </g>
      <g
         id="patch_4">
        <path
           d="M 414.72 307.584  L 414.72 41.472  "
           style="fill: none; stroke: #000000; stroke-width: 0.8; stroke-linejoin: miter; stroke-linecap: square"
           id="path76" />
      </g>
      <g
         id="patch_5">
        <path
           d="M 57.6 307.584  L 414.72 307.584  "
           style="fill: none; stroke: #000000; stroke-width: 0.8; stroke-linejoin: miter; stroke-linecap: square"
           id="path77" />
      </g>
      <g
         id="patch_6">
        <path
           d="M 57.6 41.472  L 414.72 41.472  "
           style="fill: none; stroke: #000000; stroke-width: 0.8; stroke-linejoin: miter; stroke-linecap: square"
           id="path78" />
      </g>
      <g
         id="text_14">
        <!-- Power Waveform: Higher Harmonics Oscillator -->
        <g
           transform="translate(97.690313 35.472) scale(0.12 -0.12)"
           id="g120">
          <defs
             id="defs78">
            <path
               id="DejaVuSans-57"
               d="M 213 4666  L 850 4666  L 1831 722  L 2809 4666  L 3519 4666  L 4500 722  L 5478 4666  L 6119 4666  L 4947 0  L 4153 0  L 3169 4050  L 2175 0  L 1381 0  L 213 4666  z "
               transform="scale(0.015625)" />
            <path
               id="DejaVuSans-61"
               d="M 2194 1759  Q 1497 1759 1228 1600  Q 959 1441 959 1056  Q 959 750 1161 570  Q 1363 391 1709 391  Q 2188 391 2477 730  Q 2766 1069 2766 1631  L 2766 1759  L 2194 1759  z M 3341 1997  L 3341 0  L 2766 0  L 2766 531  Q 2569 213 2275 61  Q 1981 -91 1556 -91  Q 1019 -91 701 211  Q 384 513 384 1019  Q 384 1609 779 1909  Q 1175 2209 1959 2209  L 2766 2209  L 2766 2266  Q 2766 2663 2505 2880  Q 2244 3097 1772 3097  Q 1472 3097 1187 3025  Q 903 2953 641 2809  L 641 3341  Q 956 3463 1253 3523  Q 1550 3584 1831 3584  Q 2591 3584 2966 3190  Q 3341 2797 3341 1997  z "
               transform="scale(0.015625)" />
            <path
               id="DejaVuSans-76"
               d="M 191 3500  L 800 3500  L 1894 563  L 2988 3500  L 3597 3500  L 2284 0  L 1503 0  L 191 3500  z "
               transform="scale(0.015625)" />
            <path
               id="DejaVuSans-66"
               d="M 2375 4863  L 2375 4384  L 1825 4384  Q 1516 4384 1395 4259  Q 1275 4134 1275 3809  L 1275 3500  L 2222 3500  L 2222 3053  L 1275 3053  L 1275 0  L 697 0  L 697 3053  L 147 3053  L 147 3500  L 697 3500  L 697 3744  Q 697 4328 969 4595  Q 1241 4863 1831 4863  L 2375 4863  z "
               transform="scale(0.015625)" />
            <path
               id="DejaVuSans-3a"
               d="M 750 794  L 1409 794  L 1409 0  L 750 0  L 750 794  z M 750 3309  L 1409 3309  L 1409 2516  L 750 2516  L 750 3309  z "
               transform="scale(0.015625)" />
            <path
               id="DejaVuSans-48"
               d="M 628 4666  L 1259 4666  L 1259 2753  L 3553 2753  L 3553 4666  L 4184 4666  L 4184 0  L 3553 0  L 3553 2222  L 1259 2222  L 1259 0  L 628 0  L 628 4666  z "
               transform="scale(0.015625)" />
            <path
               id="DejaVuSans-67"
               d="M 2906 1791  Q 2906 2416 2648 2759  Q 2391 3103 1925 3103  Q 1463 3103 1205 2759  Q 947 2416 947 1791  Q 947 1169 1205 825  Q 1463 481 1925 481  Q 2391 481 2648 825  Q 2906 1169 2906 1791  z M 3481 434  Q 3481 -459 3084 -895  Q 2688 -1331 1869 -1331  Q 1566 -1331 1297 -1286  Q 1028 -1241 775 -1147  L 775 -588  Q 1028 -725 1275 -790  Q 1522 -856 1778 -856  Q 2344 -856 2625 -561  Q 2906 -266 2906 331  L 2906 616  Q 2728 306 2450 153  Q 2172 0 1784 0  Q 1141 0 747 490  Q 353 981 353 1791  Q 353 2603 747 3093  Q 1141 3584 1784 3584  Q 2172 3584 2450 3431  Q 2728 3278 2906 2969  L 2906 3500  L 3481 3500  L 3481 434  z "
               transform="scale(0.015625)" />
            <path
               id="DejaVuSans-68"
               d="M 3513 2113  L 3513 0  L 2938 0  L 2938 2094  Q 2938 2591 2744 2837  Q 2550 3084 2163 3084  Q 1697 3084 1428 2787  Q 1159 2491 1159 1978  L 1159 0  L 581 0  L 581 4863  L 1159 4863  L 1159 2956  Q 1366 3272 1645 3428  Q 1925 3584 2291 3584  Q 2894 3584 3203 3211  Q 3513 2838 3513 2113  z "
               transform="scale(0.015625)" />
            <path
               id="DejaVuSans-6e"
               d="M 3513 2113  L 3513 0  L 2938 0  L 2938 2094  Q 2938 2591 2744 2837  Q 2550 3084 2163 3084  Q 1697 3084 1428 2787  Q 1159 2491 1159 1978  L 1159 0  L 581 0  L 581 3500  L 1159 3500  L 1159 2956  Q 1366 3272 1645 3428  Q 1925 3584 2291 3584  Q 2894 3584 3203 3211  Q 3513 2838 3513 2113  z "
               transform="scale(0.015625)" />
            <path
               id="DejaVuSans-63"
               d="M 3122 3366  L 3122 2828  Q 2878 2963 2633 3030  Q 2388 3097 2138 3097  Q 1578 3097 1268 2742  Q 959 2388 959 1747  Q 959 1106 1268 751  Q 1578 397 2138 397  Q 2388 397 2633 464  Q 2878 531 3122 666  L 3122 134  Q 2881 22 2623 -34  Q 2366 -91 2075 -91  Q 1284 -91 818 406  Q 353 903 353 1747  Q 353 2603 823 3093  Q 1294 3584 2113 3584  Q 2378 3584 2631 3529  Q 2884 3475 3122 3366  z "
               transform="scale(0.015625)" />
            <path
               id="DejaVuSans-73"
               d="M 2834 3397  L 2834 2853  Q 2591 2978 2328 3040  Q 2066 3103 1784 3103  Q 1356 3103 1142 2972  Q 928 2841 928 2578  Q 928 2378 1081 2264  Q 1234 2150 1697 2047  L 1894 2003  Q 2506 1872 2764 1633  Q 3022 1394 3022 966  Q 3022 478 2636 193  Q 2250 -91 1575 -91  Q 1294 -91 989 -36  Q 684 19 347 128  L 347 722  Q 666 556 975 473  Q 1284 391 1588 391  Q 1994 391 2212 530  Q 2431 669 2431 922  Q 2431 1156 2273 1281  Q 2116 1406 1581 1522  L 1381 1569  Q 847 1681 609 1914  Q 372 2147 372 2553  Q 372 3047 722 3315  Q 1072 3584 1716 3584  Q 2034 3584 2315 3537  Q 2597 3491 2834 3397  z "
               transform="scale(0.015625)" />
            <path
               id="DejaVuSans-4f"
               d="M 2522 4238  Q 1834 4238 1429 3725  Q 1025 3213 1025 2328  Q 1025 1447 1429 934  Q 1834 422 2522 422  Q 3209 422 3611 934  Q 4013 1447 4013 2328  Q 4013 3213 3611 3725  Q 3209 4238 2522 4238  z M 2522 4750  Q 3503 4750 4090 4092  Q 4678 3434 4678 2328  Q 4678 1225 4090 567  Q 3503 -91 2522 -91  Q 1538 -91 948 565  Q 359 1222 359 2328  Q 359 3434 948 4092  Q 1538 4750 2522 4750  z "
               transform="scale(0.015625)" />
            <path
               id="DejaVuSans-6c"
               d="M 603 4863  L 1178 4863  L 1178 0  L 603 0  L 603 4863  z "
               transform="scale(0.015625)" />
            <path
               id="DejaVuSans-74"
               d="M 1172 4494  L 1172 3500  L 2356 3500  L 2356 3053  L 1172 3053  L 1172 1153  Q 1172 725 1289 603  Q 1406 481 1766 481  L 2356 481  L 2356 0  L 1766 0  Q 1100 0 847 248  Q 594 497 594 1153  L 594 3053  L 172 3053  L 172 3500  L 594 3500  L 594 4494  L 1172 4494  z "
               transform="scale(0.015625)" />
          </defs>
          <use
             xlink:href="#DejaVuSans-50"
             id="use78" />
          <use
             xlink:href="#DejaVuSans-6f"
             x="56.677734"
             id="use79" />
          <use
             xlink:href="#DejaVuSans-77"
             x="117.859375"
             id="use80" />
          <use
             xlink:href="#DejaVuSans-65"
             x="199.646484"
             id="use81" />
          <use
             xlink:href="#DejaVuSans-72"
             x="261.169922"
             id="use82" />
          <use
             xlink:href="#DejaVuSans-20"
             x="302.283203"
             id="use83" />
          <use
             xlink:href="#DejaVuSans-57"
             x="334.070312"
             id="use84" />
          <use
             xlink:href="#DejaVuSans-61"
             x="426.572266"
             id="use85" />
          <use
             xlink:href="#DejaVuSans-76"
             x="487.851562"
             id="use86" />
          <use
             xlink:href="#DejaVuSans-65"
             x="547.03125"
             id="use87" />
          <use
             xlink:href="#DejaVuSans-66"
             x="608.554688"
             id="use88" />
          <use
             xlink:href="#DejaVuSans-6f"
             x="643.759766"
             id="use89" />
          <use
             xlink:href="#DejaVuSans-72"
             x="704.941406"
             id="use90" />
          <use
             xlink:href="#DejaVuSans-6d"
             x="744.304688"
             id="use91" />
          <use
             xlink:href="#DejaVuSans-3a"
             x="841.716797"
             id="use92" />
          <use
             xlink:href="#DejaVuSans-20"
             x="875.408203"
             id="use93" />
          <use
             xlink:href="#DejaVuSans-48"
             x="907.195312"
             id="use94" />
          <use
             xlink:href="#DejaVuSans-69"
             x="982.390625"
             id="use95" />
          <use
             xlink:href="#DejaVuSans-67"
             x="1010.173828"
             id="use96" />
          <use
             xlink:href="#DejaVuSans-68"
             x="1073.650391"
             id="use97" />
          <use
             xlink:href="#DejaVuSans-65"
             x="1137.029297"
             id="use98" />
          <use
             xlink:href="#DejaVuSans-72"
             x="1198.552734"
             id="use99" />
          <use
             xlink:href="#DejaVuSans-20"
             x="1239.666016"
             id="use100" />
          <use
             xlink:href="#DejaVuSans-48"
             x="1271.453125"
             id="use101" />
          <use
             xlink:href="#DejaVuSans-61"
             x="1346.648438"
             id="use102" />
          <use
             xlink:href="#DejaVuSans-72"
             x="1407.927734"
             id="use103" />
          <use
             xlink:href="#DejaVuSans-6d"
             x="1447.291016"
             id="use104" />
          <use
             xlink:href="#DejaVuSans-6f"
             x="1544.703125"
             id="use105" />
          <use
             xlink:href="#DejaVuSans-6e"
             x="1605.884766"
             id="use106" />
          <use
             xlink:href="#DejaVuSans-69"
             x="1669.263672"
             id="use107" />
          <use
             xlink:href="#DejaVuSans-63"
             x="1697.046875"
             id="use108" />
          <use
             xlink:href="#DejaVuSans-73"
             x="1752.027344"
             id="use109" />
          <use
             xlink:href="#DejaVuSans-20"
             x="1804.126953"
             id="use110" />
          <use
             xlink:href="#DejaVuSans-4f"
             x="1835.914062"
             id="use111" />
          <use
             xlink:href="#DejaVuSans-73"
             x="1914.625"
             id="use112" />
          <use
             xlink:href="#DejaVuSans-63"
             x="1966.724609"
             id="use113" />
          <use
             xlink:href="#DejaVuSans-69"
             x="2021.705078"
             id="use114" />
          <use
             xlink:href="#DejaVuSans-6c"
             x="2049.488281"
             id="use115" />
          <use
             xlink:href="#DejaVuSans-6c"
             x="2077.271484"
             id="use116" />
          <use
             xlink:href="#DejaVuSans-61"
             x="2105.054688"
             id="use117" />
          <use
             xlink:href="#DejaVuSans-74"
             x="2166.333984"
             id="use118" />
          <use
             xlink:href="#DejaVuSans-6f"
             x="2205.542969"
             id="use119" />
          <use
             xlink:href="#DejaVuSans-72"
             x="2266.724609"
             id="use120" />
        </g>
      </g>
    </g>
  </g>
  <text
     xml:space="preserve"
     style="font-style:normal;font-variant:normal;font-weight:normal;font-stretch:normal;font-size:5.67182px;font-family:sans-serif;-inkscape-font-specification:'sans-serif, Normal';font-variant-ligatures:normal;font-variant-caps:normal;font-variant-numeric:normal;font-variant-east-asian:normal;writing-mode:vertical-lr;fill:#42536c;stroke:#000000;stroke-width:0.800669;stroke-linecap:butt;stroke-linejoin:round;stroke-dasharray:none;stroke-opacity:1"
     x="425.78348"
     y="40.624199"
     id="text6"
     transform="scale(1.0149325,0.9852872)"><tspan
       sodipodi:role="line"
       id="tspan1-9"
       x="425.78348"
       y="40.624199">0</tspan></text>
  <text
     xml:space="preserve"
     style="font-style:normal;font-variant:normal;font-weight:normal;font-stretch:normal;font-size:5.07049px;font-family:sans-serif;-inkscape-font-specification:'sans-serif, Normal';font-variant-ligatures:normal;font-variant-caps:normal;font-variant-numeric:normal;font-variant-east-asian:normal;writing-mode:vertical-lr;fill:#edeff1;fill-opacity:1;stroke:#020202;stroke-width:0.716;stroke-linecap:butt;stroke-linejoin:round;stroke-dasharray:none;stroke-opacity:1"
     x="386.944"
     y="263.18192"
     id="text7"
     transform="scale(1.1164005,0.8957359)"><tspan
       sodipodi:role="line"
       id="tspan6"
       x="386.944"
       y="263.18192">1</tspan></text>
  <text
     xml:space="preserve"
     style="font-style:normal;font-variant:normal;font-weight:normal;font-stretch:normal;font-size:6.01631px;font-family:sans-serif;-inkscape-font-specification:'sans-serif, Normal';font-variant-ligatures:normal;font-variant-caps:normal;font-variant-numeric:normal;font-variant-east-asian:normal;writing-mode:vertical-lr;baseline-shift:baseline;white-space:pre;inline-size:168.151;fill:#42536c;fill-opacity:1;fill-rule:nonzero;stroke-width:0.75;stroke-linecap:butt;stroke-linejoin:round"
     x="429.35358"
     y="51.322151"
     id="text130"
     transform="matrix(1,0,0,0.99458406,-3.1325644,198.34264)"><tspan
       x="429.35358"
       y="51.322151"
       id="tspan4">Omega Ratio Ω/Ω<tspan
   style="baseline-shift:sub"
   id="tspan3">0</tspan></tspan></text>
  <path
     style="fill:#42536c;stroke:#020202;stroke-width:0.847;stroke-linecap:butt;stroke-linejoin:round;stroke-dasharray:none;stroke-opacity:1;marker-end:url(#ArrowWideRounded)"
     d="m 426.13115,40.001229 0.5901,203.407511"
     id="path4" />
  <defs
     id="defs120">
    <clipPath
       id="pdb0ea82c2c">
      <rect
         x="57.6"
         y="41.472"
         width="357.12"
         height="266.112"
         id="rect120" />
    </clipPath>
  </defs>
  <rect
     style="mix-blend-mode:normal;fill:url(#linearGradient128);fill-rule:nonzero;stroke-width:0.75;stroke-linecap:butt;stroke-linejoin:round"
     id="rect117"
     width="3.1293948"
     height="267.87662"
     x="419"
     y="40"
     ry="0" />
</svg>
