<?xml version="1.0" encoding="utf-8" standalone="no"?>
<!DOCTYPE svg PUBLIC "-//W3C//DTD SVG 1.1//EN"
  "http://www.w3.org/Graphics/SVG/1.1/DTD/svg11.dtd">
<!-- Created with matplotlib (https://matplotlib.org/) -->
<svg height="288pt" version="1.1" viewBox="0 0 432 288" width="432pt" xmlns="http://www.w3.org/2000/svg" xmlns:xlink="http://www.w3.org/1999/xlink">
 <metadata>
  <rdf:RDF xmlns:cc="http://creativecommons.org/ns#" xmlns:dc="http://purl.org/dc/elements/1.1/" xmlns:rdf="http://www.w3.org/1999/02/22-rdf-syntax-ns#">
   <cc:Work>
    <dc:type rdf:resource="http://purl.org/dc/dcmitype/StillImage"/>
    <dc:date>2024-09-03T21:07:53.269512</dc:date>
    <dc:format>image/svg+xml</dc:format>
    <dc:creator>
     <cc:Agent>
      <dc:title>Matplotlib v3.3.4, https://matplotlib.org/</dc:title>
     </cc:Agent>
    </dc:creator>
   </cc:Work>
  </rdf:RDF>
 </metadata>
 <defs>
  <style type="text/css">*{stroke-linecap:butt;stroke-linejoin:round;}</style>
 </defs>
 <g id="figure_1">
  <g id="patch_1">
   <path d="M 0 288 
L 432 288 
L 432 0 
L 0 0 
z
" style="fill:none;"/>
  </g>
  <g id="axes_1">
   <g id="patch_2">
    <path d="M 54 252 
L 388.8 252 
L 388.8 34.56 
L 54 34.56 
z
" style="fill:#ffffff;"/>
   </g>
   <g id="matplotlib.axis_1">
    <g id="xtick_1">
     <g id="line2d_1">
      <defs>
       <path d="M 0 0 
L 0 3.5 
" id="ma4920f3b4e" style="stroke:#000000;stroke-width:0.8;"/>
      </defs>
      <g>
       <use style="stroke:#000000;stroke-width:0.8;" x="97.550551" xlink:href="#ma4920f3b4e" y="252"/>
      </g>
     </g>
     <g id="text_1">
      <!-- −1.0 -->
      <g transform="translate(82.980863 268.118125)scale(0.12 -0.12)">
       <defs>
        <path d="M 10.59375 35.5 
L 73.1875 35.5 
L 73.1875 27.203125 
L 10.59375 27.203125 
z
" id="DejaVuSans-8722"/>
        <path d="M 12.40625 8.296875 
L 28.515625 8.296875 
L 28.515625 63.921875 
L 10.984375 60.40625 
L 10.984375 69.390625 
L 28.421875 72.90625 
L 38.28125 72.90625 
L 38.28125 8.296875 
L 54.390625 8.296875 
L 54.390625 0 
L 12.40625 0 
z
" id="DejaVuSans-49"/>
        <path d="M 10.6875 12.40625 
L 21 12.40625 
L 21 0 
L 10.6875 0 
z
" id="DejaVuSans-46"/>
        <path d="M 31.78125 66.40625 
Q 24.171875 66.40625 20.328125 58.90625 
Q 16.5 51.421875 16.5 36.375 
Q 16.5 21.390625 20.328125 13.890625 
Q 24.171875 6.390625 31.78125 6.390625 
Q 39.453125 6.390625 43.28125 13.890625 
Q 47.125 21.390625 47.125 36.375 
Q 47.125 51.421875 43.28125 58.90625 
Q 39.453125 66.40625 31.78125 66.40625 
z
M 31.78125 74.21875 
Q 44.046875 74.21875 50.515625 64.515625 
Q 56.984375 54.828125 56.984375 36.375 
Q 56.984375 17.96875 50.515625 8.265625 
Q 44.046875 -1.421875 31.78125 -1.421875 
Q 19.53125 -1.421875 13.0625 8.265625 
Q 6.59375 17.96875 6.59375 36.375 
Q 6.59375 54.828125 13.0625 64.515625 
Q 19.53125 74.21875 31.78125 74.21875 
z
" id="DejaVuSans-48"/>
       </defs>
       <use xlink:href="#DejaVuSans-8722"/>
       <use x="83.789062" xlink:href="#DejaVuSans-49"/>
       <use x="147.412109" xlink:href="#DejaVuSans-46"/>
       <use x="179.199219" xlink:href="#DejaVuSans-48"/>
      </g>
     </g>
    </g>
    <g id="xtick_2">
     <g id="line2d_2">
      <g>
       <use style="stroke:#000000;stroke-width:0.8;" x="159.474691" xlink:href="#ma4920f3b4e" y="252"/>
      </g>
     </g>
     <g id="text_2">
      <!-- −0.5 -->
      <g transform="translate(144.905003 268.118125)scale(0.12 -0.12)">
       <defs>
        <path d="M 10.796875 72.90625 
L 49.515625 72.90625 
L 49.515625 64.59375 
L 19.828125 64.59375 
L 19.828125 46.734375 
Q 21.96875 47.46875 24.109375 47.828125 
Q 26.265625 48.1875 28.421875 48.1875 
Q 40.625 48.1875 47.75 41.5 
Q 54.890625 34.8125 54.890625 23.390625 
Q 54.890625 11.625 47.5625 5.09375 
Q 40.234375 -1.421875 26.90625 -1.421875 
Q 22.3125 -1.421875 17.546875 -0.640625 
Q 12.796875 0.140625 7.71875 1.703125 
L 7.71875 11.625 
Q 12.109375 9.234375 16.796875 8.0625 
Q 21.484375 6.890625 26.703125 6.890625 
Q 35.15625 6.890625 40.078125 11.328125 
Q 45.015625 15.765625 45.015625 23.390625 
Q 45.015625 31 40.078125 35.4375 
Q 35.15625 39.890625 26.703125 39.890625 
Q 22.75 39.890625 18.8125 39.015625 
Q 14.890625 38.140625 10.796875 36.28125 
z
" id="DejaVuSans-53"/>
       </defs>
       <use xlink:href="#DejaVuSans-8722"/>
       <use x="83.789062" xlink:href="#DejaVuSans-48"/>
       <use x="147.412109" xlink:href="#DejaVuSans-46"/>
       <use x="179.199219" xlink:href="#DejaVuSans-53"/>
      </g>
     </g>
    </g>
    <g id="xtick_3">
     <g id="line2d_3">
      <g>
       <use style="stroke:#000000;stroke-width:0.8;" x="221.39883" xlink:href="#ma4920f3b4e" y="252"/>
      </g>
     </g>
     <g id="text_3">
      <!-- 0.0 -->
      <g transform="translate(211.856955 268.118125)scale(0.12 -0.12)">
       <use xlink:href="#DejaVuSans-48"/>
       <use x="63.623047" xlink:href="#DejaVuSans-46"/>
       <use x="95.410156" xlink:href="#DejaVuSans-48"/>
      </g>
     </g>
    </g>
    <g id="xtick_4">
     <g id="line2d_4">
      <g>
       <use style="stroke:#000000;stroke-width:0.8;" x="283.32297" xlink:href="#ma4920f3b4e" y="252"/>
      </g>
     </g>
     <g id="text_4">
      <!-- 0.5 -->
      <g transform="translate(273.781095 268.118125)scale(0.12 -0.12)">
       <use xlink:href="#DejaVuSans-48"/>
       <use x="63.623047" xlink:href="#DejaVuSans-46"/>
       <use x="95.410156" xlink:href="#DejaVuSans-53"/>
      </g>
     </g>
    </g>
    <g id="xtick_5">
     <g id="line2d_5">
      <g>
       <use style="stroke:#000000;stroke-width:0.8;" x="345.24711" xlink:href="#ma4920f3b4e" y="252"/>
      </g>
     </g>
     <g id="text_5">
      <!-- 1.0 -->
      <g transform="translate(335.705235 268.118125)scale(0.12 -0.12)">
       <use xlink:href="#DejaVuSans-49"/>
       <use x="63.623047" xlink:href="#DejaVuSans-46"/>
       <use x="95.410156" xlink:href="#DejaVuSans-48"/>
      </g>
     </g>
    </g>
    <g id="text_6">
     <!-- Inelastic load $G$ -->
     <g transform="translate(182.75 282.212188)scale(0.1 -0.1)">
      <defs>
       <path d="M 9.8125 72.90625 
L 19.671875 72.90625 
L 19.671875 0 
L 9.8125 0 
z
" id="DejaVuSans-73"/>
       <path d="M 54.890625 33.015625 
L 54.890625 0 
L 45.90625 0 
L 45.90625 32.71875 
Q 45.90625 40.484375 42.875 44.328125 
Q 39.84375 48.1875 33.796875 48.1875 
Q 26.515625 48.1875 22.3125 43.546875 
Q 18.109375 38.921875 18.109375 30.90625 
L 18.109375 0 
L 9.078125 0 
L 9.078125 54.6875 
L 18.109375 54.6875 
L 18.109375 46.1875 
Q 21.34375 51.125 25.703125 53.5625 
Q 30.078125 56 35.796875 56 
Q 45.21875 56 50.046875 50.171875 
Q 54.890625 44.34375 54.890625 33.015625 
z
" id="DejaVuSans-110"/>
       <path d="M 56.203125 29.59375 
L 56.203125 25.203125 
L 14.890625 25.203125 
Q 15.484375 15.921875 20.484375 11.0625 
Q 25.484375 6.203125 34.421875 6.203125 
Q 39.59375 6.203125 44.453125 7.46875 
Q 49.3125 8.734375 54.109375 11.28125 
L 54.109375 2.78125 
Q 49.265625 0.734375 44.1875 -0.34375 
Q 39.109375 -1.421875 33.890625 -1.421875 
Q 20.796875 -1.421875 13.15625 6.1875 
Q 5.515625 13.8125 5.515625 26.8125 
Q 5.515625 40.234375 12.765625 48.109375 
Q 20.015625 56 32.328125 56 
Q 43.359375 56 49.78125 48.890625 
Q 56.203125 41.796875 56.203125 29.59375 
z
M 47.21875 32.234375 
Q 47.125 39.59375 43.09375 43.984375 
Q 39.0625 48.390625 32.421875 48.390625 
Q 24.90625 48.390625 20.390625 44.140625 
Q 15.875 39.890625 15.1875 32.171875 
z
" id="DejaVuSans-101"/>
       <path d="M 9.421875 75.984375 
L 18.40625 75.984375 
L 18.40625 0 
L 9.421875 0 
z
" id="DejaVuSans-108"/>
       <path d="M 34.28125 27.484375 
Q 23.390625 27.484375 19.1875 25 
Q 14.984375 22.515625 14.984375 16.5 
Q 14.984375 11.71875 18.140625 8.90625 
Q 21.296875 6.109375 26.703125 6.109375 
Q 34.1875 6.109375 38.703125 11.40625 
Q 43.21875 16.703125 43.21875 25.484375 
L 43.21875 27.484375 
z
M 52.203125 31.203125 
L 52.203125 0 
L 43.21875 0 
L 43.21875 8.296875 
Q 40.140625 3.328125 35.546875 0.953125 
Q 30.953125 -1.421875 24.3125 -1.421875 
Q 15.921875 -1.421875 10.953125 3.296875 
Q 6 8.015625 6 15.921875 
Q 6 25.140625 12.171875 29.828125 
Q 18.359375 34.515625 30.609375 34.515625 
L 43.21875 34.515625 
L 43.21875 35.40625 
Q 43.21875 41.609375 39.140625 45 
Q 35.0625 48.390625 27.6875 48.390625 
Q 23 48.390625 18.546875 47.265625 
Q 14.109375 46.140625 10.015625 43.890625 
L 10.015625 52.203125 
Q 14.9375 54.109375 19.578125 55.046875 
Q 24.21875 56 28.609375 56 
Q 40.484375 56 46.34375 49.84375 
Q 52.203125 43.703125 52.203125 31.203125 
z
" id="DejaVuSans-97"/>
       <path d="M 44.28125 53.078125 
L 44.28125 44.578125 
Q 40.484375 46.53125 36.375 47.5 
Q 32.28125 48.484375 27.875 48.484375 
Q 21.1875 48.484375 17.84375 46.4375 
Q 14.5 44.390625 14.5 40.28125 
Q 14.5 37.15625 16.890625 35.375 
Q 19.28125 33.59375 26.515625 31.984375 
L 29.59375 31.296875 
Q 39.15625 29.25 43.1875 25.515625 
Q 47.21875 21.78125 47.21875 15.09375 
Q 47.21875 7.46875 41.1875 3.015625 
Q 35.15625 -1.421875 24.609375 -1.421875 
Q 20.21875 -1.421875 15.453125 -0.5625 
Q 10.6875 0.296875 5.421875 2 
L 5.421875 11.28125 
Q 10.40625 8.6875 15.234375 7.390625 
Q 20.0625 6.109375 24.8125 6.109375 
Q 31.15625 6.109375 34.5625 8.28125 
Q 37.984375 10.453125 37.984375 14.40625 
Q 37.984375 18.0625 35.515625 20.015625 
Q 33.0625 21.96875 24.703125 23.78125 
L 21.578125 24.515625 
Q 13.234375 26.265625 9.515625 29.90625 
Q 5.8125 33.546875 5.8125 39.890625 
Q 5.8125 47.609375 11.28125 51.796875 
Q 16.75 56 26.8125 56 
Q 31.78125 56 36.171875 55.265625 
Q 40.578125 54.546875 44.28125 53.078125 
z
" id="DejaVuSans-115"/>
       <path d="M 18.3125 70.21875 
L 18.3125 54.6875 
L 36.8125 54.6875 
L 36.8125 47.703125 
L 18.3125 47.703125 
L 18.3125 18.015625 
Q 18.3125 11.328125 20.140625 9.421875 
Q 21.96875 7.515625 27.59375 7.515625 
L 36.8125 7.515625 
L 36.8125 0 
L 27.59375 0 
Q 17.1875 0 13.234375 3.875 
Q 9.28125 7.765625 9.28125 18.015625 
L 9.28125 47.703125 
L 2.6875 47.703125 
L 2.6875 54.6875 
L 9.28125 54.6875 
L 9.28125 70.21875 
z
" id="DejaVuSans-116"/>
       <path d="M 9.421875 54.6875 
L 18.40625 54.6875 
L 18.40625 0 
L 9.421875 0 
z
M 9.421875 75.984375 
L 18.40625 75.984375 
L 18.40625 64.59375 
L 9.421875 64.59375 
z
" id="DejaVuSans-105"/>
       <path d="M 48.78125 52.59375 
L 48.78125 44.1875 
Q 44.96875 46.296875 41.140625 47.34375 
Q 37.3125 48.390625 33.40625 48.390625 
Q 24.65625 48.390625 19.8125 42.84375 
Q 14.984375 37.3125 14.984375 27.296875 
Q 14.984375 17.28125 19.8125 11.734375 
Q 24.65625 6.203125 33.40625 6.203125 
Q 37.3125 6.203125 41.140625 7.25 
Q 44.96875 8.296875 48.78125 10.40625 
L 48.78125 2.09375 
Q 45.015625 0.34375 40.984375 -0.53125 
Q 36.96875 -1.421875 32.421875 -1.421875 
Q 20.0625 -1.421875 12.78125 6.34375 
Q 5.515625 14.109375 5.515625 27.296875 
Q 5.515625 40.671875 12.859375 48.328125 
Q 20.21875 56 33.015625 56 
Q 37.15625 56 41.109375 55.140625 
Q 45.0625 54.296875 48.78125 52.59375 
z
" id="DejaVuSans-99"/>
       <path id="DejaVuSans-32"/>
       <path d="M 30.609375 48.390625 
Q 23.390625 48.390625 19.1875 42.75 
Q 14.984375 37.109375 14.984375 27.296875 
Q 14.984375 17.484375 19.15625 11.84375 
Q 23.34375 6.203125 30.609375 6.203125 
Q 37.796875 6.203125 41.984375 11.859375 
Q 46.1875 17.53125 46.1875 27.296875 
Q 46.1875 37.015625 41.984375 42.703125 
Q 37.796875 48.390625 30.609375 48.390625 
z
M 30.609375 56 
Q 42.328125 56 49.015625 48.375 
Q 55.71875 40.765625 55.71875 27.296875 
Q 55.71875 13.875 49.015625 6.21875 
Q 42.328125 -1.421875 30.609375 -1.421875 
Q 18.84375 -1.421875 12.171875 6.21875 
Q 5.515625 13.875 5.515625 27.296875 
Q 5.515625 40.765625 12.171875 48.375 
Q 18.84375 56 30.609375 56 
z
" id="DejaVuSans-111"/>
       <path d="M 45.40625 46.390625 
L 45.40625 75.984375 
L 54.390625 75.984375 
L 54.390625 0 
L 45.40625 0 
L 45.40625 8.203125 
Q 42.578125 3.328125 38.25 0.953125 
Q 33.9375 -1.421875 27.875 -1.421875 
Q 17.96875 -1.421875 11.734375 6.484375 
Q 5.515625 14.40625 5.515625 27.296875 
Q 5.515625 40.1875 11.734375 48.09375 
Q 17.96875 56 27.875 56 
Q 33.9375 56 38.25 53.625 
Q 42.578125 51.265625 45.40625 46.390625 
z
M 14.796875 27.296875 
Q 14.796875 17.390625 18.875 11.75 
Q 22.953125 6.109375 30.078125 6.109375 
Q 37.203125 6.109375 41.296875 11.75 
Q 45.40625 17.390625 45.40625 27.296875 
Q 45.40625 37.203125 41.296875 42.84375 
Q 37.203125 48.484375 30.078125 48.484375 
Q 22.953125 48.484375 18.875 42.84375 
Q 14.796875 37.203125 14.796875 27.296875 
z
" id="DejaVuSans-100"/>
       <path d="M 54.59375 10.890625 
L 58.40625 29.984375 
L 42.1875 29.984375 
L 43.703125 38.09375 
L 69.578125 38.09375 
L 63.28125 6 
Q 56.78125 2.4375 49.109375 0.5 
Q 41.453125 -1.421875 33.6875 -1.421875 
Q 19.96875 -1.421875 12.234375 6.1875 
Q 4.5 13.8125 4.5 27.390625 
Q 4.5 38.671875 9.203125 48.84375 
Q 13.921875 59.03125 22.21875 65.828125 
Q 27.4375 70.0625 33.640625 72.140625 
Q 39.84375 74.21875 47.40625 74.21875 
Q 54.25 74.21875 60.515625 72.484375 
Q 66.796875 70.75 72.515625 67.28125 
L 70.515625 56.78125 
Q 66.109375 61.375 60.203125 63.796875 
Q 54.296875 66.21875 47.609375 66.21875 
Q 39.84375 66.21875 33.9375 63.25 
Q 28.03125 60.296875 23.390625 54.109375 
Q 19.4375 48.828125 17.15625 41.671875 
Q 14.890625 34.515625 14.890625 27.09375 
Q 14.890625 16.890625 20.109375 11.734375 
Q 25.34375 6.59375 35.6875 6.59375 
Q 40.875 6.59375 45.703125 7.6875 
Q 50.53125 8.796875 54.59375 10.890625 
z
" id="DejaVuSans-Oblique-71"/>
      </defs>
      <use transform="translate(0 0.015625)" xlink:href="#DejaVuSans-73"/>
      <use transform="translate(29.492188 0.015625)" xlink:href="#DejaVuSans-110"/>
      <use transform="translate(92.871094 0.015625)" xlink:href="#DejaVuSans-101"/>
      <use transform="translate(154.394531 0.015625)" xlink:href="#DejaVuSans-108"/>
      <use transform="translate(182.177734 0.015625)" xlink:href="#DejaVuSans-97"/>
      <use transform="translate(243.457031 0.015625)" xlink:href="#DejaVuSans-115"/>
      <use transform="translate(295.556641 0.015625)" xlink:href="#DejaVuSans-116"/>
      <use transform="translate(334.765625 0.015625)" xlink:href="#DejaVuSans-105"/>
      <use transform="translate(362.548828 0.015625)" xlink:href="#DejaVuSans-99"/>
      <use transform="translate(417.529297 0.015625)" xlink:href="#DejaVuSans-32"/>
      <use transform="translate(449.316406 0.015625)" xlink:href="#DejaVuSans-108"/>
      <use transform="translate(477.099609 0.015625)" xlink:href="#DejaVuSans-111"/>
      <use transform="translate(538.28125 0.015625)" xlink:href="#DejaVuSans-97"/>
      <use transform="translate(599.560547 0.015625)" xlink:href="#DejaVuSans-100"/>
      <use transform="translate(663.037109 0.015625)" xlink:href="#DejaVuSans-32"/>
      <use transform="translate(694.824219 0.015625)" xlink:href="#DejaVuSans-Oblique-71"/>
     </g>
    </g>
   </g>
   <g id="matplotlib.axis_2">
    <g id="ytick_1">
     <g id="line2d_6">
      <defs>
       <path d="M 0 0 
L -3.5 0 
" id="m1f7214abbc" style="stroke:#000000;stroke-width:0.8;"/>
      </defs>
      <g>
       <use style="stroke:#000000;stroke-width:0.8;" x="54" xlink:href="#m1f7214abbc" y="231.996426"/>
      </g>
     </g>
     <g id="text_7">
      <!-- −6 -->
      <g transform="translate(29.309375 236.555488)scale(0.12 -0.12)">
       <defs>
        <path d="M 33.015625 40.375 
Q 26.375 40.375 22.484375 35.828125 
Q 18.609375 31.296875 18.609375 23.390625 
Q 18.609375 15.53125 22.484375 10.953125 
Q 26.375 6.390625 33.015625 6.390625 
Q 39.65625 6.390625 43.53125 10.953125 
Q 47.40625 15.53125 47.40625 23.390625 
Q 47.40625 31.296875 43.53125 35.828125 
Q 39.65625 40.375 33.015625 40.375 
z
M 52.59375 71.296875 
L 52.59375 62.3125 
Q 48.875 64.0625 45.09375 64.984375 
Q 41.3125 65.921875 37.59375 65.921875 
Q 27.828125 65.921875 22.671875 59.328125 
Q 17.53125 52.734375 16.796875 39.40625 
Q 19.671875 43.65625 24.015625 45.921875 
Q 28.375 48.1875 33.59375 48.1875 
Q 44.578125 48.1875 50.953125 41.515625 
Q 57.328125 34.859375 57.328125 23.390625 
Q 57.328125 12.15625 50.6875 5.359375 
Q 44.046875 -1.421875 33.015625 -1.421875 
Q 20.359375 -1.421875 13.671875 8.265625 
Q 6.984375 17.96875 6.984375 36.375 
Q 6.984375 53.65625 15.1875 63.9375 
Q 23.390625 74.21875 37.203125 74.21875 
Q 40.921875 74.21875 44.703125 73.484375 
Q 48.484375 72.75 52.59375 71.296875 
z
" id="DejaVuSans-54"/>
       </defs>
       <use xlink:href="#DejaVuSans-8722"/>
       <use x="83.789062" xlink:href="#DejaVuSans-54"/>
      </g>
     </g>
    </g>
    <g id="ytick_2">
     <g id="line2d_7">
      <g>
       <use style="stroke:#000000;stroke-width:0.8;" x="54" xlink:href="#m1f7214abbc" y="202.425638"/>
      </g>
     </g>
     <g id="text_8">
      <!-- −4 -->
      <g transform="translate(29.309375 206.9847)scale(0.12 -0.12)">
       <defs>
        <path d="M 37.796875 64.3125 
L 12.890625 25.390625 
L 37.796875 25.390625 
z
M 35.203125 72.90625 
L 47.609375 72.90625 
L 47.609375 25.390625 
L 58.015625 25.390625 
L 58.015625 17.1875 
L 47.609375 17.1875 
L 47.609375 0 
L 37.796875 0 
L 37.796875 17.1875 
L 4.890625 17.1875 
L 4.890625 26.703125 
z
" id="DejaVuSans-52"/>
       </defs>
       <use xlink:href="#DejaVuSans-8722"/>
       <use x="83.789062" xlink:href="#DejaVuSans-52"/>
      </g>
     </g>
    </g>
    <g id="ytick_3">
     <g id="line2d_8">
      <g>
       <use style="stroke:#000000;stroke-width:0.8;" x="54" xlink:href="#m1f7214abbc" y="172.85485"/>
      </g>
     </g>
     <g id="text_9">
      <!-- −2 -->
      <g transform="translate(29.309375 177.413912)scale(0.12 -0.12)">
       <defs>
        <path d="M 19.1875 8.296875 
L 53.609375 8.296875 
L 53.609375 0 
L 7.328125 0 
L 7.328125 8.296875 
Q 12.9375 14.109375 22.625 23.890625 
Q 32.328125 33.6875 34.8125 36.53125 
Q 39.546875 41.84375 41.421875 45.53125 
Q 43.3125 49.21875 43.3125 52.78125 
Q 43.3125 58.59375 39.234375 62.25 
Q 35.15625 65.921875 28.609375 65.921875 
Q 23.96875 65.921875 18.8125 64.3125 
Q 13.671875 62.703125 7.8125 59.421875 
L 7.8125 69.390625 
Q 13.765625 71.78125 18.9375 73 
Q 24.125 74.21875 28.421875 74.21875 
Q 39.75 74.21875 46.484375 68.546875 
Q 53.21875 62.890625 53.21875 53.421875 
Q 53.21875 48.921875 51.53125 44.890625 
Q 49.859375 40.875 45.40625 35.40625 
Q 44.1875 33.984375 37.640625 27.21875 
Q 31.109375 20.453125 19.1875 8.296875 
z
" id="DejaVuSans-50"/>
       </defs>
       <use xlink:href="#DejaVuSans-8722"/>
       <use x="83.789062" xlink:href="#DejaVuSans-50"/>
      </g>
     </g>
    </g>
    <g id="ytick_4">
     <g id="line2d_9">
      <g>
       <use style="stroke:#000000;stroke-width:0.8;" x="54" xlink:href="#m1f7214abbc" y="143.284062"/>
      </g>
     </g>
     <g id="text_10">
      <!-- 0 -->
      <g transform="translate(39.365 147.843124)scale(0.12 -0.12)">
       <use xlink:href="#DejaVuSans-48"/>
      </g>
     </g>
    </g>
    <g id="ytick_5">
     <g id="line2d_10">
      <g>
       <use style="stroke:#000000;stroke-width:0.8;" x="54" xlink:href="#m1f7214abbc" y="113.713274"/>
      </g>
     </g>
     <g id="text_11">
      <!-- 2 -->
      <g transform="translate(39.365 118.272336)scale(0.12 -0.12)">
       <use xlink:href="#DejaVuSans-50"/>
      </g>
     </g>
    </g>
    <g id="ytick_6">
     <g id="line2d_11">
      <g>
       <use style="stroke:#000000;stroke-width:0.8;" x="54" xlink:href="#m1f7214abbc" y="84.142486"/>
      </g>
     </g>
     <g id="text_12">
      <!-- 4 -->
      <g transform="translate(39.365 88.701548)scale(0.12 -0.12)">
       <use xlink:href="#DejaVuSans-52"/>
      </g>
     </g>
    </g>
    <g id="ytick_7">
     <g id="line2d_12">
      <g>
       <use style="stroke:#000000;stroke-width:0.8;" x="54" xlink:href="#m1f7214abbc" y="54.571698"/>
      </g>
     </g>
     <g id="text_13">
      <!-- 6 -->
      <g transform="translate(39.365 59.13076)scale(0.12 -0.12)">
       <use xlink:href="#DejaVuSans-54"/>
      </g>
     </g>
    </g>
    <g id="text_14">
     <!-- Elastic load $F$ -->
     <g transform="translate(23.229687 176.38)rotate(-90)scale(0.1 -0.1)">
      <defs>
       <path d="M 9.8125 72.90625 
L 55.90625 72.90625 
L 55.90625 64.59375 
L 19.671875 64.59375 
L 19.671875 43.015625 
L 54.390625 43.015625 
L 54.390625 34.71875 
L 19.671875 34.71875 
L 19.671875 8.296875 
L 56.78125 8.296875 
L 56.78125 0 
L 9.8125 0 
z
" id="DejaVuSans-69"/>
       <path d="M 16.890625 72.90625 
L 58.6875 72.90625 
L 57.078125 64.59375 
L 25.09375 64.59375 
L 20.90625 43.109375 
L 49.8125 43.109375 
L 48.1875 34.8125 
L 19.28125 34.8125 
L 12.5 0 
L 2.6875 0 
z
" id="DejaVuSans-Oblique-70"/>
      </defs>
      <use transform="translate(0 0.015625)" xlink:href="#DejaVuSans-69"/>
      <use transform="translate(63.183594 0.015625)" xlink:href="#DejaVuSans-108"/>
      <use transform="translate(90.966797 0.015625)" xlink:href="#DejaVuSans-97"/>
      <use transform="translate(152.246094 0.015625)" xlink:href="#DejaVuSans-115"/>
      <use transform="translate(204.345703 0.015625)" xlink:href="#DejaVuSans-116"/>
      <use transform="translate(243.554688 0.015625)" xlink:href="#DejaVuSans-105"/>
      <use transform="translate(271.337891 0.015625)" xlink:href="#DejaVuSans-99"/>
      <use transform="translate(326.318359 0.015625)" xlink:href="#DejaVuSans-32"/>
      <use transform="translate(358.105469 0.015625)" xlink:href="#DejaVuSans-108"/>
      <use transform="translate(385.888672 0.015625)" xlink:href="#DejaVuSans-111"/>
      <use transform="translate(447.070312 0.015625)" xlink:href="#DejaVuSans-97"/>
      <use transform="translate(508.349609 0.015625)" xlink:href="#DejaVuSans-100"/>
      <use transform="translate(571.826172 0.015625)" xlink:href="#DejaVuSans-32"/>
      <use transform="translate(603.613281 0.015625)" xlink:href="#DejaVuSans-Oblique-70"/>
     </g>
    </g>
   </g>
   <g id="line2d_13">
    <path clip-path="url(#pbe6ac3554e)" d="M 348.029545 162.384474 
L 347.926076 162.487583 
L 347.545012 162.423038 
L 346.108972 161.856709 
L 342.876966 160.624724 
L 340.312193 159.88513 
L 337.292707 159.263053 
L 333.844022 158.800226 
L 329.167206 158.427788 
L 309.641843 157.154152 
L 296.585519 155.835184 
L 284.210229 154.678484 
L 270.977879 153.702691 
L 257.020199 152.627548 
L 248.660666 151.757711 
L 240.918518 150.736199 
L 232.285303 149.362585 
L 220.407414 147.208511 
L 204.614944 144.36076 
L 195.290439 142.929299 
L 186.153384 141.772047 
L 174.340157 140.540521 
L 158.925291 138.925808 
L 149.697721 137.727249 
L 138.023644 135.961088 
L 123.898693 133.862688 
L 111.415645 132.051693 
L 107.699156 131.264841 
L 104.708936 130.407755 
L 102.071076 129.404315 
L 99.804912 128.290392 
L 97.749505 127.013083 
L 96.08638 125.718313 
L 94.975633 124.585814 
L 94.774587 124.143753 
L 94.929726 124.078053 
L 95.456026 124.212924 
L 98.511372 125.444044 
L 101.273347 126.360029 
L 104.091664 127.043761 
L 107.350034 127.57952 
L 111.415645 127.989244 
L 117.733072 128.362507 
L 127.998407 128.980087 
L 136.857483 129.769441 
L 160.964731 132.080961 
L 192.986597 134.676838 
L 200.710426 135.664148 
L 209.329618 137.004771 
L 220.407414 138.989371 
L 238.574259 142.272339 
L 247.892035 143.692409 
L 257.020199 144.838944 
L 268.819036 146.063134 
L 284.210229 147.682379 
L 293.420203 148.886293 
L 305.649817 150.743921 
L 319.147598 152.739419 
L 331.18561 154.480888 
L 334.922387 155.260055 
L 337.931682 156.108775 
L 340.589596 157.104651 
L 342.876966 158.214049 
L 344.957406 159.492107 
L 346.64979 160.796094 
L 347.796935 161.949615 
L 348.029545 162.384474 
L 348.029545 162.384474 
" style="fill:none;stroke:#172c4b;stroke-linecap:square;stroke-opacity:0.9;"/>
   </g>
   <g id="line2d_14">
    <path clip-path="url(#pbe6ac3554e)" d="M 352.383031 172.280022 
L 352.315077 172.429135 
L 352.276912 172.415312 
L 351.960496 172.050215 
L 350.881307 170.294416 
L 348.752038 166.890621 
L 346.995945 164.515162 
L 345.577876 162.926066 
L 344.039079 161.53281 
L 342.729279 160.605846 
L 341.355124 159.870284 
L 339.920775 159.335934 
L 338.429352 159.00057 
L 336.882961 158.850779 
L 334.874373 158.888495 
L 332.353678 159.180503 
L 323.049935 160.515996 
L 319.977192 160.605931 
L 316.773482 160.445777 
L 313.442264 160.037711 
L 309.403036 159.299857 
L 302.135011 157.675524 
L 295.797731 156.342339 
L 290.577784 155.479156 
L 285.245648 154.854113 
L 279.130701 154.402436 
L 268.700161 153.932563 
L 258.728792 153.390426 
L 249.300538 152.639002 
L 219.726573 150.100291 
L 206.371179 148.93357 
L 190.945014 147.307447 
L 180.126693 146.268895 
L 157.888641 144.319688 
L 153.21161 143.588727 
L 148.618037 142.646556 
L 144.120089 141.505122 
L 138.501582 139.843844 
L 129.638579 137.180394 
L 125.752267 136.25902 
L 122.559377 135.721232 
L 119.497616 135.424964 
L 116.091794 135.336695 
L 107.311944 135.298853 
L 105.328455 134.945826 
L 103.802492 134.466312 
L 102.332172 133.785334 
L 100.919973 132.889134 
L 99.569409 131.775411 
L 98.285022 130.454169 
L 96.78109 128.546114 
L 95.401857 126.419169 
L 93.931343 123.711215 
L 92.50283 120.584688 
L 91.180877 117.120861 
L 90.466669 114.687707 
L 90.466669 114.139688 
L 90.593781 114.211205 
L 91.072594 114.875339 
L 95.142199 121.21291 
L 96.78109 123.182123 
L 98.285022 124.642463 
L 99.901041 125.85654 
L 101.2674 126.616815 
L 102.694417 127.176436 
L 104.178841 127.536157 
L 105.718444 127.708061 
L 107.718673 127.693158 
L 110.229297 127.419464 
L 119.998751 126.035741 
L 123.082471 125.965757 
L 126.296978 126.147188 
L 129.638579 126.574649 
L 133.68912 127.329391 
L 142.225266 129.242068 
L 147.969299 130.404622 
L 153.21161 131.224473 
L 158.563026 131.805678 
L 164.697089 132.221959 
L 189.490941 133.585687 
L 204.153494 134.905207 
L 219.726573 136.204068 
L 235.316415 137.527047 
L 249.300538 138.988342 
L 261.598874 140.207395 
L 274.298208 141.192342 
L 281.862708 141.877669 
L 287.257323 142.588515 
L 291.893962 143.423746 
L 296.441423 144.469955 
L 301.511809 145.876618 
L 315.676992 150.014073 
L 318.923728 150.652661 
L 322.040337 151.047838 
L 325.025222 151.216283 
L 328.80211 151.194875 
L 334.04756 151.153762 
L 336.089551 151.349539 
L 338.047846 151.779816 
L 339.553171 152.332595 
L 341.002041 153.093258 
L 342.391594 154.071409 
L 343.717929 155.264797 
L 344.976126 156.65873 
L 346.444053 158.640957 
L 347.783172 160.816236 
L 349.19969 163.539714 
L 350.557082 166.619104 
L 351.776202 169.922787 
L 352.36603 172.082203 
L 352.383031 172.280022 
L 352.383031 172.280022 
" style="fill:none;stroke:#172c4b;stroke-linecap:square;stroke-opacity:0.8;"/>
   </g>
   <g id="line2d_15">
    <path clip-path="url(#pbe6ac3554e)" d="M 356.315055 181.004999 
L 356.233351 181.326381 
L 356.065408 181.257509 
L 355.701639 180.767364 
L 354.695086 178.92091 
L 350.837949 171.595416 
L 348.935216 168.503893 
L 347.201426 166.081418 
L 345.353801 163.929228 
L 343.805323 162.464332 
L 342.202374 161.261928 
L 340.550989 160.337781 
L 338.855799 159.693044 
L 337.120052 159.315308 
L 335.3457 159.180324 
L 333.53353 159.254266 
L 331.214768 159.577974 
L 327.864568 160.304465 
L 321.814184 161.670601 
L 318.631054 162.166605 
L 315.337194 162.444811 
L 311.931514 162.486284 
L 308.415583 162.307986 
L 303.563364 161.805878 
L 280.520487 159.016098 
L 243.654877 155.737421 
L 230.208483 154.524484 
L 204.733722 152.358673 
L 194.317745 151.136038 
L 164.709342 147.268272 
L 157.132308 146.067873 
L 151.092658 144.891039 
L 144.580293 143.396992 
L 133.492941 140.792653 
L 129.433566 140.094632 
L 126.074438 139.733041 
L 122.827 139.605368 
L 119.176446 139.715214 
L 109.493312 140.250886 
L 107.676419 140.065943 
L 105.897318 139.672591 
L 104.156664 139.029289 
L 102.456254 138.102747 
L 100.799169 136.870545 
L 99.189865 135.323301 
L 97.634201 133.466216 
L 96.1394 131.319889 
L 94.713941 128.9203 
L 93.044255 125.642845 
L 91.518273 122.17559 
L 89.906986 117.975653 
L 88.37664 113.377604 
L 87.152535 109.053307 
L 86.545177 106.232996 
L 86.514543 105.306533 
L 86.636925 105.243371 
L 86.850115 105.44231 
L 87.402656 106.324805 
L 89.202095 109.815396 
L 91.810951 114.713059 
L 93.696061 117.811554 
L 95.417429 120.254838 
L 97.254484 122.438693 
L 98.79566 123.934548 
L 100.392159 125.170932 
L 102.037771 126.130217 
L 103.727691 126.809465 
L 105.458501 127.219473 
L 107.228093 127.383124 
L 109.035544 127.333184 
L 111.348296 127.031868 
L 114.689615 126.321661 
L 121.244582 124.849054 
L 124.436833 124.369491 
L 127.740007 124.110833 
L 131.154971 124.088758 
L 134.679939 124.283693 
L 139.543519 124.800904 
L 161.240707 127.460464 
L 173.18191 128.416149 
L 186.212533 129.540829 
L 216.711582 132.369997 
L 234.700424 133.866262 
L 244.398584 134.927768 
L 259.144208 136.818428 
L 282.589764 139.981057 
L 288.704686 141.065251 
L 294.663319 142.331072 
L 304.793395 144.776553 
L 310.187132 145.947312 
L 314.214368 146.585687 
L 317.545513 146.888645 
L 320.765269 146.960201 
L 324.384739 146.802365 
L 332.613236 146.292149 
L 334.896195 146.468588 
L 336.680034 146.833478 
L 338.425567 147.44352 
L 340.131149 148.333186 
L 341.793864 149.526381 
L 343.409433 151.034219 
L 344.97217 152.853381 
L 346.475018 154.965211 
L 347.909647 157.335619 
L 349.592556 160.5867 
L 351.133864 164.041384 
L 352.766393 168.247057 
L 354.325281 172.88173 
L 355.586193 177.28395 
L 356.233351 180.210283 
L 356.315055 181.004999 
L 356.315055 181.004999 
" style="fill:none;stroke:#172c4b;stroke-linecap:square;stroke-opacity:0.7;"/>
   </g>
   <g id="line2d_16">
    <path clip-path="url(#pbe6ac3554e)" d="M 359.755747 188.193132 
L 359.665013 188.755221 
L 359.4785 188.816731 
L 359.191905 188.577611 
L 358.497797 187.551862 
L 356.857216 184.524834 
L 353.668423 178.602318 
L 351.551861 175.116065 
L 349.622625 172.354491 
L 347.986695 170.347109 
L 346.2793 168.585526 
L 344.508993 167.114058 
L 342.682821 165.959401 
L 341.279877 165.307072 
L 339.85033 164.834941 
L 337.904944 164.470208 
L 335.916073 164.376072 
L 333.88415 164.505171 
L 331.282771 164.891854 
L 323.040685 166.322012 
L 320.137651 166.484378 
L 317.757774 166.393005 
L 315.327751 166.076343 
L 312.849557 165.524086 
L 310.326258 164.741635 
L 307.115062 163.472797 
L 303.191426 161.621465 
L 292.508799 156.321317 
L 289.822631 155.257737 
L 287.141238 154.416791 
L 284.468504 153.843227 
L 282.471268 153.608363 
L 280.481011 153.550473 
L 278.497877 153.672842 
L 276.52155 153.973664 
L 273.895652 154.639691 
L 271.277461 155.580128 
L 268.662794 156.750642 
L 265.391483 158.450046 
L 256.117154 163.484906 
L 253.409891 164.677821 
L 250.667386 165.635379 
L 248.585087 166.165618 
L 246.479751 166.513868 
L 244.350753 166.6663 
L 242.197963 166.614125 
L 240.021761 166.353849 
L 237.823037 165.887386 
L 235.603183 165.22203 
L 232.613803 164.047803 
L 229.59585 162.585646 
L 225.793651 160.439801 
L 220.442561 157.084462 
L 213.580738 152.776757 
L 209.808495 150.679552 
L 206.823108 149.267577 
L 203.872522 148.148967 
L 201.684916 147.525895 
L 199.52034 147.099657 
L 197.379431 146.87516 
L 195.262312 146.851923 
L 193.168603 147.024112 
L 191.097442 147.380728 
L 188.368654 148.115084 
L 185.673412 149.099245 
L 182.343566 150.587418 
L 170.53904 156.226964 
L 167.918388 157.104986 
L 165.288761 157.722673 
L 163.309099 157.993457 
L 161.322414 158.088522 
L 159.32862 158.003605 
L 157.328093 157.739497 
L 154.651733 157.119238 
L 151.968032 156.217707 
L 149.2813 155.074612 
L 145.926758 153.38382 
L 141.259203 150.737277 
L 134.71308 147.002705 
L 131.520119 145.398656 
L 128.393729 144.077926 
L 125.945351 143.25417 
L 123.546507 142.642642 
L 120.619494 142.157059 
L 117.772202 141.926685 
L 113.377777 141.85519 
L 109.686671 141.750899 
L 107.133221 141.436697 
L 105.138968 140.940908 
L 103.671678 140.38762 
L 102.22932 139.655718 
L 100.812891 138.729046 
L 99.42386 137.596394 
L 98.064195 136.251981 
L 96.301334 134.130867 
L 94.602375 131.650406 
L 92.976049 128.845703 
L 91.4324 125.769497 
L 89.636099 121.647977 
L 88.009617 117.371293 
L 86.315615 112.291334 
L 84.74482 106.850312 
L 83.663116 102.39524 
L 83.1114 99.316576 
L 83.054685 98.099585 
L 83.213291 97.743934 
L 83.450062 97.834107 
L 83.919557 98.409472 
L 84.940436 100.154347 
L 90.335569 110.007898 
L 92.193217 112.860421 
L 94.188613 115.494137 
L 95.870287 117.353994 
L 97.617912 118.938353 
L 99.42386 120.213787 
L 100.812891 120.957738 
L 102.22932 121.51923 
L 103.671678 121.904147 
L 105.633496 122.162647 
L 107.638502 122.166891 
L 110.205543 121.894219 
L 113.916557 121.212035 
L 118.335337 120.420182 
L 121.198498 120.1303 
L 123.546507 120.092908 
L 125.945351 120.266571 
L 128.393729 120.671216 
L 130.889254 121.311268 
L 133.42846 122.175493 
L 136.656985 123.529795 
L 140.596924 125.447277 
L 149.2813 129.801501 
L 152.639428 131.188575 
L 155.321654 132.060032 
L 157.995642 132.669054 
L 159.993994 132.932744 
L 161.985437 133.020494 
L 163.969749 132.928181 
L 165.947169 132.656758 
L 168.574266 132.027452 
L 171.193215 131.119169 
L 173.808058 129.974546 
L 177.07861 128.296587 
L 187.691886 122.612238 
L 190.411852 121.500436 
L 193.168603 120.645927 
L 195.262312 120.204654 
L 197.379431 119.952891 
L 199.52034 119.90199 
L 201.684916 120.058116 
L 203.872522 120.422064 
L 206.082016 120.989216 
L 208.311762 121.749647 
L 211.312583 123.037642 
L 214.339558 124.59391 
L 218.149074 126.823219 
L 225.030438 131.201148 
L 230.352663 134.452987 
L 234.112446 136.449425 
L 237.085351 137.756767 
L 240.021761 138.754782 
L 242.197963 139.280385 
L 244.350753 139.606029 
L 246.479751 139.729499 
L 248.585087 139.653965 
L 250.667386 139.387876 
L 252.727735 138.9447 
L 255.443395 138.11021 
L 258.127348 137.047508 
L 261.446123 135.496708 
L 270.62365 131.001033 
L 273.240526 129.984205 
L 275.864168 129.1988 
L 278.497877 128.688557 
L 280.481011 128.504784 
L 282.471268 128.499494 
L 284.468504 128.674419 
L 286.472117 129.026268 
L 289.151663 129.755865 
L 291.837064 130.753275 
L 294.523613 131.974421 
L 297.874824 133.732757 
L 303.849918 137.182167 
L 309.048941 140.072541 
L 312.222817 141.597995 
L 315.327751 142.824073 
L 317.757774 143.567852 
L 320.137651 144.10202 
L 323.040685 144.503479 
L 326.419658 144.687833 
L 334.396183 144.938684 
L 336.417324 145.287927 
L 338.395409 145.882719 
L 339.85033 146.523009 
L 341.279877 147.350572 
L 342.682821 148.379163 
L 344.057446 149.617328 
L 345.401533 151.067993 
L 347.141362 153.326803 
L 348.814183 155.933948 
L 350.410745 158.847539 
L 351.920575 162.008678 
L 353.668423 166.194841 
L 355.530127 171.336985 
L 357.095954 176.303879 
L 358.497797 181.445072 
L 359.394 185.446485 
L 359.75007 187.966588 
L 359.755747 188.193132 
L 359.755747 188.193132 
" style="fill:none;stroke:#172c4b;stroke-linecap:square;stroke-opacity:0.6;"/>
   </g>
   <g id="line2d_17">
    <path clip-path="url(#pbe6ac3554e)" d="M 361.363545 194.742323 
L 361.265662 195.537652 
L 361.064537 195.678401 
L 360.755698 195.438004 
L 360.180811 194.555998 
L 358.986358 192.165518 
L 353.765928 181.156932 
L 351.825242 177.653696 
L 350.174132 175.037128 
L 348.448895 172.6842 
L 346.660404 170.665773 
L 345.283076 169.401916 
L 343.87847 168.366523 
L 342.449099 167.564229 
L 340.996853 166.992229 
L 339.52302 166.640601 
L 338.028326 166.492822 
L 336.512986 166.526478 
L 334.45997 166.805588 
L 331.839086 167.422916 
L 324.707664 169.292773 
L 322.411723 169.631818 
L 320.065262 169.74577 
L 317.668294 169.593258 
L 315.222098 169.151874 
L 312.729289 168.419346 
L 310.193802 167.413567 
L 307.620778 166.171512 
L 303.704557 163.987231 
L 295.092278 159.037795 
L 292.436625 157.791391 
L 289.789198 156.811985 
L 287.811804 156.29127 
L 285.84298 155.977916 
L 283.883569 155.88764 
L 281.933855 156.030069 
L 279.993548 156.40836 
L 278.061784 157.018999 
L 276.137136 157.851804 
L 274.217649 158.890105 
L 271.662086 160.55398 
L 268.463747 162.983069 
L 258.018409 171.37058 
L 255.313119 173.096321 
L 253.250284 174.174733 
L 251.155937 175.031588 
L 249.028437 175.639484 
L 246.866756 175.976855 
L 244.670522 176.028578 
L 242.440043 175.786393 
L 240.176321 175.249164 
L 237.881042 174.422939 
L 235.556551 173.320832 
L 233.205812 171.962715 
L 230.832349 170.374736 
L 227.639383 167.95551 
L 223.617696 164.5727 
L 209.985951 152.718626 
L 206.851785 150.439957 
L 204.531973 148.976199 
L 202.241807 147.753243 
L 199.983527 146.79199 
L 197.758705 146.106675 
L 195.568227 145.704548 
L 193.412287 145.58573 
L 191.290401 145.743263 
L 189.201435 146.163339 
L 187.143653 146.825718 
L 185.114775 147.704307 
L 182.449762 149.157512 
L 179.823674 150.853828 
L 175.296362 154.120348 
L 170.816167 157.311929 
L 168.260358 158.908442 
L 165.69898 160.238542 
L 163.770986 161.02226 
L 161.835095 161.59943 
L 159.890157 161.955754 
L 157.935594 162.083385 
L 155.971406 161.981045 
L 153.998158 161.653952 
L 152.01696 161.113561 
L 150.029421 160.377113 
L 147.373124 159.129595 
L 144.715163 157.638773 
L 140.740096 155.111823 
L 132.923552 150.003598 
L 129.754344 148.223987 
L 127.267173 147.054377 
L 124.827015 146.141318 
L 122.436317 145.492291 
L 120.096195 145.094331 
L 117.806513 144.914462 
L 115.013413 144.916413 
L 108.07899 145.098154 
L 106.03068 144.866775 
L 104.518785 144.508803 
L 103.02754 143.956314 
L 101.55724 143.181059 
L 100.108701 142.160068 
L 98.68331 140.876539 
L 97.283059 139.320544 
L 95.910566 137.489559 
L 94.569073 135.388767 
L 92.835369 132.191568 
L 91.174343 128.590492 
L 89.598198 124.659786 
L 87.767877 119.427336 
L 86.118941 114.043844 
L 84.419277 107.721992 
L 82.879042 101.06945 
L 81.874217 95.774395 
L 81.47238 92.675181 
L 81.47238 91.247001 
L 81.618973 90.911677 
L 81.777175 90.903693 
L 82.103744 91.206128 
L 82.701475 92.164893 
L 83.927909 94.652126 
L 88.846108 105.053713 
L 90.771844 108.573107 
L 92.835369 111.841178 
L 94.569073 114.155746 
L 96.364792 116.128436 
L 97.746867 117.354857 
L 99.155758 118.351518 
L 100.589056 119.115039 
L 102.044974 119.649434 
L 103.522319 119.965771 
L 105.020457 120.081608 
L 107.050143 119.96518 
L 109.117428 119.60252 
L 112.293065 118.771642 
L 117.241853 117.449139 
L 119.519076 117.039854 
L 121.84653 116.835687 
L 124.224638 116.884593 
L 126.652608 117.216289 
L 129.128328 117.840664 
L 131.648352 118.747319 
L 134.207972 119.906236 
L 137.454247 121.63521 
L 149.365844 128.336811 
L 152.01696 129.424465 
L 153.998158 130.04121 
L 155.971406 130.46057 
L 157.935594 130.663981 
L 159.890157 130.638709 
L 161.835095 130.378329 
L 163.770986 129.883006 
L 165.69898 129.159599 
L 167.620772 128.22157 
L 170.177388 126.672055 
L 172.733392 124.839641 
L 176.583051 121.73575 
L 183.112055 116.407804 
L 185.788017 114.516415 
L 188.512145 112.906823 
L 190.590495 111.935427 
L 192.701251 111.199975 
L 194.845753 110.725036 
L 197.024706 110.52902 
L 199.238145 110.62366 
L 201.485413 111.013675 
L 203.765166 111.696604 
L 206.075384 112.662841 
L 208.413407 113.895843 
L 210.77598 115.372528 
L 213.957672 117.669516 
L 217.166082 120.264461 
L 222.00414 124.503386 
L 230.036827 131.606235 
L 233.205812 134.152525 
L 236.334456 136.387772 
L 238.64951 137.813117 
L 240.934499 138.993732 
L 243.187293 139.909799 
L 245.406434 140.548227 
L 247.591151 140.902952 
L 249.741364 140.975039 
L 251.857667 140.772611 
L 253.9413 140.310579 
L 255.994093 139.610205 
L 258.018409 138.698489 
L 260.678124 137.21 
L 263.95042 135.034592 
L 274.217649 127.84616 
L 276.778005 126.478933 
L 278.704833 125.662618 
L 280.639314 125.04986 
L 282.582688 124.656006 
L 284.535631 124.489993 
L 286.498239 124.554194 
L 288.47004 124.84446 
L 290.450012 125.350349 
L 292.436625 126.055546 
L 295.092278 127.267839 
L 297.750388 128.732179 
L 301.727351 131.237872 
L 310.193802 136.756245 
L 313.356668 138.50362 
L 315.838142 139.642257 
L 318.272223 140.522304 
L 320.656633 141.13882 
L 322.990419 141.507317 
L 325.273861 141.663187 
L 328.059476 141.642147 
L 334.45997 141.457104 
L 336.512986 141.658367 
L 338.028326 141.986982 
L 339.52302 142.504961 
L 340.996853 143.241339 
L 342.449099 144.22003 
L 343.87847 145.458921 
L 345.283076 146.969124 
L 346.660404 148.754427 
L 348.007315 150.810943 
L 349.749319 153.953531 
L 351.420068 157.507746 
L 353.007535 161.402011 
L 354.854448 166.606943 
L 356.522796 171.98585 
L 358.249429 178.334567 
L 359.825716 185.061913 
L 360.870474 190.471551 
L 361.308456 193.691036 
L 361.363545 194.742323 
L 361.363545 194.742323 
" style="fill:none;stroke:#172c4b;stroke-linecap:square;stroke-opacity:0.5;"/>
   </g>
   <g id="line2d_18">
    <path clip-path="url(#pbe6ac3554e)" d="M 365.266565 202.487085 
L 365.155613 203.639408 
L 364.927629 203.980171 
L 364.707644 203.961749 
L 364.277653 203.577299 
L 363.523229 202.436215 
L 362.304326 200.110351 
L 354.457412 184.237137 
L 352.110319 180.32887 
L 350.1441 177.490501 
L 348.113331 174.998239 
L 346.554618 173.392626 
L 344.969744 172.031328 
L 343.361913 170.922235 
L 341.733641 170.065267 
L 340.086771 169.452632 
L 338.422518 169.069305 
L 336.741516 168.893711 
L 334.474275 168.934895 
L 332.176574 169.219305 
L 328.668763 169.910336 
L 323.864616 170.84755 
L 321.40311 171.131961 
L 318.900206 171.200248 
L 316.35586 171.002617 
L 313.771306 170.50901 
L 311.149158 169.710791 
L 308.493409 168.621247 
L 305.809341 167.274846 
L 302.424242 165.314108 
L 291.532272 158.69448 
L 288.834077 157.423858 
L 286.824933 156.679277 
L 284.830264 156.145622 
L 282.851339 155.846247 
L 280.888841 155.798327 
L 278.942839 156.012209 
L 277.012763 156.490952 
L 275.097415 157.230093 
L 273.19498 158.217619 
L 271.303067 159.434171 
L 268.791789 161.36614 
L 266.285886 163.578424 
L 261.885588 167.82981 
L 257.421033 172.054323 
L 254.821314 174.219681 
L 252.841863 175.641596 
L 250.833688 176.844641 
L 248.794417 177.793205 
L 246.722313 178.457806 
L 244.616334 178.815951 
L 242.476172 178.852804 
L 240.302278 178.561642 
L 238.095865 177.944092 
L 235.858889 177.010141 
L 233.594013 175.777917 
L 231.30455 174.273235 
L 228.220485 171.900861 
L 225.110215 169.197731 
L 220.421303 164.765397 
L 213.416986 158.078702 
L 210.345537 155.403416 
L 207.314395 153.065691 
L 205.072566 151.588621 
L 202.860904 150.382788 
L 200.681485 149.471421 
L 198.535649 148.86993 
L 196.423974 148.585561 
L 194.346277 148.617263 
L 192.301637 148.955794 
L 190.288428 149.584053 
L 188.304379 150.477621 
L 186.346648 151.605502 
L 183.77147 153.4098 
L 180.596262 156.00676 
L 171.809087 163.544986 
L 169.286411 165.31365 
L 167.381974 166.424863 
L 165.464281 167.321102 
L 163.531618 167.982122 
L 161.582888 168.394773 
L 159.617631 168.553229 
L 157.636018 168.459002 
L 155.638834 168.120731 
L 153.627438 167.553764 
L 151.603716 166.779536 
L 148.890347 165.471666 
L 145.483807 163.50116 
L 140.713276 160.414088 
L 135.30778 156.955106 
L 131.97873 155.086374 
L 129.352136 153.842171 
L 126.762711 152.854918 
L 124.213244 152.133553 
L 121.705138 151.664969 
L 119.238499 151.414435 
L 116.211894 151.322859 
L 109.181374 151.219255 
L 106.902871 150.893769 
L 105.213569 150.454315 
L 103.540896 149.806011 
L 101.885221 148.915804 
L 100.247459 147.75576 
L 98.629136 146.304076 
L 97.032426 144.545935 
L 95.460189 142.47417 
L 93.915972 140.089722 
L 92.404005 137.40188 
L 90.446729 133.377812 
L 88.568708 128.910761 
L 86.784706 124.088326 
L 84.711294 117.726436 
L 82.842338 111.223308 
L 80.915383 103.609988 
L 79.382843 96.646337 
L 78.290165 90.765006 
L 77.671473 86.320721 
L 77.532832 83.893368 
L 77.671473 82.840873 
L 77.919966 82.574338 
L 78.153408 82.641093 
L 78.603143 83.095234 
L 79.382843 84.321873 
L 80.915383 87.324642 
L 87.221036 100.283887 
L 89.496922 104.324969 
L 91.416325 107.339478 
L 93.408172 110.056473 
L 95.460189 112.402423 
L 97.032426 113.887367 
L 98.629136 115.123047 
L 100.247459 116.105577 
L 101.885221 116.838939 
L 103.540896 117.334615 
L 105.213569 117.611 
L 106.902871 117.692637 
L 109.181374 117.55057 
L 112.0734 117.085932 
L 119.851309 115.592497 
L 122.32826 115.38215 
L 124.846765 115.408757 
L 127.406407 115.714982 
L 130.005439 116.322987 
L 132.640728 117.233176 
L 135.30778 118.424169 
L 138.000873 119.853987 
L 142.074408 122.310536 
L 149.570008 126.950195 
L 152.279524 128.383226 
L 154.969865 129.541243 
L 156.971964 130.183635 
L 158.958885 130.602701 
L 160.929644 130.778081 
L 162.883862 130.695946 
L 164.821791 130.34955 
L 166.744313 129.739575 
L 168.652941 128.874274 
L 170.549782 127.76937 
L 172.437495 126.447753 
L 174.945742 124.400401 
L 178.079271 121.506637 
L 185.699357 114.2294 
L 188.304379 112.09793 
L 190.288428 110.70979 
L 192.301637 109.546839 
L 194.346277 108.643734 
L 196.423974 108.028847 
L 198.535649 107.723434 
L 200.681485 107.741007 
L 202.860904 108.086908 
L 205.072566 108.758109 
L 207.314395 109.743244 
L 209.583616 111.022871 
L 211.876813 112.569946 
L 214.964756 114.989187 
L 218.077502 117.726214 
L 222.767284 122.181902 
L 229.766483 128.838801 
L 232.83341 131.477398 
L 235.858889 133.766238 
L 238.095865 135.200031 
L 240.302278 136.358194 
L 242.476172 137.218768 
L 244.616334 137.767685 
L 246.722313 137.999079 
L 248.794417 137.91538 
L 250.833688 137.527167 
L 252.841863 136.852806 
L 254.821314 135.917869 
L 256.77497 134.754361 
L 259.345651 132.912924 
L 262.5169 130.288136 
L 270.674279 123.263883 
L 273.19498 121.45878 
L 275.097415 120.314181 
L 277.012763 119.380521 
L 278.942839 118.679189 
L 280.888841 118.224539 
L 282.851339 118.023625 
L 284.830264 118.07615 
L 286.824933 118.374638 
L 288.834077 118.904823 
L 290.855896 119.646231 
L 293.567389 120.917901 
L 296.290906 122.445119 
L 300.38262 125.032032 
L 307.824815 129.813237 
L 311.149158 131.650491 
L 313.771306 132.863804 
L 316.35586 133.817861 
L 318.900206 134.506458 
L 321.40311 134.945456 
L 323.864616 135.172198 
L 327.481955 135.243788 
L 332.753941 135.286297 
L 335.043888 135.521495 
L 336.741516 135.87021 
L 338.422518 136.409681 
L 340.086771 137.175099 
L 341.733641 138.197095 
L 343.361913 139.500652 
L 344.969744 141.104177 
L 346.554618 143.018733 
L 348.113331 145.247476 
L 349.641993 147.785307 
L 351.136047 150.618746 
L 353.065239 154.817764 
L 354.909807 159.429521 
L 356.654488 164.358377 
L 358.670021 170.789666 
L 360.471229 177.283637 
L 362.304326 184.777805 
L 363.730776 191.509078 
L 364.707644 197.060514 
L 365.204121 201.102723 
L 365.266565 202.487085 
L 365.266565 202.487085 
" style="fill:none;stroke:#172c4b;stroke-linecap:square;stroke-opacity:0.4;"/>
   </g>
   <g id="line2d_19">
    <path clip-path="url(#pbe6ac3554e)" d="M 367.761815 213.493703 
L 367.640479 215.001439 
L 367.391279 215.445288 
L 367.150981 215.419004 
L 366.852462 215.142054 
L 366.298218 214.276441 
L 365.368474 212.345464 
L 363.595318 208.039821 
L 358.463405 195.278454 
L 356.130438 190.104997 
L 354.160183 186.203971 
L 352.11619 182.664205 
L 350.543878 180.313581 
L 348.94393 178.263208 
L 347.32089 176.537065 
L 345.678423 175.148059 
L 344.019312 174.09802 
L 342.345477 173.378024 
L 340.658025 172.969031 
L 338.957318 172.842815 
L 337.243057 172.963149 
L 335.514392 173.287211 
L 333.184828 173.953006 
L 324.753515 176.697507 
L 322.249344 177.123918 
L 320.340489 177.231894 
L 318.405049 177.129692 
L 316.443394 176.800825 
L 314.45647 176.237868 
L 312.445806 175.442636 
L 310.413498 174.426067 
L 307.674693 172.761493 
L 304.909623 170.807735 
L 300.731907 167.535743 
L 294.461146 162.601792 
L 291.69658 160.702755 
L 289.639482 159.495943 
L 287.599526 158.521898 
L 285.578929 157.816131 
L 283.579267 157.407183 
L 281.60141 157.315694 
L 279.64549 157.553696 
L 277.710881 158.124158 
L 275.796201 159.020794 
L 273.899342 160.228133 
L 272.017515 161.721852 
L 270.147314 163.469361 
L 267.664929 166.123999 
L 264.565056 169.803273 
L 258.29042 177.390138 
L 255.721059 180.128821 
L 253.762142 181.949034 
L 251.771891 183.513912 
L 249.747384 184.780345 
L 247.686405 185.7123 
L 246.291414 186.133603 
L 244.879337 186.387478 
L 243.450117 186.469593 
L 242.003872 186.377486 
L 240.540886 186.110594 
L 239.061614 185.670267 
L 237.566678 185.059757 
L 235.296647 183.836583 
L 232.996426 182.267259 
L 230.66998 180.385151 
L 228.321886 178.231332 
L 225.166259 175.020266 
L 221.200341 170.643237 
L 212.517658 160.89181 
L 209.415928 157.746333 
L 207.120481 155.654368 
L 204.855821 153.841802 
L 202.625088 152.346341 
L 200.430644 151.197599 
L 198.274024 150.41638 
L 196.857659 150.105817 
L 195.458411 149.964954 
L 194.076099 149.992941 
L 192.710377 150.187047 
L 191.360739 150.542693 
L 189.364964 151.364663 
L 187.401055 152.506819 
L 185.465561 153.932778 
L 183.55449 155.599337 
L 181.0367 158.110616 
L 177.301854 162.23567 
L 172.339293 167.69658 
L 169.840912 170.117708 
L 167.951958 171.703672 
L 166.046496 173.048033 
L 164.12207 174.118498 
L 162.176931 174.890879 
L 160.210074 175.349671 
L 158.221251 175.488389 
L 156.210968 175.309631 
L 154.180452 174.824881 
L 152.13161 174.054048 
L 150.066957 173.024748 
L 147.989534 171.771357 
L 145.205824 169.82133 
L 141.716869 167.086379 
L 133.407632 160.429948 
L 130.689135 158.544812 
L 128.00834 156.960727 
L 126.025537 155.999476 
L 124.068201 155.244271 
L 122.137182 154.695632 
L 120.232754 154.344692 
L 117.734348 154.15168 
L 115.280732 154.209768 
L 111.677121 154.561416 
L 108.153391 154.87935 
L 105.841685 154.85544 
L 104.125095 154.619127 
L 102.422166 154.136162 
L 100.732499 153.357607 
L 99.056339 152.240572 
L 97.394663 150.749775 
L 95.749252 148.858906 
L 94.122744 146.551741 
L 92.518655 143.82299 
L 90.941385 140.678825 
L 89.396187 137.137087 
L 87.889117 133.227155 
L 85.950813 127.512557 
L 84.11016 121.340182 
L 82.386328 114.861155 
L 80.42626 106.5948 
L 78.718959 98.48278 
L 77.055717 89.472716 
L 75.865173 81.815557 
L 75.189356 76.00654 
L 75.037744 72.828725 
L 75.189356 71.451961 
L 75.355525 71.156232 
L 75.581105 71.118758 
L 75.865173 71.333772 
L 76.398362 72.111176 
L 77.301455 73.93612 
L 79.038373 78.114864 
L 84.560139 91.814112 
L 86.908907 96.966062 
L 88.889273 100.828912 
L 90.941385 104.315196 
L 92.518655 106.617905 
L 94.122744 108.615608 
L 95.749252 110.286157 
L 97.394663 111.6185 
L 99.056339 112.61263 
L 100.732499 113.279209 
L 102.422166 113.638879 
L 104.125095 113.721291 
L 105.841685 113.563873 
L 108.153391 113.057283 
L 111.084678 112.112348 
L 116.502115 110.268816 
L 118.977797 109.676884 
L 120.864614 109.412576 
L 122.777902 109.338113 
L 124.717752 109.477187 
L 126.6837 109.844803 
L 128.674703 110.446848 
L 130.689135 111.279971 
L 132.724808 112.331745 
L 135.467333 114.03669 
L 138.235097 116.020671 
L 142.414692 119.314088 
L 147.989534 123.710415 
L 150.756754 125.644432 
L 152.816451 126.886159 
L 154.859435 127.901637 
L 156.883386 128.6543 
L 158.886617 129.114374 
L 160.868137 129.259848 
L 162.82769 129.077216 
L 164.765776 128.561978 
L 166.68365 127.718875 
L 168.583303 126.561864 
L 170.467415 125.113826 
L 172.339293 123.406025 
L 174.822831 120.79303 
L 177.922211 117.144578 
L 184.826035 108.819903 
L 187.401055 106.120219 
L 189.364964 104.339301 
L 191.360739 102.821348 
L 193.391192 101.608365 
L 194.765156 100.986628 
L 196.155903 100.524359 
L 197.563697 100.228149 
L 198.988635 100.102789 
L 200.430644 100.151214 
L 201.889481 100.374462 
L 203.364733 100.771661 
L 204.855821 101.340033 
L 207.120481 102.50286 
L 209.415928 104.016588 
L 211.738306 105.849221 
L 214.083133 107.960905 
L 217.235778 111.128966 
L 221.200341 115.475905 
L 230.66998 126.088231 
L 233.76629 129.188032 
L 236.056855 131.236365 
L 238.316059 132.99849 
L 240.540886 134.437991 
L 242.729109 135.526677 
L 244.166866 136.047668 
L 245.587519 136.400566 
L 246.991035 136.583849 
L 248.377555 136.597891 
L 249.747384 136.444958 
L 251.100987 136.129169 
L 252.438984 135.656448 
L 254.418432 134.670304 
L 256.367666 133.381247 
L 258.29042 131.829206 
L 260.820252 129.431293 
L 263.943727 126.080553 
L 270.769655 118.552916 
L 273.270552 116.170906 
L 275.162059 114.622646 
L 277.070529 113.321902 
L 278.998305 112.299666 
L 280.947015 111.578714 
L 282.917536 111.173063 
L 284.909991 111.087683 
L 286.923751 111.318472 
L 288.95747 111.852503 
L 291.009138 112.668526 
L 293.076143 113.737729 
L 295.850556 115.495186 
L 298.638151 117.540988 
L 303.519907 121.483011 
L 308.362172 125.36749 
L 311.770656 127.802889 
L 314.45647 129.427708 
L 317.100145 130.708954 
L 319.053138 131.429514 
L 320.97973 131.944334 
L 322.879738 132.263841 
L 325.37241 132.421254 
L 327.820629 132.337769 
L 332.008394 131.90735 
L 334.934757 131.677474 
L 337.243057 131.737161 
L 338.957318 132.010978 
L 340.658025 132.539951 
L 342.345477 133.372128 
L 344.019312 134.549234 
L 345.678423 136.105142 
L 347.32089 138.064554 
L 348.94393 140.44192 
L 350.543878 143.24065 
L 352.11619 146.452632 
L 353.655475 150.058081 
L 355.645688 155.421782 
L 357.549541 161.32414 
L 359.34869 167.630502 
L 361.420544 175.836244 
L 363.259035 184.071932 
L 365.10344 193.472991 
L 366.496929 201.761275 
L 367.391279 208.391621 
L 367.731449 212.34926 
L 367.761815 213.493703 
L 367.761815 213.493703 
" style="fill:none;stroke:#172c4b;stroke-linecap:square;stroke-opacity:0.3;"/>
   </g>
   <g id="line2d_20">
    <path clip-path="url(#pbe6ac3554e)" d="M 369.488057 217.916709 
L 369.36205 219.850732 
L 369.103145 220.6405 
L 368.853342 220.85502 
L 368.542814 220.825054 
L 368.172688 220.557322 
L 367.508713 219.729485 
L 366.428782 217.890238 
L 364.787311 214.569587 
L 356.201502 196.402899 
L 353.498564 191.538693 
L 351.25033 187.973559 
L 348.941845 184.801266 
L 347.178555 182.720909 
L 345.392865 180.916962 
L 343.588412 179.397607 
L 341.768072 178.161895 
L 339.933991 177.200145 
L 338.087636 176.494588 
L 336.229855 176.020234 
L 334.36096 175.745936 
L 331.851537 175.628497 
L 328.684691 175.746082 
L 321.582681 176.13269 
L 318.949046 176.035949 
L 316.28727 175.702425 
L 313.598376 175.090616 
L 310.884718 174.182359 
L 308.150015 172.983929 
L 305.399284 171.52574 
L 301.947783 169.420154 
L 290.965758 162.403204 
L 288.273381 161.095917 
L 286.275796 160.354488 
L 284.298716 159.855596 
L 282.343254 159.626994 
L 280.409894 159.689664 
L 278.498463 160.056981 
L 276.608104 160.734101 
L 274.737272 161.717573 
L 272.88376 162.995215 
L 271.044727 164.546243 
L 269.216763 166.341651 
L 266.789881 169.051434 
L 263.758268 172.795614 
L 257.61772 180.534453 
L 255.101542 183.347524 
L 253.182459 185.227849 
L 251.232032 186.855131 
L 249.247357 188.184546 
L 247.226226 189.178062 
L 245.857809 189.638555 
L 244.472308 189.929384 
L 243.069667 190.045577 
L 241.649997 189.984062 
L 240.213579 189.74371 
L 238.760864 189.325361 
L 237.292469 188.731819 
L 235.062216 187.523932 
L 232.801724 185.956952 
L 230.514956 184.063838 
L 228.206491 181.885734 
L 225.103641 178.622609 
L 221.203636 174.15246 
L 211.899939 163.274618 
L 208.862143 160.10912 
L 206.616317 158.021538 
L 204.402453 156.229108 
L 202.223429 154.768102 
L 200.081323 153.666158 
L 198.674407 153.140472 
L 197.284621 152.785798 
L 195.911948 152.603265 
L 194.556204 152.592072 
L 193.217044 152.749508 
L 191.893961 153.071004 
L 190.5863 153.550201 
L 188.651949 154.546629 
L 186.747252 155.84565 
L 184.868424 157.406543 
L 182.39618 159.814048 
L 179.34319 163.174703 
L 172.058263 171.387186 
L 169.606072 173.742183 
L 167.749854 175.275528 
L 165.875903 176.573256 
L 163.982121 177.611151 
L 162.067076 178.373071 
L 160.130027 178.851197 
L 158.17091 179.046018 
L 156.19032 178.966065 
L 154.189465 178.627409 
L 152.17011 178.052927 
L 150.134498 177.271365 
L 147.399677 175.965617 
L 143.957975 174.035581 
L 133.619958 167.977771 
L 130.892626 166.666239 
L 128.187891 165.580091 
L 125.508964 164.733709 
L 122.857689 164.11686 
L 119.583218 163.613332 
L 113.794693 163.062421 
L 110.631317 162.636479 
L 108.124446 162.053232 
L 106.257402 161.40121 
L 104.40149 160.514914 
L 102.557106 159.352475 
L 100.725196 157.876738 
L 98.907335 156.056595 
L 97.105789 153.868171 
L 95.323559 151.295826 
L 93.564411 148.332944 
L 91.832875 144.982479 
L 90.134234 141.257254 
L 88.474484 137.179977 
L 86.333548 131.253204 
L 84.290917 124.860662 
L 82.365242 118.129188 
L 80.152354 109.464318 
L 78.191171 100.819996 
L 76.518875 92.53069 
L 74.940886 83.512987 
L 73.876136 75.989476 
L 73.406106 71.158133 
L 73.311576 68.354814 
L 73.469029 66.546455 
L 73.75122 65.850783 
L 74.016298 65.697902 
L 74.34184 65.788019 
L 74.726665 66.113907 
L 75.411995 67.024192 
L 76.518875 68.962164 
L 78.191171 72.384122 
L 86.333548 89.661722 
L 89.023015 94.560545 
L 91.262725 98.168738 
L 93.564411 101.394349 
L 95.323559 103.519327 
L 97.105789 105.37016 
L 98.907335 106.937124 
L 100.725196 108.219667 
L 102.557106 109.226053 
L 104.40149 109.972756 
L 106.257402 110.483632 
L 108.124446 110.788884 
L 110.631317 110.937702 
L 113.794693 110.842046 
L 121.542641 110.436527 
L 124.179806 110.559852 
L 126.845055 110.926352 
L 129.537201 111.57472 
L 132.253721 112.520095 
L 134.990727 113.75314 
L 137.74305 115.240516 
L 141.195355 117.370998 
L 151.493255 123.979847 
L 154.189465 125.327333 
L 156.19032 126.106068 
L 158.17091 126.647478 
L 160.130027 126.92278 
L 162.067076 126.909799 
L 163.982121 126.593842 
L 165.875903 125.968352 
L 167.749854 125.035328 
L 169.606072 123.8055 
L 171.447296 122.298238 
L 173.276845 120.541214 
L 175.70477 117.872167 
L 178.735778 114.158827 
L 185.49208 105.666711 
L 188.013932 102.891718 
L 189.93801 101.050202 
L 191.893961 99.46962 
L 193.884579 98.193748 
L 195.911948 97.259373 
L 197.284621 96.840729 
L 198.674407 96.593167 
L 200.081323 96.521188 
L 201.505213 96.627383 
L 202.945754 96.912389 
L 204.402453 97.374877 
L 205.874653 98.011549 
L 208.110192 99.2812 
L 210.375356 100.905057 
L 212.666074 102.848733 
L 214.977673 105.069817 
L 218.083307 108.376627 
L 221.9844 112.876922 
L 230.514956 122.872373 
L 233.558351 126.085365 
L 235.80917 128.218054 
L 238.028582 130.062416 
L 240.213579 131.580821 
L 242.361947 132.744141 
L 243.773127 133.312175 
L 245.167201 133.709784 
L 246.544142 133.935352 
L 247.904092 133.9892 
L 249.247357 133.873565 
L 250.574403 133.592556 
L 251.88585 133.152094 
L 253.825474 132.209583 
L 255.734864 130.958341 
L 257.61772 129.438004 
L 260.094185 127.071862 
L 263.150469 123.740619 
L 271.044727 114.869815 
L 273.499836 112.555281 
L 275.358836 111.059194 
L 277.235964 109.803303 
L 279.133209 108.810506 
L 281.051888 108.095568 
L 282.992629 107.664915 
L 284.955383 107.516694 
L 286.939451 107.641074 
L 288.943525 108.020794 
L 290.965758 108.631929 
L 293.003831 109.444856 
L 295.741192 110.783065 
L 299.184758 112.737363 
L 308.83541 118.4122 
L 312.244442 120.050505 
L 314.946098 121.106972 
L 317.621642 121.923593 
L 320.269396 122.513703 
L 323.539501 122.9926 
L 333.108807 124.117994 
L 334.98516 124.609178 
L 336.850355 125.297181 
L 338.704388 126.226704 
L 340.546774 127.438926 
L 342.37647 128.970086 
L 344.191788 130.850162 
L 345.990344 133.101721 
L 347.769009 135.738949 
L 349.523891 138.766898 
L 351.25033 142.180981 
L 352.942924 145.966724 
L 355.136416 151.549061 
L 357.242597 157.663844 
L 359.243613 164.19957 
L 361.12043 171.021067 
L 363.261825 179.714363 
L 365.140135 188.287455 
L 366.718951 196.405348 
L 368.172688 205.094088 
L 368.985897 211.124495 
L 369.41714 215.8136 
L 369.488057 217.916709 
L 369.488057 217.916709 
" style="fill:none;stroke:#172c4b;stroke-linecap:square;stroke-opacity:0.2;"/>
   </g>
   <g id="line2d_21">
    <path clip-path="url(#pbe6ac3554e)" d="M 373.581818 238.592526 
L 373.497682 240.636942 
L 373.246144 241.809456 
L 372.986665 242.109071 
L 372.655086 242.030118 
L 372.25291 241.582761 
L 371.521294 240.251722 
L 370.317843 237.341972 
L 368.476749 232.143588 
L 360.060739 207.533945 
L 357.748755 201.634227 
L 355.362852 196.176431 
L 353.537663 192.48115 
L 351.69041 189.193617 
L 349.827576 186.357449 
L 347.954439 184.000472 
L 346.702008 182.701863 
L 345.447721 181.621402 
L 344.192246 180.755654 
L 342.936025 180.098283 
L 341.679284 179.640212 
L 340.422053 179.369823 
L 339.164179 179.273185 
L 337.275422 179.41854 
L 335.382799 179.857291 
L 333.48407 180.521594 
L 330.298689 181.933299 
L 325.773077 183.980907 
L 323.140733 184.892019 
L 321.140491 185.346105 
L 319.116419 185.553134 
L 317.067825 185.479349 
L 314.994733 185.102826 
L 312.897923 184.413982 
L 310.778928 183.415687 
L 308.640011 182.122974 
L 306.484116 180.562371 
L 303.589387 178.130144 
L 299.952464 174.6873 
L 291.26375 166.179234 
L 288.418628 163.793441 
L 286.311645 162.298646 
L 284.231186 161.111558 
L 282.17965 160.273083 
L 280.828864 159.923716 
L 279.491945 159.750236 
L 278.168999 159.757247 
L 276.859958 159.947129 
L 275.56458 160.319999 
L 274.282453 160.87371 
L 273.012996 161.603872 
L 271.130901 163.014985 
L 269.272466 164.776797 
L 267.433856 166.848468 
L 265.005483 170.005957 
L 261.990393 174.39175 
L 255.318971 184.306283 
L 252.84055 187.49437 
L 250.95234 189.590029 
L 249.03472 191.371676 
L 247.084662 192.79291 
L 245.765467 193.521286 
L 244.430396 194.063964 
L 243.079175 194.414329 
L 241.711708 194.567905 
L 240.328079 194.522397 
L 238.928555 194.277721 
L 237.513577 193.836002 
L 236.08376 193.201546 
L 234.639887 192.380798 
L 232.449814 190.819522 
L 230.234035 188.895559 
L 227.996975 186.654782 
L 224.989758 183.268081 
L 221.209633 178.599834 
L 212.192724 167.232472 
L 209.249345 163.959652 
L 207.073585 161.827347 
L 204.928922 160.027989 
L 202.817987 158.603581 
L 201.430352 157.878768 
L 200.05883 157.342405 
L 198.703549 156.999503 
L 197.364459 156.852902 
L 196.041331 156.903232 
L 194.733756 157.148912 
L 193.441157 157.586164 
L 192.162791 158.209059 
L 190.897758 159.009581 
L 189.022891 160.521013 
L 187.171585 162.367618 
L 185.339216 164.499475 
L 182.916733 167.686347 
L 179.301225 172.895821 
L 175.058565 178.974851 
L 172.59871 182.140059 
L 170.728883 184.255893 
L 168.833733 186.092362 
L 166.910497 187.605939 
L 164.957219 188.762536 
L 163.637763 189.323122 
L 162.304334 189.709962 
L 160.956995 189.920965 
L 159.595979 189.956295 
L 158.221685 189.818354 
L 156.834675 189.51175 
L 154.731915 188.750906 
L 152.60517 187.657413 
L 150.458053 186.271725 
L 147.570711 184.054209 
L 143.937394 180.875446 
L 135.233684 173.018696 
L 132.373907 170.81039 
L 130.251415 169.405998 
L 128.150781 168.252795 
L 126.073662 167.370616 
L 124.020963 166.767188 
L 121.992833 166.43753 
L 119.988696 166.363746 
L 118.007304 166.515231 
L 115.397583 166.992233 
L 111.540021 168.019191 
L 108.363306 168.80326 
L 106.467939 169.080021 
L 104.577496 169.112143 
L 103.318938 168.958086 
L 102.061249 168.63703 
L 100.804148 168.12745 
L 99.547527 167.409332 
L 98.291462 166.464493 
L 97.036235 165.276878 
L 95.78234 163.832836 
L 94.530504 162.121368 
L 93.281683 160.134341 
L 91.416799 156.626882 
L 89.566531 152.48517 
L 87.737165 147.722489 
L 85.936152 142.369203 
L 84.172026 136.472492 
L 82.454281 130.095592 
L 80.254015 120.982918 
L 78.180701 111.377133 
L 76.261563 101.530712 
L 74.121127 89.302337 
L 72.315727 77.677246 
L 70.89164 67.18908 
L 69.887185 58.315712 
L 69.330326 51.44459 
L 69.218182 47.57462 
L 69.330326 45.675148 
L 69.609557 44.647853 
L 69.887185 44.443636 
L 70.236565 44.615781 
L 70.656121 45.15324 
L 71.412856 46.611804 
L 72.647685 49.673361 
L 74.524001 55.025045 
L 81.893768 76.750495 
L 84.755402 84.216536 
L 87.133277 89.740082 
L 88.954075 93.498005 
L 90.798133 96.856944 
L 92.65877 99.770703 
L 94.530504 102.208799 
L 96.409081 104.156744 
L 97.663718 105.183089 
L 98.919412 105.996038 
L 100.175777 106.602631 
L 101.432636 107.012598 
L 102.690006 107.238158 
L 103.948085 107.293782 
L 105.837353 107.095071 
L 107.730826 106.613871 
L 110.266057 105.652229 
L 119.325785 101.772816 
L 121.32217 101.28162 
L 123.342204 101.030763 
L 125.386693 101.055894 
L 127.455735 101.380959 
L 129.548678 102.017614 
L 131.664114 102.965056 
L 133.799898 104.210241 
L 135.953194 105.728497 
L 138.845451 108.115156 
L 141.753056 110.814375 
L 153.316539 121.926968 
L 155.435661 123.557649 
L 157.529729 124.904251 
L 159.595979 125.921579 
L 160.956995 126.398538 
L 162.304334 126.704485 
L 163.637763 126.833187 
L 164.957219 126.780593 
L 166.262815 126.544887 
L 167.554835 126.126518 
L 168.833733 125.528195 
L 170.100133 124.754865 
L 171.978046 123.282871 
L 173.832893 121.466329 
L 175.668616 119.347616 
L 178.094377 116.141622 
L 181.108395 111.721365 
L 187.171585 102.685714 
L 189.645016 99.449857 
L 191.52867 97.306938 
L 193.441157 95.469508 
L 195.385632 93.98535 
L 196.700921 93.211826 
L 198.03199 92.622022 
L 199.379158 92.223075 
L 200.742565 92.02 
L 202.122171 92.015643 
L 203.517756 92.21064 
L 204.928922 92.603418 
L 206.355095 93.190211 
L 207.795537 93.965104 
L 209.980939 95.462089 
L 212.192724 97.32856 
L 214.426569 99.52007 
L 217.430846 102.855949 
L 221.209633 107.487554 
L 230.975224 119.767627 
L 233.912966 122.984933 
L 236.08376 125.065035 
L 238.222963 126.804575 
L 240.328079 128.163059 
L 241.711708 128.841346 
L 243.079175 129.32973 
L 244.430396 129.623736 
L 245.765467 129.721077 
L 247.084662 129.621675 
L 248.388432 129.327663 
L 249.677397 128.843361 
L 250.95234 128.175229 
L 252.214197 127.331788 
L 254.084838 125.761369 
L 255.932654 123.863546 
L 257.762348 121.689517 
L 260.182634 118.462242 
L 264.401303 112.343583 
L 268.044786 107.180178 
L 270.50897 104.058129 
L 272.382793 101.985467 
L 274.282453 100.200032 
L 276.210583 98.743855 
L 278.168999 97.649351 
L 279.491945 97.131883 
L 280.828864 96.788894 
L 282.17965 96.621912 
L 283.54403 96.630213 
L 284.921561 96.810836 
L 286.311645 97.158634 
L 288.418628 97.97735 
L 290.549034 99.122583 
L 292.699159 100.552458 
L 295.58937 102.815147 
L 299.224302 106.025669 
L 307.204426 113.250619 
L 310.068037 115.501269 
L 312.19396 116.944799 
L 314.298372 118.141559 
L 316.379493 119.069782 
L 318.436293 119.71967 
L 320.468496 120.094062 
L 322.476563 120.208704 
L 324.461633 120.092115 
L 327.075712 119.64902 
L 330.298689 118.817178 
L 334.117815 117.829055 
L 336.014231 117.519434 
L 337.905342 117.44092 
L 339.164179 117.556737 
L 340.422053 117.833973 
L 341.679284 118.294481 
L 342.936025 118.958683 
L 344.192246 119.845249 
L 345.447721 120.970792 
L 346.702008 122.349588 
L 347.954439 123.993322 
L 349.204117 125.910861 
L 351.070911 129.31251 
L 352.924019 133.348975 
L 354.757356 138.009809 
L 356.563659 143.26749 
L 358.334568 149.077601 
L 360.060739 155.379508 
L 362.275005 164.414286 
L 364.365663 173.971678 
L 366.305577 183.802666 
L 368.476749 196.061012 
L 370.317843 207.771039 
L 371.781938 218.395611 
L 372.829801 227.449631 
L 373.432343 234.535221 
L 373.581818 238.592526 
L 373.581818 238.592526 
" style="fill:none;stroke:#172c4b;stroke-linecap:square;stroke-opacity:0.1;"/>
   </g>
   <g id="line2d_22">
    <path clip-path="url(#pbe6ac3554e)" d="M 345.24711 158.069456 
L 337.373352 160.515084 
L 329.520127 162.732892 
L 321.548389 164.757986 
L 313.722155 166.52444 
L 305.535036 168.137289 
L 297.831453 169.435398 
L 289.617187 170.585128 
L 281.628929 171.471164 
L 274.003964 172.103455 
L 266.127308 172.537697 
L 258.036646 172.752114 
L 250.528348 172.741106 
L 242.904859 172.5231 
L 235.196325 172.090759 
L 227.43323 171.440012 
L 219.646273 170.570162 
L 211.866245 169.48394 
L 204.123914 168.187507 
L 196.449896 166.690398 
L 188.123584 164.827173 
L 179.95648 162.758059 
L 171.987658 160.508635 
L 164.255246 158.108267 
L 156.132952 155.355978 
L 147.754534 152.269027 
L 139.868171 149.133389 
L 131.448603 145.539596 
L 123.351213 141.843526 
L 115.030092 137.80038 
L 106.700473 133.504435 
L 98.216846 128.873321 
L 97.551163 128.498469 
L 97.688313 128.453967 
L 105.561536 126.012387 
L 113.468011 123.784186 
L 121.47889 121.755183 
L 129.335566 119.988756 
L 137.54884 118.378799 
L 145.273039 117.085429 
L 152.855751 116.023853 
L 160.828719 115.13001 
L 168.441366 114.489291 
L 176.307392 114.045547 
L 184.389159 113.820718 
L 191.890914 113.821626 
L 199.509356 114.029081 
L 207.214359 114.450581 
L 214.975454 115.090362 
L 222.761949 115.949294 
L 230.543054 117.024815 
L 238.287999 118.310936 
L 245.966157 119.798288 
L 254.298763 121.651614 
L 262.473959 123.711894 
L 270.452628 125.953732 
L 278.196597 128.347925 
L 286.333386 131.095246 
L 294.72963 134.179058 
L 302.635915 137.314012 
L 311.080898 140.910147 
L 319.208019 144.612407 
L 327.567554 148.667646 
L 335.949701 152.985459 
L 344.454299 157.623843 
L 345.24711 158.069456 
L 345.24711 158.069456 
" style="fill:none;stroke:#3b65ac;stroke-dasharray:5.55,2.4;stroke-dashoffset:0;stroke-width:1.5;"/>
   </g>
   <g id="line2d_23">
    <path clip-path="url(#pbe6ac3554e)" d="M 345.24711 158.069456 
L 97.551163 128.498741 
L 345.24711 158.069456 
" style="fill:none;stroke:#cba74e;stroke-dasharray:9.6,2.4,1.5,2.4;stroke-dashoffset:0;stroke-width:1.5;"/>
   </g>
   <g id="patch_3">
    <path d="M 54 252 
L 54 34.56 
" style="fill:none;stroke:#000000;stroke-linecap:square;stroke-linejoin:miter;stroke-width:0.8;"/>
   </g>
   <g id="patch_4">
    <path d="M 388.8 252 
L 388.8 34.56 
" style="fill:none;stroke:#000000;stroke-linecap:square;stroke-linejoin:miter;stroke-width:0.8;"/>
   </g>
   <g id="patch_5">
    <path d="M 54 252 
L 388.8 252 
" style="fill:none;stroke:#000000;stroke-linecap:square;stroke-linejoin:miter;stroke-width:0.8;"/>
   </g>
   <g id="patch_6">
    <path d="M 54 34.56 
L 388.8 34.56 
" style="fill:none;stroke:#000000;stroke-linecap:square;stroke-linejoin:miter;stroke-width:0.8;"/>
   </g>
   <g id="text_15">
    <!-- Work loop: Higher Harmonics -->
    <g transform="translate(133.738125 28.56)scale(0.12 -0.12)">
     <defs>
      <path d="M 3.328125 72.90625 
L 13.28125 72.90625 
L 28.609375 11.28125 
L 43.890625 72.90625 
L 54.984375 72.90625 
L 70.3125 11.28125 
L 85.59375 72.90625 
L 95.609375 72.90625 
L 77.296875 0 
L 64.890625 0 
L 49.515625 63.28125 
L 33.984375 0 
L 21.578125 0 
z
" id="DejaVuSans-87"/>
      <path d="M 41.109375 46.296875 
Q 39.59375 47.171875 37.8125 47.578125 
Q 36.03125 48 33.890625 48 
Q 26.265625 48 22.1875 43.046875 
Q 18.109375 38.09375 18.109375 28.8125 
L 18.109375 0 
L 9.078125 0 
L 9.078125 54.6875 
L 18.109375 54.6875 
L 18.109375 46.1875 
Q 20.953125 51.171875 25.484375 53.578125 
Q 30.03125 56 36.53125 56 
Q 37.453125 56 38.578125 55.875 
Q 39.703125 55.765625 41.0625 55.515625 
z
" id="DejaVuSans-114"/>
      <path d="M 9.078125 75.984375 
L 18.109375 75.984375 
L 18.109375 31.109375 
L 44.921875 54.6875 
L 56.390625 54.6875 
L 27.390625 29.109375 
L 57.625 0 
L 45.90625 0 
L 18.109375 26.703125 
L 18.109375 0 
L 9.078125 0 
z
" id="DejaVuSans-107"/>
      <path d="M 18.109375 8.203125 
L 18.109375 -20.796875 
L 9.078125 -20.796875 
L 9.078125 54.6875 
L 18.109375 54.6875 
L 18.109375 46.390625 
Q 20.953125 51.265625 25.265625 53.625 
Q 29.59375 56 35.59375 56 
Q 45.5625 56 51.78125 48.09375 
Q 58.015625 40.1875 58.015625 27.296875 
Q 58.015625 14.40625 51.78125 6.484375 
Q 45.5625 -1.421875 35.59375 -1.421875 
Q 29.59375 -1.421875 25.265625 0.953125 
Q 20.953125 3.328125 18.109375 8.203125 
z
M 48.6875 27.296875 
Q 48.6875 37.203125 44.609375 42.84375 
Q 40.53125 48.484375 33.40625 48.484375 
Q 26.265625 48.484375 22.1875 42.84375 
Q 18.109375 37.203125 18.109375 27.296875 
Q 18.109375 17.390625 22.1875 11.75 
Q 26.265625 6.109375 33.40625 6.109375 
Q 40.53125 6.109375 44.609375 11.75 
Q 48.6875 17.390625 48.6875 27.296875 
z
" id="DejaVuSans-112"/>
      <path d="M 11.71875 12.40625 
L 22.015625 12.40625 
L 22.015625 0 
L 11.71875 0 
z
M 11.71875 51.703125 
L 22.015625 51.703125 
L 22.015625 39.3125 
L 11.71875 39.3125 
z
" id="DejaVuSans-58"/>
      <path d="M 9.8125 72.90625 
L 19.671875 72.90625 
L 19.671875 43.015625 
L 55.515625 43.015625 
L 55.515625 72.90625 
L 65.375 72.90625 
L 65.375 0 
L 55.515625 0 
L 55.515625 34.71875 
L 19.671875 34.71875 
L 19.671875 0 
L 9.8125 0 
z
" id="DejaVuSans-72"/>
      <path d="M 45.40625 27.984375 
Q 45.40625 37.75 41.375 43.109375 
Q 37.359375 48.484375 30.078125 48.484375 
Q 22.859375 48.484375 18.828125 43.109375 
Q 14.796875 37.75 14.796875 27.984375 
Q 14.796875 18.265625 18.828125 12.890625 
Q 22.859375 7.515625 30.078125 7.515625 
Q 37.359375 7.515625 41.375 12.890625 
Q 45.40625 18.265625 45.40625 27.984375 
z
M 54.390625 6.78125 
Q 54.390625 -7.171875 48.1875 -13.984375 
Q 42 -20.796875 29.203125 -20.796875 
Q 24.46875 -20.796875 20.265625 -20.09375 
Q 16.0625 -19.390625 12.109375 -17.921875 
L 12.109375 -9.1875 
Q 16.0625 -11.328125 19.921875 -12.34375 
Q 23.78125 -13.375 27.78125 -13.375 
Q 36.625 -13.375 41.015625 -8.765625 
Q 45.40625 -4.15625 45.40625 5.171875 
L 45.40625 9.625 
Q 42.625 4.78125 38.28125 2.390625 
Q 33.9375 0 27.875 0 
Q 17.828125 0 11.671875 7.65625 
Q 5.515625 15.328125 5.515625 27.984375 
Q 5.515625 40.671875 11.671875 48.328125 
Q 17.828125 56 27.875 56 
Q 33.9375 56 38.28125 53.609375 
Q 42.625 51.21875 45.40625 46.390625 
L 45.40625 54.6875 
L 54.390625 54.6875 
z
" id="DejaVuSans-103"/>
      <path d="M 54.890625 33.015625 
L 54.890625 0 
L 45.90625 0 
L 45.90625 32.71875 
Q 45.90625 40.484375 42.875 44.328125 
Q 39.84375 48.1875 33.796875 48.1875 
Q 26.515625 48.1875 22.3125 43.546875 
Q 18.109375 38.921875 18.109375 30.90625 
L 18.109375 0 
L 9.078125 0 
L 9.078125 75.984375 
L 18.109375 75.984375 
L 18.109375 46.1875 
Q 21.34375 51.125 25.703125 53.5625 
Q 30.078125 56 35.796875 56 
Q 45.21875 56 50.046875 50.171875 
Q 54.890625 44.34375 54.890625 33.015625 
z
" id="DejaVuSans-104"/>
      <path d="M 52 44.1875 
Q 55.375 50.25 60.0625 53.125 
Q 64.75 56 71.09375 56 
Q 79.640625 56 84.28125 50.015625 
Q 88.921875 44.046875 88.921875 33.015625 
L 88.921875 0 
L 79.890625 0 
L 79.890625 32.71875 
Q 79.890625 40.578125 77.09375 44.375 
Q 74.3125 48.1875 68.609375 48.1875 
Q 61.625 48.1875 57.5625 43.546875 
Q 53.515625 38.921875 53.515625 30.90625 
L 53.515625 0 
L 44.484375 0 
L 44.484375 32.71875 
Q 44.484375 40.625 41.703125 44.40625 
Q 38.921875 48.1875 33.109375 48.1875 
Q 26.21875 48.1875 22.15625 43.53125 
Q 18.109375 38.875 18.109375 30.90625 
L 18.109375 0 
L 9.078125 0 
L 9.078125 54.6875 
L 18.109375 54.6875 
L 18.109375 46.1875 
Q 21.1875 51.21875 25.484375 53.609375 
Q 29.78125 56 35.6875 56 
Q 41.65625 56 45.828125 52.96875 
Q 50 49.953125 52 44.1875 
z
" id="DejaVuSans-109"/>
     </defs>
     <use xlink:href="#DejaVuSans-87"/>
     <use x="93.001953" xlink:href="#DejaVuSans-111"/>
     <use x="154.183594" xlink:href="#DejaVuSans-114"/>
     <use x="195.296875" xlink:href="#DejaVuSans-107"/>
     <use x="253.207031" xlink:href="#DejaVuSans-32"/>
     <use x="284.994141" xlink:href="#DejaVuSans-108"/>
     <use x="312.777344" xlink:href="#DejaVuSans-111"/>
     <use x="373.958984" xlink:href="#DejaVuSans-111"/>
     <use x="435.140625" xlink:href="#DejaVuSans-112"/>
     <use x="498.617188" xlink:href="#DejaVuSans-58"/>
     <use x="532.308594" xlink:href="#DejaVuSans-32"/>
     <use x="564.095703" xlink:href="#DejaVuSans-72"/>
     <use x="639.291016" xlink:href="#DejaVuSans-105"/>
     <use x="667.074219" xlink:href="#DejaVuSans-103"/>
     <use x="730.550781" xlink:href="#DejaVuSans-104"/>
     <use x="793.929688" xlink:href="#DejaVuSans-101"/>
     <use x="855.453125" xlink:href="#DejaVuSans-114"/>
     <use x="896.566406" xlink:href="#DejaVuSans-32"/>
     <use x="928.353516" xlink:href="#DejaVuSans-72"/>
     <use x="1003.548828" xlink:href="#DejaVuSans-97"/>
     <use x="1064.828125" xlink:href="#DejaVuSans-114"/>
     <use x="1104.191406" xlink:href="#DejaVuSans-109"/>
     <use x="1201.603516" xlink:href="#DejaVuSans-111"/>
     <use x="1262.785156" xlink:href="#DejaVuSans-110"/>
     <use x="1326.164062" xlink:href="#DejaVuSans-105"/>
     <use x="1353.947266" xlink:href="#DejaVuSans-99"/>
     <use x="1408.927734" xlink:href="#DejaVuSans-115"/>
    </g>
   </g>
  </g>
 </g>
 <defs>
  <clipPath id="pbe6ac3554e">
   <rect height="217.44" width="334.8" x="54" y="34.56"/>
  </clipPath>
 </defs>
</svg>
