<?xml version="1.0" encoding="utf-8" standalone="no"?>
<!DOCTYPE svg PUBLIC "-//W3C//DTD SVG 1.1//EN"
  "http://www.w3.org/Graphics/SVG/1.1/DTD/svg11.dtd">
<!-- Created with matplotlib (https://matplotlib.org/) -->
<svg height="288pt" version="1.1" viewBox="0 0 432 288" width="432pt" xmlns="http://www.w3.org/2000/svg" xmlns:xlink="http://www.w3.org/1999/xlink">
 <metadata>
  <rdf:RDF xmlns:cc="http://creativecommons.org/ns#" xmlns:dc="http://purl.org/dc/elements/1.1/" xmlns:rdf="http://www.w3.org/1999/02/22-rdf-syntax-ns#">
   <cc:Work>
    <dc:type rdf:resource="http://purl.org/dc/dcmitype/StillImage"/>
    <dc:date>2024-08-27T13:04:27.334236</dc:date>
    <dc:format>image/svg+xml</dc:format>
    <dc:creator>
     <cc:Agent>
      <dc:title>Matplotlib v3.3.4, https://matplotlib.org/</dc:title>
     </cc:Agent>
    </dc:creator>
   </cc:Work>
  </rdf:RDF>
 </metadata>
 <defs>
  <style type="text/css">*{stroke-linecap:butt;stroke-linejoin:round;}</style>
 </defs>
 <g id="figure_1">
  <g id="patch_1">
   <path d="M 0 288 
L 432 288 
L 432 0 
L 0 0 
z
" style="fill:none;"/>
  </g>
  <g id="axes_1">
   <g id="patch_2">
    <path d="M 54 252 
L 388.8 252 
L 388.8 34.56 
L 54 34.56 
z
" style="fill:#ffffff;"/>
   </g>
   <g id="matplotlib.axis_1">
    <g id="xtick_1">
     <g id="line2d_1">
      <defs>
       <path d="M 0 0 
L 0 3.5 
" id="mb81f5d9358" style="stroke:#000000;stroke-width:0.8;"/>
      </defs>
      <g>
       <use style="stroke:#000000;stroke-width:0.8;" x="69.218001" xlink:href="#mb81f5d9358" y="252"/>
      </g>
     </g>
     <g id="text_1">
      <!-- −1.00 -->
      <g transform="translate(50.830813 268.118125)scale(0.12 -0.12)">
       <defs>
        <path d="M 10.59375 35.5 
L 73.1875 35.5 
L 73.1875 27.203125 
L 10.59375 27.203125 
z
" id="DejaVuSans-8722"/>
        <path d="M 12.40625 8.296875 
L 28.515625 8.296875 
L 28.515625 63.921875 
L 10.984375 60.40625 
L 10.984375 69.390625 
L 28.421875 72.90625 
L 38.28125 72.90625 
L 38.28125 8.296875 
L 54.390625 8.296875 
L 54.390625 0 
L 12.40625 0 
z
" id="DejaVuSans-49"/>
        <path d="M 10.6875 12.40625 
L 21 12.40625 
L 21 0 
L 10.6875 0 
z
" id="DejaVuSans-46"/>
        <path d="M 31.78125 66.40625 
Q 24.171875 66.40625 20.328125 58.90625 
Q 16.5 51.421875 16.5 36.375 
Q 16.5 21.390625 20.328125 13.890625 
Q 24.171875 6.390625 31.78125 6.390625 
Q 39.453125 6.390625 43.28125 13.890625 
Q 47.125 21.390625 47.125 36.375 
Q 47.125 51.421875 43.28125 58.90625 
Q 39.453125 66.40625 31.78125 66.40625 
z
M 31.78125 74.21875 
Q 44.046875 74.21875 50.515625 64.515625 
Q 56.984375 54.828125 56.984375 36.375 
Q 56.984375 17.96875 50.515625 8.265625 
Q 44.046875 -1.421875 31.78125 -1.421875 
Q 19.53125 -1.421875 13.0625 8.265625 
Q 6.59375 17.96875 6.59375 36.375 
Q 6.59375 54.828125 13.0625 64.515625 
Q 19.53125 74.21875 31.78125 74.21875 
z
" id="DejaVuSans-48"/>
       </defs>
       <use xlink:href="#DejaVuSans-8722"/>
       <use x="83.789062" xlink:href="#DejaVuSans-49"/>
       <use x="147.412109" xlink:href="#DejaVuSans-46"/>
       <use x="179.199219" xlink:href="#DejaVuSans-48"/>
       <use x="242.822266" xlink:href="#DejaVuSans-48"/>
      </g>
     </g>
    </g>
    <g id="xtick_2">
     <g id="line2d_2">
      <g>
       <use style="stroke:#000000;stroke-width:0.8;" x="107.263431" xlink:href="#mb81f5d9358" y="252"/>
      </g>
     </g>
     <g id="text_2">
      <!-- −0.75 -->
      <g transform="translate(88.876244 268.118125)scale(0.12 -0.12)">
       <defs>
        <path d="M 8.203125 72.90625 
L 55.078125 72.90625 
L 55.078125 68.703125 
L 28.609375 0 
L 18.3125 0 
L 43.21875 64.59375 
L 8.203125 64.59375 
z
" id="DejaVuSans-55"/>
        <path d="M 10.796875 72.90625 
L 49.515625 72.90625 
L 49.515625 64.59375 
L 19.828125 64.59375 
L 19.828125 46.734375 
Q 21.96875 47.46875 24.109375 47.828125 
Q 26.265625 48.1875 28.421875 48.1875 
Q 40.625 48.1875 47.75 41.5 
Q 54.890625 34.8125 54.890625 23.390625 
Q 54.890625 11.625 47.5625 5.09375 
Q 40.234375 -1.421875 26.90625 -1.421875 
Q 22.3125 -1.421875 17.546875 -0.640625 
Q 12.796875 0.140625 7.71875 1.703125 
L 7.71875 11.625 
Q 12.109375 9.234375 16.796875 8.0625 
Q 21.484375 6.890625 26.703125 6.890625 
Q 35.15625 6.890625 40.078125 11.328125 
Q 45.015625 15.765625 45.015625 23.390625 
Q 45.015625 31 40.078125 35.4375 
Q 35.15625 39.890625 26.703125 39.890625 
Q 22.75 39.890625 18.8125 39.015625 
Q 14.890625 38.140625 10.796875 36.28125 
z
" id="DejaVuSans-53"/>
       </defs>
       <use xlink:href="#DejaVuSans-8722"/>
       <use x="83.789062" xlink:href="#DejaVuSans-48"/>
       <use x="147.412109" xlink:href="#DejaVuSans-46"/>
       <use x="179.199219" xlink:href="#DejaVuSans-55"/>
       <use x="242.822266" xlink:href="#DejaVuSans-53"/>
      </g>
     </g>
    </g>
    <g id="xtick_3">
     <g id="line2d_3">
      <g>
       <use style="stroke:#000000;stroke-width:0.8;" x="145.308861" xlink:href="#mb81f5d9358" y="252"/>
      </g>
     </g>
     <g id="text_3">
      <!-- −0.50 -->
      <g transform="translate(126.921674 268.118125)scale(0.12 -0.12)">
       <use xlink:href="#DejaVuSans-8722"/>
       <use x="83.789062" xlink:href="#DejaVuSans-48"/>
       <use x="147.412109" xlink:href="#DejaVuSans-46"/>
       <use x="179.199219" xlink:href="#DejaVuSans-53"/>
       <use x="242.822266" xlink:href="#DejaVuSans-48"/>
      </g>
     </g>
    </g>
    <g id="xtick_4">
     <g id="line2d_4">
      <g>
       <use style="stroke:#000000;stroke-width:0.8;" x="183.354291" xlink:href="#mb81f5d9358" y="252"/>
      </g>
     </g>
     <g id="text_4">
      <!-- −0.25 -->
      <g transform="translate(164.967104 268.118125)scale(0.12 -0.12)">
       <defs>
        <path d="M 19.1875 8.296875 
L 53.609375 8.296875 
L 53.609375 0 
L 7.328125 0 
L 7.328125 8.296875 
Q 12.9375 14.109375 22.625 23.890625 
Q 32.328125 33.6875 34.8125 36.53125 
Q 39.546875 41.84375 41.421875 45.53125 
Q 43.3125 49.21875 43.3125 52.78125 
Q 43.3125 58.59375 39.234375 62.25 
Q 35.15625 65.921875 28.609375 65.921875 
Q 23.96875 65.921875 18.8125 64.3125 
Q 13.671875 62.703125 7.8125 59.421875 
L 7.8125 69.390625 
Q 13.765625 71.78125 18.9375 73 
Q 24.125 74.21875 28.421875 74.21875 
Q 39.75 74.21875 46.484375 68.546875 
Q 53.21875 62.890625 53.21875 53.421875 
Q 53.21875 48.921875 51.53125 44.890625 
Q 49.859375 40.875 45.40625 35.40625 
Q 44.1875 33.984375 37.640625 27.21875 
Q 31.109375 20.453125 19.1875 8.296875 
z
" id="DejaVuSans-50"/>
       </defs>
       <use xlink:href="#DejaVuSans-8722"/>
       <use x="83.789062" xlink:href="#DejaVuSans-48"/>
       <use x="147.412109" xlink:href="#DejaVuSans-46"/>
       <use x="179.199219" xlink:href="#DejaVuSans-50"/>
       <use x="242.822266" xlink:href="#DejaVuSans-53"/>
      </g>
     </g>
    </g>
    <g id="xtick_5">
     <g id="line2d_5">
      <g>
       <use style="stroke:#000000;stroke-width:0.8;" x="221.399721" xlink:href="#mb81f5d9358" y="252"/>
      </g>
     </g>
     <g id="text_5">
      <!-- 0.00 -->
      <g transform="translate(208.040346 268.118125)scale(0.12 -0.12)">
       <use xlink:href="#DejaVuSans-48"/>
       <use x="63.623047" xlink:href="#DejaVuSans-46"/>
       <use x="95.410156" xlink:href="#DejaVuSans-48"/>
       <use x="159.033203" xlink:href="#DejaVuSans-48"/>
      </g>
     </g>
    </g>
    <g id="xtick_6">
     <g id="line2d_6">
      <g>
       <use style="stroke:#000000;stroke-width:0.8;" x="259.445152" xlink:href="#mb81f5d9358" y="252"/>
      </g>
     </g>
     <g id="text_6">
      <!-- 0.25 -->
      <g transform="translate(246.085777 268.118125)scale(0.12 -0.12)">
       <use xlink:href="#DejaVuSans-48"/>
       <use x="63.623047" xlink:href="#DejaVuSans-46"/>
       <use x="95.410156" xlink:href="#DejaVuSans-50"/>
       <use x="159.033203" xlink:href="#DejaVuSans-53"/>
      </g>
     </g>
    </g>
    <g id="xtick_7">
     <g id="line2d_7">
      <g>
       <use style="stroke:#000000;stroke-width:0.8;" x="297.490582" xlink:href="#mb81f5d9358" y="252"/>
      </g>
     </g>
     <g id="text_7">
      <!-- 0.50 -->
      <g transform="translate(284.131207 268.118125)scale(0.12 -0.12)">
       <use xlink:href="#DejaVuSans-48"/>
       <use x="63.623047" xlink:href="#DejaVuSans-46"/>
       <use x="95.410156" xlink:href="#DejaVuSans-53"/>
       <use x="159.033203" xlink:href="#DejaVuSans-48"/>
      </g>
     </g>
    </g>
    <g id="xtick_8">
     <g id="line2d_8">
      <g>
       <use style="stroke:#000000;stroke-width:0.8;" x="335.536012" xlink:href="#mb81f5d9358" y="252"/>
      </g>
     </g>
     <g id="text_8">
      <!-- 0.75 -->
      <g transform="translate(322.176637 268.118125)scale(0.12 -0.12)">
       <use xlink:href="#DejaVuSans-48"/>
       <use x="63.623047" xlink:href="#DejaVuSans-46"/>
       <use x="95.410156" xlink:href="#DejaVuSans-55"/>
       <use x="159.033203" xlink:href="#DejaVuSans-53"/>
      </g>
     </g>
    </g>
    <g id="xtick_9">
     <g id="line2d_9">
      <g>
       <use style="stroke:#000000;stroke-width:0.8;" x="373.581442" xlink:href="#mb81f5d9358" y="252"/>
      </g>
     </g>
     <g id="text_9">
      <!-- 1.00 -->
      <g transform="translate(360.222067 268.118125)scale(0.12 -0.12)">
       <use xlink:href="#DejaVuSans-49"/>
       <use x="63.623047" xlink:href="#DejaVuSans-46"/>
       <use x="95.410156" xlink:href="#DejaVuSans-48"/>
       <use x="159.033203" xlink:href="#DejaVuSans-48"/>
      </g>
     </g>
    </g>
    <g id="text_10">
     <!-- Inelastic load $G$ -->
     <g transform="translate(182.75 282.212188)scale(0.1 -0.1)">
      <defs>
       <path d="M 9.8125 72.90625 
L 19.671875 72.90625 
L 19.671875 0 
L 9.8125 0 
z
" id="DejaVuSans-73"/>
       <path d="M 54.890625 33.015625 
L 54.890625 0 
L 45.90625 0 
L 45.90625 32.71875 
Q 45.90625 40.484375 42.875 44.328125 
Q 39.84375 48.1875 33.796875 48.1875 
Q 26.515625 48.1875 22.3125 43.546875 
Q 18.109375 38.921875 18.109375 30.90625 
L 18.109375 0 
L 9.078125 0 
L 9.078125 54.6875 
L 18.109375 54.6875 
L 18.109375 46.1875 
Q 21.34375 51.125 25.703125 53.5625 
Q 30.078125 56 35.796875 56 
Q 45.21875 56 50.046875 50.171875 
Q 54.890625 44.34375 54.890625 33.015625 
z
" id="DejaVuSans-110"/>
       <path d="M 56.203125 29.59375 
L 56.203125 25.203125 
L 14.890625 25.203125 
Q 15.484375 15.921875 20.484375 11.0625 
Q 25.484375 6.203125 34.421875 6.203125 
Q 39.59375 6.203125 44.453125 7.46875 
Q 49.3125 8.734375 54.109375 11.28125 
L 54.109375 2.78125 
Q 49.265625 0.734375 44.1875 -0.34375 
Q 39.109375 -1.421875 33.890625 -1.421875 
Q 20.796875 -1.421875 13.15625 6.1875 
Q 5.515625 13.8125 5.515625 26.8125 
Q 5.515625 40.234375 12.765625 48.109375 
Q 20.015625 56 32.328125 56 
Q 43.359375 56 49.78125 48.890625 
Q 56.203125 41.796875 56.203125 29.59375 
z
M 47.21875 32.234375 
Q 47.125 39.59375 43.09375 43.984375 
Q 39.0625 48.390625 32.421875 48.390625 
Q 24.90625 48.390625 20.390625 44.140625 
Q 15.875 39.890625 15.1875 32.171875 
z
" id="DejaVuSans-101"/>
       <path d="M 9.421875 75.984375 
L 18.40625 75.984375 
L 18.40625 0 
L 9.421875 0 
z
" id="DejaVuSans-108"/>
       <path d="M 34.28125 27.484375 
Q 23.390625 27.484375 19.1875 25 
Q 14.984375 22.515625 14.984375 16.5 
Q 14.984375 11.71875 18.140625 8.90625 
Q 21.296875 6.109375 26.703125 6.109375 
Q 34.1875 6.109375 38.703125 11.40625 
Q 43.21875 16.703125 43.21875 25.484375 
L 43.21875 27.484375 
z
M 52.203125 31.203125 
L 52.203125 0 
L 43.21875 0 
L 43.21875 8.296875 
Q 40.140625 3.328125 35.546875 0.953125 
Q 30.953125 -1.421875 24.3125 -1.421875 
Q 15.921875 -1.421875 10.953125 3.296875 
Q 6 8.015625 6 15.921875 
Q 6 25.140625 12.171875 29.828125 
Q 18.359375 34.515625 30.609375 34.515625 
L 43.21875 34.515625 
L 43.21875 35.40625 
Q 43.21875 41.609375 39.140625 45 
Q 35.0625 48.390625 27.6875 48.390625 
Q 23 48.390625 18.546875 47.265625 
Q 14.109375 46.140625 10.015625 43.890625 
L 10.015625 52.203125 
Q 14.9375 54.109375 19.578125 55.046875 
Q 24.21875 56 28.609375 56 
Q 40.484375 56 46.34375 49.84375 
Q 52.203125 43.703125 52.203125 31.203125 
z
" id="DejaVuSans-97"/>
       <path d="M 44.28125 53.078125 
L 44.28125 44.578125 
Q 40.484375 46.53125 36.375 47.5 
Q 32.28125 48.484375 27.875 48.484375 
Q 21.1875 48.484375 17.84375 46.4375 
Q 14.5 44.390625 14.5 40.28125 
Q 14.5 37.15625 16.890625 35.375 
Q 19.28125 33.59375 26.515625 31.984375 
L 29.59375 31.296875 
Q 39.15625 29.25 43.1875 25.515625 
Q 47.21875 21.78125 47.21875 15.09375 
Q 47.21875 7.46875 41.1875 3.015625 
Q 35.15625 -1.421875 24.609375 -1.421875 
Q 20.21875 -1.421875 15.453125 -0.5625 
Q 10.6875 0.296875 5.421875 2 
L 5.421875 11.28125 
Q 10.40625 8.6875 15.234375 7.390625 
Q 20.0625 6.109375 24.8125 6.109375 
Q 31.15625 6.109375 34.5625 8.28125 
Q 37.984375 10.453125 37.984375 14.40625 
Q 37.984375 18.0625 35.515625 20.015625 
Q 33.0625 21.96875 24.703125 23.78125 
L 21.578125 24.515625 
Q 13.234375 26.265625 9.515625 29.90625 
Q 5.8125 33.546875 5.8125 39.890625 
Q 5.8125 47.609375 11.28125 51.796875 
Q 16.75 56 26.8125 56 
Q 31.78125 56 36.171875 55.265625 
Q 40.578125 54.546875 44.28125 53.078125 
z
" id="DejaVuSans-115"/>
       <path d="M 18.3125 70.21875 
L 18.3125 54.6875 
L 36.8125 54.6875 
L 36.8125 47.703125 
L 18.3125 47.703125 
L 18.3125 18.015625 
Q 18.3125 11.328125 20.140625 9.421875 
Q 21.96875 7.515625 27.59375 7.515625 
L 36.8125 7.515625 
L 36.8125 0 
L 27.59375 0 
Q 17.1875 0 13.234375 3.875 
Q 9.28125 7.765625 9.28125 18.015625 
L 9.28125 47.703125 
L 2.6875 47.703125 
L 2.6875 54.6875 
L 9.28125 54.6875 
L 9.28125 70.21875 
z
" id="DejaVuSans-116"/>
       <path d="M 9.421875 54.6875 
L 18.40625 54.6875 
L 18.40625 0 
L 9.421875 0 
z
M 9.421875 75.984375 
L 18.40625 75.984375 
L 18.40625 64.59375 
L 9.421875 64.59375 
z
" id="DejaVuSans-105"/>
       <path d="M 48.78125 52.59375 
L 48.78125 44.1875 
Q 44.96875 46.296875 41.140625 47.34375 
Q 37.3125 48.390625 33.40625 48.390625 
Q 24.65625 48.390625 19.8125 42.84375 
Q 14.984375 37.3125 14.984375 27.296875 
Q 14.984375 17.28125 19.8125 11.734375 
Q 24.65625 6.203125 33.40625 6.203125 
Q 37.3125 6.203125 41.140625 7.25 
Q 44.96875 8.296875 48.78125 10.40625 
L 48.78125 2.09375 
Q 45.015625 0.34375 40.984375 -0.53125 
Q 36.96875 -1.421875 32.421875 -1.421875 
Q 20.0625 -1.421875 12.78125 6.34375 
Q 5.515625 14.109375 5.515625 27.296875 
Q 5.515625 40.671875 12.859375 48.328125 
Q 20.21875 56 33.015625 56 
Q 37.15625 56 41.109375 55.140625 
Q 45.0625 54.296875 48.78125 52.59375 
z
" id="DejaVuSans-99"/>
       <path id="DejaVuSans-32"/>
       <path d="M 30.609375 48.390625 
Q 23.390625 48.390625 19.1875 42.75 
Q 14.984375 37.109375 14.984375 27.296875 
Q 14.984375 17.484375 19.15625 11.84375 
Q 23.34375 6.203125 30.609375 6.203125 
Q 37.796875 6.203125 41.984375 11.859375 
Q 46.1875 17.53125 46.1875 27.296875 
Q 46.1875 37.015625 41.984375 42.703125 
Q 37.796875 48.390625 30.609375 48.390625 
z
M 30.609375 56 
Q 42.328125 56 49.015625 48.375 
Q 55.71875 40.765625 55.71875 27.296875 
Q 55.71875 13.875 49.015625 6.21875 
Q 42.328125 -1.421875 30.609375 -1.421875 
Q 18.84375 -1.421875 12.171875 6.21875 
Q 5.515625 13.875 5.515625 27.296875 
Q 5.515625 40.765625 12.171875 48.375 
Q 18.84375 56 30.609375 56 
z
" id="DejaVuSans-111"/>
       <path d="M 45.40625 46.390625 
L 45.40625 75.984375 
L 54.390625 75.984375 
L 54.390625 0 
L 45.40625 0 
L 45.40625 8.203125 
Q 42.578125 3.328125 38.25 0.953125 
Q 33.9375 -1.421875 27.875 -1.421875 
Q 17.96875 -1.421875 11.734375 6.484375 
Q 5.515625 14.40625 5.515625 27.296875 
Q 5.515625 40.1875 11.734375 48.09375 
Q 17.96875 56 27.875 56 
Q 33.9375 56 38.25 53.625 
Q 42.578125 51.265625 45.40625 46.390625 
z
M 14.796875 27.296875 
Q 14.796875 17.390625 18.875 11.75 
Q 22.953125 6.109375 30.078125 6.109375 
Q 37.203125 6.109375 41.296875 11.75 
Q 45.40625 17.390625 45.40625 27.296875 
Q 45.40625 37.203125 41.296875 42.84375 
Q 37.203125 48.484375 30.078125 48.484375 
Q 22.953125 48.484375 18.875 42.84375 
Q 14.796875 37.203125 14.796875 27.296875 
z
" id="DejaVuSans-100"/>
       <path d="M 54.59375 10.890625 
L 58.40625 29.984375 
L 42.1875 29.984375 
L 43.703125 38.09375 
L 69.578125 38.09375 
L 63.28125 6 
Q 56.78125 2.4375 49.109375 0.5 
Q 41.453125 -1.421875 33.6875 -1.421875 
Q 19.96875 -1.421875 12.234375 6.1875 
Q 4.5 13.8125 4.5 27.390625 
Q 4.5 38.671875 9.203125 48.84375 
Q 13.921875 59.03125 22.21875 65.828125 
Q 27.4375 70.0625 33.640625 72.140625 
Q 39.84375 74.21875 47.40625 74.21875 
Q 54.25 74.21875 60.515625 72.484375 
Q 66.796875 70.75 72.515625 67.28125 
L 70.515625 56.78125 
Q 66.109375 61.375 60.203125 63.796875 
Q 54.296875 66.21875 47.609375 66.21875 
Q 39.84375 66.21875 33.9375 63.25 
Q 28.03125 60.296875 23.390625 54.109375 
Q 19.4375 48.828125 17.15625 41.671875 
Q 14.890625 34.515625 14.890625 27.09375 
Q 14.890625 16.890625 20.109375 11.734375 
Q 25.34375 6.59375 35.6875 6.59375 
Q 40.875 6.59375 45.703125 7.6875 
Q 50.53125 8.796875 54.59375 10.890625 
z
" id="DejaVuSans-Oblique-71"/>
      </defs>
      <use transform="translate(0 0.015625)" xlink:href="#DejaVuSans-73"/>
      <use transform="translate(29.492188 0.015625)" xlink:href="#DejaVuSans-110"/>
      <use transform="translate(92.871094 0.015625)" xlink:href="#DejaVuSans-101"/>
      <use transform="translate(154.394531 0.015625)" xlink:href="#DejaVuSans-108"/>
      <use transform="translate(182.177734 0.015625)" xlink:href="#DejaVuSans-97"/>
      <use transform="translate(243.457031 0.015625)" xlink:href="#DejaVuSans-115"/>
      <use transform="translate(295.556641 0.015625)" xlink:href="#DejaVuSans-116"/>
      <use transform="translate(334.765625 0.015625)" xlink:href="#DejaVuSans-105"/>
      <use transform="translate(362.548828 0.015625)" xlink:href="#DejaVuSans-99"/>
      <use transform="translate(417.529297 0.015625)" xlink:href="#DejaVuSans-32"/>
      <use transform="translate(449.316406 0.015625)" xlink:href="#DejaVuSans-108"/>
      <use transform="translate(477.099609 0.015625)" xlink:href="#DejaVuSans-111"/>
      <use transform="translate(538.28125 0.015625)" xlink:href="#DejaVuSans-97"/>
      <use transform="translate(599.560547 0.015625)" xlink:href="#DejaVuSans-100"/>
      <use transform="translate(663.037109 0.015625)" xlink:href="#DejaVuSans-32"/>
      <use transform="translate(694.824219 0.015625)" xlink:href="#DejaVuSans-Oblique-71"/>
     </g>
    </g>
   </g>
   <g id="matplotlib.axis_2">
    <g id="ytick_1">
     <g id="line2d_10">
      <defs>
       <path d="M 0 0 
L -3.5 0 
" id="mc36cadebda" style="stroke:#000000;stroke-width:0.8;"/>
      </defs>
      <g>
       <use style="stroke:#000000;stroke-width:0.8;" x="54" xlink:href="#mc36cadebda" y="239.646276"/>
      </g>
     </g>
     <g id="text_11">
      <!-- −1 -->
      <g transform="translate(29.309375 244.205338)scale(0.12 -0.12)">
       <use xlink:href="#DejaVuSans-8722"/>
       <use x="83.789062" xlink:href="#DejaVuSans-49"/>
      </g>
     </g>
    </g>
    <g id="ytick_2">
     <g id="line2d_11">
      <g>
       <use style="stroke:#000000;stroke-width:0.8;" x="54" xlink:href="#mc36cadebda" y="213.903823"/>
      </g>
     </g>
     <g id="text_12">
      <!-- 0 -->
      <g transform="translate(39.365 218.462886)scale(0.12 -0.12)">
       <use xlink:href="#DejaVuSans-48"/>
      </g>
     </g>
    </g>
    <g id="ytick_3">
     <g id="line2d_12">
      <g>
       <use style="stroke:#000000;stroke-width:0.8;" x="54" xlink:href="#mc36cadebda" y="188.161371"/>
      </g>
     </g>
     <g id="text_13">
      <!-- 1 -->
      <g transform="translate(39.365 192.720434)scale(0.12 -0.12)">
       <use xlink:href="#DejaVuSans-49"/>
      </g>
     </g>
    </g>
    <g id="ytick_4">
     <g id="line2d_13">
      <g>
       <use style="stroke:#000000;stroke-width:0.8;" x="54" xlink:href="#mc36cadebda" y="162.418919"/>
      </g>
     </g>
     <g id="text_14">
      <!-- 2 -->
      <g transform="translate(39.365 166.977982)scale(0.12 -0.12)">
       <use xlink:href="#DejaVuSans-50"/>
      </g>
     </g>
    </g>
    <g id="ytick_5">
     <g id="line2d_14">
      <g>
       <use style="stroke:#000000;stroke-width:0.8;" x="54" xlink:href="#mc36cadebda" y="136.676467"/>
      </g>
     </g>
     <g id="text_15">
      <!-- 3 -->
      <g transform="translate(39.365 141.23553)scale(0.12 -0.12)">
       <defs>
        <path d="M 40.578125 39.3125 
Q 47.65625 37.796875 51.625 33 
Q 55.609375 28.21875 55.609375 21.1875 
Q 55.609375 10.40625 48.1875 4.484375 
Q 40.765625 -1.421875 27.09375 -1.421875 
Q 22.515625 -1.421875 17.65625 -0.515625 
Q 12.796875 0.390625 7.625 2.203125 
L 7.625 11.71875 
Q 11.71875 9.328125 16.59375 8.109375 
Q 21.484375 6.890625 26.8125 6.890625 
Q 36.078125 6.890625 40.9375 10.546875 
Q 45.796875 14.203125 45.796875 21.1875 
Q 45.796875 27.640625 41.28125 31.265625 
Q 36.765625 34.90625 28.71875 34.90625 
L 20.21875 34.90625 
L 20.21875 43.015625 
L 29.109375 43.015625 
Q 36.375 43.015625 40.234375 45.921875 
Q 44.09375 48.828125 44.09375 54.296875 
Q 44.09375 59.90625 40.109375 62.90625 
Q 36.140625 65.921875 28.71875 65.921875 
Q 24.65625 65.921875 20.015625 65.03125 
Q 15.375 64.15625 9.8125 62.3125 
L 9.8125 71.09375 
Q 15.4375 72.65625 20.34375 73.4375 
Q 25.25 74.21875 29.59375 74.21875 
Q 40.828125 74.21875 47.359375 69.109375 
Q 53.90625 64.015625 53.90625 55.328125 
Q 53.90625 49.265625 50.4375 45.09375 
Q 46.96875 40.921875 40.578125 39.3125 
z
" id="DejaVuSans-51"/>
       </defs>
       <use xlink:href="#DejaVuSans-51"/>
      </g>
     </g>
    </g>
    <g id="ytick_6">
     <g id="line2d_15">
      <g>
       <use style="stroke:#000000;stroke-width:0.8;" x="54" xlink:href="#mc36cadebda" y="110.934015"/>
      </g>
     </g>
     <g id="text_16">
      <!-- 4 -->
      <g transform="translate(39.365 115.493077)scale(0.12 -0.12)">
       <defs>
        <path d="M 37.796875 64.3125 
L 12.890625 25.390625 
L 37.796875 25.390625 
z
M 35.203125 72.90625 
L 47.609375 72.90625 
L 47.609375 25.390625 
L 58.015625 25.390625 
L 58.015625 17.1875 
L 47.609375 17.1875 
L 47.609375 0 
L 37.796875 0 
L 37.796875 17.1875 
L 4.890625 17.1875 
L 4.890625 26.703125 
z
" id="DejaVuSans-52"/>
       </defs>
       <use xlink:href="#DejaVuSans-52"/>
      </g>
     </g>
    </g>
    <g id="ytick_7">
     <g id="line2d_16">
      <g>
       <use style="stroke:#000000;stroke-width:0.8;" x="54" xlink:href="#mc36cadebda" y="85.191563"/>
      </g>
     </g>
     <g id="text_17">
      <!-- 5 -->
      <g transform="translate(39.365 89.750625)scale(0.12 -0.12)">
       <use xlink:href="#DejaVuSans-53"/>
      </g>
     </g>
    </g>
    <g id="ytick_8">
     <g id="line2d_17">
      <g>
       <use style="stroke:#000000;stroke-width:0.8;" x="54" xlink:href="#mc36cadebda" y="59.449111"/>
      </g>
     </g>
     <g id="text_18">
      <!-- 6 -->
      <g transform="translate(39.365 64.008173)scale(0.12 -0.12)">
       <defs>
        <path d="M 33.015625 40.375 
Q 26.375 40.375 22.484375 35.828125 
Q 18.609375 31.296875 18.609375 23.390625 
Q 18.609375 15.53125 22.484375 10.953125 
Q 26.375 6.390625 33.015625 6.390625 
Q 39.65625 6.390625 43.53125 10.953125 
Q 47.40625 15.53125 47.40625 23.390625 
Q 47.40625 31.296875 43.53125 35.828125 
Q 39.65625 40.375 33.015625 40.375 
z
M 52.59375 71.296875 
L 52.59375 62.3125 
Q 48.875 64.0625 45.09375 64.984375 
Q 41.3125 65.921875 37.59375 65.921875 
Q 27.828125 65.921875 22.671875 59.328125 
Q 17.53125 52.734375 16.796875 39.40625 
Q 19.671875 43.65625 24.015625 45.921875 
Q 28.375 48.1875 33.59375 48.1875 
Q 44.578125 48.1875 50.953125 41.515625 
Q 57.328125 34.859375 57.328125 23.390625 
Q 57.328125 12.15625 50.6875 5.359375 
Q 44.046875 -1.421875 33.015625 -1.421875 
Q 20.359375 -1.421875 13.671875 8.265625 
Q 6.984375 17.96875 6.984375 36.375 
Q 6.984375 53.65625 15.1875 63.9375 
Q 23.390625 74.21875 37.203125 74.21875 
Q 40.921875 74.21875 44.703125 73.484375 
Q 48.484375 72.75 52.59375 71.296875 
z
" id="DejaVuSans-54"/>
       </defs>
       <use xlink:href="#DejaVuSans-54"/>
      </g>
     </g>
    </g>
    <g id="text_19">
     <!-- Elastic load $F$ -->
     <g transform="translate(23.229687 176.38)rotate(-90)scale(0.1 -0.1)">
      <defs>
       <path d="M 9.8125 72.90625 
L 55.90625 72.90625 
L 55.90625 64.59375 
L 19.671875 64.59375 
L 19.671875 43.015625 
L 54.390625 43.015625 
L 54.390625 34.71875 
L 19.671875 34.71875 
L 19.671875 8.296875 
L 56.78125 8.296875 
L 56.78125 0 
L 9.8125 0 
z
" id="DejaVuSans-69"/>
       <path d="M 16.890625 72.90625 
L 58.6875 72.90625 
L 57.078125 64.59375 
L 25.09375 64.59375 
L 20.90625 43.109375 
L 49.8125 43.109375 
L 48.1875 34.8125 
L 19.28125 34.8125 
L 12.5 0 
L 2.6875 0 
z
" id="DejaVuSans-Oblique-70"/>
      </defs>
      <use transform="translate(0 0.015625)" xlink:href="#DejaVuSans-69"/>
      <use transform="translate(63.183594 0.015625)" xlink:href="#DejaVuSans-108"/>
      <use transform="translate(90.966797 0.015625)" xlink:href="#DejaVuSans-97"/>
      <use transform="translate(152.246094 0.015625)" xlink:href="#DejaVuSans-115"/>
      <use transform="translate(204.345703 0.015625)" xlink:href="#DejaVuSans-116"/>
      <use transform="translate(243.554688 0.015625)" xlink:href="#DejaVuSans-105"/>
      <use transform="translate(271.337891 0.015625)" xlink:href="#DejaVuSans-99"/>
      <use transform="translate(326.318359 0.015625)" xlink:href="#DejaVuSans-32"/>
      <use transform="translate(358.105469 0.015625)" xlink:href="#DejaVuSans-108"/>
      <use transform="translate(385.888672 0.015625)" xlink:href="#DejaVuSans-111"/>
      <use transform="translate(447.070312 0.015625)" xlink:href="#DejaVuSans-97"/>
      <use transform="translate(508.349609 0.015625)" xlink:href="#DejaVuSans-100"/>
      <use transform="translate(571.826172 0.015625)" xlink:href="#DejaVuSans-32"/>
      <use transform="translate(603.613281 0.015625)" xlink:href="#DejaVuSans-Oblique-70"/>
     </g>
    </g>
   </g>
   <g id="line2d_18">
    <path clip-path="url(#p5c9ad68631)" d="M 373.581777 239.63552 
L 373.464224 239.80639 
L 373.029746 239.922134 
L 371.375595 240.018007 
L 368.37604 239.805258 
L 366.414296 239.533928 
L 354.777242 236.624533 
L 350.864154 236.063499 
L 347.182922 235.612353 
L 342.107876 234.555149 
L 337.900753 233.881499 
L 333.471342 233.412724 
L 329.502164 233.201841 
L 324.677314 233.172326 
L 321.108749 233.176502 
L 315.952619 231.948063 
L 308.294454 229.852046 
L 299.535471 227.50279 
L 294.636453 226.403233 
L 289.665765 225.532341 
L 285.474984 225.013849 
L 281.24397 224.689826 
L 276.116865 224.534726 
L 270.068673 224.593745 
L 268.327505 224.541244 
L 262.186973 222.319823 
L 257.756112 220.911184 
L 253.287794 219.730671 
L 249.641361 218.986071 
L 245.954623 218.437481 
L 242.270817 218.090972 
L 238.591303 217.941763 
L 233.998747 218.008087 
L 229.413298 218.305723 
L 223.001879 218.970957 
L 221.142783 219.11774 
L 214.979826 217.489264 
L 207.815659 214.607029 
L 201.717586 212.41033 
L 196.678418 210.837568 
L 191.686868 209.526403 
L 180.907024 207.099518 
L 175.160102 206.123282 
L 168.585645 205.225352 
L 154.123326 203.412153 
L 149.773703 202.251571 
L 145.508833 201.324633 
L 141.331298 200.633114 
L 137.244002 200.160456 
L 132.462907 199.835462 
L 130.900147 199.736684 
L 119.701072 197.224618 
L 114.126718 195.901978 
L 109.49038 195.045247 
L 89.438035 191.864857 
L 86.305882 191.239488 
L 78.463449 189.892566 
L 73.208558 188.949301 
L 69.25047 188.278674 
L 69.25047 188.021452 
L 69.572018 187.692244 
L 70.345109 187.222229 
L 71.556364 186.744667 
L 73.208558 186.338302 
L 75.303269 186.060143 
L 78.148998 185.919516 
L 87.616924 185.856871 
L 99.212174 186.300127 
L 105.70154 186.668031 
L 111.449258 187.205158 
L 118.280553 188.076822 
L 134.836265 190.411229 
L 139.685378 190.559001 
L 143.827184 190.913205 
L 148.057447 191.506361 
L 155.003214 192.616553 
L 172.32484 193.912001 
L 178.021085 194.567716 
L 183.817048 195.462823 
L 188.717847 196.430434 
L 193.677286 197.619594 
L 198.688814 199.034415 
L 204.760525 201.009508 
L 210.880901 203.252734 
L 219.087444 206.512028 
L 223.001879 208.098837 
L 224.8331 208.238971 
L 233.08113 207.519614 
L 237.672179 207.385003 
L 241.350501 207.473065 
L 245.03333 207.757722 
L 248.719506 208.248766 
L 252.389678 208.94514 
L 255.973263 209.835191 
L 260.419131 211.186683 
L 265.704737 213.077875 
L 270.068673 214.720093 
L 276.975068 214.803631 
L 282.093262 215.0998 
L 286.316455 215.551537 
L 290.498799 216.205695 
L 294.636453 217.056455 
L 299.535471 218.30121 
L 305.146105 219.969599 
L 321.83033 225.154065 
L 323.261774 225.262456 
L 328.144592 225.540017 
L 332.165736 225.958134 
L 336.029354 226.561384 
L 339.731308 227.339925 
L 343.841718 228.42727 
L 349.31542 229.958616 
L 352.860567 230.760853 
L 356.161402 231.731068 
L 359.622338 233.003689 
L 363.456784 234.687789 
L 368.631496 237.012359 
L 371.54179 238.200024 
L 373.029746 239.020805 
L 373.552443 239.522939 
L 373.581777 239.63552 
L 373.581777 239.63552 
" style="fill:none;stroke:#172c4b;stroke-linecap:square;stroke-opacity:0.9;"/>
   </g>
   <g id="line2d_19">
    <path clip-path="url(#p5c9ad68631)" d="M 373.581742 239.61676 
L 373.482619 239.899543 
L 373.185201 240.023586 
L 372.569129 239.991248 
L 370.288174 239.511486 
L 355.942953 236.729362 
L 329.249201 232.262465 
L 309.485851 228.851807 
L 279.050082 223.719274 
L 266.680997 221.651408 
L 260.085221 220.743916 
L 254.333357 220.157564 
L 251.87618 219.88345 
L 248.608477 219.07072 
L 245.351109 218.520796 
L 239.675931 217.961918 
L 237.253095 218.059814 
L 234.835358 218.383247 
L 232.422181 218.914526 
L 229.210569 219.902841 
L 226.004101 220.947215 
L 224.40217 221.356884 
L 217.890142 222.135113 
L 216.810786 221.971872 
L 211.422093 218.218974 
L 207.126536 215.520622 
L 203.917748 213.749934 
L 200.722691 212.240457 
L 197.543695 211.022672 
L 194.382997 210.11737 
L 190.200859 209.294389 
L 187.090937 208.803709 
L 184.005959 208.574274 
L 180.947658 208.423376 
L 176.914183 207.987419 
L 174.917399 207.863742 
L 171.948292 207.048985 
L 165.148283 205.228007 
L 158.538031 203.686447 
L 150.335243 202.021442 
L 139.944448 200.169941 
L 121.875206 197.223412 
L 91.056802 192.210373 
L 80.468464 190.116246 
L 75.707697 189.303862 
L 69.266286 188.370964 
L 69.223098 188.020331 
L 69.434379 187.328222 
L 69.954444 186.386549 
L 70.786736 185.345719 
L 71.774844 184.482513 
L 72.817646 183.853465 
L 74.043536 183.363732 
L 80.468464 181.529235 
L 86.567721 180.44827 
L 89.655666 180.189743 
L 91.534181 180.02303 
L 95.020057 179.618427 
L 98.207998 179.462689 
L 102.743945 179.345745 
L 111.458761 178.941932 
L 120.422801 178.73985 
L 130.206721 178.735906 
L 139.944448 178.939025 
L 148.559329 179.330939 
L 155.765939 179.873946 
L 162.29139 180.59028 
L 168.040064 181.436495 
L 173.924173 182.540562 
L 178.92441 183.683025 
L 181.964025 184.418446 
L 185.031404 184.737066 
L 188.124895 185.240209 
L 191.242725 185.937338 
L 196.487989 187.404423 
L 199.661128 188.496665 
L 202.851086 189.861499 
L 206.055562 191.479222 
L 209.272166 193.322162 
L 217.890142 198.557635 
L 222.000153 200.630229 
L 223.601414 201.634693 
L 225.203054 202.260639 
L 226.004101 202.382142 
L 230.815614 200.685884 
L 234.030489 199.75322 
L 236.44664 199.273073 
L 239.675931 198.842935 
L 242.104279 198.722946 
L 244.538416 198.791995 
L 246.978478 199.055205 
L 249.424452 199.512956 
L 251.87618 200.160977 
L 255.153555 201.305315 
L 258.439496 202.74011 
L 262.556626 204.857722 
L 269.157256 205.814179 
L 278.227547 207.376206 
L 280.693497 206.957454 
L 283.153789 206.795105 
L 285.607168 206.902182 
L 288.052375 207.282779 
L 290.488152 207.9322 
L 292.913248 208.837415 
L 295.326417 209.977782 
L 297.726419 211.243308 
L 310.253245 213.918415 
L 319.266796 216.058266 
L 327.862956 218.323066 
L 337.252483 221.03656 
L 346.979284 224.084284 
L 353.465145 226.321786 
L 358.281024 228.213154 
L 361.71827 229.780873 
L 364.762707 231.407757 
L 367.392006 233.075081 
L 369.58364 234.732837 
L 371.315855 236.304398 
L 372.569129 237.678573 
L 373.327861 238.826666 
L 373.577964 239.540423 
L 373.581742 239.61676 
L 373.581742 239.61676 
" style="fill:none;stroke:#172c4b;stroke-linecap:square;stroke-opacity:0.8;"/>
   </g>
   <g id="line2d_20">
    <path clip-path="url(#p5c9ad68631)" d="M 373.581717 239.59632 
L 373.470357 240.032554 
L 373.220839 240.194232 
L 372.710839 240.224007 
L 371.251552 239.982294 
L 367.04174 239.158049 
L 363.452386 238.387471 
L 351.13516 236.320373 
L 342.941678 235.14502 
L 337.83649 234.269049 
L 332.45987 233.370653 
L 313.522274 229.916477 
L 293.1323 226.58253 
L 283.51047 224.524207 
L 276.303531 223.204926 
L 269.93629 222.277873 
L 264.410326 221.693034 
L 255.014148 220.818986 
L 250.358977 220.34842 
L 246.518643 220.149027 
L 245.754951 219.903361 
L 244.231947 219.135172 
L 242.714741 218.546608 
L 241.20324 218.143404 
L 239.697303 217.928746 
L 238.196743 217.903198 
L 236.701326 218.064681 
L 235.210772 218.408486 
L 233.724758 218.927324 
L 231.503441 220.011741 
L 229.290122 221.424683 
L 228.553862 221.959726 
L 227.083245 222.430221 
L 218.803992 224.375447 
L 215.346241 224.74751 
L 214.195153 224.593988 
L 213.045082 224.287183 
L 207.315504 219.773691 
L 203.899911 217.387873 
L 200.505787 215.325534 
L 197.13685 213.631385 
L 194.90661 212.722827 
L 192.690071 211.998465 
L 190.488135 211.461575 
L 188.30164 211.112594 
L 187.214428 211.007932 
L 186.131364 210.736551 
L 182.907905 209.274921 
L 179.72466 208.024062 
L 176.583435 206.976647 
L 172.463007 205.875637 
L 168.422523 205.076518 
L 162.515263 204.225818 
L 156.794152 203.603815 
L 152.168397 202.496617 
L 147.670035 201.627682 
L 142.437235 200.855666 
L 136.555368 200.246815 
L 134.918271 200.115918 
L 130.121547 199.084817 
L 126.255019 198.549304 
L 122.507561 198.252387 
L 115.374926 197.829337 
L 114.688702 197.714102 
L 110.026258 195.943677 
L 106.23062 194.764795 
L 103.212834 194.048789 
L 100.329704 193.565748 
L 98.121434 193.193924 
L 93.475084 192.309192 
L 85.510041 191.078633 
L 80.039881 190.145708 
L 76.497641 189.523756 
L 73.47929 189.111958 
L 71.288599 189.030553 
L 69.680932 188.945162 
L 69.376553 188.734878 
L 69.244629 188.41426 
L 69.244629 187.753474 
L 69.561671 186.675418 
L 70.240027 185.292189 
L 71.288599 183.666233 
L 72.36718 182.377812 
L 74.318539 180.458955 
L 75.978318 179.161558 
L 77.884424 177.96196 
L 80.039881 176.89537 
L 82.44725 175.982803 
L 85.108908 175.230151 
L 87.972479 174.464837 
L 92.025608 173.216836 
L 95.484923 172.351265 
L 99.214598 171.652836 
L 105.616401 170.805043 
L 108.74018 170.663628 
L 111.99398 170.771806 
L 117.463362 171.103066 
L 125.495978 169.253252 
L 129.33874 168.696991 
L 132.498481 168.463887 
L 136.555368 168.23692 
L 141.582377 167.542695 
L 145.905907 167.131847 
L 150.353873 166.92062 
L 154.928449 166.949538 
L 159.631414 167.062039 
L 164.463718 166.524072 
L 168.422523 166.314363 
L 172.463007 166.3664 
L 175.545962 166.610873 
L 178.672837 167.054491 
L 181.842259 167.714411 
L 185.052534 168.603775 
L 188.30164 169.731163 
L 191.587224 171.100167 
L 194.90661 172.709112 
L 198.256811 174.550939 
L 201.634542 176.613241 
L 206.174827 179.674911 
L 210.748626 183.042228 
L 216.498185 187.577643 
L 221.111273 191.371923 
L 223.414788 194.01957 
L 224.147822 194.471726 
L 225.614742 194.616557 
L 228.553862 192.151976 
L 231.503441 189.995273 
L 233.724758 188.654151 
L 235.95546 187.599592 
L 238.196743 186.867846 
L 239.697303 186.5733 
L 241.20324 186.440449 
L 242.714741 186.473183 
L 244.231947 186.673437 
L 245.754951 187.041183 
L 247.283798 187.574452 
L 249.588012 188.675769 
L 251.905175 190.119803 
L 254.234886 191.877532 
L 256.576555 193.912516 
L 259.714204 196.982655 
L 262.057344 199.490482 
L 262.840596 199.871577 
L 268.352637 200.195554 
L 273.910291 200.773166 
L 279.502632 201.59505 
L 285.115112 202.637686 
L 291.531245 204.053421 
L 299.509551 206.061213 
L 301.094516 206.421389 
L 307.372955 207.687532 
L 313.522274 209.1744 
L 319.544817 210.88298 
L 334.505871 215.575864 
L 342.319426 218.284951 
L 348.896486 220.794421 
L 356.347846 223.930679 
L 362.652903 227.137344 
L 364.971144 228.671427 
L 367.04174 230.304749 
L 368.851533 232.002546 
L 370.615241 233.989795 
L 371.984593 235.876558 
L 372.941051 237.54336 
L 373.470357 238.884958 
L 373.581717 239.59632 
L 373.581717 239.59632 
" style="fill:none;stroke:#172c4b;stroke-linecap:square;stroke-opacity:0.7;"/>
   </g>
   <g id="line2d_21">
    <path clip-path="url(#p5c9ad68631)" d="M 373.581694 239.580467 
L 373.494434 240.031277 
L 373.231901 240.246651 
L 372.796147 240.27493 
L 371.625274 240.036696 
L 364.821579 238.582311 
L 361.313746 238.152941 
L 357.339864 237.234505 
L 352.377299 236.331217 
L 343.777538 234.855382 
L 258.278874 220.312406 
L 252.575879 219.641762 
L 249.090512 219.24047 
L 246.346672 218.637087 
L 243.641887 218.252011 
L 241.638239 217.991767 
L 239.655125 217.558401 
L 237.691524 217.404079 
L 235.746176 217.537974 
L 233.817591 217.864975 
L 231.904063 218.661575 
L 230.003682 219.624033 
L 228.11436 220.820933 
L 225.608574 222.548639 
L 224.359802 223.045094 
L 221.098147 224.123374 
L 211.467703 225.905238 
L 209.073313 223.447155 
L 205.498229 219.791674 
L 201.947498 216.552151 
L 199.596259 214.663866 
L 197.25931 213.016164 
L 194.937888 211.625101 
L 192.63314 210.502877 
L 190.346118 209.657678 
L 188.077774 209.093581 
L 185.828961 208.498408 
L 183.600432 207.948118 
L 181.392838 207.629432 
L 179.206735 207.541174 
L 177.042582 207.626926 
L 174.900745 206.922976 
L 171.730431 205.873319 
L 168.611565 205.069428 
L 165.54441 204.483538 
L 161.53521 203.987038 
L 157.617128 203.742141 
L 154.737647 203.615734 
L 150.049248 202.720646 
L 144.602457 201.901146 
L 135.11397 200.753148 
L 125.495965 199.520866 
L 118.800143 198.438772 
L 116.67031 198.047896 
L 108.677157 195.370449 
L 106.202328 194.834726 
L 103.822371 194.512048 
L 101.530134 194.397799 
L 100.960439 194.399902 
L 97.655856 193.543081 
L 96.076393 193.446352 
L 95.050299 193.429823 
L 85.560409 191.358167 
L 82.909934 190.734053 
L 80.510204 190.391238 
L 76.446774 189.902903 
L 74.99847 189.500447 
L 71.81199 188.803428 
L 70.999185 188.540688 
L 70.342793 188.560175 
L 69.331425 188.688275 
L 69.230369 188.364365 
L 69.258647 187.407524 
L 69.769913 184.833469 
L 70.441487 182.670311 
L 71.252553 180.834811 
L 72.278255 178.794288 
L 73.332985 177.154281 
L 74.338718 175.935013 
L 75.462049 174.901546 
L 76.705039 173.941572 
L 77.786883 173.441296 
L 78.649887 173.263964 
L 79.557544 173.193516 
L 81.508201 171.688955 
L 83.641464 170.325618 
L 85.560409 169.342108 
L 87.609118 168.533879 
L 89.788789 167.930087 
L 91.159915 167.614695 
L 95.050299 166.110696 
L 100.39616 164.289779 
L 101.530134 164.015954 
L 107.427857 162.410621 
L 115.971923 160.377546 
L 131.012595 156.805089 
L 142.829665 153.984521 
L 148.212112 152.901587 
L 152.845793 152.176758 
L 156.65171 151.772277 
L 160.547188 151.453823 
L 164.533517 150.640488 
L 167.58343 150.229465 
L 170.685072 150.030358 
L 173.838287 150.078013 
L 177.042582 150.403784 
L 180.29707 151.034391 
L 183.600432 151.990884 
L 186.950877 153.28777 
L 190.346118 154.932326 
L 193.783362 156.924116 
L 197.25931 159.254762 
L 200.770173 161.907945 
L 204.311701 164.859669 
L 207.879223 168.078768 
L 212.667604 172.721014 
L 218.685949 178.937981 
L 221.098147 181.506978 
L 224.98392 188.053171 
L 225.608574 188.070241 
L 228.11436 184.288581 
L 230.003682 181.879431 
L 231.269241 180.531962 
L 232.540347 179.420662 
L 233.817591 178.566434 
L 235.101532 177.9861 
L 236.392684 177.69215 
L 237.691524 177.692557 
L 238.998481 177.990669 
L 240.31394 178.585181 
L 242.303797 179.719321 
L 243.641887 180.123438 
L 244.989454 180.721151 
L 246.346672 181.507833 
L 248.400853 183.02714 
L 250.47725 184.925947 
L 252.575879 187.165263 
L 255.408277 190.599404 
L 259.728053 196.206126 
L 261.918542 196.872179 
L 264.128315 197.066779 
L 264.869025 196.825408 
L 267.102975 194.934513 
L 268.601719 193.893832 
L 270.107622 193.048616 
L 271.620334 192.411987 
L 273.139494 191.993692 
L 274.66473 191.800024 
L 276.195667 191.833796 
L 277.731922 192.094374 
L 279.273105 192.577765 
L 280.818823 193.276758 
L 282.368679 194.181113 
L 283.922269 195.277796 
L 286.258766 197.248808 
L 289.383335 200.043764 
L 298.003973 201.439811 
L 305.827605 202.922898 
L 308.939642 203.51344 
L 311.263394 203.759354 
L 313.57638 204.328282 
L 317.402522 205.550017 
L 324.91574 207.535985 
L 332.184819 209.67631 
L 338.458856 211.737532 
L 343.777538 213.7069 
L 348.199949 215.570886 
L 351.796643 217.297933 
L 355.194668 219.160337 
L 358.881288 221.477793 
L 361.313746 223.176288 
L 363.564198 224.980392 
L 365.619341 226.868361 
L 367.808874 229.197373 
L 369.953481 231.830942 
L 371.416528 234.069207 
L 372.660431 236.440575 
L 373.313855 238.092746 
L 373.560196 239.207561 
L 373.581694 239.580467 
L 373.581694 239.580467 
" style="fill:none;stroke:#172c4b;stroke-linecap:square;stroke-opacity:0.6;"/>
   </g>
   <g id="line2d_22">
    <path clip-path="url(#p5c9ad68631)" d="M 373.581675 239.567143 
L 373.474781 240.132618 
L 373.253542 240.367047 
L 372.773069 240.433774 
L 371.880302 240.250264 
L 369.492085 239.625998 
L 368.127807 239.502626 
L 366.990478 239.405011 
L 364.890372 239.131659 
L 363.514863 238.99606 
L 356.675241 237.209922 
L 353.103787 236.586524 
L 349.960149 236.042216 
L 344.656655 234.975197 
L 336.909283 233.675494 
L 317.186258 230.495284 
L 302.987704 227.874124 
L 288.102385 225.197931 
L 274.488125 223.016408 
L 253.547415 219.893612 
L 247.788493 219.278146 
L 243.487406 219.047325 
L 242.885499 219.036526 
L 241.690883 218.565302 
L 239.921501 217.889202 
L 238.17829 217.44103 
L 236.460028 217.239503 
L 234.765234 217.296546 
L 233.092175 217.616773 
L 231.438872 218.19721 
L 229.803111 219.027271 
L 228.182463 220.088996 
L 225.507785 222.02455 
L 221.073795 223.680359 
L 209.371473 225.687006 
L 208.078919 225.655053 
L 204.216387 221.095705 
L 201.656141 218.378128 
L 199.109672 215.95953 
L 196.578585 213.869858 
L 194.064419 212.133617 
L 191.568633 210.76949 
L 189.092611 209.79006 
L 186.63765 209.201629 
L 184.20496 208.932369 
L 181.795662 208.388871 
L 179.410787 208.174278 
L 175.881295 208.149446 
L 173.56138 208.432406 
L 171.268773 208.884446 
L 170.132907 208.915171 
L 169.004094 208.754104 
L 165.660594 207.129363 
L 162.382591 205.738167 
L 158.115623 204.213602 
L 153.968592 203.018125 
L 149.942172 202.09358 
L 145.078573 201.227012 
L 138.583037 200.35153 
L 125.074996 198.656504 
L 118.998771 197.64342 
L 110.060011 195.899086 
L 105.716568 194.970682 
L 101.69371 194.33136 
L 97.982208 193.954224 
L 95.515013 193.67992 
L 92.306518 192.715795 
L 89.368256 192.060254 
L 87.049827 191.748462 
L 84.902448 191.654326 
L 83.888947 191.678055 
L 81.36899 190.688217 
L 79.051947 189.996972 
L 76.567197 189.51906 
L 73.652026 189.00219 
L 72.404056 188.723709 
L 71.373645 188.708863 
L 70.452742 188.722587 
L 69.794093 188.761661 
L 69.352825 188.881172 
L 69.255563 188.664587 
L 69.221965 187.735565 
L 69.386562 185.786437 
L 69.862483 182.522448 
L 70.452742 179.990741 
L 70.996805 178.571482 
L 71.243776 177.987024 
L 72.087763 175.833922 
L 72.911861 174.245134 
L 73.848452 172.913992 
L 74.680169 172.066392 
L 75.35266 171.507051 
L 76.824254 169.333566 
L 78.466376 167.323579 
L 80.488855 165.268997 
L 81.670024 164.346802 
L 83.234552 163.542582 
L 84.560289 163.132437 
L 85.600026 162.930253 
L 87.424005 161.983654 
L 88.575642 161.36002 
L 91.015297 159.43039 
L 93.19483 157.967974 
L 95.515013 156.640629 
L 97.982208 155.242331 
L 101.144686 153.140378 
L 104.534816 151.176242 
L 107.53835 149.670877 
L 111.360865 148.030399 
L 115.425041 146.555948 
L 120.476276 144.998875 
L 126.663752 143.353931 
L 134.164074 141.602533 
L 140.401874 140.341298 
L 146.036281 139.418232 
L 150.937463 138.717844 
L 154.994054 137.784257 
L 158.115623 137.272513 
L 161.304676 136.955927 
L 164.560588 136.863801 
L 167.882399 137.023575 
L 171.268773 137.45995 
L 174.717966 138.194042 
L 178.227805 139.242626 
L 181.795662 140.617469 
L 187.86242 143.350267 
L 191.568633 145.422355 
L 195.319294 147.868355 
L 199.109672 150.672146 
L 202.934645 153.80896 
L 206.788739 157.245916 
L 211.962814 162.225003 
L 217.164018 167.553411 
L 219.770161 170.290366 
L 221.073795 171.462922 
L 221.796436 172.641755 
L 223.914218 177.393432 
L 224.444723 177.929647 
L 226.574311 178.696185 
L 227.645159 176.764462 
L 229.261342 173.981841 
L 230.346561 172.449889 
L 231.438872 171.209476 
L 232.538984 170.283671 
L 233.647564 169.690477 
L 234.765234 169.442557 
L 235.892569 169.547047 
L 237.030096 170.005467 
L 238.756523 171.013128 
L 239.921501 172.028001 
L 241.098116 173.341055 
L 242.885499 175.69152 
L 244.700535 178.584203 
L 246.543794 181.962618 
L 248.415625 185.610873 
L 249.045949 185.488338 
L 251.599156 184.536084 
L 253.547415 184.017994 
L 255.523953 183.703235 
L 257.52835 183.61774 
L 259.560082 183.780849 
L 260.929457 184.033875 
L 261.618536 183.984329 
L 263.005348 182.990692 
L 264.403513 182.316142 
L 265.812803 181.972806 
L 267.232977 181.967167 
L 268.663787 182.300036 
L 270.104977 182.966616 
L 271.556281 183.95667 
L 273.017424 185.254777 
L 274.488125 186.840673 
L 275.968089 188.689677 
L 276.711452 189.0129 
L 277.457015 188.98252 
L 279.706516 188.241696 
L 281.216445 187.942301 
L 282.734181 187.801557 
L 284.259363 187.820342 
L 285.791615 187.998022 
L 287.330544 188.332502 
L 289.650555 189.120218 
L 291.9832 190.235307 
L 294.326926 191.654551 
L 296.680081 193.349579 
L 299.04092 195.287767 
L 302.987704 198.819302 
L 310.103689 200.171453 
L 317.968576 201.896691 
L 326.47458 204.000419 
L 333.24564 205.891448 
L 338.351842 207.517219 
L 342.591353 209.065882 
L 346.681915 210.800881 
L 349.960149 212.416057 
L 353.103787 214.201898 
L 356.096394 216.164824 
L 358.920066 218.299782 
L 362.058307 221.004221 
L 364.441155 223.313466 
L 366.590476 225.756742 
L 368.48549 228.267472 
L 370.106276 230.765559 
L 371.43455 233.163779 
L 372.620224 235.787737 
L 373.253542 237.659615 
L 373.555393 239.109733 
L 373.581675 239.567143 
L 373.581675 239.567143 
" style="fill:none;stroke:#172c4b;stroke-linecap:square;stroke-opacity:0.5;"/>
   </g>
   <g id="line2d_23">
    <path clip-path="url(#p5c9ad68631)" d="M 373.581652 239.53444 
L 373.504459 240.055298 
L 373.270752 240.410507 
L 372.882892 240.611157 
L 372.343322 240.597606 
L 370.823307 240.206458 
L 368.747193 239.69332 
L 366.162182 239.362423 
L 361.451005 238.728011 
L 358.464688 237.97473 
L 355.257508 237.384848 
L 351.861351 236.868388 
L 346.844593 235.48904 
L 341.584992 234.309424 
L 336.140755 233.326328 
L 328.944463 232.26781 
L 310.865658 229.732194 
L 301.791981 228.159923 
L 288.069757 225.487848 
L 275.796485 223.176329 
L 261.691464 220.788333 
L 240.453598 217.316474 
L 236.981015 217.085987 
L 234.165351 217.138252 
L 231.923203 217.384501 
L 231.48525 217.457 
L 230.619108 217.312578 
L 229.765324 217.500299 
L 228.50595 218.183086 
L 226.455938 218.926787 
L 224.056545 220.035793 
L 221.077399 221.558538 
L 205.679849 224.431305 
L 204.410028 224.670629 
L 203.143313 223.911158 
L 200.620055 221.024387 
L 195.619939 215.905838 
L 193.146173 213.656285 
L 190.691853 211.778565 
L 188.258305 210.286431 
L 185.846758 209.187934 
L 183.458342 208.485365 
L 181.094088 208.175277 
L 178.754924 208.248602 
L 176.441676 208.690857 
L 174.155069 209.482432 
L 173.021956 210.001773 
L 171.89573 210.318073 
L 168.558985 208.221395 
L 165.286166 206.475966 
L 162.078238 205.055096 
L 158.935765 203.927117 
L 155.85896 203.056632 
L 152.847723 202.405816 
L 148.934096 201.812456 
L 146.074128 201.422965 
L 141.428213 200.429121 
L 136.04561 199.545482 
L 130.07888 198.609094 
L 125.226948 197.790709 
L 119.12508 196.992814 
L 114.12211 196.346446 
L 105.639038 194.663358 
L 95.058061 192.569493 
L 86.917274 191.231308 
L 78.137458 189.739428 
L 74.75351 189.246842 
L 71.157569 189.024182 
L 70.927686 188.982302 
L 70.513641 188.565315 
L 70.159289 188.483379 
L 69.79812 188.669933 
L 69.339413 189.017886 
L 69.312438 188.975708 
L 69.221571 188.31673 
L 69.268653 186.500783 
L 69.931831 180.372857 
L 70.513641 177.24045 
L 71.040702 175.513498 
L 71.531524 174.608866 
L 71.941036 174.162777 
L 73.038667 171.288062 
L 74.143005 168.990645 
L 75.403742 166.866317 
L 77.598791 163.383076 
L 78.980882 161.43688 
L 80.482429 159.697798 
L 82.106014 158.200246 
L 83.494497 157.192353 
L 85.344337 155.919084 
L 93.095079 148.537698 
L 94.558888 147.030981 
L 96.073386 145.7348 
L 97.63913 144.684734 
L 99.256661 143.913116 
L 100.926505 143.012468 
L 103.235225 141.635728 
L 105.639038 140.455114 
L 106.876967 139.95817 
L 112.072172 136.571088 
L 114.12211 135.067485 
L 116.228327 133.882054 
L 118.391353 132.846528 
L 131.749693 124.898923 
L 137.812027 121.537954 
L 142.349741 119.260763 
L 146.074128 117.595674 
L 149.901702 116.140888 
L 152.847723 115.230925 
L 156.877265 114.124521 
L 159.975964 113.165803 
L 163.140294 112.481188 
L 165.286166 112.199084 
L 167.460886 112.071102 
L 169.66419 112.109007 
L 171.89573 112.323639 
L 174.155069 112.724751 
L 176.441676 113.320844 
L 178.754924 114.119022 
L 181.094088 115.124863 
L 183.458342 116.342303 
L 185.846758 117.773546 
L 188.258305 119.418984 
L 190.691853 121.277156 
L 194.380711 124.455449 
L 198.111734 128.085187 
L 201.879919 132.137832 
L 205.679849 136.576041 
L 209.50575 141.354418 
L 214.63681 148.163246 
L 221.077399 157.178487 
L 221.694059 159.001643 
L 223.661103 167.273103 
L 224.056545 167.742457 
L 224.453015 166.756718 
L 226.455938 158.967332 
L 228.091381 153.632398 
L 229.342804 150.322268 
L 230.619108 147.702896 
L 231.48525 146.375153 
L 232.364536 145.40083 
L 233.257684 144.791264 
L 234.165351 144.553587 
L 235.088124 144.690688 
L 236.026525 145.201241 
L 236.981015 146.079783 
L 237.951988 147.316841 
L 238.93978 148.899124 
L 240.453598 151.881989 
L 242.006586 155.532178 
L 244.138941 161.288572 
L 244.68311 162.862671 
L 245.231719 164.013927 
L 246.904181 164.820019 
L 248.616508 165.965198 
L 250.368487 167.453143 
L 252.15981 169.28147 
L 253.990094 171.441407 
L 256.490314 174.809791 
L 257.125936 175.733741 
L 258.409728 175.482563 
L 259.710118 175.576697 
L 261.026943 176.039163 
L 262.36003 176.862625 
L 263.7092 178.03389 
L 265.074266 179.534235 
L 266.455028 181.33981 
L 268.555137 184.557062 
L 269.974186 186.959838 
L 272.130597 189.34108 
L 272.856688 189.521433 
L 276.540089 189.332587 
L 280.307766 189.33503 
L 284.15345 189.540548 
L 288.069757 189.95862 
L 292.048212 190.59664 
L 296.079371 191.459869 
L 300.153019 192.551102 
L 304.25842 193.870081 
L 308.384584 195.412743 
L 312.520487 197.170418 
L 313.347873 197.546625 
L 320.778012 199.024045 
L 330.558973 201.309916 
L 335.350802 202.561424 
L 339.271378 203.805788 
L 343.108896 205.277017 
L 346.106601 206.640892 
L 349.028195 208.184956 
L 351.861351 209.915762 
L 354.592415 211.832537 
L 357.206486 213.926337 
L 359.687572 216.179643 
L 362.018828 218.566442 
L 364.182876 221.05281 
L 366.626107 224.238165 
L 368.747193 227.424238 
L 370.514747 230.513157 
L 371.900945 233.406643 
L 372.882892 236.012967 
L 373.443796 238.163829 
L 373.581652 239.53444 
L 373.581652 239.53444 
" style="fill:none;stroke:#172c4b;stroke-linecap:square;stroke-opacity:0.4;"/>
   </g>
   <g id="line2d_24">
    <path clip-path="url(#p5c9ad68631)" d="M 373.581636 239.434394 
L 373.47828 240.151989 
L 373.292634 240.491466 
L 372.841927 240.755019 
L 372.187766 240.78175 
L 371.00797 240.564992 
L 366.088442 239.411388 
L 363.757259 239.198587 
L 361.844687 239.242236 
L 361.178219 239.304711 
L 354.615589 238.006738 
L 351.426228 237.512575 
L 350.607663 237.376211 
L 345.548723 235.868513 
L 341.180127 234.769346 
L 335.815561 233.673835 
L 332.192782 232.966106 
L 326.725446 231.810566 
L 320.342807 230.677637 
L 310.409535 229.179415 
L 296.401303 227.052933 
L 286.403606 225.280912 
L 264.781893 221.324077 
L 253.474427 219.621889 
L 245.814454 218.376884 
L 239.126501 217.045746 
L 233.780068 216.021106 
L 229.880274 215.554404 
L 228.278824 215.560589 
L 227.064872 215.765909 
L 225.902998 216.154583 
L 224.511107 216.88991 
L 221.059959 219.032374 
L 207.525918 221.117708 
L 199.537319 222.391267 
L 198.221158 222.287714 
L 195.604241 218.871007 
L 193.009446 215.896345 
L 190.438554 213.393342 
L 187.893209 211.384773 
L 185.374911 209.88629 
L 184.126335 209.331232 
L 182.885017 208.906256 
L 181.651103 208.611258 
L 177.995101 208.029023 
L 175.597036 207.694258 
L 173.231289 207.748905 
L 169.744559 208.255425 
L 167.461971 206.86886 
L 165.213239 205.710805 
L 162.998515 204.767101 
L 160.817838 204.02181 
L 158.671142 203.457507 
L 155.514447 202.909452 
L 151.422333 202.406662 
L 148.439253 201.750089 
L 144.573643 201.151798 
L 139.877967 200.702554 
L 124.533177 199.52408 
L 119.937054 198.822818 
L 114.886983 197.794261 
L 110.819385 196.772659 
L 99.430494 193.512555 
L 95.790601 192.77679 
L 86.903765 191.421594 
L 84.242059 191.19574 
L 82.491789 190.77734 
L 80.552216 190.570912 
L 79.646682 190.39353 
L 76.682123 189.56925 
L 74.659456 189.223428 
L 74.063284 189.085452 
L 72.658474 188.781009 
L 70.020878 188.579172 
L 69.64603 188.961879 
L 69.390155 189.229661 
L 69.35878 189.198032 
L 69.264947 188.878735 
L 69.218195 187.787613 
L 69.330584 184.764501 
L 69.757529 178.787636 
L 70.427781 172.552128 
L 71.148566 168.013448 
L 71.776098 165.339803 
L 72.34836 163.704164 
L 72.819613 162.827733 
L 73.327644 162.281499 
L 73.873067 162.083048 
L 74.257742 162.148497 
L 74.659456 162.372634 
L 74.866751 162.082729 
L 76.201856 158.851126 
L 77.436048 156.487392 
L 79.943826 152.541261 
L 80.863504 151.456373 
L 81.826012 150.694834 
L 82.491789 150.382629 
L 83.17708 150.101366 
L 84.977057 147.909213 
L 86.903765 144.329739 
L 88.538871 141.809375 
L 89.802198 140.238083 
L 91.098835 139.024678 
L 91.991054 138.450137 
L 92.905968 138.085947 
L 94.321722 137.745558 
L 95.790601 136.767864 
L 96.799914 136.321283 
L 97.833621 136.049064 
L 98.359706 135.980338 
L 99.430494 135.093624 
L 102.793632 132.097843 
L 106.987349 128.728839 
L 112.823425 124.394641 
L 121.441316 117.984096 
L 127.737882 112.974386 
L 143.621515 100.052845 
L 147.460988 97.296135 
L 150.419869 95.394968 
L 153.451841 93.695776 
L 156.55827 92.254279 
L 158.671142 91.464232 
L 160.817838 90.830167 
L 162.998515 90.368085 
L 165.213239 90.093319 
L 167.461971 90.020316 
L 169.744559 90.162418 
L 176.792073 91.170608 
L 179.206023 91.952676 
L 181.651103 93.044991 
L 184.126335 94.454018 
L 186.630591 96.183208 
L 189.16259 98.232894 
L 191.720906 100.60022 
L 194.303964 103.279117 
L 196.910051 106.260325 
L 199.537319 109.531458 
L 203.51359 114.947284 
L 207.525918 120.916252 
L 211.566669 127.361587 
L 216.98462 136.187941 
L 221.059959 142.73185 
L 221.595319 144.947024 
L 223.434403 160.619757 
L 224.784877 153.845186 
L 225.619715 150.555128 
L 226.477919 148.023612 
L 227.064872 146.811482 
L 227.664863 146.009353 
L 228.278824 145.635629 
L 228.907611 145.702258 
L 229.552004 146.21459 
L 230.212703 147.171334 
L 230.890334 148.564625 
L 231.939705 151.440196 
L 233.029937 155.190855 
L 234.549183 161.373917 
L 235.337508 164.667036 
L 236.972454 169.630068 
L 239.572099 178.363913 
L 240.478108 181.484321 
L 240.938522 182.629552 
L 241.403877 182.333748 
L 242.829589 179.22227 
L 244.799722 175.312292 
L 246.329244 171.213693 
L 247.90335 167.801737 
L 248.977585 165.961505 
L 250.071743 164.497835 
L 251.185887 163.429092 
L 252.320089 162.767686 
L 253.474427 162.520038 
L 254.648983 162.686634 
L 255.843843 163.262173 
L 257.059086 164.235808 
L 258.294789 165.591455 
L 259.551017 167.308191 
L 260.827821 169.360707 
L 262.78167 173.00431 
L 264.110004 175.761527 
L 264.781893 176.18324 
L 266.141079 176.104126 
L 267.520743 176.255269 
L 268.920771 176.637144 
L 270.341012 177.2479 
L 271.781276 178.083405 
L 272.508848 178.583536 
L 273.241337 178.686422 
L 278.503233 177.676278 
L 282.399801 177.176579 
L 285.594637 177.003194 
L 288.033392 177.050019 
L 290.506673 177.280572 
L 293.012601 177.722341 
L 295.549257 178.400206 
L 298.1147 179.335264 
L 300.706975 180.543727 
L 303.324119 182.035963 
L 305.964149 183.815697 
L 308.625043 185.879441 
L 311.304709 188.216158 
L 314.902964 191.723109 
L 317.617556 194.611553 
L 318.52493 195.01824 
L 323.075697 195.617213 
L 327.637972 196.447195 
L 331.283477 197.316977 
L 334.912478 198.400528 
L 338.51099 199.722343 
L 342.062671 201.300994 
L 345.548723 203.147232 
L 348.947911 205.262395 
L 352.236715 207.637265 
L 355.389612 210.251456 
L 358.379495 213.067942 
L 361.178219 215.954472 
L 363.757259 218.986767 
L 366.088442 222.101737 
L 368.144744 225.228963 
L 369.901098 228.29403 
L 371.335181 231.222179 
L 372.428146 233.942062 
L 373.165253 236.38935 
L 373.536383 238.509985 
L 373.581636 239.434394 
L 373.581636 239.434394 
" style="fill:none;stroke:#172c4b;stroke-linecap:square;stroke-opacity:0.3;"/>
   </g>
   <g id="line2d_25">
    <path clip-path="url(#p5c9ad68631)" d="M 373.581629 239.453348 
L 373.518629 239.980542 
L 373.178963 240.464179 
L 372.551443 240.853281 
L 371.975961 241.01683 
L 370.882954 240.969147 
L 368.474667 240.550327 
L 363.237161 239.543334 
L 360.062864 239.180855 
L 356.577178 239.053369 
L 351.853644 238.841874 
L 349.869219 238.457437 
L 338.291107 235.76363 
L 332.814583 234.299237 
L 327.304801 233.083487 
L 320.729597 231.778294 
L 314.267033 230.112694 
L 307.972729 228.735499 
L 300.889365 227.442646 
L 292.238686 226.124335 
L 274.138947 223.451218 
L 265.83456 221.948641 
L 243.0429 217.624534 
L 231.581616 215.696742 
L 227.051412 214.921198 
L 225.450099 214.869428 
L 224.217561 215.045146 
L 223.106936 215.44352 
L 222.076731 216.051299 
L 221.506218 216.478387 
L 221.053101 216.59272 
L 207.243924 217.853214 
L 195.064466 219.067198 
L 193.734911 218.376328 
L 191.093047 215.356648 
L 188.475726 212.843452 
L 185.884717 210.85809 
L 184.599604 210.067893 
L 183.321684 209.414121 
L 182.051148 208.897231 
L 180.788178 208.517183 
L 179.532952 208.273443 
L 178.285637 208.164988 
L 177.046393 208.190316 
L 175.815374 207.865402 
L 173.37858 206.70208 
L 170.976319 205.999158 
L 168.609525 205.735915 
L 166.279003 205.85487 
L 163.985424 205.381518 
L 161.729333 205.219996 
L 159.511143 205.343103 
L 158.416355 205.502207 
L 157.33114 205.192479 
L 155.189489 204.017069 
L 153.086234 203.053252 
L 151.021304 202.294219 
L 148.994516 201.73166 
L 147.005589 201.355842 
L 145.05414 201.155691 
L 143.139699 201.118892 
L 140.336205 201.340313 
L 137.612569 201.849422 
L 134.966337 202.592904 
L 131.553775 201.488098 
L 129.077468 201.02508 
L 126.669154 200.882723 
L 124.32592 201.022468 
L 122.04493 201.399402 
L 119.823494 201.963729 
L 116.949938 202.915751 
L 116.24677 202.894334 
L 113.492796 201.582944 
L 109.531464 199.41876 
L 101.614153 194.9749 
L 99.358923 194.024386 
L 97.19012 193.237471 
L 95.109306 192.682563 
L 93.118255 192.349143 
L 89.412237 191.877732 
L 87.286602 191.337401 
L 84.931005 190.993761 
L 82.786306 190.910838 
L 80.542553 190.954432 
L 77.788352 189.966766 
L 76.823107 190.010067 
L 75.929233 190.121733 
L 74.487434 189.782679 
L 72.701745 189.430053 
L 71.68924 189.096419 
L 70.970505 188.88424 
L 69.922162 188.599073 
L 69.326067 189.166035 
L 69.281031 189.056955 
L 69.218188 188.161689 
L 69.326067 184.118596 
L 70.062358 175.955957 
L 70.660911 171.87192 
L 71.195155 169.63857 
L 71.822243 167.449088 
L 72.701745 164.230491 
L 74.688563 158.407046 
L 75.929233 155.770234 
L 76.823107 154.319302 
L 77.788352 153.142175 
L 79.379745 151.464791 
L 80.846552 149.025443 
L 83.129314 145.493534 
L 84.192884 143.387076 
L 86.477768 138.028064 
L 88.544253 133.719414 
L 90.303768 130.546707 
L 91.684936 128.413064 
L 93.118255 126.552197 
L 94.603058 125.018289 
L 95.621165 124.202636 
L 96.6616 123.455962 
L 98.263628 121.040754 
L 99.914681 119.005793 
L 101.042315 117.894673 
L 102.19132 117.001868 
L 103.361591 116.344166 
L 104.553063 115.936328 
L 105.156743 115.830111 
L 108.254797 114.355908 
L 109.531464 114.07037 
L 110.82982 113.989915 
L 112.150148 114.117326 
L 113.492796 114.453437 
L 114.172617 114.699482 
L 114.858177 114.452404 
L 118.374379 111.949416 
L 122.04493 109.031757 
L 123.55881 107.722151 
L 125.099944 105.89483 
L 127.464552 103.072053 
L 129.895204 100.485803 
L 132.394827 98.185269 
L 134.966337 96.028255 
L 147.005589 82.561173 
L 150.003158 79.549671 
L 153.086234 76.73592 
L 156.255515 74.206475 
L 158.416355 72.721647 
L 160.615479 71.428293 
L 162.852664 70.35177 
L 165.127559 69.516488 
L 167.439685 68.945552 
L 169.788435 68.660407 
L 172.173071 68.680508 
L 174.592723 69.023004 
L 177.046393 69.702447 
L 179.532952 70.730536 
L 182.051148 72.115896 
L 184.599604 73.863893 
L 187.176826 75.97649 
L 189.781206 78.452155 
L 192.411026 81.155224 
L 195.064466 84.308333 
L 197.739613 87.898204 
L 201.788626 93.866959 
L 205.874855 100.40196 
L 209.990861 107.513209 
L 214.128928 115.106862 
L 219.666738 125.800516 
L 221.053101 128.547779 
L 221.506218 131.315962 
L 222.365533 146.707844 
L 222.955888 150.732221 
L 223.728916 143.11188 
L 224.385293 138.606281 
L 224.904571 136.35052 
L 225.265179 135.431697 
L 225.638217 135.001346 
L 225.829619 134.972656 
L 226.024387 135.069171 
L 226.222602 134.681238 
L 227.051412 131.344037 
L 227.712655 129.449675 
L 228.40967 128.124929 
L 228.894924 127.576355 
L 229.397085 127.305971 
L 229.916509 127.32092 
L 230.453527 127.626524 
L 231.00846 128.226168 
L 231.581616 129.121187 
L 232.476187 131.015177 
L 233.413478 133.559325 
L 233.735584 134.548107 
L 234.731495 136.066838 
L 235.772685 137.949037 
L 236.860358 140.373033 
L 238.385118 144.414245 
L 239.998018 149.31258 
L 242.590055 158.036384 
L 243.966931 162.895704 
L 245.889797 164.879579 
L 246.889415 166.338755 
L 247.398931 167.190857 
L 248.966811 167.392495 
L 250.045224 167.829917 
L 251.150481 168.535566 
L 252.282817 169.49635 
L 254.032509 171.381506 
L 255.844058 173.744898 
L 258.356185 177.520798 
L 261.652043 182.995136 
L 262.331941 184.162064 
L 263.018728 185.063327 
L 264.412931 184.796863 
L 269.507917 183.555063 
L 273.35032 182.846144 
L 276.544943 182.480646 
L 279.84627 182.364433 
L 282.392117 182.477508 
L 284.997793 182.787543 
L 287.663298 183.313459 
L 290.388618 184.069688 
L 293.173654 185.065478 
L 296.018134 186.304361 
L 298.921509 187.783827 
L 301.882832 189.495218 
L 302.88258 190.11485 
L 304.900623 190.107689 
L 309.008347 190.035939 
L 313.205101 190.163811 
L 317.48026 190.535084 
L 321.819461 191.191431 
L 325.104885 191.893265 
L 328.406484 192.789435 
L 331.713277 193.890098 
L 335.012796 195.202007 
L 338.291107 196.728071 
L 341.532887 198.466998 
L 344.721526 200.413048 
L 347.839284 202.555915 
L 350.867483 204.880727 
L 353.786728 207.368193 
L 356.577178 209.994875 
L 359.218825 212.733593 
L 361.69181 215.553946 
L 363.976743 218.422947 
L 366.055035 221.305734 
L 367.909222 224.166364 
L 369.523287 226.968634 
L 370.882954 229.676937 
L 371.975961 232.257103 
L 372.792293 234.677207 
L 373.324382 236.908323 
L 373.567255 238.925194 
L 373.581629 239.453348 
L 373.581629 239.453348 
" style="fill:none;stroke:#172c4b;stroke-linecap:square;stroke-opacity:0.2;"/>
   </g>
   <g id="line2d_26">
    <path clip-path="url(#p5c9ad68631)" d="M 373.581623 239.255714 
L 373.49285 240.015654 
L 373.218978 240.434967 
L 372.469526 241.057395 
L 371.321861 241.676605 
L 370.341934 242.091281 
L 369.195892 242.098093 
L 367.178301 241.906951 
L 363.07774 241.231624 
L 353.74365 239.558418 
L 348.971242 238.923928 
L 343.926468 238.508646 
L 340.01132 238.388523 
L 336.018905 238.325435 
L 325.218564 235.787395 
L 317.197302 233.13872 
L 310.697986 231.0199 
L 304.440281 229.067433 
L 298.469837 227.435174 
L 292.812345 226.118288 
L 287.476676 225.084415 
L 281.492168 224.143286 
L 273.31828 223.115858 
L 262.283179 221.725363 
L 256.779524 220.804467 
L 251.227046 219.652261 
L 238.032623 216.742589 
L 225.769417 214.798893 
L 223.091758 214.32757 
L 222.40151 214.419543 
L 221.874017 214.710715 
L 221.451801 215.096774 
L 221.036433 215.170982 
L 192.49023 216.711092 
L 181.709261 217.346557 
L 180.399099 216.710876 
L 177.805853 213.971067 
L 175.249737 211.78489 
L 172.731818 210.143367 
L 171.487467 209.522106 
L 170.252982 209.03046 
L 169.028449 208.315676 
L 166.60951 206.71879 
L 164.231105 205.517161 
L 161.893526 204.689341 
L 159.596919 204.210258 
L 157.341289 204.051676 
L 151.880426 202.322448 
L 149.766558 201.924715 
L 146.6699 201.61549 
L 143.660579 201.571488 
L 139.780446 201.776152 
L 128.997666 202.558916 
L 125.672667 202.465499 
L 124.058194 201.374607 
L 121.695257 199.819488 
L 119.40169 198.588171 
L 117.176365 197.654862 
L 115.018328 196.988285 
L 112.244229 196.39188 
L 109.586663 196.100275 
L 107.044121 196.065424 
L 106.426281 196.085524 
L 105.815508 195.954818 
L 102.866681 194.851841 
L 100.631758 194.271698 
L 99.026407 194.044758 
L 97.480436 194.007272 
L 95.992454 194.159429 
L 95.509083 194.251032 
L 93.624786 193.555613 
L 92.695269 193.093562 
L 91.791485 192.817884 
L 90.912962 192.716042 
L 89.641451 192.855459 
L 88.423898 193.291323 
L 86.881225 194.181796 
L 85.782285 193.679126 
L 81.250511 191.512033 
L 79.430221 190.993248 
L 78.863643 190.789032 
L 78.050531 190.340076 
L 77.280661 190.113108 
L 76.790935 189.976718 
L 75.220049 189.455097 
L 74.042735 189.271717 
L 72.853878 189.145573 
L 71.983287 188.807361 
L 71.356492 188.77417 
L 70.717006 188.876567 
L 70.353253 188.519133 
L 70.112803 188.518891 
L 69.83921 188.75381 
L 69.378363 189.344873 
L 69.349104 189.315407 
L 69.261687 189.039513 
L 69.218182 187.577625 
L 69.349104 182.120963 
L 69.525536 177.996208 
L 70.112803 166.948025 
L 70.815276 157.966456 
L 71.47489 152.328893 
L 71.983287 149.483124 
L 72.548912 147.558906 
L 73.012028 146.790294 
L 73.339855 146.61629 
L 73.683317 146.71809 
L 74.042735 147.096024 
L 74.612504 148.172633 
L 75.431155 149.97371 
L 76.319658 147.376071 
L 77.280661 145.258773 
L 78.050531 144.054609 
L 78.863643 143.227487 
L 79.430221 142.903988 
L 80.016721 142.773617 
L 80.623402 142.696 
L 85.426647 133.380689 
L 87.641262 129.305373 
L 90.483019 122.368236 
L 92.695269 117.552679 
L 95.031922 113.106028 
L 96.482098 110.708675 
L 97.989245 108.570328 
L 99.554863 106.732262 
L 102.297709 103.812871 
L 104.025322 101.504142 
L 105.211775 100.197808 
L 106.426281 99.100266 
L 107.669056 98.229941 
L 108.940303 97.604177 
L 110.240213 97.238987 
L 110.900975 96.628708 
L 113.616614 92.583612 
L 116.449586 88.794923 
L 118.652383 86.188675 
L 120.923087 83.834243 
L 123.262763 81.773293 
L 125.672667 80.042828 
L 127.318997 79.088427 
L 128.997666 78.302425 
L 130.709197 77.690879 
L 132.454151 77.258263 
L 136.966721 74.418661 
L 143.660579 65.084768 
L 147.69232 59.880375 
L 150.818508 56.208185 
L 154.034383 52.849651 
L 156.228808 50.838119 
L 158.463987 49.046052 
L 160.740098 47.505105 
L 163.0572 46.246015 
L 165.415219 45.298123 
L 167.813937 44.688927 
L 170.252982 44.443636 
L 172.731818 44.584753 
L 175.249737 45.13169 
L 177.805853 46.100418 
L 180.399099 47.503165 
L 183.02822 49.348154 
L 185.691778 51.639408 
L 188.388149 54.3766 
L 191.115527 57.554969 
L 193.871928 61.1653 
L 196.655201 65.193964 
L 199.463033 69.623019 
L 202.292962 74.430384 
L 206.57357 82.29288 
L 210.88875 90.844485 
L 215.228736 99.966759 
L 221.036433 112.789704 
L 221.451801 116.0787 
L 221.874017 132.191585 
L 222.019498 133.884703 
L 222.093606 133.873623 
L 222.732355 113.731656 
L 223.186666 104.857216 
L 223.588649 100.364682 
L 223.915371 98.647799 
L 224.146061 98.311345 
L 224.265424 98.386056 
L 224.512432 99.01724 
L 224.904332 101.141747 
L 225.468618 106.050707 
L 229.55284 148.050604 
L 230.504119 156.918076 
L 231.267449 162.249766 
L 231.801471 161.783251 
L 232.3565 161.67893 
L 232.933323 161.941637 
L 233.532732 162.569948 
L 234.15552 163.556291 
L 235.474345 166.005726 
L 236.171891 167.117193 
L 237.267883 169.371444 
L 238.032623 171.233367 
L 238.406191 171.028404 
L 239.562949 168.011385 
L 240.782555 165.473141 
L 241.63166 164.076041 
L 242.510282 162.931962 
L 243.418934 162.052639 
L 244.358066 161.447184 
L 245.328064 161.122004 
L 246.329253 161.080745 
L 247.361908 161.324276 
L 248.42626 161.850701 
L 249.522504 162.655404 
L 250.650815 163.731127 
L 252.403765 165.83079 
L 253.004296 166.654061 
L 253.612972 166.784627 
L 256.129681 164.623325 
L 258.104288 163.152596 
L 260.154897 161.88688 
L 262.283179 160.895373 
L 263.74622 160.419904 
L 265.245476 160.114802 
L 266.781807 159.997391 
L 268.356167 160.083306 
L 269.969601 160.386175 
L 271.62324 160.917336 
L 273.31828 161.685571 
L 275.05597 162.696897 
L 276.837587 163.954381 
L 278.664415 165.458017 
L 281.492168 168.16722 
L 284.428445 171.398329 
L 287.476676 175.111501 
L 291.719436 180.715745 
L 295.036885 185.318107 
L 296.168451 186.215344 
L 299.639447 185.837749 
L 303.222119 185.633934 
L 306.910973 185.63141 
L 310.697986 185.855844 
L 314.572404 186.330168 
L 319.850291 187.262758 
L 323.870583 188.282246 
L 327.921425 189.604618 
L 331.97951 191.234162 
L 336.018905 193.168652 
L 340.01132 195.399064 
L 343.926468 197.909489 
L 347.73249 200.677247 
L 351.396451 203.67321 
L 354.884892 206.862323 
L 358.164414 210.204313 
L 361.202303 213.654568 
L 363.967153 217.165161 
L 366.429489 220.685986 
L 368.562367 224.165973 
L 370.341934 227.554348 
L 371.747929 230.801888 
L 372.764119 233.862149 
L 373.37865 236.692612 
L 373.561431 238.43314 
L 373.581623 239.255714 
L 373.581623 239.255714 
" style="fill:none;stroke:#172c4b;stroke-linecap:square;stroke-opacity:0.1;"/>
   </g>
   <g id="line2d_27">
    <path clip-path="url(#p5c9ad68631)" d="M 373.581818 239.646339 
L 373.434353 239.644146 
L 370.880846 239.287083 
L 356.962005 237.067622 
L 310.733749 229.432941 
L 222.117579 214.540155 
L 124.868158 197.971612 
L 75.679789 189.401855 
L 69.218377 188.159816 
L 69.549354 188.183245 
L 73.430867 188.7525 
L 92.190457 191.777178 
L 145.308874 200.587143 
L 240.254769 216.583432 
L 330.26996 231.960843 
L 369.697484 238.874884 
L 373.581818 239.646339 
L 373.581818 239.646339 
" style="fill:none;stroke:#3b65ac;stroke-dasharray:5.55,2.4;stroke-dashoffset:0;stroke-width:1.5;"/>
   </g>
   <g id="line2d_28">
    <path clip-path="url(#p5c9ad68631)" d="M 373.581818 239.646339 
L 69.218377 188.161435 
L 373.581818 239.646339 
" style="fill:none;stroke:#cba74e;stroke-dasharray:9.6,2.4,1.5,2.4;stroke-dashoffset:0;stroke-width:1.5;"/>
   </g>
   <g id="patch_3">
    <path d="M 54 252 
L 54 34.56 
" style="fill:none;stroke:#000000;stroke-linecap:square;stroke-linejoin:miter;stroke-width:0.8;"/>
   </g>
   <g id="patch_4">
    <path d="M 388.8 252 
L 388.8 34.56 
" style="fill:none;stroke:#000000;stroke-linecap:square;stroke-linejoin:miter;stroke-width:0.8;"/>
   </g>
   <g id="patch_5">
    <path d="M 54 252 
L 388.8 252 
" style="fill:none;stroke:#000000;stroke-linecap:square;stroke-linejoin:miter;stroke-width:0.8;"/>
   </g>
   <g id="patch_6">
    <path d="M 54 34.56 
L 388.8 34.56 
" style="fill:none;stroke:#000000;stroke-linecap:square;stroke-linejoin:miter;stroke-width:0.8;"/>
   </g>
   <g id="text_20">
    <!-- Work loop: Higher Harmonics (upper bound) -->
    <g transform="translate(88.769063 28.56)scale(0.12 -0.12)">
     <defs>
      <path d="M 3.328125 72.90625 
L 13.28125 72.90625 
L 28.609375 11.28125 
L 43.890625 72.90625 
L 54.984375 72.90625 
L 70.3125 11.28125 
L 85.59375 72.90625 
L 95.609375 72.90625 
L 77.296875 0 
L 64.890625 0 
L 49.515625 63.28125 
L 33.984375 0 
L 21.578125 0 
z
" id="DejaVuSans-87"/>
      <path d="M 41.109375 46.296875 
Q 39.59375 47.171875 37.8125 47.578125 
Q 36.03125 48 33.890625 48 
Q 26.265625 48 22.1875 43.046875 
Q 18.109375 38.09375 18.109375 28.8125 
L 18.109375 0 
L 9.078125 0 
L 9.078125 54.6875 
L 18.109375 54.6875 
L 18.109375 46.1875 
Q 20.953125 51.171875 25.484375 53.578125 
Q 30.03125 56 36.53125 56 
Q 37.453125 56 38.578125 55.875 
Q 39.703125 55.765625 41.0625 55.515625 
z
" id="DejaVuSans-114"/>
      <path d="M 9.078125 75.984375 
L 18.109375 75.984375 
L 18.109375 31.109375 
L 44.921875 54.6875 
L 56.390625 54.6875 
L 27.390625 29.109375 
L 57.625 0 
L 45.90625 0 
L 18.109375 26.703125 
L 18.109375 0 
L 9.078125 0 
z
" id="DejaVuSans-107"/>
      <path d="M 18.109375 8.203125 
L 18.109375 -20.796875 
L 9.078125 -20.796875 
L 9.078125 54.6875 
L 18.109375 54.6875 
L 18.109375 46.390625 
Q 20.953125 51.265625 25.265625 53.625 
Q 29.59375 56 35.59375 56 
Q 45.5625 56 51.78125 48.09375 
Q 58.015625 40.1875 58.015625 27.296875 
Q 58.015625 14.40625 51.78125 6.484375 
Q 45.5625 -1.421875 35.59375 -1.421875 
Q 29.59375 -1.421875 25.265625 0.953125 
Q 20.953125 3.328125 18.109375 8.203125 
z
M 48.6875 27.296875 
Q 48.6875 37.203125 44.609375 42.84375 
Q 40.53125 48.484375 33.40625 48.484375 
Q 26.265625 48.484375 22.1875 42.84375 
Q 18.109375 37.203125 18.109375 27.296875 
Q 18.109375 17.390625 22.1875 11.75 
Q 26.265625 6.109375 33.40625 6.109375 
Q 40.53125 6.109375 44.609375 11.75 
Q 48.6875 17.390625 48.6875 27.296875 
z
" id="DejaVuSans-112"/>
      <path d="M 11.71875 12.40625 
L 22.015625 12.40625 
L 22.015625 0 
L 11.71875 0 
z
M 11.71875 51.703125 
L 22.015625 51.703125 
L 22.015625 39.3125 
L 11.71875 39.3125 
z
" id="DejaVuSans-58"/>
      <path d="M 9.8125 72.90625 
L 19.671875 72.90625 
L 19.671875 43.015625 
L 55.515625 43.015625 
L 55.515625 72.90625 
L 65.375 72.90625 
L 65.375 0 
L 55.515625 0 
L 55.515625 34.71875 
L 19.671875 34.71875 
L 19.671875 0 
L 9.8125 0 
z
" id="DejaVuSans-72"/>
      <path d="M 45.40625 27.984375 
Q 45.40625 37.75 41.375 43.109375 
Q 37.359375 48.484375 30.078125 48.484375 
Q 22.859375 48.484375 18.828125 43.109375 
Q 14.796875 37.75 14.796875 27.984375 
Q 14.796875 18.265625 18.828125 12.890625 
Q 22.859375 7.515625 30.078125 7.515625 
Q 37.359375 7.515625 41.375 12.890625 
Q 45.40625 18.265625 45.40625 27.984375 
z
M 54.390625 6.78125 
Q 54.390625 -7.171875 48.1875 -13.984375 
Q 42 -20.796875 29.203125 -20.796875 
Q 24.46875 -20.796875 20.265625 -20.09375 
Q 16.0625 -19.390625 12.109375 -17.921875 
L 12.109375 -9.1875 
Q 16.0625 -11.328125 19.921875 -12.34375 
Q 23.78125 -13.375 27.78125 -13.375 
Q 36.625 -13.375 41.015625 -8.765625 
Q 45.40625 -4.15625 45.40625 5.171875 
L 45.40625 9.625 
Q 42.625 4.78125 38.28125 2.390625 
Q 33.9375 0 27.875 0 
Q 17.828125 0 11.671875 7.65625 
Q 5.515625 15.328125 5.515625 27.984375 
Q 5.515625 40.671875 11.671875 48.328125 
Q 17.828125 56 27.875 56 
Q 33.9375 56 38.28125 53.609375 
Q 42.625 51.21875 45.40625 46.390625 
L 45.40625 54.6875 
L 54.390625 54.6875 
z
" id="DejaVuSans-103"/>
      <path d="M 54.890625 33.015625 
L 54.890625 0 
L 45.90625 0 
L 45.90625 32.71875 
Q 45.90625 40.484375 42.875 44.328125 
Q 39.84375 48.1875 33.796875 48.1875 
Q 26.515625 48.1875 22.3125 43.546875 
Q 18.109375 38.921875 18.109375 30.90625 
L 18.109375 0 
L 9.078125 0 
L 9.078125 75.984375 
L 18.109375 75.984375 
L 18.109375 46.1875 
Q 21.34375 51.125 25.703125 53.5625 
Q 30.078125 56 35.796875 56 
Q 45.21875 56 50.046875 50.171875 
Q 54.890625 44.34375 54.890625 33.015625 
z
" id="DejaVuSans-104"/>
      <path d="M 52 44.1875 
Q 55.375 50.25 60.0625 53.125 
Q 64.75 56 71.09375 56 
Q 79.640625 56 84.28125 50.015625 
Q 88.921875 44.046875 88.921875 33.015625 
L 88.921875 0 
L 79.890625 0 
L 79.890625 32.71875 
Q 79.890625 40.578125 77.09375 44.375 
Q 74.3125 48.1875 68.609375 48.1875 
Q 61.625 48.1875 57.5625 43.546875 
Q 53.515625 38.921875 53.515625 30.90625 
L 53.515625 0 
L 44.484375 0 
L 44.484375 32.71875 
Q 44.484375 40.625 41.703125 44.40625 
Q 38.921875 48.1875 33.109375 48.1875 
Q 26.21875 48.1875 22.15625 43.53125 
Q 18.109375 38.875 18.109375 30.90625 
L 18.109375 0 
L 9.078125 0 
L 9.078125 54.6875 
L 18.109375 54.6875 
L 18.109375 46.1875 
Q 21.1875 51.21875 25.484375 53.609375 
Q 29.78125 56 35.6875 56 
Q 41.65625 56 45.828125 52.96875 
Q 50 49.953125 52 44.1875 
z
" id="DejaVuSans-109"/>
      <path d="M 31 75.875 
Q 24.46875 64.65625 21.28125 53.65625 
Q 18.109375 42.671875 18.109375 31.390625 
Q 18.109375 20.125 21.3125 9.0625 
Q 24.515625 -2 31 -13.1875 
L 23.1875 -13.1875 
Q 15.875 -1.703125 12.234375 9.375 
Q 8.59375 20.453125 8.59375 31.390625 
Q 8.59375 42.28125 12.203125 53.3125 
Q 15.828125 64.359375 23.1875 75.875 
z
" id="DejaVuSans-40"/>
      <path d="M 8.5 21.578125 
L 8.5 54.6875 
L 17.484375 54.6875 
L 17.484375 21.921875 
Q 17.484375 14.15625 20.5 10.265625 
Q 23.53125 6.390625 29.59375 6.390625 
Q 36.859375 6.390625 41.078125 11.03125 
Q 45.3125 15.671875 45.3125 23.6875 
L 45.3125 54.6875 
L 54.296875 54.6875 
L 54.296875 0 
L 45.3125 0 
L 45.3125 8.40625 
Q 42.046875 3.421875 37.71875 1 
Q 33.40625 -1.421875 27.6875 -1.421875 
Q 18.265625 -1.421875 13.375 4.4375 
Q 8.5 10.296875 8.5 21.578125 
z
M 31.109375 56 
z
" id="DejaVuSans-117"/>
      <path d="M 48.6875 27.296875 
Q 48.6875 37.203125 44.609375 42.84375 
Q 40.53125 48.484375 33.40625 48.484375 
Q 26.265625 48.484375 22.1875 42.84375 
Q 18.109375 37.203125 18.109375 27.296875 
Q 18.109375 17.390625 22.1875 11.75 
Q 26.265625 6.109375 33.40625 6.109375 
Q 40.53125 6.109375 44.609375 11.75 
Q 48.6875 17.390625 48.6875 27.296875 
z
M 18.109375 46.390625 
Q 20.953125 51.265625 25.265625 53.625 
Q 29.59375 56 35.59375 56 
Q 45.5625 56 51.78125 48.09375 
Q 58.015625 40.1875 58.015625 27.296875 
Q 58.015625 14.40625 51.78125 6.484375 
Q 45.5625 -1.421875 35.59375 -1.421875 
Q 29.59375 -1.421875 25.265625 0.953125 
Q 20.953125 3.328125 18.109375 8.203125 
L 18.109375 0 
L 9.078125 0 
L 9.078125 75.984375 
L 18.109375 75.984375 
z
" id="DejaVuSans-98"/>
      <path d="M 8.015625 75.875 
L 15.828125 75.875 
Q 23.140625 64.359375 26.78125 53.3125 
Q 30.421875 42.28125 30.421875 31.390625 
Q 30.421875 20.453125 26.78125 9.375 
Q 23.140625 -1.703125 15.828125 -13.1875 
L 8.015625 -13.1875 
Q 14.5 -2 17.703125 9.0625 
Q 20.90625 20.125 20.90625 31.390625 
Q 20.90625 42.671875 17.703125 53.65625 
Q 14.5 64.65625 8.015625 75.875 
z
" id="DejaVuSans-41"/>
     </defs>
     <use xlink:href="#DejaVuSans-87"/>
     <use x="93.001953" xlink:href="#DejaVuSans-111"/>
     <use x="154.183594" xlink:href="#DejaVuSans-114"/>
     <use x="195.296875" xlink:href="#DejaVuSans-107"/>
     <use x="253.207031" xlink:href="#DejaVuSans-32"/>
     <use x="284.994141" xlink:href="#DejaVuSans-108"/>
     <use x="312.777344" xlink:href="#DejaVuSans-111"/>
     <use x="373.958984" xlink:href="#DejaVuSans-111"/>
     <use x="435.140625" xlink:href="#DejaVuSans-112"/>
     <use x="498.617188" xlink:href="#DejaVuSans-58"/>
     <use x="532.308594" xlink:href="#DejaVuSans-32"/>
     <use x="564.095703" xlink:href="#DejaVuSans-72"/>
     <use x="639.291016" xlink:href="#DejaVuSans-105"/>
     <use x="667.074219" xlink:href="#DejaVuSans-103"/>
     <use x="730.550781" xlink:href="#DejaVuSans-104"/>
     <use x="793.929688" xlink:href="#DejaVuSans-101"/>
     <use x="855.453125" xlink:href="#DejaVuSans-114"/>
     <use x="896.566406" xlink:href="#DejaVuSans-32"/>
     <use x="928.353516" xlink:href="#DejaVuSans-72"/>
     <use x="1003.548828" xlink:href="#DejaVuSans-97"/>
     <use x="1064.828125" xlink:href="#DejaVuSans-114"/>
     <use x="1104.191406" xlink:href="#DejaVuSans-109"/>
     <use x="1201.603516" xlink:href="#DejaVuSans-111"/>
     <use x="1262.785156" xlink:href="#DejaVuSans-110"/>
     <use x="1326.164062" xlink:href="#DejaVuSans-105"/>
     <use x="1353.947266" xlink:href="#DejaVuSans-99"/>
     <use x="1408.927734" xlink:href="#DejaVuSans-115"/>
     <use x="1461.027344" xlink:href="#DejaVuSans-32"/>
     <use x="1492.814453" xlink:href="#DejaVuSans-40"/>
     <use x="1531.828125" xlink:href="#DejaVuSans-117"/>
     <use x="1595.207031" xlink:href="#DejaVuSans-112"/>
     <use x="1658.683594" xlink:href="#DejaVuSans-112"/>
     <use x="1722.160156" xlink:href="#DejaVuSans-101"/>
     <use x="1783.683594" xlink:href="#DejaVuSans-114"/>
     <use x="1824.796875" xlink:href="#DejaVuSans-32"/>
     <use x="1856.583984" xlink:href="#DejaVuSans-98"/>
     <use x="1920.060547" xlink:href="#DejaVuSans-111"/>
     <use x="1981.242188" xlink:href="#DejaVuSans-117"/>
     <use x="2044.621094" xlink:href="#DejaVuSans-110"/>
     <use x="2108" xlink:href="#DejaVuSans-100"/>
     <use x="2171.476562" xlink:href="#DejaVuSans-41"/>
    </g>
   </g>
  </g>
 </g>
 <defs>
  <clipPath id="p5c9ad68631">
   <rect height="217.44" width="334.8" x="54" y="34.56"/>
  </clipPath>
 </defs>
</svg>
