<?xml version="1.0" encoding="utf-8" standalone="no"?>
<!DOCTYPE svg PUBLIC "-//W3C//DTD SVG 1.1//EN"
  "http://www.w3.org/Graphics/SVG/1.1/DTD/svg11.dtd">
<!-- Created with matplotlib (https://matplotlib.org/) -->
<svg height="288pt" version="1.1" viewBox="0 0 432 288" width="432pt" xmlns="http://www.w3.org/2000/svg" xmlns:xlink="http://www.w3.org/1999/xlink">
 <metadata>
  <rdf:RDF xmlns:cc="http://creativecommons.org/ns#" xmlns:dc="http://purl.org/dc/elements/1.1/" xmlns:rdf="http://www.w3.org/1999/02/22-rdf-syntax-ns#">
   <cc:Work>
    <dc:type rdf:resource="http://purl.org/dc/dcmitype/StillImage"/>
    <dc:date>2024-08-27T13:05:21.720212</dc:date>
    <dc:format>image/svg+xml</dc:format>
    <dc:creator>
     <cc:Agent>
      <dc:title>Matplotlib v3.3.4, https://matplotlib.org/</dc:title>
     </cc:Agent>
    </dc:creator>
   </cc:Work>
  </rdf:RDF>
 </metadata>
 <defs>
  <style type="text/css">*{stroke-linecap:butt;stroke-linejoin:round;}</style>
 </defs>
 <g id="figure_1">
  <g id="patch_1">
   <path d="M 0 288 
L 432 288 
L 432 0 
L 0 0 
z
" style="fill:none;"/>
  </g>
  <g id="axes_1">
   <g id="patch_2">
    <path d="M 54 252 
L 388.8 252 
L 388.8 34.56 
L 54 34.56 
z
" style="fill:#ffffff;"/>
   </g>
   <g id="matplotlib.axis_1">
    <g id="xtick_1">
     <g id="line2d_1">
      <defs>
       <path d="M 0 0 
L 0 3.5 
" id="mfa4aa3f02f" style="stroke:#000000;stroke-width:0.8;"/>
      </defs>
      <g>
       <use style="stroke:#000000;stroke-width:0.8;" x="69.217806" xlink:href="#mfa4aa3f02f" y="252"/>
      </g>
     </g>
     <g id="text_1">
      <!-- −1.00 -->
      <g transform="translate(50.830618 268.118125)scale(0.12 -0.12)">
       <defs>
        <path d="M 10.59375 35.5 
L 73.1875 35.5 
L 73.1875 27.203125 
L 10.59375 27.203125 
z
" id="DejaVuSans-8722"/>
        <path d="M 12.40625 8.296875 
L 28.515625 8.296875 
L 28.515625 63.921875 
L 10.984375 60.40625 
L 10.984375 69.390625 
L 28.421875 72.90625 
L 38.28125 72.90625 
L 38.28125 8.296875 
L 54.390625 8.296875 
L 54.390625 0 
L 12.40625 0 
z
" id="DejaVuSans-49"/>
        <path d="M 10.6875 12.40625 
L 21 12.40625 
L 21 0 
L 10.6875 0 
z
" id="DejaVuSans-46"/>
        <path d="M 31.78125 66.40625 
Q 24.171875 66.40625 20.328125 58.90625 
Q 16.5 51.421875 16.5 36.375 
Q 16.5 21.390625 20.328125 13.890625 
Q 24.171875 6.390625 31.78125 6.390625 
Q 39.453125 6.390625 43.28125 13.890625 
Q 47.125 21.390625 47.125 36.375 
Q 47.125 51.421875 43.28125 58.90625 
Q 39.453125 66.40625 31.78125 66.40625 
z
M 31.78125 74.21875 
Q 44.046875 74.21875 50.515625 64.515625 
Q 56.984375 54.828125 56.984375 36.375 
Q 56.984375 17.96875 50.515625 8.265625 
Q 44.046875 -1.421875 31.78125 -1.421875 
Q 19.53125 -1.421875 13.0625 8.265625 
Q 6.59375 17.96875 6.59375 36.375 
Q 6.59375 54.828125 13.0625 64.515625 
Q 19.53125 74.21875 31.78125 74.21875 
z
" id="DejaVuSans-48"/>
       </defs>
       <use xlink:href="#DejaVuSans-8722"/>
       <use x="83.789062" xlink:href="#DejaVuSans-49"/>
       <use x="147.412109" xlink:href="#DejaVuSans-46"/>
       <use x="179.199219" xlink:href="#DejaVuSans-48"/>
       <use x="242.822266" xlink:href="#DejaVuSans-48"/>
      </g>
     </g>
    </g>
    <g id="xtick_2">
     <g id="line2d_2">
      <g>
       <use style="stroke:#000000;stroke-width:0.8;" x="107.26295" xlink:href="#mfa4aa3f02f" y="252"/>
      </g>
     </g>
     <g id="text_2">
      <!-- −0.75 -->
      <g transform="translate(88.875762 268.118125)scale(0.12 -0.12)">
       <defs>
        <path d="M 8.203125 72.90625 
L 55.078125 72.90625 
L 55.078125 68.703125 
L 28.609375 0 
L 18.3125 0 
L 43.21875 64.59375 
L 8.203125 64.59375 
z
" id="DejaVuSans-55"/>
        <path d="M 10.796875 72.90625 
L 49.515625 72.90625 
L 49.515625 64.59375 
L 19.828125 64.59375 
L 19.828125 46.734375 
Q 21.96875 47.46875 24.109375 47.828125 
Q 26.265625 48.1875 28.421875 48.1875 
Q 40.625 48.1875 47.75 41.5 
Q 54.890625 34.8125 54.890625 23.390625 
Q 54.890625 11.625 47.5625 5.09375 
Q 40.234375 -1.421875 26.90625 -1.421875 
Q 22.3125 -1.421875 17.546875 -0.640625 
Q 12.796875 0.140625 7.71875 1.703125 
L 7.71875 11.625 
Q 12.109375 9.234375 16.796875 8.0625 
Q 21.484375 6.890625 26.703125 6.890625 
Q 35.15625 6.890625 40.078125 11.328125 
Q 45.015625 15.765625 45.015625 23.390625 
Q 45.015625 31 40.078125 35.4375 
Q 35.15625 39.890625 26.703125 39.890625 
Q 22.75 39.890625 18.8125 39.015625 
Q 14.890625 38.140625 10.796875 36.28125 
z
" id="DejaVuSans-53"/>
       </defs>
       <use xlink:href="#DejaVuSans-8722"/>
       <use x="83.789062" xlink:href="#DejaVuSans-48"/>
       <use x="147.412109" xlink:href="#DejaVuSans-46"/>
       <use x="179.199219" xlink:href="#DejaVuSans-55"/>
       <use x="242.822266" xlink:href="#DejaVuSans-53"/>
      </g>
     </g>
    </g>
    <g id="xtick_3">
     <g id="line2d_3">
      <g>
       <use style="stroke:#000000;stroke-width:0.8;" x="145.308094" xlink:href="#mfa4aa3f02f" y="252"/>
      </g>
     </g>
     <g id="text_3">
      <!-- −0.50 -->
      <g transform="translate(126.920907 268.118125)scale(0.12 -0.12)">
       <use xlink:href="#DejaVuSans-8722"/>
       <use x="83.789062" xlink:href="#DejaVuSans-48"/>
       <use x="147.412109" xlink:href="#DejaVuSans-46"/>
       <use x="179.199219" xlink:href="#DejaVuSans-53"/>
       <use x="242.822266" xlink:href="#DejaVuSans-48"/>
      </g>
     </g>
    </g>
    <g id="xtick_4">
     <g id="line2d_4">
      <g>
       <use style="stroke:#000000;stroke-width:0.8;" x="183.353238" xlink:href="#mfa4aa3f02f" y="252"/>
      </g>
     </g>
     <g id="text_4">
      <!-- −0.25 -->
      <g transform="translate(164.966051 268.118125)scale(0.12 -0.12)">
       <defs>
        <path d="M 19.1875 8.296875 
L 53.609375 8.296875 
L 53.609375 0 
L 7.328125 0 
L 7.328125 8.296875 
Q 12.9375 14.109375 22.625 23.890625 
Q 32.328125 33.6875 34.8125 36.53125 
Q 39.546875 41.84375 41.421875 45.53125 
Q 43.3125 49.21875 43.3125 52.78125 
Q 43.3125 58.59375 39.234375 62.25 
Q 35.15625 65.921875 28.609375 65.921875 
Q 23.96875 65.921875 18.8125 64.3125 
Q 13.671875 62.703125 7.8125 59.421875 
L 7.8125 69.390625 
Q 13.765625 71.78125 18.9375 73 
Q 24.125 74.21875 28.421875 74.21875 
Q 39.75 74.21875 46.484375 68.546875 
Q 53.21875 62.890625 53.21875 53.421875 
Q 53.21875 48.921875 51.53125 44.890625 
Q 49.859375 40.875 45.40625 35.40625 
Q 44.1875 33.984375 37.640625 27.21875 
Q 31.109375 20.453125 19.1875 8.296875 
z
" id="DejaVuSans-50"/>
       </defs>
       <use xlink:href="#DejaVuSans-8722"/>
       <use x="83.789062" xlink:href="#DejaVuSans-48"/>
       <use x="147.412109" xlink:href="#DejaVuSans-46"/>
       <use x="179.199219" xlink:href="#DejaVuSans-50"/>
       <use x="242.822266" xlink:href="#DejaVuSans-53"/>
      </g>
     </g>
    </g>
    <g id="xtick_5">
     <g id="line2d_5">
      <g>
       <use style="stroke:#000000;stroke-width:0.8;" x="221.398382" xlink:href="#mfa4aa3f02f" y="252"/>
      </g>
     </g>
     <g id="text_5">
      <!-- 0.00 -->
      <g transform="translate(208.039007 268.118125)scale(0.12 -0.12)">
       <use xlink:href="#DejaVuSans-48"/>
       <use x="63.623047" xlink:href="#DejaVuSans-46"/>
       <use x="95.410156" xlink:href="#DejaVuSans-48"/>
       <use x="159.033203" xlink:href="#DejaVuSans-48"/>
      </g>
     </g>
    </g>
    <g id="xtick_6">
     <g id="line2d_6">
      <g>
       <use style="stroke:#000000;stroke-width:0.8;" x="259.443527" xlink:href="#mfa4aa3f02f" y="252"/>
      </g>
     </g>
     <g id="text_6">
      <!-- 0.25 -->
      <g transform="translate(246.084152 268.118125)scale(0.12 -0.12)">
       <use xlink:href="#DejaVuSans-48"/>
       <use x="63.623047" xlink:href="#DejaVuSans-46"/>
       <use x="95.410156" xlink:href="#DejaVuSans-50"/>
       <use x="159.033203" xlink:href="#DejaVuSans-53"/>
      </g>
     </g>
    </g>
    <g id="xtick_7">
     <g id="line2d_7">
      <g>
       <use style="stroke:#000000;stroke-width:0.8;" x="297.488671" xlink:href="#mfa4aa3f02f" y="252"/>
      </g>
     </g>
     <g id="text_7">
      <!-- 0.50 -->
      <g transform="translate(284.129296 268.118125)scale(0.12 -0.12)">
       <use xlink:href="#DejaVuSans-48"/>
       <use x="63.623047" xlink:href="#DejaVuSans-46"/>
       <use x="95.410156" xlink:href="#DejaVuSans-53"/>
       <use x="159.033203" xlink:href="#DejaVuSans-48"/>
      </g>
     </g>
    </g>
    <g id="xtick_8">
     <g id="line2d_8">
      <g>
       <use style="stroke:#000000;stroke-width:0.8;" x="335.533815" xlink:href="#mfa4aa3f02f" y="252"/>
      </g>
     </g>
     <g id="text_8">
      <!-- 0.75 -->
      <g transform="translate(322.17444 268.118125)scale(0.12 -0.12)">
       <use xlink:href="#DejaVuSans-48"/>
       <use x="63.623047" xlink:href="#DejaVuSans-46"/>
       <use x="95.410156" xlink:href="#DejaVuSans-55"/>
       <use x="159.033203" xlink:href="#DejaVuSans-53"/>
      </g>
     </g>
    </g>
    <g id="xtick_9">
     <g id="line2d_9">
      <g>
       <use style="stroke:#000000;stroke-width:0.8;" x="373.578959" xlink:href="#mfa4aa3f02f" y="252"/>
      </g>
     </g>
     <g id="text_9">
      <!-- 1.00 -->
      <g transform="translate(360.219584 268.118125)scale(0.12 -0.12)">
       <use xlink:href="#DejaVuSans-49"/>
       <use x="63.623047" xlink:href="#DejaVuSans-46"/>
       <use x="95.410156" xlink:href="#DejaVuSans-48"/>
       <use x="159.033203" xlink:href="#DejaVuSans-48"/>
      </g>
     </g>
    </g>
    <g id="text_10">
     <!-- Inelastic load $G$ -->
     <g transform="translate(182.75 282.212188)scale(0.1 -0.1)">
      <defs>
       <path d="M 9.8125 72.90625 
L 19.671875 72.90625 
L 19.671875 0 
L 9.8125 0 
z
" id="DejaVuSans-73"/>
       <path d="M 54.890625 33.015625 
L 54.890625 0 
L 45.90625 0 
L 45.90625 32.71875 
Q 45.90625 40.484375 42.875 44.328125 
Q 39.84375 48.1875 33.796875 48.1875 
Q 26.515625 48.1875 22.3125 43.546875 
Q 18.109375 38.921875 18.109375 30.90625 
L 18.109375 0 
L 9.078125 0 
L 9.078125 54.6875 
L 18.109375 54.6875 
L 18.109375 46.1875 
Q 21.34375 51.125 25.703125 53.5625 
Q 30.078125 56 35.796875 56 
Q 45.21875 56 50.046875 50.171875 
Q 54.890625 44.34375 54.890625 33.015625 
z
" id="DejaVuSans-110"/>
       <path d="M 56.203125 29.59375 
L 56.203125 25.203125 
L 14.890625 25.203125 
Q 15.484375 15.921875 20.484375 11.0625 
Q 25.484375 6.203125 34.421875 6.203125 
Q 39.59375 6.203125 44.453125 7.46875 
Q 49.3125 8.734375 54.109375 11.28125 
L 54.109375 2.78125 
Q 49.265625 0.734375 44.1875 -0.34375 
Q 39.109375 -1.421875 33.890625 -1.421875 
Q 20.796875 -1.421875 13.15625 6.1875 
Q 5.515625 13.8125 5.515625 26.8125 
Q 5.515625 40.234375 12.765625 48.109375 
Q 20.015625 56 32.328125 56 
Q 43.359375 56 49.78125 48.890625 
Q 56.203125 41.796875 56.203125 29.59375 
z
M 47.21875 32.234375 
Q 47.125 39.59375 43.09375 43.984375 
Q 39.0625 48.390625 32.421875 48.390625 
Q 24.90625 48.390625 20.390625 44.140625 
Q 15.875 39.890625 15.1875 32.171875 
z
" id="DejaVuSans-101"/>
       <path d="M 9.421875 75.984375 
L 18.40625 75.984375 
L 18.40625 0 
L 9.421875 0 
z
" id="DejaVuSans-108"/>
       <path d="M 34.28125 27.484375 
Q 23.390625 27.484375 19.1875 25 
Q 14.984375 22.515625 14.984375 16.5 
Q 14.984375 11.71875 18.140625 8.90625 
Q 21.296875 6.109375 26.703125 6.109375 
Q 34.1875 6.109375 38.703125 11.40625 
Q 43.21875 16.703125 43.21875 25.484375 
L 43.21875 27.484375 
z
M 52.203125 31.203125 
L 52.203125 0 
L 43.21875 0 
L 43.21875 8.296875 
Q 40.140625 3.328125 35.546875 0.953125 
Q 30.953125 -1.421875 24.3125 -1.421875 
Q 15.921875 -1.421875 10.953125 3.296875 
Q 6 8.015625 6 15.921875 
Q 6 25.140625 12.171875 29.828125 
Q 18.359375 34.515625 30.609375 34.515625 
L 43.21875 34.515625 
L 43.21875 35.40625 
Q 43.21875 41.609375 39.140625 45 
Q 35.0625 48.390625 27.6875 48.390625 
Q 23 48.390625 18.546875 47.265625 
Q 14.109375 46.140625 10.015625 43.890625 
L 10.015625 52.203125 
Q 14.9375 54.109375 19.578125 55.046875 
Q 24.21875 56 28.609375 56 
Q 40.484375 56 46.34375 49.84375 
Q 52.203125 43.703125 52.203125 31.203125 
z
" id="DejaVuSans-97"/>
       <path d="M 44.28125 53.078125 
L 44.28125 44.578125 
Q 40.484375 46.53125 36.375 47.5 
Q 32.28125 48.484375 27.875 48.484375 
Q 21.1875 48.484375 17.84375 46.4375 
Q 14.5 44.390625 14.5 40.28125 
Q 14.5 37.15625 16.890625 35.375 
Q 19.28125 33.59375 26.515625 31.984375 
L 29.59375 31.296875 
Q 39.15625 29.25 43.1875 25.515625 
Q 47.21875 21.78125 47.21875 15.09375 
Q 47.21875 7.46875 41.1875 3.015625 
Q 35.15625 -1.421875 24.609375 -1.421875 
Q 20.21875 -1.421875 15.453125 -0.5625 
Q 10.6875 0.296875 5.421875 2 
L 5.421875 11.28125 
Q 10.40625 8.6875 15.234375 7.390625 
Q 20.0625 6.109375 24.8125 6.109375 
Q 31.15625 6.109375 34.5625 8.28125 
Q 37.984375 10.453125 37.984375 14.40625 
Q 37.984375 18.0625 35.515625 20.015625 
Q 33.0625 21.96875 24.703125 23.78125 
L 21.578125 24.515625 
Q 13.234375 26.265625 9.515625 29.90625 
Q 5.8125 33.546875 5.8125 39.890625 
Q 5.8125 47.609375 11.28125 51.796875 
Q 16.75 56 26.8125 56 
Q 31.78125 56 36.171875 55.265625 
Q 40.578125 54.546875 44.28125 53.078125 
z
" id="DejaVuSans-115"/>
       <path d="M 18.3125 70.21875 
L 18.3125 54.6875 
L 36.8125 54.6875 
L 36.8125 47.703125 
L 18.3125 47.703125 
L 18.3125 18.015625 
Q 18.3125 11.328125 20.140625 9.421875 
Q 21.96875 7.515625 27.59375 7.515625 
L 36.8125 7.515625 
L 36.8125 0 
L 27.59375 0 
Q 17.1875 0 13.234375 3.875 
Q 9.28125 7.765625 9.28125 18.015625 
L 9.28125 47.703125 
L 2.6875 47.703125 
L 2.6875 54.6875 
L 9.28125 54.6875 
L 9.28125 70.21875 
z
" id="DejaVuSans-116"/>
       <path d="M 9.421875 54.6875 
L 18.40625 54.6875 
L 18.40625 0 
L 9.421875 0 
z
M 9.421875 75.984375 
L 18.40625 75.984375 
L 18.40625 64.59375 
L 9.421875 64.59375 
z
" id="DejaVuSans-105"/>
       <path d="M 48.78125 52.59375 
L 48.78125 44.1875 
Q 44.96875 46.296875 41.140625 47.34375 
Q 37.3125 48.390625 33.40625 48.390625 
Q 24.65625 48.390625 19.8125 42.84375 
Q 14.984375 37.3125 14.984375 27.296875 
Q 14.984375 17.28125 19.8125 11.734375 
Q 24.65625 6.203125 33.40625 6.203125 
Q 37.3125 6.203125 41.140625 7.25 
Q 44.96875 8.296875 48.78125 10.40625 
L 48.78125 2.09375 
Q 45.015625 0.34375 40.984375 -0.53125 
Q 36.96875 -1.421875 32.421875 -1.421875 
Q 20.0625 -1.421875 12.78125 6.34375 
Q 5.515625 14.109375 5.515625 27.296875 
Q 5.515625 40.671875 12.859375 48.328125 
Q 20.21875 56 33.015625 56 
Q 37.15625 56 41.109375 55.140625 
Q 45.0625 54.296875 48.78125 52.59375 
z
" id="DejaVuSans-99"/>
       <path id="DejaVuSans-32"/>
       <path d="M 30.609375 48.390625 
Q 23.390625 48.390625 19.1875 42.75 
Q 14.984375 37.109375 14.984375 27.296875 
Q 14.984375 17.484375 19.15625 11.84375 
Q 23.34375 6.203125 30.609375 6.203125 
Q 37.796875 6.203125 41.984375 11.859375 
Q 46.1875 17.53125 46.1875 27.296875 
Q 46.1875 37.015625 41.984375 42.703125 
Q 37.796875 48.390625 30.609375 48.390625 
z
M 30.609375 56 
Q 42.328125 56 49.015625 48.375 
Q 55.71875 40.765625 55.71875 27.296875 
Q 55.71875 13.875 49.015625 6.21875 
Q 42.328125 -1.421875 30.609375 -1.421875 
Q 18.84375 -1.421875 12.171875 6.21875 
Q 5.515625 13.875 5.515625 27.296875 
Q 5.515625 40.765625 12.171875 48.375 
Q 18.84375 56 30.609375 56 
z
" id="DejaVuSans-111"/>
       <path d="M 45.40625 46.390625 
L 45.40625 75.984375 
L 54.390625 75.984375 
L 54.390625 0 
L 45.40625 0 
L 45.40625 8.203125 
Q 42.578125 3.328125 38.25 0.953125 
Q 33.9375 -1.421875 27.875 -1.421875 
Q 17.96875 -1.421875 11.734375 6.484375 
Q 5.515625 14.40625 5.515625 27.296875 
Q 5.515625 40.1875 11.734375 48.09375 
Q 17.96875 56 27.875 56 
Q 33.9375 56 38.25 53.625 
Q 42.578125 51.265625 45.40625 46.390625 
z
M 14.796875 27.296875 
Q 14.796875 17.390625 18.875 11.75 
Q 22.953125 6.109375 30.078125 6.109375 
Q 37.203125 6.109375 41.296875 11.75 
Q 45.40625 17.390625 45.40625 27.296875 
Q 45.40625 37.203125 41.296875 42.84375 
Q 37.203125 48.484375 30.078125 48.484375 
Q 22.953125 48.484375 18.875 42.84375 
Q 14.796875 37.203125 14.796875 27.296875 
z
" id="DejaVuSans-100"/>
       <path d="M 54.59375 10.890625 
L 58.40625 29.984375 
L 42.1875 29.984375 
L 43.703125 38.09375 
L 69.578125 38.09375 
L 63.28125 6 
Q 56.78125 2.4375 49.109375 0.5 
Q 41.453125 -1.421875 33.6875 -1.421875 
Q 19.96875 -1.421875 12.234375 6.1875 
Q 4.5 13.8125 4.5 27.390625 
Q 4.5 38.671875 9.203125 48.84375 
Q 13.921875 59.03125 22.21875 65.828125 
Q 27.4375 70.0625 33.640625 72.140625 
Q 39.84375 74.21875 47.40625 74.21875 
Q 54.25 74.21875 60.515625 72.484375 
Q 66.796875 70.75 72.515625 67.28125 
L 70.515625 56.78125 
Q 66.109375 61.375 60.203125 63.796875 
Q 54.296875 66.21875 47.609375 66.21875 
Q 39.84375 66.21875 33.9375 63.25 
Q 28.03125 60.296875 23.390625 54.109375 
Q 19.4375 48.828125 17.15625 41.671875 
Q 14.890625 34.515625 14.890625 27.09375 
Q 14.890625 16.890625 20.109375 11.734375 
Q 25.34375 6.59375 35.6875 6.59375 
Q 40.875 6.59375 45.703125 7.6875 
Q 50.53125 8.796875 54.59375 10.890625 
z
" id="DejaVuSans-Oblique-71"/>
      </defs>
      <use transform="translate(0 0.015625)" xlink:href="#DejaVuSans-73"/>
      <use transform="translate(29.492188 0.015625)" xlink:href="#DejaVuSans-110"/>
      <use transform="translate(92.871094 0.015625)" xlink:href="#DejaVuSans-101"/>
      <use transform="translate(154.394531 0.015625)" xlink:href="#DejaVuSans-108"/>
      <use transform="translate(182.177734 0.015625)" xlink:href="#DejaVuSans-97"/>
      <use transform="translate(243.457031 0.015625)" xlink:href="#DejaVuSans-115"/>
      <use transform="translate(295.556641 0.015625)" xlink:href="#DejaVuSans-116"/>
      <use transform="translate(334.765625 0.015625)" xlink:href="#DejaVuSans-105"/>
      <use transform="translate(362.548828 0.015625)" xlink:href="#DejaVuSans-99"/>
      <use transform="translate(417.529297 0.015625)" xlink:href="#DejaVuSans-32"/>
      <use transform="translate(449.316406 0.015625)" xlink:href="#DejaVuSans-108"/>
      <use transform="translate(477.099609 0.015625)" xlink:href="#DejaVuSans-111"/>
      <use transform="translate(538.28125 0.015625)" xlink:href="#DejaVuSans-97"/>
      <use transform="translate(599.560547 0.015625)" xlink:href="#DejaVuSans-100"/>
      <use transform="translate(663.037109 0.015625)" xlink:href="#DejaVuSans-32"/>
      <use transform="translate(694.824219 0.015625)" xlink:href="#DejaVuSans-Oblique-71"/>
     </g>
    </g>
   </g>
   <g id="matplotlib.axis_2">
    <g id="ytick_1">
     <g id="line2d_10">
      <defs>
       <path d="M 0 0 
L -3.5 0 
" id="mc1f14d25f3" style="stroke:#000000;stroke-width:0.8;"/>
      </defs>
      <g>
       <use style="stroke:#000000;stroke-width:0.8;" x="54" xlink:href="#mc1f14d25f3" y="227.109249"/>
      </g>
     </g>
     <g id="text_11">
      <!-- −6 -->
      <g transform="translate(29.309375 231.668311)scale(0.12 -0.12)">
       <defs>
        <path d="M 33.015625 40.375 
Q 26.375 40.375 22.484375 35.828125 
Q 18.609375 31.296875 18.609375 23.390625 
Q 18.609375 15.53125 22.484375 10.953125 
Q 26.375 6.390625 33.015625 6.390625 
Q 39.65625 6.390625 43.53125 10.953125 
Q 47.40625 15.53125 47.40625 23.390625 
Q 47.40625 31.296875 43.53125 35.828125 
Q 39.65625 40.375 33.015625 40.375 
z
M 52.59375 71.296875 
L 52.59375 62.3125 
Q 48.875 64.0625 45.09375 64.984375 
Q 41.3125 65.921875 37.59375 65.921875 
Q 27.828125 65.921875 22.671875 59.328125 
Q 17.53125 52.734375 16.796875 39.40625 
Q 19.671875 43.65625 24.015625 45.921875 
Q 28.375 48.1875 33.59375 48.1875 
Q 44.578125 48.1875 50.953125 41.515625 
Q 57.328125 34.859375 57.328125 23.390625 
Q 57.328125 12.15625 50.6875 5.359375 
Q 44.046875 -1.421875 33.015625 -1.421875 
Q 20.359375 -1.421875 13.671875 8.265625 
Q 6.984375 17.96875 6.984375 36.375 
Q 6.984375 53.65625 15.1875 63.9375 
Q 23.390625 74.21875 37.203125 74.21875 
Q 40.921875 74.21875 44.703125 73.484375 
Q 48.484375 72.75 52.59375 71.296875 
z
" id="DejaVuSans-54"/>
       </defs>
       <use xlink:href="#DejaVuSans-8722"/>
       <use x="83.789062" xlink:href="#DejaVuSans-54"/>
      </g>
     </g>
    </g>
    <g id="ytick_2">
     <g id="line2d_11">
      <g>
       <use style="stroke:#000000;stroke-width:0.8;" x="54" xlink:href="#mc1f14d25f3" y="201.367002"/>
      </g>
     </g>
     <g id="text_12">
      <!-- −5 -->
      <g transform="translate(29.309375 205.926064)scale(0.12 -0.12)">
       <use xlink:href="#DejaVuSans-8722"/>
       <use x="83.789062" xlink:href="#DejaVuSans-53"/>
      </g>
     </g>
    </g>
    <g id="ytick_3">
     <g id="line2d_12">
      <g>
       <use style="stroke:#000000;stroke-width:0.8;" x="54" xlink:href="#mc1f14d25f3" y="175.624755"/>
      </g>
     </g>
     <g id="text_13">
      <!-- −4 -->
      <g transform="translate(29.309375 180.183817)scale(0.12 -0.12)">
       <defs>
        <path d="M 37.796875 64.3125 
L 12.890625 25.390625 
L 37.796875 25.390625 
z
M 35.203125 72.90625 
L 47.609375 72.90625 
L 47.609375 25.390625 
L 58.015625 25.390625 
L 58.015625 17.1875 
L 47.609375 17.1875 
L 47.609375 0 
L 37.796875 0 
L 37.796875 17.1875 
L 4.890625 17.1875 
L 4.890625 26.703125 
z
" id="DejaVuSans-52"/>
       </defs>
       <use xlink:href="#DejaVuSans-8722"/>
       <use x="83.789062" xlink:href="#DejaVuSans-52"/>
      </g>
     </g>
    </g>
    <g id="ytick_4">
     <g id="line2d_13">
      <g>
       <use style="stroke:#000000;stroke-width:0.8;" x="54" xlink:href="#mc1f14d25f3" y="149.882508"/>
      </g>
     </g>
     <g id="text_14">
      <!-- −3 -->
      <g transform="translate(29.309375 154.44157)scale(0.12 -0.12)">
       <defs>
        <path d="M 40.578125 39.3125 
Q 47.65625 37.796875 51.625 33 
Q 55.609375 28.21875 55.609375 21.1875 
Q 55.609375 10.40625 48.1875 4.484375 
Q 40.765625 -1.421875 27.09375 -1.421875 
Q 22.515625 -1.421875 17.65625 -0.515625 
Q 12.796875 0.390625 7.625 2.203125 
L 7.625 11.71875 
Q 11.71875 9.328125 16.59375 8.109375 
Q 21.484375 6.890625 26.8125 6.890625 
Q 36.078125 6.890625 40.9375 10.546875 
Q 45.796875 14.203125 45.796875 21.1875 
Q 45.796875 27.640625 41.28125 31.265625 
Q 36.765625 34.90625 28.71875 34.90625 
L 20.21875 34.90625 
L 20.21875 43.015625 
L 29.109375 43.015625 
Q 36.375 43.015625 40.234375 45.921875 
Q 44.09375 48.828125 44.09375 54.296875 
Q 44.09375 59.90625 40.109375 62.90625 
Q 36.140625 65.921875 28.71875 65.921875 
Q 24.65625 65.921875 20.015625 65.03125 
Q 15.375 64.15625 9.8125 62.3125 
L 9.8125 71.09375 
Q 15.4375 72.65625 20.34375 73.4375 
Q 25.25 74.21875 29.59375 74.21875 
Q 40.828125 74.21875 47.359375 69.109375 
Q 53.90625 64.015625 53.90625 55.328125 
Q 53.90625 49.265625 50.4375 45.09375 
Q 46.96875 40.921875 40.578125 39.3125 
z
" id="DejaVuSans-51"/>
       </defs>
       <use xlink:href="#DejaVuSans-8722"/>
       <use x="83.789062" xlink:href="#DejaVuSans-51"/>
      </g>
     </g>
    </g>
    <g id="ytick_5">
     <g id="line2d_14">
      <g>
       <use style="stroke:#000000;stroke-width:0.8;" x="54" xlink:href="#mc1f14d25f3" y="124.140261"/>
      </g>
     </g>
     <g id="text_15">
      <!-- −2 -->
      <g transform="translate(29.309375 128.699324)scale(0.12 -0.12)">
       <use xlink:href="#DejaVuSans-8722"/>
       <use x="83.789062" xlink:href="#DejaVuSans-50"/>
      </g>
     </g>
    </g>
    <g id="ytick_6">
     <g id="line2d_15">
      <g>
       <use style="stroke:#000000;stroke-width:0.8;" x="54" xlink:href="#mc1f14d25f3" y="98.398014"/>
      </g>
     </g>
     <g id="text_16">
      <!-- −1 -->
      <g transform="translate(29.309375 102.957077)scale(0.12 -0.12)">
       <use xlink:href="#DejaVuSans-8722"/>
       <use x="83.789062" xlink:href="#DejaVuSans-49"/>
      </g>
     </g>
    </g>
    <g id="ytick_7">
     <g id="line2d_16">
      <g>
       <use style="stroke:#000000;stroke-width:0.8;" x="54" xlink:href="#mc1f14d25f3" y="72.655767"/>
      </g>
     </g>
     <g id="text_17">
      <!-- 0 -->
      <g transform="translate(39.365 77.21483)scale(0.12 -0.12)">
       <use xlink:href="#DejaVuSans-48"/>
      </g>
     </g>
    </g>
    <g id="ytick_8">
     <g id="line2d_17">
      <g>
       <use style="stroke:#000000;stroke-width:0.8;" x="54" xlink:href="#mc1f14d25f3" y="46.91352"/>
      </g>
     </g>
     <g id="text_18">
      <!-- 1 -->
      <g transform="translate(39.365 51.472583)scale(0.12 -0.12)">
       <use xlink:href="#DejaVuSans-49"/>
      </g>
     </g>
    </g>
    <g id="text_19">
     <!-- Elastic load $F$ -->
     <g transform="translate(23.229687 176.38)rotate(-90)scale(0.1 -0.1)">
      <defs>
       <path d="M 9.8125 72.90625 
L 55.90625 72.90625 
L 55.90625 64.59375 
L 19.671875 64.59375 
L 19.671875 43.015625 
L 54.390625 43.015625 
L 54.390625 34.71875 
L 19.671875 34.71875 
L 19.671875 8.296875 
L 56.78125 8.296875 
L 56.78125 0 
L 9.8125 0 
z
" id="DejaVuSans-69"/>
       <path d="M 16.890625 72.90625 
L 58.6875 72.90625 
L 57.078125 64.59375 
L 25.09375 64.59375 
L 20.90625 43.109375 
L 49.8125 43.109375 
L 48.1875 34.8125 
L 19.28125 34.8125 
L 12.5 0 
L 2.6875 0 
z
" id="DejaVuSans-Oblique-70"/>
      </defs>
      <use transform="translate(0 0.015625)" xlink:href="#DejaVuSans-69"/>
      <use transform="translate(63.183594 0.015625)" xlink:href="#DejaVuSans-108"/>
      <use transform="translate(90.966797 0.015625)" xlink:href="#DejaVuSans-97"/>
      <use transform="translate(152.246094 0.015625)" xlink:href="#DejaVuSans-115"/>
      <use transform="translate(204.345703 0.015625)" xlink:href="#DejaVuSans-116"/>
      <use transform="translate(243.554688 0.015625)" xlink:href="#DejaVuSans-105"/>
      <use transform="translate(271.337891 0.015625)" xlink:href="#DejaVuSans-99"/>
      <use transform="translate(326.318359 0.015625)" xlink:href="#DejaVuSans-32"/>
      <use transform="translate(358.105469 0.015625)" xlink:href="#DejaVuSans-108"/>
      <use transform="translate(385.888672 0.015625)" xlink:href="#DejaVuSans-111"/>
      <use transform="translate(447.070312 0.015625)" xlink:href="#DejaVuSans-97"/>
      <use transform="translate(508.349609 0.015625)" xlink:href="#DejaVuSans-100"/>
      <use transform="translate(571.826172 0.015625)" xlink:href="#DejaVuSans-32"/>
      <use transform="translate(603.613281 0.015625)" xlink:href="#DejaVuSans-Oblique-70"/>
     </g>
    </g>
   </g>
   <g id="line2d_18">
    <path clip-path="url(#pd0531c9aaf)" d="M 373.579368 98.409826 
L 373.482879 98.626782 
L 372.804405 99.149058 
L 371.76391 99.633312 
L 370.283482 100.075913 
L 368.360942 100.408327 
L 365.705903 100.609544 
L 361.80318 100.647001 
L 357.961045 100.707157 
L 355.401949 100.711002 
L 336.164761 99.818119 
L 330.352708 99.241385 
L 323.453053 98.329819 
L 308.359153 96.148785 
L 303.52131 96.02356 
L 299.388543 95.692068 
L 295.16703 95.123521 
L 290.859512 94.307087 
L 289.987906 94.114424 
L 283.794585 93.670167 
L 271.880658 92.781771 
L 265.255275 92.054639 
L 259.467406 91.181785 
L 254.572824 90.235552 
L 249.61901 89.068986 
L 244.612402 87.676496 
L 238.545508 85.723261 
L 233.450863 83.889421 
L 225.251657 80.673772 
L 220.254001 78.574722 
L 218.42286 78.356228 
L 216.591377 78.458891 
L 211.09296 78.954384 
L 206.504144 79.160692 
L 202.827678 79.141669 
L 199.146474 78.932461 
L 195.461394 78.519275 
L 191.7741 77.899096 
L 188.166152 77.07967 
L 183.709076 75.803318 
L 179.289493 74.298351 
L 172.295421 71.841217 
L 166.252369 71.770086 
L 161.129751 71.494213 
L 156.902667 71.062273 
L 152.716118 70.428427 
L 148.573817 69.596519 
L 143.668483 68.370014 
L 138.049264 66.71414 
L 120.609197 61.333221 
L 114.996354 61.046471 
L 110.962343 60.643422 
L 107.085452 60.055568 
L 103.369923 59.290699 
L 99.243368 58.215131 
L 93.222492 56.549343 
L 89.694549 55.735016 
L 86.411532 54.753514 
L 82.971877 53.472712 
L 79.165568 51.789006 
L 74.29466 49.594263 
L 71.339731 48.398143 
L 69.812773 47.568985 
L 69.257424 47.057487 
L 69.257424 46.815552 
L 69.512261 46.685889 
L 70.335182 46.588279 
L 72.251308 46.58165 
L 75.939181 46.91569 
L 79.520654 47.888459 
L 84.649132 49.243675 
L 88.25703 49.976178 
L 92.190003 50.524486 
L 95.888062 51.009186 
L 100.984168 52.058211 
L 105.207299 52.719168 
L 109.652352 53.17148 
L 114.31333 53.382844 
L 119.18171 53.367641 
L 121.328832 53.306506 
L 126.472006 54.515651 
L 134.113969 56.597978 
L 142.858528 58.957123 
L 147.751081 60.072709 
L 152.716118 60.964808 
L 156.902667 61.502812 
L 161.129751 61.845919 
L 166.252369 62.020556 
L 172.295421 61.975931 
L 174.035114 61.932636 
L 175.780668 62.509774 
L 181.936747 64.682533 
L 186.37883 66.029312 
L 190.858264 67.130333 
L 194.539695 67.802809 
L 198.225517 68.275749 
L 201.907801 68.547122 
L 205.58549 68.625784 
L 210.175762 68.483596 
L 215.675444 68.040238 
L 221.169508 67.428231 
L 223.196858 67.824504 
L 227.305144 68.855691 
L 234.472117 71.756425 
L 240.574149 73.978336 
L 245.617601 75.576267 
L 250.614219 76.91404 
L 261.407422 79.367934 
L 267.162594 80.363231 
L 273.74728 81.276477 
L 285.580377 82.630072 
L 288.234743 83.019084 
L 292.592677 84.202189 
L 296.866102 85.152877 
L 301.052464 85.867477 
L 305.148893 86.360791 
L 309.941392 86.705366 
L 312.285496 86.905731 
L 322.738382 89.241414 
L 328.330689 90.585148 
L 332.983364 91.462646 
L 354.507023 94.950173 
L 357.547671 95.478736 
L 361.44295 96.090903 
L 369.894506 97.652991 
L 373.512343 98.237757 
L 373.579368 98.409826 
L 373.579368 98.409826 
" style="fill:none;stroke:#172c4b;stroke-linecap:square;stroke-opacity:0.9;"/>
   </g>
   <g id="line2d_19">
    <path clip-path="url(#pd0531c9aaf)" d="M 373.579456 98.432671 
L 373.461664 98.980397 
L 373.038386 99.860457 
L 372.304135 100.887675 
L 371.403109 101.780787 
L 370.435968 102.459404 
L 369.286625 103.009459 
L 366.162026 104.056179 
L 363.802729 104.713408 
L 360.748433 105.313041 
L 353.824546 106.33343 
L 351.022324 106.571098 
L 347.518475 106.961635 
L 344.315219 107.099523 
L 340.346272 107.19644 
L 331.009156 107.628552 
L 322.013262 107.823392 
L 312.198339 107.819291 
L 302.432945 107.606378 
L 293.795881 107.201405 
L 286.572252 106.642544 
L 280.032587 105.907394 
L 274.272356 105.041217 
L 268.3774 103.913975 
L 263.36877 102.75028 
L 261.342351 102.224057 
L 255.190276 101.416285 
L 252.076398 100.751943 
L 246.836989 99.309582 
L 243.666893 98.264101 
L 240.479605 96.943567 
L 237.27741 95.366289 
L 234.062682 93.558663 
L 224.368137 87.744419 
L 221.198241 86.189652 
L 219.597043 85.146849 
L 217.995536 84.455961 
L 217.194581 84.141299 
L 215.592099 84.627633 
L 210.777799 86.258872 
L 208.36534 86.90028 
L 205.141692 87.47908 
L 202.71798 87.749302 
L 200.288701 87.83834 
L 197.853601 87.737159 
L 195.412567 87.441428 
L 192.965637 86.951548 
L 190.512995 86.272553 
L 187.234504 85.089929 
L 183.947615 83.621651 
L 179.82961 81.648878 
L 173.228477 80.678766 
L 164.159655 79.270111 
L 161.69458 79.647406 
L 159.235371 79.765514 
L 156.783285 79.612895 
L 154.339581 79.18694 
L 151.905516 78.49377 
L 149.48234 77.547745 
L 147.071297 76.370685 
L 145.471289 75.471362 
L 143.877589 75.07101 
L 132.162703 72.554702 
L 123.164964 70.40923 
L 114.588069 68.140253 
L 105.225441 65.42639 
L 95.534987 62.381754 
L 89.080032 60.14448 
L 84.292189 58.250251 
L 80.878875 56.678857 
L 77.859748 55.048588 
L 75.257165 53.380093 
L 73.093638 51.725269 
L 71.211372 49.987069 
L 70.049791 48.644059 
L 69.385105 47.55475 
L 69.218302 46.907345 
L 69.337473 46.640924 
L 69.654628 46.531898 
L 70.427832 46.601836 
L 77.511182 48.054561 
L 82.537634 49.083743 
L 89.589217 50.27043 
L 107.167212 53.165227 
L 138.354578 58.53585 
L 160.054378 62.19261 
L 176.530084 64.97072 
L 183.124756 65.864854 
L 188.874882 66.434918 
L 190.512995 66.557798 
L 193.781928 67.401069 
L 197.040583 67.985387 
L 202.71798 68.59126 
L 205.141692 68.532159 
L 207.560226 68.245284 
L 209.974103 67.747121 
L 212.383953 67.061145 
L 217.995536 65.256816 
L 224.368137 64.480308 
L 225.447654 64.368943 
L 226.526809 64.975689 
L 231.913775 68.695809 
L 236.207107 71.350669 
L 239.413748 73.080309 
L 242.606263 74.543025 
L 245.782338 75.709891 
L 248.939753 76.561803 
L 254.154965 77.54403 
L 257.252616 77.902214 
L 264.377165 78.439643 
L 268.3774 78.782627 
L 274.272356 80.45937 
L 280.978958 82.133666 
L 288.403646 83.743495 
L 297.303985 85.427018 
L 310.617165 87.676737 
L 338.569287 92.117636 
L 347.518475 93.650855 
L 359.636137 95.905481 
L 366.162026 97.122122 
L 372.304135 97.947343 
L 373.384807 98.04175 
L 373.557668 98.256673 
L 373.579456 98.432671 
L 373.579456 98.432671 
" style="fill:none;stroke:#172c4b;stroke-linecap:square;stroke-opacity:0.8;"/>
   </g>
   <g id="line2d_20">
    <path clip-path="url(#pd0531c9aaf)" d="M 373.579518 98.441451 
L 373.471558 99.172363 
L 373.083421 100.230387 
L 372.303261 101.706333 
L 371.296856 103.170503 
L 369.987681 104.654383 
L 368.367998 106.195346 
L 366.690751 107.487174 
L 364.766942 108.678275 
L 362.59359 109.734371 
L 360.168153 110.635529 
L 357.488262 111.376901 
L 355.036943 112.023055 
L 351.008289 113.276035 
L 347.054794 114.264215 
L 343.305867 114.948263 
L 336.874388 115.779843 
L 333.737503 115.895766 
L 330.470884 115.763776 
L 325.685116 115.468535 
L 324.981577 115.53171 
L 319.92044 116.781817 
L 316.161068 117.499614 
L 313.067865 117.902661 
L 309.898639 118.109138 
L 306.653167 118.256824 
L 301.640718 118.966142 
L 296.452473 119.45818 
L 291.991974 119.647137 
L 287.404663 119.592173 
L 283.642332 119.430744 
L 278.823008 119.993504 
L 274.874523 120.231743 
L 270.844201 120.215594 
L 267.768702 120.002399 
L 264.649083 119.593265 
L 261.486667 118.97043 
L 258.283094 118.120038 
L 255.04033 117.032718 
L 251.760673 115.704022 
L 248.446746 114.134735 
L 245.101486 112.331017 
L 241.728129 110.304394 
L 237.192719 107.28508 
L 232.622625 103.952549 
L 226.875947 99.447806 
L 222.263711 95.666617 
L 221.215218 94.707476 
L 219.749769 92.880822 
L 219.016845 92.198615 
L 217.550248 91.907644 
L 216.81644 92.263197 
L 213.876254 94.696545 
L 211.664137 96.315741 
L 209.444272 97.70052 
L 207.215239 98.805574 
L 204.97581 99.59327 
L 203.476571 99.9274 
L 201.972009 100.101115 
L 200.461925 100.110035 
L 198.946167 99.951736 
L 197.424631 99.625757 
L 195.897258 99.133584 
L 193.595243 98.091637 
L 191.280234 96.702934 
L 188.952595 94.995158 
L 186.612888 93.003588 
L 183.475798 89.979564 
L 180.349578 86.701385 
L 174.841152 86.395501 
L 169.286481 85.835872 
L 163.696218 85.030824 
L 158.084666 84.002908 
L 151.667928 82.600442 
L 143.686066 80.603058 
L 141.308677 80.064728 
L 135.038317 78.78583 
L 128.896082 77.284581 
L 122.882553 75.563361 
L 107.283229 70.646173 
L 99.547979 67.934828 
L 93.618121 65.649689 
L 86.205605 62.507956 
L 81.182315 60.028767 
L 78.764599 58.540724 
L 76.589276 56.945868 
L 74.669191 55.269285 
L 73.017812 53.558436 
L 71.448782 51.606475 
L 70.283793 49.815157 
L 69.53947 48.299521 
L 69.245172 47.289475 
L 69.271972 46.625141 
L 69.468225 46.410331 
L 69.912483 46.327366 
L 70.898959 46.458118 
L 73.273804 46.800632 
L 74.088202 46.962191 
L 77.645856 47.83846 
L 81.182315 48.475314 
L 84.7626 49.113529 
L 89.248777 49.896988 
L 94.763737 50.619063 
L 98.322449 51.105962 
L 103.336501 52.035928 
L 112.768306 53.646789 
L 128.136713 56.457507 
L 144.480683 59.039806 
L 147.668167 59.526579 
L 158.886988 61.955228 
L 166.095564 63.288474 
L 172.465708 64.231623 
L 177.99501 64.832281 
L 183.475798 65.206461 
L 185.046735 65.372505 
L 190.505734 66.042926 
L 195.131377 66.371208 
L 196.661675 66.455925 
L 198.946167 67.588707 
L 200.461925 68.131366 
L 201.972009 68.487627 
L 203.476571 68.654956 
L 204.97581 68.633448 
L 206.469972 68.425843 
L 207.959348 68.037501 
L 209.444272 67.476342 
L 211.664137 66.333907 
L 214.612173 64.39324 
L 220.482537 62.888047 
L 222.263711 62.486873 
L 225.723644 61.981838 
L 228.027474 61.811199 
L 229.178065 62.119479 
L 230.327559 62.725949 
L 234.911419 66.360649 
L 238.330187 68.795194 
L 241.728129 70.91486 
L 245.101486 72.672938 
L 247.334987 73.626695 
L 249.555021 74.397517 
L 251.760673 74.981422 
L 253.951087 75.377263 
L 256.12547 75.631095 
L 264.649083 79.083978 
L 267.768702 80.033821 
L 271.85938 81.016537 
L 275.869361 81.714384 
L 282.688825 82.581353 
L 285.533823 82.830891 
L 290.172378 83.963336 
L 294.683358 84.854811 
L 299.93101 85.649391 
L 305.829828 86.277407 
L 308.285461 86.527253 
L 311.492761 87.256659 
L 315.394895 87.877995 
L 319.178122 88.238436 
L 324.273134 88.4529 
L 326.383732 88.647637 
L 327.766114 88.75047 
L 330.470884 89.777574 
L 334.37535 91.14851 
L 337.48595 92.034972 
L 340.463551 92.678936 
L 356.282849 95.326762 
L 362.919446 96.447382 
L 366.690751 97.101198 
L 369.612154 97.471296 
L 371.8374 97.525272 
L 373.083421 97.603733 
L 373.401148 97.801386 
L 373.544093 98.107004 
L 373.579518 98.441451 
L 373.579518 98.441451 
" style="fill:none;stroke:#172c4b;stroke-linecap:square;stroke-opacity:0.7;"/>
   </g>
   <g id="line2d_21">
    <path clip-path="url(#pd0531c9aaf)" d="M 373.579645 98.469947 
L 373.4802 99.514857 
L 373.060146 101.59479 
L 372.40536 103.754593 
L 371.609401 105.577257 
L 370.599242 107.622265 
L 369.558194 109.274685 
L 368.56411 110.509958 
L 367.452642 111.563997 
L 365.695458 112.838067 
L 364.869394 113.159981 
L 363.99898 113.306857 
L 363.393884 113.298955 
L 362.448755 114.005885 
L 360.422333 115.459069 
L 358.212282 116.745229 
L 356.228625 117.645128 
L 354.114594 118.35433 
L 350.458138 119.422624 
L 346.46089 120.901751 
L 342.119574 122.319798 
L 338.682523 123.27823 
L 332.525048 124.848075 
L 298.640259 132.860641 
L 293.209633 133.896066 
L 288.53499 134.555105 
L 284.695685 134.88821 
L 282.742334 134.98626 
L 278.76745 135.832078 
L 275.726176 136.27485 
L 272.633176 136.511771 
L 269.488556 136.50753 
L 266.292749 136.230107 
L 263.046571 135.651938 
L 259.751268 134.75096 
L 256.40855 133.511523 
L 253.020621 131.925108 
L 249.590187 129.990839 
L 246.120466 127.715767 
L 242.615165 125.114897 
L 239.078461 122.210974 
L 235.514957 119.034015 
L 230.730585 114.437422 
L 224.714944 108.258009 
L 222.303087 105.697455 
L 221.242678 104.405753 
L 219.996865 102.182439 
L 217.501959 97.982147 
L 214.997759 101.82965 
L 213.110081 104.308951 
L 211.84582 105.711737 
L 210.576168 106.884182 
L 209.300521 107.804413 
L 208.018315 108.454559 
L 206.729021 108.821027 
L 205.432155 108.894705 
L 204.127275 108.67108 
L 202.813985 108.150296 
L 200.160821 106.757294 
L 198.820391 106.30446 
L 197.470435 105.658996 
L 196.110795 104.826038 
L 194.052936 103.241142 
L 191.972844 101.282673 
L 189.870539 98.990961 
L 187.033324 95.500171 
L 183.43348 90.620738 
L 182.706638 90.244847 
L 180.512887 89.621406 
L 178.30001 89.464484 
L 174.572108 92.423171 
L 173.067973 93.318605 
L 171.556941 94.008423 
L 170.039371 94.482023 
L 168.51563 94.732245 
L 166.986093 94.755407 
L 165.451144 94.551287 
L 163.911167 94.12305 
L 162.366557 93.477117 
L 160.81771 92.622993 
L 159.265027 91.573035 
L 156.9297 89.664247 
L 154.588042 87.408762 
L 153.806327 86.591565 
L 135.802515 83.395278 
L 134.247331 83.065848 
L 131.921975 82.863729 
L 129.607088 82.348143 
L 123.499 80.528743 
L 116.040214 78.502366 
L 108.843401 76.324549 
L 102.649968 74.222443 
L 97.415717 72.203908 
L 93.077577 70.284774 
L 89.561351 68.502716 
L 86.251933 66.581625 
L 82.196629 63.904691 
L 79.890206 62.130536 
L 77.77508 60.264765 
L 75.508286 57.947578 
L 73.266559 55.29388 
L 71.948847 53.413824 
L 70.697029 51.243699 
L 69.710572 49.111036 
L 69.284268 47.661555 
L 69.229457 46.786624 
L 69.382837 46.423397 
L 69.710572 46.28296 
L 70.362266 46.340229 
L 74.492575 47.29664 
L 76.603398 47.776359 
L 79.890206 48.235601 
L 82.196629 48.586018 
L 86.251933 49.485731 
L 91.294841 50.366323 
L 96.781442 51.313104 
L 108.843401 53.340003 
L 128.070532 56.63422 
L 155.369212 61.315264 
L 186.318025 66.486414 
L 191.274537 67.009358 
L 193.362046 67.230016 
L 196.110795 67.858427 
L 198.820391 68.2724 
L 200.827528 68.46963 
L 202.813985 68.947992 
L 204.780742 69.149698 
L 206.729021 69.064095 
L 209.300521 68.589212 
L 211.84582 67.447988 
L 213.740386 66.364489 
L 215.624997 65.062795 
L 216.877007 64.179576 
L 218.126328 63.618738 
L 222.303087 62.325759 
L 230.730585 60.765093 
L 231.929634 61.157885 
L 235.514957 64.986621 
L 239.078461 68.445092 
L 241.439534 70.501066 
L 243.787303 72.330899 
L 246.120466 73.915786 
L 248.437806 75.240618 
L 250.7382 76.294186 
L 253.020621 77.069324 
L 259.751268 78.71328 
L 261.953521 78.97333 
L 264.134159 79.005853 
L 265.216234 78.940886 
L 266.292749 79.048104 
L 270.542479 80.529021 
L 273.669923 81.37205 
L 276.745678 81.992176 
L 280.766301 82.525856 
L 284.695685 82.797694 
L 288.53499 83.044317 
L 293.209633 83.916269 
L 299.526646 84.8332 
L 322.182965 87.805456 
L 326.476923 88.615011 
L 330.562032 90.125828 
L 333.804061 91.107397 
L 336.290757 91.669332 
L 338.682523 92.018687 
L 340.980192 92.158242 
L 342.119574 92.205019 
L 343.788056 92.755513 
L 345.407924 93.0482 
L 346.979304 93.108192 
L 347.492347 93.08181 
L 349.977195 93.656758 
L 351.869041 94.043943 
L 353.67604 94.327106 
L 356.228625 94.895241 
L 358.593476 95.553543 
L 361.11809 96.026716 
L 363.698923 96.279034 
L 365.149658 96.457812 
L 366.728549 96.782776 
L 368.133728 97.120362 
L 368.975709 97.353879 
L 370.270416 97.576181 
L 370.910076 97.717392 
L 371.736082 98.009538 
L 372.40536 98.007847 
L 373.4802 97.89043 
L 373.571135 98.242718 
L 373.579645 98.469947 
L 373.579645 98.469947 
" style="fill:none;stroke:#172c4b;stroke-linecap:square;stroke-opacity:0.6;"/>
   </g>
   <g id="line2d_22">
    <path clip-path="url(#pd0531c9aaf)" d="M 373.5798 98.478686 
L 373.459587 100.30474 
L 373.035596 103.464839 
L 372.487338 106.063408 
L 371.974317 107.612113 
L 371.079852 109.854197 
L 370.144059 111.861924 
L 369.241465 113.276137 
L 368.437383 114.198945 
L 367.092331 115.605954 
L 365.578294 117.747148 
L 364.186059 119.39274 
L 361.872395 121.674867 
L 360.975055 122.303446 
L 359.073293 123.200927 
L 357.721904 123.510981 
L 357.373125 123.544915 
L 354.025202 125.366959 
L 351.57001 127.281064 
L 349.376733 128.729975 
L 347.042141 130.043863 
L 345.068467 131.137114 
L 341.924649 133.248158 
L 338.553776 135.225471 
L 335.566643 136.743356 
L 331.764136 138.398664 
L 327.720255 139.885822 
L 322.693027 141.453436 
L 316.53346 143.105035 
L 309.065276 144.862009 
L 301.936305 146.301747 
L 296.279597 147.20744 
L 292.358695 147.707421 
L 288.31722 148.672582 
L 285.206961 149.213919 
L 282.029145 149.5651 
L 278.784343 149.696603 
L 275.473458 149.580612 
L 272.097761 149.191914 
L 268.658923 148.508738 
L 265.159048 147.513537 
L 261.600686 146.193669 
L 255.548499 143.517115 
L 251.850152 141.508307 
L 248.10661 139.123764 
L 244.322535 136.378135 
L 240.502985 133.294776 
L 236.653379 129.905265 
L 231.483757 124.97812 
L 226.285179 119.686742 
L 221.266148 114.50762 
L 218.618728 108.710476 
L 216.490833 107.972584 
L 215.95656 108.215372 
L 214.346526 111.253701 
L 212.723549 113.75271 
L 211.633087 115.068351 
L 210.534998 116.074691 
L 209.428604 116.752432 
L 208.31327 117.087555 
L 207.188411 117.07153 
L 206.053487 116.70143 
L 203.751541 115.321159 
L 202.583694 114.230336 
L 200.809863 112.105664 
L 199.008752 109.487643 
L 197.179676 106.340923 
L 194.696644 101.488204 
L 194.067921 100.934663 
L 191.521111 101.919292 
L 189.577611 102.468345 
L 187.605775 102.818952 
L 185.606003 102.94419 
L 183.578801 102.82355 
L 181.52477 102.443896 
L 178.745504 104.105234 
L 177.338985 104.5322 
L 175.92152 104.622559 
L 174.493355 104.374086 
L 173.054746 103.790188 
L 171.605957 102.879761 
L 170.147258 101.65696 
L 168.67893 100.140874 
L 166.459024 97.662612 
L 165.714562 97.483737 
L 162.715297 98.407306 
L 161.203396 98.667202 
L 159.683775 98.768086 
L 158.156801 98.70946 
L 156.622854 98.492329 
L 155.082331 98.119145 
L 152.760127 97.275505 
L 150.425542 96.107971 
L 148.080145 94.640678 
L 145.725604 92.902771 
L 142.575046 90.222528 
L 140.206166 87.987734 
L 139.415787 87.671028 
L 132.300191 86.30677 
L 124.439553 84.571568 
L 115.943013 82.458537 
L 109.183482 80.557198 
L 104.08869 78.91938 
L 99.860789 77.356764 
L 95.78369 75.604467 
L 92.518244 73.972805 
L 89.388968 72.169386 
L 86.412447 70.188839 
L 83.606728 68.037469 
L 80.49266 65.33207 
L 78.132239 63.006938 
L 76.007437 60.553673 
L 74.138985 58.040451 
L 72.546673 55.54839 
L 71.24858 53.165031 
L 70.100971 50.569904 
L 69.500503 48.732302 
L 69.232092 47.331201 
L 69.258976 46.629029 
L 69.420079 46.280136 
L 69.701188 46.140982 
L 70.260296 46.154179 
L 71.483871 46.484714 
L 73.149256 46.906583 
L 74.491198 47.052666 
L 75.612587 47.118596 
L 77.687758 47.409126 
L 79.521561 47.619457 
L 83.067764 48.647423 
L 86.412447 49.407696 
L 90.003155 50.018304 
L 92.518244 50.446277 
L 97.801975 51.521635 
L 104.806477 52.713385 
L 127.573182 56.413627 
L 163.468244 62.789052 
L 186.275668 66.265821 
L 192.800896 67.077851 
L 197.179676 67.42915 
L 200.212562 67.578334 
L 201.995395 68.359447 
L 203.751541 68.924317 
L 205.482096 69.251094 
L 207.188411 69.324379 
L 208.872092 69.135851 
L 210.534998 68.684673 
L 212.179227 67.977637 
L 213.807103 67.029061 
L 215.421153 65.860426 
L 217.024079 64.630693 
L 222.376141 62.769873 
L 234.073096 60.761248 
L 235.364481 61.700185 
L 239.222846 66.169532 
L 241.779782 68.815431 
L 244.322535 71.154381 
L 246.849513 73.157755 
L 249.3592 74.802472 
L 251.850152 76.071351 
L 254.321009 76.953368 
L 256.770494 77.443803 
L 257.986848 77.54244 
L 261.600686 78.254847 
L 263.979287 78.388589 
L 266.332307 78.438617 
L 268.658923 78.222801 
L 272.097761 77.665664 
L 273.2301 77.6114 
L 275.473458 78.64804 
L 278.784343 80.153862 
L 282.029145 81.435121 
L 286.25124 82.829743 
L 290.353045 83.916599 
L 294.334192 84.755096 
L 299.14149 85.545593 
L 306.446686 86.471177 
L 317.32783 87.84427 
L 323.431772 88.849386 
L 332.414556 90.583355 
L 336.781146 91.532018 
L 340.826601 92.191728 
L 344.559943 92.585579 
L 347.042141 92.799395 
L 350.709225 93.900879 
L 353.628905 94.533891 
L 355.932569 94.826805 
L 358.066255 94.90394 
L 359.073293 94.953118 
L 361.577129 95.922559 
L 363.893277 96.596874 
L 366.356572 97.058486 
L 369.047328 97.526472 
L 370.311086 97.825118 
L 371.356791 97.856722 
L 372.392951 97.83088 
L 372.824504 97.857874 
L 373.51197 97.779237 
L 373.577327 98.297491 
L 373.5798 98.478686 
L 373.5798 98.478686 
" style="fill:none;stroke:#172c4b;stroke-linecap:square;stroke-opacity:0.5;"/>
   </g>
   <g id="line2d_23">
    <path clip-path="url(#pd0531c9aaf)" d="M 373.580044 98.493393 
L 373.47146 100.615968 
L 373.030053 104.986867 
L 372.511699 108.267226 
L 371.924358 110.590018 
L 371.456832 111.667268 
L 371.065187 112.162217 
L 370.926694 112.262616 
L 368.554975 117.752204 
L 367.280988 119.862404 
L 365.845286 122.138612 
L 364.243201 124.558365 
L 362.777773 126.36363 
L 361.191083 127.936626 
L 359.832681 129.00927 
L 358.393668 129.907259 
L 358.02116 130.10393 
L 353.143542 134.573738 
L 351.803961 135.889835 
L 346.979734 140.624383 
L 345.42258 141.717806 
L 343.81373 142.537902 
L 342.712181 143.059169 
L 341.015999 144.081904 
L 338.671774 145.392359 
L 334.338822 147.61102 
L 331.061329 149.711096 
L 329.020735 151.261164 
L 326.92395 152.504236 
L 324.039914 153.933467 
L 310.625813 161.902281 
L 304.539522 165.255447 
L 299.984373 167.515381 
L 296.251195 169.157926 
L 292.409372 170.581447 
L 289.452538 171.461899 
L 286.430414 172.251052 
L 283.342686 173.251006 
L 280.189304 173.984439 
L 278.050693 174.303142 
L 275.88318 174.470788 
L 273.687009 174.475411 
L 271.462507 174.305921 
L 269.210089 173.95228 
L 266.930262 173.40566 
L 264.623627 172.658594 
L 262.290885 171.705111 
L 259.932838 170.540855 
L 257.550389 169.163183 
L 255.144541 167.571242 
L 252.7164 165.766028 
L 250.267171 163.750416 
L 246.55666 160.343434 
L 242.806432 156.498141 
L 239.021702 152.247556 
L 235.208073 147.633159 
L 230.088576 141.00044 
L 224.943063 133.942431 
L 222.365327 130.299863 
L 221.300274 128.458625 
L 219.334397 120.11575 
L 218.939418 118.601294 
L 218.543483 119.269318 
L 217.748155 122.240995 
L 216.139603 128.309132 
L 214.913144 132.313742 
L 213.665573 135.730965 
L 212.393636 138.470735 
L 211.530666 139.884564 
L 210.654743 140.94846 
L 209.765131 141.650043 
L 208.861158 141.981127 
L 207.94222 141.93776 
L 207.007779 141.520221 
L 206.057358 140.732948 
L 205.090547 139.584428 
L 204.106995 138.087016 
L 202.599654 135.222689 
L 201.053245 131.678201 
L 198.929752 126.039041 
L 197.841422 122.891843 
L 197.290596 122.434138 
L 195.611493 121.572037 
L 193.892553 120.369838 
L 192.134006 118.824839 
L 190.336175 116.940474 
L 188.499452 114.726598 
L 185.99077 111.291431 
L 185.353056 110.904611 
L 184.065109 111.087894 
L 182.760604 110.901319 
L 181.439707 110.347687 
L 180.102592 109.435823 
L 178.74944 108.180335 
L 177.380442 106.60127 
L 175.995798 104.723682 
L 173.889971 101.413292 
L 173.180448 100.195038 
L 172.467186 99.231958 
L 170.305296 97.00909 
L 166.630653 97.216314 
L 162.871167 97.233572 
L 159.032999 97.048825 
L 155.12342 96.652378 
L 151.1508 96.036632 
L 147.124492 95.196101 
L 143.054648 94.127721 
L 138.95196 92.831413 
L 134.827407 91.310823 
L 130.692016 89.574127 
L 129.037276 88.935542 
L 122.432272 87.62531 
L 116.696824 86.267371 
L 113.450114 85.529203 
L 108.638051 84.333179 
L 104.695834 83.149066 
L 100.831588 81.749921 
L 97.808272 80.450644 
L 94.856785 78.975289 
L 91.988957 77.31485 
L 89.217948 75.467233 
L 86.558204 73.438244 
L 84.025334 71.24217 
L 81.635893 68.901881 
L 79.407103 66.448433 
L 76.873724 63.281507 
L 74.65259 60.085597 
L 72.77588 56.957121 
L 71.272634 53.994965 
L 70.167358 51.293545 
L 69.478785 48.970858 
L 69.236246 47.510968 
L 69.270943 46.57755 
L 69.478785 46.200695 
L 69.841094 45.964865 
L 70.355585 45.947363 
L 71.542154 46.228223 
L 74.248711 46.901582 
L 77.85148 47.3623 
L 81.635893 47.912575 
L 84.645765 48.652359 
L 87.873217 49.222983 
L 90.590476 49.586341 
L 95.587299 50.978509 
L 100.831588 52.172936 
L 106.264277 53.168854 
L 113.450114 54.236817 
L 133.173936 57.028163 
L 142.236389 58.629655 
L 176.690062 65.036196 
L 203.10641 69.315699 
L 206.057358 69.478743 
L 208.861158 69.405316 
L 211.963722 69.228887 
L 212.820512 69.145203 
L 216.139603 67.7151 
L 218.543483 66.62418 
L 221.300274 65.115965 
L 224.943063 64.416851 
L 239.021702 61.877661 
L 241.54842 64.844238 
L 244.060608 67.478107 
L 249.035051 72.375119 
L 251.494342 74.34729 
L 253.933184 75.936788 
L 256.350323 77.134124 
L 258.744604 77.935568 
L 261.114971 78.34314 
L 263.460472 78.364518 
L 265.780254 78.012854 
L 268.073566 77.306509 
L 270.339758 76.268701 
L 271.462507 76.61628 
L 274.788658 78.652794 
L 278.050693 80.342114 
L 281.247717 81.711842 
L 284.379227 82.794357 
L 287.445067 83.625551 
L 290.445381 84.243525 
L 294.344576 84.803205 
L 296.251195 85.019716 
L 300.909407 86.043553 
L 306.312842 86.949386 
L 313.13203 88.028261 
L 317.964002 88.826878 
L 324.039914 89.60908 
L 329.020735 90.276729 
L 337.46391 91.959466 
L 347.989384 94.034611 
L 356.081013 95.359753 
L 364.795997 96.843844 
L 368.147984 97.321927 
L 371.698321 97.52515 
L 371.813259 97.503547 
L 372.330856 98.02042 
L 372.677847 98.068383 
L 373.030053 97.862182 
L 373.47146 97.55164 
L 373.572449 98.176309 
L 373.580044 98.493393 
L 373.580044 98.493393 
" style="fill:none;stroke:#172c4b;stroke-linecap:square;stroke-opacity:0.4;"/>
   </g>
   <g id="line2d_24">
    <path clip-path="url(#pd0531c9aaf)" d="M 373.580413 98.57128 
L 373.452675 102.048948 
L 373.009476 108.10889 
L 372.413848 113.662167 
L 371.705913 118.246929 
L 371.087978 120.980946 
L 370.523635 122.678578 
L 369.895274 123.846005 
L 369.381057 124.335249 
L 369.017453 124.467679 
L 368.637015 124.441944 
L 368.034437 124.193322 
L 366.712449 127.452895 
L 365.489438 129.852428 
L 364.429973 131.482979 
L 363.872817 132.393974 
L 362.702885 134.219577 
L 361.776117 135.253031 
L 360.806418 135.957424 
L 360.135786 136.22892 
L 359.793147 136.302408 
L 358.005661 138.279491 
L 356.091805 141.888108 
L 354.467254 144.458262 
L 353.206238 146.08188 
L 351.917842 147.360048 
L 351.031243 147.984212 
L 350.122046 148.402701 
L 349.189865 148.597599 
L 348.715041 148.616719 
L 347.255107 149.653166 
L 346.251855 150.142099 
L 345.224281 150.458573 
L 344.17211 150.695754 
L 340.865723 153.723825 
L 337.338255 156.636623 
L 332.957776 159.977309 
L 319.436747 170.069517 
L 312.998282 175.281128 
L 300.594585 185.428435 
L 296.789062 188.25311 
L 292.87588 190.859362 
L 289.856213 192.596036 
L 286.762302 194.084381 
L 284.657868 194.910859 
L 282.519662 195.585435 
L 280.347506 196.091976 
L 278.14131 196.414961 
L 275.901088 196.539702 
L 273.62696 196.45256 
L 267.795212 195.776456 
L 265.405179 195.221112 
L 262.983381 194.362254 
L 260.530684 193.191261 
L 258.048103 191.702409 
L 255.536804 189.893016 
L 252.998105 187.763544 
L 250.43347 185.31765 
L 247.844508 182.562206 
L 245.232967 179.507259 
L 242.600727 176.165964 
L 238.617967 170.653187 
L 234.60039 164.599219 
L 230.555703 158.082808 
L 226.491999 151.442986 
L 222.417641 144.929329 
L 221.333187 142.721278 
L 219.496571 127.056379 
L 219.230525 126.653896 
L 218.150396 132.100851 
L 217.319077 135.504998 
L 216.465039 138.171113 
L 215.881196 139.482123 
L 215.284559 140.388718 
L 214.674179 140.870915 
L 214.049179 140.915135 
L 213.408761 140.51437 
L 212.752205 139.668253 
L 212.078866 138.383017 
L 211.036172 135.661276 
L 209.952851 132.050153 
L 208.44309 126.023384 
L 207.260597 121.32038 
L 205.615898 116.252047 
L 202.548492 105.860828 
L 202.090551 104.286293 
L 201.62767 103.668666 
L 200.209381 106.84892 
L 198.74662 109.563758 
L 198.249148 110.50596 
L 196.727059 114.706922 
L 195.160403 118.241304 
L 194.091149 120.172105 
L 193.001985 121.731855 
L 191.892852 122.900718 
L 190.76368 123.664787 
L 189.614393 124.016148 
L 188.444908 123.952839 
L 187.255141 123.478735 
L 186.04501 122.603321 
L 184.814437 121.341407 
L 183.563355 119.712746 
L 182.291709 117.741598 
L 180.345605 114.205499 
L 178.353122 110.320571 
L 176.999078 110.456902 
L 175.624535 110.363459 
L 174.229596 110.039187 
L 172.814403 109.485356 
L 171.379135 108.705535 
L 169.924011 107.793361 
L 164.678775 108.820203 
L 160.793365 109.345131 
L 157.606919 109.548063 
L 155.174116 109.529071 
L 152.706479 109.331103 
L 150.205878 108.926353 
L 147.674228 108.289424 
L 145.113468 107.398509 
L 142.525548 106.236511 
L 139.912432 104.792029 
L 137.276097 103.060183 
L 134.618557 101.04323 
L 131.94189 98.750936 
L 129.248279 96.200685 
L 124.727729 91.590625 
L 120.17904 91.011554 
L 115.617165 90.207332 
L 111.970497 89.362341 
L 108.338742 88.306958 
L 104.735602 87.016093 
L 101.177116 85.470324 
L 97.681775 83.657828 
L 94.270513 81.576018 
L 90.966578 79.232747 
L 87.795262 76.646991 
L 84.783501 73.848937 
L 81.959344 70.975113 
L 79.351308 67.957796 
L 76.987652 64.849455 
L 74.895586 61.719764 
L 73.100468 58.642834 
L 71.625003 55.693586 
L 70.488512 52.943997 
L 69.706275 50.459459 
L 69.289016 48.295473 
L 69.242518 46.708861 
L 69.451543 46.132751 
L 69.867955 45.828788 
L 70.488512 45.769831 
L 71.625003 45.955025 
L 76.987652 47.188303 
L 79.351308 47.36774 
L 81.959344 47.307169 
L 85.519962 48.115512 
L 88.574208 48.604833 
L 91.781148 49.108469 
L 94.270513 49.832485 
L 99.420301 51.261177 
L 103.841114 52.27693 
L 120.17904 55.500003 
L 128.347042 56.791885 
L 148.521442 59.864004 
L 159.208542 61.810435 
L 175.624535 64.84197 
L 184.814437 66.275012 
L 196.209797 68.043982 
L 202.548492 69.278559 
L 209.20743 70.566651 
L 213.082542 71.016521 
L 214.674179 70.983317 
L 215.881196 70.755128 
L 217.037114 70.343693 
L 218.423145 69.581823 
L 221.333187 67.625505 
L 225.134645 67.024257 
L 243.919312 64.064283 
L 245.232967 65.165689 
L 247.844508 68.474994 
L 250.43347 71.334234 
L 252.998105 73.71547 
L 255.536804 75.597688 
L 258.048103 76.967044 
L 259.293059 77.457073 
L 260.530684 77.817016 
L 261.760835 78.047204 
L 262.983381 78.148427 
L 266.604214 78.818533 
L 268.978086 78.860135 
L 271.31917 78.522158 
L 272.477253 78.215972 
L 273.62696 78.672881 
L 275.901088 80.001088 
L 278.14131 81.104145 
L 280.347506 81.996682 
L 282.519662 82.695035 
L 284.657868 83.216955 
L 287.801932 83.710494 
L 290.870954 84.022348 
L 293.866173 84.713942 
L 297.747561 85.347049 
L 302.458448 85.822088 
L 318.656805 87.085996 
L 323.23205 87.803773 
L 328.258404 88.843967 
L 332.306149 89.883163 
L 343.095099 92.982504 
L 346.756503 93.740196 
L 355.693547 95.12692 
L 358.373154 95.307216 
L 360.135786 95.751384 
L 362.08978 95.981465 
L 363.002371 96.118562 
L 365.992043 96.962042 
L 368.034437 97.324726 
L 368.829349 97.501949 
L 370.217556 97.786706 
L 372.881215 97.901497 
L 373.422892 97.343957 
L 373.479287 97.433661 
L 373.572927 98.14257 
L 373.580413 98.57128 
L 373.580413 98.57128 
" style="fill:none;stroke:#172c4b;stroke-linecap:square;stroke-opacity:0.3;"/>
   </g>
   <g id="line2d_25">
    <path clip-path="url(#pd0531c9aaf)" d="M 373.580986 98.646515 
L 373.457736 102.618374 
L 372.540341 112.150298 
L 371.985335 115.432678 
L 371.423594 117.437302 
L 371.172806 118.247818 
L 370.328351 121.562641 
L 368.794256 126.391469 
L 367.798928 128.85909 
L 366.759796 130.984449 
L 365.85725 132.402381 
L 364.882777 133.543755 
L 363.556779 134.841326 
L 362.103169 137.298023 
L 359.142477 141.995943 
L 358.421851 143.618115 
L 356.119335 148.972622 
L 354.038071 153.252687 
L 352.266804 156.384406 
L 350.876913 158.476422 
L 349.434976 160.286475 
L 347.941674 161.760819 
L 346.917971 162.532241 
L 346.397754 162.849292 
L 345.340729 164.35349 
L 343.714117 166.587555 
L 342.0388 168.406144 
L 340.895134 169.355168 
L 339.730181 170.073107 
L 338.544014 170.544672 
L 337.336663 170.837919 
L 336.108105 171.564905 
L 334.858259 172.09997 
L 333.586987 172.436116 
L 332.294087 172.568177 
L 330.979292 172.492888 
L 329.64227 172.208925 
L 328.282625 171.873434 
L 324.781346 174.342619 
L 321.126729 177.21304 
L 318.855865 179.180535 
L 315.731452 183.031214 
L 313.312028 185.660427 
L 310.824123 188.011732 
L 307.395346 191.022675 
L 296.283311 203.482107 
L 292.286531 207.493836 
L 289.189144 210.266265 
L 286.00549 212.739744 
L 283.835081 214.179108 
L 281.626432 215.420591 
L 279.379799 216.439039 
L 277.095564 217.210335 
L 274.774237 217.711758 
L 272.416459 217.922329 
L 270.023 217.82314 
L 267.594763 217.397668 
L 265.132779 216.63205 
L 262.638207 215.515336 
L 260.112332 214.039701 
L 257.556559 212.200618 
L 254.972411 209.99699 
L 251.046598 206.121484 
L 248.398906 203.080107 
L 245.729022 199.597791 
L 241.686942 193.718921 
L 237.606438 187.288257 
L 233.494896 180.266911 
L 229.359992 172.746722 
L 223.824376 162.122787 
L 222.438211 159.387639 
L 221.362887 156.629392 
L 220.505098 140.423981 
L 219.917172 135.753835 
L 219.766902 136.670412 
L 218.989197 144.096051 
L 218.327996 148.399091 
L 217.804532 150.483155 
L 217.440888 151.281149 
L 217.064634 151.587587 
L 216.871561 151.553716 
L 216.67508 151.400378 
L 215.853572 154.846707 
L 215.198146 156.831996 
L 214.507201 158.254367 
L 214.02612 158.871168 
L 213.528223 159.211834 
L 213.013151 159.268791 
L 212.480566 159.036247 
L 211.930145 158.510324 
L 211.361577 157.689165 
L 210.474033 155.905033 
L 209.543941 153.467937 
L 208.899724 151.640352 
L 207.896355 150.216542 
L 206.847511 148.243201 
L 205.751976 145.730457 
L 204.216391 141.577565 
L 202.171982 135.208593 
L 199.526663 126.127999 
L 199.064658 124.492218 
L 198.596477 123.379273 
L 197.641389 122.546237 
L 196.661001 121.346561 
L 195.142167 119.320687 
L 194.096937 119.232885 
L 193.025203 118.864262 
L 191.926688 118.224546 
L 190.80115 117.326192 
L 189.648385 116.184095 
L 187.867828 114.051714 
L 186.025237 111.474512 
L 183.471604 107.470543 
L 180.12394 101.842211 
L 179.433717 101.484227 
L 173.665516 102.922401 
L 169.839973 103.653188 
L 166.658744 104.045337 
L 163.37076 104.196143 
L 160.834905 104.113786 
L 158.239219 103.838003 
L 155.583706 103.349205 
L 152.868372 102.632156 
L 150.093297 101.676706 
L 147.258716 100.47834 
L 144.365125 99.038547 
L 141.413395 97.364963 
L 140.416787 96.757346 
L 139.413934 96.382265 
L 134.308927 96.524506 
L 130.122823 96.423997 
L 125.856792 96.085499 
L 121.524704 95.466935 
L 118.242963 94.796298 
L 114.943362 93.933313 
L 111.636634 92.867309 
L 108.334999 91.590928 
L 105.05215 90.100595 
L 101.803186 88.396883 
L 98.604511 86.484777 
L 95.473688 84.373819 
L 92.429255 82.078127 
L 89.490503 79.61627 
L 86.67722 77.011018 
L 84.009405 74.288964 
L 81.506965 71.480009 
L 79.189391 68.61676 
L 77.075428 65.733816 
L 75.182749 62.866999 
L 73.527634 60.052525 
L 72.124669 57.32616 
L 70.986469 54.722371 
L 70.123437 52.273511 
L 69.543561 50.009055 
L 69.252256 47.954913 
L 69.252256 46.672644 
L 69.543561 46.16946 
L 70.123437 45.765193 
L 70.667772 45.553842 
L 71.715289 45.570175 
L 73.527634 45.849472 
L 80.712956 47.176353 
L 84.009405 47.451009 
L 90.457131 47.651834 
L 92.429255 47.986242 
L 105.05215 50.952562 
L 110.534877 52.393814 
L 116.044582 53.583275 
L 121.524704 54.629305 
L 127.999024 56.31952 
L 134.308927 57.719755 
L 141.413395 59.034108 
L 150.093297 60.368732 
L 169.054701 63.174906 
L 177.321848 64.680359 
L 199.526663 68.898628 
L 211.361577 70.891162 
L 215.638946 71.62735 
L 217.254382 71.69443 
L 218.497018 71.53437 
L 219.615047 71.1518 
L 220.64948 70.557957 
L 221.362887 70.024405 
L 227.977858 69.421839 
L 247.066616 67.559722 
L 248.398906 67.425266 
L 251.046598 70.494521 
L 253.670204 73.136618 
L 256.267932 75.2555 
L 258.83809 76.835643 
L 260.112332 77.420996 
L 261.379097 77.869425 
L 262.638207 78.18122 
L 263.889489 78.357158 
L 266.36792 78.329469 
L 268.813167 79.610478 
L 271.224136 80.42676 
L 273.599859 80.79769 
L 277.095564 80.853609 
L 279.379799 81.246602 
L 281.626432 81.334312 
L 284.925077 81.039479 
L 287.076308 82.268662 
L 289.189144 83.28479 
L 291.263627 84.094291 
L 293.299912 84.705106 
L 295.298258 85.126618 
L 297.259021 85.369576 
L 299.182651 85.445995 
L 301.999652 85.277447 
L 304.736414 84.812679 
L 308.264813 84.085106 
L 310.824123 84.960755 
L 313.312028 85.480443 
L 315.731452 85.673756 
L 318.085316 85.578064 
L 320.376471 85.237318 
L 322.607637 84.700611 
L 325.493551 83.771401 
L 326.199709 83.514392 
L 328.965303 84.804614 
L 332.943256 86.95663 
L 340.895134 91.46326 
L 345.871997 93.403962 
L 347.941674 93.930243 
L 349.921364 94.237562 
L 353.164197 94.642597 
L 356.910414 95.458812 
L 359.142477 95.640359 
L 362.700425 95.809693 
L 363.831933 96.339076 
L 364.882777 96.581203 
L 365.85725 96.56699 
L 366.974714 96.469908 
L 368.408572 96.7922 
L 370.015554 97.092849 
L 371.041716 97.450229 
L 372.086717 97.751187 
L 372.620609 98.066713 
L 372.907767 97.933397 
L 373.457736 97.381211 
L 373.505808 97.460818 
L 373.577652 98.304655 
L 373.580986 98.646515 
L 373.580986 98.646515 
" style="fill:none;stroke:#172c4b;stroke-linecap:square;stroke-opacity:0.2;"/>
   </g>
   <g id="line2d_26">
    <path clip-path="url(#pd0531c9aaf)" d="M 373.581818 98.67462 
L 373.433601 104.660977 
L 372.400631 123.64942 
L 371.721571 131.108547 
L 371.138013 135.396156 
L 370.608408 137.912681 
L 370.173237 139.169709 
L 369.704453 139.837966 
L 369.372749 139.943245 
L 369.025332 139.772304 
L 368.661876 139.325707 
L 368.085894 138.148928 
L 367.471947 136.390399 
L 365.391009 141.525391 
L 364.614008 142.669538 
L 363.793599 143.430052 
L 363.22207 143.706053 
L 362.630553 143.78692 
L 362.327219 143.751945 
L 362.018793 144.171675 
L 356.835003 154.127599 
L 355.34794 156.762294 
L 352.526769 163.69752 
L 350.330207 168.537433 
L 348.001502 173.031163 
L 346.067877 176.22564 
L 344.551096 178.31666 
L 342.97561 180.101014 
L 340.781411 182.324292 
L 339.064156 184.697589 
L 337.28447 186.655569 
L 336.062926 187.697988 
L 334.813061 188.508745 
L 333.534675 189.070805 
L 332.22758 189.411853 
L 329.526515 193.4811 
L 326.708323 197.307939 
L 324.516768 199.951833 
L 322.257468 202.351214 
L 319.929387 204.463772 
L 317.531301 206.251638 
L 315.892991 207.247008 
L 314.222467 208.07573 
L 312.519215 208.731368 
L 309.901758 209.569285 
L 307.207415 211.200514 
L 306.291849 211.704968 
L 305.367422 212.798843 
L 299.630141 220.808585 
L 295.617654 226.042884 
L 292.506279 229.757021 
L 289.30548 233.175246 
L 287.12122 235.236617 
L 284.896267 237.086529 
L 282.630416 238.693168 
L 280.323578 240.025526 
L 277.975791 241.053867 
L 275.587237 241.750191 
L 273.158248 242.088677 
L 270.689319 242.04611 
L 268.181113 241.602269 
L 265.634473 240.740292 
L 263.050419 239.446992 
L 260.430158 237.713122 
L 257.775084 235.533592 
L 255.086774 232.907633 
L 252.36699 229.838893 
L 249.61767 226.335474 
L 246.840925 222.409909 
L 244.039029 218.079074 
L 241.214407 213.364035 
L 238.369624 208.289839 
L 234.07057 200.068962 
L 229.741773 191.216424 
L 225.393198 181.857365 
L 222.488215 175.403404 
L 221.381025 172.127758 
L 220.888029 153.949979 
L 220.741681 152.240655 
L 220.436222 162.229049 
L 219.844809 177.688006 
L 219.364549 184.798145 
L 219.048938 187.233313 
L 218.826069 188.055804 
L 218.592722 188.23016 
L 218.348496 187.759022 
L 218.093013 186.652825 
L 217.687904 183.84402 
L 216.79468 175.251884 
L 215.782956 164.1403 
L 215.037493 156.391891 
L 211.917922 126.70692 
L 211.661042 124.715367 
L 211.399151 124.459496 
L 210.859954 124.836256 
L 210.299555 124.849028 
L 209.717165 124.494546 
L 209.11199 123.775787 
L 208.483239 122.701829 
L 207.49421 120.77984 
L 206.803155 119.750291 
L 205.717223 117.609975 
L 204.578897 114.986138 
L 203.432383 118.076527 
L 202.223424 120.698874 
L 200.94973 122.793393 
L 200.063653 123.872274 
L 199.147428 124.683873 
L 198.20062 125.219748 
L 197.22286 125.474179 
L 196.213836 125.444214 
L 195.173284 125.129677 
L 194.100985 124.53315 
L 192.996748 123.659917 
L 191.860404 122.517883 
L 190.095325 120.324241 
L 189.490729 119.495215 
L 186.990487 121.675684 
L 185.02843 123.17383 
L 182.990607 124.478532 
L 180.875421 125.520473 
L 179.421324 126.035657 
L 177.931209 126.38503 
L 176.404244 126.5509 
L 174.839498 126.517178 
L 173.235947 126.269706 
L 171.592481 125.79655 
L 169.90792 125.088264 
L 168.181024 124.138124 
L 166.410523 122.94231 
L 164.595131 121.500051 
L 162.73358 119.813715 
L 159.852056 116.839574 
L 156.860207 113.361523 
L 153.75499 109.42699 
L 149.435001 103.579207 
L 147.197596 100.447414 
L 146.059638 100.417823 
L 142.569774 100.768414 
L 138.968985 100.940551 
L 135.26317 100.906968 
L 131.460796 100.642394 
L 127.573084 100.124437 
L 123.614146 99.437729 
L 119.601045 98.46788 
L 115.553781 97.196466 
L 111.4952 95.618156 
L 107.450816 93.734065 
L 103.448547 91.552071 
L 99.518375 89.08694 
L 95.69193 86.360239 
L 92.002003 83.400051 
L 88.482006 80.240489 
L 85.165391 76.921012 
L 82.085029 73.485577 
L 79.272587 69.981632 
L 76.757905 66.459005 
L 74.568387 62.968689 
L 72.728439 59.561597 
L 71.258952 56.287296 
L 70.176857 53.192774 
L 69.494759 50.32128 
L 69.266397 48.550071 
L 69.266397 46.655039 
L 69.494759 46.229275 
L 70.176857 45.605758 
L 71.258952 44.986477 
L 72.196526 44.572529 
L 72.728439 44.443636 
L 74.568387 44.533132 
L 77.5613 44.944807 
L 93.214754 47.566651 
L 98.229768 48.014137 
L 102.128946 48.163881 
L 106.110605 48.147662 
L 108.79569 48.692654 
L 116.905311 50.53922 
L 124.940714 53.212834 
L 142.569774 58.668779 
L 148.322736 60.077981 
L 153.75499 61.192017 
L 159.852056 62.206472 
L 167.301305 63.187283 
L 180.875421 64.88816 
L 186.344805 65.8167 
L 191.860404 66.972803 
L 204.578897 69.786826 
L 220.356622 72.153436 
L 220.888029 71.875805 
L 221.381025 71.426026 
L 226.844292 71.142255 
L 248.232587 69.969454 
L 261.744732 69.173945 
L 264.347052 71.955671 
L 266.912538 74.279678 
L 269.440077 76.056117 
L 271.928738 77.299292 
L 273.158248 77.780759 
L 275.587237 79.479332 
L 277.975791 80.777905 
L 280.323578 81.696954 
L 282.630416 82.260685 
L 286.013845 82.628492 
L 288.218419 83.477596 
L 290.382445 84.109848 
L 292.506279 84.551177 
L 295.617654 84.913285 
L 298.641371 84.995349 
L 302.540147 84.819624 
L 314.222467 83.997878 
L 316.716143 84.06737 
L 317.531301 84.279611 
L 319.929387 86.004279 
L 322.257468 87.394649 
L 324.516768 88.47336 
L 326.708323 89.26909 
L 328.833012 89.815408 
L 330.891589 90.221395 
L 333.534675 90.475575 
L 336.677225 90.475812 
L 339.643467 91.614602 
L 341.892021 92.23201 
L 343.507379 92.48987 
L 345.063143 92.559189 
L 346.560675 92.43827 
L 347.527426 92.36821 
L 351.227623 93.782746 
L 352.099901 93.843402 
L 353.362284 93.65015 
L 354.571014 93.171332 
L 356.102412 92.430457 
L 362.018793 95.206203 
L 364.34541 96.023163 
L 365.13677 96.359841 
L 366.818897 96.885675 
L 368.28205 97.239694 
L 369.372749 97.291958 
L 369.864512 97.369805 
L 370.746165 97.736916 
L 371.381715 97.790853 
L 372.127872 97.75374 
L 372.485933 98.054174 
L 372.721268 98.023224 
L 372.988266 97.764686 
L 373.402847 97.20496 
L 373.461369 97.264183 
L 373.542897 97.582455 
L 373.581818 98.67462 
L 373.581818 98.67462 
" style="fill:none;stroke:#172c4b;stroke-linecap:square;stroke-opacity:0.1;"/>
   </g>
   <g id="line2d_27">
    <path clip-path="url(#pd0531c9aaf)" d="M 373.579335 98.398077 
L 373.431872 98.395885 
L 370.878384 98.038824 
L 356.959647 95.819381 
L 310.731739 88.184761 
L 222.116234 73.292094 
L 124.867545 56.723683 
L 75.679545 48.153994 
L 69.218182 46.911965 
L 69.549156 46.935394 
L 73.43064 47.504644 
L 92.190089 50.529299 
L 145.308107 59.339193 
L 240.253288 75.335355 
L 330.267803 90.712643 
L 369.695031 97.626629 
L 373.579335 98.398077 
L 373.579335 98.398077 
" style="fill:none;stroke:#3b65ac;stroke-dasharray:5.55,2.4;stroke-dashoffset:0;stroke-width:1.5;"/>
   </g>
   <g id="line2d_28">
    <path clip-path="url(#pd0531c9aaf)" d="M 373.579335 98.398078 
L 69.218182 46.913584 
L 373.579335 98.398078 
" style="fill:none;stroke:#cba74e;stroke-dasharray:9.6,2.4,1.5,2.4;stroke-dashoffset:0;stroke-width:1.5;"/>
   </g>
   <g id="patch_3">
    <path d="M 54 252 
L 54 34.56 
" style="fill:none;stroke:#000000;stroke-linecap:square;stroke-linejoin:miter;stroke-width:0.8;"/>
   </g>
   <g id="patch_4">
    <path d="M 388.8 252 
L 388.8 34.56 
" style="fill:none;stroke:#000000;stroke-linecap:square;stroke-linejoin:miter;stroke-width:0.8;"/>
   </g>
   <g id="patch_5">
    <path d="M 54 252 
L 388.8 252 
" style="fill:none;stroke:#000000;stroke-linecap:square;stroke-linejoin:miter;stroke-width:0.8;"/>
   </g>
   <g id="patch_6">
    <path d="M 54 34.56 
L 388.8 34.56 
" style="fill:none;stroke:#000000;stroke-linecap:square;stroke-linejoin:miter;stroke-width:0.8;"/>
   </g>
   <g id="text_20">
    <!-- Work loop: Higher Harmonics (lower bound) -->
    <g transform="translate(89.944688 28.56)scale(0.12 -0.12)">
     <defs>
      <path d="M 3.328125 72.90625 
L 13.28125 72.90625 
L 28.609375 11.28125 
L 43.890625 72.90625 
L 54.984375 72.90625 
L 70.3125 11.28125 
L 85.59375 72.90625 
L 95.609375 72.90625 
L 77.296875 0 
L 64.890625 0 
L 49.515625 63.28125 
L 33.984375 0 
L 21.578125 0 
z
" id="DejaVuSans-87"/>
      <path d="M 41.109375 46.296875 
Q 39.59375 47.171875 37.8125 47.578125 
Q 36.03125 48 33.890625 48 
Q 26.265625 48 22.1875 43.046875 
Q 18.109375 38.09375 18.109375 28.8125 
L 18.109375 0 
L 9.078125 0 
L 9.078125 54.6875 
L 18.109375 54.6875 
L 18.109375 46.1875 
Q 20.953125 51.171875 25.484375 53.578125 
Q 30.03125 56 36.53125 56 
Q 37.453125 56 38.578125 55.875 
Q 39.703125 55.765625 41.0625 55.515625 
z
" id="DejaVuSans-114"/>
      <path d="M 9.078125 75.984375 
L 18.109375 75.984375 
L 18.109375 31.109375 
L 44.921875 54.6875 
L 56.390625 54.6875 
L 27.390625 29.109375 
L 57.625 0 
L 45.90625 0 
L 18.109375 26.703125 
L 18.109375 0 
L 9.078125 0 
z
" id="DejaVuSans-107"/>
      <path d="M 18.109375 8.203125 
L 18.109375 -20.796875 
L 9.078125 -20.796875 
L 9.078125 54.6875 
L 18.109375 54.6875 
L 18.109375 46.390625 
Q 20.953125 51.265625 25.265625 53.625 
Q 29.59375 56 35.59375 56 
Q 45.5625 56 51.78125 48.09375 
Q 58.015625 40.1875 58.015625 27.296875 
Q 58.015625 14.40625 51.78125 6.484375 
Q 45.5625 -1.421875 35.59375 -1.421875 
Q 29.59375 -1.421875 25.265625 0.953125 
Q 20.953125 3.328125 18.109375 8.203125 
z
M 48.6875 27.296875 
Q 48.6875 37.203125 44.609375 42.84375 
Q 40.53125 48.484375 33.40625 48.484375 
Q 26.265625 48.484375 22.1875 42.84375 
Q 18.109375 37.203125 18.109375 27.296875 
Q 18.109375 17.390625 22.1875 11.75 
Q 26.265625 6.109375 33.40625 6.109375 
Q 40.53125 6.109375 44.609375 11.75 
Q 48.6875 17.390625 48.6875 27.296875 
z
" id="DejaVuSans-112"/>
      <path d="M 11.71875 12.40625 
L 22.015625 12.40625 
L 22.015625 0 
L 11.71875 0 
z
M 11.71875 51.703125 
L 22.015625 51.703125 
L 22.015625 39.3125 
L 11.71875 39.3125 
z
" id="DejaVuSans-58"/>
      <path d="M 9.8125 72.90625 
L 19.671875 72.90625 
L 19.671875 43.015625 
L 55.515625 43.015625 
L 55.515625 72.90625 
L 65.375 72.90625 
L 65.375 0 
L 55.515625 0 
L 55.515625 34.71875 
L 19.671875 34.71875 
L 19.671875 0 
L 9.8125 0 
z
" id="DejaVuSans-72"/>
      <path d="M 45.40625 27.984375 
Q 45.40625 37.75 41.375 43.109375 
Q 37.359375 48.484375 30.078125 48.484375 
Q 22.859375 48.484375 18.828125 43.109375 
Q 14.796875 37.75 14.796875 27.984375 
Q 14.796875 18.265625 18.828125 12.890625 
Q 22.859375 7.515625 30.078125 7.515625 
Q 37.359375 7.515625 41.375 12.890625 
Q 45.40625 18.265625 45.40625 27.984375 
z
M 54.390625 6.78125 
Q 54.390625 -7.171875 48.1875 -13.984375 
Q 42 -20.796875 29.203125 -20.796875 
Q 24.46875 -20.796875 20.265625 -20.09375 
Q 16.0625 -19.390625 12.109375 -17.921875 
L 12.109375 -9.1875 
Q 16.0625 -11.328125 19.921875 -12.34375 
Q 23.78125 -13.375 27.78125 -13.375 
Q 36.625 -13.375 41.015625 -8.765625 
Q 45.40625 -4.15625 45.40625 5.171875 
L 45.40625 9.625 
Q 42.625 4.78125 38.28125 2.390625 
Q 33.9375 0 27.875 0 
Q 17.828125 0 11.671875 7.65625 
Q 5.515625 15.328125 5.515625 27.984375 
Q 5.515625 40.671875 11.671875 48.328125 
Q 17.828125 56 27.875 56 
Q 33.9375 56 38.28125 53.609375 
Q 42.625 51.21875 45.40625 46.390625 
L 45.40625 54.6875 
L 54.390625 54.6875 
z
" id="DejaVuSans-103"/>
      <path d="M 54.890625 33.015625 
L 54.890625 0 
L 45.90625 0 
L 45.90625 32.71875 
Q 45.90625 40.484375 42.875 44.328125 
Q 39.84375 48.1875 33.796875 48.1875 
Q 26.515625 48.1875 22.3125 43.546875 
Q 18.109375 38.921875 18.109375 30.90625 
L 18.109375 0 
L 9.078125 0 
L 9.078125 75.984375 
L 18.109375 75.984375 
L 18.109375 46.1875 
Q 21.34375 51.125 25.703125 53.5625 
Q 30.078125 56 35.796875 56 
Q 45.21875 56 50.046875 50.171875 
Q 54.890625 44.34375 54.890625 33.015625 
z
" id="DejaVuSans-104"/>
      <path d="M 52 44.1875 
Q 55.375 50.25 60.0625 53.125 
Q 64.75 56 71.09375 56 
Q 79.640625 56 84.28125 50.015625 
Q 88.921875 44.046875 88.921875 33.015625 
L 88.921875 0 
L 79.890625 0 
L 79.890625 32.71875 
Q 79.890625 40.578125 77.09375 44.375 
Q 74.3125 48.1875 68.609375 48.1875 
Q 61.625 48.1875 57.5625 43.546875 
Q 53.515625 38.921875 53.515625 30.90625 
L 53.515625 0 
L 44.484375 0 
L 44.484375 32.71875 
Q 44.484375 40.625 41.703125 44.40625 
Q 38.921875 48.1875 33.109375 48.1875 
Q 26.21875 48.1875 22.15625 43.53125 
Q 18.109375 38.875 18.109375 30.90625 
L 18.109375 0 
L 9.078125 0 
L 9.078125 54.6875 
L 18.109375 54.6875 
L 18.109375 46.1875 
Q 21.1875 51.21875 25.484375 53.609375 
Q 29.78125 56 35.6875 56 
Q 41.65625 56 45.828125 52.96875 
Q 50 49.953125 52 44.1875 
z
" id="DejaVuSans-109"/>
      <path d="M 31 75.875 
Q 24.46875 64.65625 21.28125 53.65625 
Q 18.109375 42.671875 18.109375 31.390625 
Q 18.109375 20.125 21.3125 9.0625 
Q 24.515625 -2 31 -13.1875 
L 23.1875 -13.1875 
Q 15.875 -1.703125 12.234375 9.375 
Q 8.59375 20.453125 8.59375 31.390625 
Q 8.59375 42.28125 12.203125 53.3125 
Q 15.828125 64.359375 23.1875 75.875 
z
" id="DejaVuSans-40"/>
      <path d="M 4.203125 54.6875 
L 13.1875 54.6875 
L 24.421875 12.015625 
L 35.59375 54.6875 
L 46.1875 54.6875 
L 57.421875 12.015625 
L 68.609375 54.6875 
L 77.59375 54.6875 
L 63.28125 0 
L 52.6875 0 
L 40.921875 44.828125 
L 29.109375 0 
L 18.5 0 
z
" id="DejaVuSans-119"/>
      <path d="M 48.6875 27.296875 
Q 48.6875 37.203125 44.609375 42.84375 
Q 40.53125 48.484375 33.40625 48.484375 
Q 26.265625 48.484375 22.1875 42.84375 
Q 18.109375 37.203125 18.109375 27.296875 
Q 18.109375 17.390625 22.1875 11.75 
Q 26.265625 6.109375 33.40625 6.109375 
Q 40.53125 6.109375 44.609375 11.75 
Q 48.6875 17.390625 48.6875 27.296875 
z
M 18.109375 46.390625 
Q 20.953125 51.265625 25.265625 53.625 
Q 29.59375 56 35.59375 56 
Q 45.5625 56 51.78125 48.09375 
Q 58.015625 40.1875 58.015625 27.296875 
Q 58.015625 14.40625 51.78125 6.484375 
Q 45.5625 -1.421875 35.59375 -1.421875 
Q 29.59375 -1.421875 25.265625 0.953125 
Q 20.953125 3.328125 18.109375 8.203125 
L 18.109375 0 
L 9.078125 0 
L 9.078125 75.984375 
L 18.109375 75.984375 
z
" id="DejaVuSans-98"/>
      <path d="M 8.5 21.578125 
L 8.5 54.6875 
L 17.484375 54.6875 
L 17.484375 21.921875 
Q 17.484375 14.15625 20.5 10.265625 
Q 23.53125 6.390625 29.59375 6.390625 
Q 36.859375 6.390625 41.078125 11.03125 
Q 45.3125 15.671875 45.3125 23.6875 
L 45.3125 54.6875 
L 54.296875 54.6875 
L 54.296875 0 
L 45.3125 0 
L 45.3125 8.40625 
Q 42.046875 3.421875 37.71875 1 
Q 33.40625 -1.421875 27.6875 -1.421875 
Q 18.265625 -1.421875 13.375 4.4375 
Q 8.5 10.296875 8.5 21.578125 
z
M 31.109375 56 
z
" id="DejaVuSans-117"/>
      <path d="M 8.015625 75.875 
L 15.828125 75.875 
Q 23.140625 64.359375 26.78125 53.3125 
Q 30.421875 42.28125 30.421875 31.390625 
Q 30.421875 20.453125 26.78125 9.375 
Q 23.140625 -1.703125 15.828125 -13.1875 
L 8.015625 -13.1875 
Q 14.5 -2 17.703125 9.0625 
Q 20.90625 20.125 20.90625 31.390625 
Q 20.90625 42.671875 17.703125 53.65625 
Q 14.5 64.65625 8.015625 75.875 
z
" id="DejaVuSans-41"/>
     </defs>
     <use xlink:href="#DejaVuSans-87"/>
     <use x="93.001953" xlink:href="#DejaVuSans-111"/>
     <use x="154.183594" xlink:href="#DejaVuSans-114"/>
     <use x="195.296875" xlink:href="#DejaVuSans-107"/>
     <use x="253.207031" xlink:href="#DejaVuSans-32"/>
     <use x="284.994141" xlink:href="#DejaVuSans-108"/>
     <use x="312.777344" xlink:href="#DejaVuSans-111"/>
     <use x="373.958984" xlink:href="#DejaVuSans-111"/>
     <use x="435.140625" xlink:href="#DejaVuSans-112"/>
     <use x="498.617188" xlink:href="#DejaVuSans-58"/>
     <use x="532.308594" xlink:href="#DejaVuSans-32"/>
     <use x="564.095703" xlink:href="#DejaVuSans-72"/>
     <use x="639.291016" xlink:href="#DejaVuSans-105"/>
     <use x="667.074219" xlink:href="#DejaVuSans-103"/>
     <use x="730.550781" xlink:href="#DejaVuSans-104"/>
     <use x="793.929688" xlink:href="#DejaVuSans-101"/>
     <use x="855.453125" xlink:href="#DejaVuSans-114"/>
     <use x="896.566406" xlink:href="#DejaVuSans-32"/>
     <use x="928.353516" xlink:href="#DejaVuSans-72"/>
     <use x="1003.548828" xlink:href="#DejaVuSans-97"/>
     <use x="1064.828125" xlink:href="#DejaVuSans-114"/>
     <use x="1104.191406" xlink:href="#DejaVuSans-109"/>
     <use x="1201.603516" xlink:href="#DejaVuSans-111"/>
     <use x="1262.785156" xlink:href="#DejaVuSans-110"/>
     <use x="1326.164062" xlink:href="#DejaVuSans-105"/>
     <use x="1353.947266" xlink:href="#DejaVuSans-99"/>
     <use x="1408.927734" xlink:href="#DejaVuSans-115"/>
     <use x="1461.027344" xlink:href="#DejaVuSans-32"/>
     <use x="1492.814453" xlink:href="#DejaVuSans-40"/>
     <use x="1531.828125" xlink:href="#DejaVuSans-108"/>
     <use x="1559.611328" xlink:href="#DejaVuSans-111"/>
     <use x="1620.792969" xlink:href="#DejaVuSans-119"/>
     <use x="1702.580078" xlink:href="#DejaVuSans-101"/>
     <use x="1764.103516" xlink:href="#DejaVuSans-114"/>
     <use x="1805.216797" xlink:href="#DejaVuSans-32"/>
     <use x="1837.003906" xlink:href="#DejaVuSans-98"/>
     <use x="1900.480469" xlink:href="#DejaVuSans-111"/>
     <use x="1961.662109" xlink:href="#DejaVuSans-117"/>
     <use x="2025.041016" xlink:href="#DejaVuSans-110"/>
     <use x="2088.419922" xlink:href="#DejaVuSans-100"/>
     <use x="2151.896484" xlink:href="#DejaVuSans-41"/>
    </g>
   </g>
  </g>
 </g>
 <defs>
  <clipPath id="pd0531c9aaf">
   <rect height="217.44" width="334.8" x="54" y="34.56"/>
  </clipPath>
 </defs>
</svg>
