<?xml version="1.0" encoding="UTF-8" standalone="no"?>
<svg
   width="460.8pt"
   height="345.6pt"
   viewBox="0 0 460.8 345.6"
   version="1.1"
   id="svg110"
   sodipodi:docname="workloop-higher.svg"
   inkscape:version="1.3.2 (091e20e, 2023-11-25)"
   xmlns:inkscape="http://www.inkscape.org/namespaces/inkscape"
   xmlns:sodipodi="http://sodipodi.sourceforge.net/DTD/sodipodi-0.dtd"
   xmlns:xlink="http://www.w3.org/1999/xlink"
   xmlns="http://www.w3.org/2000/svg"
   xmlns:svg="http://www.w3.org/2000/svg"
   xmlns:rdf="http://www.w3.org/1999/02/22-rdf-syntax-ns#"
   xmlns:cc="http://creativecommons.org/ns#"
   xmlns:dc="http://purl.org/dc/elements/1.1/">
  <sodipodi:namedview
     id="namedview110"
     pagecolor="#ffffff"
     bordercolor="#000000"
     borderopacity="0.25"
     inkscape:showpageshadow="2"
     inkscape:pageopacity="0.0"
     inkscape:pagecheckerboard="0"
     inkscape:deskcolor="#d1d1d1"
     inkscape:document-units="pt"
     inkscape:zoom="1.0376234"
     inkscape:cx="315.62512"
     inkscape:cy="193.23003"
     inkscape:window-width="1440"
     inkscape:window-height="786"
     inkscape:window-x="0"
     inkscape:window-y="71"
     inkscape:window-maximized="0"
     inkscape:current-layer="svg110" />
  <metadata
     id="metadata1">
    <rdf:RDF>
      <cc:Work>
        <dc:type
           rdf:resource="http://purl.org/dc/dcmitype/StillImage" />
        <dc:date>2024-07-30T18:15:00.156043</dc:date>
        <dc:format>image/svg+xml</dc:format>
        <dc:creator>
          <cc:Agent>
            <dc:title>Matplotlib v3.8.4, https://matplotlib.org/</dc:title>
          </cc:Agent>
        </dc:creator>
      </cc:Work>
    </rdf:RDF>
  </metadata>
  <defs
     id="defs1">
    <style
       type="text/css"
       id="style1">*{stroke-linejoin: round; stroke-linecap: butt}</style>
    <rect
       x="177.68452"
       y="103.41427"
       width="158.88193"
       height="18.802595"
       id="rect15" />
    <marker
       style="overflow:visible"
       id="ArrowWide"
       refX="0"
       refY="0"
       orient="auto-start-reverse"
       inkscape:stockid="Wide arrow"
       markerWidth="1"
       markerHeight="1"
       viewBox="0 0 1 1"
       inkscape:isstock="true"
       inkscape:collect="always"
       preserveAspectRatio="xMidYMid">
      <path
         style="fill:none;stroke:context-stroke;stroke-width:1;stroke-linecap:butt"
         d="M 3,-3 0,0 3,3"
         transform="rotate(180,0.125,0)"
         sodipodi:nodetypes="ccc"
         id="path16" />
    </marker>
    <linearGradient
       inkscape:collect="always"
       xlink:href="#linearGradient127"
       id="linearGradient128"
       x1="421.83893"
       y1="174.30756"
       x2="421.8472"
       y2="308.24585"
       gradientUnits="userSpaceOnUse"
       gradientTransform="translate(-3.9813583,1.082025)" />
    <linearGradient
       id="linearGradient127"
       inkscape:collect="always">
      <stop
         style="stop-color:#172c4b;stop-opacity:1;"
         offset="0"
         id="stop127" />
      <stop
         style="stop-color:#e6e8ec;stop-opacity:1;"
         offset="1"
         id="stop128" />
    </linearGradient>
    <marker
       style="overflow:visible"
       id="ArrowWideRounded"
       refX="0"
       refY="0"
       orient="auto-start-reverse"
       inkscape:stockid="Wide, rounded arrow"
       markerWidth="1"
       markerHeight="1"
       viewBox="0 0 1 1"
       inkscape:isstock="true"
       inkscape:collect="always"
       preserveAspectRatio="xMidYMid">
      <path
         style="fill:none;stroke:context-stroke;stroke-width:1;stroke-linecap:round"
         d="M 3,-3 0,0 3,3"
         transform="rotate(180,0.125,0)"
         sodipodi:nodetypes="ccc"
         id="path5" />
    </marker>
    <rect
       x="374.17163"
       y="57.347916"
       width="55.467655"
       height="14.101947"
       id="rect13" />
    <rect
       x="408.0163"
       y="94.953102"
       width="70.509727"
       height="24.443375"
       id="rect14" />
  </defs>
  <g
     id="figure_1">
    <g
       id="patch_1">
      <path
         d="M 0 345.6  L 460.8 345.6  L 460.8 0  L 0 0  z "
         style="fill: #ffffff"
         id="path1" />
    </g>
    <g
       id="axes_1">
      <g
         id="patch_2">
        <path
           d="M 57.6 307.584  L 414.72 307.584  L 414.72 41.472  L 57.6 41.472  z "
           style="fill: #ffffff"
           id="path2" />
      </g>
      <g
         id="matplotlib.axis_1">
        <g
           id="xtick_1">
          <g
             id="line2d_1">
            <defs
               id="defs2">
              <path
                 id="mf3cb74a09d"
                 d="M 0 0  L 0 3.5  "
                 style="stroke: #000000; stroke-width: 0.8" />
            </defs>
            <g
               id="g2">
              <use
                 xlink:href="#mf3cb74a09d"
                 x="81.749307"
                 y="307.584"
                 style="stroke: #000000; stroke-width: 0.8"
                 id="use2" />
            </g>
          </g>
          <g
             id="text_1">
            <!-- −2 -->
            <g
               transform="translate(72.903995 323.702125) scale(0.12 -0.12)"
               id="g4">
              <defs
                 id="defs3">
                <path
                   id="DejaVuSans-2212"
                   d="M 678 2272  L 4684 2272  L 4684 1741  L 678 1741  L 678 2272  z "
                   transform="scale(0.015625)" />
                <path
                   id="DejaVuSans-32"
                   d="M 1228 531  L 3431 531  L 3431 0  L 469 0  L 469 531  Q 828 903 1448 1529  Q 2069 2156 2228 2338  Q 2531 2678 2651 2914  Q 2772 3150 2772 3378  Q 2772 3750 2511 3984  Q 2250 4219 1831 4219  Q 1534 4219 1204 4116  Q 875 4013 500 3803  L 500 4441  Q 881 4594 1212 4672  Q 1544 4750 1819 4750  Q 2544 4750 2975 4387  Q 3406 4025 3406 3419  Q 3406 3131 3298 2873  Q 3191 2616 2906 2266  Q 2828 2175 2409 1742  Q 1991 1309 1228 531  z "
                   transform="scale(0.015625)" />
              </defs>
              <use
                 xlink:href="#DejaVuSans-2212"
                 id="use3" />
              <use
                 xlink:href="#DejaVuSans-32"
                 x="83.789062"
                 id="use4" />
            </g>
          </g>
        </g>
        <g
           id="xtick_2">
          <g
             id="line2d_2">
            <g
               id="g5">
              <use
                 xlink:href="#mf3cb74a09d"
                 x="158.952797"
                 y="307.584"
                 style="stroke: #000000; stroke-width: 0.8"
                 id="use5" />
            </g>
          </g>
          <g
             id="text_2">
            <!-- −1 -->
            <g
               transform="translate(150.107484 323.702125) scale(0.12 -0.12)"
               id="g7">
              <defs
                 id="defs5">
                <path
                   id="DejaVuSans-31"
                   d="M 794 531  L 1825 531  L 1825 4091  L 703 3866  L 703 4441  L 1819 4666  L 2450 4666  L 2450 531  L 3481 531  L 3481 0  L 794 0  L 794 531  z "
                   transform="scale(0.015625)" />
              </defs>
              <use
                 xlink:href="#DejaVuSans-2212"
                 id="use6" />
              <use
                 xlink:href="#DejaVuSans-31"
                 x="83.789062"
                 id="use7" />
            </g>
          </g>
        </g>
        <g
           id="xtick_3">
          <g
             id="line2d_3">
            <g
               id="g8">
              <use
                 xlink:href="#mf3cb74a09d"
                 x="236.156286"
                 y="307.584"
                 style="stroke: #000000; stroke-width: 0.8"
                 id="use8" />
            </g>
          </g>
          <g
             id="text_3">
            <!-- 0 -->
            <g
               transform="translate(232.338786 323.702125) scale(0.12 -0.12)"
               id="g9">
              <defs
                 id="defs8">
                <path
                   id="DejaVuSans-30"
                   d="M 2034 4250  Q 1547 4250 1301 3770  Q 1056 3291 1056 2328  Q 1056 1369 1301 889  Q 1547 409 2034 409  Q 2525 409 2770 889  Q 3016 1369 3016 2328  Q 3016 3291 2770 3770  Q 2525 4250 2034 4250  z M 2034 4750  Q 2819 4750 3233 4129  Q 3647 3509 3647 2328  Q 3647 1150 3233 529  Q 2819 -91 2034 -91  Q 1250 -91 836 529  Q 422 1150 422 2328  Q 422 3509 836 4129  Q 1250 4750 2034 4750  z "
                   transform="scale(0.015625)" />
              </defs>
              <use
                 xlink:href="#DejaVuSans-30"
                 id="use9" />
            </g>
          </g>
        </g>
        <g
           id="xtick_4">
          <g
             id="line2d_4">
            <g
               id="g10">
              <use
                 xlink:href="#mf3cb74a09d"
                 x="313.359776"
                 y="307.584"
                 style="stroke: #000000; stroke-width: 0.8"
                 id="use10" />
            </g>
          </g>
          <g
             id="text_4">
            <!-- 1 -->
            <g
               transform="translate(309.542276 323.702125) scale(0.12 -0.12)"
               id="g11">
              <use
                 xlink:href="#DejaVuSans-31"
                 id="use11" />
            </g>
          </g>
        </g>
        <g
           id="xtick_5">
          <g
             id="line2d_5">
            <g
               id="g12">
              <use
                 xlink:href="#mf3cb74a09d"
                 x="390.563266"
                 y="307.584"
                 style="stroke: #000000; stroke-width: 0.8"
                 id="use12" />
            </g>
          </g>
          <g
             id="text_5">
            <!-- 2 -->
            <g
               transform="translate(386.745766 323.702125) scale(0.12 -0.12)"
               id="g13">
              <use
                 xlink:href="#DejaVuSans-32"
                 id="use13" />
            </g>
          </g>
        </g>
        <g
           id="text_6">
          <!-- Inelastic load $G$ -->
          <g
             transform="translate(197.51 337.796187) scale(0.1 -0.1)"
             id="g29">
            <defs
               id="defs13">
              <path
                 id="DejaVuSans-49"
                 d="M 628 4666  L 1259 4666  L 1259 0  L 628 0  L 628 4666  z "
                 transform="scale(0.015625)" />
              <path
                 id="DejaVuSans-6e"
                 d="M 3513 2113  L 3513 0  L 2938 0  L 2938 2094  Q 2938 2591 2744 2837  Q 2550 3084 2163 3084  Q 1697 3084 1428 2787  Q 1159 2491 1159 1978  L 1159 0  L 581 0  L 581 3500  L 1159 3500  L 1159 2956  Q 1366 3272 1645 3428  Q 1925 3584 2291 3584  Q 2894 3584 3203 3211  Q 3513 2838 3513 2113  z "
                 transform="scale(0.015625)" />
              <path
                 id="DejaVuSans-65"
                 d="M 3597 1894  L 3597 1613  L 953 1613  Q 991 1019 1311 708  Q 1631 397 2203 397  Q 2534 397 2845 478  Q 3156 559 3463 722  L 3463 178  Q 3153 47 2828 -22  Q 2503 -91 2169 -91  Q 1331 -91 842 396  Q 353 884 353 1716  Q 353 2575 817 3079  Q 1281 3584 2069 3584  Q 2775 3584 3186 3129  Q 3597 2675 3597 1894  z M 3022 2063  Q 3016 2534 2758 2815  Q 2500 3097 2075 3097  Q 1594 3097 1305 2825  Q 1016 2553 972 2059  L 3022 2063  z "
                 transform="scale(0.015625)" />
              <path
                 id="DejaVuSans-6c"
                 d="M 603 4863  L 1178 4863  L 1178 0  L 603 0  L 603 4863  z "
                 transform="scale(0.015625)" />
              <path
                 id="DejaVuSans-61"
                 d="M 2194 1759  Q 1497 1759 1228 1600  Q 959 1441 959 1056  Q 959 750 1161 570  Q 1363 391 1709 391  Q 2188 391 2477 730  Q 2766 1069 2766 1631  L 2766 1759  L 2194 1759  z M 3341 1997  L 3341 0  L 2766 0  L 2766 531  Q 2569 213 2275 61  Q 1981 -91 1556 -91  Q 1019 -91 701 211  Q 384 513 384 1019  Q 384 1609 779 1909  Q 1175 2209 1959 2209  L 2766 2209  L 2766 2266  Q 2766 2663 2505 2880  Q 2244 3097 1772 3097  Q 1472 3097 1187 3025  Q 903 2953 641 2809  L 641 3341  Q 956 3463 1253 3523  Q 1550 3584 1831 3584  Q 2591 3584 2966 3190  Q 3341 2797 3341 1997  z "
                 transform="scale(0.015625)" />
              <path
                 id="DejaVuSans-73"
                 d="M 2834 3397  L 2834 2853  Q 2591 2978 2328 3040  Q 2066 3103 1784 3103  Q 1356 3103 1142 2972  Q 928 2841 928 2578  Q 928 2378 1081 2264  Q 1234 2150 1697 2047  L 1894 2003  Q 2506 1872 2764 1633  Q 3022 1394 3022 966  Q 3022 478 2636 193  Q 2250 -91 1575 -91  Q 1294 -91 989 -36  Q 684 19 347 128  L 347 722  Q 666 556 975 473  Q 1284 391 1588 391  Q 1994 391 2212 530  Q 2431 669 2431 922  Q 2431 1156 2273 1281  Q 2116 1406 1581 1522  L 1381 1569  Q 847 1681 609 1914  Q 372 2147 372 2553  Q 372 3047 722 3315  Q 1072 3584 1716 3584  Q 2034 3584 2315 3537  Q 2597 3491 2834 3397  z "
                 transform="scale(0.015625)" />
              <path
                 id="DejaVuSans-74"
                 d="M 1172 4494  L 1172 3500  L 2356 3500  L 2356 3053  L 1172 3053  L 1172 1153  Q 1172 725 1289 603  Q 1406 481 1766 481  L 2356 481  L 2356 0  L 1766 0  Q 1100 0 847 248  Q 594 497 594 1153  L 594 3053  L 172 3053  L 172 3500  L 594 3500  L 594 4494  L 1172 4494  z "
                 transform="scale(0.015625)" />
              <path
                 id="DejaVuSans-69"
                 d="M 603 3500  L 1178 3500  L 1178 0  L 603 0  L 603 3500  z M 603 4863  L 1178 4863  L 1178 4134  L 603 4134  L 603 4863  z "
                 transform="scale(0.015625)" />
              <path
                 id="DejaVuSans-63"
                 d="M 3122 3366  L 3122 2828  Q 2878 2963 2633 3030  Q 2388 3097 2138 3097  Q 1578 3097 1268 2742  Q 959 2388 959 1747  Q 959 1106 1268 751  Q 1578 397 2138 397  Q 2388 397 2633 464  Q 2878 531 3122 666  L 3122 134  Q 2881 22 2623 -34  Q 2366 -91 2075 -91  Q 1284 -91 818 406  Q 353 903 353 1747  Q 353 2603 823 3093  Q 1294 3584 2113 3584  Q 2378 3584 2631 3529  Q 2884 3475 3122 3366  z "
                 transform="scale(0.015625)" />
              <path
                 id="DejaVuSans-20"
                 transform="scale(0.015625)" />
              <path
                 id="DejaVuSans-6f"
                 d="M 1959 3097  Q 1497 3097 1228 2736  Q 959 2375 959 1747  Q 959 1119 1226 758  Q 1494 397 1959 397  Q 2419 397 2687 759  Q 2956 1122 2956 1747  Q 2956 2369 2687 2733  Q 2419 3097 1959 3097  z M 1959 3584  Q 2709 3584 3137 3096  Q 3566 2609 3566 1747  Q 3566 888 3137 398  Q 2709 -91 1959 -91  Q 1206 -91 779 398  Q 353 888 353 1747  Q 353 2609 779 3096  Q 1206 3584 1959 3584  z "
                 transform="scale(0.015625)" />
              <path
                 id="DejaVuSans-64"
                 d="M 2906 2969  L 2906 4863  L 3481 4863  L 3481 0  L 2906 0  L 2906 525  Q 2725 213 2448 61  Q 2172 -91 1784 -91  Q 1150 -91 751 415  Q 353 922 353 1747  Q 353 2572 751 3078  Q 1150 3584 1784 3584  Q 2172 3584 2448 3432  Q 2725 3281 2906 2969  z M 947 1747  Q 947 1113 1208 752  Q 1469 391 1925 391  Q 2381 391 2643 752  Q 2906 1113 2906 1747  Q 2906 2381 2643 2742  Q 2381 3103 1925 3103  Q 1469 3103 1208 2742  Q 947 2381 947 1747  z "
                 transform="scale(0.015625)" />
              <path
                 id="DejaVuSans-Oblique-47"
                 d="M 3494 697  L 3738 1919  L 2700 1919  L 2797 2438  L 4453 2438  L 4050 384  Q 3634 156 3143 32  Q 2653 -91 2156 -91  Q 1278 -91 783 396  Q 288 884 288 1753  Q 288 2475 589 3126  Q 891 3778 1422 4213  Q 1756 4484 2153 4617  Q 2550 4750 3034 4750  Q 3472 4750 3873 4639  Q 4275 4528 4641 4306  L 4513 3634  Q 4231 3928 3853 4083  Q 3475 4238 3047 4238  Q 2550 4238 2172 4048  Q 1794 3859 1497 3463  Q 1244 3125 1098 2667  Q 953 2209 953 1734  Q 953 1081 1287 751  Q 1622 422 2284 422  Q 2616 422 2925 492  Q 3234 563 3494 697  z "
                 transform="scale(0.015625)" />
            </defs>
            <use
               xlink:href="#DejaVuSans-49"
               transform="translate(0 0.015625)"
               id="use14" />
            <use
               xlink:href="#DejaVuSans-6e"
               transform="translate(29.492188 0.015625)"
               id="use15" />
            <use
               xlink:href="#DejaVuSans-65"
               transform="translate(92.871094 0.015625)"
               id="use16" />
            <use
               xlink:href="#DejaVuSans-6c"
               transform="translate(154.394531 0.015625)"
               id="use17" />
            <use
               xlink:href="#DejaVuSans-61"
               transform="translate(182.177734 0.015625)"
               id="use18" />
            <use
               xlink:href="#DejaVuSans-73"
               transform="translate(243.457031 0.015625)"
               id="use19" />
            <use
               xlink:href="#DejaVuSans-74"
               transform="translate(295.556641 0.015625)"
               id="use20" />
            <use
               xlink:href="#DejaVuSans-69"
               transform="translate(334.765625 0.015625)"
               id="use21" />
            <use
               xlink:href="#DejaVuSans-63"
               transform="translate(362.548828 0.015625)"
               id="use22" />
            <use
               xlink:href="#DejaVuSans-20"
               transform="translate(417.529297 0.015625)"
               id="use23" />
            <use
               xlink:href="#DejaVuSans-6c"
               transform="translate(449.316406 0.015625)"
               id="use24" />
            <use
               xlink:href="#DejaVuSans-6f"
               transform="translate(477.099609 0.015625)"
               id="use25" />
            <use
               xlink:href="#DejaVuSans-61"
               transform="translate(538.28125 0.015625)"
               id="use26" />
            <use
               xlink:href="#DejaVuSans-64"
               transform="translate(599.560547 0.015625)"
               id="use27" />
            <use
               xlink:href="#DejaVuSans-20"
               transform="translate(663.037109 0.015625)"
               id="use28" />
            <use
               xlink:href="#DejaVuSans-Oblique-47"
               transform="translate(694.824219 0.015625)"
               id="use29" />
          </g>
        </g>
      </g>
      <g
         id="matplotlib.axis_2">
        <g
           id="ytick_1">
          <g
             id="line2d_6">
            <defs
               id="defs29">
              <path
                 id="m75938b96ce"
                 d="M 0 0  L -3.5 0  "
                 style="stroke: #000000; stroke-width: 0.8" />
            </defs>
            <g
               id="g30">
              <use
                 xlink:href="#m75938b96ce"
                 x="57.6"
                 y="285.163879"
                 style="stroke: #000000; stroke-width: 0.8"
                 id="use30" />
            </g>
          </g>
          <g
             id="text_7">
            <!-- −40 -->
            <g
               transform="translate(25.274375 289.722942) scale(0.12 -0.12)"
               id="g33">
              <defs
                 id="defs30">
                <path
                   id="DejaVuSans-34"
                   d="M 2419 4116  L 825 1625  L 2419 1625  L 2419 4116  z M 2253 4666  L 3047 4666  L 3047 1625  L 3713 1625  L 3713 1100  L 3047 1100  L 3047 0  L 2419 0  L 2419 1100  L 313 1100  L 313 1709  L 2253 4666  z "
                   transform="scale(0.015625)" />
              </defs>
              <use
                 xlink:href="#DejaVuSans-2212"
                 id="use31" />
              <use
                 xlink:href="#DejaVuSans-34"
                 x="83.789062"
                 id="use32" />
              <use
                 xlink:href="#DejaVuSans-30"
                 x="147.412109"
                 id="use33" />
            </g>
          </g>
        </g>
        <g
           id="ytick_2">
          <g
             id="line2d_7">
            <g
               id="g34">
              <use
                 xlink:href="#m75938b96ce"
                 x="57.6"
                 y="229.843205"
                 style="stroke: #000000; stroke-width: 0.8"
                 id="use34" />
            </g>
          </g>
          <g
             id="text_8">
            <!-- −20 -->
            <g
               transform="translate(25.274375 234.402267) scale(0.12 -0.12)"
               id="g37">
              <use
                 xlink:href="#DejaVuSans-2212"
                 id="use35" />
              <use
                 xlink:href="#DejaVuSans-32"
                 x="83.789062"
                 id="use36" />
              <use
                 xlink:href="#DejaVuSans-30"
                 x="147.412109"
                 id="use37" />
            </g>
          </g>
        </g>
        <g
           id="ytick_3">
          <g
             id="line2d_8">
            <g
               id="g38">
              <use
                 xlink:href="#m75938b96ce"
                 x="57.6"
                 y="174.52253"
                 style="stroke: #000000; stroke-width: 0.8"
                 id="use38" />
            </g>
          </g>
          <g
             id="text_9">
            <!-- 0 -->
            <g
               transform="translate(42.965 179.081592) scale(0.12 -0.12)"
               id="g39">
              <use
                 xlink:href="#DejaVuSans-30"
                 id="use39" />
            </g>
          </g>
        </g>
        <g
           id="ytick_4">
          <g
             id="line2d_9">
            <g
               id="g40">
              <use
                 xlink:href="#m75938b96ce"
                 x="57.6"
                 y="119.201855"
                 style="stroke: #000000; stroke-width: 0.8"
                 id="use40" />
            </g>
          </g>
          <g
             id="text_10">
            <!-- 20 -->
            <g
               transform="translate(35.33 123.760918) scale(0.12 -0.12)"
               id="g42">
              <use
                 xlink:href="#DejaVuSans-32"
                 id="use41" />
              <use
                 xlink:href="#DejaVuSans-30"
                 x="63.623047"
                 id="use42" />
            </g>
          </g>
        </g>
        <g
           id="ytick_5">
          <g
             id="line2d_10">
            <g
               id="g43">
              <use
                 xlink:href="#m75938b96ce"
                 x="57.6"
                 y="63.881181"
                 style="stroke: #000000; stroke-width: 0.8"
                 id="use43" />
            </g>
          </g>
          <g
             id="text_11">
            <!-- 40 -->
            <g
               transform="translate(35.33 68.440243) scale(0.12 -0.12)"
               id="g45">
              <use
                 xlink:href="#DejaVuSans-34"
                 id="use44" />
              <use
                 xlink:href="#DejaVuSans-30"
                 x="63.623047"
                 id="use45" />
            </g>
          </g>
        </g>
        <g
           id="text_12">
          <!-- Elastic load $F$ -->
          <g
             transform="translate(19.194688 207.628) rotate(-90) scale(0.1 -0.1)"
             id="g59">
            <defs
               id="defs45">
              <path
                 id="DejaVuSans-45"
                 d="M 628 4666  L 3578 4666  L 3578 4134  L 1259 4134  L 1259 2753  L 3481 2753  L 3481 2222  L 1259 2222  L 1259 531  L 3634 531  L 3634 0  L 628 0  L 628 4666  z "
                 transform="scale(0.015625)" />
              <path
                 id="DejaVuSans-Oblique-46"
                 d="M 1081 4666  L 3756 4666  L 3653 4134  L 1606 4134  L 1338 2759  L 3188 2759  L 3084 2228  L 1234 2228  L 800 0  L 172 0  L 1081 4666  z "
                 transform="scale(0.015625)" />
            </defs>
            <use
               xlink:href="#DejaVuSans-45"
               transform="translate(0 0.015625)"
               id="use46" />
            <use
               xlink:href="#DejaVuSans-6c"
               transform="translate(63.183594 0.015625)"
               id="use47" />
            <use
               xlink:href="#DejaVuSans-61"
               transform="translate(90.966797 0.015625)"
               id="use48" />
            <use
               xlink:href="#DejaVuSans-73"
               transform="translate(152.246094 0.015625)"
               id="use49" />
            <use
               xlink:href="#DejaVuSans-74"
               transform="translate(204.345703 0.015625)"
               id="use50" />
            <use
               xlink:href="#DejaVuSans-69"
               transform="translate(243.554688 0.015625)"
               id="use51" />
            <use
               xlink:href="#DejaVuSans-63"
               transform="translate(271.337891 0.015625)"
               id="use52" />
            <use
               xlink:href="#DejaVuSans-20"
               transform="translate(326.318359 0.015625)"
               id="use53" />
            <use
               xlink:href="#DejaVuSans-6c"
               transform="translate(358.105469 0.015625)"
               id="use54" />
            <use
               xlink:href="#DejaVuSans-6f"
               transform="translate(385.888672 0.015625)"
               id="use55" />
            <use
               xlink:href="#DejaVuSans-61"
               transform="translate(447.070312 0.015625)"
               id="use56" />
            <use
               xlink:href="#DejaVuSans-64"
               transform="translate(508.349609 0.015625)"
               id="use57" />
            <use
               xlink:href="#DejaVuSans-20"
               transform="translate(571.826172 0.015625)"
               id="use58" />
            <use
               xlink:href="#DejaVuSans-Oblique-46"
               transform="translate(603.613281 0.015625)"
               id="use59" />
          </g>
        </g>
      </g>
      <g
         id="line2d_11">
        <path
           d="M 318.626936 180.773545  L 318.581102 180.791678  L 318.52395 180.77211  L 317.717766 180.293762  L 315.547492 179.058543  L 313.891314 178.35229  L 312.218822 177.857411  L 310.392542 177.54338  L 308.17998 177.41486  L 305.263218 177.506341  L 297.702467 177.867226  L 293.574493 177.773299  L 287.983655 177.397102  L 277.424428 176.665759  L 268.820267 176.342193  L 242.82542 175.678568  L 217.9641 175.420949  L 196.795744 174.618726  L 189.699704 174.120653  L 174.117143 172.843635  L 169.762374 172.865919  L 164.005539 172.914912  L 161.801846 172.679038  L 159.984428 172.258382  L 158.322532 171.641849  L 156.681177 170.776661  L 155.21252 169.754413  L 153.942866 168.617605  L 153.692088 168.25569  L 153.743628 168.256505  L 154.280077 168.554216  L 156.849899 170.027997  L 158.520712 170.72822  L 160.20367 171.212884  L 162.03873 171.514879  L 164.260124 171.631082  L 167.187544 171.530443  L 174.445211 171.178889  L 178.559664 171.263442  L 184.135627 171.632754  L 195.099164 172.389883  L 204.149222 172.722142  L 230.165498 173.370543  L 253.22122 173.588484  L 273.591459 174.329502  L 280.765652 174.771396  L 288.369794 175.479379  L 295.333891 176.082765  L 299.643369 176.219508  L 304.707456 176.116536  L 308.17998 176.123573  L 310.392542 176.346561  L 312.218822 176.75438  L 313.891314 177.359647  L 315.547492 178.217431  L 317.036801 179.241183  L 318.342105 180.398141  L 318.626936 180.773545  L 318.626936 180.773545  "
           clip-path="url(#p1e73951597)"
           style="fill: none; stroke: #172c4b; stroke-opacity: 0.81; stroke-linecap: square"
           id="path59" />
      </g>
      <g
         id="line2d_12">
        <path
           d="M 322.092512 183.770092  L 322.030471 183.816847  L 321.99565 183.80599  L 321.540397 183.489504  L 317.570686 180.358492  L 315.899456 179.379223  L 314.084145 178.589581  L 312.441477 178.112223  L 310.73573 177.829704  L 308.677476 177.721497  L 305.927557 177.829329  L 299.338534 178.191485  L 296.129006 178.101375  L 292.007195 177.734149  L 282.880598 176.803794  L 278.792698 176.657857  L 274.2483 176.723775  L 262.410682 177.019127  L 256.757842 176.831096  L 243.531829 176.250695  L 236.92616 176.277709  L 227.677876 176.314809  L 221.937321 176.096904  L 207.967794 175.43554  L 202.451264 175.504587  L 193.314443 175.658936  L 189.228871 175.465369  L 185.202108 175.054276  L 173.498164 173.68405  L 170.085493 173.634674  L 162.59719 173.66021  L 160.574819 173.340254  L 158.904355 172.847036  L 157.305316 172.139621  L 155.797473 171.235877  L 154.18855 169.996528  L 152.60825 168.479595  L 151.133534 166.747015  L 150.267576 165.434513  L 150.244316 165.228763  L 150.298552 165.232525  L 150.727646 165.519719  L 155.085671 168.907575  L 156.791401 169.853891  L 158.362569 170.502669  L 160.010999 170.963745  L 161.72151 171.230486  L 163.784788 171.323608  L 166.54135 171.204872  L 172.800297 170.854771  L 176.001234 170.933139  L 179.731632 171.24852  L 190.449527 172.298388  L 194.548515 172.390237  L 199.937854 172.252181  L 208.396496 172.017381  L 213.588071 172.124569  L 232.526013 172.801383  L 246.621179 172.782173  L 253.242533 173.117038  L 262.410682 173.579171  L 267.539952 173.593494  L 280.842364 173.444587  L 284.904759 173.741046  L 289.680345 174.334362  L 296.493207 175.199149  L 300.030603 175.403891  L 303.702053 175.374879  L 308.677476 175.312029  L 310.73573 175.512958  L 312.441477 175.884337  L 314.084145 176.467112  L 315.647972 177.260174  L 317.110453 178.233601  L 318.650784 179.519676  L 320.129967 181.029925  L 321.540397 182.790153  L 322.092512 183.770092  L 322.092512 183.770092  "
           clip-path="url(#p1e73951597)"
           style="fill: none; stroke: #172c4b; stroke-opacity: 0.71; stroke-linecap: square"
           id="path60" />
      </g>
      <g
         id="line2d_13">
        <path
           d="M 323.578564 185.86446  L 323.507323 185.953728  L 323.467349 185.945586  L 323.136978 185.727777  L 321.86273 184.515099  L 319.194167 182.006645  L 317.414949 180.599738  L 315.76332 179.534936  L 314.031547 178.684486  L 312.246229 178.092929  L 310.424896 177.768284  L 308.576055 177.684548  L 306.384761 177.819459  L 297.018597 178.71499  L 294.098459 178.615516  L 290.29446 178.25204  L 282.319899 177.41855  L 278.642245 177.278411  L 274.520871 177.35351  L 266.575704 177.81431  L 261.444259 177.978396  L 256.64943 177.917193  L 249.098094 177.554281  L 239.200675 177.130791  L 225.681516 176.630248  L 210.652425 175.854484  L 205.525231 175.926859  L 193.055097 176.282928  L 189.383437 176.06559  L 185.361141 175.597494  L 176.19398 174.408172  L 173.354516 174.310402  L 170.295904 174.434879  L 163.581458 174.849565  L 161.734788 174.67485  L 160.216921 174.334798  L 158.723179 173.792901  L 157.26281 173.042162  L 155.849513 172.093487  L 154.241078 170.736147  L 152.532862 168.957777  L 150.883853 166.885948  L 149.420199 164.668493  L 148.761864 163.335508  L 148.788573 163.091804  L 148.983472 163.172125  L 149.652506 163.748368  L 153.732021 167.552177  L 155.574007 168.910709  L 157.26281 169.893908  L 159.019618 170.639804  L 160.518782 171.057842  L 162.347454 171.318615  L 164.202807 171.349566  L 166.720817 171.136478  L 173.70303 170.367502  L 176.557205 170.348143  L 179.906252 170.567803  L 186.960697 171.365692  L 191.010681 171.686068  L 194.697482 171.768969  L 198.827529 171.642935  L 211.950507 171.062691  L 217.205695 171.184956  L 252.668858 172.799304  L 259.710568 173.154598  L 264.450059 173.179994  L 270.361937 172.961308  L 276.997774 172.734611  L 280.689666 172.820688  L 284.345428 173.120407  L 289.124492 173.763724  L 295.207109 174.563579  L 298.434606 174.73251  L 301.516186 174.644767  L 309.19521 174.218135  L 311.035306 174.452116  L 312.546641 174.850988  L 314.031547 175.455592  L 315.479431 176.267697  L 317.146623 177.491698  L 318.705373 178.927443  L 320.334082 180.742596  L 321.86273 182.770927  L 323.136978 184.808787  L 323.578564 185.86446  L 323.578564 185.86446  "
           clip-path="url(#p1e73951597)"
           style="fill: none; stroke: #172c4b; stroke-opacity: 0.61; stroke-linecap: square"
           id="path61" />
      </g>
      <g
         id="line2d_14">
        <path
           d="M 327.537052 189.5263  L 327.450043 189.674799  L 327.190926 189.534187  L 326.49281 188.820958  L 321.687027 183.522154  L 319.85731 181.964262  L 318.248179 180.879317  L 316.586888 180.051512  L 315.231626 179.593892  L 313.513653 179.276804  L 311.773351 179.215785  L 309.654091 179.404941  L 305.273177 180.149956  L 302.593522 180.467606  L 300.206956 180.512267  L 298.152282 180.347588  L 295.611974 179.904643  L 292.562177 179.106346  L 282.312548 176.152881  L 279.690672 175.767414  L 277.119442 175.647706  L 274.601384 175.782239  L 271.723969 176.193358  L 266.090327 177.338444  L 262.887521 177.853388  L 260.06825 178.083918  L 257.225337 178.087351  L 253.950155 177.866405  L 244.518401 177.074437  L 241.277833 177.096964  L 237.258539 177.366665  L 230.024958 177.900711  L 226.775842 177.891988  L 223.090523 177.645199  L 213.662741 176.84067  L 210.831962 176.914273  L 208.022381 177.227994  L 204.821776 177.833897  L 197.918733 179.27146  L 195.404978 179.534921  L 193.269691 179.568109  L 191.098135 179.409974  L 188.451051 178.96939  L 185.773295 178.293849  L 181.746098 177.014972  L 176.486037 175.370194  L 173.952177 174.797739  L 171.500876 174.472824  L 169.135705 174.398723  L 166.478521 174.561595  L 161.065657 175.028527  L 159.318729 174.931319  L 157.593826 174.583459  L 156.2316 174.090837  L 154.889705 173.393061  L 153.575256 172.490052  L 151.985946 171.094167  L 150.479419 169.453752  L 148.822108 167.280184  L 147.166516 164.693858  L 145.748014 162.062736  L 144.885588 160.033019  L 144.809547 159.391646  L 144.939753 159.389681  L 145.368639 159.73884  L 146.760179 161.320381  L 149.627213 164.53968  L 151.371858 166.198233  L 152.931284 167.430393  L 154.558182 168.442943  L 156.2316 169.186819  L 157.593826 169.575375  L 159.318729 169.811478  L 161.065657 169.804993  L 163.194479 169.561195  L 169.914658 168.564505  L 172.308403 168.540708  L 174.368978 168.724406  L 176.915644 169.188458  L 179.971048 170.00435  L 189.337699 172.756921  L 191.970906 173.20573  L 194.555345 173.39241  L 197.086506 173.318168  L 199.567549 173.023467  L 203.217007 172.328098  L 208.422805 171.327405  L 211.234899 171.017043  L 214.069133 170.93424  L 217.336569 171.090096  L 229.215279 171.986107  L 232.846636 171.85219  L 244.518401 171.127663  L 247.785788 171.278188  L 252.717309 171.767674  L 257.225337 172.157555  L 260.06825 172.197255  L 262.887521 172.003297  L 265.690408 171.578394  L 269.69937 170.711293  L 273.773187 169.870936  L 276.274282 169.554941  L 278.827679 169.471836  L 280.995749 169.610505  L 283.639509 170.029169  L 286.31544 170.687601  L 290.343578 171.955537  L 295.611974 173.617297  L 298.152282 174.208657  L 300.61072 174.555038  L 302.982995 174.648889  L 305.647577 174.501236  L 311.422628 174.016834  L 313.16733 174.136251  L 314.547288 174.413941  L 315.91169 174.88157  L 317.25646 175.553428  L 318.574821 176.431234  L 320.170976 177.799166  L 321.687027 179.41842  L 323.35985 181.579089  L 325.039499 184.170962  L 326.49281 186.836224  L 327.401241 188.932843  L 327.537052 189.5263  L 327.537052 189.5263  "
           clip-path="url(#p1e73951597)"
           style="fill: none; stroke: #172c4b; stroke-opacity: 0.51; stroke-linecap: square"
           id="path62" />
      </g>
      <g
         id="line2d_15">
        <path
           d="M 332.043581 194.541688  L 331.933889 194.802915  L 331.708914 194.746752  L 331.223906 194.348743  L 329.898276 192.861818  L 325.041029 187.180046  L 322.77321 184.919697  L 320.778104 183.2318  L 318.723808 181.817995  L 317.056184 180.922326  L 315.378424 180.249019  L 313.697575 179.794459  L 312.017585 179.541465  L 309.920354 179.464099  L 307.403581 179.621293  L 299.726222 180.322542  L 297.082475 180.244947  L 294.387801 179.924274  L 291.187939 179.277281  L 286.089702 177.94029  L 281.924994 176.922299  L 278.731421 176.378758  L 276.042171 176.146838  L 273.403121 176.130794  L 270.386608 176.3299  L 260.824176 177.192582  L 257.984678 177.125714  L 254.780644 176.805536  L 245.630636 175.675008  L 243.492471 175.738266  L 241.414829 176.023853  L 239.387354 176.515933  L 236.733493 177.40226  L 231.74781 179.141007  L 229.344892 179.695858  L 227.222472 179.954822  L 225.036063 180.009532  L 222.023713 179.826334  L 213.721937 179.117676  L 210.876216 179.174565  L 208.001722 179.444331  L 203.411431 180.143919  L 199.127088 180.727842  L 196.492268 180.888591  L 193.807086 180.833788  L 191.076274 180.542977  L 187.847318 179.935117  L 183.204539 178.76745  L 178.605868 177.648657  L 175.45274 177.122489  L 172.804712 176.912663  L 170.206208 176.919884  L 166.381428 177.187573  L 163.021083 177.383775  L 160.924445 177.313783  L 159.245214 177.07595  L 157.564382 176.632118  L 155.88481 175.950826  L 154.212354 175.012566  L 152.556083 173.811942  L 150.9283 172.358992  L 149.344362 170.67952  L 147.453782 168.325229  L 145.699696 165.790438  L 143.834823 162.698483  L 142.082088 159.341956  L 140.761147 156.309004  L 140.284441 154.700754  L 140.311888 154.294796  L 140.476041 154.243543  L 140.882501 154.505215  L 141.874727 155.548128  L 148.574381 163.205171  L 150.527542 164.998768  L 152.556083 166.558691  L 154.212354 167.588619  L 155.88481 168.401402  L 157.564382 168.991491  L 159.245214 169.36778  L 161.343924 169.571703  L 163.440369 169.541267  L 166.381428 169.261436  L 171.499644 168.757218  L 174.122277 168.738609  L 176.796009 168.95806  L 179.518136 169.412529  L 183.204539 170.291857  L 190.617375 172.170348  L 193.807086 172.694189  L 196.492268 172.907489  L 199.127088 172.906869  L 202.564313 172.651516  L 210.876216 171.866489  L 213.721937 171.886706  L 216.536234 172.116269  L 220.868216 172.740205  L 225.036063 173.282912  L 227.580588 173.370183  L 229.692693 173.214753  L 231.74781 172.839096  L 234.090982 172.165529  L 242.446582 169.446376  L 244.553596 169.135293  L 246.723857 169.031301  L 249.336235 169.137087  L 254.383997 169.654096  L 257.984678 169.911615  L 260.824176 169.901291  L 263.692305 169.674595  L 267.42887 169.140539  L 272.968194 168.3388  L 276.042171 168.152262  L 278.731421 168.2265  L 281.46563 168.536622  L 284.697069 169.162293  L 289.339733 170.338636  L 293.934043 171.442947  L 296.636834 171.894668  L 299.289151 172.123666  L 301.89155 172.132905  L 305.720313 171.875145  L 309.501113 171.659201  L 311.597914 171.751057  L 313.277407 172.012578  L 314.958296 172.484592  L 316.637364 173.19721  L 318.308359 174.168279  L 319.961807 175.401316  L 321.585009 176.884312  L 323.162247 178.58952  L 325.041029 180.967221  L 326.779153 183.51307  L 328.619201 186.59946  L 330.335599 189.922675  L 331.607213 192.886525  L 332.036714 194.41608  L 332.043581 194.541688  L 332.043581 194.541688  "
           clip-path="url(#p1e73951597)"
           style="fill: none; stroke: #172c4b; stroke-opacity: 0.41; stroke-linecap: square"
           id="path63" />
      </g>
      <g
         id="line2d_16">
        <path
           d="M 335.532947 198.923768  L 335.406202 199.31348  L 335.146281 199.295065  L 334.586058 198.870711  L 333.56045 197.751988  L 330.563747 194.012811  L 327.462152 190.271238  L 324.859586 187.47585  L 322.575981 185.359309  L 320.703574 183.887026  L 318.809436 182.653169  L 316.906998 181.677565  L 315.00592 180.962084  L 313.112198 180.49177  L 311.228484 180.237028  L 308.887398 180.158215  L 305.625079 180.319163  L 300.48185 180.60321  L 297.642103 180.510485  L 295.250912 180.227141  L 292.354596 179.635872  L 288.953495 178.668541  L 279.849968 175.86922  L 277.093425 175.358304  L 274.859055 175.163525  L 272.684652 175.183036  L 270.152425 175.45796  L 267.292974 176.027503  L 260.257225 177.602352  L 257.968158 177.85238  L 255.69537 177.895566  L 253.066095 177.714851  L 248.644325 177.118333  L 245.434149 176.788028  L 243.013862 176.778914  L 240.991093 176.987406  L 238.679921 177.464203  L 235.425384 178.412037  L 231.820586 179.409471  L 229.469017 179.813647  L 227.402802 179.958927  L 224.929214 179.904668  L 220.919917 179.531884  L 217.559313 179.281673  L 214.914087 179.31771  L 212.629291 179.579208  L 210.325338 180.060977  L 207.207952 180.97257  L 201.534626 182.703311  L 198.98189 183.21298  L 196.789464 183.432265  L 194.53742 183.434229  L 192.229482 183.215149  L 189.396967 182.692082  L 185.545177 181.691374  L 179.231594 179.997261  L 176.341957 179.457299  L 173.483401 179.164324  L 170.656164 179.112508  L 166.454652 179.312506  L 162.724223 179.414095  L 160.378911 179.235376  L 158.491327 178.868422  L 156.594365 178.249297  L 154.691883 177.34037  L 152.791223 176.118365  L 150.903459 174.576996  L 149.043418 172.728584  L 147.229471 170.604498  L 145.483082 168.254361  L 143.431664 165.100468  L 141.573098 161.853675  L 139.668423 158.082708  L 137.9974 154.244867  L 137.018855 151.422498  L 136.78161 150.203399  L 136.876707 149.754277  L 137.113289 149.728685  L 137.488398 149.963316  L 138.408121 150.894051  L 140.571631 153.546829  L 144.642617 158.535223  L 147.229471 161.344282  L 149.504882 163.486642  L 151.373443 164.986433  L 153.265676 166.25155  L 155.167682 167.2599  L 157.069331 168.007407  L 158.964182 168.507022  L 160.849189 168.786663  L 163.191637 168.888542  L 166.454652 168.742722  L 172.066198 168.44036  L 174.908568 168.554112  L 177.301988 168.857022  L 180.200379 169.46967  L 183.602237 170.453463  L 192.229482 173.12083  L 194.992476 173.655384  L 197.232768 173.871849  L 199.413171 173.87319  L 201.952178 173.618997  L 204.818338 173.064018  L 212.629291 171.361269  L 214.914087 171.162597  L 217.182843 171.169439  L 219.805989 171.393416  L 227.750638 172.290087  L 229.80864 172.232979  L 231.820586 171.974911  L 234.122957 171.452585  L 242.334609 169.297522  L 244.388542 169.104669  L 246.847714 169.111251  L 250.102957 169.379442  L 254.56522 169.756482  L 257.208811 169.739048  L 259.492231 169.496278  L 261.794329 169.031975  L 264.907765 168.13554  L 270.987541 166.290724  L 273.547218 165.800986  L 275.745661 165.602562  L 278.003527 165.622949  L 280.3167 165.863368  L 283.154234 166.4073  L 287.009911 167.42242  L 292.838997 168.992992  L 295.730932 169.551812  L 298.592211 169.866049  L 301.421852 169.936119  L 305.159331 169.773859  L 309.354584 169.626455  L 311.698442 169.779221  L 313.584741 170.117884  L 315.480674 170.703171  L 317.382793 171.574276  L 319.284209 172.756434  L 321.17432 174.258165  L 323.038762 176.069524  L 324.859586 178.161505  L 326.615684 180.48668  L 328.683606 183.622244  L 330.563747 186.867446  L 332.500871 190.660293  L 334.217736 194.555184  L 335.248435 197.46207  L 335.525012 198.75219  L 335.532947 198.923768  L 335.532947 198.923768  "
           clip-path="url(#p1e73951597)"
           style="fill: none; stroke: #172c4b; stroke-opacity: 0.31; stroke-linecap: square"
           id="path64" />
      </g>
      <g
         id="line2d_17">
        <path
           d="M 339.50618 204.127645  L 339.425668 204.597421  L 339.185118 204.756252  L 338.787457 204.609184  L 338.021394 203.959911  L 336.708315 202.492156  L 333.065462 197.925405  L 329.410516 193.49934  L 326.904019 190.753514  L 324.290049 188.217323  L 322.152408 186.422886  L 319.994779 184.88439  L 317.832702 183.625266  L 315.677676 182.649712  L 313.537271 181.943945  L 311.415452 181.478557  L 308.790391 181.170339  L 305.674961 181.069092  L 297.965436 180.981173  L 294.880192 180.656474  L 291.7869 180.075856  L 288.691738 179.264516  L 284.076795 177.793484  L 279.060167 176.221774  L 276.143026 175.515478  L 273.314076 175.076916  L 271.029997 174.932861  L 268.378683 175.005712  L 265.403492 175.347464  L 256.719237 176.596321  L 254.122769 176.62652  L 251.248819 176.398378  L 244.285745 175.646265  L 242.473626 175.760892  L 240.736596 176.120472  L 239.062167 176.719029  L 237.162422 177.65571  L 231.717683 180.551398  L 229.98644 181.139099  L 228.180887 181.511861  L 226.294835 181.682676  L 223.655886 181.6894  L 218.73652 181.655736  L 216.155902 181.887286  L 213.501379 182.37902  L 210.370394 183.227585  L 203.716619 185.158478  L 201.057235 185.653232  L 198.766361 185.868321  L 196.408817 185.876349  L 193.989268 185.675385  L 191.015136 185.191042  L 186.960093 184.26887  L 180.783675 182.83667  L 177.689878 182.329111  L 174.603931 182.04081  L 171.011206 181.961318  L 163.260972 181.956879  L 161.160968 181.727233  L 159.041591 181.286083  L 156.903361 180.577554  L 155.289322 179.842269  L 153.669388 178.915375  L 152.047567 177.787184  L 149.891504 175.963939  L 147.757652 173.784796  L 145.665927 171.278629  L 143.639717 168.494689  L 141.705241 165.500969  L 139.459215 161.592778  L 137.457532 157.677367  L 135.456181 153.254631  L 133.973107 149.454783  L 133.07635 146.572165  L 132.808631 145.025869  L 132.915938 144.399615  L 133.182928 144.292324  L 133.606356 144.489355  L 134.405215 145.200717  L 135.755898 146.735269  L 145.152251 158.024037  L 147.757652 160.587358  L 149.891504 162.411173  L 152.047567 163.983343  L 154.2098 165.278005  L 156.366199 166.288602  L 158.508719 167.026777  L 160.632966 167.520146  L 163.260972 167.855115  L 166.37917 167.974605  L 174.603931 168.081653  L 177.689878 168.427146  L 180.783675 169.028767  L 183.878467 169.85645  L 188.997878 171.503966  L 193.498555 172.890993  L 196.408817 173.576974  L 199.22996 173.991581  L 201.507234 174.115838  L 204.150506 174.022777  L 207.117044 173.666073  L 215.405065 172.460161  L 218.006793 172.412822  L 220.532966 172.587317  L 228.48732 173.391847  L 230.279873 173.217728  L 231.999817 172.796195  L 233.661315 172.143681  L 235.821223 171.014505  L 239.892598 168.796585  L 241.596345 168.125422  L 243.369789 167.662286  L 245.22198 167.411528  L 247.485208 167.337085  L 254.857097 167.304291  L 257.474584 166.944952  L 260.167401 166.326391  L 264.164228 165.130185  L 268.378683 163.937353  L 271.029997 163.423945  L 273.314076 163.189171  L 275.665108 163.15995  L 278.078759 163.340621  L 281.047032 163.805084  L 285.096848 164.713501  L 291.7869 166.258223  L 294.880192 166.748615  L 297.965436 167.018282  L 301.557997 167.081578  L 308.790391 167.07134  L 311.415452 167.360192  L 313.537271 167.83186  L 315.677676 168.577317  L 317.292923 169.343638  L 318.913483 170.303558  L 320.535142 171.465843  L 322.689387 173.334442  L 324.819138 175.556469  L 326.904019 178.100456  L 328.920245 180.914695  L 330.841302 183.929027  L 333.065462 187.846785  L 335.039596 191.751863  L 337.000858 196.135356  L 338.437362 199.869076  L 339.282942 202.66437  L 339.50618 204.127645  L 339.50618 204.127645  "
           clip-path="url(#p1e73951597)"
           style="fill: none; stroke: #172c4b; stroke-opacity: 0.21; stroke-linecap: square"
           id="path65" />
      </g>
      <g
         id="line2d_18">
        <path
           d="M 347.499703 216.485805  L 347.391415 217.237244  L 347.199441 217.494802  L 346.912766 217.558403  L 346.532916 217.430851  L 345.792965 216.891802  L 344.502821 215.562245  L 342.440506 213.031268  L 337.669221 206.664267  L 332.587279 200.00321  L 329.158584 195.820241  L 325.623887 191.874244  L 322.763277 188.998722  L 319.903997 186.43871  L 317.068989 184.230333  L 314.276053 182.386878  L 311.53795 180.900288  L 308.862746 179.743885  L 306.254366 178.876068  L 303.713305 178.244701  L 300.62823 177.699588  L 295.883465 177.126134  L 290.23197 176.422379  L 286.433241 175.735786  L 281.731253 174.623896  L 275.344778 173.077142  L 272.58479 172.646594  L 270.384161 172.51247  L 268.275747 172.607831  L 266.258104 172.931637  L 264.326659 173.459411  L 262.112219 174.297915  L 258.628072 175.916118  L 255.330258 177.365053  L 253.411977 177.988556  L 251.527535 178.38105  L 249.673367 178.552548  L 247.249806 178.520568  L 240.655092 178.230583  L 238.487506 178.437605  L 235.292797 178.998973  L 232.06788 179.496413  L 229.571454 179.626175  L 226.398817 179.5247  L 223.098013 179.468498  L 221.251381 179.63767  L 219.374656 180.042805  L 217.465439 180.726133  L 215.516427 181.690158  L 213.175725 183.112642  L 207.030565 187.018323  L 204.6515 188.189268  L 202.570615 188.971125  L 200.397613 189.549388  L 198.133237 189.923098  L 195.300492 190.134487  L 191.344054 190.143533  L 183.451421 190.071887  L 178.439433 190.310376  L 171.380213 190.691482  L 168.285264 190.61132  L 165.735859 190.318905  L 163.119036 189.746091  L 161.112581 189.090663  L 159.070265 188.211933  L 156.995016 187.086986  L 154.891193 185.6977  L 152.764693 184.031775  L 150.623025 182.083615  L 148.475329 179.855012  L 146.332354 177.355608  L 144.206377 174.603097  L 141.422013 170.584876  L 138.728052 166.245051  L 136.163086 161.686821  L 133.767384 157.030675  L 131.07251 151.275319  L 128.781701 145.8443  L 126.963826 141.001297  L 125.676061 136.983331  L 124.960208 133.982097  L 124.815881 132.403697  L 124.960208 131.725161  L 125.175973 131.516252  L 125.486105 131.500775  L 125.888952 131.675459  L 126.662285 132.282353  L 127.994292 133.694856  L 130.103628 136.3134  L 135.546702 143.591652  L 140.061375 149.465237  L 143.503823 153.633136  L 147.045427 157.545708  L 149.907298 160.384558  L 152.764693 162.902115  L 155.595311 165.065146  L 158.38199 166.86314  L 161.112581 168.306653  L 163.779569 169.424447  L 166.379499 170.259691  L 169.535177 170.987903  L 173.191071 171.549408  L 184.536729 173.042267  L 188.777775 173.968595  L 198.133237 176.179253  L 200.839591 176.493336  L 202.99413 176.514097  L 205.056779 176.302877  L 207.030565 175.872655  L 209.290476 175.118134  L 211.796514 174.029959  L 217.143639 171.619716  L 219.058843 171.014843  L 220.940692 170.641699  L 222.792357 170.486969  L 225.212238 170.533084  L 231.520212 170.820762  L 233.690939 170.625791  L 236.886838 170.071252  L 240.108346 169.562921  L 242.600162 169.419873  L 245.766616 169.513162  L 249.062059 169.582098  L 250.906157 169.429672  L 252.780346 169.0463  L 254.686647 168.386845  L 256.631939 167.44524  L 258.966776 166.042334  L 265.475537 161.921084  L 267.865059 160.768967  L 269.955101 160.006742  L 272.137323 159.449289  L 274.410684 159.095169  L 277.25356 158.902626  L 281.222066 158.906621  L 288.588885 158.979078  L 293.588909 158.753304  L 301.23744 158.350818  L 304.342339 158.457409  L 306.900118 158.780961  L 308.862746 159.209619  L 310.863033 159.83033  L 312.899539 160.670139  L 314.969561 161.752648  L 317.068989 163.096854  L 319.192187 164.716094  L 321.331917 166.617133  L 323.479312 168.799449  L 325.623887 171.25473  L 327.753611 173.966627  L 330.546693 177.938421  L 333.254017 182.243285  L 335.837287 186.780495  L 338.256374 191.431458  L 340.987543 197.204328  L 343.322015 202.679912  L 345.18998 207.592977  L 346.532916 211.702953  L 347.307342 214.812862  L 347.499703 216.485805  L 347.499703 216.485805  "
           clip-path="url(#p1e73951597)"
           style="fill: none; stroke: #172c4b; stroke-opacity: 0.11; stroke-linecap: square"
           id="path66" />
      </g>
      <g
         id="line2d_19">
        <path
           d="M 398.487273 291.665628  L 398.368478 293.350831  L 398.012644 294.550621  L 397.746309 294.967592  L 397.421416 295.262595  L 397.038339 295.435899  L 396.597519 295.488  L 395.544736 295.231689  L 394.267877 294.502027  L 392.772735 293.310757  L 391.066039 291.672835  L 388.1262 288.418527  L 384.75673 284.272301  L 379.652676 277.502992  L 373.928699 269.522456  L 362.700332 253.380399  L 346.728332 230.430633  L 337.475897 217.502325  L 328.173575 204.928414  L 320.800574 195.322061  L 313.565474 186.24036  L 306.52992 177.761217  L 299.746831 169.932604  L 293.260641 162.776929  L 287.107808 156.296502  L 281.317507 150.479599  L 275.912434 145.306629  L 269.723325 139.713106  L 264.185237 135.056971  L 260.232493 131.99444  L 256.707553 129.521702  L 253.609958 127.649865  L 251.565208 126.651659  L 249.756301 126.012422  L 248.17959 125.743273  L 247.255161 125.7749  L 246.430179 125.978904  L 245.702733 126.357889  L 245.070672 126.913925  L 244.531597 127.648405  L 244.082854 128.561916  L 243.572666 130.266823  L 243.248173 132.367862  L 243.097122 134.853436  L 243.141939 138.733644  L 243.43547 143.203728  L 244.09275 149.494755  L 245.198927 157.806193  L 247.197418 170.95615  L 250.232459 190.951684  L 251.072058 198.010819  L 251.337422 201.828881  L 251.326293 204.089778  L 251.10795 205.632052  L 250.806784 206.321804  L 250.541022 206.564455  L 250.224039 206.638111  L 249.856815 206.547766  L 249.214556 206.117331  L 248.467287 205.352278  L 247.318536 203.852508  L 245.662475 201.289879  L 243.40403 197.359031  L 240.489535 191.835124  L 236.944291 184.625214  L 233.356313 176.827753  L 229.920594 168.841605  L 226.474447 160.220911  L 223.215426 151.397396  L 220.973658 145.381909  L 220.965414 145.658287  L 221.283244 147.598451  L 224.772407 167.011513  L 226.363631 177.49914  L 227.608201 187.295212  L 228.446673 195.695012  L 228.926098 202.391346  L 229.190598 208.939676  L 229.201761 215.235889  L 229.022709 219.738521  L 228.668083 224.017616  L 228.125847 228.047074  L 227.385287 231.805861  L 226.437009 235.277555  L 225.272909 238.449689  L 223.886136 241.312918  L 222.835068 243.046526  L 221.681095 244.637836  L 220.423034 246.085138  L 219.059908 247.386674  L 217.59094 248.540507  L 216.015547 249.544394  L 214.333339 250.395676  L 212.544113 251.09118  L 210.64786 251.62714  L 208.644764 251.999136  L 206.53521 252.202054  L 204.319796 252.230071  L 201.999339 252.076669  L 199.574897 251.734664  L 197.047781 251.196272  L 194.419576 250.453193  L 191.692168 249.496725  L 188.86776 248.317898  L 185.948902 246.907627  L 182.938519 245.256898  L 179.839931 243.356949  L 176.656884 241.199487  L 173.393574 238.7769  L 170.05467 236.08248  L 166.645337 233.110649  L 163.171253 229.857189  L 159.638625 226.319449  L 156.054201 222.496563  L 152.425276 218.38964  L 148.759694 214.001937  L 145.065843 209.339017  L 139.491723 201.846776  L 133.906471 193.791584  L 128.344793 185.224358  L 122.84356 176.209267  L 117.441469 166.823351  L 112.178632 157.155717  L 107.096101 147.306319  L 102.235327 137.384331  L 97.63758 127.506177  L 93.343331 117.793247  L 89.391609 108.369374  L 85.819367 99.358144  L 82.660843 90.88013  L 79.946961 83.050118  L 77.704774 75.974433  L 75.956962 69.748434  L 74.721412 64.454271  L 74.010876 60.158967  L 73.832727 57.875948  L 73.892133 56.070197  L 74.188819 54.748685  L 74.721412 53.914732  L 75.075448 53.680627  L 75.487456 53.568  L 75.956962 53.576244  L 77.066254 53.951812  L 78.398264 54.798106  L 79.946961 56.102562  L 81.70539 57.849453  L 84.718956 61.257762  L 88.156945 65.544773  L 93.343331 72.478251  L 100.671499 82.778212  L 117.441469 106.978133  L 128.344793 122.509669  L 137.629543 135.366882  L 145.065843 145.342674  L 152.425276 154.888808  L 159.638625 163.898801  L 166.645337 172.29868  L 173.393574 180.043933  L 179.839931 187.114981  L 185.948902 193.511606  L 191.692168 199.24685  L 198.324081 205.516755  L 204.319796 210.826012  L 209.659648 215.205341  L 213.452108 218.04741  L 216.816576 220.296594  L 219.059908 221.586039  L 221.065141 222.525164  L 222.835068 223.1035  L 224.373509 223.309882  L 225.272909 223.235429  L 226.073319 222.987905  L 226.776708 222.564827  L 227.385287 221.964282  L 227.901521 221.185064  L 228.328126 220.226811  L 228.806569 218.455336  L 229.101269 216.289235  L 229.224696 213.741143  L 229.146778 209.783435  L 228.824823 205.244942  L 228.139163 198.884943  L 227.010094 190.520326  L 224.772407 175.908713  L 222.158396 158.666518  L 221.283244 151.474602  L 220.988013 147.549007  L 220.973658 145.198619  L 221.165877 143.566618  L 221.447439 142.810833  L 221.846028 142.44653  L 222.175673 142.414371  L 222.76341 142.669285  L 223.458893 143.26986  L 224.543738 144.569022  L 226.129565 146.912273  L 228.319783 150.625527  L 231.178874 155.954446  L 234.694402 163.011773  L 238.289256 170.728241  L 241.768264 178.711947  L 244.93943 186.510137  L 248.195916 195.139014  L 251.326293 203.66564  L 251.357418 203.581475  L 251.214137 202.483183  L 249.731303 194.554809  L 247.653796 182.727553  L 246.060063 172.335642  L 244.799898 162.583113  L 243.938912 154.191796  L 243.43547 147.484947  L 243.141939 140.912134  L 243.097122 134.579216  L 243.248173 130.042236  L 243.572666 125.72393  L 244.082854 121.651273  L 244.789671 117.846117  L 245.702733 114.325611  L 246.830353 111.102828  L 248.17959 108.187571  L 249.205142 106.418663  L 250.333269 104.791618  L 251.565208 103.308153  L 252.901988 101.970003  L 254.344433 100.779047  L 255.893175 99.737443  L 257.548654 98.847734  L 259.311117 98.112957  L 261.180623 97.536722  L 263.157036 97.123283  L 265.240023 96.877578  L 267.42904 96.805251  L 269.723325 96.91265  L 272.121883 97.206797  L 274.623469 97.695333  L 277.226566 98.386438  L 279.929367 99.288725  L 282.729751 100.411113  L 285.625255 101.762671  L 288.613052 103.352451  L 291.689923 105.189296  L 294.85223 107.281635  L 298.095894 109.637273  L 301.416363 112.263164  L 304.808601 115.16519  L 308.267059 118.34793  L 311.785662 121.814446  L 315.3578 125.566068  L 318.976313 129.602201  L 322.633496 133.920138  L 326.321096 138.514906  L 330.030322 143.379131  L 335.614199 151.158381  L 341.192144 159.476787  L 346.728332 168.276785  L 352.18493 177.487697  L 357.522479 187.026321  L 362.700332 196.79795  L 367.677169 206.697794  L 372.411553 216.612784  L 376.862535 226.423714  L 380.990284 236.007644  L 384.75673 245.240521  L 388.1262 253.999917  L 391.066039 262.16781  L 393.547192 269.63332  L 395.544736 276.295305  L 397.038339 282.06475  L 398.012644 286.866852  L 398.368478 289.501074  L 398.487273 291.665628  L 398.487273 291.665628  "
           clip-path="url(#p1e73951597)"
           style="fill: none; stroke: #172c4b; stroke-opacity: 0.01; stroke-linecap: square"
           id="path67" />
      </g>
      <g
         id="line2d_20">
        <path
           d="M 313.359967 177.28857  L 313.236313 177.597135  L 312.809376 177.928423  L 311.897156 178.308087  L 310.288343 178.723581  L 307.564088 179.183917  L 303.317849 179.656908  L 297.127713 180.100396  L 288.959703 180.450268  L 278.681679 180.663376  L 266.288541 180.695294  L 251.946489 180.503452  L 236.520463 180.067609  L 221.079732 179.407824  L 206.24771 178.551166  L 193.024891 177.565429  L 182.125942 176.53815  L 173.583429 175.521226  L 167.494689 174.59204  L 163.282242 173.738142  L 160.763009 173.012243  L 159.53252 172.453989  L 159.038483 172.020413  L 158.956042 171.704422  L 159.120896 171.397426  L 159.593439 171.068072  L 160.5599 170.690989  L 162.372394 170.250631  L 165.411796 169.772828  L 169.849084 169.313513  L 176.242057 168.887165  L 184.605386 168.557341  L 195.471393 168.363283  L 208.047592 168.363197  L 222.51099 168.588579  L 237.977009 169.057245  L 253.369504 169.74651  L 268.067051 170.628309  L 280.686665 171.598926  L 291.387377 172.636081  L 299.709375 173.658401  L 305.578225 174.589194  L 309.422123 175.403305  L 311.703015 176.089334  L 312.865748 176.645963  L 313.305002 177.077895  L 313.359967 177.28857  L 313.359967 177.28857  "
           clip-path="url(#p1e73951597)"
           style="fill: none; stroke-dasharray: 5.55,2.4; stroke-dashoffset: 0; stroke: #3b65ac; stroke-width: 1.5"
           id="path68" />
      </g>
      <g
         id="line2d_21">
        <path
           d="M 313.359967 177.288571  L 158.952988 171.756503  L 313.359967 177.288571  "
           clip-path="url(#p1e73951597)"
           style="fill: none; stroke-dasharray: 9.6,2.4,1.5,2.4; stroke-dashoffset: 0; stroke: #cba74e; stroke-width: 1.5"
           id="path69" />
      </g>
      <g
         id="patch_3">
        <path
           d="M 57.6 307.584  L 57.6 41.472  "
           style="fill: none; stroke: #000000; stroke-width: 0.8; stroke-linejoin: miter; stroke-linecap: square"
           id="path70" />
      </g>
      <g
         id="patch_4">
        <path
           d="M 414.72 307.584  L 414.72 41.472  "
           style="fill: none; stroke: #000000; stroke-width: 0.8; stroke-linejoin: miter; stroke-linecap: square"
           id="path71" />
      </g>
      <g
         id="patch_5">
        <path
           d="M 57.6 307.584  L 414.72 307.584  "
           style="fill: none; stroke: #000000; stroke-width: 0.8; stroke-linejoin: miter; stroke-linecap: square"
           id="path72" />
      </g>
      <g
         id="patch_6">
        <path
           d="M 57.6 41.472  L 414.72 41.472  "
           style="fill: none; stroke: #000000; stroke-width: 0.8; stroke-linejoin: miter; stroke-linecap: square"
           id="path73" />
      </g>
      <g
         id="text_13">
        <!-- Work loop: Higher Harmonics Oscillator -->
        <g
           transform="translate(118.275937 35.472) scale(0.12 -0.12)"
           id="g110">
          <defs
             id="defs73">
            <path
               id="DejaVuSans-57"
               d="M 213 4666  L 850 4666  L 1831 722  L 2809 4666  L 3519 4666  L 4500 722  L 5478 4666  L 6119 4666  L 4947 0  L 4153 0  L 3169 4050  L 2175 0  L 1381 0  L 213 4666  z "
               transform="scale(0.015625)" />
            <path
               id="DejaVuSans-72"
               d="M 2631 2963  Q 2534 3019 2420 3045  Q 2306 3072 2169 3072  Q 1681 3072 1420 2755  Q 1159 2438 1159 1844  L 1159 0  L 581 0  L 581 3500  L 1159 3500  L 1159 2956  Q 1341 3275 1631 3429  Q 1922 3584 2338 3584  Q 2397 3584 2469 3576  Q 2541 3569 2628 3553  L 2631 2963  z "
               transform="scale(0.015625)" />
            <path
               id="DejaVuSans-6b"
               d="M 581 4863  L 1159 4863  L 1159 1991  L 2875 3500  L 3609 3500  L 1753 1863  L 3688 0  L 2938 0  L 1159 1709  L 1159 0  L 581 0  L 581 4863  z "
               transform="scale(0.015625)" />
            <path
               id="DejaVuSans-70"
               d="M 1159 525  L 1159 -1331  L 581 -1331  L 581 3500  L 1159 3500  L 1159 2969  Q 1341 3281 1617 3432  Q 1894 3584 2278 3584  Q 2916 3584 3314 3078  Q 3713 2572 3713 1747  Q 3713 922 3314 415  Q 2916 -91 2278 -91  Q 1894 -91 1617 61  Q 1341 213 1159 525  z M 3116 1747  Q 3116 2381 2855 2742  Q 2594 3103 2138 3103  Q 1681 3103 1420 2742  Q 1159 2381 1159 1747  Q 1159 1113 1420 752  Q 1681 391 2138 391  Q 2594 391 2855 752  Q 3116 1113 3116 1747  z "
               transform="scale(0.015625)" />
            <path
               id="DejaVuSans-3a"
               d="M 750 794  L 1409 794  L 1409 0  L 750 0  L 750 794  z M 750 3309  L 1409 3309  L 1409 2516  L 750 2516  L 750 3309  z "
               transform="scale(0.015625)" />
            <path
               id="DejaVuSans-48"
               d="M 628 4666  L 1259 4666  L 1259 2753  L 3553 2753  L 3553 4666  L 4184 4666  L 4184 0  L 3553 0  L 3553 2222  L 1259 2222  L 1259 0  L 628 0  L 628 4666  z "
               transform="scale(0.015625)" />
            <path
               id="DejaVuSans-67"
               d="M 2906 1791  Q 2906 2416 2648 2759  Q 2391 3103 1925 3103  Q 1463 3103 1205 2759  Q 947 2416 947 1791  Q 947 1169 1205 825  Q 1463 481 1925 481  Q 2391 481 2648 825  Q 2906 1169 2906 1791  z M 3481 434  Q 3481 -459 3084 -895  Q 2688 -1331 1869 -1331  Q 1566 -1331 1297 -1286  Q 1028 -1241 775 -1147  L 775 -588  Q 1028 -725 1275 -790  Q 1522 -856 1778 -856  Q 2344 -856 2625 -561  Q 2906 -266 2906 331  L 2906 616  Q 2728 306 2450 153  Q 2172 0 1784 0  Q 1141 0 747 490  Q 353 981 353 1791  Q 353 2603 747 3093  Q 1141 3584 1784 3584  Q 2172 3584 2450 3431  Q 2728 3278 2906 2969  L 2906 3500  L 3481 3500  L 3481 434  z "
               transform="scale(0.015625)" />
            <path
               id="DejaVuSans-68"
               d="M 3513 2113  L 3513 0  L 2938 0  L 2938 2094  Q 2938 2591 2744 2837  Q 2550 3084 2163 3084  Q 1697 3084 1428 2787  Q 1159 2491 1159 1978  L 1159 0  L 581 0  L 581 4863  L 1159 4863  L 1159 2956  Q 1366 3272 1645 3428  Q 1925 3584 2291 3584  Q 2894 3584 3203 3211  Q 3513 2838 3513 2113  z "
               transform="scale(0.015625)" />
            <path
               id="DejaVuSans-6d"
               d="M 3328 2828  Q 3544 3216 3844 3400  Q 4144 3584 4550 3584  Q 5097 3584 5394 3201  Q 5691 2819 5691 2113  L 5691 0  L 5113 0  L 5113 2094  Q 5113 2597 4934 2840  Q 4756 3084 4391 3084  Q 3944 3084 3684 2787  Q 3425 2491 3425 1978  L 3425 0  L 2847 0  L 2847 2094  Q 2847 2600 2669 2842  Q 2491 3084 2119 3084  Q 1678 3084 1418 2786  Q 1159 2488 1159 1978  L 1159 0  L 581 0  L 581 3500  L 1159 3500  L 1159 2956  Q 1356 3278 1631 3431  Q 1906 3584 2284 3584  Q 2666 3584 2933 3390  Q 3200 3197 3328 2828  z "
               transform="scale(0.015625)" />
            <path
               id="DejaVuSans-4f"
               d="M 2522 4238  Q 1834 4238 1429 3725  Q 1025 3213 1025 2328  Q 1025 1447 1429 934  Q 1834 422 2522 422  Q 3209 422 3611 934  Q 4013 1447 4013 2328  Q 4013 3213 3611 3725  Q 3209 4238 2522 4238  z M 2522 4750  Q 3503 4750 4090 4092  Q 4678 3434 4678 2328  Q 4678 1225 4090 567  Q 3503 -91 2522 -91  Q 1538 -91 948 565  Q 359 1222 359 2328  Q 359 3434 948 4092  Q 1538 4750 2522 4750  z "
               transform="scale(0.015625)" />
          </defs>
          <use
             xlink:href="#DejaVuSans-57"
             id="use73" />
          <use
             xlink:href="#DejaVuSans-6f"
             x="93.001953"
             id="use74" />
          <use
             xlink:href="#DejaVuSans-72"
             x="154.183594"
             id="use75" />
          <use
             xlink:href="#DejaVuSans-6b"
             x="195.296875"
             id="use76" />
          <use
             xlink:href="#DejaVuSans-20"
             x="253.207031"
             id="use77" />
          <use
             xlink:href="#DejaVuSans-6c"
             x="284.994141"
             id="use78" />
          <use
             xlink:href="#DejaVuSans-6f"
             x="312.777344"
             id="use79" />
          <use
             xlink:href="#DejaVuSans-6f"
             x="373.958984"
             id="use80" />
          <use
             xlink:href="#DejaVuSans-70"
             x="435.140625"
             id="use81" />
          <use
             xlink:href="#DejaVuSans-3a"
             x="498.617188"
             id="use82" />
          <use
             xlink:href="#DejaVuSans-20"
             x="532.308594"
             id="use83" />
          <use
             xlink:href="#DejaVuSans-48"
             x="564.095703"
             id="use84" />
          <use
             xlink:href="#DejaVuSans-69"
             x="639.291016"
             id="use85" />
          <use
             xlink:href="#DejaVuSans-67"
             x="667.074219"
             id="use86" />
          <use
             xlink:href="#DejaVuSans-68"
             x="730.550781"
             id="use87" />
          <use
             xlink:href="#DejaVuSans-65"
             x="793.929688"
             id="use88" />
          <use
             xlink:href="#DejaVuSans-72"
             x="855.453125"
             id="use89" />
          <use
             xlink:href="#DejaVuSans-20"
             x="896.566406"
             id="use90" />
          <use
             xlink:href="#DejaVuSans-48"
             x="928.353516"
             id="use91" />
          <use
             xlink:href="#DejaVuSans-61"
             x="1003.548828"
             id="use92" />
          <use
             xlink:href="#DejaVuSans-72"
             x="1064.828125"
             id="use93" />
          <use
             xlink:href="#DejaVuSans-6d"
             x="1104.191406"
             id="use94" />
          <use
             xlink:href="#DejaVuSans-6f"
             x="1201.603516"
             id="use95" />
          <use
             xlink:href="#DejaVuSans-6e"
             x="1262.785156"
             id="use96" />
          <use
             xlink:href="#DejaVuSans-69"
             x="1326.164062"
             id="use97" />
          <use
             xlink:href="#DejaVuSans-63"
             x="1353.947266"
             id="use98" />
          <use
             xlink:href="#DejaVuSans-73"
             x="1408.927734"
             id="use99" />
          <use
             xlink:href="#DejaVuSans-20"
             x="1461.027344"
             id="use100" />
          <use
             xlink:href="#DejaVuSans-4f"
             x="1492.814453"
             id="use101" />
          <use
             xlink:href="#DejaVuSans-73"
             x="1571.525391"
             id="use102" />
          <use
             xlink:href="#DejaVuSans-63"
             x="1623.625"
             id="use103" />
          <use
             xlink:href="#DejaVuSans-69"
             x="1678.605469"
             id="use104" />
          <use
             xlink:href="#DejaVuSans-6c"
             x="1706.388672"
             id="use105" />
          <use
             xlink:href="#DejaVuSans-6c"
             x="1734.171875"
             id="use106" />
          <use
             xlink:href="#DejaVuSans-61"
             x="1761.955078"
             id="use107" />
          <use
             xlink:href="#DejaVuSans-74"
             x="1823.234375"
             id="use108" />
          <use
             xlink:href="#DejaVuSans-6f"
             x="1862.443359"
             id="use109" />
          <use
             xlink:href="#DejaVuSans-72"
             x="1923.625"
             id="use110" />
        </g>
      </g>
    </g>
  </g>
  <text
     xml:space="preserve"
     transform="matrix(0.75,0,0,0.75,18.616707,2.0079626)"
     id="text13"
     style="font-style:normal;font-variant:normal;font-weight:100;font-stretch:normal;font-size:8px;font-family:'.Apple SD Gothic NeoI';-inkscape-font-specification:'.Apple SD Gothic NeoI, Thin';font-variant-ligatures:normal;font-variant-caps:normal;font-variant-numeric:normal;font-variant-east-asian:normal;writing-mode:lr-tb;direction:ltr;white-space:pre;shape-inside:url(#rect14);fill:#6a788c;fill-opacity:1;stroke:#728ab2;stroke-width:1.33333;stroke-linecap:butt;stroke-linejoin:round;stroke-dasharray:none;stroke-dashoffset:0;stroke-opacity:1"><tspan
       x="408.01562"
       y="101.95312"
       id="tspan4">Inelastic Load G</tspan></text>
  <rect
     style="fill:#6a788c;fill-opacity:1;stroke:#ffffff;stroke-width:0.999997;stroke-linecap:butt;stroke-linejoin:round;stroke-dasharray:none;stroke-dashoffset:0;stroke-opacity:1"
     id="rect12-6"
     width="29.614088"
     height="8.4611683"
     x="370.5"
     y="78.5" />
  <text
     xml:space="preserve"
     transform="matrix(0.75,0,0,0.75,49.167937,9.2936468)"
     id="text12"
     style="font-style:normal;font-variant:normal;font-weight:100;font-stretch:normal;font-size:8px;font-family:'.Apple SD Gothic NeoI';-inkscape-font-specification:'.Apple SD Gothic NeoI, Thin';font-variant-ligatures:normal;font-variant-caps:normal;font-variant-numeric:normal;font-variant-east-asian:normal;writing-mode:lr-tb;direction:ltr;white-space:pre;shape-inside:url(#rect13);fill:#6a788c;fill-opacity:1;stroke:#cdaa54;stroke-width:1.33333;stroke-linecap:butt;stroke-linejoin:round;stroke-dasharray:none;stroke-dashoffset:0;stroke-opacity:1"><tspan
       x="374.17188"
       y="64.347656"
       id="tspan5">Elastic Load F</tspan></text>
  <rect
     style="fill:#4e74b4;fill-opacity:1;stroke:#ffffff;stroke-width:0.999997;stroke-linecap:butt;stroke-linejoin:round;stroke-dasharray:none;stroke-dashoffset:0;stroke-opacity:1"
     id="rect12-3"
     width="29.614088"
     height="8.4611683"
     x="370.5"
     y="68.5" />
  <rect
     style="fill:#cdaa54;fill-opacity:1;stroke:#ffffff;stroke-width:0.999997;stroke-linecap:butt;stroke-linejoin:round;stroke-dasharray:none;stroke-dashoffset:0;stroke-opacity:1"
     id="rect12"
     width="29.614088"
     height="8.4611683"
     x="370.5"
     y="51.5" />
  <text
     xml:space="preserve"
     style="font-style:normal;font-variant:normal;font-weight:100;font-stretch:normal;font-size:6px;font-family:'.Hiragino Kaku Gothic Interface';-inkscape-font-specification:'.Hiragino Kaku Gothic Interface, Thin';font-variant-ligatures:normal;font-variant-caps:normal;font-variant-numeric:normal;font-variant-east-asian:normal;writing-mode:lr-tb;fill:#9f6fd4;fill-opacity:1;stroke:#929caa;stroke-width:0.999997;stroke-linecap:butt;stroke-linejoin:round;stroke-dasharray:none;stroke-dashoffset:0;stroke-opacity:1"
     x="162.43886"
     y="304.8551"
     id="text9"><tspan
       sodipodi:role="line"
       id="tspan9"
       style="font-style:normal;font-variant:normal;font-weight:100;font-stretch:normal;font-size:6px;font-family:'.Hiragino Kaku Gothic Interface';-inkscape-font-specification:'.Hiragino Kaku Gothic Interface, Thin';font-variant-ligatures:normal;font-variant-caps:normal;font-variant-numeric:normal;font-variant-east-asian:normal;stroke:#929caa;stroke-width:1;stroke-dasharray:none;stroke-opacity:1"
       x="162.43886"
       y="304.8551">min x</tspan></text>
  <text
     xml:space="preserve"
     style="font-style:normal;font-variant:normal;font-weight:100;font-stretch:normal;font-size:6px;font-family:'.Hiragino Kaku Gothic Interface';-inkscape-font-specification:'.Hiragino Kaku Gothic Interface, Thin';font-variant-ligatures:normal;font-variant-caps:normal;font-variant-numeric:normal;font-variant-east-asian:normal;writing-mode:lr-tb;fill:#9f6fd4;fill-opacity:1;stroke:#a5adb9;stroke-width:0.999997;stroke-linecap:butt;stroke-linejoin:round;stroke-dasharray:none;stroke-dashoffset:0;stroke-opacity:1"
     x="316.39789"
     y="304.18628"
     id="text9-1"><tspan
       sodipodi:role="line"
       id="tspan10"
       x="316.39789"
       y="304.18628">max x</tspan></text>
  <path
     style="fill:#9f6fd4;fill-opacity:1;stroke:#375a97;stroke-width:0.896676;stroke-linecap:butt;stroke-linejoin:round;stroke-dasharray:1.79336, 0.896676, 0.448339, 0.896676;stroke-dashoffset:0;stroke-opacity:1"
     d="m 313.30923,178.12956 0.0286,128.64926"
     id="path9-9" />
  <path
     style="fill:#9f6fd4;fill-opacity:1;stroke:#375a97;stroke-width:0.914254;stroke-linecap:butt;stroke-linejoin:round;stroke-dasharray:1.82851, 0.914254, 0.457128, 0.914254;stroke-dashoffset:0;stroke-opacity:1"
     d="m 159.04698,173.39401 0.0286,133.77659"
     id="path9" />
  <circle
     style="fill:#a5adb9;fill-opacity:1;stroke:#727e91;stroke-width:0.6;stroke-linecap:butt;stroke-linejoin:round;stroke-dasharray:none;stroke-opacity:1"
     id="path8-7-7"
     cx="312.96536"
     cy="177.50023"
     r="2.4502234" />
  <circle
     style="fill:#a5adb9;fill-opacity:1;stroke:#727e91;stroke-width:0.6;stroke-linecap:butt;stroke-linejoin:round;stroke-dasharray:none;stroke-opacity:1"
     id="path8-7-7-5"
     cx="158.75023"
     cy="171.96539"
     r="2.4502234" />
  <circle
     style="fill:#a5adb9;fill-opacity:1;stroke:#727e91;stroke-width:0.6;stroke-linecap:butt;stroke-linejoin:round;stroke-dasharray:none;stroke-opacity:1"
     id="path8-7-7-3"
     cx="158.85475"
     cy="306.68054"
     r="2.4502234" />
  <circle
     style="fill:#a5adb9;fill-opacity:1;stroke:#727e91;stroke-width:0.6;stroke-linecap:butt;stroke-linejoin:round;stroke-dasharray:none;stroke-opacity:1"
     id="path8-7-7-59"
     cx="313.35474"
     cy="306.68054"
     r="2.4502234" />
  <text
     xml:space="preserve"
     style="font-style:normal;font-variant:normal;font-weight:normal;font-stretch:normal;font-size:5.07049px;font-family:sans-serif;-inkscape-font-specification:'sans-serif, Normal';font-variant-ligatures:normal;font-variant-caps:normal;font-variant-numeric:normal;font-variant-east-asian:normal;writing-mode:vertical-lr;fill:#edeff1;fill-opacity:1;stroke:#020202;stroke-width:0.716;stroke-linecap:butt;stroke-linejoin:round;stroke-dasharray:none;stroke-opacity:1"
     x="386.11099"
     y="265.9729"
     id="text7"
     transform="scale(1.1164005,0.8957359)"><tspan
       sodipodi:role="line"
       id="tspan6"
       x="386.11099"
       y="265.9729">1</tspan></text>
  <text
     xml:space="preserve"
     style="font-style:normal;font-variant:normal;font-weight:normal;font-stretch:normal;font-size:5.67182px;font-family:sans-serif;-inkscape-font-specification:'sans-serif, Normal';font-variant-ligatures:normal;font-variant-caps:normal;font-variant-numeric:normal;font-variant-east-asian:normal;writing-mode:vertical-lr;fill:#42536c;stroke:#000000;stroke-width:0.800669;stroke-linecap:butt;stroke-linejoin:round;stroke-dasharray:none;stroke-opacity:1"
     x="424.86716"
     y="42.263313"
     id="text6"
     transform="scale(1.0149325,0.9852872)"><tspan
       sodipodi:role="line"
       id="tspan1-9"
       x="424.86716"
       y="42.263313">0</tspan></text>
  <path
     style="fill:#42536c;stroke:#020202;stroke-width:0.847;stroke-linecap:butt;stroke-linejoin:round;stroke-dasharray:none;stroke-opacity:1;marker-end:url(#ArrowWideRounded)"
     d="m 424.91515,41.311897 0.5901,203.407513"
     id="path4" />
  <rect
     style="fill:#ffffff;fill-opacity:1;stroke:#ffffff;stroke-width:0.999997;stroke-linecap:butt;stroke-linejoin:round;stroke-dasharray:2, 0.999997, 0.5, 0.999997;stroke-dashoffset:0;stroke-opacity:1"
     id="rect11"
     width="14.807044"
     height="80.381088"
     x="4.9999986"
     y="126.5" />
  <text
     xml:space="preserve"
     transform="matrix(0.75,0,0,0.75,38.240949,123.78628)"
     id="text14"
     style="font-style:normal;font-variant:normal;font-weight:300;font-stretch:normal;font-size:10.6667px;font-family:'American Typewriter';-inkscape-font-specification:'American Typewriter, Light';font-variant-ligatures:normal;font-variant-caps:normal;font-variant-numeric:normal;font-variant-east-asian:normal;writing-mode:lr-tb;direction:ltr;white-space:pre;shape-inside:url(#rect15);shape-padding:2.82039;fill:#6a788c;fill-opacity:1;stroke:#3e68ad;stroke-width:1.33333;stroke-linecap:butt;stroke-linejoin:round;stroke-dasharray:none;stroke-dashoffset:0;stroke-opacity:1"><tspan
       x="180.50391"
       y="115.93566"
       id="tspan7">Simple Harmonic Work-loop</tspan></text>
  <path
     style="fill:#6a788c;fill-opacity:1;stroke:#3b65ac;stroke-width:1.08032;stroke-linecap:butt;stroke-linejoin:round;stroke-dasharray:none;stroke-dashoffset:0;stroke-opacity:1;marker-end:url(#ArrowWide)"
     d="m 229.54572,203.21347 27.28247,-18.57363"
     id="path15" />
  <rect
     style="mix-blend-mode:normal;fill:url(#linearGradient128);fill-rule:nonzero;stroke-width:0.75;stroke-linecap:butt;stroke-linejoin:round"
     id="rect117"
     width="3.1293948"
     height="267.87662"
     x="417.86166"
     y="41.138336"
     ry="0" />
  <text
     xml:space="preserve"
     style="font-style:normal;font-variant:normal;font-weight:normal;font-stretch:normal;font-size:6.01631px;font-family:sans-serif;-inkscape-font-specification:'sans-serif, Normal';font-variant-ligatures:normal;font-variant-caps:normal;font-variant-numeric:normal;font-variant-east-asian:normal;writing-mode:vertical-lr;baseline-shift:baseline;white-space:pre;inline-size:168.151;fill:#42536c;fill-opacity:1;fill-rule:nonzero;stroke-width:0.75;stroke-linecap:butt;stroke-linejoin:round"
     x="429.35358"
     y="51.322151"
     id="text130"
     transform="matrix(1,0,0,0.99458406,-4.0805692,197.74102)"><tspan
       x="429.35358"
       y="51.322151"
       id="tspan11">Omega Ratio Ω/Ω<tspan
   style="baseline-shift:sub"
   id="tspan8">0</tspan></tspan></text>
  <rect
     style="fill:#ffffff;fill-opacity:1;stroke:#ffffff;stroke-width:0.999997;stroke-linecap:butt;stroke-linejoin:round;stroke-dasharray:2, 0.999997, 0.5, 0.999997;stroke-dashoffset:0;stroke-opacity:1"
     id="rect10"
     width="88.842262"
     height="13.396849"
     x="194.50897"
     y="327.81137" />
  <defs
     id="defs110">
    <clipPath
       id="p1e73951597">
      <rect
         x="57.6"
         y="41.472"
         width="357.12"
         height="266.112"
         id="rect110" />
    </clipPath>
  </defs>
</svg>
