<?xml version="1.0" encoding="utf-8" standalone="no"?>
<!DOCTYPE svg PUBLIC "-//W3C//DTD SVG 1.1//EN"
  "http://www.w3.org/Graphics/SVG/1.1/DTD/svg11.dtd">
<!-- Created with matplotlib (https://matplotlib.org/) -->
<svg height="288pt" version="1.1" viewBox="0 0 432 288" width="432pt" xmlns="http://www.w3.org/2000/svg" xmlns:xlink="http://www.w3.org/1999/xlink">
 <metadata>
  <rdf:RDF xmlns:cc="http://creativecommons.org/ns#" xmlns:dc="http://purl.org/dc/elements/1.1/" xmlns:rdf="http://www.w3.org/1999/02/22-rdf-syntax-ns#">
   <cc:Work>
    <dc:type rdf:resource="http://purl.org/dc/dcmitype/StillImage"/>
    <dc:date>2024-09-05T19:40:06.377022</dc:date>
    <dc:format>image/svg+xml</dc:format>
    <dc:creator>
     <cc:Agent>
      <dc:title>Matplotlib v3.3.4, https://matplotlib.org/</dc:title>
     </cc:Agent>
    </dc:creator>
   </cc:Work>
  </rdf:RDF>
 </metadata>
 <defs>
  <style type="text/css">*{stroke-linecap:butt;stroke-linejoin:round;}</style>
 </defs>
 <g id="figure_1">
  <g id="patch_1">
   <path d="M 0 288 
L 432 288 
L 432 0 
L 0 0 
z
" style="fill:none;"/>
  </g>
  <g id="axes_1">
   <g id="patch_2">
    <path d="M 54 252 
L 388.8 252 
L 388.8 34.56 
L 54 34.56 
z
" style="fill:#ffffff;"/>
   </g>
   <g id="matplotlib.axis_1">
    <g id="xtick_1">
     <g id="line2d_1">
      <defs>
       <path d="M 0 0 
L 0 3.5 
" id="m57bfb420b9" style="stroke:#000000;stroke-width:0.8;"/>
      </defs>
      <g>
       <use style="stroke:#000000;stroke-width:0.8;" x="66.04052" xlink:href="#m57bfb420b9" y="252"/>
      </g>
     </g>
     <g id="text_1">
      <!-- −1.5 -->
      <g transform="translate(51.470832 268.118125)scale(0.12 -0.12)">
       <defs>
        <path d="M 10.59375 35.5 
L 73.1875 35.5 
L 73.1875 27.203125 
L 10.59375 27.203125 
z
" id="DejaVuSans-8722"/>
        <path d="M 12.40625 8.296875 
L 28.515625 8.296875 
L 28.515625 63.921875 
L 10.984375 60.40625 
L 10.984375 69.390625 
L 28.421875 72.90625 
L 38.28125 72.90625 
L 38.28125 8.296875 
L 54.390625 8.296875 
L 54.390625 0 
L 12.40625 0 
z
" id="DejaVuSans-49"/>
        <path d="M 10.6875 12.40625 
L 21 12.40625 
L 21 0 
L 10.6875 0 
z
" id="DejaVuSans-46"/>
        <path d="M 10.796875 72.90625 
L 49.515625 72.90625 
L 49.515625 64.59375 
L 19.828125 64.59375 
L 19.828125 46.734375 
Q 21.96875 47.46875 24.109375 47.828125 
Q 26.265625 48.1875 28.421875 48.1875 
Q 40.625 48.1875 47.75 41.5 
Q 54.890625 34.8125 54.890625 23.390625 
Q 54.890625 11.625 47.5625 5.09375 
Q 40.234375 -1.421875 26.90625 -1.421875 
Q 22.3125 -1.421875 17.546875 -0.640625 
Q 12.796875 0.140625 7.71875 1.703125 
L 7.71875 11.625 
Q 12.109375 9.234375 16.796875 8.0625 
Q 21.484375 6.890625 26.703125 6.890625 
Q 35.15625 6.890625 40.078125 11.328125 
Q 45.015625 15.765625 45.015625 23.390625 
Q 45.015625 31 40.078125 35.4375 
Q 35.15625 39.890625 26.703125 39.890625 
Q 22.75 39.890625 18.8125 39.015625 
Q 14.890625 38.140625 10.796875 36.28125 
z
" id="DejaVuSans-53"/>
       </defs>
       <use xlink:href="#DejaVuSans-8722"/>
       <use x="83.789062" xlink:href="#DejaVuSans-49"/>
       <use x="147.412109" xlink:href="#DejaVuSans-46"/>
       <use x="179.199219" xlink:href="#DejaVuSans-53"/>
      </g>
     </g>
    </g>
    <g id="xtick_2">
     <g id="line2d_2">
      <g>
       <use style="stroke:#000000;stroke-width:0.8;" x="117.826305" xlink:href="#m57bfb420b9" y="252"/>
      </g>
     </g>
     <g id="text_2">
      <!-- −1.0 -->
      <g transform="translate(103.256617 268.118125)scale(0.12 -0.12)">
       <defs>
        <path d="M 31.78125 66.40625 
Q 24.171875 66.40625 20.328125 58.90625 
Q 16.5 51.421875 16.5 36.375 
Q 16.5 21.390625 20.328125 13.890625 
Q 24.171875 6.390625 31.78125 6.390625 
Q 39.453125 6.390625 43.28125 13.890625 
Q 47.125 21.390625 47.125 36.375 
Q 47.125 51.421875 43.28125 58.90625 
Q 39.453125 66.40625 31.78125 66.40625 
z
M 31.78125 74.21875 
Q 44.046875 74.21875 50.515625 64.515625 
Q 56.984375 54.828125 56.984375 36.375 
Q 56.984375 17.96875 50.515625 8.265625 
Q 44.046875 -1.421875 31.78125 -1.421875 
Q 19.53125 -1.421875 13.0625 8.265625 
Q 6.59375 17.96875 6.59375 36.375 
Q 6.59375 54.828125 13.0625 64.515625 
Q 19.53125 74.21875 31.78125 74.21875 
z
" id="DejaVuSans-48"/>
       </defs>
       <use xlink:href="#DejaVuSans-8722"/>
       <use x="83.789062" xlink:href="#DejaVuSans-49"/>
       <use x="147.412109" xlink:href="#DejaVuSans-46"/>
       <use x="179.199219" xlink:href="#DejaVuSans-48"/>
      </g>
     </g>
    </g>
    <g id="xtick_3">
     <g id="line2d_3">
      <g>
       <use style="stroke:#000000;stroke-width:0.8;" x="169.61209" xlink:href="#m57bfb420b9" y="252"/>
      </g>
     </g>
     <g id="text_3">
      <!-- −0.5 -->
      <g transform="translate(155.042403 268.118125)scale(0.12 -0.12)">
       <use xlink:href="#DejaVuSans-8722"/>
       <use x="83.789062" xlink:href="#DejaVuSans-48"/>
       <use x="147.412109" xlink:href="#DejaVuSans-46"/>
       <use x="179.199219" xlink:href="#DejaVuSans-53"/>
      </g>
     </g>
    </g>
    <g id="xtick_4">
     <g id="line2d_4">
      <g>
       <use style="stroke:#000000;stroke-width:0.8;" x="221.397875" xlink:href="#m57bfb420b9" y="252"/>
      </g>
     </g>
     <g id="text_4">
      <!-- 0.0 -->
      <g transform="translate(211.856 268.118125)scale(0.12 -0.12)">
       <use xlink:href="#DejaVuSans-48"/>
       <use x="63.623047" xlink:href="#DejaVuSans-46"/>
       <use x="95.410156" xlink:href="#DejaVuSans-48"/>
      </g>
     </g>
    </g>
    <g id="xtick_5">
     <g id="line2d_5">
      <g>
       <use style="stroke:#000000;stroke-width:0.8;" x="273.183661" xlink:href="#m57bfb420b9" y="252"/>
      </g>
     </g>
     <g id="text_5">
      <!-- 0.5 -->
      <g transform="translate(263.641786 268.118125)scale(0.12 -0.12)">
       <use xlink:href="#DejaVuSans-48"/>
       <use x="63.623047" xlink:href="#DejaVuSans-46"/>
       <use x="95.410156" xlink:href="#DejaVuSans-53"/>
      </g>
     </g>
    </g>
    <g id="xtick_6">
     <g id="line2d_6">
      <g>
       <use style="stroke:#000000;stroke-width:0.8;" x="324.969446" xlink:href="#m57bfb420b9" y="252"/>
      </g>
     </g>
     <g id="text_6">
      <!-- 1.0 -->
      <g transform="translate(315.427571 268.118125)scale(0.12 -0.12)">
       <use xlink:href="#DejaVuSans-49"/>
       <use x="63.623047" xlink:href="#DejaVuSans-46"/>
       <use x="95.410156" xlink:href="#DejaVuSans-48"/>
      </g>
     </g>
    </g>
    <g id="xtick_7">
     <g id="line2d_7">
      <g>
       <use style="stroke:#000000;stroke-width:0.8;" x="376.755231" xlink:href="#m57bfb420b9" y="252"/>
      </g>
     </g>
     <g id="text_7">
      <!-- 1.5 -->
      <g transform="translate(367.213356 268.118125)scale(0.12 -0.12)">
       <use xlink:href="#DejaVuSans-49"/>
       <use x="63.623047" xlink:href="#DejaVuSans-46"/>
       <use x="95.410156" xlink:href="#DejaVuSans-53"/>
      </g>
     </g>
    </g>
    <g id="text_8">
     <!-- Inelastic load $G$ -->
     <g transform="translate(182.75 282.212188)scale(0.1 -0.1)">
      <defs>
       <path d="M 9.8125 72.90625 
L 19.671875 72.90625 
L 19.671875 0 
L 9.8125 0 
z
" id="DejaVuSans-73"/>
       <path d="M 54.890625 33.015625 
L 54.890625 0 
L 45.90625 0 
L 45.90625 32.71875 
Q 45.90625 40.484375 42.875 44.328125 
Q 39.84375 48.1875 33.796875 48.1875 
Q 26.515625 48.1875 22.3125 43.546875 
Q 18.109375 38.921875 18.109375 30.90625 
L 18.109375 0 
L 9.078125 0 
L 9.078125 54.6875 
L 18.109375 54.6875 
L 18.109375 46.1875 
Q 21.34375 51.125 25.703125 53.5625 
Q 30.078125 56 35.796875 56 
Q 45.21875 56 50.046875 50.171875 
Q 54.890625 44.34375 54.890625 33.015625 
z
" id="DejaVuSans-110"/>
       <path d="M 56.203125 29.59375 
L 56.203125 25.203125 
L 14.890625 25.203125 
Q 15.484375 15.921875 20.484375 11.0625 
Q 25.484375 6.203125 34.421875 6.203125 
Q 39.59375 6.203125 44.453125 7.46875 
Q 49.3125 8.734375 54.109375 11.28125 
L 54.109375 2.78125 
Q 49.265625 0.734375 44.1875 -0.34375 
Q 39.109375 -1.421875 33.890625 -1.421875 
Q 20.796875 -1.421875 13.15625 6.1875 
Q 5.515625 13.8125 5.515625 26.8125 
Q 5.515625 40.234375 12.765625 48.109375 
Q 20.015625 56 32.328125 56 
Q 43.359375 56 49.78125 48.890625 
Q 56.203125 41.796875 56.203125 29.59375 
z
M 47.21875 32.234375 
Q 47.125 39.59375 43.09375 43.984375 
Q 39.0625 48.390625 32.421875 48.390625 
Q 24.90625 48.390625 20.390625 44.140625 
Q 15.875 39.890625 15.1875 32.171875 
z
" id="DejaVuSans-101"/>
       <path d="M 9.421875 75.984375 
L 18.40625 75.984375 
L 18.40625 0 
L 9.421875 0 
z
" id="DejaVuSans-108"/>
       <path d="M 34.28125 27.484375 
Q 23.390625 27.484375 19.1875 25 
Q 14.984375 22.515625 14.984375 16.5 
Q 14.984375 11.71875 18.140625 8.90625 
Q 21.296875 6.109375 26.703125 6.109375 
Q 34.1875 6.109375 38.703125 11.40625 
Q 43.21875 16.703125 43.21875 25.484375 
L 43.21875 27.484375 
z
M 52.203125 31.203125 
L 52.203125 0 
L 43.21875 0 
L 43.21875 8.296875 
Q 40.140625 3.328125 35.546875 0.953125 
Q 30.953125 -1.421875 24.3125 -1.421875 
Q 15.921875 -1.421875 10.953125 3.296875 
Q 6 8.015625 6 15.921875 
Q 6 25.140625 12.171875 29.828125 
Q 18.359375 34.515625 30.609375 34.515625 
L 43.21875 34.515625 
L 43.21875 35.40625 
Q 43.21875 41.609375 39.140625 45 
Q 35.0625 48.390625 27.6875 48.390625 
Q 23 48.390625 18.546875 47.265625 
Q 14.109375 46.140625 10.015625 43.890625 
L 10.015625 52.203125 
Q 14.9375 54.109375 19.578125 55.046875 
Q 24.21875 56 28.609375 56 
Q 40.484375 56 46.34375 49.84375 
Q 52.203125 43.703125 52.203125 31.203125 
z
" id="DejaVuSans-97"/>
       <path d="M 44.28125 53.078125 
L 44.28125 44.578125 
Q 40.484375 46.53125 36.375 47.5 
Q 32.28125 48.484375 27.875 48.484375 
Q 21.1875 48.484375 17.84375 46.4375 
Q 14.5 44.390625 14.5 40.28125 
Q 14.5 37.15625 16.890625 35.375 
Q 19.28125 33.59375 26.515625 31.984375 
L 29.59375 31.296875 
Q 39.15625 29.25 43.1875 25.515625 
Q 47.21875 21.78125 47.21875 15.09375 
Q 47.21875 7.46875 41.1875 3.015625 
Q 35.15625 -1.421875 24.609375 -1.421875 
Q 20.21875 -1.421875 15.453125 -0.5625 
Q 10.6875 0.296875 5.421875 2 
L 5.421875 11.28125 
Q 10.40625 8.6875 15.234375 7.390625 
Q 20.0625 6.109375 24.8125 6.109375 
Q 31.15625 6.109375 34.5625 8.28125 
Q 37.984375 10.453125 37.984375 14.40625 
Q 37.984375 18.0625 35.515625 20.015625 
Q 33.0625 21.96875 24.703125 23.78125 
L 21.578125 24.515625 
Q 13.234375 26.265625 9.515625 29.90625 
Q 5.8125 33.546875 5.8125 39.890625 
Q 5.8125 47.609375 11.28125 51.796875 
Q 16.75 56 26.8125 56 
Q 31.78125 56 36.171875 55.265625 
Q 40.578125 54.546875 44.28125 53.078125 
z
" id="DejaVuSans-115"/>
       <path d="M 18.3125 70.21875 
L 18.3125 54.6875 
L 36.8125 54.6875 
L 36.8125 47.703125 
L 18.3125 47.703125 
L 18.3125 18.015625 
Q 18.3125 11.328125 20.140625 9.421875 
Q 21.96875 7.515625 27.59375 7.515625 
L 36.8125 7.515625 
L 36.8125 0 
L 27.59375 0 
Q 17.1875 0 13.234375 3.875 
Q 9.28125 7.765625 9.28125 18.015625 
L 9.28125 47.703125 
L 2.6875 47.703125 
L 2.6875 54.6875 
L 9.28125 54.6875 
L 9.28125 70.21875 
z
" id="DejaVuSans-116"/>
       <path d="M 9.421875 54.6875 
L 18.40625 54.6875 
L 18.40625 0 
L 9.421875 0 
z
M 9.421875 75.984375 
L 18.40625 75.984375 
L 18.40625 64.59375 
L 9.421875 64.59375 
z
" id="DejaVuSans-105"/>
       <path d="M 48.78125 52.59375 
L 48.78125 44.1875 
Q 44.96875 46.296875 41.140625 47.34375 
Q 37.3125 48.390625 33.40625 48.390625 
Q 24.65625 48.390625 19.8125 42.84375 
Q 14.984375 37.3125 14.984375 27.296875 
Q 14.984375 17.28125 19.8125 11.734375 
Q 24.65625 6.203125 33.40625 6.203125 
Q 37.3125 6.203125 41.140625 7.25 
Q 44.96875 8.296875 48.78125 10.40625 
L 48.78125 2.09375 
Q 45.015625 0.34375 40.984375 -0.53125 
Q 36.96875 -1.421875 32.421875 -1.421875 
Q 20.0625 -1.421875 12.78125 6.34375 
Q 5.515625 14.109375 5.515625 27.296875 
Q 5.515625 40.671875 12.859375 48.328125 
Q 20.21875 56 33.015625 56 
Q 37.15625 56 41.109375 55.140625 
Q 45.0625 54.296875 48.78125 52.59375 
z
" id="DejaVuSans-99"/>
       <path id="DejaVuSans-32"/>
       <path d="M 30.609375 48.390625 
Q 23.390625 48.390625 19.1875 42.75 
Q 14.984375 37.109375 14.984375 27.296875 
Q 14.984375 17.484375 19.15625 11.84375 
Q 23.34375 6.203125 30.609375 6.203125 
Q 37.796875 6.203125 41.984375 11.859375 
Q 46.1875 17.53125 46.1875 27.296875 
Q 46.1875 37.015625 41.984375 42.703125 
Q 37.796875 48.390625 30.609375 48.390625 
z
M 30.609375 56 
Q 42.328125 56 49.015625 48.375 
Q 55.71875 40.765625 55.71875 27.296875 
Q 55.71875 13.875 49.015625 6.21875 
Q 42.328125 -1.421875 30.609375 -1.421875 
Q 18.84375 -1.421875 12.171875 6.21875 
Q 5.515625 13.875 5.515625 27.296875 
Q 5.515625 40.765625 12.171875 48.375 
Q 18.84375 56 30.609375 56 
z
" id="DejaVuSans-111"/>
       <path d="M 45.40625 46.390625 
L 45.40625 75.984375 
L 54.390625 75.984375 
L 54.390625 0 
L 45.40625 0 
L 45.40625 8.203125 
Q 42.578125 3.328125 38.25 0.953125 
Q 33.9375 -1.421875 27.875 -1.421875 
Q 17.96875 -1.421875 11.734375 6.484375 
Q 5.515625 14.40625 5.515625 27.296875 
Q 5.515625 40.1875 11.734375 48.09375 
Q 17.96875 56 27.875 56 
Q 33.9375 56 38.25 53.625 
Q 42.578125 51.265625 45.40625 46.390625 
z
M 14.796875 27.296875 
Q 14.796875 17.390625 18.875 11.75 
Q 22.953125 6.109375 30.078125 6.109375 
Q 37.203125 6.109375 41.296875 11.75 
Q 45.40625 17.390625 45.40625 27.296875 
Q 45.40625 37.203125 41.296875 42.84375 
Q 37.203125 48.484375 30.078125 48.484375 
Q 22.953125 48.484375 18.875 42.84375 
Q 14.796875 37.203125 14.796875 27.296875 
z
" id="DejaVuSans-100"/>
       <path d="M 54.59375 10.890625 
L 58.40625 29.984375 
L 42.1875 29.984375 
L 43.703125 38.09375 
L 69.578125 38.09375 
L 63.28125 6 
Q 56.78125 2.4375 49.109375 0.5 
Q 41.453125 -1.421875 33.6875 -1.421875 
Q 19.96875 -1.421875 12.234375 6.1875 
Q 4.5 13.8125 4.5 27.390625 
Q 4.5 38.671875 9.203125 48.84375 
Q 13.921875 59.03125 22.21875 65.828125 
Q 27.4375 70.0625 33.640625 72.140625 
Q 39.84375 74.21875 47.40625 74.21875 
Q 54.25 74.21875 60.515625 72.484375 
Q 66.796875 70.75 72.515625 67.28125 
L 70.515625 56.78125 
Q 66.109375 61.375 60.203125 63.796875 
Q 54.296875 66.21875 47.609375 66.21875 
Q 39.84375 66.21875 33.9375 63.25 
Q 28.03125 60.296875 23.390625 54.109375 
Q 19.4375 48.828125 17.15625 41.671875 
Q 14.890625 34.515625 14.890625 27.09375 
Q 14.890625 16.890625 20.109375 11.734375 
Q 25.34375 6.59375 35.6875 6.59375 
Q 40.875 6.59375 45.703125 7.6875 
Q 50.53125 8.796875 54.59375 10.890625 
z
" id="DejaVuSans-Oblique-71"/>
      </defs>
      <use transform="translate(0 0.015625)" xlink:href="#DejaVuSans-73"/>
      <use transform="translate(29.492188 0.015625)" xlink:href="#DejaVuSans-110"/>
      <use transform="translate(92.871094 0.015625)" xlink:href="#DejaVuSans-101"/>
      <use transform="translate(154.394531 0.015625)" xlink:href="#DejaVuSans-108"/>
      <use transform="translate(182.177734 0.015625)" xlink:href="#DejaVuSans-97"/>
      <use transform="translate(243.457031 0.015625)" xlink:href="#DejaVuSans-115"/>
      <use transform="translate(295.556641 0.015625)" xlink:href="#DejaVuSans-116"/>
      <use transform="translate(334.765625 0.015625)" xlink:href="#DejaVuSans-105"/>
      <use transform="translate(362.548828 0.015625)" xlink:href="#DejaVuSans-99"/>
      <use transform="translate(417.529297 0.015625)" xlink:href="#DejaVuSans-32"/>
      <use transform="translate(449.316406 0.015625)" xlink:href="#DejaVuSans-108"/>
      <use transform="translate(477.099609 0.015625)" xlink:href="#DejaVuSans-111"/>
      <use transform="translate(538.28125 0.015625)" xlink:href="#DejaVuSans-97"/>
      <use transform="translate(599.560547 0.015625)" xlink:href="#DejaVuSans-100"/>
      <use transform="translate(663.037109 0.015625)" xlink:href="#DejaVuSans-32"/>
      <use transform="translate(694.824219 0.015625)" xlink:href="#DejaVuSans-Oblique-71"/>
     </g>
    </g>
   </g>
   <g id="matplotlib.axis_2">
    <g id="ytick_1">
     <g id="line2d_8">
      <defs>
       <path d="M 0 0 
L -3.5 0 
" id="m31bbcac420" style="stroke:#000000;stroke-width:0.8;"/>
      </defs>
      <g>
       <use style="stroke:#000000;stroke-width:0.8;" x="54" xlink:href="#m31bbcac420" y="236.877446"/>
      </g>
     </g>
     <g id="text_9">
      <!-- −15 -->
      <g transform="translate(21.674375 241.436509)scale(0.12 -0.12)">
       <use xlink:href="#DejaVuSans-8722"/>
       <use x="83.789062" xlink:href="#DejaVuSans-49"/>
       <use x="147.412109" xlink:href="#DejaVuSans-53"/>
      </g>
     </g>
    </g>
    <g id="ytick_2">
     <g id="line2d_9">
      <g>
       <use style="stroke:#000000;stroke-width:0.8;" x="54" xlink:href="#m31bbcac420" y="205.676878"/>
      </g>
     </g>
     <g id="text_10">
      <!-- −10 -->
      <g transform="translate(21.674375 210.235941)scale(0.12 -0.12)">
       <use xlink:href="#DejaVuSans-8722"/>
       <use x="83.789062" xlink:href="#DejaVuSans-49"/>
       <use x="147.412109" xlink:href="#DejaVuSans-48"/>
      </g>
     </g>
    </g>
    <g id="ytick_3">
     <g id="line2d_10">
      <g>
       <use style="stroke:#000000;stroke-width:0.8;" x="54" xlink:href="#m31bbcac420" y="174.47631"/>
      </g>
     </g>
     <g id="text_11">
      <!-- −5 -->
      <g transform="translate(29.309375 179.035373)scale(0.12 -0.12)">
       <use xlink:href="#DejaVuSans-8722"/>
       <use x="83.789062" xlink:href="#DejaVuSans-53"/>
      </g>
     </g>
    </g>
    <g id="ytick_4">
     <g id="line2d_11">
      <g>
       <use style="stroke:#000000;stroke-width:0.8;" x="54" xlink:href="#m31bbcac420" y="143.275742"/>
      </g>
     </g>
     <g id="text_12">
      <!-- 0 -->
      <g transform="translate(39.365 147.834805)scale(0.12 -0.12)">
       <use xlink:href="#DejaVuSans-48"/>
      </g>
     </g>
    </g>
    <g id="ytick_5">
     <g id="line2d_12">
      <g>
       <use style="stroke:#000000;stroke-width:0.8;" x="54" xlink:href="#m31bbcac420" y="112.075174"/>
      </g>
     </g>
     <g id="text_13">
      <!-- 5 -->
      <g transform="translate(39.365 116.634237)scale(0.12 -0.12)">
       <use xlink:href="#DejaVuSans-53"/>
      </g>
     </g>
    </g>
    <g id="ytick_6">
     <g id="line2d_13">
      <g>
       <use style="stroke:#000000;stroke-width:0.8;" x="54" xlink:href="#m31bbcac420" y="80.874606"/>
      </g>
     </g>
     <g id="text_14">
      <!-- 10 -->
      <g transform="translate(31.73 85.433669)scale(0.12 -0.12)">
       <use xlink:href="#DejaVuSans-49"/>
       <use x="63.623047" xlink:href="#DejaVuSans-48"/>
      </g>
     </g>
    </g>
    <g id="ytick_7">
     <g id="line2d_14">
      <g>
       <use style="stroke:#000000;stroke-width:0.8;" x="54" xlink:href="#m31bbcac420" y="49.674038"/>
      </g>
     </g>
     <g id="text_15">
      <!-- 15 -->
      <g transform="translate(31.73 54.233101)scale(0.12 -0.12)">
       <use xlink:href="#DejaVuSans-49"/>
       <use x="63.623047" xlink:href="#DejaVuSans-53"/>
      </g>
     </g>
    </g>
    <g id="text_16">
     <!-- Elastic load $F$ -->
     <g transform="translate(15.594687 176.38)rotate(-90)scale(0.1 -0.1)">
      <defs>
       <path d="M 9.8125 72.90625 
L 55.90625 72.90625 
L 55.90625 64.59375 
L 19.671875 64.59375 
L 19.671875 43.015625 
L 54.390625 43.015625 
L 54.390625 34.71875 
L 19.671875 34.71875 
L 19.671875 8.296875 
L 56.78125 8.296875 
L 56.78125 0 
L 9.8125 0 
z
" id="DejaVuSans-69"/>
       <path d="M 16.890625 72.90625 
L 58.6875 72.90625 
L 57.078125 64.59375 
L 25.09375 64.59375 
L 20.90625 43.109375 
L 49.8125 43.109375 
L 48.1875 34.8125 
L 19.28125 34.8125 
L 12.5 0 
L 2.6875 0 
z
" id="DejaVuSans-Oblique-70"/>
      </defs>
      <use transform="translate(0 0.015625)" xlink:href="#DejaVuSans-69"/>
      <use transform="translate(63.183594 0.015625)" xlink:href="#DejaVuSans-108"/>
      <use transform="translate(90.966797 0.015625)" xlink:href="#DejaVuSans-97"/>
      <use transform="translate(152.246094 0.015625)" xlink:href="#DejaVuSans-115"/>
      <use transform="translate(204.345703 0.015625)" xlink:href="#DejaVuSans-116"/>
      <use transform="translate(243.554688 0.015625)" xlink:href="#DejaVuSans-105"/>
      <use transform="translate(271.337891 0.015625)" xlink:href="#DejaVuSans-99"/>
      <use transform="translate(326.318359 0.015625)" xlink:href="#DejaVuSans-32"/>
      <use transform="translate(358.105469 0.015625)" xlink:href="#DejaVuSans-108"/>
      <use transform="translate(385.888672 0.015625)" xlink:href="#DejaVuSans-111"/>
      <use transform="translate(447.070312 0.015625)" xlink:href="#DejaVuSans-97"/>
      <use transform="translate(508.349609 0.015625)" xlink:href="#DejaVuSans-100"/>
      <use transform="translate(571.826172 0.015625)" xlink:href="#DejaVuSans-32"/>
      <use transform="translate(603.613281 0.015625)" xlink:href="#DejaVuSans-Oblique-70"/>
     </g>
    </g>
   </g>
   <g id="line2d_15">
    <path clip-path="url(#p74be6449c0)" d="M 327.797846 152.284552 
L 327.73167 152.297515 
L 327.70259 152.289243 
L 326.853249 151.890765 
L 324.848166 151.017545 
L 322.964958 150.434576 
L 320.935792 150.034893 
L 318.613868 149.797294 
L 315.399122 149.706125 
L 302.072603 149.5881 
L 295.298231 149.156252 
L 274.923166 147.732292 
L 247.953867 146.065312 
L 233.395693 145.217432 
L 216.113102 144.494496 
L 203.353844 143.849433 
L 189.553887 142.895693 
L 153.632094 140.133855 
L 137.596999 138.656879 
L 131.189289 138.375417 
L 125.160495 138.080061 
L 122.476353 137.719997 
L 120.363909 137.2151 
L 118.559983 136.56034 
L 116.951396 135.748173 
L 115.550869 134.80388 
L 115.003865 134.253433 
L 115.030345 134.248283 
L 115.409613 134.398923 
L 118.203702 135.626663 
L 120.147781 136.193706 
L 122.227116 136.567759 
L 124.876643 136.791844 
L 128.504437 136.84283 
L 138.413022 136.870588 
L 144.479223 137.180555 
L 201.452714 140.903276 
L 214.19295 141.552277 
L 241.026509 142.800136 
L 256.01252 143.860947 
L 288.909781 146.392629 
L 304.995957 147.881901 
L 311.431614 148.170537 
L 317.49206 148.45848 
L 320.193449 148.808536 
L 322.322351 149.303953 
L 324.144091 149.951888 
L 325.774446 150.76271 
L 327.206387 151.717418 
L 327.797846 152.284552 
L 327.797846 152.284552 
" style="fill:none;stroke:#172c4b;stroke-linecap:square;stroke-opacity:0.9;"/>
   </g>
   <g id="line2d_16">
    <path clip-path="url(#p74be6449c0)" d="M 332.447265 158.065403 
L 332.411407 158.112587 
L 332.347782 158.080571 
L 331.879419 157.588195 
L 328.874067 154.173669 
L 327.246883 152.705219 
L 325.684033 151.597052 
L 324.282254 150.852702 
L 322.802516 150.309192 
L 321.253237 149.981495 
L 319.639581 149.864685 
L 317.620872 149.969182 
L 315.149607 150.340359 
L 307.72641 151.612436 
L 304.69254 151.807418 
L 301.955815 151.766585 
L 298.606548 151.472784 
L 294.585179 150.864222 
L 286.576679 149.330831 
L 280.415743 148.269818 
L 275.255018 147.606405 
L 270.021135 147.148687 
L 262.965652 146.772588 
L 242.128045 146.030605 
L 232.572917 145.86242 
L 223.035911 145.937932 
L 208.730982 146.065523 
L 199.771395 145.881004 
L 182.492484 145.215257 
L 173.652369 144.728213 
L 167.82983 144.175122 
L 162.664299 143.437303 
L 157.601756 142.472286 
L 150.02913 140.741507 
L 144.434674 139.548613 
L 141.07365 139.033006 
L 137.880837 138.772016 
L 134.85912 138.770262 
L 131.609138 139.020749 
L 124.661766 139.709565 
L 122.665491 139.607661 
L 121.070799 139.305696 
L 119.541691 138.781125 
L 118.08431 138.029682 
L 116.708031 137.067353 
L 115.181103 135.686139 
L 113.81463 134.149363 
L 112.29198 132.071324 
L 110.964067 129.87242 
L 110.349482 128.505118 
L 110.373392 128.438792 
L 110.429096 128.458198 
L 110.870462 128.909681 
L 114.030034 132.485335 
L 115.673606 133.945655 
L 117.248082 135.037064 
L 118.658126 135.762577 
L 120.145144 136.284846 
L 121.70104 136.590913 
L 123.320972 136.687631 
L 125.347181 136.563372 
L 128.19276 136.108956 
L 134.441234 135.010825 
L 137.438717 134.764787 
L 140.143982 134.755956 
L 143.457688 134.994751 
L 146.932935 135.471395 
L 152.147186 136.427263 
L 160.963503 138.06105 
L 166.098688 138.782161 
L 171.314854 139.294409 
L 177.764986 139.688111 
L 190.815516 140.180996 
L 206.940093 140.66001 
L 215.887307 140.666949 
L 237.348573 140.527632 
L 246.907665 140.805041 
L 266.502443 141.64647 
L 272.936359 142.153559 
L 278.132921 142.798451 
L 283.239884 143.680379 
L 288.763542 144.873464 
L 298.606548 147.047288 
L 301.955815 147.545909 
L 305.136412 147.787925 
L 308.145998 147.772385 
L 311.382845 147.509099 
L 317.963577 146.84442 
L 319.967322 146.925135 
L 321.568361 147.205815 
L 323.10425 147.707608 
L 324.569172 148.436744 
L 325.954072 149.379285 
L 327.49315 150.742778 
L 328.874067 152.270966 
L 330.247086 154.10064 
L 331.677391 156.398057 
L 332.431322 157.970168 
L 332.447265 158.065403 
L 332.447265 158.065403 
" style="fill:none;stroke:#172c4b;stroke-linecap:square;stroke-opacity:0.8;"/>
   </g>
   <g id="line2d_17">
    <path clip-path="url(#p74be6449c0)" d="M 335.817756 162.696605 
L 335.740147 162.805352 
L 335.508623 162.618264 
L 334.601545 161.438089 
L 331.762199 157.643759 
L 329.866496 155.520213 
L 328.365707 154.132692 
L 326.76607 152.949444 
L 325.08475 152.028928 
L 323.689878 151.502759 
L 322.25599 151.166092 
L 320.413143 150.995646 
L 318.516113 151.063619 
L 316.166404 151.373772 
L 308.565344 152.585802 
L 305.821162 152.720072 
L 302.965127 152.616298 
L 300.00004 152.274554 
L 296.413325 151.628296 
L 282.791837 148.887937 
L 278.843215 148.446186 
L 274.865189 148.219127 
L 269.71766 148.170437 
L 255.821137 148.196863 
L 249.374583 147.875516 
L 235.265342 147.044097 
L 229.997575 147.015142 
L 223.581975 147.22998 
L 211.921559 147.692554 
L 206.650568 147.648223 
L 200.774076 147.361961 
L 184.349851 146.371349 
L 177.393678 146.320075 
L 168.786075 146.261651 
L 164.802808 146.027261 
L 160.847035 145.568862 
L 156.930015 144.8709 
L 152.523055 143.832319 
L 141.053157 140.931581 
L 138.151056 140.487624 
L 135.36025 140.278575 
L 132.680646 140.288934 
L 129.272336 140.535679 
L 124.859406 140.873448 
L 122.946035 140.832304 
L 121.086865 140.567117 
L 119.639207 140.155183 
L 118.229243 139.544558 
L 116.861053 138.727213 
L 115.540504 137.707148 
L 113.968553 136.173221 
L 112.50128 134.407558 
L 110.908725 132.102613 
L 109.333032 129.387428 
L 107.849322 126.337488 
L 107.037434 124.195546 
L 107.037434 123.743346 
L 107.249877 123.894112 
L 107.980773 124.818758 
L 111.417009 129.368998 
L 113.074324 131.177013 
L 114.585871 132.547486 
L 116.194388 133.70664 
L 117.539602 134.443412 
L 118.9293 134.993398 
L 120.35851 135.353439 
L 122.195877 135.550379 
L 124.087488 135.503784 
L 126.430359 135.210346 
L 134.906 133.911403 
L 137.678134 133.83432 
L 140.56189 133.999222 
L 143.553226 134.395749 
L 147.693421 135.199838 
L 158.044314 137.361994 
L 161.973907 137.91213 
L 165.938422 138.244013 
L 170.500044 138.383064 
L 177.393678 138.321551 
L 184.932403 138.304801 
L 190.77952 138.517804 
L 200.185719 139.146074 
L 206.650568 139.481834 
L 211.921559 139.546231 
L 217.75722 139.387479 
L 232.336395 138.849477 
L 237.61268 138.9538 
L 244.08112 139.330953 
L 256.405134 140.116682 
L 262.801027 140.235523 
L 275.434966 140.35084 
L 279.409331 140.660315 
L 283.35287 141.205221 
L 287.252183 141.982185 
L 292.169573 143.222332 
L 300.501527 145.370553 
L 303.929498 145.974537 
L 306.748312 146.24258 
L 309.455444 146.283191 
L 312.477601 146.110276 
L 318.516113 145.670884 
L 320.413143 145.772296 
L 322.25599 146.116539 
L 323.689878 146.601318 
L 325.08475 147.289151 
L 326.435858 148.183652 
L 327.73667 149.276161 
L 329.279288 150.887006 
L 330.711129 152.706824 
L 332.252199 155.037662 
L 333.755099 157.721267 
L 335.127024 160.634279 
L 335.798333 162.529747 
L 335.817756 162.696605 
L 335.817756 162.696605 
" style="fill:none;stroke:#172c4b;stroke-linecap:square;stroke-opacity:0.7;"/>
   </g>
   <g id="line2d_18">
    <path clip-path="url(#p74be6449c0)" d="M 341.294548 172.290573 
L 341.185366 172.503742 
L 340.961382 172.302982 
L 340.325517 171.31761 
L 337.877332 166.830459 
L 335.353685 162.426565 
L 333.160448 159.067542 
L 331.190915 156.501655 
L 329.54796 154.715596 
L 327.861808 153.230548 
L 326.144776 152.082628 
L 324.842381 151.451832 
L 323.53054 151.016026 
L 322.210962 150.765921 
L 320.440727 150.694107 
L 318.657644 150.874544 
L 316.406697 151.359615 
L 307.962556 153.506747 
L 305.482765 153.733911 
L 303.44951 153.715353 
L 300.846181 153.437285 
L 298.177732 152.903436 
L 294.899794 152.008681 
L 285.318015 149.189019 
L 282.462651 148.606648 
L 279.606465 148.228512 
L 276.754524 148.063424 
L 273.340864 148.11791 
L 269.36897 148.428117 
L 260.862493 149.194211 
L 257.448558 149.263798 
L 254.026038 149.116511 
L 250.027511 148.68801 
L 244.329144 147.79691 
L 239.249226 147.06053 
L 235.903666 146.780461 
L 232.596363 146.750109 
L 229.86903 146.932435 
L 226.625791 147.380236 
L 222.869675 148.132725 
L 214.822028 149.835849 
L 211.566163 150.262754 
L 208.826059 150.426876 
L 205.502618 150.379645 
L 202.142082 150.09426 
L 197.614416 149.469147 
L 190.197531 148.436898 
L 186.772326 148.17843 
L 183.354611 148.131124 
L 179.378468 148.330169 
L 173.143338 148.946697 
L 168.602385 149.296718 
L 165.186279 149.319359 
L 162.3327 149.113275 
L 159.476101 148.679932 
L 156.622381 148.027635 
L 153.2138 147.010205 
L 141.686218 143.262696 
L 139.089659 142.787769 
L 136.561922 142.587526 
L 134.102223 142.660615 
L 131.705933 142.965572 
L 127.983406 143.722762 
L 124.810536 144.314566 
L 123.022079 144.465158 
L 121.247199 144.388862 
L 119.924102 144.143882 
L 118.608238 143.712703 
L 117.300846 143.078106 
L 116.004122 142.228937 
L 114.721262 141.1608 
L 113.456479 139.87653 
L 111.807348 137.846797 
L 110.21458 135.496598 
L 108.69556 132.892252 
L 106.930045 129.410313 
L 105.059994 125.161998 
L 103.308167 120.578151 
L 101.991207 116.516829 
L 101.516579 114.483747 
L 101.58483 114.044095 
L 101.788685 114.194001 
L 102.392297 115.100799 
L 104.247007 118.482873 
L 106.930045 123.272538 
L 109.067371 126.662378 
L 111.002885 129.313609 
L 112.625863 131.19874 
L 114.297422 132.802103 
L 116.004122 134.07924 
L 117.300846 134.808955 
L 118.608238 135.341498 
L 119.924102 135.682899 
L 121.247199 135.845547 
L 123.022079 135.816156 
L 124.810536 135.556623 
L 127.526064 134.880031 
L 133.136475 133.349638 
L 135.570055 132.948943 
L 137.564719 132.809876 
L 139.603511 132.851368 
L 142.213576 133.156821 
L 144.8882 133.713481 
L 148.172377 134.626011 
L 157.192521 137.294193 
L 160.618787 137.992213 
L 163.47473 138.348964 
L 166.326075 138.493362 
L 169.738927 138.418616 
L 174.27697 138.037591 
L 181.649172 137.371992 
L 185.062347 137.285411 
L 188.484241 137.414357 
L 191.911398 137.751918 
L 197.045632 138.520906 
L 203.266099 139.458122 
L 206.614723 139.756586 
L 209.925255 139.809226 
L 212.655085 139.64559 
L 215.900719 139.21687 
L 219.658362 138.477781 
L 228.243859 136.671575 
L 231.502432 136.264053 
L 234.245162 136.118453 
L 237.571814 136.187243 
L 240.93523 136.489807 
L 246.034689 137.21387 
L 252.31259 138.084497 
L 255.738228 138.359317 
L 259.156678 138.42464 
L 262.566153 138.283641 
L 267.668729 137.811802 
L 273.340864 137.298401 
L 276.754524 137.212301 
L 279.606465 137.35291 
L 282.462651 137.717611 
L 285.318015 138.306846 
L 288.732297 139.267879 
L 293.234737 140.806318 
L 298.716336 142.655116 
L 301.372225 143.347894 
L 303.961981 143.796385 
L 306.482813 143.968583 
L 308.935903 143.869776 
L 311.326238 143.545444 
L 315.497793 142.681947 
L 318.209608 142.208094 
L 319.996227 142.082049 
L 321.769545 142.191416 
L 323.091484 142.466002 
L 324.406046 142.930041 
L 325.71184 143.5998 
L 327.006503 144.48535 
L 328.28667 145.589906 
L 329.963296 147.395219 
L 331.59318 149.551572 
L 333.160448 152.00593 
L 335.003604 155.378908 
L 336.681413 158.920533 
L 338.419451 163.100138 
L 339.982977 167.409768 
L 341.049425 170.942258 
L 341.294548 172.290573 
L 341.294548 172.290573 
" style="fill:none;stroke:#172c4b;stroke-linecap:square;stroke-opacity:0.6;"/>
   </g>
   <g id="line2d_19">
    <path clip-path="url(#p74be6449c0)" d="M 346.979879 180.877277 
L 346.905692 181.242709 
L 346.774175 181.259595 
L 346.455576 180.951083 
L 345.810676 179.946204 
L 344.117856 176.767358 
L 339.82862 168.645769 
L 337.655165 164.970807 
L 335.32714 161.498655 
L 333.383833 159.009454 
L 331.390472 156.866854 
L 329.872731 155.521359 
L 328.341894 154.414692 
L 326.802383 153.550166 
L 325.25741 152.922244 
L 323.709032 152.517171 
L 322.158231 152.313901 
L 320.086664 152.309115 
L 318.008672 152.537359 
L 314.870752 153.128812 
L 310.620836 153.935347 
L 307.910714 154.215895 
L 305.707344 154.23524 
L 303.471221 154.04449 
L 301.203052 153.640003 
L 298.326893 152.860261 
L 294.82753 151.61878 
L 285.40428 148.057511 
L 282.483301 147.291351 
L 280.167703 146.896299 
L 277.874318 146.713847 
L 275.604512 146.744145 
L 273.358003 146.971466 
L 270.579793 147.486028 
L 266.734562 148.483617 
L 260.745449 150.099123 
L 258.024673 150.627473 
L 255.296606 150.938571 
L 252.558755 151.008748 
L 249.811581 150.84789 
L 246.507307 150.409081 
L 234.481452 148.499796 
L 231.800038 148.418743 
L 229.141991 148.545302 
L 225.978913 148.94774 
L 222.31266 149.660114 
L 215.501937 151.036689 
L 212.32754 151.41151 
L 209.658 151.511383 
L 206.964686 151.405068 
L 203.703315 151.034445 
L 199.317083 150.277735 
L 193.809727 149.354387 
L 191.060265 149.088395 
L 188.319437 149.037202 
L 185.588562 149.232231 
L 182.866033 149.672177 
L 179.603537 150.471335 
L 168.597954 153.498813 
L 166.342842 153.794293 
L 164.06414 153.89019 
L 161.762175 153.768088 
L 159.438939 153.425525 
L 157.098057 152.87662 
L 154.155013 151.94735 
L 150.025922 150.357393 
L 144.179397 148.074084 
L 141.307496 147.177493 
L 139.043228 146.657644 
L 136.811201 146.338213 
L 134.611879 146.22139 
L 131.90641 146.329222 
L 128.715106 146.714574 
L 124.006862 147.315819 
L 121.931656 147.365819 
L 120.378896 147.23473 
L 118.828473 146.918597 
L 117.280567 146.385202 
L 115.736331 145.607858 
L 114.19801 144.566741 
L 112.669016 143.250005 
L 111.153974 141.654624 
L 109.658725 139.786928 
L 108.190284 137.662807 
L 106.288218 134.476796 
L 104.470137 130.96518 
L 102.352531 126.28502 
L 100.453848 121.518683 
L 98.534789 116.074751 
L 96.891074 110.69932 
L 95.982581 106.981748 
L 95.817934 105.584904 
L 95.916811 105.28762 
L 96.064626 105.315747 
L 96.407214 105.689814 
L 97.28938 107.144965 
L 99.766972 111.908041 
L 102.76016 117.536423 
L 104.915497 121.218444 
L 107.230179 124.721105 
L 109.165887 127.248408 
L 111.153974 129.437904 
L 112.669016 130.822238 
L 114.19801 131.969186 
L 115.736331 132.873917 
L 117.280567 133.54053 
L 118.828473 133.981467 
L 120.378896 134.216633 
L 122.449853 134.256202 
L 124.526858 134.052523 
L 127.662206 133.477409 
L 132.443855 132.57733 
L 135.15869 132.322317 
L 137.366127 132.328325 
L 139.606333 132.546015 
L 141.878364 132.976466 
L 144.758691 133.783749 
L 148.261612 135.04634 
L 157.098057 138.4028 
L 160.021571 139.19645 
L 162.339767 139.617248 
L 164.636037 139.82662 
L 166.908808 139.822369 
L 169.15816 139.618309 
L 171.93949 139.12645 
L 175.24064 138.297575 
L 182.866033 136.27378 
L 185.588562 135.806145 
L 188.319437 135.566371 
L 191.060265 135.568037 
L 193.809727 135.791522 
L 197.114845 136.282044 
L 206.964686 137.936702 
L 209.658 138.117958 
L 212.32754 138.095148 
L 214.974824 137.868698 
L 218.128275 137.37147 
L 223.8819 136.153398 
L 227.557282 135.474263 
L 230.734116 135.120783 
L 233.406012 135.041537 
L 236.101678 135.167904 
L 239.365488 135.557693 
L 244.304116 136.427411 
L 249.261265 137.231869 
L 252.01 137.478631 
L 254.749846 137.506106 
L 257.479765 137.285961 
L 260.201661 136.822919 
L 263.464195 136.00334 
L 273.358003 133.208691 
L 276.169741 132.783753 
L 278.445478 132.66159 
L 280.74461 132.755968 
L 283.065353 133.071407 
L 285.40428 133.595848 
L 288.345891 134.50114 
L 291.885768 135.83764 
L 298.905429 138.57758 
L 301.772988 139.449359 
L 304.033317 139.944973 
L 306.261242 140.238771 
L 308.456538 140.331166 
L 311.157419 140.198574 
L 314.870752 139.720564 
L 318.528962 139.255951 
L 320.605039 139.179306 
L 322.675414 139.355665 
L 324.225455 139.705902 
L 325.772858 140.278272 
L 327.316294 141.098405 
L 328.85333 142.184865 
L 330.380353 143.548079 
L 331.892535 145.189544 
L 333.383833 147.101338 
L 335.32714 150.039346 
L 337.200409 153.358737 
L 338.980874 156.965619 
L 341.038118 161.699618 
L 342.86127 166.438433 
L 344.670595 171.738513 
L 346.163945 176.806679 
L 346.848095 179.759056 
L 346.979879 180.877277 
L 346.979879 180.877277 
" style="fill:none;stroke:#172c4b;stroke-linecap:square;stroke-opacity:0.5;"/>
   </g>
   <g id="line2d_20">
    <path clip-path="url(#p74be6449c0)" d="M 351.658747 191.161726 
L 351.572479 191.731374 
L 351.419541 191.830104 
L 351.191157 191.706704 
L 350.709877 191.117116 
L 349.818575 189.62216 
L 347.627161 185.34973 
L 342.850525 175.991043 
L 340.281196 171.440119 
L 338.10217 167.957051 
L 335.842769 164.754999 
L 333.526986 161.935671 
L 331.765489 160.115877 
L 329.990781 158.568843 
L 328.208519 157.301039 
L 326.422999 156.308502 
L 324.637205 155.577546 
L 322.852903 155.085824 
L 321.070766 154.80367 
L 318.697384 154.691652 
L 315.731138 154.842365 
L 307.960623 155.460276 
L 305.535511 155.403044 
L 303.08951 155.138997 
L 300.622513 154.651501 
L 298.136357 153.947214 
L 295.007527 152.806517 
L 290.607731 150.899143 
L 284.352493 148.17634 
L 281.269379 147.093541 
L 278.835132 146.451543 
L 276.434116 146.040736 
L 274.068805 145.871205 
L 271.73996 145.934342 
L 269.446714 146.203987 
L 266.626638 146.767625 
L 262.205278 147.940666 
L 257.866451 149.032685 
L 255.183505 149.489994 
L 252.517401 149.695448 
L 249.867141 149.627322 
L 247.234897 149.305019 
L 244.107137 148.665741 
L 236.023845 146.838555 
L 233.599513 146.620129 
L 231.698726 146.660362 
L 229.831254 146.909857 
L 227.994329 147.368083 
L 225.734295 148.207179 
L 223.503333 149.279534 
L 215.029091 153.691151 
L 212.732806 154.463095 
L 210.861287 154.868081 
L 208.956225 155.074611 
L 207.016742 155.091407 
L 204.545198 154.884096 
L 201.005401 154.311944 
L 195.822917 153.438034 
L 193.192707 153.203157 
L 190.5441 153.208504 
L 188.413737 153.412978 
L 185.736138 153.920744 
L 183.039152 154.674118 
L 179.219237 155.9971 
L 174.200253 157.720849 
L 171.344359 158.456685 
L 169.020043 158.839942 
L 166.659283 158.998623 
L 164.26263 158.910972 
L 161.832344 158.573537 
L 159.372351 158.001814 
L 156.263946 157.01024 
L 152.50232 155.54817 
L 145.59594 152.79096 
L 142.483019 151.795162 
L 140.013486 151.202574 
L 137.564826 150.813359 
L 135.137174 150.623509 
L 132.129361 150.62092 
L 123.208611 150.893217 
L 121.428112 150.690978 
L 119.645609 150.299507 
L 117.860984 149.677221 
L 116.075081 148.787334 
L 114.289862 147.599612 
L 112.508525 146.091945 
L 110.735589 144.251664 
L 108.97694 142.076538 
L 107.239825 139.575418 
L 105.532801 136.768486 
L 103.32061 132.605913 
L 101.205396 128.059727 
L 99.215666 123.261918 
L 96.950683 117.147631 
L 94.987478 111.213523 
L 93.107876 104.804902 
L 91.824678 99.676613 
L 91.254382 96.689284 
L 91.139402 95.259664 
L 91.254382 94.774415 
L 91.426273 94.731565 
L 91.673345 94.909787 
L 92.181945 95.578262 
L 93.381699 97.681656 
L 96.532048 103.942023 
L 100.192993 111.018075 
L 102.781637 115.557946 
L 104.972135 119.012425 
L 107.239825 122.171589 
L 108.97694 124.28705 
L 110.735589 126.150919 
L 112.508525 127.744151 
L 114.289862 129.058492 
L 116.075081 130.096209 
L 117.860984 130.869428 
L 119.645609 131.399141 
L 121.428112 131.713899 
L 123.801803 131.859599 
L 126.174389 131.778095 
L 136.348441 131.104392 
L 138.786493 131.28766 
L 141.245728 131.690915 
L 143.725037 132.316105 
L 146.847624 133.376761 
L 150.615931 134.946468 
L 158.753316 138.495325 
L 161.832344 139.550035 
L 164.26263 140.164323 
L 166.659283 140.545137 
L 169.020043 140.684736 
L 171.344359 140.594017 
L 173.63329 140.301181 
L 176.448504 139.717164 
L 181.409297 138.386006 
L 185.198446 137.463185 
L 187.879572 137.028932 
L 190.5441 136.850538 
L 193.192707 136.945623 
L 195.822917 137.290761 
L 198.947398 137.947237 
L 206.526544 139.676677 
L 208.956225 139.922287 
L 210.861287 139.907426 
L 212.732806 139.6844 
L 214.573341 139.25167 
L 216.387089 138.624136 
L 218.625371 137.613015 
L 221.729967 135.935209 
L 225.734295 133.768491 
L 227.994329 132.770918 
L 230.295121 132.027021 
L 232.170729 131.646756 
L 234.080079 131.464754 
L 236.023845 131.470262 
L 238.500457 131.699561 
L 242.046333 132.286805 
L 247.234897 133.145896 
L 249.867141 133.359537 
L 252.517401 133.32741 
L 254.649015 133.100101 
L 257.32836 132.56553 
L 260.027571 131.791034 
L 264.40354 130.253708 
L 268.878725 128.746661 
L 271.73996 128.035769 
L 274.068805 127.678813 
L 276.434116 127.550094 
L 278.835132 127.669168 
L 281.269379 128.037122 
L 283.732733 128.636123 
L 286.844245 129.654074 
L 291.236493 131.392244 
L 296.887186 133.6479 
L 300.002656 134.668664 
L 302.474691 135.28578 
L 304.926007 135.700692 
L 307.356226 135.914411 
L 310.366791 135.939609 
L 315.731138 135.655857 
L 318.697384 135.614263 
L 321.070766 135.814835 
L 322.852903 136.171777 
L 324.637205 136.752887 
L 326.422999 137.595877 
L 328.208519 138.732188 
L 329.990781 140.185381 
L 331.765489 141.969779 
L 333.526986 144.089408 
L 335.268249 146.537291 
L 336.980936 149.295135 
L 338.655472 152.333429 
L 340.810279 156.749796 
L 342.850525 161.470301 
L 345.194609 167.573033 
L 347.254412 173.596926 
L 349.271015 180.245014 
L 350.709877 185.73837 
L 351.505501 189.621906 
L 351.658747 191.161726 
L 351.658747 191.161726 
" style="fill:none;stroke:#172c4b;stroke-linecap:square;stroke-opacity:0.4;"/>
   </g>
   <g id="line2d_21">
    <path clip-path="url(#p74be6449c0)" d="M 357.645738 202.591653 
L 357.545686 203.427977 
L 357.368308 203.643963 
L 357.10342 203.589365 
L 356.75242 203.269877 
L 356.068598 202.313597 
L 354.876041 200.214704 
L 352.536175 195.578565 
L 346.846869 184.232076 
L 343.819838 178.734821 
L 341.264013 174.524241 
L 338.622637 170.641966 
L 336.602075 168.016352 
L 334.558828 165.675856 
L 332.501373 163.642894 
L 330.436648 161.927275 
L 328.370053 160.526555 
L 326.305505 159.42683 
L 324.245534 158.603935 
L 322.191429 158.024994 
L 320.14341 157.650234 
L 317.420968 157.390554 
L 313.3479 157.28603 
L 308.594226 157.160051 
L 305.869096 156.908663 
L 303.134473 156.447169 
L 300.389999 155.74253 
L 297.637425 154.789138 
L 294.880621 153.607767 
L 291.437673 151.8795 
L 279.308533 145.42612 
L 276.722079 144.409767 
L 274.190155 143.670615 
L 271.716633 143.233315 
L 269.303359 143.100537 
L 266.950161 143.253251 
L 264.655007 143.652778 
L 261.862116 144.414751 
L 258.076742 145.734533 
L 253.894747 147.164837 
L 251.342678 147.81324 
L 249.329764 148.132681 
L 247.340601 148.257634 
L 245.37505 148.192884 
L 242.953246 147.882685 
L 239.637199 147.174394 
L 235.082396 146.179762 
L 232.897494 145.949527 
L 231.196201 145.980538 
L 229.535407 146.234455 
L 227.912384 146.721883 
L 226.322624 147.434913 
L 224.37268 148.60265 
L 222.067196 150.294289 
L 217.06192 154.126706 
L 215.083795 155.324241 
L 213.465211 156.077019 
L 211.809325 156.623254 
L 210.113183 156.959932 
L 208.375594 157.102445 
L 206.146119 157.058408 
L 202.455999 156.707164 
L 199.120278 156.447962 
L 196.686435 156.475111 
L 194.711957 156.693448 
L 192.71398 157.116358 
L 190.691832 157.751672 
L 188.126822 158.824308 
L 184.984495 160.427448 
L 178.42372 163.888225 
L 176.135598 164.852158 
L 173.789802 165.605509 
L 171.384087 166.094482 
L 169.540154 166.265005 
L 167.662804 166.25796 
L 165.753247 166.072438 
L 163.160344 165.559172 
L 160.519481 164.773986 
L 157.162424 163.491902 
L 151.70169 161.073152 
L 146.881162 159.012592 
L 143.43718 157.789942 
L 140.689348 157.031287 
L 137.950962 156.48702 
L 135.22244 156.145953 
L 131.823106 155.942139 
L 124.35482 155.62843 
L 121.629069 155.219717 
L 119.578039 154.6892 
L 117.520911 153.910143 
L 115.458416 152.836033 
L 113.392445 151.426724 
L 111.326204 149.650432 
L 109.264344 147.485496 
L 107.213029 144.921811 
L 105.17997 141.961873 
L 103.174397 138.621394 
L 101.206977 134.92944 
L 99.289683 130.928079 
L 96.834017 125.206974 
L 94.524168 119.191335 
L 92.395057 113.06569 
L 90.041286 105.562129 
L 88.090325 98.607692 
L 86.600334 92.588579 
L 85.617974 87.838173 
L 85.175044 84.607651 
L 85.175044 83.464789 
L 85.37485 82.935995 
L 85.617974 82.923364 
L 85.947601 83.177325 
L 86.600334 84.04007 
L 87.753767 86.026566 
L 90.041286 90.52935 
L 95.658705 101.767048 
L 98.663958 107.274305 
L 101.206977 111.516134 
L 103.839237 115.446469 
L 105.855089 118.11654 
L 107.895185 120.506454 
L 109.950795 122.591692 
L 112.014725 124.360354 
L 114.081319 125.812888 
L 116.14642 126.961361 
L 118.207275 127.828325 
L 120.262399 128.445325 
L 122.311409 128.851121 
L 125.034906 129.140153 
L 129.108619 129.262154 
L 134.541707 129.413157 
L 137.267937 129.688079 
L 140.003814 130.17872 
L 142.749439 130.914706 
L 145.502796 131.898247 
L 148.259757 133.105447 
L 151.70169 134.856009 
L 163.160344 140.980872 
L 165.753247 142.029094 
L 168.292239 142.804686 
L 170.773204 143.280319 
L 173.19404 143.450554 
L 175.554672 143.331786 
L 177.856914 142.960404 
L 180.657919 142.222833 
L 184.452917 140.914018 
L 189.158144 139.310891 
L 191.706026 138.687998 
L 193.715914 138.392458 
L 195.702147 138.29188 
L 197.664688 138.379051 
L 200.082387 138.711198 
L 203.391695 139.433106 
L 207.491336 140.335134 
L 209.68268 140.591388 
L 211.38914 140.586597 
L 213.054883 140.361499 
L 214.682417 139.903207 
L 216.27603 139.217319 
L 218.229572 138.07747 
L 220.53721 136.406107 
L 225.929693 132.293957 
L 227.912384 131.122408 
L 229.535407 130.394651 
L 231.196201 129.874827 
L 232.897494 129.56363 
L 234.640264 129.443431 
L 236.875978 129.50795 
L 245.86418 130.090412 
L 247.835697 129.896144 
L 249.830729 129.499635 
L 251.84977 128.890623 
L 254.4104 127.84694 
L 257.546364 126.266943 
L 264.655007 122.533432 
L 266.950161 121.592396 
L 269.303359 120.869465 
L 271.716633 120.416502 
L 273.566192 120.27521 
L 275.449012 120.312131 
L 277.363774 120.526986 
L 279.963032 121.076501 
L 282.609392 121.892325 
L 285.971879 123.201627 
L 292.813673 126.243613 
L 296.948425 127.93402 
L 300.389999 129.070701 
L 303.134473 129.749441 
L 305.869096 130.214664 
L 309.274252 130.532006 
L 314.026369 130.688312 
L 318.10083 130.890476 
L 320.825431 131.263992 
L 322.875445 131.757935 
L 324.931579 132.492198 
L 326.993277 133.514147 
L 329.058855 134.865133 
L 331.125333 136.578464 
L 333.18831 138.677596 
L 335.241876 141.174646 
L 337.278578 144.069272 
L 339.289436 147.347987 
L 341.264013 150.98394 
L 343.190543 154.937185 
L 345.662045 160.609737 
L 347.992011 166.598187 
L 350.145646 172.720861 
L 352.536175 180.257058 
L 354.530191 187.284373 
L 356.068598 193.413143 
L 357.10342 198.30328 
L 357.601246 201.694254 
L 357.645738 202.591653 
L 357.645738 202.591653 
" style="fill:none;stroke:#172c4b;stroke-linecap:square;stroke-opacity:0.3;"/>
   </g>
   <g id="line2d_22">
    <path clip-path="url(#p74be6449c0)" d="M 364.790821 216.668747 
L 364.67218 217.879923 
L 364.461831 218.27651 
L 364.147667 218.346608 
L 363.731302 218.095987 
L 362.919906 217.139517 
L 361.892631 215.52669 
L 360.207109 212.458287 
L 356.482857 205.069523 
L 351.249302 194.731299 
L 347.588449 187.988883 
L 344.508134 182.763897 
L 341.333105 177.872959 
L 338.909563 174.504573 
L 336.463358 171.439205 
L 334.004932 168.703448 
L 331.543037 166.310106 
L 329.084734 164.258649 
L 326.635453 162.536139 
L 324.1991 161.118594 
L 321.778207 159.972707 
L 319.374121 159.057849 
L 316.195345 158.117896 
L 312.262903 157.230193 
L 303.747933 155.408843 
L 300.691013 154.527625 
L 297.654332 153.452745 
L 294.639893 152.175749 
L 290.909238 150.326881 
L 286.502756 147.863396 
L 278.705842 143.437687 
L 275.987336 142.122132 
L 273.342143 141.075759 
L 270.775177 140.347741 
L 268.903156 140.028336 
L 267.077324 139.907409 
L 265.297467 139.980604 
L 263.562708 140.236261 
L 261.317197 140.828327 
L 259.144184 141.652193 
L 256.520307 142.896512 
L 249.608154 146.38415 
L 247.25751 147.224968 
L 245.412296 147.65198 
L 243.596496 147.85086 
L 241.80997 147.83535 
L 239.620005 147.567091 
L 236.643626 146.914788 
L 232.994528 146.122194 
L 231.062745 145.952852 
L 229.567534 146.042427 
L 228.11527 146.363887 
L 226.702442 146.926349 
L 225.323702 147.719096 
L 223.637371 148.987304 
L 221.315225 151.106958 
L 217.642328 154.500523 
L 215.918696 155.772159 
L 214.501195 156.581267 
L 213.043716 157.181498 
L 211.542982 157.571581 
L 209.997549 157.770092 
L 208.003402 157.806721 
L 201.206989 157.656613 
L 199.424185 157.90058 
L 197.612021 158.3677 
L 195.770544 159.08753 
L 193.898244 160.069047 
L 191.991995 161.299239 
L 189.554262 163.132047 
L 180.645282 170.137521 
L 178.371221 171.502816 
L 176.018247 172.604657 
L 174.200111 173.226885 
L 172.335774 173.65817 
L 170.425592 173.89199 
L 168.470603 173.929374 
L 166.47249 173.778821 
L 163.745251 173.313492 
L 160.952126 172.595937 
L 157.379947 171.449286 
L 147.028257 167.971015 
L 143.245931 167.003667 
L 139.431017 166.269365 
L 134.811514 165.634249 
L 127.784762 164.708808 
L 124.617222 164.039706 
L 122.22173 163.323191 
L 119.809139 162.360313 
L 117.380279 161.096739 
L 114.937063 159.482373 
L 112.48269 157.473747 
L 110.021813 155.036258 
L 107.560665 152.146171 
L 105.107149 148.792289 
L 102.670866 144.977224 
L 100.263089 140.718192 
L 97.896678 136.047316 
L 95.585937 131.011379 
L 93.346413 125.671053 
L 90.499844 118.205341 
L 87.850292 110.532496 
L 85.439407 102.879461 
L 83.307964 95.486235 
L 81.09455 86.975543 
L 79.442533 79.685175 
L 78.402783 73.987503 
L 78.034611 70.763986 
L 78.034611 69.18479 
L 78.166357 68.54162 
L 78.402783 68.227009 
L 78.742668 68.237764 
L 79.184271 68.567269 
L 80.032348 69.636603 
L 81.494228 72.059562 
L 83.812476 76.474712 
L 93.346413 95.200627 
L 96.349062 100.551182 
L 99.46901 105.668754 
L 101.864503 109.259422 
L 104.292617 112.579739 
L 106.741539 115.591644 
L 109.201105 118.270853 
L 111.662846 120.606828 
L 114.11998 122.602245 
L 116.567339 124.271987 
L 119.001256 125.641718 
L 121.419412 126.746113 
L 123.820638 127.626809 
L 126.995646 128.53365 
L 130.923748 129.400345 
L 138.664306 131.044572 
L 142.485452 132.14718 
L 145.519502 133.247447 
L 148.530924 134.548901 
L 152.256919 136.422089 
L 157.379947 139.320955 
L 163.745251 142.93358 
L 167.143191 144.576063 
L 169.778838 145.584928 
L 171.704103 146.131326 
L 173.583795 146.483705 
L 175.417329 146.637612 
L 177.204804 146.596153 
L 178.946992 146.369802 
L 181.201946 145.811209 
L 183.383702 145.012566 
L 186.017331 143.786161 
L 193.898244 139.881784 
L 195.770544 139.260718 
L 197.612021 138.862248 
L 199.424185 138.691346 
L 201.206989 138.731676 
L 203.391948 139.023116 
L 206.360345 139.687788 
L 209.604202 140.39815 
L 211.542982 140.594738 
L 213.043716 140.532533 
L 214.501195 140.240965 
L 215.918696 139.708445 
L 217.301345 138.943236 
L 218.991191 137.702696 
L 220.984575 135.919044 
L 225.323702 131.912582 
L 227.052214 130.667296 
L 228.474469 129.883548 
L 229.937214 129.309927 
L 231.443493 128.945204 
L 233.389262 128.749321 
L 235.814471 128.78491 
L 240.489999 128.95435 
L 242.699524 128.766356 
L 244.500763 128.387406 
L 246.331157 127.764548 
L 248.191618 126.880831 
L 250.084671 125.740967 
L 252.503181 123.998551 
L 256.520307 120.723292 
L 260.221993 117.771879 
L 262.430545 116.23107 
L 264.714265 114.895309 
L 266.47896 114.068229 
L 268.289409 113.415329 
L 270.146052 112.951566 
L 272.048647 112.684702 
L 273.996268 112.61497 
L 275.987336 112.735097 
L 278.705842 113.16477 
L 281.491139 113.854285 
L 285.054958 114.978845 
L 296.144132 118.687351 
L 299.9299 119.631644 
L 303.747933 120.343641 
L 308.37136 120.96322 
L 314.617104 121.776243 
L 317.780951 122.412374 
L 320.173576 123.093273 
L 322.583348 124.011239 
L 325.009599 125.221073 
L 327.450607 126.773747 
L 329.903402 128.713995 
L 332.363584 131.078042 
L 334.82519 133.891562 
L 337.280599 137.16794 
L 339.720492 140.906936 
L 342.133872 145.093802 
L 344.508134 149.698897 
L 346.829202 154.677842 
L 349.081721 159.972203 
L 351.950008 167.397171 
L 354.626464 175.056138 
L 357.069446 182.724623 
L 359.237979 190.163593 
L 361.504145 198.772946 
L 363.214859 206.203481 
L 364.317637 212.07458 
L 364.738063 215.45342 
L 364.790821 216.668747 
L 364.790821 216.668747 
" style="fill:none;stroke:#172c4b;stroke-linecap:square;stroke-opacity:0.2;"/>
   </g>
   <g id="line2d_23">
    <path clip-path="url(#p74be6449c0)" d="M 373.581818 239.477944 
L 373.428989 241.274733 
L 373.158038 241.917117 
L 372.753395 242.116364 
L 372.217178 241.878319 
L 371.552178 241.212975 
L 370.761829 240.134302 
L 369.350269 237.781085 
L 367.071798 233.390993 
L 363.650562 226.2035 
L 351.532156 200.283615 
L 347.625576 192.505735 
L 343.621232 185.024875 
L 340.582991 179.730412 
L 337.535199 174.783235 
L 334.494061 170.235353 
L 331.473628 166.122856 
L 328.485726 162.465982 
L 325.539964 159.269723 
L 322.643795 156.524927 
L 319.802639 154.209836 
L 317.02005 152.291977 
L 314.297921 150.730336 
L 311.636723 149.477702 
L 309.035758 148.4831 
L 305.658627 147.467996 
L 301.575217 146.53104 
L 288.679115 143.839761 
L 283.75383 142.44456 
L 275.174726 139.923791 
L 272.080288 139.30587 
L 269.690193 139.064955 
L 267.376708 139.090059 
L 265.139213 139.400666 
L 262.975754 139.99688 
L 260.882994 140.85906 
L 258.856314 141.949188 
L 256.407145 143.549805 
L 252.652753 146.352391 
L 249.053898 148.961236 
L 246.863014 150.278308 
L 245.135974 151.093499 
L 243.429076 151.676772 
L 241.741292 152.029125 
L 240.072845 152.169007 
L 238.016446 152.097483 
L 235.596819 151.7723 
L 230.566217 150.998351 
L 228.714138 150.934114 
L 226.905071 151.079437 
L 225.132559 151.437393 
L 223.040265 152.100289 
L 216.069442 154.604868 
L 214.264374 154.921995 
L 212.416793 155.038585 
L 210.138897 154.945236 
L 203.343361 154.416205 
L 201.68244 154.55803 
L 200.00182 154.914418 
L 198.30214 155.524157 
L 196.582858 156.410798 
L 194.842108 157.580169 
L 193.076651 159.019305 
L 190.828094 161.148303 
L 187.106832 165.076016 
L 183.186834 169.174592 
L 180.612845 171.573898 
L 178.476361 173.307803 
L 176.266934 174.830878 
L 173.982087 176.119554 
L 171.620714 177.169621 
L 169.182951 177.995987 
L 166.669919 178.630602 
L 163.425467 179.223927 
L 157.307165 180.04889 
L 150.837259 181.00546 
L 137.5522 183.165506 
L 135.038361 183.307828 
L 132.466957 183.252688 
L 129.836026 182.937602 
L 128.048376 182.551031 
L 126.233617 182.000572 
L 124.391882 181.267074 
L 122.523578 180.332014 
L 120.62942 179.177851 
L 118.710455 177.788374 
L 116.768095 176.149041 
L 114.804139 174.247305 
L 112.820792 172.072932 
L 110.820684 169.618277 
L 108.80688 166.878541 
L 106.782882 163.851994 
L 103.736524 158.77864 
L 100.691351 153.08364 
L 97.664605 146.804129 
L 94.675463 139.99491 
L 91.744805 132.727873 
L 88.894916 125.090829 
L 86.149136 117.185774 
L 82.691543 106.427089 
L 79.518919 95.689673 
L 76.687135 85.283498 
L 74.248675 75.51989 
L 72.250635 66.696544 
L 70.732872 59.082927 
L 69.726411 52.906946 
L 69.320096 49.325976 
L 69.218182 46.704926 
L 69.320096 45.50687 
L 69.557374 44.753283 
L 69.928765 44.443636 
L 70.432325 44.573135 
L 71.065426 45.132812 
L 71.824794 46.109673 
L 73.191921 48.319396 
L 75.415647 52.539632 
L 78.776895 59.556663 
L 91.744805 87.248568 
L 95.666409 95.001579 
L 99.679479 102.43046 
L 102.720525 107.671319 
L 105.768277 112.555131 
L 108.80688 117.032523 
L 111.822652 121.070067 
L 114.804139 124.65012 
L 117.742096 127.770138 
L 120.62942 130.441491 
L 123.461014 132.687863 
L 126.233617 134.543307 
L 128.945588 136.050037 
L 131.596671 137.256059 
L 134.187732 138.212741 
L 137.5522 139.190748 
L 141.620882 140.101373 
L 153.033523 142.438198 
L 158.004297 143.795465 
L 168.561688 146.845115 
L 171.018406 147.289169 
L 173.398933 147.498517 
L 175.702859 147.438407 
L 177.930963 147.091696 
L 180.085375 146.460765 
L 182.169598 145.567661 
L 184.188399 144.452524 
L 186.628814 142.831432 
L 190.828094 139.678919 
L 193.962722 137.445249 
L 196.149787 136.159011 
L 197.874206 135.372238 
L 199.578687 134.818257 
L 201.264089 134.49381 
L 202.930049 134.378401 
L 204.983032 134.473178 
L 207.794805 134.881559 
L 212.04181 135.536403 
L 213.898418 135.620006 
L 215.71155 135.496386 
L 217.487336 135.158796 
L 219.58213 134.513965 
L 226.905071 131.906081 
L 228.714138 131.608845 
L 230.566217 131.511811 
L 232.849707 131.622871 
L 239.246229 132.140333 
L 240.904594 132.021978 
L 242.582808 131.694809 
L 244.280103 131.118368 
L 245.99686 130.267038 
L 247.734777 129.132687 
L 249.496924 127.725923 
L 251.740442 125.630324 
L 254.977685 122.242141 
L 259.861728 117.128071 
L 262.446096 114.750578 
L 264.591515 113.041103 
L 266.810263 111.546428 
L 269.104642 110.287751 
L 271.475594 109.266838 
L 273.922844 108.466503 
L 276.44517 107.852898 
L 279.700901 107.276846 
L 297.633213 104.524475 
L 303.190879 103.61354 
L 306.49342 103.29388 
L 309.035758 103.242726 
L 311.636723 103.419813 
L 314.297921 103.889204 
L 316.105905 104.396878 
L 317.940923 105.082849 
L 319.802639 105.96583 
L 321.690418 107.063639 
L 323.6033 108.392853 
L 325.539964 109.968463 
L 327.498712 111.803543 
L 329.477441 113.908935 
L 331.473628 116.292955 
L 333.48432 118.961135 
L 335.506122 121.915991 
L 337.535199 125.156835 
L 340.582991 130.544543 
L 343.621232 136.537551 
L 346.631685 143.089855 
L 349.594291 150.137999 
L 352.487425 157.601949 
L 355.288227 165.386552 
L 357.972981 173.383536 
L 361.330388 184.169869 
L 364.381607 194.819792 
L 367.071798 205.021083 
L 369.350269 214.465772 
L 371.172433 222.865088 
L 372.501574 229.963682 
L 373.31033 235.55227 
L 373.564822 238.65844 
L 373.581818 239.477944 
L 373.581818 239.477944 
" style="fill:none;stroke:#172c4b;stroke-linecap:square;stroke-opacity:0.1;"/>
   </g>
   <g id="line2d_24">
    <path clip-path="url(#p74be6449c0)" d="M 324.969702 149.515871 
L 314.813353 151.021911 
L 304.377628 152.341855 
L 294.114034 153.415854 
L 283.767851 154.272356 
L 273.465465 154.899534 
L 263.017764 155.306101 
L 252.658899 155.481397 
L 242.581063 155.434072 
L 232.288865 155.163613 
L 221.886433 154.662027 
L 211.479056 153.930797 
L 201.172074 152.980798 
L 191.069771 151.831677 
L 180.674577 150.423689 
L 170.17726 148.769322 
L 159.810748 146.90626 
L 149.380735 144.80242 
L 139.006528 142.481988 
L 128.697224 139.949931 
L 118.145966 137.124873 
L 117.826561 137.035532 
L 118.051816 136.999708 
L 128.123521 135.510195 
L 138.223626 134.232132 
L 148.450145 133.157401 
L 158.76818 132.297848 
L 169.048986 131.666089 
L 179.479942 131.253784 
L 189.826493 131.072043 
L 199.895973 131.112622 
L 210.18304 131.375939 
L 220.583617 131.870275 
L 230.992437 132.594446 
L 241.304143 133.537862 
L 251.414403 134.681139 
L 261.8215 136.083999 
L 272.335148 137.734438 
L 282.722832 139.595303 
L 293.180582 141.699254 
L 303.591455 144.023133 
L 313.952805 146.564185 
L 324.509125 149.387431 
L 324.969702 149.515871 
L 324.969702 149.515871 
" style="fill:none;stroke:#3b65ac;stroke-dasharray:5.55,2.4;stroke-dashoffset:0;stroke-width:1.5;"/>
   </g>
   <g id="line2d_25">
    <path clip-path="url(#p74be6449c0)" d="M 324.969702 149.515871 
L 117.826561 137.035644 
L 324.969702 149.515871 
" style="fill:none;stroke:#cba74e;stroke-dasharray:9.6,2.4,1.5,2.4;stroke-dashoffset:0;stroke-width:1.5;"/>
   </g>
   <g id="patch_3">
    <path d="M 54 252 
L 54 34.56 
" style="fill:none;stroke:#000000;stroke-linecap:square;stroke-linejoin:miter;stroke-width:0.8;"/>
   </g>
   <g id="patch_4">
    <path d="M 388.8 252 
L 388.8 34.56 
" style="fill:none;stroke:#000000;stroke-linecap:square;stroke-linejoin:miter;stroke-width:0.8;"/>
   </g>
   <g id="patch_5">
    <path d="M 54 252 
L 388.8 252 
" style="fill:none;stroke:#000000;stroke-linecap:square;stroke-linejoin:miter;stroke-width:0.8;"/>
   </g>
   <g id="patch_6">
    <path d="M 54 34.56 
L 388.8 34.56 
" style="fill:none;stroke:#000000;stroke-linecap:square;stroke-linejoin:miter;stroke-width:0.8;"/>
   </g>
   <g id="text_17">
    <!-- Work loop: Higher Harmonics -->
    <g transform="translate(133.738125 28.56)scale(0.12 -0.12)">
     <defs>
      <path d="M 3.328125 72.90625 
L 13.28125 72.90625 
L 28.609375 11.28125 
L 43.890625 72.90625 
L 54.984375 72.90625 
L 70.3125 11.28125 
L 85.59375 72.90625 
L 95.609375 72.90625 
L 77.296875 0 
L 64.890625 0 
L 49.515625 63.28125 
L 33.984375 0 
L 21.578125 0 
z
" id="DejaVuSans-87"/>
      <path d="M 41.109375 46.296875 
Q 39.59375 47.171875 37.8125 47.578125 
Q 36.03125 48 33.890625 48 
Q 26.265625 48 22.1875 43.046875 
Q 18.109375 38.09375 18.109375 28.8125 
L 18.109375 0 
L 9.078125 0 
L 9.078125 54.6875 
L 18.109375 54.6875 
L 18.109375 46.1875 
Q 20.953125 51.171875 25.484375 53.578125 
Q 30.03125 56 36.53125 56 
Q 37.453125 56 38.578125 55.875 
Q 39.703125 55.765625 41.0625 55.515625 
z
" id="DejaVuSans-114"/>
      <path d="M 9.078125 75.984375 
L 18.109375 75.984375 
L 18.109375 31.109375 
L 44.921875 54.6875 
L 56.390625 54.6875 
L 27.390625 29.109375 
L 57.625 0 
L 45.90625 0 
L 18.109375 26.703125 
L 18.109375 0 
L 9.078125 0 
z
" id="DejaVuSans-107"/>
      <path d="M 18.109375 8.203125 
L 18.109375 -20.796875 
L 9.078125 -20.796875 
L 9.078125 54.6875 
L 18.109375 54.6875 
L 18.109375 46.390625 
Q 20.953125 51.265625 25.265625 53.625 
Q 29.59375 56 35.59375 56 
Q 45.5625 56 51.78125 48.09375 
Q 58.015625 40.1875 58.015625 27.296875 
Q 58.015625 14.40625 51.78125 6.484375 
Q 45.5625 -1.421875 35.59375 -1.421875 
Q 29.59375 -1.421875 25.265625 0.953125 
Q 20.953125 3.328125 18.109375 8.203125 
z
M 48.6875 27.296875 
Q 48.6875 37.203125 44.609375 42.84375 
Q 40.53125 48.484375 33.40625 48.484375 
Q 26.265625 48.484375 22.1875 42.84375 
Q 18.109375 37.203125 18.109375 27.296875 
Q 18.109375 17.390625 22.1875 11.75 
Q 26.265625 6.109375 33.40625 6.109375 
Q 40.53125 6.109375 44.609375 11.75 
Q 48.6875 17.390625 48.6875 27.296875 
z
" id="DejaVuSans-112"/>
      <path d="M 11.71875 12.40625 
L 22.015625 12.40625 
L 22.015625 0 
L 11.71875 0 
z
M 11.71875 51.703125 
L 22.015625 51.703125 
L 22.015625 39.3125 
L 11.71875 39.3125 
z
" id="DejaVuSans-58"/>
      <path d="M 9.8125 72.90625 
L 19.671875 72.90625 
L 19.671875 43.015625 
L 55.515625 43.015625 
L 55.515625 72.90625 
L 65.375 72.90625 
L 65.375 0 
L 55.515625 0 
L 55.515625 34.71875 
L 19.671875 34.71875 
L 19.671875 0 
L 9.8125 0 
z
" id="DejaVuSans-72"/>
      <path d="M 45.40625 27.984375 
Q 45.40625 37.75 41.375 43.109375 
Q 37.359375 48.484375 30.078125 48.484375 
Q 22.859375 48.484375 18.828125 43.109375 
Q 14.796875 37.75 14.796875 27.984375 
Q 14.796875 18.265625 18.828125 12.890625 
Q 22.859375 7.515625 30.078125 7.515625 
Q 37.359375 7.515625 41.375 12.890625 
Q 45.40625 18.265625 45.40625 27.984375 
z
M 54.390625 6.78125 
Q 54.390625 -7.171875 48.1875 -13.984375 
Q 42 -20.796875 29.203125 -20.796875 
Q 24.46875 -20.796875 20.265625 -20.09375 
Q 16.0625 -19.390625 12.109375 -17.921875 
L 12.109375 -9.1875 
Q 16.0625 -11.328125 19.921875 -12.34375 
Q 23.78125 -13.375 27.78125 -13.375 
Q 36.625 -13.375 41.015625 -8.765625 
Q 45.40625 -4.15625 45.40625 5.171875 
L 45.40625 9.625 
Q 42.625 4.78125 38.28125 2.390625 
Q 33.9375 0 27.875 0 
Q 17.828125 0 11.671875 7.65625 
Q 5.515625 15.328125 5.515625 27.984375 
Q 5.515625 40.671875 11.671875 48.328125 
Q 17.828125 56 27.875 56 
Q 33.9375 56 38.28125 53.609375 
Q 42.625 51.21875 45.40625 46.390625 
L 45.40625 54.6875 
L 54.390625 54.6875 
z
" id="DejaVuSans-103"/>
      <path d="M 54.890625 33.015625 
L 54.890625 0 
L 45.90625 0 
L 45.90625 32.71875 
Q 45.90625 40.484375 42.875 44.328125 
Q 39.84375 48.1875 33.796875 48.1875 
Q 26.515625 48.1875 22.3125 43.546875 
Q 18.109375 38.921875 18.109375 30.90625 
L 18.109375 0 
L 9.078125 0 
L 9.078125 75.984375 
L 18.109375 75.984375 
L 18.109375 46.1875 
Q 21.34375 51.125 25.703125 53.5625 
Q 30.078125 56 35.796875 56 
Q 45.21875 56 50.046875 50.171875 
Q 54.890625 44.34375 54.890625 33.015625 
z
" id="DejaVuSans-104"/>
      <path d="M 52 44.1875 
Q 55.375 50.25 60.0625 53.125 
Q 64.75 56 71.09375 56 
Q 79.640625 56 84.28125 50.015625 
Q 88.921875 44.046875 88.921875 33.015625 
L 88.921875 0 
L 79.890625 0 
L 79.890625 32.71875 
Q 79.890625 40.578125 77.09375 44.375 
Q 74.3125 48.1875 68.609375 48.1875 
Q 61.625 48.1875 57.5625 43.546875 
Q 53.515625 38.921875 53.515625 30.90625 
L 53.515625 0 
L 44.484375 0 
L 44.484375 32.71875 
Q 44.484375 40.625 41.703125 44.40625 
Q 38.921875 48.1875 33.109375 48.1875 
Q 26.21875 48.1875 22.15625 43.53125 
Q 18.109375 38.875 18.109375 30.90625 
L 18.109375 0 
L 9.078125 0 
L 9.078125 54.6875 
L 18.109375 54.6875 
L 18.109375 46.1875 
Q 21.1875 51.21875 25.484375 53.609375 
Q 29.78125 56 35.6875 56 
Q 41.65625 56 45.828125 52.96875 
Q 50 49.953125 52 44.1875 
z
" id="DejaVuSans-109"/>
     </defs>
     <use xlink:href="#DejaVuSans-87"/>
     <use x="93.001953" xlink:href="#DejaVuSans-111"/>
     <use x="154.183594" xlink:href="#DejaVuSans-114"/>
     <use x="195.296875" xlink:href="#DejaVuSans-107"/>
     <use x="253.207031" xlink:href="#DejaVuSans-32"/>
     <use x="284.994141" xlink:href="#DejaVuSans-108"/>
     <use x="312.777344" xlink:href="#DejaVuSans-111"/>
     <use x="373.958984" xlink:href="#DejaVuSans-111"/>
     <use x="435.140625" xlink:href="#DejaVuSans-112"/>
     <use x="498.617188" xlink:href="#DejaVuSans-58"/>
     <use x="532.308594" xlink:href="#DejaVuSans-32"/>
     <use x="564.095703" xlink:href="#DejaVuSans-72"/>
     <use x="639.291016" xlink:href="#DejaVuSans-105"/>
     <use x="667.074219" xlink:href="#DejaVuSans-103"/>
     <use x="730.550781" xlink:href="#DejaVuSans-104"/>
     <use x="793.929688" xlink:href="#DejaVuSans-101"/>
     <use x="855.453125" xlink:href="#DejaVuSans-114"/>
     <use x="896.566406" xlink:href="#DejaVuSans-32"/>
     <use x="928.353516" xlink:href="#DejaVuSans-72"/>
     <use x="1003.548828" xlink:href="#DejaVuSans-97"/>
     <use x="1064.828125" xlink:href="#DejaVuSans-114"/>
     <use x="1104.191406" xlink:href="#DejaVuSans-109"/>
     <use x="1201.603516" xlink:href="#DejaVuSans-111"/>
     <use x="1262.785156" xlink:href="#DejaVuSans-110"/>
     <use x="1326.164062" xlink:href="#DejaVuSans-105"/>
     <use x="1353.947266" xlink:href="#DejaVuSans-99"/>
     <use x="1408.927734" xlink:href="#DejaVuSans-115"/>
    </g>
   </g>
  </g>
 </g>
 <defs>
  <clipPath id="p74be6449c0">
   <rect height="217.44" width="334.8" x="54" y="34.56"/>
  </clipPath>
 </defs>
</svg>
