<?xml version="1.0" encoding="UTF-8" standalone="no"?>
<svg
   width="460.8pt"
   height="345.6pt"
   viewBox="0 0 460.8 345.6"
   version="1.1"
   id="svg107"
   sodipodi:docname="power-Nonlinear.svg"
   inkscape:version="1.3.2 (091e20e, 2023-11-25)"
   xmlns:inkscape="http://www.inkscape.org/namespaces/inkscape"
   xmlns:sodipodi="http://sodipodi.sourceforge.net/DTD/sodipodi-0.dtd"
   xmlns:xlink="http://www.w3.org/1999/xlink"
   xmlns="http://www.w3.org/2000/svg"
   xmlns:svg="http://www.w3.org/2000/svg"
   xmlns:rdf="http://www.w3.org/1999/02/22-rdf-syntax-ns#"
   xmlns:cc="http://creativecommons.org/ns#"
   xmlns:dc="http://purl.org/dc/elements/1.1/">
  <sodipodi:namedview
     id="namedview107"
     pagecolor="#ffffff"
     bordercolor="#000000"
     borderopacity="0.25"
     inkscape:showpageshadow="2"
     inkscape:pageopacity="0.0"
     inkscape:pagecheckerboard="0"
     inkscape:deskcolor="#d1d1d1"
     inkscape:document-units="pt"
     inkscape:zoom="1.8162695"
     inkscape:cx="509.01035"
     inkscape:cy="340.80845"
     inkscape:window-width="1312"
     inkscape:window-height="449"
     inkscape:window-x="0"
     inkscape:window-y="25"
     inkscape:window-maximized="0"
     inkscape:current-layer="svg107" />
  <metadata
     id="metadata1">
    <rdf:RDF>
      <cc:Work>
        <dc:type
           rdf:resource="http://purl.org/dc/dcmitype/StillImage" />
        <dc:date>2024-07-29T16:43:41.349069</dc:date>
        <dc:format>image/svg+xml</dc:format>
        <dc:creator>
          <cc:Agent>
            <dc:title>Matplotlib v3.8.4, https://matplotlib.org/</dc:title>
          </cc:Agent>
        </dc:creator>
      </cc:Work>
    </rdf:RDF>
  </metadata>
  <defs
     id="defs1">
    <style
       type="text/css"
       id="style1">*{stroke-linejoin: round; stroke-linecap: butt}</style>
    <linearGradient
       inkscape:collect="always"
       xlink:href="#linearGradient127"
       id="linearGradient128"
       x1="421.83893"
       y1="174.30756"
       x2="421.8472"
       y2="308.24585"
       gradientUnits="userSpaceOnUse"
       gradientTransform="translate(-1.8430241,-0.0563092)" />
    <linearGradient
       id="linearGradient127"
       inkscape:collect="always">
      <stop
         style="stop-color:#172c4b;stop-opacity:1;"
         offset="0"
         id="stop127" />
      <stop
         style="stop-color:#e6e8ec;stop-opacity:1;"
         offset="1"
         id="stop128" />
    </linearGradient>
    <marker
       style="overflow:visible"
       id="ArrowWideRounded"
       refX="0"
       refY="0"
       orient="auto-start-reverse"
       inkscape:stockid="Wide, rounded arrow"
       markerWidth="1"
       markerHeight="1"
       viewBox="0 0 1 1"
       inkscape:isstock="true"
       inkscape:collect="always"
       preserveAspectRatio="xMidYMid">
      <path
         style="fill:none;stroke:context-stroke;stroke-width:1;stroke-linecap:round"
         d="M 3,-3 0,0 3,3"
         transform="rotate(180,0.125,0)"
         sodipodi:nodetypes="ccc"
         id="path5" />
    </marker>
  </defs>
  <g
     id="figure_1">
    <g
       id="patch_1">
      <path
         d="M 0 345.6  L 460.8 345.6  L 460.8 0  L 0 0  z "
         style="fill: #ffffff"
         id="path1" />
    </g>
    <g
       id="axes_1">
      <g
         id="patch_2">
        <path
           d="M 57.6 307.584  L 414.72 307.584  L 414.72 41.472  L 57.6 41.472  z "
           style="fill: #ffffff"
           id="path2" />
      </g>
      <g
         id="matplotlib.axis_1">
        <g
           id="xtick_1">
          <g
             id="line2d_1">
            <defs
               id="defs2">
              <path
                 id="m8bf050939b"
                 d="M 0 0  L 0 3.5  "
                 style="stroke: #000000; stroke-width: 0.8" />
            </defs>
            <g
               id="g2">
              <use
                 xlink:href="#m8bf050939b"
                 x="73.832727"
                 y="307.584"
                 style="stroke: #000000; stroke-width: 0.8"
                 id="use2" />
            </g>
          </g>
          <g
             id="text_1">
            <!-- 0 -->
            <g
               transform="translate(70.015227 323.702125) scale(0.12 -0.12)"
               id="g3">
              <defs
                 id="defs3">
                <path
                   id="DejaVuSans-30"
                   d="M 2034 4250  Q 1547 4250 1301 3770  Q 1056 3291 1056 2328  Q 1056 1369 1301 889  Q 1547 409 2034 409  Q 2525 409 2770 889  Q 3016 1369 3016 2328  Q 3016 3291 2770 3770  Q 2525 4250 2034 4250  z M 2034 4750  Q 2819 4750 3233 4129  Q 3647 3509 3647 2328  Q 3647 1150 3233 529  Q 2819 -91 2034 -91  Q 1250 -91 836 529  Q 422 1150 422 2328  Q 422 3509 836 4129  Q 1250 4750 2034 4750  z "
                   transform="scale(0.015625)" />
              </defs>
              <use
                 xlink:href="#DejaVuSans-30"
                 id="use3" />
            </g>
          </g>
        </g>
        <g
           id="xtick_2">
          <g
             id="line2d_2">
            <g
               id="g4">
              <use
                 xlink:href="#m8bf050939b"
                 x="138.828632"
                 y="307.584"
                 style="stroke: #000000; stroke-width: 0.8"
                 id="use4" />
            </g>
          </g>
          <g
             id="text_2">
            <!-- (2/5)T -->
            <g
               transform="translate(120.82582 323.702125) scale(0.12 -0.12)"
               id="g10">
              <defs
                 id="defs4">
                <path
                   id="DejaVuSans-28"
                   d="M 1984 4856  Q 1566 4138 1362 3434  Q 1159 2731 1159 2009  Q 1159 1288 1364 580  Q 1569 -128 1984 -844  L 1484 -844  Q 1016 -109 783 600  Q 550 1309 550 2009  Q 550 2706 781 3412  Q 1013 4119 1484 4856  L 1984 4856  z "
                   transform="scale(0.015625)" />
                <path
                   id="DejaVuSans-32"
                   d="M 1228 531  L 3431 531  L 3431 0  L 469 0  L 469 531  Q 828 903 1448 1529  Q 2069 2156 2228 2338  Q 2531 2678 2651 2914  Q 2772 3150 2772 3378  Q 2772 3750 2511 3984  Q 2250 4219 1831 4219  Q 1534 4219 1204 4116  Q 875 4013 500 3803  L 500 4441  Q 881 4594 1212 4672  Q 1544 4750 1819 4750  Q 2544 4750 2975 4387  Q 3406 4025 3406 3419  Q 3406 3131 3298 2873  Q 3191 2616 2906 2266  Q 2828 2175 2409 1742  Q 1991 1309 1228 531  z "
                   transform="scale(0.015625)" />
                <path
                   id="DejaVuSans-2f"
                   d="M 1625 4666  L 2156 4666  L 531 -594  L 0 -594  L 1625 4666  z "
                   transform="scale(0.015625)" />
                <path
                   id="DejaVuSans-35"
                   d="M 691 4666  L 3169 4666  L 3169 4134  L 1269 4134  L 1269 2991  Q 1406 3038 1543 3061  Q 1681 3084 1819 3084  Q 2600 3084 3056 2656  Q 3513 2228 3513 1497  Q 3513 744 3044 326  Q 2575 -91 1722 -91  Q 1428 -91 1123 -41  Q 819 9 494 109  L 494 744  Q 775 591 1075 516  Q 1375 441 1709 441  Q 2250 441 2565 725  Q 2881 1009 2881 1497  Q 2881 1984 2565 2268  Q 2250 2553 1709 2553  Q 1456 2553 1204 2497  Q 953 2441 691 2322  L 691 4666  z "
                   transform="scale(0.015625)" />
                <path
                   id="DejaVuSans-29"
                   d="M 513 4856  L 1013 4856  Q 1481 4119 1714 3412  Q 1947 2706 1947 2009  Q 1947 1309 1714 600  Q 1481 -109 1013 -844  L 513 -844  Q 928 -128 1133 580  Q 1338 1288 1338 2009  Q 1338 2731 1133 3434  Q 928 4138 513 4856  z "
                   transform="scale(0.015625)" />
                <path
                   id="DejaVuSans-54"
                   d="M -19 4666  L 3928 4666  L 3928 4134  L 2272 4134  L 2272 0  L 1638 0  L 1638 4134  L -19 4134  L -19 4666  z "
                   transform="scale(0.015625)" />
              </defs>
              <use
                 xlink:href="#DejaVuSans-28"
                 id="use5" />
              <use
                 xlink:href="#DejaVuSans-32"
                 x="39.013672"
                 id="use6" />
              <use
                 xlink:href="#DejaVuSans-2f"
                 x="102.636719"
                 id="use7" />
              <use
                 xlink:href="#DejaVuSans-35"
                 x="136.328125"
                 id="use8" />
              <use
                 xlink:href="#DejaVuSans-29"
                 x="199.951172"
                 id="use9" />
              <use
                 xlink:href="#DejaVuSans-54"
                 x="238.964844"
                 id="use10" />
            </g>
          </g>
        </g>
        <g
           id="xtick_3">
          <g
             id="line2d_3">
            <g
               id="g11">
              <use
                 xlink:href="#m8bf050939b"
                 x="203.824537"
                 y="307.584"
                 style="stroke: #000000; stroke-width: 0.8"
                 id="use11" />
            </g>
          </g>
          <g
             id="text_3">
            <!-- (4/5) T -->
            <g
               transform="translate(183.91485 323.702125) scale(0.12 -0.12)"
               id="g18">
              <defs
                 id="defs11">
                <path
                   id="DejaVuSans-34"
                   d="M 2419 4116  L 825 1625  L 2419 1625  L 2419 4116  z M 2253 4666  L 3047 4666  L 3047 1625  L 3713 1625  L 3713 1100  L 3047 1100  L 3047 0  L 2419 0  L 2419 1100  L 313 1100  L 313 1709  L 2253 4666  z "
                   transform="scale(0.015625)" />
                <path
                   id="DejaVuSans-20"
                   transform="scale(0.015625)" />
              </defs>
              <use
                 xlink:href="#DejaVuSans-28"
                 id="use12" />
              <use
                 xlink:href="#DejaVuSans-34"
                 x="39.013672"
                 id="use13" />
              <use
                 xlink:href="#DejaVuSans-2f"
                 x="102.636719"
                 id="use14" />
              <use
                 xlink:href="#DejaVuSans-35"
                 x="136.328125"
                 id="use15" />
              <use
                 xlink:href="#DejaVuSans-29"
                 x="199.951172"
                 id="use16" />
              <use
                 xlink:href="#DejaVuSans-20"
                 x="238.964844"
                 id="use17" />
              <use
                 xlink:href="#DejaVuSans-54"
                 x="270.751953"
                 id="use18" />
            </g>
          </g>
        </g>
        <g
           id="xtick_4">
          <g
             id="line2d_4">
            <g
               id="g19">
              <use
                 xlink:href="#m8bf050939b"
                 x="268.820442"
                 y="307.584"
                 style="stroke: #000000; stroke-width: 0.8"
                 id="use19" />
            </g>
          </g>
          <g
             id="text_4">
            <!-- (6/5)T -->
            <g
               transform="translate(250.81763 323.702125) scale(0.12 -0.12)"
               id="g25">
              <defs
                 id="defs19">
                <path
                   id="DejaVuSans-36"
                   d="M 2113 2584  Q 1688 2584 1439 2293  Q 1191 2003 1191 1497  Q 1191 994 1439 701  Q 1688 409 2113 409  Q 2538 409 2786 701  Q 3034 994 3034 1497  Q 3034 2003 2786 2293  Q 2538 2584 2113 2584  z M 3366 4563  L 3366 3988  Q 3128 4100 2886 4159  Q 2644 4219 2406 4219  Q 1781 4219 1451 3797  Q 1122 3375 1075 2522  Q 1259 2794 1537 2939  Q 1816 3084 2150 3084  Q 2853 3084 3261 2657  Q 3669 2231 3669 1497  Q 3669 778 3244 343  Q 2819 -91 2113 -91  Q 1303 -91 875 529  Q 447 1150 447 2328  Q 447 3434 972 4092  Q 1497 4750 2381 4750  Q 2619 4750 2861 4703  Q 3103 4656 3366 4563  z "
                   transform="scale(0.015625)" />
              </defs>
              <use
                 xlink:href="#DejaVuSans-28"
                 id="use20" />
              <use
                 xlink:href="#DejaVuSans-36"
                 x="39.013672"
                 id="use21" />
              <use
                 xlink:href="#DejaVuSans-2f"
                 x="102.636719"
                 id="use22" />
              <use
                 xlink:href="#DejaVuSans-35"
                 x="136.328125"
                 id="use23" />
              <use
                 xlink:href="#DejaVuSans-29"
                 x="199.951172"
                 id="use24" />
              <use
                 xlink:href="#DejaVuSans-54"
                 x="238.964844"
                 id="use25" />
            </g>
          </g>
        </g>
        <g
           id="xtick_5">
          <g
             id="line2d_5">
            <g
               id="g26">
              <use
                 xlink:href="#m8bf050939b"
                 x="333.816347"
                 y="307.584"
                 style="stroke: #000000; stroke-width: 0.8"
                 id="use26" />
            </g>
          </g>
          <g
             id="text_5">
            <!-- (8/5)T -->
            <g
               transform="translate(315.813535 323.702125) scale(0.12 -0.12)"
               id="g32">
              <defs
                 id="defs26">
                <path
                   id="DejaVuSans-38"
                   d="M 2034 2216  Q 1584 2216 1326 1975  Q 1069 1734 1069 1313  Q 1069 891 1326 650  Q 1584 409 2034 409  Q 2484 409 2743 651  Q 3003 894 3003 1313  Q 3003 1734 2745 1975  Q 2488 2216 2034 2216  z M 1403 2484  Q 997 2584 770 2862  Q 544 3141 544 3541  Q 544 4100 942 4425  Q 1341 4750 2034 4750  Q 2731 4750 3128 4425  Q 3525 4100 3525 3541  Q 3525 3141 3298 2862  Q 3072 2584 2669 2484  Q 3125 2378 3379 2068  Q 3634 1759 3634 1313  Q 3634 634 3220 271  Q 2806 -91 2034 -91  Q 1263 -91 848 271  Q 434 634 434 1313  Q 434 1759 690 2068  Q 947 2378 1403 2484  z M 1172 3481  Q 1172 3119 1398 2916  Q 1625 2713 2034 2713  Q 2441 2713 2670 2916  Q 2900 3119 2900 3481  Q 2900 3844 2670 4047  Q 2441 4250 2034 4250  Q 1625 4250 1398 4047  Q 1172 3844 1172 3481  z "
                   transform="scale(0.015625)" />
              </defs>
              <use
                 xlink:href="#DejaVuSans-28"
                 id="use27" />
              <use
                 xlink:href="#DejaVuSans-38"
                 x="39.013672"
                 id="use28" />
              <use
                 xlink:href="#DejaVuSans-2f"
                 x="102.636719"
                 id="use29" />
              <use
                 xlink:href="#DejaVuSans-35"
                 x="136.328125"
                 id="use30" />
              <use
                 xlink:href="#DejaVuSans-29"
                 x="199.951172"
                 id="use31" />
              <use
                 xlink:href="#DejaVuSans-54"
                 x="238.964844"
                 id="use32" />
            </g>
          </g>
        </g>
        <g
           id="xtick_6">
          <g
             id="line2d_6">
            <g
               id="g33">
              <use
                 xlink:href="#m8bf050939b"
                 x="398.812252"
                 y="307.584"
                 style="stroke: #000000; stroke-width: 0.8"
                 id="use33" />
            </g>
          </g>
          <g
             id="text_6">
            <!-- 2T -->
            <g
               transform="translate(391.330065 323.702125) scale(0.12 -0.12)"
               id="g35">
              <use
                 xlink:href="#DejaVuSans-32"
                 id="use34" />
              <use
                 xlink:href="#DejaVuSans-54"
                 x="63.623047"
                 id="use35" />
            </g>
          </g>
        </g>
        <g
           id="text_7">
          <!-- Time $t$ -->
          <g
             transform="translate(220.21 337.796187) scale(0.1 -0.1)"
             id="g41">
            <defs
               id="defs35">
              <path
                 id="DejaVuSans-69"
                 d="M 603 3500  L 1178 3500  L 1178 0  L 603 0  L 603 3500  z M 603 4863  L 1178 4863  L 1178 4134  L 603 4134  L 603 4863  z "
                 transform="scale(0.015625)" />
              <path
                 id="DejaVuSans-6d"
                 d="M 3328 2828  Q 3544 3216 3844 3400  Q 4144 3584 4550 3584  Q 5097 3584 5394 3201  Q 5691 2819 5691 2113  L 5691 0  L 5113 0  L 5113 2094  Q 5113 2597 4934 2840  Q 4756 3084 4391 3084  Q 3944 3084 3684 2787  Q 3425 2491 3425 1978  L 3425 0  L 2847 0  L 2847 2094  Q 2847 2600 2669 2842  Q 2491 3084 2119 3084  Q 1678 3084 1418 2786  Q 1159 2488 1159 1978  L 1159 0  L 581 0  L 581 3500  L 1159 3500  L 1159 2956  Q 1356 3278 1631 3431  Q 1906 3584 2284 3584  Q 2666 3584 2933 3390  Q 3200 3197 3328 2828  z "
                 transform="scale(0.015625)" />
              <path
                 id="DejaVuSans-65"
                 d="M 3597 1894  L 3597 1613  L 953 1613  Q 991 1019 1311 708  Q 1631 397 2203 397  Q 2534 397 2845 478  Q 3156 559 3463 722  L 3463 178  Q 3153 47 2828 -22  Q 2503 -91 2169 -91  Q 1331 -91 842 396  Q 353 884 353 1716  Q 353 2575 817 3079  Q 1281 3584 2069 3584  Q 2775 3584 3186 3129  Q 3597 2675 3597 1894  z M 3022 2063  Q 3016 2534 2758 2815  Q 2500 3097 2075 3097  Q 1594 3097 1305 2825  Q 1016 2553 972 2059  L 3022 2063  z "
                 transform="scale(0.015625)" />
              <path
                 id="DejaVuSans-Oblique-74"
                 d="M 2706 3500  L 2619 3053  L 1472 3053  L 1100 1153  Q 1081 1047 1072 975  Q 1063 903 1063 863  Q 1063 663 1183 572  Q 1303 481 1569 481  L 2150 481  L 2053 0  L 1503 0  Q 991 0 739 200  Q 488 400 488 806  Q 488 878 497 964  Q 506 1050 525 1153  L 897 3053  L 409 3053  L 500 3500  L 978 3500  L 1172 4494  L 1747 4494  L 1556 3500  L 2706 3500  z "
                 transform="scale(0.015625)" />
            </defs>
            <use
               xlink:href="#DejaVuSans-54"
               transform="translate(0 0.015625)"
               id="use36" />
            <use
               xlink:href="#DejaVuSans-69"
               transform="translate(61.083984 0.015625)"
               id="use37" />
            <use
               xlink:href="#DejaVuSans-6d"
               transform="translate(88.867188 0.015625)"
               id="use38" />
            <use
               xlink:href="#DejaVuSans-65"
               transform="translate(186.279297 0.015625)"
               id="use39" />
            <use
               xlink:href="#DejaVuSans-20"
               transform="translate(247.802734 0.015625)"
               id="use40" />
            <use
               xlink:href="#DejaVuSans-Oblique-74"
               transform="translate(279.589844 0.015625)"
               id="use41" />
          </g>
        </g>
      </g>
      <g
         id="matplotlib.axis_2">
        <g
           id="ytick_1">
          <g
             id="line2d_7">
            <defs
               id="defs41">
              <path
                 id="m151d826ec3"
                 d="M 0 0  L -3.5 0  "
                 style="stroke: #000000; stroke-width: 0.8" />
            </defs>
            <g
               id="g42">
              <use
                 xlink:href="#m151d826ec3"
                 x="57.6"
                 y="290.625779"
                 style="stroke: #000000; stroke-width: 0.8"
                 id="use42" />
            </g>
          </g>
          <g
             id="text_8">
            <!-- −2 -->
            <g
               transform="translate(32.909375 295.184842) scale(0.12 -0.12)"
               id="g44">
              <defs
                 id="defs42">
                <path
                   id="DejaVuSans-2212"
                   d="M 678 2272  L 4684 2272  L 4684 1741  L 678 1741  L 678 2272  z "
                   transform="scale(0.015625)" />
              </defs>
              <use
                 xlink:href="#DejaVuSans-2212"
                 id="use43" />
              <use
                 xlink:href="#DejaVuSans-32"
                 x="83.789062"
                 id="use44" />
            </g>
          </g>
        </g>
        <g
           id="ytick_2">
          <g
             id="line2d_8">
            <g
               id="g45">
              <use
                 xlink:href="#m151d826ec3"
                 x="57.6"
                 y="233.832681"
                 style="stroke: #000000; stroke-width: 0.8"
                 id="use45" />
            </g>
          </g>
          <g
             id="text_9">
            <!-- 0 -->
            <g
               transform="translate(42.965 238.391743) scale(0.12 -0.12)"
               id="g46">
              <use
                 xlink:href="#DejaVuSans-30"
                 id="use46" />
            </g>
          </g>
        </g>
        <g
           id="ytick_3">
          <g
             id="line2d_9">
            <g
               id="g47">
              <use
                 xlink:href="#m151d826ec3"
                 x="57.6"
                 y="177.039582"
                 style="stroke: #000000; stroke-width: 0.8"
                 id="use47" />
            </g>
          </g>
          <g
             id="text_10">
            <!-- 2 -->
            <g
               transform="translate(42.965 181.598645) scale(0.12 -0.12)"
               id="g48">
              <use
                 xlink:href="#DejaVuSans-32"
                 id="use48" />
            </g>
          </g>
        </g>
        <g
           id="ytick_4">
          <g
             id="line2d_10">
            <g
               id="g49">
              <use
                 xlink:href="#m151d826ec3"
                 x="57.6"
                 y="120.246484"
                 style="stroke: #000000; stroke-width: 0.8"
                 id="use49" />
            </g>
          </g>
          <g
             id="text_11">
            <!-- 4 -->
            <g
               transform="translate(42.965 124.805546) scale(0.12 -0.12)"
               id="g50">
              <use
                 xlink:href="#DejaVuSans-34"
                 id="use50" />
            </g>
          </g>
        </g>
        <g
           id="ytick_5">
          <g
             id="line2d_11">
            <g
               id="g51">
              <use
                 xlink:href="#m151d826ec3"
                 x="57.6"
                 y="63.453385"
                 style="stroke: #000000; stroke-width: 0.8"
                 id="use51" />
            </g>
          </g>
          <g
             id="text_12">
            <!-- 6 -->
            <g
               transform="translate(42.965 68.012448) scale(0.12 -0.12)"
               id="g52">
              <use
                 xlink:href="#DejaVuSans-36"
                 id="use52" />
            </g>
          </g>
        </g>
        <g
           id="text_13">
          <!-- Power $p$ -->
          <g
             transform="translate(26.809375 194.628) rotate(-90) scale(0.1 -0.1)"
             id="g59">
            <defs
               id="defs52">
              <path
                 id="DejaVuSans-50"
                 d="M 1259 4147  L 1259 2394  L 2053 2394  Q 2494 2394 2734 2622  Q 2975 2850 2975 3272  Q 2975 3691 2734 3919  Q 2494 4147 2053 4147  L 1259 4147  z M 628 4666  L 2053 4666  Q 2838 4666 3239 4311  Q 3641 3956 3641 3272  Q 3641 2581 3239 2228  Q 2838 1875 2053 1875  L 1259 1875  L 1259 0  L 628 0  L 628 4666  z "
                 transform="scale(0.015625)" />
              <path
                 id="DejaVuSans-6f"
                 d="M 1959 3097  Q 1497 3097 1228 2736  Q 959 2375 959 1747  Q 959 1119 1226 758  Q 1494 397 1959 397  Q 2419 397 2687 759  Q 2956 1122 2956 1747  Q 2956 2369 2687 2733  Q 2419 3097 1959 3097  z M 1959 3584  Q 2709 3584 3137 3096  Q 3566 2609 3566 1747  Q 3566 888 3137 398  Q 2709 -91 1959 -91  Q 1206 -91 779 398  Q 353 888 353 1747  Q 353 2609 779 3096  Q 1206 3584 1959 3584  z "
                 transform="scale(0.015625)" />
              <path
                 id="DejaVuSans-77"
                 d="M 269 3500  L 844 3500  L 1563 769  L 2278 3500  L 2956 3500  L 3675 769  L 4391 3500  L 4966 3500  L 4050 0  L 3372 0  L 2619 2869  L 1863 0  L 1184 0  L 269 3500  z "
                 transform="scale(0.015625)" />
              <path
                 id="DejaVuSans-72"
                 d="M 2631 2963  Q 2534 3019 2420 3045  Q 2306 3072 2169 3072  Q 1681 3072 1420 2755  Q 1159 2438 1159 1844  L 1159 0  L 581 0  L 581 3500  L 1159 3500  L 1159 2956  Q 1341 3275 1631 3429  Q 1922 3584 2338 3584  Q 2397 3584 2469 3576  Q 2541 3569 2628 3553  L 2631 2963  z "
                 transform="scale(0.015625)" />
              <path
                 id="DejaVuSans-Oblique-70"
                 d="M 3175 2156  Q 3175 2616 2975 2859  Q 2775 3103 2400 3103  Q 2144 3103 1911 2972  Q 1678 2841 1497 2591  Q 1319 2344 1212 1994  Q 1106 1644 1106 1300  Q 1106 863 1306 627  Q 1506 391 1875 391  Q 2147 391 2380 519  Q 2613 647 2778 891  Q 2956 1147 3065 1494  Q 3175 1841 3175 2156  z M 1394 2969  Q 1625 3272 1939 3428  Q 2253 3584 2638 3584  Q 3175 3584 3472 3232  Q 3769 2881 3769 2247  Q 3769 1728 3584 1258  Q 3400 788 3053 416  Q 2822 169 2531 39  Q 2241 -91 1919 -91  Q 1547 -91 1294 64  Q 1041 219 916 525  L 556 -1331  L -19 -1331  L 922 3500  L 1497 3500  L 1394 2969  z "
                 transform="scale(0.015625)" />
            </defs>
            <use
               xlink:href="#DejaVuSans-50"
               transform="translate(0 0.09375)"
               id="use53" />
            <use
               xlink:href="#DejaVuSans-6f"
               transform="translate(60.302734 0.09375)"
               id="use54" />
            <use
               xlink:href="#DejaVuSans-77"
               transform="translate(121.484375 0.09375)"
               id="use55" />
            <use
               xlink:href="#DejaVuSans-65"
               transform="translate(203.271484 0.09375)"
               id="use56" />
            <use
               xlink:href="#DejaVuSans-72"
               transform="translate(264.794922 0.09375)"
               id="use57" />
            <use
               xlink:href="#DejaVuSans-20"
               transform="translate(305.908203 0.09375)"
               id="use58" />
            <use
               xlink:href="#DejaVuSans-Oblique-70"
               transform="translate(337.695312 0.09375)"
               id="use59" />
          </g>
        </g>
      </g>
      <g
         id="line2d_12">
        <path
           d="M 73.832727 233.832681  L 76.757543 231.661675  L 78.382441 230.718063  L 79.682359 230.178194  L 80.982277 229.857525  L 82.282195 229.762575  L 83.582113 229.881912  L 85.207011 230.28953  L 87.156888 231.049354  L 92.35656 233.281509  L 93.981458 233.714953  L 95.606355 233.926806  L 97.231253 233.899225  L 98.856151 233.637255  L 100.481048 233.165289  L 102.430925 232.377797  L 105.355741 230.927057  L 109.580475 228.823337  L 112.180311 227.801306  L 114.455168 227.151255  L 117.055004 226.663262  L 120.629779 226.257158  L 125.179492 225.708007  L 128.104308 225.133366  L 131.354103 224.268835  L 141.428468 221.395909  L 144.678264 220.804867  L 148.253038 220.397547  L 152.152793 220.195948  L 156.052547 220.210706  L 160.277281 220.451932  L 165.801933 221.02547  L 179.451073 222.726076  L 182.050909 223.331701  L 184.650745 224.163863  L 187.575561 225.364338  L 196.025029 229.07803  L 197.974906 229.605794  L 199.924783 229.918402  L 201.87466 230.022633  L 204.474496 229.912339  L 209.999148 229.563612  L 211.949025 229.719711  L 213.573923 230.057159  L 215.198821 230.60794  L 216.823718 231.371838  L 218.773595 232.530471  L 225.273186 236.709359  L 226.573104 237.215158  L 227.873022 237.495886  L 229.17294 237.523021  L 230.472858 237.286371  L 231.772776 236.796447  L 233.072695 236.084819  L 235.022572 234.717064  L 239.572285 231.351166  L 241.197183 230.49111  L 242.497101 230.031501  L 243.797019 229.795704  L 245.096937 229.783366  L 246.396855 229.976771  L 248.021753 230.457253  L 250.296609 231.415933  L 254.196364 233.113982  L 256.146241 233.681074  L 257.771138 233.916289  L 259.396036 233.912779  L 261.020934 233.673437  L 262.645831 233.220911  L 264.595708 232.450783  L 267.520524 231.011659  L 272.070238 228.75141  L 274.345094 227.856613  L 276.619951 227.190189  L 279.219787 226.687273  L 282.794562 226.273089  L 287.344275 225.733848  L 290.269091 225.170783  L 293.518886 224.31644  L 303.918231 221.361064  L 307.168026 220.78108  L 310.742801 220.384437  L 314.642555 220.192389  L 318.54231 220.215784  L 322.767043 220.46542  L 328.291695 221.044456  L 341.615856 222.694827  L 344.540672 223.376796  L 347.140508 224.223672  L 350.065324 225.437641  L 358.189812 229.02494  L 360.139689 229.569878  L 362.089566 229.900632  L 364.039443 230.021126  L 366.639279 229.924923  L 372.488911 229.567693  L 374.438788 229.744338  L 376.063686 230.102448  L 377.688583 230.674962  L 379.313481 231.459168  L 381.263358 232.636397  L 387.437969 236.632322  L 388.737887 237.163481  L 390.037805 237.474242  L 391.337723 237.534038  L 392.637641 237.330224  L 393.937559 236.870656  L 395.237477 236.184329  L 396.862375 235.083081  L 398.487273 233.832681  L 398.487273 233.832681  "
           clip-path="url(#p8bcb091239)"
           style="fill: none; stroke: #172c4b; stroke-opacity: 0.81; stroke-linecap: square"
           id="path59" />
      </g>
      <g
         id="line2d_13">
        <path
           d="M 73.832727 233.832681  L 76.432563 230.210475  L 78.057461 228.339672  L 79.357379 227.197872  L 80.332318 226.582674  L 81.307256 226.184361  L 82.282195 226.000804  L 83.257133 226.020039  L 84.557052 226.324373  L 85.85697 226.883839  L 87.806847 228.019438  L 91.056642 229.984445  L 92.68154 230.700682  L 93.981458 231.058262  L 95.281376 231.20024  L 96.581294 231.124271  L 97.881212 230.845095  L 99.50611 230.256359  L 101.780966 229.1381  L 105.355741 227.320768  L 106.980639 226.723622  L 108.605536 226.382716  L 109.905455 226.324186  L 111.205373 226.461613  L 112.83027 226.888312  L 114.780147 227.691054  L 119.97982 230.063646  L 121.279738 230.382581  L 122.579656 230.486029  L 123.879574 230.338686  L 125.179492 229.918675  L 126.47941 229.218045  L 127.779328 228.242347  L 129.079247 227.009508  L 130.704144 225.151485  L 132.654021 222.558849  L 136.228796 217.302548  L 139.153612 213.182191  L 141.103489 210.854545  L 142.728387 209.306867  L 144.028305 208.378406  L 145.328223 207.754864  L 146.303161 207.497596  L 147.2781 207.424053  L 148.253038 207.53323  L 149.227977 207.820309  L 150.527895 208.464443  L 151.827813 209.37884  L 153.452711 210.838995  L 155.402588 212.92406  L 160.92724 219.092776  L 162.552138 220.506761  L 163.852056 221.388228  L 165.151974 222.013307  L 166.451892 222.362383  L 167.75181 222.427866  L 169.051728 222.214173  L 170.351646 221.737207  L 171.651564 221.023414  L 173.276462 219.853344  L 175.226339 218.158154  L 180.750991 213.171562  L 182.375889 212.103279  L 183.675807 211.501511  L 184.975725 211.164266  L 186.275643 211.116086  L 187.250581 211.276742  L 188.5505 211.751447  L 189.850418 212.508148  L 191.150336 213.515232  L 192.775233 215.055702  L 195.37507 217.898245  L 198.624865 221.410222  L 200.574742 223.163466  L 202.19964 224.322049  L 203.824537 225.192469  L 205.449435 225.805494  L 207.399312 226.296456  L 211.949025 227.324467  L 213.573923 227.979764  L 215.198821 228.91662  L 216.823718 230.169101  L 218.448616 231.724279  L 220.723473 234.273509  L 223.973268 237.968687  L 225.273186 239.172431  L 226.573104 240.06883  L 227.548043 240.487412  L 228.522981 240.657561  L 229.49792 240.562163  L 230.472858 240.195892  L 231.447797 239.566272  L 232.422735 238.693963  L 233.722654 237.212474  L 235.672531 234.539631  L 238.922326 230.004882  L 240.547224 228.178076  L 241.847142 227.080499  L 242.82208 226.501157  L 243.797019 226.139061  L 244.771957 225.990384  L 245.746896 226.041624  L 247.046814 226.381938  L 248.346732 226.96771  L 250.296609 228.12227  L 253.546405 230.067673  L 255.171302 230.756636  L 256.47122 231.088023  L 257.771138 231.202517  L 259.071057 231.100013  L 260.370975 230.797235  L 261.995872 230.185575  L 264.270729 229.051401  L 267.845504 227.251429  L 269.470401 226.677024  L 271.095299 226.364666  L 272.395217 226.330744  L 273.695135 226.492126  L 275.320033 226.944705  L 277.26991 227.767833  L 282.144603 230.010863  L 283.444521 230.353637  L 284.744439 230.486214  L 286.044357 230.3717  L 287.344275 229.986493  L 288.644193 229.320905  L 289.944111 228.37885  L 291.244029 227.176788  L 292.868927 225.351319  L 294.818804 222.786587  L 298.0686 218.026716  L 300.993415 213.827789  L 302.943292 211.393227  L 304.56819 209.728489  L 305.868108 208.692071  L 307.168026 207.951679  L 308.142965 207.60335  L 309.117903 207.437833  L 310.092842 207.456013  L 311.067781 207.654981  L 312.367699 208.189352  L 313.667617 209.006643  L 314.967535 210.069879  L 316.592432 211.673255  L 319.192269 214.614503  L 322.442064 218.279191  L 324.066962 219.839019  L 325.691859 221.086295  L 326.991777 221.810453  L 328.291695 222.26457  L 329.591613 222.436521  L 330.891532 222.326256  L 332.19145 221.94546  L 333.491368 221.316758  L 335.116265 220.232466  L 337.066143 218.603329  L 343.565733 212.818669  L 345.190631 211.848684  L 346.490549 211.342451  L 347.790467 211.111423  L 348.765405 211.13109  L 349.740344 211.319954  L 351.040262 211.831117  L 352.34018 212.621149  L 353.640098 213.65659  L 355.264996 215.223157  L 358.189812 218.447858  L 361.114627 221.569714  L 363.064505 223.292332  L 364.689402 224.421861  L 366.3143 225.264515  L 367.939197 225.854925  L 370.214054 226.39453  L 373.788829 227.172937  L 375.413726 227.756228  L 377.038624 228.603143  L 378.663522 229.759991  L 380.288419 231.228822  L 382.238296 233.329095  L 386.78801 238.449987  L 388.087928 239.549592  L 389.062867 240.154802  L 390.037805 240.53362  L 391.012744 240.660399  L 391.987682 240.519888  L 392.962621 240.108847  L 393.937559 239.436993  L 394.912498 238.527144  L 396.212416 237.006289  L 398.162293 234.304467  L 398.487273 233.832681  L 398.487273 233.832681  "
           clip-path="url(#p8bcb091239)"
           style="fill: none; stroke: #172c4b; stroke-opacity: 0.71; stroke-linecap: square"
           id="path60" />
      </g>
      <g
         id="line2d_14">
        <path
           d="M 73.832727 233.832681  L 76.432563 228.148471  L 78.057461 225.151363  L 79.357379 223.260755  L 80.332318 222.191933  L 81.307256 221.441721  L 82.282195 221.012253  L 83.257133 220.891952  L 84.232072 221.056647  L 85.207011 221.471297  L 86.506929 222.336486  L 88.131826 223.749647  L 91.706601 227.005658  L 93.006519 227.893788  L 94.306437 228.495348  L 95.281376 228.730083  L 96.256314 228.767918  L 97.231253 228.607251  L 98.206192 228.253925  L 99.50611 227.505872  L 100.806028 226.484868  L 102.430925 224.920839  L 107.955577 219.259806  L 109.255495 218.335566  L 110.555414 217.720268  L 111.530352 217.489916  L 112.505291 217.470261  L 113.480229 217.663564  L 114.455168 218.06312  L 115.755086 218.888081  L 117.055004 219.989023  L 119.004881 221.9648  L 121.929697 224.92219  L 123.229615 225.934036  L 124.204554 226.476282  L 125.179492 226.790924  L 126.154431 226.847693  L 127.129369 226.624078  L 128.104308 226.105747  L 129.079247 225.286616  L 130.054185 224.16864  L 131.029124 222.761381  L 132.329042 220.464688  L 133.953939 217.001588  L 135.903817 212.180096  L 142.403407 195.383331  L 143.703325 192.833536  L 144.678264 191.285592  L 145.653202 190.100035  L 146.628141 189.313723  L 147.2781 189.025206  L 147.928059 188.931766  L 148.578018 189.036255  L 149.227977 189.338909  L 149.877936 189.837238  L 150.852875 190.939313  L 151.827813 192.439609  L 153.127731 194.983303  L 154.752629 198.840219  L 157.677445 206.657819  L 159.627322 211.620792  L 160.92724 214.477514  L 162.227158 216.814235  L 163.202097 218.166969  L 164.177035 219.147911  L 165.151974 219.744857  L 165.801933 219.929092  L 166.451892 219.945412  L 167.101851 219.798807  L 168.07679 219.288907  L 169.051728 218.458306  L 170.026667 217.34388  L 171.326585 215.489873  L 172.951482 212.736715  L 178.801114 202.229986  L 180.101032 200.462519  L 181.40095 199.109085  L 182.375889 198.407331  L 183.350827 197.99777  L 184.325766 197.893159  L 185.300704 198.097573  L 186.275643 198.605918  L 187.250581 199.403782  L 188.22552 200.467693  L 189.525438 202.243997  L 191.150336 204.902718  L 197.324947 215.675027  L 198.624865 217.404317  L 199.924783 218.808233  L 201.224701 219.877604  L 202.524619 220.630608  L 203.824537 221.109614  L 205.449435 221.419093  L 210.649107 222.049593  L 211.949025 222.565876  L 213.248943 223.370679  L 214.548862 224.5091  L 215.84878 226.002325  L 217.148698 227.843033  L 218.773595 230.569504  L 221.373432 235.52428  L 223.648288 239.756339  L 224.948206 241.793155  L 225.923145 243.017826  L 226.898084 243.917226  L 227.873022 244.443468  L 228.522981 244.569564  L 229.17294 244.508371  L 229.822899 244.257492  L 230.472858 243.818335  L 231.447797 242.819285  L 232.422735 241.443827  L 233.722654 239.118371  L 235.347551 235.667859  L 238.922326 227.822507  L 240.222244 225.422022  L 241.522162 223.468933  L 242.497101 222.348208  L 243.472039 221.544366  L 244.446978 221.061885  L 245.421916 220.891413  L 246.396855 221.010774  L 247.371794 221.386596  L 248.671712 222.212282  L 250.296609 223.598105  L 254.196364 227.130148  L 255.496282 227.985841  L 256.7962 228.547839  L 257.771138 228.750202  L 258.746077 228.754856  L 259.721016 228.561481  L 260.695954 228.177102  L 261.995872 227.392035  L 263.29579 226.341001  L 265.245667 224.40911  L 269.795381 219.673312  L 271.095299 218.649071  L 272.395217 217.911421  L 273.370156 217.579235  L 274.345094 217.453405  L 275.320033 217.540498  L 276.294971 217.838337  L 277.26991 218.335652  L 278.569828 219.272723  L 280.194726 220.779964  L 284.744439 225.334972  L 286.044357 226.231434  L 287.019296 226.66412  L 287.994234 226.853138  L 288.969173 226.772024  L 289.944111 226.402324  L 290.91905 225.733843  L 291.893989 224.764558  L 292.868927 223.500291  L 294.168845 221.379471  L 295.468763 218.807979  L 297.093661 215.065529  L 299.368518 209.152673  L 303.593251 197.983056  L 305.218149 194.368361  L 306.518067 192.016893  L 307.493006 190.645007  L 308.467944 189.655025  L 309.117903 189.223555  L 309.767862 188.983403  L 310.417821 188.939277  L 311.067781 189.09339  L 311.71774 189.445305  L 312.367699 189.991837  L 313.342637 191.162708  L 314.317576 192.725542  L 315.617494 195.339209  L 317.242391 199.256205  L 323.092023 214.146491  L 324.391941 216.554206  L 325.36688 217.966815  L 326.341818 219.010915  L 327.316757 219.672172  L 327.966716 219.898926  L 328.616675 219.956835  L 329.266634 219.850387  L 330.241572 219.397065  L 331.216511 218.617519  L 332.19145 217.547594  L 333.491368 215.74143  L 335.116265 213.028037  L 338.366061 206.952345  L 340.315938 203.507466  L 341.940835 201.081056  L 343.240753 199.563358  L 344.215692 198.7228  L 345.190631 198.165034  L 346.165569 197.90688  L 347.140508 197.956837  L 348.115446 198.314437  L 349.090385 198.969921  L 350.065324 199.904286  L 351.365242 201.534774  L 352.990139 204.065075  L 355.264996 208.143972  L 358.189812 213.38876  L 359.814709 215.907965  L 361.114627 217.598063  L 362.414545 218.96008  L 363.714464 219.988379  L 365.014382 220.704364  L 366.3143 221.153136  L 367.939197 221.437506  L 372.81389 222.00233  L 374.113808 222.486714  L 375.413726 223.252549  L 376.713645 224.347571  L 378.013563 225.796222  L 379.313481 227.594964  L 380.938378 230.278946  L 383.213235 234.573402  L 385.813071 239.476064  L 387.112989 241.561402  L 388.087928 242.834836  L 389.062867 243.792102  L 390.037805 244.38331  L 390.687764 244.555423  L 391.337723 244.541423  L 391.987682 244.337984  L 392.637641 243.945552  L 393.61258 243.0131  L 394.587518 241.697179  L 395.887437 239.435021  L 397.512334 236.029991  L 398.487273 233.832681  L 398.487273 233.832681  "
           clip-path="url(#p8bcb091239)"
           style="fill: none; stroke: #172c4b; stroke-opacity: 0.61; stroke-linecap: square"
           id="path61" />
      </g>
      <g
         id="line2d_15">
        <path
           d="M 73.832727 233.832681  L 76.107584 222.263765  L 77.407502 216.586292  L 78.382441 213.063197  L 79.357379 210.296326  L 80.007338 208.908055  L 80.657297 207.897687  L 81.307256 207.266497  L 81.957215 207.007314  L 82.607174 207.104981  L 83.257133 207.537023  L 83.907093 208.274505  L 84.882031 209.876988  L 85.85697 211.955269  L 87.481867 216.078455  L 90.406683 223.681439  L 91.706601 226.441362  L 92.68154 228.087681  L 93.656478 229.320116  L 94.631417 230.118175  L 95.281376 230.408328  L 95.931335 230.509935  L 96.581294 230.430805  L 97.231253 230.181421  L 98.206192 229.516454  L 99.18113 228.547662  L 100.481048 226.881637  L 102.105946 224.400528  L 106.0057 218.228484  L 107.630598 216.167237  L 108.930516 214.908401  L 109.905455 214.220604  L 110.880393 213.75778  L 111.855332 213.512531  L 112.83027 213.466756  L 114.130188 213.666903  L 115.755086 214.210974  L 119.329861 215.588409  L 120.629779 215.832009  L 121.929697 215.812608  L 122.904636 215.597228  L 123.879574 215.198954  L 125.179492 214.384054  L 126.47941 213.265674  L 128.104308 211.50821  L 130.054185 209.033779  L 134.928878 202.673356  L 136.553776 200.944265  L 138.178673 199.548534  L 139.478591 198.686861  L 140.778509 198.042228  L 142.403407 197.50156  L 144.353284 197.140033  L 147.928059 196.807806  L 150.852875 196.425397  L 154.427649 195.681403  L 157.352465 195.146394  L 159.302342 195.034612  L 160.92724 195.170211  L 162.552138 195.535428  L 164.502015 196.24848  L 167.42683 197.642544  L 169.701687 198.663099  L 171.326585 199.170515  L 172.626503 199.371302  L 173.926421 199.355906  L 175.226339 199.112547  L 176.526257 198.650063  L 178.151155 197.811247  L 180.750991 196.124237  L 183.025848 194.719396  L 184.325766 194.134675  L 185.625684 193.811906  L 186.600622 193.783408  L 187.575561 193.962474  L 188.5505 194.362604  L 189.525438 194.988097  L 190.825356 196.161257  L 192.125274 197.681535  L 193.750172 199.955907  L 198.949844 207.599527  L 200.249762 208.991645  L 201.224701 209.786617  L 202.19964 210.348952  L 203.174578 210.674787  L 204.149517 210.77299  L 205.124455 210.664991  L 206.424373 210.259514  L 208.374251 209.323976  L 210.324128 208.436394  L 211.299066 208.189996  L 212.274005 208.177336  L 212.923964 208.336497  L 213.573923 208.655145  L 214.223882 209.153602  L 214.873841 209.850282  L 215.84878 211.300875  L 216.823718 213.272009  L 217.798657 215.782086  L 219.098575 219.94978  L 220.398493 224.955616  L 222.34837 233.55004  L 224.948206 245.15542  L 226.248124 250.006781  L 227.223063 252.844215  L 227.873022 254.256651  L 228.522981 255.235547  L 229.17294 255.747888  L 229.49792 255.821636  L 229.822899 255.771221  L 230.472858 255.294871  L 231.122817 254.320805  L 231.772776 252.864095  L 232.747715 249.839277  L 233.722654 245.942831  L 235.022572 239.751205  L 239.247305 218.598345  L 240.547224 213.600365  L 241.522162 210.701468  L 242.497101 208.619838  L 243.14706 207.70448  L 243.797019 207.167285  L 244.446978 206.999034  L 245.096937 207.182671  L 245.746896 207.694017  L 246.396855 208.502674  L 247.371794 210.194156  L 248.671712 213.127511  L 250.946568 219.143076  L 252.896446 224.05717  L 254.196364 226.742935  L 255.171302 228.322659  L 256.146241 229.483524  L 257.121179 230.208703  L 257.771138 230.45115  L 258.421097 230.506729  L 259.071057 230.383958  L 259.721016 230.09392  L 260.695954 229.374625  L 261.670893 228.36056  L 262.970811 226.649585  L 264.920688 223.608938  L 268.170483 218.459703  L 269.795381 216.350546  L 271.095299 215.044804  L 272.070238 214.319577  L 273.045176 213.819472  L 274.020115 213.538938  L 274.995053 213.461601  L 276.294971 213.628013  L 277.919869 214.146945  L 281.819623 215.631047  L 283.119541 215.845153  L 284.419459 215.789141  L 285.394398 215.543663  L 286.369337 215.114649  L 287.669255 214.260161  L 288.969173 213.106477  L 290.59407 211.314487  L 292.868927 208.379535  L 296.768681 203.2486  L 298.718559 201.102891  L 300.343456 199.672186  L 301.643374 198.782336  L 302.943292 198.111678  L 304.56819 197.544168  L 306.193088 197.208576  L 308.792924 196.932752  L 312.692678 196.50611  L 315.617494 195.934421  L 319.517248 195.166948  L 321.467125 195.03325  L 323.092023 195.146353  L 324.716921 195.488786  L 326.341818 196.046228  L 328.616675 197.081272  L 332.19145 198.724509  L 333.816347 199.206561  L 335.116265 199.381631  L 336.416183 199.337975  L 337.716102 199.066307  L 339.01602 198.578109  L 340.640917 197.714697  L 343.565733 195.80021  L 345.51561 194.634677  L 346.815528 194.078448  L 348.115446 193.793565  L 349.090385 193.798368  L 350.065324 194.013575  L 351.040262 194.45123  L 352.015201 195.114005  L 353.315119 196.333525  L 354.615037 197.892643  L 356.239934 200.199571  L 361.114627 207.401656  L 362.414545 208.837499  L 363.714464 209.896755  L 364.689402 210.4196  L 365.664341 210.706536  L 366.639279 210.768552  L 367.614218 210.62912  L 368.914136 210.192395  L 371.188993 209.076092  L 372.81389 208.382376  L 373.788829 208.16957  L 374.763767 208.203341  L 375.413726 208.400386  L 376.063686 208.762145  L 376.713645 209.30852  L 377.688583 210.512546  L 378.663522 212.219669  L 379.63846 214.459491  L 380.613399 217.237989  L 381.913317 221.737598  L 383.538215 228.421602  L 388.087928 248.310812  L 389.062867 251.525397  L 390.037805 253.942685  L 390.687764 255.033442  L 391.337723 255.664963  L 391.662703 255.800192  L 391.987682 255.812027  L 392.312662 255.699124  L 392.962621 255.097653  L 393.61258 254.000996  L 394.262539 252.427526  L 395.237477 249.245528  L 396.212416 245.222295  L 397.837314 237.243886  L 398.487273 233.832681  L 398.487273 233.832681  "
           clip-path="url(#p8bcb091239)"
           style="fill: none; stroke: #172c4b; stroke-opacity: 0.51; stroke-linecap: square"
           id="path62" />
      </g>
      <g
         id="line2d_16">
        <path
           d="M 73.832727 233.832681  L 76.432563 220.116509  L 78.057461 212.773269  L 79.357379 208.026118  L 80.332318 205.246187  L 81.307256 203.182615  L 81.957215 202.210812  L 82.607174 201.557527  L 83.257133 201.212341  L 83.907093 201.159493  L 84.557052 201.378386  L 85.207011 201.844186  L 86.181949 202.942949  L 87.156888 204.425894  L 88.781785 207.437496  L 91.706601 213.062711  L 93.006519 215.085312  L 93.981458 216.260852  L 94.956396 217.095091  L 95.931335 217.56378  L 96.581294 217.668989  L 97.231253 217.610109  L 97.881212 217.391872  L 98.856151 216.782483  L 99.831089 215.866208  L 101.131007 214.245251  L 102.755905 211.759202  L 107.305618 204.455011  L 108.605536 202.919385  L 109.580475 202.076589  L 110.555414 201.541157  L 111.530352 201.338764  L 112.180311 201.39552  L 113.15525 201.768415  L 114.130188 202.474721  L 115.105127 203.487385  L 116.405045 205.240928  L 118.029943 207.888877  L 121.604717 213.920594  L 122.904636 215.614672  L 123.879574 216.547093  L 124.854513 217.127974  L 125.504472 217.298019  L 126.154431 217.282441  L 126.80439 217.073832  L 127.454349 216.66722  L 128.104308 216.060008  L 129.079247 214.772971  L 130.054185 213.042257  L 131.029124 210.885556  L 132.329042 207.394016  L 133.62896 203.276199  L 135.253857 197.408585  L 137.528714 188.298039  L 141.428468 172.491915  L 143.053366 166.802114  L 144.353284 163.007228  L 145.328223 160.721024  L 146.303161 158.989088  L 146.95312 158.169998  L 147.603079 157.634669  L 148.253038 157.392653  L 148.902998 157.449944  L 149.552957 157.808706  L 150.202916 158.467068  L 150.852875 159.418998  L 151.827813 161.373794  L 152.802752 163.91316  L 154.10267 168.081927  L 155.727568 174.23849  L 161.252219 196.216061  L 162.552138 200.151386  L 163.527076 202.535285  L 164.502015 204.381933  L 165.476953 205.665879  L 166.126912 206.204812  L 166.776871 206.491873  L 167.42683 206.531974  L 168.07679 206.332744  L 168.726749 205.904221  L 169.376708 205.258539  L 170.351646 203.913706  L 171.326585 202.164907  L 172.626503 199.306538  L 174.2514 195.098134  L 177.176216 186.673217  L 179.451073 180.34173  L 181.075971 176.44501  L 182.375889 173.913508  L 183.350827 172.434966  L 184.325766 171.361038  L 184.975725 170.884565  L 185.625684 170.606516  L 186.275643 170.529836  L 186.925602 170.65471  L 187.575561 170.978475  L 188.22552 171.49558  L 189.200459 172.61459  L 190.175397 174.109161  L 191.475315 176.593943  L 193.100213 180.272335  L 197.974906 191.863916  L 199.274824 194.361812  L 200.574742 196.416576  L 201.87466 198.00017  L 202.849599 198.888139  L 203.824537 199.544824  L 205.124455 200.126055  L 206.749353 200.550204  L 209.02421 201.108619  L 209.999148 201.533961  L 210.974087 202.177504  L 211.949025 203.110196  L 212.923964 204.397071  L 213.898903 206.0939  L 214.873841 208.243571  L 215.84878 210.872357  L 217.148698 215.129687  L 218.448616 220.194308  L 220.073514 227.44321  L 224.623227 248.658465  L 225.923145 253.320277  L 226.898084 255.944998  L 227.548043 257.200072  L 228.198002 258.019803  L 228.847961 258.379181  L 229.17294 258.380882  L 229.49792 258.262281  L 230.147879 257.663103  L 230.797838 256.586158  L 231.447797 255.04676  L 232.422735 251.930515  L 233.397674 247.966313  L 234.697592 241.675382  L 239.897265 214.829293  L 241.197183 209.673345  L 242.172121 206.548403  L 243.14706 204.123543  L 244.121998 202.423618  L 244.771957 201.691463  L 245.421916 201.270528  L 246.071876 201.146347  L 246.721835 201.299479  L 247.371794 201.706087  L 248.021753 202.338604  L 248.996691 203.643468  L 250.296609 205.87225  L 254.846323 214.382053  L 255.821261 215.71353  L 256.7962 216.722565  L 257.771138 217.37596  L 258.421097 217.605619  L 259.071057 217.669515  L 259.721016 217.570245  L 260.695954 217.127954  L 261.670893 216.360134  L 262.645831 215.306564  L 263.945749 213.542604  L 265.895627 210.405654  L 268.820442 205.607707  L 270.12036 203.829787  L 271.420278 202.461653  L 272.395217 201.768551  L 273.370156 201.397233  L 274.020115 201.338482  L 274.670074 201.433815  L 275.645012 201.863527  L 276.619951 202.623169  L 277.594889 203.683246  L 278.894808 205.486945  L 280.519705 208.170584  L 283.7695 213.679293  L 285.069419 215.428778  L 286.044357 216.414759  L 287.019296 217.057561  L 287.669255 217.272567  L 288.319214 217.304185  L 288.969173 217.144394  L 289.619132 216.787617  L 290.269091 216.230672  L 291.244029 215.018628  L 292.218968 213.360883  L 293.193907 211.273569  L 294.493825 207.866627  L 295.793743 203.821804  L 297.41864 198.025389  L 299.693497 188.969338  L 303.918231 171.885117  L 305.543129 166.286259  L 306.843047 162.590392  L 307.817985 160.392241  L 308.792924 158.75836  L 309.442883 158.009132  L 310.092842 157.54637  L 310.742801 157.378764  L 311.39276 157.511375  L 312.042719 157.945373  L 312.692678 158.677857  L 313.342637 159.701743  L 314.317576 161.758127  L 315.292514 164.38846  L 316.592432 168.656725  L 318.21733 174.894619  L 323.417002 195.669779  L 324.716921 199.70466  L 325.691859 202.174319  L 326.666798 204.112776  L 327.641736 205.491498  L 328.291695 206.093819  L 328.941654 206.443501  L 329.591613 206.544727  L 330.241572 206.404478  L 330.891532 206.032217  L 331.541491 205.439585  L 332.516429 204.167407  L 333.491368 202.481998  L 334.791286 199.692391  L 336.416183 195.543013  L 339.01602 188.094694  L 341.615856 180.766979  L 343.240753 176.801481  L 344.540672 174.196645  L 345.51561 172.654233  L 346.490549 171.510564  L 347.465487 170.79629  L 348.115446 170.568413  L 348.765405 170.542213  L 349.415364 170.717173  L 350.065324 171.089906  L 351.040262 172.005333  L 352.015201 173.317934  L 352.990139 174.981333  L 354.290057 177.643316  L 356.239934 182.252671  L 359.814709 190.826698  L 361.439607 194.072721  L 362.739525 196.185376  L 364.039443 197.827791  L 365.014382 198.757024  L 365.98932 199.450019  L 367.289238 200.068511  L 368.914136 200.515853  L 371.513972 201.167473  L 372.488911 201.624098  L 373.463849 202.311026  L 374.438788 203.298439  L 375.413726 204.650069  L 376.388665 206.419795  L 377.363604 208.647999  L 378.338542 211.357818  L 379.63846 215.720581  L 380.938378 220.87829  L 382.888256 229.757443  L 386.78801 247.999231  L 388.087928 252.804306  L 389.062867 255.56692  L 389.712826 256.925955  L 390.362785 257.857199  L 391.012744 258.333529  L 391.337723 258.395017  L 391.662703 258.336661  L 392.312662 257.858048  L 392.962621 256.899533  L 393.61258 255.473719  L 394.587518 252.512943  L 395.562457 248.678859  L 396.862375 242.509672  L 398.487273 233.832681  L 398.487273 233.832681  "
           clip-path="url(#p8bcb091239)"
           style="fill: none; stroke: #172c4b; stroke-opacity: 0.41; stroke-linecap: square"
           id="path63" />
      </g>
      <g
         id="line2d_17">
        <path
           d="M 73.832727 233.832681  L 76.432563 215.526541  L 78.057461 205.623819  L 79.357379 199.11619  L 80.332318 195.217239  L 81.307256 192.221848  L 81.957215 190.735586  L 82.607174 189.652921  L 83.257133 188.961443  L 83.907093 188.641944  L 84.557052 188.669019  L 85.207011 189.011809  L 85.85697 189.634843  L 86.831908 191.008475  L 88.131826 193.435929  L 92.35656 202.127365  L 93.331499 203.584926  L 94.306437 204.655807  L 94.956396 205.132252  L 95.606355 205.409607  L 96.256314 205.485067  L 96.906274 205.360029  L 97.556233 205.03981  L 98.531171 204.213955  L 99.50611 203.013412  L 100.806028 200.931135  L 102.430925 197.794514  L 106.0057 190.636074  L 107.305618 188.592873  L 108.280557 187.444805  L 109.255495 186.698661  L 109.905455 186.449991  L 110.555414 186.413432  L 111.205373 186.596124  L 111.855332 187.001268  L 112.505291 187.627937  L 113.480229 188.970819  L 114.455168 190.764129  L 115.755086 193.75616  L 117.379984 198.194538  L 121.279738 209.288116  L 122.579656 212.222212  L 123.554595 213.933779  L 124.529533 215.144939  L 125.179492 215.646558  L 125.829451 215.889132  L 126.47941 215.864245  L 127.129369 215.566854  L 127.779328 214.995115  L 128.429287 214.150166  L 129.404226 212.379581  L 130.379165 210.026545  L 131.354103 207.124373  L 132.654021 202.473792  L 134.278919 195.57454  L 136.228796 186.065975  L 139.478591 168.72694  L 142.078428 155.382603  L 143.703325 148.218295  L 145.003243 143.540811  L 145.978182 140.802834  L 146.95312 138.821322  L 147.603079 137.955653  L 148.253038 137.473103  L 148.902998 137.384715  L 149.552957 137.696494  L 150.202916 138.409046  L 150.852875 139.517333  L 151.502834 141.010534  L 152.477772 143.934183  L 153.452711 147.605599  L 154.752629 153.477748  L 156.377527 161.940489  L 160.92724 186.381901  L 162.227158 192.038422  L 163.527076 196.599579  L 164.502015 199.202667  L 165.476953 201.060415  L 166.126912 201.877119  L 166.776871 202.357453  L 167.42683 202.506826  L 168.07679 202.334176  L 168.726749 201.85152  L 169.376708 201.073489  L 170.351646 199.38986  L 171.326585 197.143563  L 172.626503 193.394658  L 173.926421 188.946372  L 175.876298 181.365454  L 181.075971 160.403306  L 182.700868 155.083556  L 184.000786 151.690096  L 184.975725 149.749639  L 185.950663 148.383649  L 186.600622 147.80964  L 187.250581 147.512142  L 187.900541 147.49305  L 188.5505 147.750263  L 189.200459 148.277598  L 189.850418 149.064795  L 190.825356 150.700687  L 191.800295 152.824905  L 193.100213 156.277033  L 195.05009 162.322074  L 198.624865 173.655292  L 200.249762 177.972812  L 201.549681 180.807044  L 202.849599 183.048349  L 203.824537 184.355649  L 204.799476 185.379666  L 206.099394 186.396691  L 208.049271 187.52419  L 209.674169 188.547183  L 210.649107 189.399371  L 211.624046 190.552005  L 212.598984 192.100381  L 213.573923 194.131135  L 214.548862 196.717322  L 215.5238 199.913128  L 216.498739 203.748455  L 217.798657 209.852842  L 219.098575 216.995715  L 221.048452 229.150979  L 224.298247 249.864566  L 225.598165 256.755374  L 226.573104 260.87108  L 227.223063 262.993479  L 227.873022 264.555543  L 228.522981 265.514108  L 228.847961 265.75675  L 229.17294 265.837724  L 229.49792 265.755169  L 229.822899 265.508121  L 230.472858 264.521332  L 231.122817 262.888426  L 231.772776 260.635795  L 232.747715 256.189728  L 233.722654 250.646275  L 235.347551 239.707112  L 239.247305 212.380829  L 240.547224 204.734534  L 241.847142 198.405387  L 242.82208 194.654394  L 243.797019 191.812035  L 244.446978 190.427446  L 245.096937 189.444016  L 245.746896 188.847587  L 246.396855 188.617339  L 247.046814 188.726432  L 247.696773 189.142768  L 248.346732 189.82987  L 249.321671 191.280228  L 250.621589 193.771815  L 254.521343 201.851245  L 255.496282 203.36732  L 256.47122 204.506336  L 257.446159 205.220439  L 258.096118 205.447415  L 258.746077 205.472461  L 259.396036 205.297982  L 260.045995 204.930229  L 261.020934 204.038487  L 261.995872 202.780759  L 263.29579 200.639309  L 264.920688 197.461217  L 268.170483 190.924846  L 269.470401 188.818957  L 270.44534 187.609817  L 271.420278 186.792781  L 272.070238 186.492635  L 272.720197 186.402231  L 273.370156 186.529652  L 274.020115 186.879106  L 274.670074 187.450711  L 275.645012 188.714507  L 276.619951 190.436099  L 277.919869 193.349709  L 279.544767 197.726952  L 283.7695 209.689632  L 285.069419 212.539375  L 286.044357 214.172087  L 287.019296 215.294038  L 287.669255 215.731875  L 288.319214 215.908239  L 288.969173 215.81557  L 289.619132 215.449644  L 290.269091 214.809385  L 290.91905 213.896636  L 291.893989 212.027074  L 292.868927 209.579952  L 293.843866 206.590113  L 295.143784 201.83476  L 296.768681 194.82742  L 298.718559 185.228469  L 305.543129 150.232575  L 306.843047 145.167208  L 307.817985 142.082291  L 308.792924 139.712748  L 309.442883 138.569769  L 310.092842 137.798584  L 310.742801 137.413729  L 311.39276 137.425026  L 312.042719 137.837159  L 312.692678 138.649341  L 313.342637 139.855097  L 314.317576 142.373264  L 315.292514 145.682457  L 316.592432 151.160673  L 318.21733 159.306855  L 323.741982 188.618032  L 325.0419 193.88753  L 326.016839 197.08389  L 326.991777 199.564712  L 327.641736 200.803419  L 328.291695 201.704606  L 328.941654 202.268672  L 329.591613 202.500077  L 330.241572 202.406919  L 330.891532 202.000488  L 331.541491 201.294803  L 332.19145 200.306164  L 333.166388 198.332794  L 334.141327 195.831077  L 335.441245 191.798772  L 337.066143 185.892387  L 339.340999 176.661015  L 342.915774 162.185503  L 344.540672 156.566556  L 345.84059 152.860809  L 346.815528 150.650822  L 347.790467 148.992316  L 348.440426 148.214473  L 349.090385 147.709201  L 349.740344 147.481281  L 350.390303 147.531621  L 351.040262 147.857105  L 351.690221 148.450525  L 352.34018 149.300616  L 353.315119 151.022781  L 354.290057 153.221024  L 355.589975 156.748764  L 357.539853 162.851138  L 360.789648 173.182528  L 362.414545 177.577863  L 363.714464 180.485104  L 365.014382 182.800205  L 365.98932 184.158605  L 366.964259 185.226655  L 368.264177 186.286733  L 369.889075 187.2575  L 371.838952 188.427401  L 372.81389 189.239132  L 373.788829 190.334909  L 374.763767 191.811019  L 375.738706 193.755873  L 376.713645 196.245148  L 377.688583 199.336552  L 378.663522 203.064406  L 379.96344 209.029926  L 381.263358 216.052241  L 383.213235 228.094849  L 386.78801 250.797139  L 388.087928 257.511874  L 389.062867 261.451457  L 389.712826 263.438397  L 390.362785 264.853203  L 391.012744 265.655487  L 391.337723 265.817583  L 391.662703 265.816969  L 391.987682 265.652231  L 392.312662 265.322864  L 392.962621 264.172911  L 393.61258 262.382  L 394.262539 259.980348  L 395.237477 255.33563  L 396.537396 247.543266  L 398.487273 233.832681  L 398.487273 233.832681  "
           clip-path="url(#p8bcb091239)"
           style="fill: none; stroke: #172c4b; stroke-opacity: 0.31; stroke-linecap: square"
           id="path64" />
      </g>
      <g
         id="line2d_18">
        <path
           d="M 73.832727 233.832681  L 76.757543 208.308512  L 78.382441 196.158906  L 79.682359 188.152134  L 80.657297 183.324288  L 81.632236 179.579757  L 82.282195 177.697863  L 82.932154 176.304247  L 83.582113 175.386907  L 84.232072 174.926051  L 84.882031 174.894629  L 85.53199 175.259025  L 86.181949 175.979907  L 86.831908 177.013191  L 87.806847 179.043648  L 89.106765 182.380248  L 93.006519 192.922436  L 93.981458 194.930567  L 94.956396 196.48539  L 95.931335 197.533069  L 96.581294 197.935673  L 97.231253 198.09931  L 97.881212 198.027482  L 98.531171 197.728158  L 99.18113 197.213392  L 100.156069 196.072596  L 101.131007 194.549646  L 102.430925 192.064293  L 105.030762 186.375402  L 106.655659 183.032989  L 107.955577 180.863818  L 108.930516 179.676471  L 109.580475 179.138992  L 110.230434 178.827914  L 110.880393 178.759022  L 111.530352 178.944005  L 112.180311 179.390056  L 112.83027 180.099541  L 113.480229 181.06975  L 114.455168 182.995153  L 115.430106 185.439377  L 116.730025 189.373869  L 118.679902 196.218052  L 121.604717 206.548564  L 122.904636 210.335028  L 123.879574 212.595913  L 124.854513 214.252672  L 125.504472 214.983855  L 126.154431 215.396367  L 126.80439 215.478  L 127.454349 215.220805  L 128.104308 214.62086  L 128.754267 213.677954  L 129.404226 212.395219  L 130.379165 209.847937  L 131.354103 206.581164  L 132.654021 201.178371  L 133.953939 194.689292  L 135.578837 185.266023  L 137.528714 172.469537  L 143.703325 130.217759  L 145.003243 123.250455  L 145.978182 118.999771  L 146.95312 115.751426  L 147.603079 114.207546  L 148.253038 113.198718  L 148.902998 112.749919  L 149.227977 112.741292  L 149.552957 112.878568  L 150.202916 113.593721  L 150.852875 114.89545  L 151.502834 116.774413  L 152.477772 120.63112  L 153.452711 125.637867  L 154.752629 133.838963  L 156.377527 145.878185  L 160.92724 181.145464  L 162.227158 189.30563  L 163.202097 194.389899  L 164.177035 198.47535  L 165.151974 201.507089  L 165.801933 202.933556  L 166.451892 203.888052  L 167.101851 204.380783  L 167.75181 204.427223  L 168.401769 204.047243  L 169.051728 203.264233  L 169.701687 202.104264  L 170.676626 199.719081  L 171.651564 196.648087  L 172.951482 191.662042  L 174.57638 184.332888  L 176.851237 172.841509  L 180.426011 154.621058  L 182.050909 147.391961  L 183.350827 142.507834  L 184.325766 139.499935  L 185.300704 137.129729  L 186.275643 135.447095  L 186.925602 134.722579  L 187.575561 134.319866  L 188.22552 134.236914  L 188.875479 134.466688  L 189.525438 134.997181  L 190.175397 135.811575  L 191.150336 137.517673  L 192.125274 139.724852  L 193.425192 143.26387  L 195.700049 150.308758  L 197.974906 157.16761  L 199.274824 160.527012  L 200.574742 163.289151  L 201.549681 164.925869  L 202.524619 166.187424  L 203.499558 167.097041  L 204.474496 167.699956  L 205.449435 168.061484  L 207.074333 168.360149  L 208.69923 168.69726  L 209.674169 169.14476  L 210.649107 169.929375  L 211.299066 170.702044  L 211.949025 171.71683  L 212.923964 173.767748  L 213.898903 176.545064  L 214.873841 180.133596  L 215.84878 184.59116  L 216.823718 189.94131  L 218.123636 198.426396  L 219.748534 210.934468  L 222.023391 230.651031  L 224.298247 250.058361  L 225.598165 259.500704  L 226.573104 265.221741  L 227.548043 269.465297  L 228.198002 271.360542  L 228.847961 272.449505  L 229.17294 272.680755  L 229.49792 272.699582  L 229.822899 272.504739  L 230.147879 272.096183  L 230.797838 270.643919  L 231.447797 268.367231  L 232.097756 265.310433  L 233.072695 259.406698  L 234.372613 249.5453  L 236.32249 232.361596  L 238.922326 209.630226  L 240.547224 197.275342  L 241.847142 189.058227  L 242.82208 184.054908  L 243.797019 180.127159  L 244.771957 177.304015  L 245.421916 176.030905  L 246.071876 175.229835  L 246.721835 174.879143  L 247.371794 174.950066  L 248.021753 175.407474  L 248.671712 176.210752  L 249.64665 177.96454  L 250.621589 180.22883  L 252.246486 184.664376  L 254.846323 191.772863  L 256.146241 194.625494  L 257.121179 196.260363  L 258.096118 197.395124  L 258.746077 197.857459  L 259.396036 198.080692  L 260.045995 198.067151  L 260.695954 197.823724  L 261.345913 197.36148  L 262.320852 196.291245  L 263.29579 194.826763  L 264.595708 192.397107  L 266.870565 187.450935  L 268.820442 183.341841  L 270.12036 181.10161  L 271.095299 179.844012  L 271.745258 179.252837  L 272.395217 178.883529  L 273.045176 178.752827  L 273.695135 178.873485  L 274.345094 179.253854  L 274.995053 179.897532  L 275.645012 180.803098  L 276.619951 182.636583  L 277.594889 184.998823  L 278.894808 188.846474  L 280.519705 194.444093  L 284.09448 207.062262  L 285.394398 210.749987  L 286.369337 212.916275  L 287.344275 214.464511  L 287.994234 215.11741  L 288.644193 215.448177  L 289.294152 215.445686  L 289.944111 215.103021  L 290.59407 214.417218  L 291.244029 213.388939  L 291.893989 212.02209  L 292.868927 209.352444  L 293.843866 205.969506  L 295.143784 200.423964  L 296.443702 193.808536  L 298.0686 184.254401  L 300.018477 171.349001  L 305.868108 131.176389  L 307.168026 124.0461  L 308.142965 119.642435  L 309.117903 116.217425  L 309.767862 114.544484  L 310.417821 113.399275  L 311.067781 112.808526  L 311.39276 112.727443  L 311.71774 112.791625  L 312.042719 113.002211  L 312.692678 113.864364  L 313.342637 115.31165  L 313.992596 117.332338  L 314.967535 121.389204  L 315.942473 126.574282  L 317.242391 134.967171  L 318.867289 147.154508  L 323.092023 180.028639  L 324.391941 188.367299  L 325.691859 195.142159  L 326.666798 199.054706  L 327.641736 201.908289  L 328.291695 203.216127  L 328.941654 204.054005  L 329.591613 204.433525  L 330.241572 204.371345  L 330.891532 203.888296  L 331.541491 203.008515  L 332.19145 201.758619  L 333.166388 199.252145  L 334.141327 196.076699  L 335.441245 190.977715  L 337.066143 183.548947  L 339.665979 170.295409  L 342.915774 153.852843  L 344.540672 146.732427  L 345.84059 141.964901  L 346.815528 139.059034  L 347.790467 136.800484  L 348.440426 135.678277  L 349.090385 134.873568  L 349.740344 134.390402  L 350.390303 134.227974  L 351.040262 134.380499  L 351.690221 134.837205  L 352.34018 135.582454  L 353.315119 137.195901  L 354.290057 139.326484  L 355.589975 142.792332  L 357.539853 148.766386  L 360.139689 156.7119  L 361.764586 160.907033  L 363.064505 163.588279  L 364.039443 165.161838  L 365.014382 166.362509  L 365.98932 167.217298  L 366.964259 167.774937  L 367.939197 168.103866  L 369.889075 168.43336  L 371.188993 168.75381  L 372.163931 169.248693  L 372.81389 169.769819  L 373.463849 170.48757  L 374.113808 171.438512  L 375.088747 173.378102  L 376.063686 176.027839  L 377.038624 179.476334  L 378.013563 183.78641  L 378.988501 188.987824  L 380.288419 197.285363  L 381.588337 206.990747  L 383.538215 223.458178  L 386.78801 251.330392  L 388.087928 260.545586  L 389.062867 266.038399  L 389.712826 268.870911  L 390.362785 270.960672  L 391.012744 272.254933  L 391.337723 272.591559  L 391.662703 272.716827  L 391.987682 272.6289  L 392.312662 272.32713  L 392.637641 271.812085  L 393.2876 270.150643  L 393.937559 267.674004  L 394.587518 264.431387  L 395.562457 258.285519  L 396.862375 248.190592  L 398.487273 233.832681  L 398.487273 233.832681  "
           clip-path="url(#p8bcb091239)"
           style="fill: none; stroke: #172c4b; stroke-opacity: 0.21; stroke-linecap: square"
           id="path65" />
      </g>
      <g
         id="line2d_19">
        <path
           d="M 73.832727 233.832681  L 76.757543 198.572812  L 78.382441 181.655807  L 79.682359 170.390537  L 80.657297 163.510156  L 81.632236 158.081563  L 82.607174 154.142376  L 83.257133 152.336766  L 83.907093 151.166645  L 84.557052 150.602241  L 84.882031 150.53519  L 85.207011 150.604042  L 85.85697 151.12378  L 86.506929 152.105624  L 87.156888 153.487558  L 88.131826 156.163889  L 89.431744 160.48919  L 92.68154 171.702769  L 93.656478 174.369756  L 94.631417 176.456115  L 95.281376 177.480181  L 95.931335 178.19094  L 96.581294 178.57973  L 97.231253 178.644933  L 97.881212 178.391519  L 98.531171 177.830534  L 99.18113 176.97855  L 100.156069 175.203275  L 101.131007 172.913402  L 102.430925 169.250034  L 107.630598 153.671431  L 108.605536 151.719666  L 109.255495 150.757279  L 109.905455 150.101905  L 110.555414 149.779387  L 111.205373 149.810372  L 111.855332 150.209683  L 112.505291 150.985774  L 113.15525 152.140294  L 113.805209 153.667777  L 114.780147 156.628468  L 115.755086 160.324644  L 117.055004 166.205869  L 119.004881 176.353548  L 121.929697 191.714559  L 123.229615 197.476699  L 124.204554 201.035748  L 125.179492 203.805082  L 125.829451 205.166709  L 126.47941 206.117452  L 127.129369 206.644199  L 127.779328 206.73958  L 128.429287 206.40157  L 129.079247 205.632985  L 129.729206 204.440919  L 130.379165 202.836142  L 131.354103 199.686168  L 132.329042 195.696349  L 133.62896 189.186033  L 134.928878 181.478126  L 136.553776 170.459493  L 138.828632 153.24546  L 143.053366 120.697683  L 144.678264 110.143435  L 145.978182 103.345063  L 146.95312 99.468877  L 147.603079 97.549474  L 148.253038 96.204574  L 148.902998 95.463052  L 149.227977 95.32541  L 149.552957 95.345745  L 149.877936 95.525258  L 150.527895 96.363567  L 151.177854 97.837515  L 151.827813 99.933939  L 152.802752 104.191176  L 153.77769 109.670442  L 155.077609 118.574982  L 156.702506 131.530133  L 160.92724 166.376735  L 162.227158 175.12592  L 163.202097 180.573339  L 164.177035 184.934514  L 165.151974 188.139602  L 165.801933 189.618712  L 166.451892 190.572104  L 167.101851 191.007655  L 167.42683 191.035303  L 167.75181 190.939006  L 168.401769 190.384639  L 169.051728 189.366964  L 169.701687 187.911449  L 170.676626 184.968341  L 171.651564 181.202548  L 172.951482 175.081581  L 174.57638 166.015853  L 176.526257 153.720309  L 181.72593 120.185009  L 183.025848 113.254009  L 184.325766 107.503089  L 185.300704 104.115709  L 186.275643 101.61385  L 186.925602 100.465969  L 187.575561 99.745037  L 188.22552 99.453079  L 188.875479 99.585288  L 189.525438 100.129932  L 190.175397 101.068449  L 190.825356 102.375727  L 191.800295 104.95833  L 192.775233 108.171814  L 194.400131 114.520105  L 198.624865 131.92203  L 199.924783 136.226766  L 200.899722 138.88272  L 201.87466 141.005641  L 202.849599 142.593175  L 203.824537 143.675152  L 204.799476 144.311824  L 205.774414 144.59141  L 206.749353 144.627158  L 209.02421 144.5544  L 209.674169 144.708708  L 210.324128 145.035814  L 210.974087 145.589483  L 211.624046 146.423487  L 212.274005 147.590661  L 212.923964 149.141834  L 213.573923 151.124646  L 214.548862 155.001015  L 215.5238 160.063572  L 216.498739 166.390625  L 217.473677 174.008272  L 218.773595 186.099429  L 220.398493 203.877832  L 223.323309 239.605517  L 224.948206 258.303352  L 226.248124 270.818046  L 227.223063 278.075464  L 227.873022 281.683011  L 228.522981 284.197972  L 229.17294 285.552206  L 229.49792 285.779564  L 229.822899 285.702731  L 230.147879 285.320665  L 230.472858 284.634155  L 231.122817 282.360316  L 231.772776 278.925043  L 232.422735 274.401965  L 233.397674 265.8087  L 234.697592 251.711333  L 237.622408 215.733325  L 239.572285 193.214448  L 241.197183 177.168166  L 242.497101 166.773397  L 243.472039 160.610721  L 244.446978 155.925642  L 245.096937 153.630157  L 245.746896 151.985647  L 246.396855 150.970142  L 247.046814 150.551354  L 247.371794 150.553011  L 247.696773 150.687482  L 248.346732 151.328247  L 248.996691 152.416136  L 249.97163 154.746588  L 251.271548 158.796424  L 255.496282 173.101921  L 256.47122 175.491827  L 257.446159 177.253039  L 258.096118 178.04322  L 258.746077 178.512922  L 259.396036 178.658805  L 260.045995 178.484238  L 260.695954 177.998798  L 261.345913 177.217729  L 262.320852 175.537586  L 263.29579 173.326361  L 264.595708 169.737545  L 266.870565 162.537372  L 268.820442 156.576213  L 270.12036 153.307768  L 271.095299 151.451876  L 271.745258 150.563561  L 272.395217 149.98917  L 273.045176 149.75331  L 273.695135 149.875226  L 274.345094 150.368199  L 274.995053 151.239017  L 275.645012 152.487572  L 276.619951 155.05076  L 277.594889 158.390593  L 278.894808 163.889697  L 280.519705 172.000424  L 284.744439 193.99345  L 286.044357 199.348101  L 287.019296 202.525495  L 287.994234 204.86418  L 288.644193 205.919104  L 289.294152 206.55276  L 289.944111 206.756373  L 290.59407 206.526626  L 291.244029 205.865177  L 291.893989 204.778105  L 292.543948 203.275317  L 293.518886 200.271158  L 294.493825 196.416919  L 295.793743 190.069123  L 297.093661 182.500604  L 298.718559 171.619894  L 300.993415 154.519127  L 305.543129 119.560499  L 306.843047 111.107078  L 308.142965 104.098987  L 309.117903 100.034427  L 309.767862 97.976756  L 310.417821 96.48523  L 311.067781 95.59058  L 311.39276 95.374582  L 311.71774 95.315741  L 312.042719 95.415553  L 312.367699 95.674916  L 313.017658 96.672798  L 313.667617 98.304008  L 314.317576 100.552767  L 315.292514 105.023579  L 316.267453 110.691091  L 317.567371 119.79451  L 319.192269 132.89628  L 323.092023 165.179975  L 324.391941 174.119775  L 325.691859 181.378064  L 326.666798 185.550231  L 327.641736 188.558855  L 328.291695 189.906145  L 328.941654 190.729098  L 329.591613 191.037115  L 329.916593 191.0025  L 330.566552 190.5676  L 331.216511 189.66347  L 331.86647 188.314891  L 332.841409 185.518751  L 333.816347 181.882934  L 335.116265 175.908035  L 336.416183 168.874661  L 338.366061 156.895576  L 344.540672 117.465373  L 345.84059 110.94463  L 346.815528 106.880173  L 347.790467 103.635414  L 348.765405 101.287214  L 349.415364 100.245516  L 350.065324 99.631901  L 350.715283 99.446705  L 351.365242 99.683393  L 352.015201 100.328507  L 352.66516 101.361816  L 353.315119 102.756635  L 354.290057 105.453885  L 355.589975 109.969372  L 357.214873 116.573148  L 360.464668 130.112679  L 361.764586 134.708649  L 363.064505 138.476533  L 364.039443 140.689342  L 365.014382 142.364888  L 365.98932 143.527734  L 366.964259 144.233219  L 367.939197 144.565091  L 368.914136 144.632648  L 371.513972 144.579693  L 372.163931 144.772192  L 372.81389 145.150884  L 373.463849 145.769615  L 374.113808 146.682017  L 374.763767 147.940529  L 375.413726 149.595298  L 376.388665 152.921184  L 377.363604 157.378032  L 378.338542 163.066053  L 379.313481 170.038828  L 380.613399 181.317907  L 381.913317 194.667271  L 383.863194 217.549192  L 387.112989 256.55677  L 388.412907 269.415097  L 389.387846 277.012998  L 390.037805 280.880382  L 390.687764 283.675797  L 391.337723 285.325271  L 391.662703 285.703773  L 391.987682 285.779279  L 392.312662 285.549846  L 392.637641 285.015343  L 393.2876 283.039887  L 393.937559 279.889221  L 394.587518 275.629597  L 395.562457 267.376722  L 396.862375 253.599785  L 398.487273 233.832681  L 398.487273 233.832681  "
           clip-path="url(#p8bcb091239)"
           style="fill: none; stroke: #172c4b; stroke-opacity: 0.11; stroke-linecap: square"
           id="path66" />
      </g>
      <g
         id="line2d_20">
        <path
           d="M 73.832727 233.832681  L 76.757543 191.082862  L 78.382441 170.24223  L 79.682359 156.075077  L 80.982277 144.613881  L 81.957215 137.965522  L 82.932154 133.045581  L 83.582113 130.721635  L 84.232072 129.141534  L 84.882031 128.273785  L 85.207011 128.094087  L 85.53199 128.075595  L 85.85697 128.211356  L 86.506929 128.915015  L 87.156888 130.138895  L 87.806847 131.810085  L 88.781785 134.984324  L 90.406683 141.375403  L 93.006519 151.754808  L 94.306437 155.89611  L 95.281376 158.233396  L 95.931335 159.371694  L 96.581294 160.154835  L 97.231253 160.575949  L 97.881212 160.636222  L 98.531171 160.344346  L 99.18113 159.715887  L 99.831089 158.772627  L 100.806028 156.828617  L 101.780966 154.351076  L 103.080885 150.448229  L 106.980639 138.127402  L 107.955577 135.765628  L 108.930516 134.002896  L 109.580475 133.22661  L 110.230434 132.80921  L 110.880393 132.778687  L 111.530352 133.156727  L 112.180311 133.957984  L 112.83027 135.189469  L 113.480229 136.850066  L 114.455168 140.122314  L 115.430106 144.268297  L 116.730025 150.959131  L 118.354922 160.659584  L 122.254676 184.573029  L 123.554595 190.965771  L 124.529533 194.785909  L 125.504472 197.623119  L 126.154431 198.920406  L 126.80439 199.719039  L 127.454349 200.006742  L 127.779328 199.956915  L 128.104308 199.777605  L 128.754267 199.031489  L 129.404226 197.773332  L 130.054185 196.012414  L 131.029124 192.457337  L 132.004062 187.855741  L 132.979001 182.273032  L 134.278919 173.430022  L 135.903817 160.398333  L 137.853694 142.433529  L 140.778509 112.765105  L 143.378346 86.942214  L 145.003243 73.008873  L 146.303161 64.016471  L 147.2781 58.899855  L 147.928059 56.381535  L 148.578018 54.638881  L 149.227977 53.713842  L 149.552957 53.568  L 149.877936 53.637121  L 150.202916 53.923067  L 150.527895 54.426844  L 151.177854 56.087495  L 151.827813 58.609168  L 152.477772 61.967179  L 153.452711 68.482097  L 154.427649 76.593892  L 155.727568 89.439983  L 157.677445 111.484086  L 160.60226 145.011882  L 162.227158 160.924167  L 163.527076 171.214636  L 164.502015 177.261399  L 165.476953 181.784694  L 166.126912 183.942015  L 166.776871 185.419289  L 167.42683 186.2319  L 167.75181 186.395778  L 168.07679 186.402457  L 168.401769 186.255664  L 169.051728 185.517924  L 169.701687 184.217248  L 170.351646 182.390957  L 171.326585 178.751355  L 172.301523 174.150698  L 173.601441 166.751636  L 175.226339 155.902722  L 177.501196 138.783984  L 181.72593 106.388301  L 183.350827 95.739526  L 184.650745 88.658435  L 185.625684 84.379978  L 186.600622 81.093031  L 187.250581 79.485042  L 187.900541 78.356267  L 188.5505 77.708935  L 189.200459 77.537352  L 189.850418 77.827818  L 190.500377 78.558778  L 191.150336 79.701187  L 192.125274 82.105934  L 193.100213 85.208029  L 194.400131 90.134126  L 199.274824 109.639546  L 200.574742 113.459709  L 201.549681 115.670864  L 202.524619 117.296997  L 203.174578 118.06383  L 203.824537 118.5929  L 204.474496 118.905802  L 205.124455 119.030757  L 206.099394 118.942782  L 207.724292 118.425087  L 208.69923 118.175218  L 209.349189 118.154995  L 209.999148 118.32502  L 210.649107 118.750228  L 211.299066 119.496501  L 211.949025 120.629567  L 212.598984 122.213756  L 213.248943 124.310583  L 213.898903 126.977186  L 214.873841 132.154984  L 215.84878 138.864722  L 216.823718 147.188846  L 218.123636 160.811135  L 219.423554 177.120609  L 221.048452 200.505404  L 225.273186 263.749777  L 226.573104 278.864505  L 227.548043 287.393893  L 228.198002 291.487549  L 228.847961 294.185215  L 229.17294 294.986876  L 229.49792 295.41515  L 229.822899 295.466262  L 230.147879 295.138677  L 230.472858 294.433158  L 231.122817 291.903072  L 231.772776 287.92911  L 232.422735 282.601772  L 233.397674 272.358976  L 234.697592 255.413316  L 237.297428 216.760329  L 239.572285 184.520418  L 241.197183 164.63686  L 242.497101 151.441501  L 243.472039 143.387087  L 244.446978 137.025098  L 245.421916 132.393583  L 246.071876 130.257904  L 246.721835 128.859298  L 247.371794 128.163374  L 247.696773 128.065111  L 248.021753 128.124652  L 248.346732 128.334751  L 248.996691 129.174961  L 249.64665 130.517728  L 250.621589 133.310312  L 251.921507 138.066479  L 255.821261 153.429107  L 256.7962 156.335371  L 257.771138 158.550574  L 258.421097 159.601186  L 259.071057 160.294141  L 259.721016 160.62463  L 260.370975 160.595772  L 261.020934 160.218036  L 261.670893 159.508607  L 262.320852 158.490715  L 263.29579 156.449399  L 264.595708 152.95284  L 266.545586 146.725953  L 268.820442 139.486794  L 270.12036 136.121508  L 271.095299 134.249226  L 271.745258 133.388257  L 272.395217 132.878282  L 273.045176 132.748747  L 273.695135 133.022987  L 274.345094 133.717475  L 274.995053 134.841182  L 275.645012 136.395064  L 276.619951 139.513887  L 277.594889 143.520803  L 278.894808 150.060239  L 280.519705 159.644988  L 284.744439 185.442123  L 286.044357 191.665628  L 287.019296 195.330035  L 287.994234 197.993265  L 288.644193 199.167406  L 289.294152 199.839199  L 289.619132 199.983142  L 289.944111 199.99801  L 290.269091 199.883443  L 290.91905 199.266295  L 291.569009 198.135435  L 292.218968 196.499128  L 292.868927 194.369419  L 293.843866 190.283466  L 294.818804 185.182624  L 296.118722 176.92367  L 297.41864 167.167102  L 299.043538 153.179097  L 300.993415 134.397932  L 306.518067 79.663918  L 307.817985 69.375306  L 308.792924 63.059053  L 309.767862 58.200231  L 310.417821 55.871336  L 311.067781 54.329567  L 311.39276 53.866566  L 311.71774 53.6142  L 312.042719 53.575554  L 312.367699 53.752907  L 312.692678 54.147698  L 313.342637 55.590974  L 313.992596 57.899125  L 314.642555 61.051176  L 315.617494 67.279322  L 316.592432 75.141239  L 317.892351 87.728816  L 319.842228 109.578084  L 323.092023 146.729745  L 324.391941 159.472985  L 325.691859 170.063235  L 326.666798 176.358068  L 327.641736 181.138103  L 328.291695 183.466862  L 328.941654 185.113018  L 329.591613 186.089934  L 329.916593 186.33371  L 330.241572 186.418542  L 330.566552 186.348  L 330.891532 186.125957  L 331.541491 185.244109  L 332.19145 183.808451  L 332.841409 181.856796  L 333.816347 178.047695  L 334.791286 173.299882  L 336.091204 165.738744  L 337.716102 154.740587  L 339.990958 137.51234  L 343.890713 107.54034  L 345.51561 96.723009  L 346.815528 89.461716  L 347.790467 85.026382  L 348.765405 81.568911  L 349.415364 79.842371  L 350.065324 78.593278  L 350.715283 77.825807  L 351.365242 77.536259  L 351.690221 77.567361  L 352.34018 77.970272  L 352.990139 78.807098  L 353.640098 80.047006  L 354.615037 82.578853  L 355.589975 85.781216  L 357.214873 92.134609  L 360.789648 106.80415  L 362.089566 111.182671  L 363.064505 113.86853  L 364.039443 115.982468  L 365.014382 117.511918  L 365.664341 118.217661  L 366.3143 118.690399  L 366.964259 118.953418  L 367.614218 119.036536  L 368.589156 118.904139  L 371.513972 118.144717  L 372.163931 118.261151  L 372.81389 118.616406  L 373.463849 119.276224  L 374.113808 120.306484  L 374.763767 121.77199  L 375.413726 123.735101  L 376.063686 126.254207  L 377.038624 131.188734  L 378.013563 137.635772  L 378.988501 145.687853  L 379.96344 155.371104  L 381.263358 170.714233  L 382.888256 193.215561  L 388.087928 269.852777  L 389.062867 280.470471  L 390.037805 288.543109  L 390.687764 292.296176  L 391.337723 294.632398  L 391.662703 295.247974  L 391.987682 295.488  L 392.312662 295.349813  L 392.637641 294.833021  L 392.962621 293.939549  L 393.61258 291.042042  L 394.262539 286.719813  L 394.912498 281.072534  L 395.887437 270.421554  L 397.187355 253.103258  L 398.487273 233.832681  L 398.487273 233.832681  "
           clip-path="url(#p8bcb091239)"
           style="fill: none; stroke: #172c4b; stroke-opacity: 0.01; stroke-linecap: square"
           id="path67" />
      </g>
      <g
         id="line2d_21">
        <path
           d="M 73.832727 233.832681  L 80.007338 233.736454  L 83.582113 233.457913  L 86.506929 233.019399  L 89.106765 232.428568  L 91.706601 231.618882  L 94.306437 230.56765  L 96.906274 229.258419  L 99.50611 227.681439  L 102.105946 225.833993  L 104.705782 223.720553  L 107.630598 221.039774  L 110.555414 218.064464  L 114.130188 214.083876  L 118.354922 209.007683  L 126.47941 198.766045  L 131.354103 192.824868  L 134.928878 188.806937  L 137.853694 185.833348  L 140.45353 183.48324  L 142.728387 181.68653  L 145.003243 180.157249  L 147.2781 178.915829  L 149.227977 178.093617  L 151.177854 177.503358  L 153.127731 177.150914  L 155.077609 177.039793  L 157.027486 177.1711  L 158.977363 177.543528  L 160.92724 178.153373  L 162.877117 178.994577  L 164.826994 180.05881  L 167.101851 181.568165  L 169.376708 183.346525  L 171.976544 185.677889  L 174.90136 188.63358  L 178.151155 192.256235  L 182.050909 196.944481  L 189.850418 206.778601  L 195.05009 213.134538  L 198.949844 217.542449  L 202.19964 220.881904  L 205.124455 223.579859  L 208.049271 225.957333  L 210.649107 227.787931  L 213.248943 229.348023  L 215.84878 230.640773  L 218.448616 231.676358  L 221.048452 232.47164  L 223.648288 233.049677  L 226.573104 233.47613  L 229.822899 233.728695  L 234.372613 233.830331  L 241.847142 233.757411  L 245.421916 233.510805  L 248.346732 233.108027  L 251.271548 232.47164  L 253.871384 231.676358  L 256.47122 230.640773  L 259.071057 229.348023  L 261.670893 227.787931  L 264.270729 225.957333  L 266.870565 223.860251  L 269.795381 221.196733  L 272.720197 218.236889  L 275.969992 214.64621  L 279.869746 210.00788  L 286.044357 202.254989  L 292.543948 194.173036  L 296.443702 189.686817  L 299.368518 186.626722  L 301.968354 184.185287  L 304.56819 182.049789  L 306.843047 180.46136  L 309.117903 179.156719  L 311.067781 178.277704  L 313.017658 177.628816  L 314.967535 177.216497  L 316.917412 177.044847  L 318.867289 177.115576  L 320.817166 177.427978  L 322.767043 177.978945  L 324.716921 178.763004  L 326.666798 179.772381  L 328.941654 181.221343  L 331.216511 182.943936  L 333.816347 185.218132  L 336.741163 188.118957  L 339.990958 191.693571  L 343.890713 196.343406  L 350.390303 204.52248  L 356.564914 212.171082  L 360.464668 216.657077  L 363.714464 220.079075  L 366.639279 222.861589  L 369.564095 225.330236  L 372.163931 227.244882  L 374.763767 228.889503  L 377.363604 230.265028  L 379.96344 231.379472  L 382.563276 232.247652  L 385.163112 232.890751  L 388.087928 233.378968  L 391.337723 233.68366  L 395.237477 233.818579  L 398.487273 233.832681  L 398.487273 233.832681  "
           clip-path="url(#p8bcb091239)"
           style="fill: none; stroke-dasharray: 5.55,2.4; stroke-dashoffset: 0; stroke: #3b65ac; stroke-width: 1.5"
           id="path68" />
      </g>
      <g
         id="patch_3">
        <path
           d="M 57.6 307.584  L 57.6 41.472  "
           style="fill: none; stroke: #000000; stroke-width: 0.8; stroke-linejoin: miter; stroke-linecap: square"
           id="path69" />
      </g>
      <g
         id="patch_4">
        <path
           d="M 414.72 307.584  L 414.72 41.472  "
           style="fill: none; stroke: #000000; stroke-width: 0.8; stroke-linejoin: miter; stroke-linecap: square"
           id="path70" />
      </g>
      <g
         id="patch_5">
        <path
           d="M 57.6 307.584  L 414.72 307.584  "
           style="fill: none; stroke: #000000; stroke-width: 0.8; stroke-linejoin: miter; stroke-linecap: square"
           id="path71" />
      </g>
      <g
         id="patch_6">
        <path
           d="M 57.6 41.472  L 414.72 41.472  "
           style="fill: none; stroke: #000000; stroke-width: 0.8; stroke-linejoin: miter; stroke-linecap: square"
           id="path72" />
      </g>
      <g
         id="text_14">
        <!-- Power Waveform: Nonlinear Oscillator -->
        <g
           transform="translate(122.5725 35.472) scale(0.12 -0.12)"
           id="g107">
          <defs
             id="defs72">
            <path
               id="DejaVuSans-57"
               d="M 213 4666  L 850 4666  L 1831 722  L 2809 4666  L 3519 4666  L 4500 722  L 5478 4666  L 6119 4666  L 4947 0  L 4153 0  L 3169 4050  L 2175 0  L 1381 0  L 213 4666  z "
               transform="scale(0.015625)" />
            <path
               id="DejaVuSans-61"
               d="M 2194 1759  Q 1497 1759 1228 1600  Q 959 1441 959 1056  Q 959 750 1161 570  Q 1363 391 1709 391  Q 2188 391 2477 730  Q 2766 1069 2766 1631  L 2766 1759  L 2194 1759  z M 3341 1997  L 3341 0  L 2766 0  L 2766 531  Q 2569 213 2275 61  Q 1981 -91 1556 -91  Q 1019 -91 701 211  Q 384 513 384 1019  Q 384 1609 779 1909  Q 1175 2209 1959 2209  L 2766 2209  L 2766 2266  Q 2766 2663 2505 2880  Q 2244 3097 1772 3097  Q 1472 3097 1187 3025  Q 903 2953 641 2809  L 641 3341  Q 956 3463 1253 3523  Q 1550 3584 1831 3584  Q 2591 3584 2966 3190  Q 3341 2797 3341 1997  z "
               transform="scale(0.015625)" />
            <path
               id="DejaVuSans-76"
               d="M 191 3500  L 800 3500  L 1894 563  L 2988 3500  L 3597 3500  L 2284 0  L 1503 0  L 191 3500  z "
               transform="scale(0.015625)" />
            <path
               id="DejaVuSans-66"
               d="M 2375 4863  L 2375 4384  L 1825 4384  Q 1516 4384 1395 4259  Q 1275 4134 1275 3809  L 1275 3500  L 2222 3500  L 2222 3053  L 1275 3053  L 1275 0  L 697 0  L 697 3053  L 147 3053  L 147 3500  L 697 3500  L 697 3744  Q 697 4328 969 4595  Q 1241 4863 1831 4863  L 2375 4863  z "
               transform="scale(0.015625)" />
            <path
               id="DejaVuSans-3a"
               d="M 750 794  L 1409 794  L 1409 0  L 750 0  L 750 794  z M 750 3309  L 1409 3309  L 1409 2516  L 750 2516  L 750 3309  z "
               transform="scale(0.015625)" />
            <path
               id="DejaVuSans-4e"
               d="M 628 4666  L 1478 4666  L 3547 763  L 3547 4666  L 4159 4666  L 4159 0  L 3309 0  L 1241 3903  L 1241 0  L 628 0  L 628 4666  z "
               transform="scale(0.015625)" />
            <path
               id="DejaVuSans-6e"
               d="M 3513 2113  L 3513 0  L 2938 0  L 2938 2094  Q 2938 2591 2744 2837  Q 2550 3084 2163 3084  Q 1697 3084 1428 2787  Q 1159 2491 1159 1978  L 1159 0  L 581 0  L 581 3500  L 1159 3500  L 1159 2956  Q 1366 3272 1645 3428  Q 1925 3584 2291 3584  Q 2894 3584 3203 3211  Q 3513 2838 3513 2113  z "
               transform="scale(0.015625)" />
            <path
               id="DejaVuSans-6c"
               d="M 603 4863  L 1178 4863  L 1178 0  L 603 0  L 603 4863  z "
               transform="scale(0.015625)" />
            <path
               id="DejaVuSans-4f"
               d="M 2522 4238  Q 1834 4238 1429 3725  Q 1025 3213 1025 2328  Q 1025 1447 1429 934  Q 1834 422 2522 422  Q 3209 422 3611 934  Q 4013 1447 4013 2328  Q 4013 3213 3611 3725  Q 3209 4238 2522 4238  z M 2522 4750  Q 3503 4750 4090 4092  Q 4678 3434 4678 2328  Q 4678 1225 4090 567  Q 3503 -91 2522 -91  Q 1538 -91 948 565  Q 359 1222 359 2328  Q 359 3434 948 4092  Q 1538 4750 2522 4750  z "
               transform="scale(0.015625)" />
            <path
               id="DejaVuSans-73"
               d="M 2834 3397  L 2834 2853  Q 2591 2978 2328 3040  Q 2066 3103 1784 3103  Q 1356 3103 1142 2972  Q 928 2841 928 2578  Q 928 2378 1081 2264  Q 1234 2150 1697 2047  L 1894 2003  Q 2506 1872 2764 1633  Q 3022 1394 3022 966  Q 3022 478 2636 193  Q 2250 -91 1575 -91  Q 1294 -91 989 -36  Q 684 19 347 128  L 347 722  Q 666 556 975 473  Q 1284 391 1588 391  Q 1994 391 2212 530  Q 2431 669 2431 922  Q 2431 1156 2273 1281  Q 2116 1406 1581 1522  L 1381 1569  Q 847 1681 609 1914  Q 372 2147 372 2553  Q 372 3047 722 3315  Q 1072 3584 1716 3584  Q 2034 3584 2315 3537  Q 2597 3491 2834 3397  z "
               transform="scale(0.015625)" />
            <path
               id="DejaVuSans-63"
               d="M 3122 3366  L 3122 2828  Q 2878 2963 2633 3030  Q 2388 3097 2138 3097  Q 1578 3097 1268 2742  Q 959 2388 959 1747  Q 959 1106 1268 751  Q 1578 397 2138 397  Q 2388 397 2633 464  Q 2878 531 3122 666  L 3122 134  Q 2881 22 2623 -34  Q 2366 -91 2075 -91  Q 1284 -91 818 406  Q 353 903 353 1747  Q 353 2603 823 3093  Q 1294 3584 2113 3584  Q 2378 3584 2631 3529  Q 2884 3475 3122 3366  z "
               transform="scale(0.015625)" />
            <path
               id="DejaVuSans-74"
               d="M 1172 4494  L 1172 3500  L 2356 3500  L 2356 3053  L 1172 3053  L 1172 1153  Q 1172 725 1289 603  Q 1406 481 1766 481  L 2356 481  L 2356 0  L 1766 0  Q 1100 0 847 248  Q 594 497 594 1153  L 594 3053  L 172 3053  L 172 3500  L 594 3500  L 594 4494  L 1172 4494  z "
               transform="scale(0.015625)" />
          </defs>
          <use
             xlink:href="#DejaVuSans-50"
             id="use72" />
          <use
             xlink:href="#DejaVuSans-6f"
             x="56.677734"
             id="use73" />
          <use
             xlink:href="#DejaVuSans-77"
             x="117.859375"
             id="use74" />
          <use
             xlink:href="#DejaVuSans-65"
             x="199.646484"
             id="use75" />
          <use
             xlink:href="#DejaVuSans-72"
             x="261.169922"
             id="use76" />
          <use
             xlink:href="#DejaVuSans-20"
             x="302.283203"
             id="use77" />
          <use
             xlink:href="#DejaVuSans-57"
             x="334.070312"
             id="use78" />
          <use
             xlink:href="#DejaVuSans-61"
             x="426.572266"
             id="use79" />
          <use
             xlink:href="#DejaVuSans-76"
             x="487.851562"
             id="use80" />
          <use
             xlink:href="#DejaVuSans-65"
             x="547.03125"
             id="use81" />
          <use
             xlink:href="#DejaVuSans-66"
             x="608.554688"
             id="use82" />
          <use
             xlink:href="#DejaVuSans-6f"
             x="643.759766"
             id="use83" />
          <use
             xlink:href="#DejaVuSans-72"
             x="704.941406"
             id="use84" />
          <use
             xlink:href="#DejaVuSans-6d"
             x="744.304688"
             id="use85" />
          <use
             xlink:href="#DejaVuSans-3a"
             x="841.716797"
             id="use86" />
          <use
             xlink:href="#DejaVuSans-20"
             x="875.408203"
             id="use87" />
          <use
             xlink:href="#DejaVuSans-4e"
             x="907.195312"
             id="use88" />
          <use
             xlink:href="#DejaVuSans-6f"
             x="982"
             id="use89" />
          <use
             xlink:href="#DejaVuSans-6e"
             x="1043.181641"
             id="use90" />
          <use
             xlink:href="#DejaVuSans-6c"
             x="1106.560547"
             id="use91" />
          <use
             xlink:href="#DejaVuSans-69"
             x="1134.34375"
             id="use92" />
          <use
             xlink:href="#DejaVuSans-6e"
             x="1162.126953"
             id="use93" />
          <use
             xlink:href="#DejaVuSans-65"
             x="1225.505859"
             id="use94" />
          <use
             xlink:href="#DejaVuSans-61"
             x="1287.029297"
             id="use95" />
          <use
             xlink:href="#DejaVuSans-72"
             x="1348.308594"
             id="use96" />
          <use
             xlink:href="#DejaVuSans-20"
             x="1389.421875"
             id="use97" />
          <use
             xlink:href="#DejaVuSans-4f"
             x="1421.208984"
             id="use98" />
          <use
             xlink:href="#DejaVuSans-73"
             x="1499.919922"
             id="use99" />
          <use
             xlink:href="#DejaVuSans-63"
             x="1552.019531"
             id="use100" />
          <use
             xlink:href="#DejaVuSans-69"
             x="1607"
             id="use101" />
          <use
             xlink:href="#DejaVuSans-6c"
             x="1634.783203"
             id="use102" />
          <use
             xlink:href="#DejaVuSans-6c"
             x="1662.566406"
             id="use103" />
          <use
             xlink:href="#DejaVuSans-61"
             x="1690.349609"
             id="use104" />
          <use
             xlink:href="#DejaVuSans-74"
             x="1751.628906"
             id="use105" />
          <use
             xlink:href="#DejaVuSans-6f"
             x="1790.837891"
             id="use106" />
          <use
             xlink:href="#DejaVuSans-72"
             x="1852.019531"
             id="use107" />
        </g>
      </g>
    </g>
  </g>
  <path
     style="fill:#42536c;stroke:#020202;stroke-width:0.847;stroke-linecap:butt;stroke-linejoin:round;stroke-dasharray:none;stroke-opacity:1;marker-end:url(#ArrowWideRounded)"
     d="m 428.13115,40.001229 0.5901,203.407511"
     id="path4" />
  <text
     xml:space="preserve"
     style="font-style:normal;font-variant:normal;font-weight:normal;font-stretch:normal;font-size:6.01631px;font-family:sans-serif;-inkscape-font-specification:'sans-serif, Normal';font-variant-ligatures:normal;font-variant-caps:normal;font-variant-numeric:normal;font-variant-east-asian:normal;writing-mode:vertical-lr;baseline-shift:baseline;white-space:pre;inline-size:168.151;fill:#42536c;fill-opacity:1;fill-rule:nonzero;stroke-width:0.75;stroke-linecap:butt;stroke-linejoin:round"
     x="429.35358"
     y="51.322151"
     id="text130"
     transform="matrix(1,0,0,0.99458406,-0.59176628,199.3722)"><tspan
       x="429.35358"
       y="51.322151"
       id="tspan4">Omega Ratio Ω/Ω<tspan
   style="baseline-shift:sub"
   id="tspan1">0</tspan></tspan></text>
  <text
     xml:space="preserve"
     style="font-style:normal;font-variant:normal;font-weight:normal;font-stretch:normal;font-size:5.67182px;font-family:sans-serif;-inkscape-font-specification:'sans-serif, Normal';font-variant-ligatures:normal;font-variant-caps:normal;font-variant-numeric:normal;font-variant-east-asian:normal;writing-mode:vertical-lr;fill:#42536c;stroke:#000000;stroke-width:0.800669;stroke-linecap:butt;stroke-linejoin:round;stroke-dasharray:none;stroke-opacity:1"
     x="426.27612"
     y="40.624199"
     id="text6"
     transform="scale(1.0149325,0.9852872)"><tspan
       sodipodi:role="line"
       id="tspan1-9"
       x="426.27612"
       y="40.624199">0</tspan></text>
  <text
     xml:space="preserve"
     style="font-style:normal;font-variant:normal;font-weight:normal;font-stretch:normal;font-size:5.07049px;font-family:sans-serif;-inkscape-font-specification:'sans-serif, Normal';font-variant-ligatures:normal;font-variant-caps:normal;font-variant-numeric:normal;font-variant-east-asian:normal;writing-mode:vertical-lr;fill:#edeff1;fill-opacity:1;stroke:#020202;stroke-width:0.716;stroke-linecap:butt;stroke-linejoin:round;stroke-dasharray:none;stroke-opacity:1"
     x="387.39188"
     y="264.29831"
     id="text7"
     transform="scale(1.1164005,0.8957359)"><tspan
       sodipodi:role="line"
       id="tspan6"
       x="387.39188"
       y="264.29831">1</tspan></text>
  <defs
     id="defs107">
    <clipPath
       id="p8bcb091239">
      <rect
         x="57.6"
         y="41.472"
         width="357.12"
         height="266.112"
         id="rect107" />
    </clipPath>
  </defs>
  <rect
     style="mix-blend-mode:normal;fill:url(#linearGradient128);fill-rule:nonzero;stroke-width:0.75;stroke-linecap:butt;stroke-linejoin:round"
     id="rect117"
     width="3.1293948"
     height="267.87662"
     x="420"
     y="40"
     ry="0" />
</svg>
