<?xml version="1.0" encoding="UTF-8" standalone="no"?>
<!-- Created with matplotlib (https://matplotlib.org/) -->

<svg
   height="288pt"
   version="1.1"
   viewBox="0 0 432 288"
   width="432pt"
   id="svg161"
   sodipodi:docname="undirect_opt_workloop.svg"
   inkscape:version="1.3.2 (091e20e, 2023-11-25, custom)"
   xmlns:inkscape="http://www.inkscape.org/namespaces/inkscape"
   xmlns:sodipodi="http://sodipodi.sourceforge.net/DTD/sodipodi-0.dtd"
   xmlns:xlink="http://www.w3.org/1999/xlink"
   xmlns="http://www.w3.org/2000/svg"
   xmlns:svg="http://www.w3.org/2000/svg"
   xmlns:rdf="http://www.w3.org/1999/02/22-rdf-syntax-ns#"
   xmlns:cc="http://creativecommons.org/ns#"
   xmlns:dc="http://purl.org/dc/elements/1.1/">
  <sodipodi:namedview
     id="namedview161"
     pagecolor="#ffffff"
     bordercolor="#999999"
     borderopacity="1"
     inkscape:showpageshadow="2"
     inkscape:pageopacity="0"
     inkscape:pagecheckerboard="0"
     inkscape:deskcolor="#d1d1d1"
     inkscape:document-units="pt"
     inkscape:zoom="2.1171875"
     inkscape:cx="287.88192"
     inkscape:cy="192"
     inkscape:window-width="1920"
     inkscape:window-height="1009"
     inkscape:window-x="-8"
     inkscape:window-y="-8"
     inkscape:window-maximized="1"
     inkscape:current-layer="svg161" />
  <metadata
     id="metadata1">
    <rdf:RDF>
      <cc:Work>
        <dc:type
           rdf:resource="http://purl.org/dc/dcmitype/StillImage" />
        <dc:date>2024-04-09T06:04:05.106987</dc:date>
        <dc:format>image/svg+xml</dc:format>
        <dc:creator>
          <cc:Agent>
            <dc:title>Matplotlib v3.3.4, https://matplotlib.org/</dc:title>
          </cc:Agent>
        </dc:creator>
      </cc:Work>
    </rdf:RDF>
  </metadata>
  <defs
     id="defs1">
    <rect
       x="505.85978"
       y="321.65314"
       width="44.398524"
       height="16.059041"
       id="rect169" />
    <style
       type="text/css"
       id="style1">*{stroke-linecap:butt;stroke-linejoin:round;}</style>
  </defs>
  <g
     id="figure_1">
    <g
       id="patch_1">
      <path
         d="M 0 288  L 432 288  L 432 0  L 0 0  z "
         style="fill:none;"
         id="path1" />
    </g>
    <g
       id="axes_1">
      <g
         id="patch_2">
        <path
           d="M 54 252  L 388.8 252  L 388.8 34.56  L 54 34.56  z "
           style="fill:#ffffff;"
           id="path2" />
      </g>
      <g
         id="matplotlib.axis_1">
        <g
           id="xtick_1">
          <g
             id="line2d_1">
            <defs
               id="defs2">
              <path
                 d="M 0 0  L 0 3.5  "
                 id="m8febf190e1"
                 style="stroke:#000000;stroke-width:0.8;" />
            </defs>
            <g
               id="g2">
              <use
                 style="stroke:#000000;stroke-width:0.8;"
                 x="69.2178"
                 xlink:href="#m8febf190e1"
                 y="252"
                 id="use2" />
            </g>
          </g>
          <g
             id="text_1">
            <!-- −1.00 -->
            <g
               transform="translate(53.895144 266.598437)scale(0.1 -0.1)"
               id="g7">
              <defs
                 id="defs3">
                <path
                   d="M 10.59375 35.5  L 73.1875 35.5  L 73.1875 27.203125  L 10.59375 27.203125  z "
                   id="DejaVuSans-8722" />
                <path
                   d="M 12.40625 8.296875  L 28.515625 8.296875  L 28.515625 63.921875  L 10.984375 60.40625  L 10.984375 69.390625  L 28.421875 72.90625  L 38.28125 72.90625  L 38.28125 8.296875  L 54.390625 8.296875  L 54.390625 0  L 12.40625 0  z "
                   id="DejaVuSans-49" />
                <path
                   d="M 10.6875 12.40625  L 21 12.40625  L 21 0  L 10.6875 0  z "
                   id="DejaVuSans-46" />
                <path
                   d="M 31.78125 66.40625  Q 24.171875 66.40625 20.328125 58.90625  Q 16.5 51.421875 16.5 36.375  Q 16.5 21.390625 20.328125 13.890625  Q 24.171875 6.390625 31.78125 6.390625  Q 39.453125 6.390625 43.28125 13.890625  Q 47.125 21.390625 47.125 36.375  Q 47.125 51.421875 43.28125 58.90625  Q 39.453125 66.40625 31.78125 66.40625  z M 31.78125 74.21875  Q 44.046875 74.21875 50.515625 64.515625  Q 56.984375 54.828125 56.984375 36.375  Q 56.984375 17.96875 50.515625 8.265625  Q 44.046875 -1.421875 31.78125 -1.421875  Q 19.53125 -1.421875 13.0625 8.265625  Q 6.59375 17.96875 6.59375 36.375  Q 6.59375 54.828125 13.0625 64.515625  Q 19.53125 74.21875 31.78125 74.21875  z "
                   id="DejaVuSans-48" />
              </defs>
              <use
                 xlink:href="#DejaVuSans-8722"
                 id="use3" />
              <use
                 x="83.789062"
                 xlink:href="#DejaVuSans-49"
                 id="use4" />
              <use
                 x="147.412109"
                 xlink:href="#DejaVuSans-46"
                 id="use5" />
              <use
                 x="179.199219"
                 xlink:href="#DejaVuSans-48"
                 id="use6" />
              <use
                 x="242.822266"
                 xlink:href="#DejaVuSans-48"
                 id="use7" />
            </g>
          </g>
        </g>
        <g
           id="xtick_2">
          <g
             id="line2d_2">
            <g
               id="g8">
              <use
                 style="stroke:#000000;stroke-width:0.8;"
                 x="107.263247"
                 xlink:href="#m8febf190e1"
                 y="252"
                 id="use8" />
            </g>
          </g>
          <g
             id="text_2">
            <!-- −0.75 -->
            <g
               transform="translate(91.940591 266.598437)scale(0.1 -0.1)"
               id="g13">
              <defs
                 id="defs8">
                <path
                   d="M 8.203125 72.90625  L 55.078125 72.90625  L 55.078125 68.703125  L 28.609375 0  L 18.3125 0  L 43.21875 64.59375  L 8.203125 64.59375  z "
                   id="DejaVuSans-55" />
                <path
                   d="M 10.796875 72.90625  L 49.515625 72.90625  L 49.515625 64.59375  L 19.828125 64.59375  L 19.828125 46.734375  Q 21.96875 47.46875 24.109375 47.828125  Q 26.265625 48.1875 28.421875 48.1875  Q 40.625 48.1875 47.75 41.5  Q 54.890625 34.8125 54.890625 23.390625  Q 54.890625 11.625 47.5625 5.09375  Q 40.234375 -1.421875 26.90625 -1.421875  Q 22.3125 -1.421875 17.546875 -0.640625  Q 12.796875 0.140625 7.71875 1.703125  L 7.71875 11.625  Q 12.109375 9.234375 16.796875 8.0625  Q 21.484375 6.890625 26.703125 6.890625  Q 35.15625 6.890625 40.078125 11.328125  Q 45.015625 15.765625 45.015625 23.390625  Q 45.015625 31 40.078125 35.4375  Q 35.15625 39.890625 26.703125 39.890625  Q 22.75 39.890625 18.8125 39.015625  Q 14.890625 38.140625 10.796875 36.28125  z "
                   id="DejaVuSans-53" />
              </defs>
              <use
                 xlink:href="#DejaVuSans-8722"
                 id="use9" />
              <use
                 x="83.789062"
                 xlink:href="#DejaVuSans-48"
                 id="use10" />
              <use
                 x="147.412109"
                 xlink:href="#DejaVuSans-46"
                 id="use11" />
              <use
                 x="179.199219"
                 xlink:href="#DejaVuSans-55"
                 id="use12" />
              <use
                 x="242.822266"
                 xlink:href="#DejaVuSans-53"
                 id="use13" />
            </g>
          </g>
        </g>
        <g
           id="xtick_3">
          <g
             id="line2d_3">
            <g
               id="g14">
              <use
                 style="stroke:#000000;stroke-width:0.8;"
                 x="145.308693"
                 xlink:href="#m8febf190e1"
                 y="252"
                 id="use14" />
            </g>
          </g>
          <g
             id="text_3">
            <!-- −0.50 -->
            <g
               transform="translate(129.986037 266.598437)scale(0.1 -0.1)"
               id="g19">
              <use
                 xlink:href="#DejaVuSans-8722"
                 id="use15" />
              <use
                 x="83.789062"
                 xlink:href="#DejaVuSans-48"
                 id="use16" />
              <use
                 x="147.412109"
                 xlink:href="#DejaVuSans-46"
                 id="use17" />
              <use
                 x="179.199219"
                 xlink:href="#DejaVuSans-53"
                 id="use18" />
              <use
                 x="242.822266"
                 xlink:href="#DejaVuSans-48"
                 id="use19" />
            </g>
          </g>
        </g>
        <g
           id="xtick_4">
          <g
             id="line2d_4">
            <g
               id="g20">
              <use
                 style="stroke:#000000;stroke-width:0.8;"
                 x="183.35414"
                 xlink:href="#m8febf190e1"
                 y="252"
                 id="use20" />
            </g>
          </g>
          <g
             id="text_4">
            <!-- −0.25 -->
            <g
               transform="translate(168.031483 266.598437)scale(0.1 -0.1)"
               id="g25">
              <defs
                 id="defs20">
                <path
                   d="M 19.1875 8.296875  L 53.609375 8.296875  L 53.609375 0  L 7.328125 0  L 7.328125 8.296875  Q 12.9375 14.109375 22.625 23.890625  Q 32.328125 33.6875 34.8125 36.53125  Q 39.546875 41.84375 41.421875 45.53125  Q 43.3125 49.21875 43.3125 52.78125  Q 43.3125 58.59375 39.234375 62.25  Q 35.15625 65.921875 28.609375 65.921875  Q 23.96875 65.921875 18.8125 64.3125  Q 13.671875 62.703125 7.8125 59.421875  L 7.8125 69.390625  Q 13.765625 71.78125 18.9375 73  Q 24.125 74.21875 28.421875 74.21875  Q 39.75 74.21875 46.484375 68.546875  Q 53.21875 62.890625 53.21875 53.421875  Q 53.21875 48.921875 51.53125 44.890625  Q 49.859375 40.875 45.40625 35.40625  Q 44.1875 33.984375 37.640625 27.21875  Q 31.109375 20.453125 19.1875 8.296875  z "
                   id="DejaVuSans-50" />
              </defs>
              <use
                 xlink:href="#DejaVuSans-8722"
                 id="use21" />
              <use
                 x="83.789062"
                 xlink:href="#DejaVuSans-48"
                 id="use22" />
              <use
                 x="147.412109"
                 xlink:href="#DejaVuSans-46"
                 id="use23" />
              <use
                 x="179.199219"
                 xlink:href="#DejaVuSans-50"
                 id="use24" />
              <use
                 x="242.822266"
                 xlink:href="#DejaVuSans-53"
                 id="use25" />
            </g>
          </g>
        </g>
        <g
           id="xtick_5">
          <g
             id="line2d_5">
            <g
               id="g26">
              <use
                 style="stroke:#000000;stroke-width:0.8;"
                 x="221.399586"
                 xlink:href="#m8febf190e1"
                 y="252"
                 id="use26" />
            </g>
          </g>
          <g
             id="text_5">
            <!-- 0.00 -->
            <g
               transform="translate(210.266774 266.598437)scale(0.1 -0.1)"
               id="g30">
              <use
                 xlink:href="#DejaVuSans-48"
                 id="use27" />
              <use
                 x="63.623047"
                 xlink:href="#DejaVuSans-46"
                 id="use28" />
              <use
                 x="95.410156"
                 xlink:href="#DejaVuSans-48"
                 id="use29" />
              <use
                 x="159.033203"
                 xlink:href="#DejaVuSans-48"
                 id="use30" />
            </g>
          </g>
        </g>
        <g
           id="xtick_6">
          <g
             id="line2d_6">
            <g
               id="g31">
              <use
                 style="stroke:#000000;stroke-width:0.8;"
                 x="259.445033"
                 xlink:href="#m8febf190e1"
                 y="252"
                 id="use31" />
            </g>
          </g>
          <g
             id="text_6">
            <!-- 0.25 -->
            <g
               transform="translate(248.31222 266.598437)scale(0.1 -0.1)"
               id="g35">
              <use
                 xlink:href="#DejaVuSans-48"
                 id="use32" />
              <use
                 x="63.623047"
                 xlink:href="#DejaVuSans-46"
                 id="use33" />
              <use
                 x="95.410156"
                 xlink:href="#DejaVuSans-50"
                 id="use34" />
              <use
                 x="159.033203"
                 xlink:href="#DejaVuSans-53"
                 id="use35" />
            </g>
          </g>
        </g>
        <g
           id="xtick_7">
          <g
             id="line2d_7">
            <g
               id="g36">
              <use
                 style="stroke:#000000;stroke-width:0.8;"
                 x="297.490479"
                 xlink:href="#m8febf190e1"
                 y="252"
                 id="use36" />
            </g>
          </g>
          <g
             id="text_7">
            <!-- 0.50 -->
            <g
               transform="translate(286.357666 266.598437)scale(0.1 -0.1)"
               id="g40">
              <use
                 xlink:href="#DejaVuSans-48"
                 id="use37" />
              <use
                 x="63.623047"
                 xlink:href="#DejaVuSans-46"
                 id="use38" />
              <use
                 x="95.410156"
                 xlink:href="#DejaVuSans-53"
                 id="use39" />
              <use
                 x="159.033203"
                 xlink:href="#DejaVuSans-48"
                 id="use40" />
            </g>
          </g>
        </g>
        <g
           id="xtick_8">
          <g
             id="line2d_8">
            <g
               id="g41">
              <use
                 style="stroke:#000000;stroke-width:0.8;"
                 x="335.535925"
                 xlink:href="#m8febf190e1"
                 y="252"
                 id="use41" />
            </g>
          </g>
          <g
             id="text_8">
            <!-- 0.75 -->
            <g
               transform="translate(324.403113 266.598437)scale(0.1 -0.1)"
               id="g45">
              <use
                 xlink:href="#DejaVuSans-48"
                 id="use42" />
              <use
                 x="63.623047"
                 xlink:href="#DejaVuSans-46"
                 id="use43" />
              <use
                 x="95.410156"
                 xlink:href="#DejaVuSans-55"
                 id="use44" />
              <use
                 x="159.033203"
                 xlink:href="#DejaVuSans-53"
                 id="use45" />
            </g>
          </g>
        </g>
        <g
           id="xtick_9">
          <g
             id="line2d_9">
            <g
               id="g46">
              <use
                 style="stroke:#000000;stroke-width:0.8;"
                 x="373.581372"
                 xlink:href="#m8febf190e1"
                 y="252"
                 id="use46" />
            </g>
          </g>
          <g
             id="text_9">
            <!-- 1.00 -->
            <g
               transform="translate(362.448559 266.598437)scale(0.1 -0.1)"
               id="g50">
              <use
                 xlink:href="#DejaVuSans-49"
                 id="use47" />
              <use
                 x="63.623047"
                 xlink:href="#DejaVuSans-46"
                 id="use48" />
              <use
                 x="95.410156"
                 xlink:href="#DejaVuSans-48"
                 id="use49" />
              <use
                 x="159.033203"
                 xlink:href="#DejaVuSans-48"
                 id="use50" />
            </g>
          </g>
        </g>
      </g>
      <g
         id="matplotlib.axis_2">
        <g
           id="ytick_1">
          <g
             id="line2d_10">
            <defs
               id="defs50">
              <path
                 d="M 0 0  L -3.5 0  "
                 id="m15215489c5"
                 style="stroke:#000000;stroke-width:0.8;" />
            </defs>
            <g
               id="g51">
              <use
                 style="stroke:#000000;stroke-width:0.8;"
                 x="54"
                 xlink:href="#m15215489c5"
                 y="228.252769"
                 id="use51" />
            </g>
          </g>
          <g
             id="text_10">
            <!-- −1.5 -->
            <g
               transform="translate(22.717187 232.051988)scale(0.1 -0.1)"
               id="g55">
              <use
                 xlink:href="#DejaVuSans-8722"
                 id="use52" />
              <use
                 x="83.789062"
                 xlink:href="#DejaVuSans-49"
                 id="use53" />
              <use
                 x="147.412109"
                 xlink:href="#DejaVuSans-46"
                 id="use54" />
              <use
                 x="179.199219"
                 xlink:href="#DejaVuSans-53"
                 id="use55" />
            </g>
          </g>
        </g>
        <g
           id="ytick_2">
          <g
             id="line2d_11">
            <g
               id="g56">
              <use
                 style="stroke:#000000;stroke-width:0.8;"
                 x="54"
                 xlink:href="#m15215489c5"
                 y="199.928873"
                 id="use56" />
            </g>
          </g>
          <g
             id="text_11">
            <!-- −1.0 -->
            <g
               transform="translate(22.717187 203.728092)scale(0.1 -0.1)"
               id="g60">
              <use
                 xlink:href="#DejaVuSans-8722"
                 id="use57" />
              <use
                 x="83.789062"
                 xlink:href="#DejaVuSans-49"
                 id="use58" />
              <use
                 x="147.412109"
                 xlink:href="#DejaVuSans-46"
                 id="use59" />
              <use
                 x="179.199219"
                 xlink:href="#DejaVuSans-48"
                 id="use60" />
            </g>
          </g>
        </g>
        <g
           id="ytick_3">
          <g
             id="line2d_12">
            <g
               id="g61">
              <use
                 style="stroke:#000000;stroke-width:0.8;"
                 x="54"
                 xlink:href="#m15215489c5"
                 y="171.604977"
                 id="use61" />
            </g>
          </g>
          <g
             id="text_12">
            <!-- −0.5 -->
            <g
               transform="translate(22.717187 175.404196)scale(0.1 -0.1)"
               id="g65">
              <use
                 xlink:href="#DejaVuSans-8722"
                 id="use62" />
              <use
                 x="83.789062"
                 xlink:href="#DejaVuSans-48"
                 id="use63" />
              <use
                 x="147.412109"
                 xlink:href="#DejaVuSans-46"
                 id="use64" />
              <use
                 x="179.199219"
                 xlink:href="#DejaVuSans-53"
                 id="use65" />
            </g>
          </g>
        </g>
        <g
           id="ytick_4">
          <g
             id="line2d_13">
            <g
               id="g66">
              <use
                 style="stroke:#000000;stroke-width:0.8;"
                 x="54"
                 xlink:href="#m15215489c5"
                 y="143.281081"
                 id="use66" />
            </g>
          </g>
          <g
             id="text_13">
            <!-- 0.0 -->
            <g
               transform="translate(31.096875 147.0803)scale(0.1 -0.1)"
               id="g69">
              <use
                 xlink:href="#DejaVuSans-48"
                 id="use67" />
              <use
                 x="63.623047"
                 xlink:href="#DejaVuSans-46"
                 id="use68" />
              <use
                 x="95.410156"
                 xlink:href="#DejaVuSans-48"
                 id="use69" />
            </g>
          </g>
        </g>
        <g
           id="ytick_5">
          <g
             id="line2d_14">
            <g
               id="g70">
              <use
                 style="stroke:#000000;stroke-width:0.8;"
                 x="54"
                 xlink:href="#m15215489c5"
                 y="114.957185"
                 id="use70" />
            </g>
          </g>
          <g
             id="text_14">
            <!-- 0.5 -->
            <g
               transform="translate(31.096875 118.756404)scale(0.1 -0.1)"
               id="g73">
              <use
                 xlink:href="#DejaVuSans-48"
                 id="use71" />
              <use
                 x="63.623047"
                 xlink:href="#DejaVuSans-46"
                 id="use72" />
              <use
                 x="95.410156"
                 xlink:href="#DejaVuSans-53"
                 id="use73" />
            </g>
          </g>
        </g>
        <g
           id="ytick_6">
          <g
             id="line2d_15">
            <g
               id="g74">
              <use
                 style="stroke:#000000;stroke-width:0.8;"
                 x="54"
                 xlink:href="#m15215489c5"
                 y="86.633289"
                 id="use74" />
            </g>
          </g>
          <g
             id="text_15">
            <!-- 1.0 -->
            <g
               transform="translate(31.096875 90.432508)scale(0.1 -0.1)"
               id="g77">
              <use
                 xlink:href="#DejaVuSans-49"
                 id="use75" />
              <use
                 x="63.623047"
                 xlink:href="#DejaVuSans-46"
                 id="use76" />
              <use
                 x="95.410156"
                 xlink:href="#DejaVuSans-48"
                 id="use77" />
            </g>
          </g>
        </g>
        <g
           id="ytick_7">
          <g
             id="line2d_16">
            <g
               id="g78">
              <use
                 style="stroke:#000000;stroke-width:0.8;"
                 x="54"
                 xlink:href="#m15215489c5"
                 y="58.309393"
                 id="use78" />
            </g>
          </g>
          <g
             id="text_16">
            <!-- 1.5 -->
            <g
               transform="translate(31.096875 62.108612)scale(0.1 -0.1)"
               id="g81">
              <use
                 xlink:href="#DejaVuSans-49"
                 id="use79" />
              <use
                 x="63.623047"
                 xlink:href="#DejaVuSans-46"
                 id="use80" />
              <use
                 x="95.410156"
                 xlink:href="#DejaVuSans-53"
                 id="use81" />
            </g>
          </g>
        </g>
      </g>
      <g
         id="line2d_17">
        <path
           clip-path="url(#p335128c8fa)"
           d="M 334.705724 113.879612  L 334.819695 112.271626  L 335.073881 111.343652  L 335.470228 110.746291  L 335.858374 110.520374  L 336.321954 110.487769  L 336.858261 110.650216  L 337.68098 111.171662  L 338.618758 112.041198  L 339.937638 113.613124  L 341.398942 115.713326  L 343.305849 118.906408  L 345.33572 122.794935  L 347.437748 127.327682  L 349.557894 132.44372  L 351.639779 138.073737  L 353.6256 144.141487  L 355.457052 150.565319  L 356.823543 156.12893  L 358.00976 161.829769  L 358.983827 167.616643  L 359.715163 173.438496  L 360.105934 178.087294  L 360.308797 182.701005  L 360.310628 187.255073  L 360.099236 191.725759  L 359.663432 196.090276  L 358.993092 200.326909  L 358.079208 204.415119  L 356.913932 208.335626  L 355.870952 211.155106  L 354.680445 213.863072  L 353.340449 216.452916  L 351.849399 218.918487  L 350.206131 221.254096  L 348.409878 223.454522  L 346.460272 225.515007  L 344.357344 227.431257  L 342.101519 229.199439  L 339.693612 230.816174  L 337.134821 232.278528  L 334.426728 233.584007  L 331.571281 234.730541  L 328.570795 235.716481  L 325.42794 236.540578  L 322.145729 237.201978  L 318.72751 237.700202  L 315.176956 238.035138  L 311.498049 238.207023  L 306.400626 238.183608  L 301.09361 237.873635  L 295.588791 237.280321  L 289.898755 236.407798  L 284.036822 235.261063  L 278.016988 233.845938  L 271.853859 232.169022  L 265.562596 230.237668  L 259.158846 228.059943  L 252.658682 225.644614  L 246.07854 223.001123  L 237.766411 219.39137  L 229.388662 215.462135  L 220.978855 211.236185  L 212.570737 206.73786  L 204.198045 201.993079  L 195.89431 197.029331  L 187.692667 191.875673  L 179.625656 186.562704  L 171.72503 181.122533  L 164.021564 175.588717  L 155.079235 168.873784  L 146.511885 162.13703  L 138.364731 155.443317  L 130.679237 148.859182  L 122.345774 141.406387  L 114.742376 134.30251  L 106.999848 126.747471  L 99.55067 119.149273  L 92.308555 111.44047  L 83.206511 101.700182  L 82.594945 101.330136  L 82.477353 101.416835  L 82.505 101.812209  L 82.916319 102.99498  L 84.273915 106.042601  L 92.714979 124.410588  L 96.242635 132.734921  L 99.328188 140.532142  L 102.147213 148.269313  L 104.303604 154.822125  L 106.035218 160.829123  L 107.144453 165.468119  L 107.764907 168.881753  L 108.064927 171.699462  L 108.064927 173.54742  L 107.837444 174.908731  L 107.494006 175.631193  L 107.144453 175.952852  L 106.718279 176.082382  L 106.217969 176.017627  L 105.440686 175.626901  L 104.544965 174.887711  L 103.2732 173.476707  L 101.852166 171.533462  L 100.305595 169.073294  L 98.320999 165.468911  L 96.242635 161.197713  L 94.1233 156.316739  L 92.018509 150.891977  L 89.985584 144.996968  L 88.082732 138.711299  L 86.638375 133.23538  L 85.357967 127.59677  L 84.273915 121.846509  L 83.417484 116.035795  L 82.81849 110.215398  L 82.543576 105.585612  L 82.464878 101.006349  L 82.594945 96.501671  L 82.945349 92.094736  L 83.526621 87.807674  L 84.348193 83.661476  L 85.418353 79.675905  L 86.388427 76.803287  L 87.504901 74.03871  L 88.769932 71.389007  L 90.185284 68.86056  L 91.752322 66.459288  L 93.472012 64.190647  L 95.344921 62.059626  L 97.371216 60.070751  L 99.55067 58.228083  L 101.882663 56.53523  L 104.366185 54.995347  L 106.999848 53.611146  L 109.781885 52.384907  L 112.710163 51.318489  L 115.782189 50.41334  L 118.99512 49.670508  L 122.345774 49.09066  L 125.830639 48.674088  L 129.445887 48.420729  L 133.187381 48.330174  L 138.364731 48.461365  L 143.747349 48.878018  L 149.32314 49.576567  L 155.079235 50.552551  L 161.002056 51.800657  L 167.077368 53.314768  L 173.290352 55.087998  L 179.625656 57.112725  L 186.067465 59.380615  L 192.599564 61.882648  L 199.205397 64.609128  L 207.540718 68.317022  L 215.93162 72.337734  L 224.344467 76.648024  L 232.745494 81.223079  L 241.101006 86.036508  L 249.377569 91.06035  L 257.542207 96.265085  L 265.562596 101.619653  L 273.407255 107.091505  L 282.546106 113.764607  L 291.337912 120.496385  L 299.73547 127.223196  L 307.695074 133.879414  L 315.176956 140.397978  L 323.255084 147.738505  L 330.58711 154.691838  L 338.004426 162.029229  L 345.075338 169.327799  L 352.860282 177.705702  L 359.183177 184.493968  L 360.099236 185.207518  L 360.310628 185.172315  L 360.328594 184.935487  L 360.105934 184.14492  L 359.150464 181.880443  L 355.164998 173.366716  L 350.607209 163.343124  L 346.732334 154.255357  L 343.636948 146.46477  L 340.798842 138.715323  L 338.618758 132.135925  L 336.858261 126.088321  L 335.720489 121.403219  L 335.073881 117.943047  L 334.746789 115.073168  L 334.705724 113.879612  L 334.705724 113.879612  "
           style="fill:none;stroke:#cba74e;stroke-dasharray:14.8,6.4;stroke-dashoffset:0;stroke-opacity:0.7;stroke-width:4;"
           id="path81" />
      </g>
      <g
         id="line2d_18">
        <path
           clip-path="url(#p335128c8fa)"
           d="M 334.705724 185.457893  L 360.335626 194.998308  L 82.464878 91.56435  L 334.705724 185.457893  "
           style="fill:none;stroke:#cba74e;stroke-dasharray:14.8,6.4;stroke-dashoffset:0;stroke-width:4;"
           id="path82" />
      </g>
      <g
         id="line2d_19">
        <path
           clip-path="url(#p335128c8fa)"
           d="M 373.581818 195.917027  L 373.453302 196.660891  L 373.150139 197.147639  L 372.669446 197.512694  L 372.012312 197.756052  L 370.992968 197.888315  L 369.48979 197.825183  L 367.366068 197.473278  L 364.474043 196.735212  L 360.660471 195.517248  L 355.295269 193.557767  L 346.342781 190.011987  L 326.574258 182.123146  L 317.223414 178.652309  L 308.930061 175.796981  L 301.137738 173.333459  L 293.145076 171.044357  L 285.810062 169.16282  L 278.365358 167.468218  L 270.831924 165.968042  L 262.37963 164.5262  L 253.861985 163.30442  L 244.438586 162.177255  L 232.393454 160.979119  L 202.227374 158.122127  L 192.786514 156.935674  L 185.097392 155.761286  L 177.452778 154.364771  L 170.706325 152.913788  L 164.01771 151.250387  L 157.400033 149.365977  L 150.868014 147.257954  L 144.437985 144.929738  L 138.127827 142.39063  L 131.956855 139.655501  L 125.945663 136.744325  L 120.115924 133.681594  L 114.490163 130.495634  L 108.433786 126.803339  L 102.698162 123.043044  L 97.316588 119.265166  L 91.792048 115.10932  L 86.788136 111.064894  L 82.345422 107.199182  L 78.501032 103.575349  L 75.287894 100.251079  L 72.959097 97.557776  L 71.181144 95.180826  L 70.073696 93.355493  L 69.475208 91.993037  L 69.239671 91.006075  L 69.261093 90.190119  L 69.475208 89.642708  L 69.867248 89.21677  L 70.436322 88.9126  L 71.351056 88.707876  L 72.515877 88.676411  L 74.185853 88.854786  L 76.495487 89.333894  L 79.589478 90.207314  L 84.052702 91.719756  L 90.234304 94.062929  L 102.698162 99.080405  L 115.876224 104.305154  L 125.206567 107.777564  L 133.485443 110.638221  L 141.266747 113.109324  L 149.250272 115.408089  L 156.578526 117.299602  L 164.01771 119.004874  L 171.54672 120.515884  L 179.99521 121.969296  L 188.510046 123.201455  L 197.931304 124.337862  L 209.974888 125.543326  L 241.861342 128.588166  L 251.296734 129.808232  L 258.979328 131.017337  L 266.615208 132.453854  L 273.351741 133.943742  L 280.028102 135.648106  L 286.630889 137.574427  L 293.145076 139.724177  L 299.554036 142.092817  L 305.839609 144.669973  L 311.982227 147.439777  L 317.961076 150.38136  L 323.754306 153.469458  L 330.021586 157.082517  L 335.992218 160.798652  L 341.632818 164.568952  L 346.910203 168.342613  L 352.308547 172.477079  L 357.175842 176.483  L 361.472304 180.29397  L 365.161788 183.848081  L 368.212525 187.089194  L 370.389829 189.697634  L 372.012312 191.98169  L 372.979113 193.718922  L 373.453302 195.000924  L 373.581818 195.917027  L 373.581818 195.917027  "
           style="fill:none;stroke:#234175;stroke-linecap:square;stroke-opacity:0.7;stroke-width:1.5;"
           id="path83" />
      </g>
      <g
         id="line2d_20">
        <path
           clip-path="url(#p335128c8fa)"
           d="M 373.581818 199.929039  L 69.218247 86.633455  L 373.581818 199.929039  "
           style="fill:none;stroke:#234175;stroke-linecap:square;stroke-width:1.5;"
           id="path84" />
      </g>
      <g
         id="line2d_21">
        <path
           clip-path="url(#p335128c8fa)"
           d="M 373.581753 198.994446  L 373.471962 199.737117  L 373.21313 200.122407  L 372.803183 200.301678  L 372.243646 200.286292  L 371.377633 200.034006  L 369.690022 199.255613  L 363.380589 196.138518  L 360.929853 195.211357  L 358.248522 194.442012  L 355.773064 193.961966  L 353.138813 193.685809  L 350.349376 193.639956  L 347.407402 193.840052  L 344.314541 194.290102  L 341.071441 194.982023  L 337.097488 196.067378  L 331.683712 197.819492  L 316.961447 202.755387  L 312.56658 203.95366  L 308.004598 204.955656  L 304.074374 205.590451  L 300.027067 206.002485  L 296.705199 206.147992  L 293.309216 206.112117  L 289.839975 205.880448  L 286.298662 205.440648  L 282.686815 204.782668  L 279.006335 203.898921  L 275.259497 202.784425  L 271.44895 201.436904  L 267.577725 199.856852  L 263.649223 198.047555  L 258.663817 195.473055  L 253.602937 192.567811  L 248.475484 189.35591  L 243.291076 185.867279  L 237.009063 181.365486  L 229.620005 175.766837  L 220.072578 168.209899  L 196.909399 149.697318  L 189.706139 144.273409  L 183.633278 139.951622  L 177.67028 135.989754  L 172.794995 132.994214  L 168.012568 130.296201  L 163.329098 127.906991  L 158.749761 125.831185  L 154.278819 124.066726  L 149.919626 122.605064  L 145.674673 121.431478  L 141.545633 120.52553  L 137.533433 119.861659  L 132.873339 119.342068  L 128.38119 119.069153  L 123.350446 118.977145  L 115.242069 119.091928  L 108.365433 119.116047  L 104.258798 118.919301  L 100.90287 118.54992  L 97.697323 117.957034  L 95.140826 117.273981  L 92.689164 116.410084  L 90.34329 115.362901  L 88.104643 114.135714  L 85.975132 112.737357  L 83.957104 111.181901  L 81.686513 109.134852  L 79.585793 106.929487  L 77.660844 104.613393  L 75.645556 101.841876  L 73.658658 98.691722  L 72.023128 95.687637  L 70.619634 92.638271  L 69.693218 90.085306  L 69.279189 88.325891  L 69.236487 87.22087  L 69.437663 86.606136  L 69.772209 86.32496  L 70.257174 86.244749  L 71.035141 86.393968  L 72.398311 86.954149  L 75.917904 88.774331  L 78.92431 90.212074  L 81.686513 91.288903  L 84.351665 92.072007  L 86.813699 92.567543  L 89.434867 92.86184  L 92.211487 92.927638  L 95.140826 92.748355  L 98.221152 92.318994  L 101.451733 91.646624  L 105.411001 90.58131  L 110.18914 89.0571  L 126.920875 83.492698  L 131.357357 82.336836  L 135.182328 81.534069  L 139.124262 80.919877  L 143.183264 80.532109  L 146.514432 80.408421  L 149.919626 80.468022  L 153.397948 80.725078  L 156.948169 81.19165  L 160.568707 81.877488  L 164.257613 82.789861  L 168.012568 83.933417  L 171.830873 85.310088  L 175.709451 86.919033  L 179.644856 88.756615  L 184.638188 91.365097  L 189.706139 94.302191  L 194.839731 97.543203  L 200.02928 101.057654  L 206.316067 105.585405  L 213.708675 111.206553  L 223.257356 118.778964  L 245.371031 136.464159  L 252.582474 141.913983  L 258.663817 146.263462  L 264.636518 150.25712  L 269.520718 153.281539  L 274.312721 156.009922  L 279.006335 158.43033  L 283.596292 160.537492  L 288.07824 162.332806  L 292.448733 163.824184  L 296.705199 165.025749  L 300.845883 165.957389  L 304.869789 166.644186  L 309.543922 167.187065  L 314.050018 167.478155  L 319.096822 167.584443  L 326.578596 167.489163  L 334.132458 167.439981  L 338.253901 167.621121  L 341.622393 167.973347  L 344.840456 168.546503  L 347.407402 169.211828  L 349.869583 170.057435  L 352.226093 171.086344  L 354.475541 172.295838  L 356.616064 173.677628  L 358.645358 175.218148  L 360.929853 177.250065  L 363.044948 179.44397  L 364.98478 181.752793  L 367.018098 184.521581  L 369.02648 187.676472  L 370.684379 190.693488  L 372.113958 193.766245  L 373.067212 196.35019  L 373.505498 198.141524  L 373.581753 198.994446  L 373.581753 198.994446  "
           style="fill:none;stroke:#234175;stroke-linecap:square;stroke-opacity:0.7;stroke-width:1.5;"
           id="path85" />
      </g>
      <g
         id="line2d_22">
        <path
           clip-path="url(#p335128c8fa)"
           d="M 373.581753 199.929015  L 69.218182 86.633431  L 373.581753 199.929015  "
           style="fill:none;stroke:#234175;stroke-linecap:square;stroke-width:1.5;"
           id="path86" />
      </g>
      <g
         id="line2d_23">
        <path
           clip-path="url(#p335128c8fa)"
           d="M 373.581777 199.460175  L 373.465269 201.102029  L 373.190936 202.041831  L 372.856717 202.517676  L 372.422013 202.75716  L 371.888653 202.773003  L 371.086589 202.504072  L 369.932263 201.812518  L 367.829252 200.202322  L 364.073041 197.297574  L 361.734318 195.799172  L 359.940751 194.886324  L 358.050871 194.173383  L 356.47282 193.784165  L 354.83819 193.583365  L 353.14862 193.592854  L 351.405328 193.830833  L 349.609087 194.311471  L 347.760211 195.044605  L 345.858548 196.035508  L 343.90348 197.284727  L 341.382864 199.202559  L 338.774033 201.498108  L 335.521242 204.70777  L 331.546784 208.98487  L 317.612921 224.329116  L 314.100451 227.762315  L 310.446595 231.001615  L 307.418178 233.398275  L 304.29367 235.577634  L 301.071268 237.50085  L 298.589424 238.75316  L 296.051433 239.826577  L 293.457146 240.707903  L 290.806609 241.385134  L 288.100083 241.847568  L 285.33804 242.085901  L 282.521178 242.092312  L 279.650421 241.860539  L 276.726922 241.385936  L 273.752064 240.665524  L 270.727459 239.698021  L 267.654947 238.483866  L 264.536589 237.025219  L 261.374664 235.325957  L 258.171658 233.391647  L 254.930258 231.229509  L 250.553664 228.007731  L 246.121243 224.421918  L 241.640791 220.501716  L 237.120538 216.28089  L 231.427368 210.639409  L 225.70284 204.666704  L 218.817146 197.18324  L 208.5202 185.636671  L 193.901533 169.252505  L 186.24359 161.043917  L 180.894599 155.598068  L 175.660827 150.573597  L 170.553302 146.024161  L 166.564534 142.755459  L 162.666595 139.834147  L 158.862763 137.271127  L 155.155591 135.072032  L 151.546909 133.237207  L 148.037844 131.76177  L 144.628841 130.635753  L 141.319701 129.844312  L 138.109618 129.368018  L 134.997229 129.183209  L 131.980674 129.262408  L 129.057652 129.574794  L 126.225488 130.086722  L 122.808494 130.952358  L 118.880437 132.224541  L 113.916538 134.101214  L 107.555254 136.496989  L 104.291021 137.477208  L 101.673163 138.019878  L 99.642816 138.238106  L 97.667468 138.24123  L 95.745876 138.012268  L 93.877248 137.538638  L 92.061257 136.812314  L 90.298042 135.829905  L 88.588207 134.592661  L 86.932805 133.1064  L 85.33332 131.381362  L 83.791635 129.431988  L 81.949274 126.708118  L 80.205863 123.706272  L 78.567144 120.477494  L 76.747661 116.384077  L 75.099211 112.152959  L 73.407491 107.191627  L 71.981861 102.372488  L 70.69908 97.25551  L 69.805262 92.769128  L 69.354111 89.503393  L 69.218205 86.943808  L 69.354111 85.348657  L 69.644465 84.447591  L 69.991332 84.001846  L 70.438475 83.791096  L 70.984021 83.802114  L 71.800892 84.101265  L 72.972272 84.823065  L 75.099211 86.463874  L 78.88622 89.376974  L 80.890998 90.662993  L 82.674646 91.59259  L 84.55512 92.328098  L 86.125964 92.739163  L 87.753619 92.964782  L 89.436397 92.982654  L 91.173026 92.774097  L 92.962675 92.32442  L 94.804973 91.623232  L 96.700013 90.664679  L 98.648355 89.447615  L 101.160336 87.568786  L 103.760178 85.309828  L 107.001589 82.1393  L 110.961778 77.898984  L 125.5313 61.883367  L 129.057652 58.465824  L 132.725948 55.250457  L 135.766261 52.878767  L 138.902917 50.729345  L 142.137658 48.840764  L 144.628841 47.617305  L 147.176209 46.575018  L 149.779881 45.726909  L 152.439773 45.08477  L 155.155591 44.659079  L 157.926825 44.458898  L 160.752739 44.491792  L 163.632373 44.763759  L 166.564534 45.279169  L 169.547802 46.04072  L 172.580525 47.049409  L 175.660827 48.304509  L 178.78661 49.803573  L 181.95556 51.542442  L 185.165157 53.515269  L 189.50312 56.496461  L 193.901533 59.857948  L 198.352904 63.572862  L 202.849267 67.609961  L 208.5202 73.055462  L 214.231256 78.872943  L 221.112618 86.22771  L 230.284405 96.416473  L 250.553664 119.117727  L 257.095319 126.080044  L 262.43333 131.486473  L 267.654947 136.465675  L 271.741079 140.105732  L 275.740934 143.416833  L 279.650421 146.382272  L 283.466171 148.990495  L 287.18554 151.235208  L 290.806609 153.115406  L 294.328165 154.635323  L 297.749677 155.804303  L 301.071268 156.636595  L 304.29367 157.151072  L 307.418178 157.370888  L 310.446595 157.323068  L 313.38117 157.038042  L 316.224534 156.549134  L 319.654981 155.705792  L 323.598324 154.450446  L 328.581093 152.579145  L 335.521242 149.971964  L 338.774033 149.018411  L 341.382864 148.503926  L 343.406252 148.311513  L 345.374822 148.336558  L 347.28976 148.595508  L 349.1518 149.100381  L 350.961211 149.858626  L 352.717796 150.873052  L 354.420893 152.141834  L 356.069395 153.65859  L 357.661767 155.412544  L 359.196075 157.388745  L 361.028783 160.142508  L 362.761992 163.169455  L 364.389905 166.417874  L 366.195573 170.526938  L 367.829252 174.764528  L 369.502539 179.72155  L 371.086589 185.187318  L 372.297843 190.201992  L 373.116887 194.548568  L 373.500848 197.6689  L 373.581777 199.460175  L 373.581777 199.460175  "
           style="fill:none;stroke:#234175;stroke-linecap:square;stroke-opacity:0.7;stroke-width:1.5;"
           id="path87" />
      </g>
      <g
         id="line2d_24">
        <path
           clip-path="url(#p335128c8fa)"
           d="M 373.581777 199.929024  L 69.218205 86.63344  L 373.581777 199.929024  "
           style="fill:none;stroke:#234175;stroke-linecap:square;stroke-width:1.5;"
           id="path88" />
      </g>
      <g
         id="patch_3">
        <path
           d="M 54 252  L 54 34.56  "
           style="fill:none;stroke:#000000;stroke-linecap:square;stroke-linejoin:miter;stroke-width:0.8;"
           id="path89" />
      </g>
      <g
         id="patch_4">
        <path
           d="M 388.8 252  L 388.8 34.56  "
           style="fill:none;stroke:#000000;stroke-linecap:square;stroke-linejoin:miter;stroke-width:0.8;"
           id="path90" />
      </g>
      <g
         id="patch_5">
        <path
           d="M 54 252  L 388.8 252  "
           style="fill:none;stroke:#000000;stroke-linecap:square;stroke-linejoin:miter;stroke-width:0.8;"
           id="path91" />
      </g>
      <g
         id="patch_6">
        <path
           d="M 54 34.56  L 388.8 34.56  "
           style="fill:none;stroke:#000000;stroke-linecap:square;stroke-linejoin:miter;stroke-width:0.8;"
           id="path92" />
      </g>
      <g
         id="text_17">
        <!-- Work-Loop of points on the boundary -->
        <g
           style="fill:#cba74e;"
           transform="translate(183.35414 58.309393)scale(0.1 -0.1)"
           id="g126">
          <defs
             id="defs92">
            <path
               d="M 3.328125 72.90625  L 13.28125 72.90625  L 28.609375 11.28125  L 43.890625 72.90625  L 54.984375 72.90625  L 70.3125 11.28125  L 85.59375 72.90625  L 95.609375 72.90625  L 77.296875 0  L 64.890625 0  L 49.515625 63.28125  L 33.984375 0  L 21.578125 0  z "
               id="DejaVuSans-87" />
            <path
               d="M 30.609375 48.390625  Q 23.390625 48.390625 19.1875 42.75  Q 14.984375 37.109375 14.984375 27.296875  Q 14.984375 17.484375 19.15625 11.84375  Q 23.34375 6.203125 30.609375 6.203125  Q 37.796875 6.203125 41.984375 11.859375  Q 46.1875 17.53125 46.1875 27.296875  Q 46.1875 37.015625 41.984375 42.703125  Q 37.796875 48.390625 30.609375 48.390625  z M 30.609375 56  Q 42.328125 56 49.015625 48.375  Q 55.71875 40.765625 55.71875 27.296875  Q 55.71875 13.875 49.015625 6.21875  Q 42.328125 -1.421875 30.609375 -1.421875  Q 18.84375 -1.421875 12.171875 6.21875  Q 5.515625 13.875 5.515625 27.296875  Q 5.515625 40.765625 12.171875 48.375  Q 18.84375 56 30.609375 56  z "
               id="DejaVuSans-111" />
            <path
               d="M 41.109375 46.296875  Q 39.59375 47.171875 37.8125 47.578125  Q 36.03125 48 33.890625 48  Q 26.265625 48 22.1875 43.046875  Q 18.109375 38.09375 18.109375 28.8125  L 18.109375 0  L 9.078125 0  L 9.078125 54.6875  L 18.109375 54.6875  L 18.109375 46.1875  Q 20.953125 51.171875 25.484375 53.578125  Q 30.03125 56 36.53125 56  Q 37.453125 56 38.578125 55.875  Q 39.703125 55.765625 41.0625 55.515625  z "
               id="DejaVuSans-114" />
            <path
               d="M 9.078125 75.984375  L 18.109375 75.984375  L 18.109375 31.109375  L 44.921875 54.6875  L 56.390625 54.6875  L 27.390625 29.109375  L 57.625 0  L 45.90625 0  L 18.109375 26.703125  L 18.109375 0  L 9.078125 0  z "
               id="DejaVuSans-107" />
            <path
               d="M 4.890625 31.390625  L 31.203125 31.390625  L 31.203125 23.390625  L 4.890625 23.390625  z "
               id="DejaVuSans-45" />
            <path
               d="M 9.8125 72.90625  L 19.671875 72.90625  L 19.671875 8.296875  L 55.171875 8.296875  L 55.171875 0  L 9.8125 0  z "
               id="DejaVuSans-76" />
            <path
               d="M 18.109375 8.203125  L 18.109375 -20.796875  L 9.078125 -20.796875  L 9.078125 54.6875  L 18.109375 54.6875  L 18.109375 46.390625  Q 20.953125 51.265625 25.265625 53.625  Q 29.59375 56 35.59375 56  Q 45.5625 56 51.78125 48.09375  Q 58.015625 40.1875 58.015625 27.296875  Q 58.015625 14.40625 51.78125 6.484375  Q 45.5625 -1.421875 35.59375 -1.421875  Q 29.59375 -1.421875 25.265625 0.953125  Q 20.953125 3.328125 18.109375 8.203125  z M 48.6875 27.296875  Q 48.6875 37.203125 44.609375 42.84375  Q 40.53125 48.484375 33.40625 48.484375  Q 26.265625 48.484375 22.1875 42.84375  Q 18.109375 37.203125 18.109375 27.296875  Q 18.109375 17.390625 22.1875 11.75  Q 26.265625 6.109375 33.40625 6.109375  Q 40.53125 6.109375 44.609375 11.75  Q 48.6875 17.390625 48.6875 27.296875  z "
               id="DejaVuSans-112" />
            <path
               id="DejaVuSans-32" />
            <path
               d="M 37.109375 75.984375  L 37.109375 68.5  L 28.515625 68.5  Q 23.6875 68.5 21.796875 66.546875  Q 19.921875 64.59375 19.921875 59.515625  L 19.921875 54.6875  L 34.71875 54.6875  L 34.71875 47.703125  L 19.921875 47.703125  L 19.921875 0  L 10.890625 0  L 10.890625 47.703125  L 2.296875 47.703125  L 2.296875 54.6875  L 10.890625 54.6875  L 10.890625 58.5  Q 10.890625 67.625 15.140625 71.796875  Q 19.390625 75.984375 28.609375 75.984375  z "
               id="DejaVuSans-102" />
            <path
               d="M 9.421875 54.6875  L 18.40625 54.6875  L 18.40625 0  L 9.421875 0  z M 9.421875 75.984375  L 18.40625 75.984375  L 18.40625 64.59375  L 9.421875 64.59375  z "
               id="DejaVuSans-105" />
            <path
               d="M 54.890625 33.015625  L 54.890625 0  L 45.90625 0  L 45.90625 32.71875  Q 45.90625 40.484375 42.875 44.328125  Q 39.84375 48.1875 33.796875 48.1875  Q 26.515625 48.1875 22.3125 43.546875  Q 18.109375 38.921875 18.109375 30.90625  L 18.109375 0  L 9.078125 0  L 9.078125 54.6875  L 18.109375 54.6875  L 18.109375 46.1875  Q 21.34375 51.125 25.703125 53.5625  Q 30.078125 56 35.796875 56  Q 45.21875 56 50.046875 50.171875  Q 54.890625 44.34375 54.890625 33.015625  z "
               id="DejaVuSans-110" />
            <path
               d="M 18.3125 70.21875  L 18.3125 54.6875  L 36.8125 54.6875  L 36.8125 47.703125  L 18.3125 47.703125  L 18.3125 18.015625  Q 18.3125 11.328125 20.140625 9.421875  Q 21.96875 7.515625 27.59375 7.515625  L 36.8125 7.515625  L 36.8125 0  L 27.59375 0  Q 17.1875 0 13.234375 3.875  Q 9.28125 7.765625 9.28125 18.015625  L 9.28125 47.703125  L 2.6875 47.703125  L 2.6875 54.6875  L 9.28125 54.6875  L 9.28125 70.21875  z "
               id="DejaVuSans-116" />
            <path
               d="M 44.28125 53.078125  L 44.28125 44.578125  Q 40.484375 46.53125 36.375 47.5  Q 32.28125 48.484375 27.875 48.484375  Q 21.1875 48.484375 17.84375 46.4375  Q 14.5 44.390625 14.5 40.28125  Q 14.5 37.15625 16.890625 35.375  Q 19.28125 33.59375 26.515625 31.984375  L 29.59375 31.296875  Q 39.15625 29.25 43.1875 25.515625  Q 47.21875 21.78125 47.21875 15.09375  Q 47.21875 7.46875 41.1875 3.015625  Q 35.15625 -1.421875 24.609375 -1.421875  Q 20.21875 -1.421875 15.453125 -0.5625  Q 10.6875 0.296875 5.421875 2  L 5.421875 11.28125  Q 10.40625 8.6875 15.234375 7.390625  Q 20.0625 6.109375 24.8125 6.109375  Q 31.15625 6.109375 34.5625 8.28125  Q 37.984375 10.453125 37.984375 14.40625  Q 37.984375 18.0625 35.515625 20.015625  Q 33.0625 21.96875 24.703125 23.78125  L 21.578125 24.515625  Q 13.234375 26.265625 9.515625 29.90625  Q 5.8125 33.546875 5.8125 39.890625  Q 5.8125 47.609375 11.28125 51.796875  Q 16.75 56 26.8125 56  Q 31.78125 56 36.171875 55.265625  Q 40.578125 54.546875 44.28125 53.078125  z "
               id="DejaVuSans-115" />
            <path
               d="M 54.890625 33.015625  L 54.890625 0  L 45.90625 0  L 45.90625 32.71875  Q 45.90625 40.484375 42.875 44.328125  Q 39.84375 48.1875 33.796875 48.1875  Q 26.515625 48.1875 22.3125 43.546875  Q 18.109375 38.921875 18.109375 30.90625  L 18.109375 0  L 9.078125 0  L 9.078125 75.984375  L 18.109375 75.984375  L 18.109375 46.1875  Q 21.34375 51.125 25.703125 53.5625  Q 30.078125 56 35.796875 56  Q 45.21875 56 50.046875 50.171875  Q 54.890625 44.34375 54.890625 33.015625  z "
               id="DejaVuSans-104" />
            <path
               d="M 56.203125 29.59375  L 56.203125 25.203125  L 14.890625 25.203125  Q 15.484375 15.921875 20.484375 11.0625  Q 25.484375 6.203125 34.421875 6.203125  Q 39.59375 6.203125 44.453125 7.46875  Q 49.3125 8.734375 54.109375 11.28125  L 54.109375 2.78125  Q 49.265625 0.734375 44.1875 -0.34375  Q 39.109375 -1.421875 33.890625 -1.421875  Q 20.796875 -1.421875 13.15625 6.1875  Q 5.515625 13.8125 5.515625 26.8125  Q 5.515625 40.234375 12.765625 48.109375  Q 20.015625 56 32.328125 56  Q 43.359375 56 49.78125 48.890625  Q 56.203125 41.796875 56.203125 29.59375  z M 47.21875 32.234375  Q 47.125 39.59375 43.09375 43.984375  Q 39.0625 48.390625 32.421875 48.390625  Q 24.90625 48.390625 20.390625 44.140625  Q 15.875 39.890625 15.1875 32.171875  z "
               id="DejaVuSans-101" />
            <path
               d="M 48.6875 27.296875  Q 48.6875 37.203125 44.609375 42.84375  Q 40.53125 48.484375 33.40625 48.484375  Q 26.265625 48.484375 22.1875 42.84375  Q 18.109375 37.203125 18.109375 27.296875  Q 18.109375 17.390625 22.1875 11.75  Q 26.265625 6.109375 33.40625 6.109375  Q 40.53125 6.109375 44.609375 11.75  Q 48.6875 17.390625 48.6875 27.296875  z M 18.109375 46.390625  Q 20.953125 51.265625 25.265625 53.625  Q 29.59375 56 35.59375 56  Q 45.5625 56 51.78125 48.09375  Q 58.015625 40.1875 58.015625 27.296875  Q 58.015625 14.40625 51.78125 6.484375  Q 45.5625 -1.421875 35.59375 -1.421875  Q 29.59375 -1.421875 25.265625 0.953125  Q 20.953125 3.328125 18.109375 8.203125  L 18.109375 0  L 9.078125 0  L 9.078125 75.984375  L 18.109375 75.984375  z "
               id="DejaVuSans-98" />
            <path
               d="M 8.5 21.578125  L 8.5 54.6875  L 17.484375 54.6875  L 17.484375 21.921875  Q 17.484375 14.15625 20.5 10.265625  Q 23.53125 6.390625 29.59375 6.390625  Q 36.859375 6.390625 41.078125 11.03125  Q 45.3125 15.671875 45.3125 23.6875  L 45.3125 54.6875  L 54.296875 54.6875  L 54.296875 0  L 45.3125 0  L 45.3125 8.40625  Q 42.046875 3.421875 37.71875 1  Q 33.40625 -1.421875 27.6875 -1.421875  Q 18.265625 -1.421875 13.375 4.4375  Q 8.5 10.296875 8.5 21.578125  z M 31.109375 56  z "
               id="DejaVuSans-117" />
            <path
               d="M 45.40625 46.390625  L 45.40625 75.984375  L 54.390625 75.984375  L 54.390625 0  L 45.40625 0  L 45.40625 8.203125  Q 42.578125 3.328125 38.25 0.953125  Q 33.9375 -1.421875 27.875 -1.421875  Q 17.96875 -1.421875 11.734375 6.484375  Q 5.515625 14.40625 5.515625 27.296875  Q 5.515625 40.1875 11.734375 48.09375  Q 17.96875 56 27.875 56  Q 33.9375 56 38.25 53.625  Q 42.578125 51.265625 45.40625 46.390625  z M 14.796875 27.296875  Q 14.796875 17.390625 18.875 11.75  Q 22.953125 6.109375 30.078125 6.109375  Q 37.203125 6.109375 41.296875 11.75  Q 45.40625 17.390625 45.40625 27.296875  Q 45.40625 37.203125 41.296875 42.84375  Q 37.203125 48.484375 30.078125 48.484375  Q 22.953125 48.484375 18.875 42.84375  Q 14.796875 37.203125 14.796875 27.296875  z "
               id="DejaVuSans-100" />
            <path
               d="M 34.28125 27.484375  Q 23.390625 27.484375 19.1875 25  Q 14.984375 22.515625 14.984375 16.5  Q 14.984375 11.71875 18.140625 8.90625  Q 21.296875 6.109375 26.703125 6.109375  Q 34.1875 6.109375 38.703125 11.40625  Q 43.21875 16.703125 43.21875 25.484375  L 43.21875 27.484375  z M 52.203125 31.203125  L 52.203125 0  L 43.21875 0  L 43.21875 8.296875  Q 40.140625 3.328125 35.546875 0.953125  Q 30.953125 -1.421875 24.3125 -1.421875  Q 15.921875 -1.421875 10.953125 3.296875  Q 6 8.015625 6 15.921875  Q 6 25.140625 12.171875 29.828125  Q 18.359375 34.515625 30.609375 34.515625  L 43.21875 34.515625  L 43.21875 35.40625  Q 43.21875 41.609375 39.140625 45  Q 35.0625 48.390625 27.6875 48.390625  Q 23 48.390625 18.546875 47.265625  Q 14.109375 46.140625 10.015625 43.890625  L 10.015625 52.203125  Q 14.9375 54.109375 19.578125 55.046875  Q 24.21875 56 28.609375 56  Q 40.484375 56 46.34375 49.84375  Q 52.203125 43.703125 52.203125 31.203125  z "
               id="DejaVuSans-97" />
            <path
               d="M 32.171875 -5.078125  Q 28.375 -14.84375 24.75 -17.8125  Q 21.140625 -20.796875 15.09375 -20.796875  L 7.90625 -20.796875  L 7.90625 -13.28125  L 13.1875 -13.28125  Q 16.890625 -13.28125 18.9375 -11.515625  Q 21 -9.765625 23.484375 -3.21875  L 25.09375 0.875  L 2.984375 54.6875  L 12.5 54.6875  L 29.59375 11.921875  L 46.6875 54.6875  L 56.203125 54.6875  z "
               id="DejaVuSans-121" />
          </defs>
          <use
             xlink:href="#DejaVuSans-87"
             id="use92" />
          <use
             x="93.001953"
             xlink:href="#DejaVuSans-111"
             id="use93" />
          <use
             x="154.183594"
             xlink:href="#DejaVuSans-114"
             id="use94" />
          <use
             x="195.296875"
             xlink:href="#DejaVuSans-107"
             id="use95" />
          <use
             x="253.207031"
             xlink:href="#DejaVuSans-45"
             id="use96" />
          <use
             x="289.291016"
             xlink:href="#DejaVuSans-76"
             id="use97" />
          <use
             x="343.253906"
             xlink:href="#DejaVuSans-111"
             id="use98" />
          <use
             x="404.435547"
             xlink:href="#DejaVuSans-111"
             id="use99" />
          <use
             x="465.617188"
             xlink:href="#DejaVuSans-112"
             id="use100" />
          <use
             x="529.09375"
             xlink:href="#DejaVuSans-32"
             id="use101" />
          <use
             x="560.880859"
             xlink:href="#DejaVuSans-111"
             id="use102" />
          <use
             x="622.0625"
             xlink:href="#DejaVuSans-102"
             id="use103" />
          <use
             x="657.267578"
             xlink:href="#DejaVuSans-32"
             id="use104" />
          <use
             x="689.054688"
             xlink:href="#DejaVuSans-112"
             id="use105" />
          <use
             x="752.53125"
             xlink:href="#DejaVuSans-111"
             id="use106" />
          <use
             x="813.712891"
             xlink:href="#DejaVuSans-105"
             id="use107" />
          <use
             x="841.496094"
             xlink:href="#DejaVuSans-110"
             id="use108" />
          <use
             x="904.875"
             xlink:href="#DejaVuSans-116"
             id="use109" />
          <use
             x="944.083984"
             xlink:href="#DejaVuSans-115"
             id="use110" />
          <use
             x="996.183594"
             xlink:href="#DejaVuSans-32"
             id="use111" />
          <use
             x="1027.970703"
             xlink:href="#DejaVuSans-111"
             id="use112" />
          <use
             x="1089.152344"
             xlink:href="#DejaVuSans-110"
             id="use113" />
          <use
             x="1152.53125"
             xlink:href="#DejaVuSans-32"
             id="use114" />
          <use
             x="1184.318359"
             xlink:href="#DejaVuSans-116"
             id="use115" />
          <use
             x="1223.527344"
             xlink:href="#DejaVuSans-104"
             id="use116" />
          <use
             x="1286.90625"
             xlink:href="#DejaVuSans-101"
             id="use117" />
          <use
             x="1348.429688"
             xlink:href="#DejaVuSans-32"
             id="use118" />
          <use
             x="1380.216797"
             xlink:href="#DejaVuSans-98"
             id="use119" />
          <use
             x="1443.693359"
             xlink:href="#DejaVuSans-111"
             id="use120" />
          <use
             x="1504.875"
             xlink:href="#DejaVuSans-117"
             id="use121" />
          <use
             x="1568.253906"
             xlink:href="#DejaVuSans-110"
             id="use122" />
          <use
             x="1631.632812"
             xlink:href="#DejaVuSans-100"
             id="use123" />
          <use
             x="1695.109375"
             xlink:href="#DejaVuSans-97"
             id="use124" />
          <use
             x="1756.388672"
             xlink:href="#DejaVuSans-114"
             id="use125" />
          <use
             x="1797.501953"
             xlink:href="#DejaVuSans-121"
             id="use126" />
        </g>
      </g>
      <g
         id="text_18">
        <!-- Work-Loop of inner points -->
        <g
           style="fill:#234175;"
           transform="translate(69.2178 185.766925)scale(0.1 -0.1)"
           id="g151">
          <use
             xlink:href="#DejaVuSans-87"
             id="use127" />
          <use
             x="93.001953"
             xlink:href="#DejaVuSans-111"
             id="use128" />
          <use
             x="154.183594"
             xlink:href="#DejaVuSans-114"
             id="use129" />
          <use
             x="195.296875"
             xlink:href="#DejaVuSans-107"
             id="use130" />
          <use
             x="253.207031"
             xlink:href="#DejaVuSans-45"
             id="use131" />
          <use
             x="289.291016"
             xlink:href="#DejaVuSans-76"
             id="use132" />
          <use
             x="343.253906"
             xlink:href="#DejaVuSans-111"
             id="use133" />
          <use
             x="404.435547"
             xlink:href="#DejaVuSans-111"
             id="use134" />
          <use
             x="465.617188"
             xlink:href="#DejaVuSans-112"
             id="use135" />
          <use
             x="529.09375"
             xlink:href="#DejaVuSans-32"
             id="use136" />
          <use
             x="560.880859"
             xlink:href="#DejaVuSans-111"
             id="use137" />
          <use
             x="622.0625"
             xlink:href="#DejaVuSans-102"
             id="use138" />
          <use
             x="657.267578"
             xlink:href="#DejaVuSans-32"
             id="use139" />
          <use
             x="689.054688"
             xlink:href="#DejaVuSans-105"
             id="use140" />
          <use
             x="716.837891"
             xlink:href="#DejaVuSans-110"
             id="use141" />
          <use
             x="780.216797"
             xlink:href="#DejaVuSans-110"
             id="use142" />
          <use
             x="843.595703"
             xlink:href="#DejaVuSans-101"
             id="use143" />
          <use
             x="905.119141"
             xlink:href="#DejaVuSans-114"
             id="use144" />
          <use
             x="946.232422"
             xlink:href="#DejaVuSans-32"
             id="use145" />
          <use
             x="978.019531"
             xlink:href="#DejaVuSans-112"
             id="use146" />
          <use
             x="1041.496094"
             xlink:href="#DejaVuSans-111"
             id="use147" />
          <use
             x="1102.677734"
             xlink:href="#DejaVuSans-105"
             id="use148" />
          <use
             x="1130.460938"
             xlink:href="#DejaVuSans-110"
             id="use149" />
          <use
             x="1193.839844"
             xlink:href="#DejaVuSans-116"
             id="use150" />
          <use
             x="1233.048828"
             xlink:href="#DejaVuSans-115"
             id="use151" />
        </g>
      </g>
      <g
         id="text_19">
        <!-- Work Loops -->
        <g
           transform="translate(186.785625 28.56)scale(0.12 -0.12)"
           id="g161">
          <use
             xlink:href="#DejaVuSans-87"
             id="use152" />
          <use
             x="93.001953"
             xlink:href="#DejaVuSans-111"
             id="use153" />
          <use
             x="154.183594"
             xlink:href="#DejaVuSans-114"
             id="use154" />
          <use
             x="195.296875"
             xlink:href="#DejaVuSans-107"
             id="use155" />
          <use
             x="253.207031"
             xlink:href="#DejaVuSans-32"
             id="use156" />
          <use
             x="284.994141"
             xlink:href="#DejaVuSans-76"
             id="use157" />
          <use
             x="338.957031"
             xlink:href="#DejaVuSans-111"
             id="use158" />
          <use
             x="400.138672"
             xlink:href="#DejaVuSans-111"
             id="use159" />
          <use
             x="461.320312"
             xlink:href="#DejaVuSans-112"
             id="use160" />
          <use
             x="524.796875"
             xlink:href="#DejaVuSans-115"
             id="use161" />
        </g>
      </g>
    </g>
  </g>
  <ellipse
     style="fill:#000000;fill-opacity:1;stroke:none;stroke-width:0.55;stroke-linecap:round;stroke-linejoin:round;stroke-dasharray:none;stroke-dashoffset:0;stroke-opacity:1"
     id="path169-0"
     cx="373.73245"
     cy="198.8607"
     rx="1.9483395"
     ry="1.5940959" />
  <ellipse
     style="fill:#000000;fill-opacity:1;stroke:none;stroke-width:0.55;stroke-linecap:round;stroke-linejoin:round;stroke-dasharray:none;stroke-dashoffset:0;stroke-opacity:1"
     id="path169-9"
     cx="373.68265"
     cy="251.84502"
     rx="1.9483395"
     ry="1.5940959" />
  <defs
     id="defs161">
    <clipPath
       id="p335128c8fa">
      <rect
         height="217.44"
         width="334.8"
         x="54"
         y="34.56"
         id="rect161" />
    </clipPath>
  </defs>
  <path
     style="opacity:1;fill:#dac182;stroke:#dac182;stroke-width:1.65;stroke-linecap:round;stroke-dasharray:none;stroke-opacity:1;fill-opacity:1"
     d="M 267.09963,60.929889 233.09225,76.870845 Z"
     id="path161" />
  <path
     style="opacity:1;fill:#dac182;fill-opacity:1;stroke:#dac182;stroke-width:1.65;stroke-linecap:round;stroke-dasharray:none;stroke-opacity:1"
     d="M 278.78967,61.284133 262.8487,154.80442 Z"
     id="path162" />
  <path
     style="opacity:1;fill:#dac182;fill-opacity:1;stroke:#000000;stroke-width:0.85;stroke-linecap:round;stroke-dasharray:1.7,3.4;stroke-opacity:1;stroke-dashoffset:0"
     d="M 69.077491,87.498157 V 252.57565 Z"
     id="path167" />
  <path
     style="opacity:1;fill:#dac182;fill-opacity:1;stroke:#000000;stroke-width:0.849998;stroke-linecap:round;stroke-dasharray:1.7, 3.4;stroke-dashoffset:0;stroke-opacity:1"
     d="m 373.72693,198.37639 v 54.19926 z"
     id="path168" />
  <text
     xml:space="preserve"
     style="font-size:9px;opacity:1;fill:#000000;fill-opacity:1;stroke:none;stroke-width:0.85;stroke-linecap:round;stroke-dasharray:none;stroke-dashoffset:0;stroke-opacity:1"
     x="72.265678"
     y="248.32472"
     id="text168"
     inkscape:label="text168"><tspan
       sodipodi:role="line"
       id="tspan168"
       style="fill:#000000;fill-opacity:1;stroke:none;stroke-width:0.85;stroke-dasharray:none;stroke-dashoffset:0"
       x="72.265678"
       y="248.32472">xmin</tspan></text>
  <text
     xml:space="preserve"
     transform="matrix(0.75,0,0,0.75,-3.896679,0)"
     id="text169"
     style="white-space:pre;shape-inside:url(#rect169);opacity:1;fill:#000000;fill-opacity:1;stroke:none;stroke-width:0.733333;stroke-linecap:round;stroke-dasharray:none;stroke-dashoffset:0;stroke-opacity:1"><tspan
       x="505.85938"
       y="332.60031"
       id="tspan4"><tspan
         style="stroke-linecap:butt"
         id="tspan3">xmax</tspan></tspan></text>
  <ellipse
     style="opacity:1;fill:#000000;fill-opacity:1;stroke:none;stroke-width:0.55;stroke-linecap:round;stroke-dasharray:none;stroke-dashoffset:0;stroke-opacity:1"
     id="path169"
     cx="69.254616"
     cy="86.966789"
     rx="1.9483395"
     ry="1.5940959" />
  <ellipse
     style="fill:#000000;fill-opacity:1;stroke:none;stroke-width:0.55;stroke-linecap:round;stroke-linejoin:round;stroke-dasharray:none;stroke-dashoffset:0;stroke-opacity:1"
     id="path169-7"
     cx="69.38192"
     cy="251.55997"
     rx="1.9483395"
     ry="1.5940959" />
</svg>
